<svg width="24" height="24" viewBox="0 0 24 24" xmlns="http://www.w3.org/2000/svg">
<path d="M19.26 8.85543C17.3317 6.80728 15.0559 6.35335 12.8515 7.57723C12.6498 7.68921 12.4935 7.77322 12.3599 7.82938C12.4239 7.72066 12.4615 7.59335 12.4615 7.45666C12.4615 6.63618 12.4615 6.39615 12.4615 6.33569C12.4615 6.3231 12.4615 6.31812 12.4615 6.31752C12.4615 6.28611 12.4615 6.20636 12.4615 6.02181C12.4615 4.83505 13.3932 3.86959 14.5384 3.86959C14.9208 3.86959 15.2307 3.54839 15.2307 3.15218C15.2307 2.75596 14.9208 2.43477 14.5384 2.43477C13.4866 2.43477 12.5436 2.92401 11.9082 3.69371C11.0968 2.09386 9.47711 1 7.61526 1H6.23065C5.84829 1 5.53834 1.32119 5.53834 1.71741V3.15222C5.53834 4.75711 6.26867 6.18848 7.40296 7.10849C6.46041 7.39573 5.56699 7.98243 4.74515 8.85543C2.97366 10.7369 2.67859 13.2984 3.29095 15.8605C3.8966 18.3945 5.2434 20.4642 6.21269 21.4665C7.4997 22.7973 9.10968 23.4939 10.6863 22.5962C11.088 22.3673 11.6333 22.0246 12.0026 22.0067C12.3717 22.0246 12.918 22.3677 13.3188 22.5962C14.7249 23.3968 16.3137 22.9956 17.7924 21.4665C19.1016 20.1127 20.2572 17.8756 20.7364 15.767C21.3134 13.2275 20.9954 10.6988 19.26 8.85543ZM6.92296 3.15222V2.43481H7.61526C9.52396 2.43481 11.0768 4.04395 11.0768 6.02185C11.0768 6.43212 11.0768 6.55213 11.0768 6.58233C11.0768 6.58865 11.0768 6.5911 11.0768 6.5914C11.0768 6.60708 11.0768 6.647 11.0768 6.73926H10.3845C8.4758 6.73926 6.92296 5.13012 6.92296 3.15222ZM19.3885 15.4381C18.906 17.561 17.7479 19.4854 16.8143 20.4509C15.7803 21.52 14.8287 21.8188 13.9855 21.3387C13.4563 21.0373 12.7575 20.5891 12.0182 20.5717C12.0077 20.5714 11.9973 20.5714 11.9868 20.5717C11.2464 20.5891 10.5466 21.0388 10.0195 21.3387C9.17627 21.8188 8.22464 21.52 7.19078 20.4509C6.28086 19.51 5.1377 17.619 4.63501 15.5157C4.24474 13.8826 4.11898 11.5753 5.7363 9.85742C7.11042 8.39777 8.7503 7.87071 10.4997 8.84206C11.7077 9.51268 12.2976 9.51264 13.5054 8.84206C15.1646 7.92086 16.7672 8.2625 18.2688 9.85742C19.8587 11.5462 19.7552 13.8243 19.3885 15.4381Z"/>
</svg>
