<svg width="48" height="48" viewBox="0 0 48 48" fill="none" xmlns="http://www.w3.org/2000/svg">
<path fill-rule="evenodd" clip-rule="evenodd" d="M10.51 37.589C8.39948 35.405 6.39047 32.864 5.31597 29.9974C4.52147 27.8764 4.34997 25.8849 4.47597 23.6449C4.50747 23.0989 4.55297 22.5529 4.59847 22.0069C4.60897 21.8844 4.62997 21.7654 4.65797 21.6499C5.72547 17.3099 7.91648 13.3479 11.5775 10.6844C16.6875 6.9639 23.145 6.8274 29.06 8.3429C30.25 6.5264 31.993 5.4274 34.2505 5.3154C35.066 5.2734 35.8395 5.6549 36.3015 6.3304C36.767 7.0059 36.8475 7.8564 36.5185 8.6089C36.0495 9.6729 35.934 10.7649 36.116 11.8884C39.014 13.4669 40.6625 16.0534 41.5201 19.1719C42.0941 19.1579 42.6366 19.1614 43.2246 19.4134C44.0821 19.7809 44.6316 20.6034 44.6456 21.5379C44.6701 23.1794 44.6911 24.8209 44.7156 26.4659C44.7156 26.5219 44.7156 26.5779 44.7121 26.6304C44.6771 27.2639 44.4321 27.8449 43.9666 28.2789C43.1826 29.0069 42.3706 28.9684 41.4815 29.0069C40.001 32.717 37.446 35.3245 34.772 38.247C34.373 38.6845 34.2925 40.1685 34.3275 40.753C34.3625 41.404 34.135 42.0235 33.687 42.496C33.239 42.9685 32.6335 43.231 31.9825 43.231C30.432 43.231 28.8815 43.231 27.3275 43.231C26.057 43.231 25.014 42.216 24.979 40.9455C24.979 40.9175 24.9755 40.879 24.9755 40.8335C23.642 41.1135 22.2945 41.047 20.9575 40.7565C20.9505 40.8335 20.9435 40.9105 20.9435 40.956C20.898 42.2195 19.862 43.2205 18.595 43.2205C17.006 43.2205 15.417 43.2205 13.828 43.2205C12.5925 43.2205 11.5705 42.265 11.4865 41.033C11.4025 39.822 11.028 38.6845 10.51 37.596V37.589ZM34.2995 17.3204C35.1815 17.3204 35.899 18.0379 35.899 18.9199C35.899 19.8019 35.1815 20.5194 34.2995 20.5194C33.4175 20.5194 32.7 19.8019 32.7 18.9199C32.7 18.0379 33.4175 17.3204 34.2995 17.3204ZM13.828 41.614C15.417 41.614 17.006 41.614 18.595 41.614C18.9975 41.614 19.33 41.2955 19.344 40.893C19.3755 40.053 19.6135 39.3845 20.3135 39.094C20.471 39.0275 20.6285 39.0205 20.793 39.0625C22.291 39.465 23.7785 39.5595 25.2485 39.1045C25.35 39.073 25.4375 39.066 25.5425 39.073C26.232 39.1395 26.5505 39.7905 26.5785 40.893C26.589 41.299 26.9215 41.621 27.3275 41.621C28.878 41.621 30.4285 41.621 31.9825 41.621C32.196 41.621 32.378 41.5405 32.525 41.3865C32.672 41.2325 32.742 41.0435 32.728 40.83C32.658 39.556 32.8855 37.925 33.5925 37.1585C36.256 34.25 38.8285 31.6705 40.176 27.9324C40.2775 27.6559 40.5085 27.4739 40.8025 27.4424C41.765 27.3409 43.0566 27.5999 43.1196 26.5289C43.1196 26.5114 43.1196 26.4939 43.1196 26.4764C43.0951 24.8349 43.0741 23.1934 43.0495 21.5484C43.0461 21.2474 42.8745 20.9919 42.598 20.8729C42.15 20.6804 41.4675 20.7784 40.862 20.7749C40.512 20.7749 40.2145 20.5404 40.134 20.1974C39.399 17.0614 37.901 14.5379 35.0275 13.1134C34.8175 13.0084 34.681 12.8334 34.6285 12.6024C34.275 10.9889 34.4045 9.4384 35.059 7.9509C35.1675 7.7059 35.143 7.4434 34.989 7.2264C34.8385 7.0059 34.6005 6.8904 34.3345 6.9044C32.4585 6.9989 31.069 7.9509 30.117 9.6834C29.949 9.99141 29.599 10.1384 29.2595 10.0439C17.4085 6.7574 8.77748 11.5874 6.21197 22.0279C6.20147 22.0664 6.19797 22.1014 6.19447 22.1434C5.83047 26.3329 5.57847 30.2214 11.756 36.574C11.8155 36.6335 11.8575 36.693 11.8925 36.77C12.526 38.079 12.981 39.444 13.0825 40.9175C13.1105 41.3095 13.436 41.614 13.828 41.614Z" fill="black"/>
<path d="M14.5489 23.708C19.6075 23.708 23.7084 19.6071 23.7084 14.5484C23.7084 9.48977 19.6075 5.38892 14.5489 5.38892C9.4902 5.38892 5.38934 9.48977 5.38934 14.5484C5.38934 19.6071 9.4902 23.708 14.5489 23.708Z" fill="#C4C5CC"/>
<path fill-rule="evenodd" clip-rule="evenodd" d="M14.5485 3.78955C20.4915 3.78955 25.3075 8.60556 25.3075 14.5486C25.3075 20.4916 20.4915 25.3076 14.5485 25.3076C8.6055 25.3076 3.78949 20.4916 3.78949 14.5486C3.78949 8.60556 8.6055 3.78955 14.5485 3.78955ZM15.0945 17.4921H13.677C13.544 17.4921 13.4355 17.6006 13.4355 17.7336V18.6051C13.4355 18.7381 13.327 18.8466 13.194 18.8466H12.1895C12.0565 18.8466 11.948 18.7381 11.948 18.6051V17.7336C11.948 17.6006 11.8395 17.4921 11.7065 17.4921H10.9785C10.8455 17.4921 10.737 17.3836 10.737 17.2506V16.5226C10.737 16.3896 10.8455 16.2811 10.9785 16.2811H11.7065C11.8395 16.2811 11.948 16.1726 11.948 16.0396V15.9066C11.948 15.7736 11.8395 15.6651 11.7065 15.6651H10.9785C10.8455 15.6651 10.737 15.5566 10.737 15.4236V14.6956C10.737 14.5626 10.8455 14.4541 10.9785 14.4541H11.7065C11.8395 14.4541 11.948 14.3456 11.948 14.2126V10.4886C11.948 10.3556 12.0565 10.2471 12.1895 10.2471H15.231C16.1795 10.2471 16.9355 10.4956 17.5025 10.9891C18.0695 11.4826 18.353 12.1406 18.353 12.9596C18.353 13.7961 18.0835 14.4506 17.5445 14.9266C17.0055 15.4026 16.2565 15.6441 15.2975 15.6581H13.6735C13.5405 15.6581 13.432 15.7666 13.432 15.8996V16.0326C13.432 16.1656 13.5405 16.2741 13.6735 16.2741H15.091C15.224 16.2741 15.3325 16.3826 15.3325 16.5156V17.2436C15.3325 17.3766 15.224 17.4851 15.091 17.4851L15.0945 17.4921ZM13.677 14.4611H15.2135C15.7455 14.4611 16.1585 14.3351 16.4385 14.0901C16.722 13.8416 16.862 13.4741 16.862 12.9841C16.862 12.5431 16.722 12.1826 16.4455 11.9061C16.169 11.6261 15.7875 11.4826 15.301 11.4686H13.677C13.544 11.4686 13.4355 11.5771 13.4355 11.7101V14.2231C13.4355 14.3561 13.544 14.4646 13.677 14.4646V14.4611ZM14.5485 5.39255C19.606 5.39255 23.708 9.49456 23.708 14.5521C23.708 19.6096 19.606 23.7116 14.5485 23.7116C9.491 23.7116 5.38899 19.6096 5.38899 14.5521C5.38899 9.49456 9.491 5.39255 14.5485 5.39255Z" fill="black"/>
</svg>
