<svg width="24" height="24" viewBox="0 0 24 24" xmlns="http://www.w3.org/2000/svg">
<path d="M2.86205 12.8349C3.09373 14.5084 4.52214 15.8043 6.25253 15.8295C6.67208 16.8054 7.71076 19.5199 7.64678 22.3409C7.63857 22.7026 7.92986 23 8.29114 23H15.7322C16.1149 23 16.413 22.6682 16.3732 22.2883C16.3688 22.2461 15.9596 18.1216 17.703 16.0661C18.0534 15.9359 18.3831 15.7502 18.6763 15.5131C19.133 15.1437 19.4887 14.6625 19.7095 14.124H19.7159C21.5268 14.124 23 12.6507 23 10.8399C23 9.5875 22.2857 8.46125 21.2006 7.91052C21.2625 7.63243 21.2937 7.34763 21.2937 7.05863C21.2937 4.89593 19.5341 3.13645 17.3711 3.13645C16.6661 3.13645 15.9898 3.32104 15.3972 3.6675C14.7078 2.04586 13.1202 1 11.3679 1C9.66614 1 8.15325 1.97573 7.43271 3.45742C6.93879 3.19961 6.3869 3.0625 5.81894 3.0625C3.89295 3.0625 2.32601 4.62939 2.32601 6.55542C2.32601 6.94386 2.39038 7.32675 2.51503 7.68971C1.6047 8.16442 1 9.11764 1 10.1863C1 10.8609 1.24247 11.5135 1.68273 12.0238C2.0016 12.3933 2.40916 12.6718 2.86205 12.8349ZM15.0466 21.7109H8.93318C8.85772 19.1141 8.02654 16.7451 7.55556 15.5989C7.6885 15.5474 7.8184 15.4876 7.94473 15.4194C8.45524 15.9217 9.08138 16.2745 9.76724 16.4508L10.8567 19.5441C11.0482 20.0879 11.5643 20.4532 12.1408 20.4532C12.7182 20.4532 13.2345 20.0872 13.4255 19.5424L14.7359 15.807C15.1322 16.0396 15.5753 16.1942 16.0417 16.2552C15.067 18.1325 15.0062 20.5326 15.0466 21.7109ZM11.1728 16.5611C12.0203 16.4805 12.8132 16.1347 13.4455 15.5911C12.1125 19.391 12.2154 19.1642 12.1408 19.1642C12.0665 19.1642 12.1363 19.2969 11.1728 16.5611ZM3.52149 8.68946C3.96445 8.60335 4.18402 8.09945 3.94589 7.71643C3.7295 7.36834 3.61512 6.96689 3.61512 6.55542C3.61512 5.34022 4.60378 4.35156 5.81898 4.35156C6.37358 4.35156 6.90389 4.55892 7.31223 4.93537C7.6714 5.26657 8.25479 5.09208 8.37411 4.61916C8.72005 3.24722 9.95115 2.28906 11.3679 2.28906C12.879 2.28906 14.159 3.36843 14.4115 4.85558C14.4989 5.37129 15.1347 5.5735 15.5039 5.20216C16.002 4.70128 16.665 4.42546 17.3711 4.42546C18.8232 4.42546 20.0046 5.60667 20.0046 7.05858C20.0046 7.40109 19.9395 7.73444 19.8112 8.0494C19.6652 8.40763 19.8659 8.81342 20.2394 8.9147C21.1058 9.14965 21.7109 9.94126 21.7109 10.8398C21.7109 11.9399 20.8159 12.8349 19.7159 12.8349C19.6006 12.8349 19.4826 12.8243 19.3651 12.8035C19.0262 12.7434 18.7001 12.9601 18.6241 13.2957C18.3941 14.31 17.506 14.9958 16.4932 14.9958C15.6219 14.9958 14.8378 14.4769 14.4912 13.6861C14.2681 13.1768 13.5477 13.1728 13.3159 13.6743C12.8619 14.6562 11.8708 15.2906 10.7908 15.2906C9.91256 15.2906 9.10406 14.888 8.57275 14.1861C8.35533 13.8989 7.94305 13.8448 7.65881 14.0697C7.26883 14.3784 6.80021 14.5416 6.30354 14.5416C5.10183 14.5416 4.12356 13.5666 4.11824 12.3661C4.11871 12.354 4.11905 12.3419 4.11905 12.3295C4.11905 12.0123 3.88818 11.7422 3.57477 11.6929C2.82982 11.5755 2.28906 10.9419 2.28906 10.1863C2.28906 9.4577 2.80735 8.8282 3.52149 8.68946Z"/>
</svg>
