<svg xmlns="http://www.w3.org/2000/svg" width="22" height="20" viewBox="0 0 22 20"><g><g><path d="M21.355 4.001c.356 0 .645.297.645.664V16.73C22 18.533 20.576 20 18.826 20H3.174C1.424 20 0 18.533 0 16.73V4.664c0-.367.289-.664.645-.664h5.827v-1.32C6.472 1.203 7.64 0 9.075 0h3.85c1.435 0 2.603 1.203 2.603 2.681v1.32zm-8.893 7.16H9.538v1.506c0 .831.656 1.507 1.462 1.507.806 0 1.462-.676 1.462-1.507zm.645-1.329c.356 0 .644.298.644.665v1.206c3.749-.838 6.558-3.343 6.92-6.374H1.329c.362 3.03 3.171 5.536 6.92 6.374v-1.206c0-.367.288-.665.644-.665zm-5.346-7.15v1.32h6.478v-1.32c0-.747-.59-1.354-1.314-1.354h-3.85c-.725 0-1.314.607-1.314 1.353zm12.95 6.072a9.2 9.2 0 0 1-2.002 2.1c-1.404 1.086-3.119 1.84-4.985 2.211-.189 1.376-1.338 2.437-2.724 2.437-1.386 0-2.535-1.061-2.724-2.437-1.866-.371-3.58-1.125-4.985-2.21a9.2 9.2 0 0 1-2.002-2.101v7.975c0 1.071.846 1.943 1.885 1.943h15.652c1.04 0 1.885-.872 1.885-1.943z"/></g></g></svg>