<svg xmlns="http://www.w3.org/2000/svg" width="24" height="24" viewBox="0 0 24 24"><g><g><g/><g/><g><path d="M18.456 8.35a4.67 4.67 0 0 1 1.493 1.042c.805.846 1.167 1.907 1.019 2.989l-1.102 8.058C19.588 22.47 17.559 24 15.146 24H8.854c-2.412 0-4.441-1.53-4.719-3.56L3.102 12.89v-.005l-.07-.505c-.147-1.082.214-2.144 1.019-2.99a4.671 4.671 0 0 1 1.493-1.04v-.698c0-1.646 1.445-2.985 3.222-2.985h4.547c.1-1.273.812-2.448 1.946-3.19l2.064-1.35a.793.793 0 0 1 1.052.168.667.667 0 0 1-.182.974L16.13 2.62c-.734.48-1.205 1.23-1.301 2.048h.407c1.776 0 3.221 1.339 3.221 2.985zm1.015 3.855c.093-.678-.14-1.348-.653-1.889-.62-.652-1.557-1.026-2.57-1.026H14.81v2.377c.265-.047.573-.077.945-.077 1.04 0 1.586.232 2.066.437.406.172.726.309 1.437.309.068 0 .133-.002.196-.004zm-2.524-4.552c0-.875-.768-1.587-1.713-1.587h-.425v1.826h1.44c.236 0 .469.014.698.043zM8.766 6.066c-.945 0-1.713.712-1.713 1.587v.282c.23-.029.462-.043.698-.043h5.55V6.066zM7.75 9.29c-1.012 0-1.948.374-2.568 1.026-.514.54-.746 1.211-.654 1.889l.01.07c.184.036.41.06.707.06.71 0 1.03-.136 1.436-.308.48-.205 1.026-.437 2.066-.437 1.041 0 1.586.232 2.067.437.405.172.725.309 1.436.309.478 0 .78-.062 1.05-.155V9.29zm7.396 13.312c1.654 0 3.04-1.005 3.222-2.339l.893-6.53h-.005c-1.04 0-1.586-.231-2.066-.436-.406-.172-.726-.309-1.437-.309-.592 0-.913.095-1.238.226a.78.78 0 0 1-.319.134c-.453.19-.99.386-1.946.386-1.04 0-1.585-.232-2.066-.437-.406-.172-.726-.309-1.437-.309-.71 0-1.03.137-1.436.31-.48.204-1.026.436-2.066.436-.186 0-.355-.008-.51-.021l.895 6.55c.183 1.334 1.568 2.339 3.222 2.339zm.809-7.813a.742.742 0 0 1 .629.554.697.697 0 0 1-.452.782.803.803 0 0 1-.847-.176.665.665 0 0 1-.106-.798.778.778 0 0 1 .776-.362zm-.855 4.194a.742.742 0 0 1 .629.554.697.697 0 0 1-.452.783.803.803 0 0 1-.847-.176.665.665 0 0 1-.106-.799.778.778 0 0 1 .776-.362zm-2.823-1.466a.803.803 0 0 1-.883-.189.664.664 0 0 1-.088-.78.78.78 0 0 1 .797-.358c.301.05.55.271.608.551.07.316-.117.646-.434.776zm-3.212 1.466a.741.741 0 0 1 .629.554.697.697 0 0 1-.451.783.803.803 0 0 1-.848-.176.665.665 0 0 1-.106-.799.778.778 0 0 1 .776-.362zm-1.7-2.594a.664.664 0 0 1-.064-.802.784.784 0 0 1 .794-.326c.31.057.552.293.6.582a.692.692 0 0 1-.391.72.804.804 0 0 1-.94-.174z"/></g></g></g></svg>