<svg width="24" height="24" viewBox="0 0 24 24" xmlns="http://www.w3.org/2000/svg">
<path fill-rule="evenodd" clip-rule="evenodd" d="M19.7345 23H13.2892C12.9332 23 12.6446 22.7114 12.6446 22.3555V19.3811C12.3843 19.4232 12.1482 19.4317 12.0002 19.4317H12.0001C11.8603 19.4317 11.6417 19.424 11.3985 19.3877V22.3555C11.3985 22.7114 11.11 23 10.754 23H4.2751C3.99769 23 3.75135 22.8225 3.66361 22.5593C2.7962 19.9569 2.67396 17.1685 3.31007 14.4956C3.65879 13.0304 4.34354 11.675 5.04501 10.2865C5.65068 9.08758 6.2688 7.86403 6.69385 6.52385C7.13875 4.99089 6.99073 3.36066 6.27676 1.93277C6.17685 1.733 6.18751 1.49569 6.30494 1.30568C6.42242 1.11567 6.62987 1 6.85322 1H17.1564C17.3797 1 17.5872 1.11567 17.7046 1.30572C17.8221 1.49573 17.8327 1.733 17.7328 1.93281C16.9785 3.44136 16.8569 5.15336 17.3902 6.75339C17.8106 8.01455 18.3947 9.16707 18.968 10.2982C19.6666 11.6765 20.349 13.0231 20.6995 14.4958C21.3356 17.1685 21.2134 19.9569 20.3459 22.5593C20.2582 22.8225 20.0119 23 19.7345 23ZM13.9337 21.7109H19.2616C19.7683 19.9967 19.9255 18.2042 19.7298 16.4341C17.6086 16.2394 15.7502 16.9723 13.9337 18.7161V21.7109ZM7.92938 6.89149L7.92508 6.90567C7.46898 8.34655 6.82355 9.6247 6.20072 10.8581C6.01206 11.2317 5.82546 11.6012 5.64683 11.9699C5.88684 12.0688 6.16534 12.2156 6.48711 12.3851C7.66589 13.0064 9.42536 13.9336 12.0001 13.9336C14.577 13.9336 16.3394 13.0044 17.5196 12.3821L17.5196 12.3821L17.5196 12.3821C17.8417 12.2123 18.1205 12.0653 18.3606 11.9663C18.1834 11.6019 17.9987 11.2372 17.812 10.8688C17.2242 9.70874 16.6172 8.51082 16.1673 7.16099C15.6328 5.55744 15.6447 3.85996 16.1873 2.28859H7.82161C8.33088 3.76787 8.37286 5.36988 7.92938 6.89149ZM4.27987 16.4334C4.0841 18.2037 4.24133 19.9964 4.74801 21.7109H10.1095V18.7582C8.28211 16.9874 6.41443 16.2405 4.27987 16.4334ZM11.1591 17.9484C11.2749 18.0405 11.4032 18.1426 12.0001 18.1426C12.4784 18.1426 12.7726 18.0363 12.8365 17.9865C14.7424 16.0817 16.8706 14.9882 19.5198 15.1271C19.4963 15.016 19.4718 14.9049 19.4455 14.7942C19.3122 14.2344 19.1211 13.6868 18.8945 13.1406C18.672 13.2313 18.4028 13.3726 18.0842 13.54C16.8521 14.187 14.88 15.2227 12.0001 15.2227C9.11804 15.2227 7.14387 14.1854 5.91675 13.5406L5.91674 13.5406L5.91673 13.5406C5.60043 13.3744 5.33376 13.2343 5.11398 13.1447C4.88715 13.6919 4.69632 14.2386 4.56411 14.7941C4.53777 14.9048 4.51332 15.0157 4.48981 15.1267C7.08401 14.9937 9.17465 16.0417 11.0465 17.8715C11.0911 17.8942 11.1245 17.9209 11.1591 17.9484ZM12.6445 12C12.6445 12.356 12.356 12.6445 12 12.6445C11.644 12.6445 11.3555 12.356 11.3555 12C11.3555 11.644 11.644 11.3555 12 11.3555C12.356 11.3555 12.6445 11.644 12.6445 12ZM1.64453 6.15624H2.7096L2.52084 6.345C2.26913 6.59671 2.26913 7.00479 2.52084 7.2565C2.7725 7.50817 3.18062 7.50821 3.43233 7.2565L4.72139 5.96744C4.9698 5.71904 4.97478 5.30933 4.72139 5.05594L3.43233 3.76688C3.18066 3.51517 2.77255 3.51517 2.52084 3.76688C2.26913 4.01859 2.26913 4.42666 2.52084 4.67838L2.7096 4.86718H1.64453C1.28858 4.86718 1 5.15576 1 5.51171C1 5.86766 1.28858 6.15624 1.64453 6.15624ZM21.4792 3.76694C21.7309 4.01865 21.7309 4.42672 21.4792 4.67843L21.2904 4.86719H22.3555C22.7114 4.86719 23 5.15577 23 5.51173C23 5.86768 22.7114 6.15626 22.3555 6.15626H21.2904L21.4792 6.34506C21.7309 6.59677 21.7309 7.00485 21.4792 7.25656C21.2275 7.50827 20.8193 7.50823 20.5677 7.25656L19.2786 5.9675C19.0307 5.71957 19.0244 5.3102 19.2786 5.056L20.5677 3.76694C20.8194 3.51523 21.2275 3.51523 21.4792 3.76694Z"/>
</svg>
