<svg width="24" height="24" viewBox="0 0 24 24" xmlns="http://www.w3.org/2000/svg">
<path fill-rule="evenodd" clip-rule="evenodd" d="M19.3719 10.88C19.5123 11.2257 19.6312 11.5849 19.7252 11.9476C20.0982 13.3875 20.0914 14.9074 19.7055 16.3433L19.5403 17.0081C19.0513 18.976 18.3335 20.8791 17.4068 22.6643L17.2325 23H6.76742L6.59316 22.6643C5.66643 20.8791 4.9486 18.976 4.45961 17.0081L4.29446 16.3434C3.90864 14.9074 3.90182 13.3874 4.27485 11.9476C4.36887 11.5848 4.48768 11.2256 4.62811 10.8799L6.01098 7.475C6.4006 6.51568 6.60701 3.30111 6.54352 2.12883L6.4824 1H17.5177L17.4565 2.12883C17.393 3.30111 17.5994 6.51568 17.989 7.475L19.3719 10.88ZM7.77587 2.28906C7.80651 3.61985 7.62004 6.79489 7.1382 7.98135L6.57461 9.36902C9.93418 10.769 14.0658 10.769 17.4254 9.36902L16.8618 7.98135C16.38 6.79489 16.1935 3.61985 16.2241 2.28906H7.77587ZM7.49812 21.7109H11.3871V17.9287C10.9376 16.9491 9.89949 15.5759 7.50449 14.3716C6.61857 13.9261 5.79456 13.6297 5.25478 13.4584C5.17863 14.3087 5.25229 15.1701 5.4755 15.9983L5.47885 16.0111L5.64559 16.6822C6.0788 18.4258 6.70143 20.1157 7.49812 21.7109ZM5.75537 11.3863C5.65025 11.6451 5.5595 11.9129 5.48502 12.1837C6.87058 12.6071 10.2715 13.8712 12 16.4859C13.7285 13.8712 17.1295 12.6071 18.5151 12.1836C18.4406 11.9128 18.3498 11.6451 18.2447 11.3863L17.9071 10.5549C16.1033 11.3119 14.0751 11.7099 12 11.7099C9.92498 11.7099 7.89673 11.312 6.09302 10.5549L5.75537 11.3863ZM18.3545 16.6822L18.5245 15.9983C18.7476 15.1705 18.8213 14.3097 18.7453 13.4598C17.3008 13.9207 13.8258 15.2746 12.6129 17.9284V21.711H16.5019C17.2986 20.1157 17.9212 18.4258 18.3545 16.6822ZM12.0001 6.58913C11.6616 6.58913 11.3872 6.86352 11.3872 7.202V7.26533C11.3872 7.60381 11.6616 7.8782 12.0001 7.8782C12.3386 7.8782 12.613 7.60381 12.613 7.26533V7.202C12.613 6.86352 12.3386 6.58913 12.0001 6.58913Z"/>
</svg>
