<svg width="24" height="24" viewBox="0 0 24 24" xmlns="http://www.w3.org/2000/svg">
<path d="M21.9894 14.0214C21.1671 12.9466 19.9228 12.4018 18.2912 12.4018C16.4018 12.4018 14.6441 13.2446 13.4717 14.685C12.6803 14.2511 11.7954 14.0244 10.8773 14.0244C9.83932 14.0244 8.82109 14.3253 7.95508 14.8806C8.05171 13.1031 7.97991 10.2777 6.92924 7.74136C7.22827 7.42144 7.83918 6.94425 8.68239 7.16933C9.36763 7.35229 10.0949 7.14113 10.5805 6.61846C11.5501 5.57512 11.8368 4.35403 11.3877 3.18011C10.6756 1.31869 9.39905 1.01555 8.70148 1.00062C7.7836 0.981481 6.74408 1.40882 5.77349 2.20559C4.91457 2.91088 4.20145 3.82397 3.81727 4.71104C3.22562 6.07682 2.40235 9.68503 1.84888 12.6551C1.41419 14.9878 0.73942 19.0793 1.10451 20.2708C1.18037 20.5184 1.39442 20.6997 1.65274 20.7346C1.67403 20.7374 3.82892 21.0389 6.56415 22.2521C7.61854 22.7197 9.70197 23 11.9704 23C12.3554 23 12.746 22.9919 13.1375 22.9753C15.0271 22.8953 18.5398 22.5399 20.8343 21.0612C22.2511 20.1483 23 18.9119 23 17.4862C23 16.0834 22.6505 14.8853 21.9894 14.0214ZM20.1082 19.949C16.5997 22.2101 8.99561 21.8788 7.10815 21.0416C4.96626 20.0915 3.16919 19.6687 2.33291 19.5069C2.29422 18.5808 2.52061 16.3321 3.16091 12.8964C3.78939 9.52356 4.5809 6.30156 5.0428 5.23506C5.63056 3.87869 7.32001 2.32543 8.63711 2.32543C8.64894 2.32543 8.66093 2.3256 8.67259 2.32594C8.91232 2.33097 9.64149 2.34675 10.1404 3.65109C10.4077 4.34984 10.2259 5.04573 9.6001 5.7193C9.4543 5.87607 9.23011 5.94287 9.02856 5.88899C7.29855 5.42708 6.02504 6.60486 5.59322 7.29203C5.47479 7.48069 5.45942 7.71567 5.55217 7.91793C7.07893 11.2448 6.59794 15.4492 6.4817 16.2849C6.06948 16.8635 5.77332 17.5211 5.61873 18.2165C5.53933 18.574 5.76656 18.9279 6.12641 19.0068C6.48627 19.0855 6.84223 18.8599 6.92164 18.5024C7.32761 16.6757 8.99122 15.35 10.8773 15.35C11.7369 15.35 12.558 15.6142 13.2517 16.1139C13.2551 16.1163 13.2586 16.1181 13.262 16.1205C13.2654 16.1228 13.2686 16.1257 13.2721 16.128C13.735 16.4358 14.3336 17.1895 14.525 17.4537C14.6553 17.6339 14.8599 17.7298 15.0673 17.7298C15.2022 17.7298 15.3382 17.6895 15.4561 17.6054C15.7553 17.3917 15.8237 16.9776 15.6086 16.6802C15.5448 16.5918 15.0927 15.9756 14.5534 15.4655C15.4737 14.368 16.8323 13.7275 18.2912 13.7275C21.0801 13.7275 21.6657 15.7715 21.6657 17.4862C21.6657 18.4681 21.1561 19.2736 20.1082 19.949Z"/>
</svg>
