<svg width="24" height="24" viewBox="0 0 24 24" xmlns="http://www.w3.org/2000/svg">
<path fill-rule="evenodd" clip-rule="evenodd" d="M16.3051 3.66668V6.66918C17.9418 7.91 19 9.83582 19 12C19 14.1642 17.9418 16.09 16.3051 17.3308V20.3333C16.3051 21.2525 15.5327 22 14.583 22H9.41698C8.46727 22 7.69494 21.2525 7.69494 20.3333V17.3308C6.05819 16.09 5 14.1642 5 12C5 9.83582 6.05819 7.91 7.69494 6.66918V3.66668C7.69494 2.7475 8.46727 2 9.41698 2H14.583C15.5327 2 16.3051 2.7475 16.3051 3.66668ZM14.583 5.70918V3.66668H9.41613V5.70918C10.2169 5.4 11.0873 5.225 12 5.225C12.9127 5.225 13.7831 5.4 14.583 5.70918ZM9.41698 18.2908V20.3333H14.583V18.2908C13.7831 18.6 12.9127 18.775 12 18.775C11.0873 18.775 10.2169 18.6 9.41698 18.2908ZM6.72203 12C6.72203 14.8166 9.08978 17.1083 12 17.1083C14.9102 17.1083 17.278 14.8167 17.278 12C17.278 9.18332 14.9102 6.89168 12 6.89168C9.08978 6.89168 6.72203 9.18336 6.72203 12ZM13.0186 11.7591L14.4039 12.9424C14.7604 13.2466 14.7948 13.7733 14.4797 14.1183C14.3093 14.3049 14.0716 14.3999 13.8331 14.3999C13.6308 14.3999 13.4276 14.3308 13.264 14.1916L11.4301 12.6249C11.2449 12.4666 11.139 12.2391 11.139 11.9999V9.49995C11.139 9.03995 11.5248 8.66663 12 8.66663C12.4753 8.66663 12.861 9.03995 12.861 9.49995V11.4091L13.0186 11.7591Z"/>
</svg>
