<svg width="24" height="24" viewBox="0 0 24 24" xmlns="http://www.w3.org/2000/svg">
<path d="M13.2648 11.9507L15.6759 14.3617C16.0092 14.6951 16.0086 15.2346 15.6759 15.5673C15.3432 15.9 14.8037 15.9006 14.4703 15.5673L12.0593 13.1562L9.64819 15.5673C9.31546 15.9 8.77597 15.9006 8.44263 15.5673C8.10929 15.234 8.1099 14.6945 8.44263 14.3617L10.8537 11.9507L8.44263 9.53958C8.10929 9.20624 8.1099 8.66675 8.44263 8.33402C8.77536 8.00129 9.31485 8.00068 9.64819 8.33402L12.0593 10.7451L14.4703 8.33402C14.8031 8.00128 15.3426 8.00068 15.6759 8.33402C16.0092 8.66736 16.0086 9.20685 15.6759 9.53958L13.2648 11.9507Z"/>
<path fill-rule="evenodd" clip-rule="evenodd" d="M4.22335 4.22323C8.51448 -0.0678993 15.4958 -0.0678993 19.7869 4.22323C24.078 8.51436 24.0774 15.4962 19.7869 19.7868C15.4964 24.0773 8.51448 24.0779 4.22335 19.7868C-0.0677773 15.4956 -0.0677768 8.51436 4.22335 4.22323ZM5.42889 5.42876C1.80261 9.05504 1.80322 14.9556 5.42889 18.5812C9.05516 22.2075 14.9551 22.2075 18.5814 18.5812C22.2076 14.955 22.207 9.05443 18.5814 5.42876C14.9557 1.8031 9.05516 1.80249 5.42889 5.42876Z"/>
</svg>
