<svg width="24" height="24" viewBox="0 0 24 24" xmlns="http://www.w3.org/2000/svg">
<path d="M16.5831 8.72699C13.8929 8.72699 11.1661 7.74061 11.1661 5.8635C11.1661 3.98638 13.8929 3 16.5831 3C19.2733 3 22 3.98638 22 5.8635C22 7.74061 19.2733 8.72699 16.5831 8.72699ZM16.5831 4.63799C14.1485 4.63799 12.8338 5.51079 12.8338 5.8635C12.8338 6.22218 14.1485 7.089 16.5831 7.089C19.0176 7.089 20.3323 6.2162 20.3323 5.8635C20.3323 5.50481 19.0176 4.63799 16.5831 4.63799Z"/>
<path d="M16.5829 12.003C13.8927 12.003 11.166 11.0166 11.166 9.1395V5.86353H12.8337V9.1395C12.8337 9.49819 14.1484 10.365 16.5829 10.365C19.0175 10.365 20.3322 9.49221 20.3322 9.1395V5.86353H21.9999V9.1395C21.9999 11.0166 19.2732 12.003 16.5829 12.003Z"/>
<path d="M16.5829 15.273C13.8927 15.273 11.166 14.2866 11.166 12.4095V9.13354H12.8337V12.4095C12.8337 12.7682 14.1484 13.635 16.5829 13.635C19.0175 13.635 20.3322 12.7622 20.3322 12.4095V9.13354H21.9999V12.4095C21.9999 14.2926 19.2732 15.273 16.5829 15.273Z"/>
<path d="M16.5829 18.5489C13.8927 18.5489 11.166 17.5625 11.166 15.6854V12.4094H12.8337V15.6854C12.8337 16.0441 14.1484 16.9109 16.5829 16.9109C19.0175 16.9109 20.3322 16.0381 20.3322 15.6854V12.4094H21.9999V15.6854C21.9999 17.5625 19.2732 18.5489 16.5829 18.5489Z"/>
<path d="M7.41691 14.4538C4.72672 14.4538 2 13.4674 2 11.5903C2 9.71319 4.72672 8.72681 7.41691 8.72681C10.1071 8.72681 12.8338 9.71319 12.8338 11.5903C12.8338 13.4674 10.1071 14.4538 7.41691 14.4538ZM7.41691 10.3648C4.98234 10.3648 3.66768 11.2376 3.66768 11.5903C3.66768 11.949 4.98234 12.8158 7.41691 12.8158C9.85148 12.8158 11.1661 11.943 11.1661 11.5903C11.1661 11.2376 9.85148 10.3648 7.41691 10.3648Z"/>
<path d="M7.41691 17.7298C4.72672 17.7298 2 16.7434 2 14.8663V11.5903H3.66768V14.8663C3.66768 15.225 4.98234 16.0918 7.41691 16.0918C9.85148 16.0918 11.1661 15.219 11.1661 14.8663V11.5903H12.8338V14.8663C12.8338 16.7434 10.1071 17.7298 7.41691 17.7298Z"/>
<path d="M7.41691 21.0001C4.72672 21.0001 2 20.0137 2 18.1366V14.8606H3.66768V18.1366C3.66768 18.4953 4.98234 19.3621 7.41691 19.3621C9.85148 19.3621 11.1661 18.4893 11.1661 18.1366V14.8606H12.8338V18.1366C12.8338 20.0197 10.1071 21.0001 7.41691 21.0001Z"/>
</svg>
