<svg width="24" height="24" viewBox="0 0 24 24" xmlns="http://www.w3.org/2000/svg">
<path d="M23 9.0163C23 6.20393 20.6978 3.91593 17.8681 3.91593C17.7451 3.91593 17.621 3.92052 17.4962 3.92978C16.2785 2.11089 14.2155 1 12 1C9.78454 1 7.72155 2.11111 6.50384 3.92978C6.3791 3.92052 6.25496 3.91593 6.13201 3.91593C3.30218 3.91593 1 6.20393 1 9.0163C1 11.582 2.91648 13.7102 5.40133 14.0639V21.1125C5.40133 22.1533 6.25354 23 7.30111 23H16.6989C17.7465 23 18.5987 22.1533 18.5987 21.1125V14.0639C21.0836 13.7102 23 11.5819 23 9.0163ZM16.6989 21.5481H7.30118C7.06363 21.5481 6.86277 21.3486 6.86277 21.1124V14.0645C7.57869 13.9638 8.25838 13.7147 8.87148 13.3275C9.8119 13.8328 10.8815 14.1164 12 14.1164C13.1185 14.1164 14.188 13.8328 15.1284 13.3276C15.7417 13.7147 16.4215 13.9638 17.1373 14.0645V21.1124C17.1373 21.3486 16.9365 21.5481 16.6989 21.5481ZM17.8681 12.6645C17.3762 12.6645 16.9007 12.569 16.4589 12.3856C17.3482 11.5756 18.0204 10.5229 18.3579 9.31304C18.4657 8.92667 18.2378 8.52659 17.8489 8.41948C17.4599 8.31244 17.0574 8.53889 16.9495 8.92519C16.3354 11.1269 14.3001 12.6645 12 12.6645C9.69991 12.6645 7.66466 11.1269 7.05051 8.92519C6.94277 8.53881 6.5403 8.31244 6.1511 8.41948C5.7622 8.52652 5.53434 8.92667 5.64208 9.31304C5.97954 10.5229 6.65184 11.5757 7.54111 12.3856C7.09927 12.569 6.62381 12.6645 6.13201 12.6645C4.10802 12.6645 2.46144 11.0279 2.46144 9.0163C2.46144 7.00459 4.10809 5.36785 6.13201 5.36785C6.3366 5.36785 6.54723 5.38607 6.75809 5.42193C7.06244 5.47348 7.36724 5.32956 7.5186 5.06185C8.4286 3.452 10.1458 2.45193 11.9999 2.45193C13.8541 2.45193 15.5713 3.45207 16.4814 5.06193C16.6327 5.32963 16.9373 5.47356 17.2419 5.42193C17.4528 5.38607 17.6634 5.36785 17.8679 5.36785C19.8918 5.36785 21.5384 7.00459 21.5384 9.0163C21.5386 11.0279 19.892 12.6645 17.8681 12.6645Z"/>
</svg>
