<svg width="24" height="24" viewBox="0 0 24 24" xmlns="http://www.w3.org/2000/svg">
<path fill-rule="evenodd" clip-rule="evenodd" d="M21.9888 6.32C21.985 6.2775 21.9762 6.2375 21.9637 6.19625C21.9513 6.155 21.9362 6.1175 21.9163 6.08C21.9124 6.0729 21.91 6.06508 21.9076 6.05718C21.9045 6.04699 21.9013 6.03665 21.895 6.0275L19.395 2.2775C19.2788 2.105 19.0837 2 18.875 2H5.125C4.91625 2 4.72125 2.105 4.605 2.27875L2.105 6.02875C2.0985 6.03813 2.09534 6.04835 2.09215 6.05867C2.08981 6.06623 2.08745 6.07385 2.08375 6.08125C2.06375 6.11875 2.04875 6.15625 2.03625 6.1975C2.02375 6.23875 2.015 6.27875 2.01125 6.32125C2.01025 6.32828 2.00823 6.33511 2.00618 6.34206L2.00618 6.34206C2.00313 6.35241 2 6.36304 2 6.375V20.75C2 21.44 2.56125 22 3.25 22H20.75C21.4387 22 22 21.44 22 20.75V6.375C22 6.3633 21.997 6.35289 21.994 6.34251L21.994 6.34249C21.9919 6.33513 21.9898 6.32778 21.9888 6.32ZM18.54 3.25L20.2075 5.75H14.405L13.9875 3.25H18.54ZM11.2787 3.25H12.72L13.1375 5.75H10.8625L11.2787 3.25ZM10.75 7H13.25V9.25875L12.1975 8.90625C12.0688 8.865 11.93 8.865 11.8025 8.90625L10.75 9.25875V7ZM5.46 3.25H10.0125L9.595 5.75H3.7925L5.46 3.25ZM20.75 21.375V20.75H20.7513L20.75 21.375ZM20.75 20.75H3.25V7H9.5V10.125C9.5 10.3263 9.59625 10.515 9.76 10.6313C9.9225 10.75 10.1313 10.7775 10.3225 10.7188L12 10.1587L13.6775 10.7175C13.7425 10.7387 13.8088 10.75 13.875 10.75C14.005 10.75 14.1325 10.71 14.24 10.6313C14.4037 10.515 14.5 10.3263 14.5 10.125V7H20.75V20.75ZM8.875 15.75H5.125C4.78 15.75 4.5 16.03 4.5 16.375C4.5 16.72 4.78 17 5.125 17H8.875C9.22 17 9.5 16.72 9.5 16.375C9.5 16.03 9.22 15.75 8.875 15.75ZM5.125 18.25H7C7.345 18.25 7.625 18.53 7.625 18.875C7.625 19.22 7.345 19.5 7 19.5H5.125C4.78 19.5 4.5 19.22 4.5 18.875C4.5 18.53 4.78 18.25 5.125 18.25Z"/>
</svg>
