<svg xmlns="http://www.w3.org/2000/svg" width="22" height="18" viewBox="0 0 22 18"><g><g><path d="M8.317 2.82A2.822 2.822 0 0 1 11.134 0a2.822 2.822 0 0 1 2.269 4.491c4.13.957 7.254 4.324 7.554 8.405h.238a.805.805 0 0 1 0 1.611H.805a.805.805 0 0 1 0-1.611h.238c.306-4.157 3.54-7.573 7.785-8.456a2.808 2.808 0 0 1-.511-1.62zm1.61 0a1.21 1.21 0 0 0 1.207 1.21 1.21 1.21 0 0 0 0-2.418A1.21 1.21 0 0 0 9.927 2.82zm9.415 10.075C18.985 8.945 15.38 5.83 11 5.83c-4.38 0-7.985 3.115-8.342 7.066zm1.853 3.493a.805.805 0 0 1 0 1.612H.805a.805.805 0 0 1 0-1.612z"/></g></g></svg>