<svg width="24" height="16" viewBox="0 0 24 16" xmlns="http://www.w3.org/2000/svg">
<path d="M22.7344 2.15721H20.8647V1.23564C20.8647 0.554301 20.2969 0 19.599 0H15.9816C15.2837 0 14.7159 0.554301 14.7159 1.23564V5.31387H9.28406V1.23564C9.28406 0.554301 8.71631 0 8.01844 0H4.40095C3.70308 0 3.13533 0.554301 3.13533 1.23564V2.15721H1.26562C0.56775 2.15721 0 2.71151 0 3.39285V12.6071C0 13.2884 0.56775 13.8427 1.26562 13.8427H3.13533V14.7644C3.13533 15.4457 3.70308 16 4.40095 16H8.01844C8.71631 16 9.28406 15.4457 9.28406 14.7644V10.6861H14.7159V14.7644C14.7159 15.4457 15.2837 16 15.9816 16H19.599C20.2969 16 20.8647 15.4457 20.8647 14.7644V13.8427H22.7344C23.4322 13.8427 24 13.2884 24 12.6071V3.39285C24 2.71151 23.4322 2.15721 22.7344 2.15721ZM1.40625 12.4698V3.53015H3.13533V12.4698H1.40625ZM7.87781 14.627H4.54158V1.37294H7.87781V14.627ZM9.28406 9.31315V6.68676H14.7159V9.31315H9.28406ZM19.4584 14.627H16.1222V1.37294H19.4584V14.627ZM22.5938 12.4698H20.8647V3.53015H22.5938V12.4698Z"/>
</svg>
