<svg width="24" height="24" viewBox="0 0 24 24" xmlns="http://www.w3.org/2000/svg">
<path d="M6.35162 22.9234C6.64606 23.0761 7.01113 22.9942 7.20646 22.7337L17.873 8.51113C18.0202 8.31502 18.041 8.05571 17.9272 7.83987C17.8133 7.62409 17.5839 7.48822 17.3334 7.48822H14.5068L17.906 1.97449C18.0288 1.77533 18.0314 1.52774 17.913 1.32613C17.7946 1.12452 17.5732 1 17.3334 1H9.33342C9.02725 1 8.76045 1.20161 8.68649 1.48881L6.01985 11.8442C5.97029 12.0367 6.01518 12.2406 6.14149 12.3969C6.26784 12.5532 6.46158 12.6445 6.66673 12.6445H9.70613L6.04225 22.1299C5.92554 22.432 6.05771 22.771 6.35162 22.9234ZM11.2913 12.2255C11.3678 12.0276 11.339 11.8061 11.2144 11.6325C11.0899 11.4589 10.8852 11.3554 10.6667 11.3554H7.51975L9.85444 2.28906H16.16L12.7608 7.80279C12.638 8.00195 12.6353 8.24954 12.7538 8.45115C12.8722 8.65275 13.0936 8.77728 13.3334 8.77728H16.0266L9.00871 18.1347L11.2913 12.2255Z"/>
</svg>
