<svg xmlns="http://www.w3.org/2000/svg" width="20" height="20" viewBox="0 0 20 20"><g><g><path d="M13.333 12.5a.833.833 0 0 1 1.667 0v5c0 .46-.373.833-.834.833H10v.833c0 .526-.481.92-.997.817L.67 18.317A.833.833 0 0 1 0 17.5V.865A.892.892 0 0 1 .01.716L.01.707a.85.85 0 0 1 .011-.06L.023.641A.798.798 0 0 1 .833 0h13.334c.46-.001.833.372.833.832v5a.833.833 0 0 1-1.667 0V1.667H6.511l2.895.868c.353.106.594.43.594.798v13.333h3.333zM1.667 16.817l6.666 1.333V3.954l-6.666-2zm18.158-7.143l-.015.02a.828.828 0 0 1-.055.06v.001l-2.5 2.5a.833.833 0 0 1-1.179-1.178l1.077-1.078H12.5a.833.833 0 0 1 0-1.666h4.654l-1.077-1.078a.833.833 0 0 1 1.178-1.178l2.5 2.5.056.06.015.02a.518.518 0 0 0 .014.02l.02.026a.592.592 0 0 1 .016.027l.005.01.006.01.014.023a.529.529 0 0 1 .018.038l.017.036.01.027a.426.426 0 0 0 .007.02l.01.03.008.028.002.01a7.74 7.74 0 0 0 .01.041l.007.044.005.037a.837.837 0 0 1-.003.188l-.002.013a.41.41 0 0 0-.002.01c-.001.012-.002.023-.005.034l-.007.03a.369.369 0 0 0-.005.022.438.438 0 0 1-.007.027l-.01.03-.004.01-.014.037-.012.026a.379.379 0 0 0-.005.01l-.004.01a.454.454 0 0 1-.014.028l-.014.024a.41.41 0 0 0-.011.019l-.017.027-.019.026a3.897 3.897 0 0 0-.007.01l-.007.01z"/></g></g></svg>