<svg xmlns="http://www.w3.org/2000/svg" width="48" height="48" viewBox="0 0 48 48"><g><g><g/><g/><g><g><path fill="#c4c5cc" d="M33.048 15.94a25.099 25.099 0 0 0-6.119-.006c-6.175.746-12.252 3.655-16.249 8.486 3.866 4.112 8.919 7.238 14.398 8.62 2.581.65 5.35.923 8.028.62-2.038-2.5-3.24-5.573-3.24-8.894 0-3.291 1.18-6.338 3.182-8.826z"/></g><g><path d="M26.52 30.595a13.686 13.686 0 0 1-1.303-5.823c0-2.91.92-5.626 2.517-7.936l1.39.294c-1.654 2.2-2.609 4.828-2.609 7.642 0 1.83.404 3.58 1.14 5.185zm12.617-7.34a1.301 1.301 0 1 1 0 2.602 1.301 1.301 0 0 1 0-2.602zM22.51 15.499c-.557-1.668-.694-3.313-.724-5.389 3.993.422 7.342 1.65 10.12 4.413.736.053 1.46.139 2.172.258h.002l.183.032c.157.028.312.056.467.088.056.012.114.022.17.033.176.036.353.076.528.116.056.012.11.026.165.04.161.037.32.08.48.12.05.015.099.027.147.04a39.129 39.129 0 0 1 .658.192c.165.05.328.103.49.157l.13.043c.167.058.334.118.5.181l.113.042c.169.066.338.133.505.203l.107.046c.164.07.325.14.484.214l.085.04c.173.082.342.165.511.25l.086.045c.159.081.314.165.47.252l.075.042c.165.093.33.19.49.29l.073.044c.15.093.302.19.449.29l.068.046c.159.107.316.219.469.332l.046.034c.147.11.29.22.433.334l.062.05c.149.121.296.244.441.372l.024.022c.141.125.278.252.416.383l.05.05c.135.131.266.265.395.402l.022.024c.133.14.262.286.388.433l.042.048c.12.141.238.286.352.433l.027.034c.12.153.235.31.346.471l.03.044c.108.153.211.31.312.47l.028.043c.106.167.205.338.303.511l.02.036c.093.167.182.338.27.511l.024.048c.09.181.175.366.256.553l.01.024c.08.183.155.37.227.558l.02.054c.073.195.143.394.207.595-.08.223-.163.443-.249.66l-.022.054c-.083.208-.17.411-.26.614l-.014.03c-.092.205-.19.408-.287.607l-.023.05c-.096.188-.193.375-.295.558l-.024.044c-.103.189-.21.372-.322.555l-.032.05c-.105.17-.21.338-.322.5l-.04.062c-.115.171-.232.34-.354.503l-.03.04c-.115.157-.234.31-.353.46l-.054.065c-.121.15-.243.294-.368.438l-.046.053c-.125.142-.252.28-.383.416l-.07.072c-.123.127-.249.252-.376.373l-.062.06c-.135.13-.272.253-.413.376l-.088.075c-.125.108-.25.213-.38.317l-.093.075c-.14.112-.282.219-.426.324l-.105.076c-.125.09-.253.179-.38.264l-.127.086c-.13.085-.26.169-.394.25l-.169.102c-.125.076-.25.147-.378.219-.051.03-.105.057-.157.087-.125.068-.25.133-.378.199a16.472 16.472 0 0 1-.589.284l-.184.084a11.576 11.576 0 0 1-.61.254c-.114.046-.23.09-.345.132l-.25.09c-.116.039-.231.079-.348.116-.09.03-.18.058-.269.086-.11.034-.219.066-.328.097l-.296.084a11 11 0 0 1-.346.09l-.285.067a16.64 16.64 0 0 1-.312.07l-.34.07c-.113.021-.229.043-.344.063-.087.016-.175.03-.262.044h-.002c-1.973.316-4.06.336-6.183.075-1.718 1.261-3.707 1.876-5.996 2.118.018-1.312.098-2.38.396-3.436-4.13-1.436-8.175-3.882-11.628-7.243-.24 4.228-3.814 7.975-9.201 6.654-1.074-4.112 1.118-6.904 4.124-8.21-3.36-1.353-5.057-5.211-4.168-8.803 4.09-.296 8.86 1.96 9.233 6.42 3.22-3.375 7.4-5.682 11.783-6.909zm7.37-1.046c-1.963-1.56-4.198-2.416-6.745-2.85.071 1.231.238 2.39.64 3.572a27.839 27.839 0 0 1 6.105-.722zM26.014 34.59a27.236 27.236 0 0 1-2.406-.6c-.137.5-.217 1-.265 1.513.957-.197 1.844-.49 2.671-.913zm19.34-10.124l-.02-.05.007.024-.48-1.131.021.041-.024-.05-.013-.031v.004l-.088-.175-.002-.004c-.032-.062-.064-.123-.098-.185l-.001-.006a11.56 11.56 0 0 0-.957-1.484l-.01-.011-.121-.156-.014-.018c-.04-.05-.08-.101-.121-.15l-.002-.003-.046-.055-.002-.002-.084-.1-.057-.065c-.03-.034-.06-.07-.092-.104l-.06-.067-.081-.09-.012-.012a6.99 6.99 0 0 0-.165-.175l-.03-.032a9.46 9.46 0 0 0-.141-.143l-.05-.05c-.034-.033-.07-.067-.103-.101-1.893-1.826-4.371-3.029-7.03-3.693-.31-.075-.622-.145-.937-.209-2.125 2.375-3.38 5.356-3.38 8.583 0 3.264 1.282 6.274 3.45 8.659a15.721 15.721 0 0 0 3.737-1.227l.031-.016.148-.072.071-.035.115-.06.102-.052.09-.048c.041-.021.083-.043.125-.067l.07-.038a3.14 3.14 0 0 0 .138-.08l.058-.033c.048-.028.098-.056.145-.086l.058-.034c.046-.025.09-.053.133-.081l.086-.052.045-.028c2.379-1.495 4.226-3.679 5.404-6.493l.008-.015.083-.205.012-.03c.028-.068.054-.137.08-.205v-.002l.002.002zm-.013-.026l.01.024v.002l-.005-.014a2.187 2.187 0 0 0-.005-.012zm-.065-.177l-.014-.038a115.4 115.4 0 0 1-.065-.167l-.022-.053c-.02-.052-.042-.102-.064-.153l-.032-.074-.054-.123-.047-.106-.042-.091.397.959c-.018-.052-.038-.102-.057-.154zm-12.234-8.318a25.098 25.098 0 0 0-6.12-.006c-6.174.745-12.251 3.655-16.248 8.485 3.866 4.113 8.919 7.239 14.397 8.621 2.582.65 5.35.923 8.029.62-2.039-2.501-3.24-5.574-3.24-8.895 0-3.291 1.18-6.338 3.182-8.825zM44.858 23.3l.004.009-.012-.022-.005-.014zm-42.22 8.592c2.032.292 3.997-.243 5.38-1.907 1.089-1.31 1.566-3.053 1.407-4.737-2.164.091-4.498.958-5.82 2.642-.94 1.194-1.186 2.576-.97 4.002zm6.743-7.979c.217-1.426-.03-2.808-.968-4.001-1.323-1.684-3.657-2.551-5.821-2.643-.16 1.684.318 3.428 1.406 4.737 1.384 1.665 3.349 2.2 5.381 1.907z"/></g></g></g></g></svg>