<svg width="24" height="24" viewBox="0 0 24 24" xmlns="http://www.w3.org/2000/svg">
<path fill-rule="evenodd" clip-rule="evenodd" d="M18.0939 3.67328C15.7811 2.27616 13.0046 1.72797 10.2666 2.12702C10.2189 2.12784 10.1713 2.13202 10.1236 2.13952C7.22881 2.59604 4.70252 4.04984 3.00946 6.23257C1.31825 8.41616 0.66283 11.0671 1.16426 13.6989C1.24768 14.133 1.36407 14.5703 1.51076 14.9952C2.11667 16.7839 1.96723 18.7009 1.09094 20.3929C0.93785 20.6861 0.988264 21.0344 1.21837 21.2835C1.44844 21.5326 1.81328 21.6359 2.16158 21.5509L6.2709 20.5312C8.01072 21.4993 9.97506 22 11.9807 22C12.7094 22 13.4437 21.9342 14.1742 21.8C17.0553 21.2727 19.5376 19.7581 21.1637 17.5345C24.5214 12.9441 23.1446 6.72662 18.0939 3.67328ZM19.6375 16.6123C18.2818 18.466 16.2129 19.7281 13.8131 20.1672C11.4151 20.6062 8.96953 20.1697 6.92908 18.9367C6.77693 18.8451 6.59999 18.7976 6.42124 18.7976C6.34057 18.7976 6.25899 18.8076 6.17923 18.8276L3.38162 19.5215C3.85369 17.8836 3.81884 16.1491 3.26153 14.5004C3.1378 14.1413 3.03972 13.7756 2.97096 13.414C2.55295 11.2213 3.09929 9.01185 4.50908 7.19231C5.89505 5.40364 7.95291 4.20311 10.3151 3.80238C10.3592 3.8007 10.4022 3.79656 10.4462 3.78988C12.7645 3.42582 15.1202 3.8782 17.08 5.06204C21.2893 7.60555 22.436 12.7867 19.6375 16.6123ZM12.0033 6.91821C11.4964 6.91821 11.0867 7.29063 11.0867 7.75132V12.75C11.0867 13.2107 11.4964 13.5831 12.0033 13.5831C12.5102 13.5831 12.92 13.2098 12.92 12.75V7.75132C12.92 7.29063 12.5102 6.91821 12.0033 6.91821ZM12.6532 15.5735C12.7358 15.6484 12.7999 15.74 12.8457 15.8484C12.8916 15.9483 12.9191 16.0566 12.9191 16.165C12.9191 16.2733 12.8916 16.3816 12.8457 16.4816C12.7999 16.5815 12.7358 16.6732 12.6532 16.7565C12.5607 16.8315 12.4607 16.8898 12.3508 16.9314C12.2408 16.9731 12.1225 16.9981 12.0034 16.9981C11.8842 16.9981 11.765 16.9731 11.655 16.9314C11.545 16.8898 11.4442 16.8314 11.3525 16.7565C11.27 16.6732 11.2058 16.5815 11.16 16.4816C11.1142 16.3816 11.0867 16.2733 11.0867 16.165C11.0867 16.0566 11.1142 15.9483 11.16 15.8484C11.2059 15.7401 11.27 15.6484 11.3525 15.5735C11.5624 15.3826 11.8842 15.2902 12.1766 15.3485C12.2408 15.3569 12.2957 15.3727 12.3508 15.3985C12.4058 15.416 12.4608 15.4402 12.5066 15.4735C12.5473 15.492 12.583 15.5196 12.6174 15.5463C12.6295 15.5556 12.6414 15.5648 12.6532 15.5735Z"/>
</svg>
