<svg width="24" height="24" viewBox="0 0 24 24" xmlns="http://www.w3.org/2000/svg">
<path fill-rule="evenodd" clip-rule="evenodd" d="M14.8864 3.22034C16.5136 1.59322 19.1521 1.59322 20.7792 3.22034C22.4063 4.84746 22.4063 7.48514 20.7792 9.11226L15.5941 14.2973C13.967 15.9244 11.3294 15.9244 9.70227 14.2973C9.37684 13.9719 9.37684 13.4442 9.70227 13.1188C10.0277 12.7933 10.5554 12.7933 10.8808 13.1188C11.857 14.095 13.4394 14.095 14.4156 13.1188L19.6007 7.93369C20.5769 6.95748 20.5769 5.37508 19.6007 4.39886C18.6244 3.42261 17.0412 3.42261 16.065 4.39886L13.2375 7.22638C12.912 7.55182 12.3844 7.55182 12.0589 7.22638C11.7335 6.90095 11.7335 6.37329 12.0589 6.04786L14.8864 3.22034ZM7.93451 19.6005L10.2912 17.2438C10.6166 16.9184 11.1443 16.9183 11.4698 17.2438C11.7952 17.5692 11.7952 18.0969 11.4698 18.4223L9.11307 20.779C7.48509 22.407 4.84726 22.407 3.22034 20.779C1.59322 19.1519 1.59322 16.5142 3.22034 14.8871L7.93451 10.1729C9.56163 8.54582 12.1993 8.54582 13.8264 10.1729C14.1518 10.4984 14.1518 11.026 13.8264 11.3515C13.501 11.6769 12.9733 11.6769 12.6479 11.3515C11.6716 10.3752 10.0893 10.3752 9.11303 11.3515L4.39882 16.0657C3.42261 17.0419 3.42261 18.6243 4.39902 19.6007C5.37524 20.5775 6.95747 20.5775 7.93451 19.6005Z"/>
</svg>
