<svg width="24" height="24" viewBox="0 0 24 24" xmlns="http://www.w3.org/2000/svg">
<path d="M12 0C7.03734 0 3 4.00679 3 8.93181C3 11.6867 4.42917 15.0304 7.24793 18.8701C9.31072 21.6802 11.3434 23.6843 11.4289 23.7683C11.5862 23.9226 11.793 24 12.0001 24C12.2012 24 12.4024 23.927 12.5584 23.7805C12.6441 23.7 14.6819 21.777 16.7486 19.0058C19.5696 15.2229 21 11.8336 21 8.93177C20.9999 4.00679 16.9625 0 12 0ZM12 12.7878C9.57377 12.7878 7.59999 10.8635 7.59999 8.49822C7.59999 6.13295 9.57382 4.20863 12 4.20863C14.4261 4.20863 16.3999 6.13295 16.3999 8.49822C16.3999 10.8635 14.426 12.7878 12 12.7878Z"/>
</svg>
