<svg width="48" height="48" viewBox="0 0 48 48" fill="none" xmlns="http://www.w3.org/2000/svg">
<path fill-rule="evenodd" clip-rule="evenodd" d="M11.691 2.52637H33.2587C36.9103 2.52637 39.8971 5.51317 39.8971 9.16477V36.4687C39.8971 40.1203 36.9103 43.1071 33.2587 43.1071H11.691C8.03942 43.1071 5.05261 40.1203 5.05261 36.4687V9.16477C5.05261 5.51317 8.03942 2.52637 11.691 2.52637V2.52637ZM12.2229 25.1245H21.0503C21.5062 25.1245 21.8813 25.4996 21.8813 25.9555C21.8813 26.4113 21.5062 26.7865 21.0503 26.7865H12.2229C11.767 26.7865 11.3919 26.4113 11.3919 25.9555C11.3919 25.4996 11.767 25.1245 12.2229 25.1245ZM12.2229 11.8002H18.5526C19.0085 11.8002 19.3836 12.1753 19.3836 12.6312C19.3836 13.087 19.0085 13.4622 18.5526 13.4622H12.2229C11.767 13.4622 11.3919 13.087 11.3919 12.6312C11.3919 12.1753 11.767 11.8002 12.2229 11.8002ZM22.1805 11.8002H32.8124C33.2682 11.8002 33.6433 12.1753 33.6433 12.6312C33.6433 13.087 33.2682 13.4622 32.8124 13.4622H22.1805C21.7246 13.4622 21.3495 13.087 21.3495 12.6312C21.3495 12.1753 21.7246 11.8002 22.1805 11.8002ZM12.2229 18.4623H15.8032C16.2591 18.4623 16.6342 18.8375 16.6342 19.2933C16.6342 19.7492 16.2591 20.1243 15.8032 20.1243H12.2229C11.767 20.1243 11.3919 19.7492 11.3919 19.2933C11.3919 18.8375 11.767 18.4623 12.2229 18.4623ZM19.7635 18.4623H32.8076C33.2635 18.4623 33.6386 18.8375 33.6386 19.2933C33.6386 19.7492 33.2635 20.1243 32.8076 20.1243H19.7635C19.3076 20.1243 18.9325 19.7492 18.9325 19.2933C18.9325 18.8375 19.3076 18.4623 19.7635 18.4623ZM11.691 4.19309C8.96063 4.19309 6.71934 6.43438 6.71934 9.16477V36.4687C6.71934 39.199 8.96063 41.4403 11.691 41.4403H33.2587C35.9891 41.4403 38.2304 39.199 38.2304 36.4687V9.16477C38.2304 6.43438 35.9891 4.19309 33.2587 4.19309H11.691Z" fill="black"/>
<path d="M31.7394 43.3018C36.3393 43.3018 40.0683 39.5728 40.0683 34.9729C40.0683 30.373 36.3393 26.644 31.7394 26.644C27.1395 26.644 23.4105 30.373 23.4105 34.9729C23.4105 39.5728 27.1395 43.3018 31.7394 43.3018Z" fill="#C4C5CC"/>
<path fill-rule="evenodd" clip-rule="evenodd" d="M27.1286 33.7764C27.4515 33.4535 27.9833 33.4535 28.3062 33.7764L30.8087 36.2789L35.182 31.9055C35.5049 31.5826 36.0368 31.5826 36.3597 31.9055C36.6826 32.2284 36.6826 32.7602 36.3597 33.0831L31.3975 38.0453L31.3832 38.0595L31.369 38.0738L31.3548 38.088L31.3405 38.1023L31.3263 38.1165L31.3073 38.1308L31.2883 38.145L31.2693 38.1545L31.2503 38.164L31.2313 38.1735L31.2123 38.183L31.1933 38.1925L31.1743 38.202L31.1553 38.2115L31.1363 38.221L31.1173 38.2305L31.0983 38.24L31.0793 38.2447L31.0603 38.2495L31.0414 38.2542L31.0224 38.259L31.0034 38.2637L30.9844 38.2685L30.9654 38.2732L30.9464 38.278L30.9274 38.2827L30.9084 38.2875H30.8894H30.8704H30.8514H30.8324H30.8134H30.7944H30.7754H30.7564H30.7374H30.7185L30.6995 38.2827L30.6805 38.278L30.6615 38.2732L30.6425 38.2685L30.6235 38.2637L30.6045 38.259L30.5855 38.2542L30.5665 38.2495L30.5475 38.2447L30.5285 38.24L30.5095 38.2305L30.4905 38.221L30.4715 38.2115L30.4525 38.202L30.4335 38.1925L30.4145 38.183L30.3956 38.1735L30.3766 38.164L30.3576 38.1545L30.3386 38.145L30.3196 38.1308L30.3006 38.1165L30.2863 38.1023L30.2721 38.088L30.2578 38.0738L30.2436 38.0595L30.2294 38.0453L27.1381 34.954C26.8152 34.6311 26.8152 34.0993 27.1381 33.7764H27.1286ZM31.7441 24.9822C37.2619 24.9822 41.7397 29.4553 41.7397 34.9778C41.7397 40.4955 37.2666 44.9734 31.7441 44.9734C26.2264 44.9734 21.7485 40.5003 21.7485 34.9778C21.7485 29.46 26.2216 24.9822 31.7441 24.9822ZM31.7441 26.6489C36.3454 26.6489 40.073 30.3765 40.073 34.9778C40.073 39.5791 36.3454 43.3066 31.7441 43.3066C27.1428 43.3066 23.4153 39.5791 23.4153 34.9778C23.4153 30.3765 27.1428 26.6489 31.7441 26.6489Z" fill="black"/>
</svg>
