<svg width="24" height="24" viewBox="0 0 24 24" xmlns="http://www.w3.org/2000/svg">
<path d="M22.3125 12.0006H21.625V8.42933C21.625 8.03506 21.317 7.71508 20.9375 7.71508H20.25V5.57234C20.25 5.17808 19.942 4.8581 19.5625 4.8581H17.2374L16.0521 2.39538C15.8816 2.04111 15.4691 1.89969 15.1295 2.0754L13.5455 2.89964L13.3021 2.39538C13.1316 2.04254 12.7191 1.89969 12.3795 2.07682L7.02525 4.8581H3.0625C1.92537 4.8581 1 5.81947 1 7.00084V19.8573C1 21.0386 1.92537 22 3.0625 22H20.9375C21.317 22 21.625 21.68 21.625 21.2858V17.7145H22.3125C22.692 17.7145 23 17.3945 23 17.0003V12.7148C23 12.3205 22.692 12.0006 22.3125 12.0006ZM18.875 6.28659V7.71508H18.6124L17.9249 6.28659H18.875ZM15.1295 3.67388L17.0751 7.71508H15.8624L14.1601 4.17671L15.1295 3.67388ZM12.3795 3.67388L14.3251 7.71508H4.59975L12.3795 3.67388ZM3.0625 6.28659H4.27525L2.43 7.24511C2.4025 7.16654 2.375 7.08655 2.375 7.00084C2.375 6.60657 2.683 6.28659 3.0625 6.28659ZM20.25 20.5715H3.0625C2.683 20.5715 2.375 20.2515 2.375 19.8573V9.00644C2.6005 9.09072 2.8315 9.14357 3.0625 9.14357H20.25V12.0006H17.5C15.9834 12.0006 14.75 13.2819 14.75 14.8575C14.75 16.4332 15.9834 17.7145 17.5 17.7145H20.25V20.5715ZM21.625 16.286H17.5C16.7424 16.286 16.125 15.6446 16.125 14.8575C16.125 14.0704 16.7424 13.429 17.5 13.429H21.625V16.286Z"/>
</svg>
