<svg width="64" height="16" viewBox="0 0 64 16" xmlns="http://www.w3.org/2000/svg">
<path d="M13.6425 15.4381L10.2092 8.53082C10.922 8.30211 11.5758 8.00381 12.1644 7.63643C12.753 7.26542 13.2632 6.84228 13.6947 6.37075C14.123 5.89923 14.4598 5.39996 14.6984 4.8694C14.9374 4.33548 15.0615 3.79436 15.0744 3.24666C15.0844 2.78196 15.0156 2.34854 14.8749 1.95319C14.7313 1.55812 14.5218 1.21826 14.2473 0.930513C13.9694 0.645945 13.6357 0.431199 13.2434 0.292301C12.8512 0.15032 12.4065 0.101748 11.9159 0.146677C11.5563 0.181425 11.2424 0.25433 10.9775 0.361703C10.7159 0.472719 10.4937 0.597559 10.3171 0.739493C10.1371 0.885257 9.9999 1.02752 9.90169 1.1695C9.80044 1.31176 9.73508 1.43669 9.7024 1.54061C9.67298 1.64822 9.66945 1.71752 9.69892 1.74872C9.78722 1.83891 9.88865 2.00868 10.0032 2.25831C10.1208 2.5114 10.2189 2.81316 10.3007 3.1668C10.3824 3.51689 10.4151 3.8845 10.3987 4.26958C10.3824 4.65092 10.2876 5.02194 10.1111 5.37208C9.93454 5.72567 9.64677 6.02743 9.24776 6.28398L7.20761 0.770738C7.20761 0.763873 7.19756 0.743229 7.17488 0.708341C7.15515 0.670184 7.11926 0.649587 7.07011 0.645898H2.1066C2.05445 0.645898 2.02155 0.659862 2.00539 0.684149C1.98896 0.708295 1.9824 0.729265 1.98566 0.753551C1.98566 0.777837 1.98892 0.788205 1.98892 0.791661L5.16711 7.51159C4.46755 7.72629 3.81692 8.01773 3.21509 8.37819C2.61361 8.74234 2.08387 9.15493 1.62606 9.61618C1.1682 10.0808 0.805338 10.5767 0.537256 11.0967C0.269129 11.6202 0.118771 12.1508 0.0860917 12.6919C0.0631459 13.1528 0.118771 13.5828 0.249399 13.9816C0.380379 14.3804 0.573106 14.7307 0.831543 15.0323C1.08985 15.3338 1.39713 15.5697 1.75351 15.7395C2.1099 15.9095 2.5024 15.9963 2.93062 15.9997C3.2937 15.9963 3.62067 15.9339 3.91495 15.8193C4.2092 15.7048 4.46759 15.5593 4.68652 15.3824C4.90902 15.2055 5.09201 15.0218 5.23594 14.8344C5.37661 14.6472 5.47786 14.4809 5.5367 14.3318C5.59559 14.1826 5.60858 14.0821 5.57912 14.023C5.50085 13.9365 5.40925 13.7875 5.30452 13.5758C5.20005 13.3643 5.11175 13.1112 5.04295 12.8166C4.97112 12.5217 4.94487 12.2062 4.9646 11.8733C4.98081 11.5372 5.07559 11.2042 5.24246 10.8713C5.40929 10.542 5.67737 10.2334 6.05001 9.94563L8.16873 15.438C8.16873 15.4414 8.17547 15.4586 8.19168 15.4899C8.2081 15.5211 8.23757 15.5385 8.2865 15.5419H13.5837C13.6391 15.5385 13.662 15.521 13.6587 15.4899C13.6523 15.4586 13.649 15.4414 13.6425 15.438V15.4381ZM26.2572 11.194C26.2832 10.9858 26.3161 10.7188 26.3618 10.3998C26.4045 10.0774 26.4533 9.72719 26.5057 9.34216C26.5581 8.95737 26.6137 8.56202 26.6725 8.15975C26.7281 7.75754 26.7835 7.36929 26.8359 6.99481C26.8883 6.62038 26.9373 6.28743 26.9798 5.98932C27.0224 5.69102 27.0583 5.45544 27.0812 5.28194C27.1072 5.10843 27.1204 5.01853 27.1204 5.01479C27.1171 4.97322 27.1072 4.94553 27.0909 4.9317C27.0745 4.91774 27.0649 4.91083 27.0616 4.91083H23.1377C23.1344 4.91083 23.115 4.91769 23.0789 4.93516C23.0462 4.95239 23.0268 4.98359 23.02 5.03571C23.02 5.03912 23.0006 5.17106 22.9677 5.42415C22.9352 5.68074 22.8926 6.02738 22.8433 6.47121C22.6866 6.0795 22.4838 5.73618 22.2387 5.44139C21.9901 5.14673 21.6957 4.91424 21.3493 4.74792C21.0059 4.58152 20.607 4.49829 20.1558 4.49483C19.6425 4.49829 19.165 4.59188 18.7235 4.78253C18.2822 4.96981 17.8834 5.23351 17.527 5.56964C17.1672 5.90945 16.8535 6.3048 16.5852 6.7555C16.3172 7.20643 16.0948 7.69878 15.9247 8.2293C15.7513 8.75981 15.6338 9.31092 15.5652 9.88323C15.4997 10.4449 15.4865 11.0067 15.5291 11.5718C15.5748 12.1335 15.6731 12.6675 15.8268 13.1737C15.9836 13.6799 16.1927 14.1342 16.461 14.5296C16.7292 14.9247 17.0529 15.2368 17.4321 15.4621C17.8113 15.6911 18.2495 15.8091 18.7433 15.8125C19.2012 15.8091 19.6358 15.7049 20.0446 15.5038C20.4534 15.3026 20.8327 15.0252 21.1825 14.6716C21.5292 14.3214 21.8429 13.9158 22.1178 13.4615C22.1472 13.9573 22.2648 14.3804 22.4708 14.7341C22.6801 15.0876 22.9579 15.3582 23.3078 15.5454C23.6544 15.7361 24.0567 15.8297 24.511 15.8332C24.7891 15.8297 25.0604 15.7848 25.3318 15.6946C25.5998 15.6078 25.8517 15.4899 26.0871 15.3444C26.3193 15.1987 26.5185 15.0392 26.6854 14.8658C26.8521 14.6959 26.97 14.5259 27.0417 14.3561C27.0811 14.266 27.0844 14.2001 27.045 14.1551C27.0091 14.1134 26.9502 14.0684 26.8684 14.0198C26.7868 13.9747 26.6986 13.9018 26.6068 13.8047C26.512 13.7076 26.427 13.5585 26.3519 13.3575C26.2766 13.16 26.2276 12.886 26.2047 12.5358C26.1785 12.1891 26.1983 11.7416 26.2571 11.1939L26.2572 11.194ZM20.7444 12.9416C20.5057 12.9381 20.3029 12.8651 20.1361 12.7231C19.9696 12.5774 19.8418 12.3798 19.7503 12.123C19.6555 11.8665 19.5967 11.5684 19.5737 11.2285C19.551 10.8922 19.5607 10.5246 19.6064 10.1329C19.6522 9.74097 19.7241 9.37341 19.8256 9.03359C19.9269 8.69031 20.0513 8.39229 20.2049 8.13196C20.3585 7.87551 20.5318 7.67109 20.7313 7.52532C20.9306 7.37965 21.1498 7.30689 21.3917 7.30343C21.6303 7.30689 21.8364 7.37965 22.0032 7.52532C22.1701 7.67109 22.3008 7.87551 22.3987 8.13196C22.4938 8.39225 22.5525 8.69027 22.5785 9.03359C22.6015 9.37341 22.595 9.74097 22.5491 10.1329C22.5035 10.5246 22.4314 10.8922 22.327 11.2285C22.2255 11.5684 22.0947 11.8665 21.9411 12.123C21.7875 12.3798 21.6075 12.5773 21.4081 12.7231C21.2054 12.8651 20.9863 12.9381 20.7443 12.9416H20.7444ZM39.7156 5.18143C39.7156 5.15028 39.7057 5.1294 39.6927 5.11562C39.6795 5.10507 39.6665 5.0982 39.6567 5.0982H39.6762C38.1523 4.76899 36.6843 4.60576 35.2786 4.61295C33.8693 4.62322 32.4925 4.78267 31.1421 5.0982C31.1292 5.0982 31.116 5.10507 31.0966 5.11908C31.0768 5.1329 31.0671 5.1606 31.0636 5.2024C31.0636 5.20581 31.0539 5.29235 31.0342 5.45899C31.0147 5.62531 30.9853 5.84724 30.946 6.13153C30.9067 6.41236 30.8609 6.72785 30.8021 7.07827C30.7468 7.43187 30.6844 7.79257 30.6125 8.16335C30.5407 8.53782 30.4622 8.89511 30.3771 9.24184C30.292 9.58857 30.2006 9.90065 30.1025 10.1746C29.8768 10.7709 29.6544 11.2634 29.4289 11.6551C29.2065 12.047 28.9941 12.3625 28.7946 12.5984C28.595 12.8374 28.4153 13.0247 28.2584 13.1566C28.1016 13.2917 27.9771 13.3992 27.8823 13.4791C27.7907 13.5586 27.7384 13.6351 27.7287 13.7113C27.7157 13.8014 27.7287 13.9368 27.7647 14.117C27.8041 14.2972 27.8726 14.4914 27.9706 14.7064C28.0721 14.9179 28.2092 15.1226 28.3858 15.3202C28.5624 15.5144 28.7816 15.6773 29.0432 15.8021C29.3081 15.9303 29.6218 15.9965 29.9848 15.9999C30.5146 16.0033 30.9887 15.8785 31.4104 15.6254C31.8288 15.3758 32.1952 14.9872 32.5024 14.4567C32.8132 13.9297 33.0648 13.2503 33.2611 12.4214C33.4572 11.5961 33.6142 10.7329 33.7319 9.82438C33.8496 8.91944 33.9282 7.97985 33.9673 7.01237H35.5564C35.504 7.45616 35.4519 7.93459 35.3896 8.44787C35.3307 8.96092 35.2686 9.48797 35.2064 10.0288C35.1444 10.5699 35.0823 11.1004 35.0234 11.6203C34.9613 12.144 34.9024 12.633 34.85 13.0905C34.7977 13.5483 34.7488 13.954 34.7094 14.3076C34.667 14.6579 34.6344 14.9317 34.6114 15.133C34.5885 15.3339 34.5755 15.4347 34.5755 15.4382C34.5787 15.4866 34.5917 15.5177 34.6146 15.5284C34.6375 15.5386 34.6505 15.5455 34.6538 15.542H38.4402C38.4434 15.5455 38.4566 15.5386 38.4795 15.5284C38.5023 15.5177 38.5155 15.4866 38.5188 15.4382C38.5188 15.4347 38.5318 15.3202 38.5579 15.1018C38.584 14.8833 38.6167 14.5816 38.6627 14.2002C38.7084 13.8154 38.7575 13.3785 38.8163 12.8861C38.8719 12.3902 38.934 11.8701 38.9993 11.3189C39.0615 10.7675 39.127 10.2126 39.1923 9.65438C39.2577 9.09953 39.3198 8.56216 39.3786 8.05257C39.4375 7.54293 39.4931 7.08173 39.5423 6.66919C39.5878 6.25633 39.6272 5.9202 39.66 5.66001C39.6894 5.39655 39.7088 5.2406 39.7156 5.18152L39.7156 5.18143ZM44.8751 7.49076L44.9732 7.07472C46.1143 6.93592 47.0725 6.70366 47.8539 6.38107C48.6354 6.05867 49.2533 5.67734 49.7111 5.24046C50.1688 4.8035 50.4862 4.34234 50.6627 3.85681C50.8392 3.37491 50.8917 2.89989 50.8228 2.43873C50.7542 1.97407 50.5841 1.55812 50.3094 1.18365C50.0349 0.812538 49.6783 0.517695 49.2368 0.302669C48.7955 0.0914262 48.2887 -0.012724 47.7198 0.00124054C46.9548 0.0290295 46.2484 0.198799 45.5978 0.521198C44.9505 0.840327 44.3619 1.2701 43.8321 1.81462C43.3058 2.35891 42.8413 2.98302 42.4392 3.68358C42.0371 4.38386 41.697 5.12945 41.4257 5.92015C41.1508 6.70721 40.9448 7.508 40.8076 8.31584C40.6702 9.12728 40.5983 9.91088 40.5983 10.6738C40.5983 11.395 40.6997 12.0746 40.8958 12.7057C41.0954 13.3367 41.3861 13.8915 41.7721 14.3699C42.1613 14.852 42.6386 15.23 43.2042 15.5005C43.7732 15.7742 44.4272 15.9131 45.1693 15.9166C45.7809 15.9131 46.3629 15.8264 46.9121 15.6531C47.4647 15.4761 47.9682 15.2231 48.4228 14.8936C48.8772 14.5677 49.2662 14.169 49.5932 13.7043C49.9172 13.243 50.1591 12.7197 50.3159 12.1405C50.4728 11.5614 50.5317 10.9338 50.4861 10.2578C50.4368 9.6683 50.2865 9.16903 50.0349 8.75621C49.783 8.34713 49.456 8.01787 49.0635 7.7751C48.668 7.52887 48.2299 7.35915 47.7557 7.26205C47.2785 7.16841 46.791 7.14072 46.2973 7.18224C45.8005 7.22371 45.3297 7.32791 44.8751 7.49086L44.8751 7.49076ZM47.0136 2.72647C47.1737 2.72647 47.2915 2.75767 47.3636 2.80979C47.4353 2.86528 47.478 2.93804 47.4942 3.02132C47.5106 3.10781 47.514 3.1945 47.504 3.28814C47.468 3.54127 47.3765 3.78059 47.2261 4.00589C47.0758 4.22778 46.8991 4.42903 46.6964 4.61285C46.4937 4.79299 46.2941 4.95244 46.0981 5.08092C45.9019 5.21263 45.7382 5.31309 45.6075 5.38581C45.4769 5.4554 45.4114 5.49341 45.4047 5.49341C45.4439 5.34429 45.4995 5.15359 45.5684 4.92488C45.6336 4.6958 45.7187 4.45672 45.8135 4.2034C45.9083 3.95031 46.0196 3.71464 46.1404 3.48934C46.2614 3.26721 46.3956 3.08367 46.5428 2.94486C46.6867 2.80283 46.8435 2.72979 47.0136 2.72638L47.0136 2.72647ZM46.9351 11.2564C46.9319 11.3813 46.909 11.5373 46.8665 11.7279C46.8239 11.9186 46.7618 12.1196 46.6835 12.3311C46.6017 12.5393 46.5002 12.7403 46.3792 12.9275C46.2583 13.1148 46.1176 13.2673 45.9543 13.3818C45.7907 13.4998 45.6108 13.5623 45.4048 13.5657C45.1694 13.5623 44.9766 13.4789 44.836 13.316C44.6921 13.1528 44.5841 12.9416 44.5155 12.6745C44.447 12.4076 44.4043 12.1162 44.388 11.7972C44.3717 11.4782 44.3749 11.1627 44.3914 10.8436C44.4108 10.528 44.437 10.2369 44.4697 9.97323C44.5023 9.70977 44.5352 9.4982 44.5612 9.34216C44.5679 9.33875 44.6268 9.32157 44.7444 9.29032C44.8589 9.25912 45.006 9.23484 45.1793 9.21396C45.3525 9.18958 45.5258 9.19304 45.6992 9.21732C46.0261 9.27981 46.2811 9.4011 46.4676 9.57802C46.6573 9.75839 46.7879 9.98719 46.8601 10.2715C46.932 10.5524 46.958 10.8819 46.9351 11.2563L46.9351 11.2564ZM62.2179 11.194C62.2439 10.9858 62.2768 10.7188 62.3225 10.3998C62.3652 10.0774 62.414 9.72719 62.4664 9.34216C62.5188 8.95737 62.5744 8.56202 62.6332 8.15975C62.6888 7.75754 62.7442 7.36929 62.7966 6.99481C62.849 6.62038 62.8981 6.28743 62.9405 5.98932C62.983 5.69102 63.019 5.45544 63.042 5.28194C63.0679 5.10843 63.0811 5.01853 63.0811 5.01479C63.0778 4.97322 63.0679 4.94553 63.0516 4.9317C63.0351 4.91774 63.0255 4.91083 63.0222 4.91083H59.0984C59.0951 4.91083 59.0758 4.91769 59.0395 4.93516C59.0069 4.95239 58.9874 4.98359 58.9807 5.03571C58.9807 5.03912 58.9612 5.17106 58.9285 5.42415C58.8959 5.68074 58.8533 6.02738 58.8041 6.47121C58.6471 6.0795 58.4444 5.73618 58.1993 5.44139C57.9507 5.14673 57.6564 4.91424 57.3099 4.74792C56.9666 4.58152 56.5675 4.49829 56.1165 4.49483C55.6032 4.49829 55.1256 4.59188 54.6843 4.78253C54.2428 4.96981 53.844 5.23351 53.4876 5.56964C53.1278 5.90945 52.8141 6.3048 52.546 6.7555C52.2778 7.20643 52.0555 7.69878 51.8853 8.2293C51.7121 8.75981 51.5944 9.31092 51.5258 9.88323C51.4603 10.4449 51.4472 11.0067 51.4898 11.5718C51.5354 12.1335 51.6337 12.6675 51.7873 13.1737C51.9442 13.6799 52.1534 14.1342 52.4215 14.5296C52.6899 14.9247 53.0135 15.2368 53.3926 15.4621C53.7719 15.6911 54.2101 15.8091 54.7038 15.8125C55.1617 15.8091 55.5963 15.7049 56.0053 15.5038C56.4139 15.3026 56.7933 15.0252 57.143 14.6716C57.4897 14.3214 57.8034 13.9158 58.0783 13.4615C58.1077 13.9573 58.2254 14.3804 58.4314 14.7341C58.6406 15.0876 58.9184 15.3582 59.2684 15.5454C59.6151 15.7361 60.0173 15.8297 60.4716 15.8332C60.7497 15.8297 61.021 15.7848 61.2924 15.6946C61.5604 15.6078 61.8124 15.4899 62.0479 15.3444C62.28 15.1987 62.4792 15.0392 62.646 14.8658C62.8129 14.6959 62.9306 14.5259 63.0025 14.3561C63.0419 14.266 63.045 14.2001 63.0057 14.1551C62.9697 14.1134 62.9108 14.0684 62.8291 14.0198C62.7475 13.9747 62.6593 13.9018 62.5675 13.8047C62.4727 13.7076 62.3876 13.5585 62.3126 13.3575C62.2373 13.16 62.1885 12.886 62.1654 12.5358C62.1393 12.1891 62.1589 11.7416 62.2177 11.1939L62.2179 11.194ZM56.705 12.9416C56.4663 12.9381 56.2637 12.8651 56.0968 12.7231C55.9302 12.5774 55.8025 12.3798 55.711 12.123C55.6162 11.8665 55.5574 11.5684 55.5344 11.2285C55.5116 10.8922 55.5215 10.5246 55.5671 10.1329C55.6129 9.74097 55.6848 9.37341 55.7863 9.03359C55.8875 8.69031 56.012 8.39229 56.1656 8.13196C56.3192 7.87551 56.4925 7.67109 56.6921 7.52532C56.8912 7.37965 57.1105 7.30689 57.3525 7.30343C57.5911 7.30689 57.7971 7.37965 57.9639 7.52532C58.1307 7.67109 58.2614 7.87551 58.3594 8.13196C58.4544 8.39225 58.5133 8.69027 58.5392 9.03359C58.5621 9.37341 58.5557 9.74097 58.5099 10.1329C58.4642 10.5246 58.3921 10.8922 58.2876 11.2285C58.1861 11.5684 58.0554 11.8665 57.9019 12.123C57.7482 12.3798 57.5681 12.5773 57.3689 12.7231C57.1661 12.8651 56.9469 12.9381 56.7049 12.9416H56.705Z"/>
</svg>
