<svg width="24" height="24" viewBox="0 0 24 24" xmlns="http://www.w3.org/2000/svg">
<path d="M21.7329 9.78382L6.305 1.33866C4.66848 0.440068 3 1.42281 3 3.18999V20.8201C3 22.3173 4.01341 23 4.95531 23C5.39887 23 5.85079 22.8654 6.29968 22.6027L21.7968 13.4792C22.5759 13.0189 23.0134 12.3376 22.9997 11.6095C22.9868 10.8807 22.5257 10.2148 21.7329 9.78382ZM20.7583 11.8496L5.26192 20.9708C5.15769 21.0323 5.07552 21.0631 5.01922 21.0784C5.004 21.0243 4.98878 20.9408 4.98878 20.8201V3.19073C4.98878 3.00925 5.02302 2.91778 5.02302 2.8951C5.08389 2.89876 5.1904 2.92876 5.32431 3.00193L20.7499 11.4471C20.9401 11.5517 20.9964 11.6425 21.0147 11.6227C21.0048 11.6476 20.9401 11.7405 20.7583 11.8496Z"/>
</svg>
