<svg width="32" height="32" viewBox="0 0 32 32" xmlns="http://www.w3.org/2000/svg">
<g clip-path="url(#clip0)">
<path d="M29.8722 16.4146C29.7435 16.1511 29.7435 15.849 29.8722 15.5857L31.0657 13.1441C31.7302 11.7847 31.2037 10.1644 29.8671 9.45519L27.4665 8.18144C27.2075 8.04407 27.0299 7.79957 26.9792 7.51089L26.5097 4.83409C26.2483 3.34372 24.8697 2.34223 23.3718 2.55416L20.681 2.93479C20.3905 2.97579 20.1033 2.88241 19.8927 2.6786L17.9395 0.789113C16.8519 -0.263006 15.1482 -0.263069 14.0607 0.789113L12.1075 2.67879C11.8967 2.88266 11.6095 2.97585 11.3191 2.93498L8.62835 2.55435C7.12992 2.34229 5.75181 3.34391 5.49037 4.83428L5.02087 7.51095C4.97019 7.7997 4.79263 8.04413 4.53369 8.18157L2.13308 9.45531C0.796461 10.1644 0.269963 11.7849 0.93446 13.1443L2.12789 15.5858C2.25664 15.8492 2.25664 16.1513 2.12789 16.4147L0.934397 18.8562C0.269901 20.2156 0.796398 21.8359 2.13302 22.5451L4.53363 23.8189C4.79263 23.9562 4.97019 24.2007 5.02087 24.4894L5.49037 27.1662C5.72837 28.5229 6.89174 29.4744 8.22879 29.4743C8.36048 29.4743 8.4941 29.4651 8.62842 29.4461L11.3192 29.0654C11.6094 29.0243 11.8968 29.1178 12.1075 29.3216L14.0607 31.2111C14.6046 31.7372 15.3022 32.0002 16.0001 32.0002C16.6977 32.0001 17.3958 31.7371 17.9394 31.2111L19.8927 29.3216C20.1034 29.1178 20.3907 29.0247 20.681 29.0654L23.3718 29.4461C24.8704 29.6581 26.2483 28.6565 26.5097 27.1661L26.9793 24.4895C27.03 24.2007 27.2076 23.9563 27.4665 23.8189L29.8671 22.5451C31.2037 21.836 31.7302 20.2156 31.0657 18.8561L29.8722 16.4146ZM29.002 20.9147L26.6014 22.1884C25.8361 22.5946 25.3111 23.317 25.1614 24.1705L24.6919 26.8472C24.6035 27.3515 24.1373 27.6901 23.6303 27.6186L20.9395 27.238C20.0813 27.1164 19.2322 27.3926 18.6094 27.995L16.6562 29.8844C16.2883 30.2403 15.7119 30.2403 15.3439 29.8844L13.3907 27.995C12.8643 27.4858 12.1762 27.2098 11.4578 27.2098C11.3262 27.2098 11.1935 27.2191 11.0607 27.2379L8.36985 27.6185C7.86323 27.6901 7.39667 27.3514 7.30817 26.8471L6.83861 24.1704C6.68886 23.3169 6.16399 22.5944 5.39856 22.1884L2.99795 20.9146C2.5457 20.6747 2.36758 20.1265 2.59239 19.6666L3.78588 17.225C4.16638 16.4465 4.16638 15.5537 3.78588 14.7752L2.59239 12.3336C2.36758 11.8737 2.5457 11.3255 2.99795 11.0856L5.39856 9.81181C6.16393 9.40563 6.68886 8.68325 6.83855 7.82976L7.30805 5.15302C7.39655 4.64878 7.86267 4.31003 8.36973 4.38165L11.0605 4.76228C11.9183 4.88371 12.7678 4.60765 13.3906 4.00522L15.3438 2.11573C15.7117 1.75986 16.2881 1.75986 16.6561 2.11573L18.6093 4.00522C19.2321 4.60772 20.0814 4.88371 20.9393 4.76228L23.6301 4.38165C24.1368 4.30997 24.6034 4.64878 24.6918 5.15302L25.1613 7.82982C25.3111 8.68332 25.8359 9.40575 26.6014 9.81181L29.002 11.0856C29.4542 11.3255 29.6324 11.8737 29.4075 12.3336L28.2141 14.7751C27.8336 15.5535 27.8336 16.4465 28.2141 17.225L29.4075 19.6664C29.6324 20.1265 29.4543 20.6747 29.002 20.9147Z"/>
<path d="M22.7431 9.2571C22.3828 8.89672 21.7985 8.89672 21.4381 9.2571L9.25758 21.4377C8.89721 21.798 8.89721 22.3823 9.25758 22.7427C9.43777 22.9229 9.67396 23.013 9.91008 23.013C10.1462 23.013 10.3825 22.923 10.5626 22.7427L22.7431 10.5622C23.1036 10.2018 23.1036 9.61753 22.7431 9.2571Z"/>
<path d="M12.3085 7.69482C10.4427 7.69482 8.9248 9.21275 8.9248 11.0785C8.9248 12.9442 10.4427 14.4622 12.3085 14.4622C14.1742 14.4622 15.6921 12.9442 15.6921 11.0785C15.6921 9.21275 14.1742 7.69482 12.3085 7.69482ZM12.3085 12.6165C11.4604 12.6165 10.7705 11.9265 10.7705 11.0784C10.7705 10.2304 11.4604 9.54044 12.3085 9.54044C13.1565 9.54044 13.8465 10.2304 13.8465 11.0784C13.8465 11.9265 13.1565 12.6165 12.3085 12.6165Z"/>
<path d="M19.6913 17.5381C17.8255 17.5381 16.3076 19.056 16.3076 20.9218C16.3076 22.7875 17.8255 24.3054 19.6913 24.3054C21.557 24.3054 23.075 22.7875 23.075 20.9218C23.075 19.056 21.557 17.5381 19.6913 17.5381ZM19.6913 22.4597C18.8432 22.4597 18.1532 21.7698 18.1532 20.9218C18.1532 20.0737 18.8432 19.3838 19.6913 19.3838C20.5393 19.3838 21.2293 20.0737 21.2293 20.9218C21.2293 21.7698 20.5393 22.4597 19.6913 22.4597Z"/>
</g>
<defs>
<clipPath id="clip0">
<rect width="32" height="32"/>
</clipPath>
</defs>
</svg>
