<svg width="24" height="24" viewBox="0 0 24 24" xmlns="http://www.w3.org/2000/svg">
<path d="M19.3333 15.6667C17.8019 15.6667 16.4904 16.6057 15.9417 17.9392L7.97073 13.5918C8.20307 13.1104 8.33335 12.5704 8.33335 12C8.33335 11.4297 8.20315 10.8899 7.97091 10.4086L15.9417 6.06082C16.4904 7.39431 17.8019 8.33335 19.3333 8.33335C21.3585 8.33335 23 6.69186 23 4.6667C23 2.64154 21.3585 1 19.3333 1C17.5014 1 15.9837 2.3432 15.7107 4.09852L6.75248 8.98488C6.16029 8.57445 5.44181 8.33335 4.6667 8.33335C2.64149 8.33335 1 9.97484 1 12C1 14.0252 2.64149 15.6667 4.66665 15.6667C5.44164 15.6667 6.15995 15.4256 6.7521 15.0154L15.7107 19.9015C15.9837 21.6568 17.5014 23 19.3333 23C21.3585 23 23 21.3585 23 19.3333C23 17.3082 21.3585 15.6667 19.3333 15.6667ZM19.3333 2.83335C20.346 2.83335 21.1667 3.65401 21.1667 4.6667C21.1667 5.67938 20.346 6.5 19.3333 6.5C18.321 6.5 17.5005 5.67977 17.5 4.66751C17.5 4.66592 17.5001 4.66438 17.5001 4.66279C17.5022 3.65195 18.322 2.83335 19.3333 2.83335ZM2.83335 12C2.83335 10.9874 3.65401 10.1667 4.6667 10.1667C5.67938 10.1667 6.5 10.9874 6.5 12C6.5 12.4828 6.31313 12.9217 6.00814 13.2491C5.99576 13.261 5.98429 13.2739 5.97256 13.2865C5.64007 13.624 5.17794 13.8333 4.66665 13.8333C3.65401 13.8333 2.83335 13.0126 2.83335 12ZM19.3333 21.1667C18.322 21.1667 17.5022 20.3481 17.5001 19.3372C17.5001 19.3356 17.5 19.334 17.5 19.3324C17.5005 18.3202 18.321 17.5 19.3333 17.5C20.346 17.5 21.1667 18.3207 21.1667 19.3333C21.1667 20.346 20.346 21.1667 19.3333 21.1667Z"/>
</svg>
