<svg xmlns="http://www.w3.org/2000/svg" width="48" height="48" viewBox="0 0 48 48"><g><g><g/><g/><g><g><path d="M11.098 9.928c.053-4.077 3.405-7.398 7.496-7.398h4.69c4.09 0 7.442 3.32 7.496 7.398h2.431c3.374 0 6.137 2.762 6.137 6.136V37.54c0 3.374-2.763 6.137-6.137 6.137H8.667c-3.375 0-6.137-2.763-6.137-6.137V16.064c0-3.374 2.762-6.136 6.137-6.136zM8.667 11.46a4.615 4.615 0 0 0-4.601 4.601v21.476a4.615 4.615 0 0 0 4.6 4.601h24.545a4.615 4.615 0 0 0 4.601-4.6V16.061a4.615 4.615 0 0 0-4.601-4.602zm20.577-1.532c-.053-3.236-2.717-5.865-5.964-5.865h-4.689c-3.246 0-5.907 2.629-5.963 5.865z"/></g><g><path fill="#c4c5cc" d="M28.357 18.176l-6.907 3.987-1.36-2.355 6.907-3.988zm-8.248 13.518c0-6.65 5.391-12.041 12.041-12.041s12.042 5.39 12.042 12.041c0 6.65-5.391 12.041-12.042 12.041-6.65 0-12.04-5.39-12.04-12.041zm22.74-9.53l-6.907-3.988 1.36-2.356 6.907 3.988z"/></g><g><path d="M32.084 25.39a.77.77 0 0 1 .768.768v4.867h6.613a.77.77 0 0 1 .768.768.77.77 0 0 1-.768.768h-7.44l-.02-.003-.02-.003-.02-.002-.02-.003-.02-.003-.019-.003-.017-.006-.017-.005-.034-.012-.017-.005-.034-.012-.119-.06-.028-.022-.014-.011-.029-.023-.014-.011-.014-.011-.014-.012-.014-.014-.015-.014-.011-.014-.011-.014-.012-.014-.022-.029-.012-.014-.022-.028-.068-.136-.012-.034-.005-.017-.012-.034-.005-.017-.003-.02-.003-.02-.003-.02-.003-.02-.002-.02-.003-.02v-5.694a.77.77 0 0 1 .768-.768zm.066-7.278c1.156 0 2.275.144 3.346.416a2.3 2.3 0 0 1 .082-2.139 2.304 2.304 0 0 1 3.142-.841l5.012 2.895a2.304 2.304 0 0 1 .841 3.142 2.311 2.311 0 0 1-2.235 1.136 13.517 13.517 0 0 1 3.386 8.97c0 7.497-6.078 13.577-13.577 13.577-7.497 0-13.577-6.077-13.577-13.577 0-3.436 1.278-6.576 3.386-8.97a2.311 2.311 0 0 1-2.236-1.136 2.306 2.306 0 0 1 .842-3.142l5.012-2.895a2.306 2.306 0 0 1 3.142.841 2.3 2.3 0 0 1 .082 2.14 13.567 13.567 0 0 1 3.346-.417zM20.108 31.686c0 6.65 5.392 12.04 12.042 12.04 6.65 0 12.04-5.39 12.04-12.04 0-6.65-5.39-12.042-12.04-12.042-6.65 0-12.042 5.392-12.042 12.042zm22.859-11.92l-5.012-2.895a.771.771 0 0 0-1.048.28.771.771 0 0 0 .28 1.049l5.012 2.892a.771.771 0 0 0 1.048-.28.771.771 0 0 0-.28-1.049zm-21.632-.003a.771.771 0 0 0-.28 1.049.771.771 0 0 0 1.048.28l5.012-2.892a.771.771 0 0 0 .28-1.049.771.771 0 0 0-1.048-.28l-5.012 2.895z"/></g></g></g></g></svg>