<svg width="48" height="48" viewBox="0 0 48 48" fill="none" xmlns="http://www.w3.org/2000/svg">
<path fill-rule="evenodd" clip-rule="evenodd" d="M40.4826 11.1639C40.4826 10.7647 40.195 10.4214 39.8045 10.357L38.0663 10.0652C32.9462 9.20684 28.0407 7.09099 23.8863 3.95371C23.5988 3.73483 23.1996 3.73483 22.9121 3.95371C18.7576 7.09099 13.8564 9.20254 8.73206 10.0652L6.9939 10.357C6.60334 10.4214 6.3158 10.7647 6.3158 11.1639V17.3912C6.3158 25.8761 8.73206 32.9189 14.6847 38.966C18.8392 43.1848 22.9636 44.6139 23.1395 44.674C23.2254 44.7041 23.3112 44.7169 23.397 44.7169C23.4829 44.7169 23.573 44.7041 23.6545 44.674C23.8262 44.6139 27.9506 43.1848 32.1093 38.966C38.0663 32.9189 40.4826 25.8718 40.4826 17.3912V11.1639ZM38.9118 11.7991L37.8045 11.6145C32.6158 10.7433 27.6502 8.64891 23.397 5.55025C19.1482 8.64891 14.1783 10.7433 8.98957 11.6145L7.88229 11.7991V17.3912C7.88229 25.3696 10.0926 32.0691 15.8006 37.8673C17.3886 39.4767 19.2083 40.9016 21.1782 42.0174C21.8434 42.3951 22.6503 42.82 23.397 43.1032C24.1438 42.82 24.955 42.3908 25.6202 42.0174C27.5858 40.9016 29.4055 39.481 30.9892 37.8716C36.6972 32.0777 38.9075 25.3739 38.9075 17.3955V11.8034L38.9118 11.7991Z" fill="black"/>
<path fill-rule="evenodd" clip-rule="evenodd" d="M23.3797 17.125C24.5299 16.3138 25.9977 16.0478 27.3796 16.2495C28.753 16.4512 30.0835 17.1164 30.9633 18.2022C31.5427 18.919 31.886 19.7687 31.9632 20.6829C32.1435 22.7944 31.298 24.8845 30.1178 26.5969C28.6929 28.6613 26.7144 30.3265 24.5857 31.6312L23.4398 32.335L22.2338 31.7428C20.0536 30.6784 18.1824 29.0175 16.8262 27.0046C15.6245 25.2193 14.676 22.8888 14.8176 20.7086C15.0794 16.5756 20.2553 14.9748 23.3797 17.125ZM23.3582 30.5454L23.766 30.2921C25.7016 29.1033 27.5299 27.5797 28.826 25.7042C29.7916 24.3051 30.5513 22.5541 30.401 20.8202C30.3495 20.2151 30.1264 19.6614 29.7444 19.1936C29.1135 18.4125 28.1307 17.949 27.1522 17.8074C26.1522 17.6615 25.0621 17.8417 24.2338 18.4512C23.7231 18.8288 23.0578 18.8331 22.5428 18.464C20.427 16.949 16.573 17.9018 16.3841 20.8159C16.2682 22.6356 17.1309 24.6528 18.1309 26.1377C19.3326 27.9188 20.9935 29.3952 22.9248 30.3436L23.3582 30.5539V30.5454Z" fill="black"/>
<path fill-rule="evenodd" clip-rule="evenodd" d="M23.3584 30.5455L23.7661 30.2923C25.7017 29.1035 27.53 27.5799 28.8261 25.7044C29.7917 24.3053 30.5514 22.5542 30.4012 20.8203C30.3497 20.2152 30.1265 19.6616 29.7445 19.1938C29.1136 18.4127 28.1308 17.9492 27.1523 17.8075C26.1523 17.6616 25.0622 17.8419 24.2339 18.4513C23.7232 18.829 23.058 18.8333 22.5429 18.4642C20.4271 16.9492 16.5731 17.9019 16.3843 20.8161C16.2684 22.6358 17.131 24.6529 18.131 26.1378C19.3327 27.9189 20.9936 29.3953 22.9249 30.3438L23.3584 30.5541V30.5455Z" fill="#C4C5CC"/>
</svg>
