<svg width="18" height="18" viewBox="0 0 18 18" xmlns="http://www.w3.org/2000/svg">
<path d="M17.2989 6.9602C17.2163 6.6935 16.9977 6.50031 16.7336 6.45988L11.8223 5.70758L9.62409 1.04231C9.3873 0.541236 8.60485 0.541236 8.36806 1.04231L6.16986 5.70826L1.26625 6.45985C1.00216 6.50027 0.782886 6.69422 0.70092 6.96017C0.618954 7.22612 0.686923 7.51781 0.878166 7.71322L4.42559 11.3448L3.59128 16.4751C3.54574 16.7506 3.65362 17.029 3.87009 17.1936C3.99196 17.2862 4.1363 17.3332 4.28129 17.3332C4.39268 17.3332 4.50476 17.3052 4.60912 17.248L8.99713 14.8272L13.3929 17.2487C13.6289 17.378 13.9155 17.3581 14.1305 17.1921C14.3462 17.0276 14.4534 16.7491 14.4086 16.4728L13.568 11.344L17.1217 7.71247C17.3129 7.51781 17.3816 7.22687 17.2989 6.9602Z"/>
</svg>
