<svg width="24" height="24" viewBox="0 0 24 24" xmlns="http://www.w3.org/2000/svg">
<path fill-rule="evenodd" clip-rule="evenodd" d="M17.618 19.0322C14.0843 21.8624 8.91174 21.6397 5.63604 18.364C2.36033 15.0883 2.13757 9.91569 4.96776 6.382L17.618 19.0322ZM19.0322 17.618L6.38197 4.96779C9.91566 2.13757 15.0882 2.36032 18.364 5.63604C21.6397 8.91175 21.8624 14.0843 19.0322 17.618ZM19.7782 19.7782C15.4824 24.0739 8.51759 24.0739 4.22183 19.7782C-0.0739417 15.4824 -0.0739417 8.51759 4.22183 4.22183C8.51759 -0.0739417 15.4824 -0.0739417 19.7782 4.22183C24.0739 8.51759 24.0739 15.4824 19.7782 19.7782Z"/>
</svg>
