<svg width="24" height="24" viewBox="0 0 24 24" xmlns="http://www.w3.org/2000/svg">
<path fill-rule="evenodd" clip-rule="evenodd" d="M1 12C1 5.93423 5.93423 1 12 1C18.0658 1 23 5.93423 23 12C23 18.0658 18.0658 23 12 23C5.93423 23 1 18.0658 1 12ZM2.7041 12C2.7041 17.1251 6.8749 21.2959 12 21.2959C17.1251 21.2959 21.2959 17.1251 21.2959 12C21.2959 6.8749 17.126 2.7041 12 2.7041C6.8749 2.7041 2.7041 6.8749 2.7041 12ZM12.8521 11.6422L15.9195 13.9428C16.2961 14.2248 16.3728 14.759 16.0899 15.1348C15.9228 15.3598 15.6672 15.4765 15.4073 15.4765C15.2293 15.4765 15.0503 15.4211 14.897 15.3061L11.4888 12.7499C11.274 12.5898 11.1479 12.3367 11.1479 12.0683V6.95595C11.1479 6.48476 11.5288 6.10388 12 6.10388C12.4712 6.10388 12.8521 6.48476 12.8521 6.95595V11.6422Z"/>
</svg>
