<svg width="24" height="17" viewBox="0 0 24 17" xmlns="http://www.w3.org/2000/svg">
<path d="M2.6544 4.42C2.6544 1.98281 4.58937 0 6.96775 0C9.34613 0 11.2811 1.98281 11.2811 4.42C11.2811 6.85718 9.34613 8.83999 6.96775 8.83999C4.58937 8.83999 2.6544 6.85718 2.6544 4.42Z"/>
<path d="M7.89675 10.2C9.50734 10.2 11.0247 10.8629 12.1692 12.0666C13.3082 13.2645 13.9354 14.8456 13.9354 16.5189C13.9354 16.7846 13.7275 17 13.4709 17H0.464515C0.207979 17 0 16.7846 0 16.5189C0 14.8456 0.627249 13.2645 1.76621 12.0666C2.91077 10.8629 4.42812 10.2 6.03869 10.2H7.89675Z"/>
<path d="M17.0323 0C14.6539 0 12.719 1.98281 12.719 4.42C12.719 6.85718 14.6539 8.83999 17.0323 8.83999C19.4107 8.83999 21.3457 6.85718 21.3457 4.42C21.3457 1.98281 19.4107 0 17.0323 0Z"/>
<path d="M23.5355 17H14.6143C14.676 16.85 14.7097 16.6869 14.7097 16.5189C14.7097 14.6506 14.0083 12.8782 12.7309 11.5347C12.6839 11.4853 12.6363 11.4367 12.5882 11.3888C13.6085 10.6166 14.8266 10.2 16.1033 10.2H17.9613C19.5719 10.2 21.0892 10.8629 22.2338 12.0666C23.3728 13.2645 24 14.8456 24 16.5189C24 16.7846 23.792 17 23.5355 17Z"/>
</svg>
