<svg width="80" height="80" viewBox="0 0 80 80" fill="none" xmlns="http://www.w3.org/2000/svg">
<path fill-rule="evenodd" clip-rule="evenodd" d="M17.5174 62.6483C13.9999 59.0083 10.6516 54.7733 8.86073 49.9957C7.53656 46.4607 7.25072 43.1416 7.46072 39.4082C7.51322 38.4982 7.58906 37.5882 7.66489 36.6782C7.68239 36.474 7.71739 36.2757 7.76406 36.0832C9.54323 28.8499 13.1949 22.2465 19.2966 17.8073C27.8133 11.6065 38.5758 11.379 48.4341 13.9048C50.4175 10.8773 53.3225 9.04566 57.085 8.85899C58.4442 8.78899 59.7333 9.42483 60.5033 10.5507C61.2792 11.6765 61.4133 13.094 60.865 14.3482C60.0833 16.1215 59.8908 17.9415 60.1942 19.814C65.0242 22.4449 67.7717 26.7557 69.2009 31.9532C70.1575 31.9299 71.0617 31.9357 72.0417 32.3557C73.4709 32.9682 74.3867 34.339 74.41 35.8965C74.4509 38.6324 74.4859 41.3682 74.5267 44.1099C74.5267 44.2032 74.5267 44.2966 74.5209 44.3841C74.4625 45.4399 74.0542 46.4082 73.2784 47.1316C71.9717 48.3449 70.6184 48.2807 69.1367 48.3449C66.6692 54.5283 62.4108 58.8741 57.9542 63.7449C57.2892 64.4741 57.155 66.9474 57.2133 67.9216C57.2717 69.0066 56.8925 70.0391 56.1458 70.8266C55.3992 71.6141 54.39 72.0516 53.305 72.0516C50.7208 72.0516 48.1366 72.0516 45.5466 72.0516C43.4291 72.0516 41.6908 70.36 41.6325 68.2424C41.6325 68.1958 41.6266 68.1316 41.6266 68.0558C39.4041 68.5224 37.1583 68.4116 34.9299 67.9274C34.9183 68.0558 34.9066 68.1841 34.9066 68.2599C34.8308 70.3658 33.1041 72.0341 30.9924 72.0341C28.3441 72.0341 25.6958 72.0341 23.0474 72.0341C20.9883 72.0341 19.2849 70.4416 19.1449 68.3883C19.0049 66.3699 18.3807 64.4741 17.5174 62.6599V62.6483ZM57.1667 28.8674C58.6367 28.8674 59.8325 30.0632 59.8325 31.5332C59.8325 33.0032 58.6367 34.199 57.1667 34.199C55.6967 34.199 54.5008 33.0032 54.5008 31.5332C54.5008 30.0632 55.6967 28.8674 57.1667 28.8674ZM23.0474 69.3566C25.6958 69.3566 28.3441 69.3566 30.9924 69.3566C31.6633 69.3566 32.2174 68.8258 32.2408 68.1549C32.2933 66.7549 32.6899 65.6408 33.8566 65.1566C34.1191 65.0458 34.3816 65.0341 34.6558 65.1041C37.1525 65.7749 39.6316 65.9324 42.0816 65.1741C42.2508 65.1216 42.3966 65.1099 42.5716 65.1216C43.7208 65.2324 44.2516 66.3174 44.2983 68.1549C44.3158 68.8316 44.87 69.3683 45.5466 69.3683C48.1308 69.3683 50.715 69.3683 53.305 69.3683C53.6608 69.3683 53.9642 69.2341 54.2092 68.9774C54.4542 68.7208 54.5708 68.4058 54.5475 68.0499C54.4308 65.9266 54.81 63.2083 55.9883 61.9308C60.4275 57.0833 64.715 52.7841 66.9608 46.5541C67.13 46.0932 67.515 45.7899 68.005 45.7374C69.6092 45.5682 71.7617 45.9999 71.8667 44.2149C71.8667 44.1857 71.8667 44.1566 71.8667 44.1274C71.8259 41.3916 71.7909 38.6557 71.75 35.914C71.7442 35.4124 71.4584 34.9865 70.9975 34.7882C70.2509 34.4674 69.1133 34.6307 68.1042 34.6249C67.5208 34.6249 67.025 34.234 66.8908 33.6624C65.6658 28.4357 63.1692 24.2299 58.38 21.8557C58.03 21.6807 57.8025 21.389 57.715 21.004C57.1258 18.3148 57.3417 15.7307 58.4325 13.2515C58.6133 12.8432 58.5725 12.4057 58.3158 12.044C58.065 11.6765 57.6683 11.484 57.225 11.5073C54.0983 11.6648 51.7825 13.2515 50.1958 16.139C49.9158 16.6523 49.3325 16.8973 48.7666 16.7398C29.0149 11.2623 14.6299 19.3123 10.3541 36.7132C10.3366 36.7774 10.3307 36.8357 10.3249 36.9057C9.71823 43.8882 9.29823 50.3691 19.5941 60.9566C19.6932 61.0558 19.7632 61.1549 19.8216 61.2833C20.8774 63.4649 21.6358 65.7399 21.8049 68.1958C21.8516 68.8491 22.3941 69.3566 23.0474 69.3566Z" fill="#FF7B27"/>
<path d="M24.2483 39.5134C32.6794 39.5134 39.5141 32.6787 39.5141 24.2476C39.5141 15.8164 32.6794 8.98169 24.2483 8.98169C15.8172 8.98169 8.98242 15.8164 8.98242 24.2476C8.98242 32.6787 15.8172 39.5134 24.2483 39.5134Z" fill="url(#paint0_linear)"/>
<path fill-rule="evenodd" clip-rule="evenodd" d="M24.2481 6.31592C34.1531 6.31592 42.1798 14.3426 42.1798 24.2476C42.1798 34.1526 34.1531 42.1793 24.2481 42.1793C14.3431 42.1793 6.31641 34.1526 6.31641 24.2476C6.31641 14.3426 14.3431 6.31592 24.2481 6.31592ZM25.1581 29.1535H22.7956C22.5739 29.1535 22.3931 29.3343 22.3931 29.556V31.0085C22.3931 31.2301 22.2123 31.411 21.9906 31.411H20.3164C20.0948 31.411 19.9139 31.2301 19.9139 31.0085V29.556C19.9139 29.3343 19.7331 29.1535 19.5114 29.1535H18.2981C18.0764 29.1535 17.8956 28.9726 17.8956 28.751V27.5376C17.8956 27.316 18.0764 27.1351 18.2981 27.1351H19.5114C19.7331 27.1351 19.9139 26.9543 19.9139 26.7326V26.511C19.9139 26.2893 19.7331 26.1085 19.5114 26.1085H18.2981C18.0764 26.1085 17.8956 25.9276 17.8956 25.706V24.4926C17.8956 24.271 18.0764 24.0901 18.2981 24.0901H19.5114C19.7331 24.0901 19.9139 23.9093 19.9139 23.6876V17.4809C19.9139 17.2593 20.0948 17.0784 20.3164 17.0784H25.3856C26.9664 17.0784 28.2264 17.4926 29.1714 18.3151C30.1164 19.1376 30.5889 20.2343 30.5889 21.5993C30.5889 22.9935 30.1398 24.0843 29.2414 24.8776C28.3431 25.671 27.0948 26.0735 25.4964 26.0968H22.7898C22.5681 26.0968 22.3873 26.2776 22.3873 26.4993V26.721C22.3873 26.9426 22.5681 27.1235 22.7898 27.1235H25.1523C25.3739 27.1235 25.5548 27.3043 25.5548 27.526V28.7393C25.5548 28.961 25.3739 29.1418 25.1523 29.1418L25.1581 29.1535ZM22.7956 24.1018H25.3564C26.2431 24.1018 26.9314 23.8918 27.3981 23.4835C27.8706 23.0693 28.1039 22.4568 28.1039 21.6401C28.1039 20.9051 27.8706 20.3043 27.4098 19.8434C26.9489 19.3768 26.3131 19.1376 25.5023 19.1143H22.7956C22.5739 19.1143 22.3931 19.2951 22.3931 19.5168V23.7051C22.3931 23.9268 22.5739 24.1076 22.7956 24.1076V24.1018ZM24.2481 8.98759C32.6773 8.98759 39.514 15.8243 39.514 24.2535C39.514 32.6826 32.6773 39.5193 24.2481 39.5193C15.8189 39.5193 8.98224 32.6826 8.98224 24.2535C8.98224 15.8243 15.8189 8.98759 24.2481 8.98759Z" fill="#FF7B27"/>
<defs>
<linearGradient id="paint0_linear" x1="8.98242" y1="8.98169" x2="43.4676" y2="14.4134" gradientUnits="userSpaceOnUse">
<stop stop-color="#E3EEFF"/>
<stop offset="0.526042" stop-color="#E4F6E4"/>
<stop offset="1" stop-color="#FFEEE4"/>
</linearGradient>
</defs>
</svg>
