<svg width="80" height="80" viewBox="0 0 80 80" fill="none" xmlns="http://www.w3.org/2000/svg">
<path fill-rule="evenodd" clip-rule="evenodd" d="M17.5164 62.6483C13.9989 59.0083 10.6506 54.7733 8.85975 49.9957C7.53558 46.4607 7.24975 43.1416 7.45975 39.4082C7.51225 38.4982 7.58808 37.5882 7.66391 36.6782C7.68141 36.474 7.71641 36.2757 7.76308 36.0832C9.54225 28.8499 13.1939 22.2465 19.2956 17.8073C27.8123 11.6065 38.5748 11.379 48.4332 13.9048C50.4165 10.8773 53.3215 9.04566 57.084 8.85899C58.4432 8.78899 59.7324 9.42483 60.5024 10.5507C61.2782 11.6765 61.4124 13.094 60.864 14.3482C60.0824 16.1215 59.8899 17.9415 60.1932 19.814C65.0232 22.4449 67.7707 26.7557 69.1999 31.9532C70.1565 31.9299 71.0607 31.9357 72.0407 32.3557C73.4699 32.9682 74.3857 34.339 74.4091 35.8965C74.4499 38.6324 74.4849 41.3682 74.5257 44.1099C74.5257 44.2032 74.5257 44.2966 74.5199 44.3841C74.4616 45.4399 74.0532 46.4082 73.2774 47.1316C71.9707 48.3449 70.6174 48.2807 69.1357 48.3449C66.6682 54.5283 62.4099 58.8741 57.9532 63.7449C57.2882 64.4741 57.154 66.9474 57.2124 67.9216C57.2707 69.0066 56.8915 70.0391 56.1448 70.8266C55.3982 71.6141 54.389 72.0516 53.304 72.0516C50.7198 72.0516 48.1357 72.0516 45.5457 72.0516C43.4282 72.0516 41.6898 70.36 41.6315 68.2424C41.6315 68.1958 41.6257 68.1316 41.6257 68.0558C39.4031 68.5224 37.1573 68.4116 34.929 67.9274C34.9173 68.0558 34.9056 68.1841 34.9056 68.2599C34.8298 70.3658 33.1031 72.0341 30.9915 72.0341C28.3431 72.0341 25.6948 72.0341 23.0464 72.0341C20.9873 72.0341 19.2839 70.4416 19.1439 68.3883C19.0039 66.3699 18.3798 64.4741 17.5164 62.6599V62.6483ZM57.1657 28.8674C58.6357 28.8674 59.8315 30.0632 59.8315 31.5332C59.8315 33.0032 58.6357 34.199 57.1657 34.199C55.6957 34.199 54.4998 33.0032 54.4998 31.5332C54.4998 30.0632 55.6957 28.8674 57.1657 28.8674ZM23.0464 69.3566C25.6948 69.3566 28.3431 69.3566 30.9915 69.3566C31.6623 69.3566 32.2165 68.8258 32.2398 68.1549C32.2923 66.7549 32.689 65.6408 33.8556 65.1566C34.1181 65.0458 34.3806 65.0341 34.6548 65.1041C37.1515 65.7749 39.6306 65.9324 42.0807 65.1741C42.2498 65.1216 42.3957 65.1099 42.5707 65.1216C43.7198 65.2324 44.2507 66.3174 44.2973 68.1549C44.3148 68.8316 44.869 69.3683 45.5457 69.3683C48.1298 69.3683 50.714 69.3683 53.304 69.3683C53.6598 69.3683 53.9632 69.2341 54.2082 68.9774C54.4532 68.7208 54.5698 68.4058 54.5465 68.0499C54.4298 65.9266 54.809 63.2083 55.9874 61.9308C60.4265 57.0833 64.714 52.7841 66.9599 46.5541C67.129 46.0932 67.514 45.7899 68.004 45.7374C69.6082 45.5682 71.7607 45.9999 71.8657 44.2149C71.8657 44.1857 71.8657 44.1566 71.8657 44.1274C71.8249 41.3916 71.7899 38.6557 71.749 35.914C71.7432 35.4124 71.4574 34.9865 70.9965 34.7882C70.2499 34.4674 69.1124 34.6307 68.1032 34.6249C67.5199 34.6249 67.024 34.234 66.8899 33.6624C65.6649 28.4357 63.1682 24.2299 58.379 21.8557C58.029 21.6807 57.8015 21.389 57.714 21.004C57.1249 18.3148 57.3407 15.7307 58.4315 13.2515C58.6124 12.8432 58.5715 12.4057 58.3149 12.044C58.064 11.6765 57.6674 11.484 57.224 11.5073C54.0973 11.6648 51.7815 13.2515 50.1948 16.139C49.9148 16.6523 49.3315 16.8973 48.7657 16.7398C29.014 11.2623 14.6289 19.3123 10.3531 36.7132C10.3356 36.7774 10.3298 36.8357 10.3239 36.9057C9.71725 43.8882 9.29725 50.3691 19.5931 60.9566C19.6923 61.0558 19.7623 61.1549 19.8206 61.2833C20.8764 63.4649 21.6348 65.7399 21.8039 68.1958C21.8506 68.8491 22.3931 69.3566 23.0464 69.3566Z" fill="#FF6889"/>
<path d="M24.2473 39.5134C32.6784 39.5134 39.5132 32.6787 39.5132 24.2476C39.5132 15.8164 32.6784 8.98169 24.2473 8.98169C15.8162 8.98169 8.98145 15.8164 8.98145 24.2476C8.98145 32.6787 15.8162 39.5134 24.2473 39.5134Z" fill="url(#paint0_linear)"/>
<path fill-rule="evenodd" clip-rule="evenodd" d="M24.2471 6.31592C34.1521 6.31592 42.1788 14.3426 42.1788 24.2476C42.1788 34.1526 34.1521 42.1793 24.2471 42.1793C14.3421 42.1793 6.31543 34.1526 6.31543 24.2476C6.31543 14.3426 14.3421 6.31592 24.2471 6.31592ZM25.1571 29.1535H22.7946C22.573 29.1535 22.3921 29.3343 22.3921 29.556V31.0085C22.3921 31.2301 22.2113 31.411 21.9896 31.411H20.3155C20.0938 31.411 19.913 31.2301 19.913 31.0085V29.556C19.913 29.3343 19.7321 29.1535 19.5105 29.1535H18.2971C18.0754 29.1535 17.8946 28.9726 17.8946 28.751V27.5376C17.8946 27.316 18.0754 27.1351 18.2971 27.1351H19.5105C19.7321 27.1351 19.913 26.9543 19.913 26.7326V26.511C19.913 26.2893 19.7321 26.1085 19.5105 26.1085H18.2971C18.0754 26.1085 17.8946 25.9276 17.8946 25.706V24.4926C17.8946 24.271 18.0754 24.0901 18.2971 24.0901H19.5105C19.7321 24.0901 19.913 23.9093 19.913 23.6876V17.4809C19.913 17.2593 20.0938 17.0784 20.3155 17.0784H25.3846C26.9655 17.0784 28.2255 17.4926 29.1705 18.3151C30.1155 19.1376 30.588 20.2343 30.588 21.5993C30.588 22.9935 30.1388 24.0843 29.2405 24.8776C28.3421 25.671 27.0938 26.0735 25.4955 26.0968H22.7888C22.5671 26.0968 22.3863 26.2776 22.3863 26.4993V26.721C22.3863 26.9426 22.5671 27.1235 22.7888 27.1235H25.1513C25.373 27.1235 25.5538 27.3043 25.5538 27.526V28.7393C25.5538 28.961 25.373 29.1418 25.1513 29.1418L25.1571 29.1535ZM22.7946 24.1018H25.3555C26.2421 24.1018 26.9305 23.8918 27.3971 23.4835C27.8696 23.0693 28.103 22.4568 28.103 21.6401C28.103 20.9051 27.8696 20.3043 27.4088 19.8434C26.948 19.3768 26.3121 19.1376 25.5013 19.1143H22.7946C22.573 19.1143 22.3921 19.2951 22.3921 19.5168V23.7051C22.3921 23.9268 22.573 24.1076 22.7946 24.1076V24.1018ZM24.2471 8.98759C32.6763 8.98759 39.513 15.8243 39.513 24.2535C39.513 32.6826 32.6763 39.5193 24.2471 39.5193C15.8179 39.5193 8.98127 32.6826 8.98127 24.2535C8.98127 15.8243 15.8179 8.98759 24.2471 8.98759Z" fill="#FF6889"/>
<defs>
<linearGradient id="paint0_linear" x1="8.98145" y1="8.98169" x2="43.4667" y2="14.4134" gradientUnits="userSpaceOnUse">
<stop stop-color="#E3EEFF"/>
<stop offset="0.526042" stop-color="#E4F6E4"/>
<stop offset="1" stop-color="#FFEEE4"/>
</linearGradient>
</defs>
</svg>
