<svg width="80" height="80" viewBox="0 0 80 80" fill="none" xmlns="http://www.w3.org/2000/svg">
<path d="M76.6668 55.1557V24.7176C76.6668 19.5733 65.8718 16.8667 55.2034 16.8667C52.291 16.8667 49.4735 17.0566 46.8143 17.4365L46.2762 17.5156V16.9616V11.1842C46.2762 6.02415 35.4811 3.33331 24.8127 3.33331C14.1443 3.33331 3.3335 6.02415 3.3335 11.1842V45.0097C3.3335 46.8774 4.74223 48.5236 7.51221 49.8849C10.0923 51.1511 13.7011 52.085 17.959 52.5915L19.6685 52.7973L18.1015 53.4938C15.0307 54.8708 13.4637 56.5803 13.4637 58.543V68.6891C13.4637 71.6648 17.041 73.5168 20.0325 74.5456C23.9422 75.8911 29.3872 76.6666 34.943 76.6666C40.4988 76.6666 45.9438 75.8911 49.8534 74.5456C52.845 73.5168 56.4222 71.6648 56.4222 68.6891V63.5923V63.1333L56.8812 63.1175C62.2154 62.975 67.1381 62.1519 70.7311 60.8065C73.4378 59.7777 76.6668 57.9732 76.6668 55.1557ZM74.2451 39.628V45.0572C74.2451 46.2601 72.3298 47.6214 69.1483 48.6819C66.5366 49.5525 62.0097 50.5971 55.2034 50.5971C48.3972 50.5971 43.8702 49.5525 41.2585 48.6819C38.0612 47.6056 36.1618 46.2601 36.1618 45.0572V39.628V38.7891L36.874 39.2165C38.7893 40.3719 41.5434 41.3058 44.8358 41.9548C48.0015 42.5721 51.5787 42.8887 55.2034 42.8887C58.8281 42.8887 62.4054 42.5563 65.5711 41.9548C68.8634 41.3058 71.6175 40.3719 73.5328 39.2165L74.2451 38.7891V39.628ZM39.8498 50.8979L37.618 50.8029C37.2539 50.7871 36.9374 50.7713 36.605 50.7713L36.1459 50.7554V50.2964V49.7741V48.9193L36.8582 49.3467C37.2064 49.5525 37.523 49.7266 37.8396 49.8849L39.8498 50.8979ZM74.2451 29.4978V34.927C74.2451 36.1299 72.3298 37.4912 69.1483 38.5517C66.5366 39.4222 62.0097 40.4669 55.2034 40.4669C48.3972 40.4669 43.8702 39.4222 41.2585 38.5517C38.0612 37.4753 36.1618 36.1299 36.1618 34.927V29.4978V28.6589L36.874 29.0862C38.7893 30.2417 41.5434 31.1756 44.8358 31.8246C48.0015 32.4419 51.5787 32.7584 55.2034 32.7584C58.8281 32.7584 62.4054 32.4261 65.5711 31.8246C68.8634 31.1756 71.6175 30.2417 73.5328 29.0862L74.2451 28.6589V29.4978ZM55.2034 19.2726C62.0097 19.2726 66.5366 20.3173 69.1483 21.1878C72.3456 22.2642 74.2451 23.6096 74.2451 24.8126C74.2451 26.0155 72.3298 27.3768 69.1483 28.4373C66.5366 29.3078 62.0097 30.3525 55.2034 30.3525C48.3972 30.3525 43.8702 29.3078 41.2585 28.4373C38.0612 27.3609 36.1618 26.0155 36.1618 24.8126C36.1618 23.6096 38.077 22.2483 41.2585 21.1878C43.8544 20.3014 48.3972 19.2726 55.2034 19.2726ZM10.8679 7.67032C13.4795 6.79975 18.0065 5.75507 24.8127 5.75507C31.619 5.75507 36.1459 6.79975 38.7576 7.67032C41.955 8.74665 43.8544 10.0921 43.8544 11.295C43.8544 12.498 41.9392 13.8593 38.7576 14.9198C36.1459 15.7903 31.619 16.835 24.8127 16.835C18.0065 16.835 13.4795 15.7903 10.8679 14.9198C7.6705 13.8434 5.77108 12.498 5.77108 11.295C5.75525 10.0921 7.6705 8.74665 10.8679 7.67032ZM5.75525 15.9961V15.1572L6.46753 15.5846C8.38278 16.74 11.1369 17.6739 14.4293 18.3229C17.595 18.9402 21.1722 19.2568 24.7969 19.2568C28.4216 19.2568 31.9989 18.9244 35.1646 18.3229C38.4569 17.6739 41.211 16.74 43.1263 15.5846L43.8386 15.1572V15.9961V17.6739V18.0538L43.4587 18.1329C40.4354 18.7977 38.0453 19.7158 36.3517 20.8238C34.5947 21.9793 33.6925 23.3247 33.6925 24.7967V25.7939V26.2055L33.2968 26.2688C30.416 26.7278 27.5511 26.9652 24.7811 26.9652C17.9748 26.9652 13.4479 25.9205 10.8362 25.05C7.63884 23.9736 5.73942 22.6282 5.73942 21.4253V15.9961H5.75525ZM5.75525 26.1263V25.2874L6.46753 25.7148C8.38278 26.8703 11.1369 27.8041 14.4293 28.4531C17.595 29.0704 21.1722 29.387 24.7969 29.387C27.4244 29.387 30.2419 29.1654 33.1702 28.7222L33.7083 28.643V29.197V37.6178V38.0293L33.3126 38.0926C30.4318 38.5517 27.5669 38.7891 24.7969 38.7891C17.9907 38.7891 13.4637 37.7444 10.852 36.8739C7.65467 35.7975 5.75525 34.4521 5.75525 33.2491V26.1263ZM10.8679 48.6977C7.6705 47.6214 5.77108 46.276 5.77108 45.073V37.9502V37.1113L6.48336 37.5387C8.39861 38.6941 11.1528 39.628 14.4451 40.277C17.6108 40.8943 21.188 41.2109 24.8127 41.2109C27.4403 41.2109 30.2577 40.9893 33.186 40.5461L33.7242 40.4669V41.0209V49.4417V49.8532L33.3285 49.9165C30.4477 50.3755 27.5827 50.613 24.8127 50.613C18.0065 50.613 13.4637 49.5683 10.8679 48.6977ZM53.9846 63.5923V68.7049C53.9846 69.9079 52.0694 71.2691 48.8879 72.3296C46.2762 73.2002 41.7492 74.2449 34.943 74.2449C28.1367 74.2449 23.6098 73.2002 20.9981 72.3296C17.8007 71.2533 15.9013 69.9079 15.9013 68.7049V63.2758V62.4368L16.6136 62.8642C18.5288 64.0197 21.283 64.9536 24.5753 65.6025C27.741 66.2199 31.3182 66.5364 34.943 66.5364C42.1924 66.5364 48.8562 65.2701 52.75 63.165L52.8608 63.1016H52.9874C53.0824 63.1016 53.1774 63.1016 53.2723 63.1016C53.3515 63.1016 53.4306 63.1016 53.5098 63.1016L53.9688 63.1175V63.5923H53.9846ZM48.8879 62.1994C46.2762 63.07 41.7492 64.1147 34.943 64.1147C28.1367 64.1147 23.6098 63.07 20.9981 62.1994C17.8007 61.1231 15.9013 59.7777 15.9013 58.5747C15.9013 57.3717 17.8166 56.0105 20.9981 54.95C23.6098 54.0794 28.1367 53.0347 34.943 53.0347C41.7492 53.0347 46.2762 54.0794 48.8879 54.95C52.0852 56.0263 53.9846 57.3717 53.9846 58.5747C53.9846 59.7777 52.0694 61.1389 48.8879 62.1994ZM56.8971 60.6799L56.4064 60.6957V60.205V58.5747C56.4064 56.7703 55.0926 55.1874 52.4967 53.8736L50.5498 52.8923L52.7342 52.9872C53.6522 53.0189 54.4595 53.0506 55.2034 53.0506C58.8281 53.0506 62.4054 52.7182 65.5711 52.1167C68.8634 51.4677 71.6175 50.5338 73.5328 49.3783L74.2451 48.951V49.7899V55.2191C74.2451 56.3587 72.5356 57.625 69.5757 58.6697C67.2172 59.4769 63.1177 60.5058 56.8971 60.6799Z" fill="#7ECA1D"/>
<path d="M39.8498 50.8981L37.618 50.8031C37.2539 50.7873 36.9373 50.7715 36.6049 50.7715L36.1459 50.7557V50.2966V49.7743V48.9196L36.8582 49.3469C37.2064 49.5527 37.523 49.7268 37.8396 49.8851L39.8498 50.8981ZM10.8679 48.698C7.6705 47.6216 5.77108 46.2762 5.77108 45.0732V37.9504V37.1115L6.48336 37.5389C8.39861 38.6944 11.1528 39.6282 14.4451 40.2772C17.6108 40.8945 21.188 41.2111 24.8127 41.2111C27.4403 41.2111 30.2577 40.9895 33.186 40.5463L33.7242 40.4672V41.0211V49.4419V49.8534L33.3285 49.9167C30.4477 50.3758 27.5827 50.6132 24.8127 50.6132C18.0065 50.6132 13.4637 49.5685 10.8679 48.698ZM53.9846 63.5926V68.7052C53.9846 69.9081 52.0694 71.2694 48.8878 72.3299C46.2761 73.2004 41.7492 74.2451 34.943 74.2451C28.1367 74.2451 23.6098 73.2004 20.9981 72.3299C17.8007 71.2535 15.9013 69.9081 15.9013 68.7052V63.276V62.4371L16.6136 62.8644C18.5288 64.0199 21.283 64.9538 24.5753 65.6028C27.741 66.2201 31.3182 66.5366 34.943 66.5366C42.1924 66.5366 48.8562 65.2704 52.75 63.1652L52.8608 63.1019H52.9874C53.0824 63.1019 53.1774 63.1019 53.2723 63.1019C53.3515 63.1019 53.4306 63.1019 53.5098 63.1019L53.9688 63.1177V63.5926H53.9846ZM48.8878 62.1996C46.2761 63.0702 41.7492 64.1149 34.943 64.1149C28.1367 64.1149 23.6098 63.0702 20.9981 62.1996C17.8007 61.1233 15.9013 59.7779 15.9013 58.5749C15.9013 57.372 17.8166 56.0107 20.9981 54.9502C23.6098 54.0796 28.1367 53.035 34.943 53.035C41.7492 53.035 46.2761 54.0796 48.8878 54.9502C52.0852 56.0265 53.9846 57.372 53.9846 58.5749C53.9846 59.7779 52.0694 61.1391 48.8878 62.1996ZM56.8971 60.6801L56.4064 60.6959V60.2053V58.5749C56.4064 56.7705 55.0926 55.1876 52.4967 53.8739L50.5498 52.8925L52.7342 52.9875C53.6522 53.0191 54.4595 53.0508 55.2034 53.0508C58.8281 53.0508 62.4054 52.7184 65.5711 52.1169C68.8634 51.4679 71.6175 50.5341 73.5328 49.3786L74.2451 48.9512V49.7901V55.2193C74.2451 56.3589 72.5356 57.6252 69.5757 58.6699C67.2172 59.4771 63.1176 60.506 56.8971 60.6801Z" fill="url(#paint0_linear)"/>
<path d="M74.2449 29.498V34.9271C74.2449 36.1301 72.3297 37.4913 69.1482 38.5519C66.5365 39.4224 62.0095 40.4671 55.2033 40.4671C48.397 40.4671 43.8701 39.4224 41.2584 38.5519C38.061 37.4755 36.1616 36.1301 36.1616 34.9271V29.498V28.6591L36.8739 29.0864C38.7891 30.2419 41.5433 31.1758 44.8356 31.8248C48.0013 32.4421 51.5786 32.7586 55.2033 32.7586C58.828 32.7586 62.4052 32.4262 65.5709 31.8248C68.8633 31.1758 71.6174 30.2419 73.5326 29.0864L74.2449 28.6591V29.498ZM55.2033 19.2728C62.0095 19.2728 66.5365 20.3174 69.1482 21.188C72.3455 22.2643 74.2449 23.6098 74.2449 24.8127C74.2449 26.0157 72.3297 27.3769 69.1482 28.4375C66.5365 29.308 62.0095 30.3527 55.2033 30.3527C48.397 30.3527 43.8701 29.308 41.2584 28.4375C38.061 27.3611 36.1616 26.0157 36.1616 24.8127C36.1616 23.6098 38.0769 22.2485 41.2584 21.188C43.8543 20.3016 48.397 19.2728 55.2033 19.2728Z" fill="url(#paint1_linear)"/>
<path d="M10.8677 7.67037C13.4794 6.79981 18.0063 5.75513 24.8126 5.75513C31.6188 5.75513 36.1458 6.79981 38.7575 7.67037C41.9548 8.74671 43.8542 10.0921 43.8542 11.2951C43.8542 12.4981 41.939 13.8593 38.7575 14.9198C36.1458 15.7904 31.6188 16.8351 24.8126 16.8351C18.0063 16.8351 13.4794 15.7904 10.8677 14.9198C7.67033 13.8435 5.77091 12.4981 5.77091 11.2951C5.75509 10.0921 7.67033 8.74671 10.8677 7.67037ZM5.75509 15.9962V15.1572L6.46737 15.5846C8.38261 16.7401 11.1368 17.674 14.4291 18.3229C17.5948 18.9402 21.172 19.2568 24.7967 19.2568C28.4215 19.2568 31.9987 18.9244 35.1644 18.3229C38.4567 17.674 41.2109 16.7401 43.1261 15.5846L43.8384 15.1572V15.9962V17.674V18.0539L43.4585 18.133C40.4353 18.7978 38.0452 19.7158 36.3515 20.8238C34.5946 21.9793 33.6924 23.3247 33.6924 24.7968V25.794V26.2055L33.2966 26.2688C30.4159 26.7279 27.5509 26.9653 24.7809 26.9653C17.9747 26.9653 13.4477 25.9206 10.836 25.05C7.63867 23.9737 5.73926 22.6283 5.73926 21.4253V15.9962H5.75509ZM53.9845 63.5924V68.705C53.9845 69.9079 52.0692 71.2692 48.8877 72.3297C46.276 73.2003 41.749 74.2449 34.9428 74.2449C28.1366 74.2449 23.6096 73.2003 20.9979 72.3297C17.8006 71.2534 15.9011 69.9079 15.9011 68.705V63.2758V62.4369L16.6134 62.8643C18.5287 64.0197 21.2828 64.9536 24.5751 65.6026C27.7408 66.2199 31.3181 66.5365 34.9428 66.5365C42.1922 66.5365 48.856 65.2702 52.7498 63.165L52.8606 63.1017H52.9873C53.0822 63.1017 53.1772 63.1017 53.2722 63.1017C53.3513 63.1017 53.4305 63.1017 53.5096 63.1017L53.9686 63.1175V63.5924H53.9845ZM48.8877 62.1995C46.276 63.07 41.749 64.1147 34.9428 64.1147C28.1366 64.1147 23.6096 63.07 20.9979 62.1995C17.8006 61.1231 15.9011 59.7777 15.9011 58.5747C15.9011 57.3718 17.8164 56.0105 20.9979 54.95C23.6096 54.0795 28.1366 53.0348 34.9428 53.0348C41.749 53.0348 46.276 54.0795 48.8877 54.95C52.085 56.0264 53.9845 57.3718 53.9845 58.5747C53.9845 59.7777 52.0692 61.139 48.8877 62.1995Z" fill="url(#paint2_linear)"/>
<defs>
<linearGradient id="paint0_linear" x1="3.3335" y1="36.8741" x2="81.6212" y2="59.5988" gradientUnits="userSpaceOnUse">
<stop stop-color="#E3EEFF"/>
<stop offset="0.526042" stop-color="#E4F6E4"/>
<stop offset="1" stop-color="#FFEEE4"/>
</linearGradient>
<linearGradient id="paint1_linear" x1="36.1616" y1="19.2728" x2="76.9742" y2="30.8237" gradientUnits="userSpaceOnUse">
<stop stop-color="#E3EEFF"/>
<stop offset="0.526042" stop-color="#E4F6E4"/>
<stop offset="1" stop-color="#FFEEE4"/>
</linearGradient>
<linearGradient id="paint2_linear" x1="5.73926" y1="5.75513" x2="60.9044" y2="11.8758" gradientUnits="userSpaceOnUse">
<stop stop-color="#E3EEFF"/>
<stop offset="0.526042" stop-color="#E4F6E4"/>
<stop offset="1" stop-color="#FFEEE4"/>
</linearGradient>
</defs>
</svg>
