<svg width="80" height="80" viewBox="0 0 80 80" fill="none" xmlns="http://www.w3.org/2000/svg">
<path d="M50.3809 17.1803V28.3606H68.7483L63.1155 17.1803H50.3809Z" fill="url(#paint0_linear)"/>
<path d="M71.7368 50.0882H74.4025C76.5662 50.0882 78.3317 48.3226 78.3317 46.1588V33.7996C78.3663 32.259 77.4143 30.805 75.9603 30.1818L70.5424 27.8277L65.99 18.9651C64.8476 16.7321 62.5801 15.3473 60.0702 15.3473C60.0529 15.3473 60.0356 15.3473 60.0183 15.3473H51.8655V12.7335C51.8655 9.02922 48.8709 6 45.2013 6H8.29741C4.64511 6 1.66787 9.02922 1.66787 12.7335V46.1415C1.63325 48.3052 3.3642 50.0882 5.52789 50.1228H5.59713H6.94727V50.5555C6.94727 50.6767 6.94727 50.7459 6.92996 50.8152C6.92996 50.8498 6.92996 50.8671 6.92996 50.9017C6.91265 55.61 10.7207 59.4528 15.4289 59.4701C15.4462 59.4701 15.4462 59.4701 15.4636 59.4701C20.1544 59.4701 23.9798 55.6619 23.9971 50.971V50.8844C23.9971 50.7632 23.9971 50.7286 23.9798 50.5728L23.9279 50.1055H54.6696V50.8844C54.6696 53.1693 55.5351 55.3157 57.1449 56.9256C58.7547 58.5527 60.8837 59.4355 63.1686 59.4528C63.1859 59.4528 63.1859 59.4528 63.2032 59.4528C65.4708 59.4528 67.5998 58.57 69.2096 56.9775C70.8367 55.3677 71.7195 53.2386 71.7368 50.9537V50.0882ZM15.4809 56.8909C12.2094 56.8909 9.5437 54.2252 9.5437 50.9537C9.5437 47.6821 12.2094 45.0164 15.4809 45.0164C18.7524 45.0164 21.418 47.6821 21.418 50.9537C21.418 54.2252 18.7524 56.8909 15.4809 56.8909ZM49.269 47.5609H23.3221L23.2009 47.3013C21.8335 44.3067 18.8216 42.3853 15.5155 42.3853C15.4809 42.3853 15.4636 42.3853 15.4289 42.3853C12.1228 42.3853 9.11096 44.3067 7.74351 47.3013L7.62234 47.5609H5.59713C4.83551 47.5609 4.2643 46.9724 4.2643 46.1761V36.8288H49.269V47.5609ZM49.269 34.2323H4.2643V12.7508C4.2643 10.4659 6.0818 8.61379 8.29741 8.61379H45.2013C46.2918 8.6311 47.3304 9.06384 48.092 9.84278C48.8536 10.6217 49.269 11.6603 49.269 12.7335V34.2323ZM51.8655 17.9611H60.0183C61.5761 17.9438 62.9782 18.7747 63.6879 20.1421L67.4787 27.4815H51.8655V17.9611ZM63.2205 56.8909C59.949 56.8909 57.2834 54.2252 57.2834 50.9537C57.2834 47.6821 59.949 45.0164 63.2205 45.0164C66.492 45.0164 69.1577 47.6821 69.1577 50.9537C69.1577 54.2252 66.492 56.8909 63.2205 56.8909ZM70.9406 47.3186C68.95 43.0604 63.861 41.2082 59.6028 43.1988C57.7853 44.047 56.3313 45.5011 55.4832 47.3186L55.362 47.5609H51.8655V30.078H69.3481L74.9564 32.5533C75.4583 32.7956 75.7699 33.3322 75.7526 33.8862V46.1761C75.7526 46.9724 75.1814 47.5609 74.4198 47.5609H71.0617L70.9406 47.3186Z" fill="#7ECA1D"/>
<path d="M15.4809 56.8908C12.2094 56.8908 9.5437 54.2251 9.5437 50.9536C9.5437 47.682 12.2094 45.0163 15.4809 45.0163C18.7524 45.0163 21.418 47.682 21.418 50.9536C21.418 54.2251 18.7524 56.8908 15.4809 56.8908ZM63.2205 56.8908C59.949 56.8908 57.2834 54.2251 57.2834 50.9536C57.2834 47.682 59.949 45.0163 63.2205 45.0163C66.492 45.0163 69.1577 47.682 69.1577 50.9536C69.1577 54.2251 66.492 56.8908 63.2205 56.8908Z" fill="url(#paint1_linear)"/>
<path fill-rule="evenodd" clip-rule="evenodd" d="M58.6855 35.7404C58.6855 35.2661 58.3498 34.8595 57.896 34.7842L55.878 34.4379C49.9309 33.4177 44.2346 30.9142 39.4091 27.1948C39.0733 26.9351 38.6122 26.9351 38.2764 27.1948C33.4509 30.9142 27.7583 33.4177 21.8075 34.4379L19.7895 34.7842C19.3357 34.8633 19 35.2661 19 35.7404V43.119C19 53.1742 21.8038 61.524 28.7212 68.6918C33.5468 73.6912 38.3392 75.389 38.5384 75.4567C38.6343 75.4906 38.7376 75.5057 38.8409 75.5057C38.9405 75.5057 39.0438 75.4869 39.1434 75.4567C39.3463 75.389 44.135 73.6912 48.9606 68.6918C55.878 61.524 58.6855 53.1742 58.6855 43.119V35.7404Z" fill="#7ECA1D"/>
<path fill-rule="evenodd" clip-rule="evenodd" d="M56.6864 36.6438L55.5464 36.448C49.5366 35.4165 43.7776 32.9507 38.8414 29.3028C33.9051 32.9507 28.1498 35.4165 22.1363 36.448L20.9963 36.6438V43.1188C20.9963 52.583 23.5678 60.4472 30.1457 67.2611C31.9756 69.1584 34.0785 70.8337 36.3511 72.1513C37.0963 72.5842 38.0002 73.0698 38.8414 73.4011C39.6862 73.0698 40.5974 72.5767 41.3464 72.1438C43.6116 70.8299 45.7071 69.1584 47.537 67.2649C54.115 60.451 56.6864 52.5905 56.6864 43.1226V36.6475V36.6438Z" fill="url(#paint2_linear)"/>
<path fill-rule="evenodd" clip-rule="evenodd" d="M37.9959 44.105C38.5456 44.105 38.9957 44.5643 38.9957 45.1252V51.6041H47.6175C48.1672 51.6041 48.6173 52.0633 48.6173 52.6243C48.6173 53.1852 48.1672 53.6445 47.6175 53.6445H37.9959H37.9701H37.9443H37.9184L37.8926 53.6407L37.8668 53.6369L37.841 53.6332L37.8151 53.6294L37.7893 53.6256L37.7635 53.6219L37.7377 53.6144L37.7155 53.6068L37.6934 53.5993L37.6713 53.5918L37.6491 53.5842L37.627 53.5767L37.6048 53.5692L37.5827 53.5579L37.5606 53.5466L37.5384 53.5353L37.5163 53.524L37.4942 53.5127L37.472 53.5014L37.4499 53.4901L37.4315 53.4751L37.413 53.46L37.3946 53.4449L37.3761 53.4299L37.3577 53.4148L37.3392 53.3998L37.3208 53.3847L37.3023 53.3697L37.2839 53.3508L37.2654 53.332L37.2507 53.3132L37.2359 53.2944L37.2212 53.2755L37.2064 53.2567L37.1916 53.2379L37.1769 53.2191L37.1621 53.2002L37.1474 53.1814L37.1363 53.1588L37.1252 53.1362L37.1142 53.1137L37.1031 53.0911L37.092 53.0685L37.081 53.0459L37.0699 53.0233L37.0588 53.0007L37.0515 52.9781L37.0441 52.9556L37.0367 52.933L37.0293 52.9104L37.0219 52.8878L37.0146 52.8614L37.0109 52.8351L37.0072 52.8087L37.0035 52.7824L36.9998 52.756L36.9961 52.7297L36.9924 52.7033V52.677V52.6506V52.6243V45.129C36.9924 44.5681 37.4425 44.1088 37.9922 44.1088L37.9959 44.105Z" fill="#7ECA1D"/>
<defs>
<linearGradient id="paint0_linear" x1="50.3809" y1="17.1803" x2="70.3071" y2="22.3364" gradientUnits="userSpaceOnUse">
<stop stop-color="#E3EEFF"/>
<stop offset="0.526042" stop-color="#E4F6E4"/>
<stop offset="1" stop-color="#FFEEE4"/>
</linearGradient>
<linearGradient id="paint1_linear" x1="9.5437" y1="45.0163" x2="52.0002" y2="78.5887" gradientUnits="userSpaceOnUse">
<stop stop-color="#E3EEFF"/>
<stop offset="0.526042" stop-color="#E4F6E4"/>
<stop offset="1" stop-color="#FFEEE4"/>
</linearGradient>
<linearGradient id="paint2_linear" x1="20.9963" y1="29.3028" x2="61.6473" y2="34.4849" gradientUnits="userSpaceOnUse">
<stop stop-color="#E3EEFF"/>
<stop offset="0.526042" stop-color="#E4F6E4"/>
<stop offset="1" stop-color="#FFEEE4"/>
</linearGradient>
</defs>
</svg>
