<svg width="80" height="80" viewBox="0 0 80 80" fill="none" xmlns="http://www.w3.org/2000/svg">
<path d="M39.1667 5C19.3765 5 3.33334 21.0431 3.33334 40.8333C3.33334 60.6235 19.3765 76.6667 39.1667 76.6667C58.9569 76.6667 75 60.6235 75 40.8333C74.9776 21.0524 58.9476 5.02238 39.1667 5ZM39.1667 74.2778C20.6958 74.2778 5.72223 59.3042 5.72223 40.8333C5.72223 22.3625 20.6958 7.38889 39.1667 7.38889C57.6375 7.38889 72.6111 22.3625 72.6111 40.8333C72.5901 59.2955 57.6288 74.2567 39.1667 74.2778Z" fill="#7ECA1D"/>
<path d="M54.6946 50.389C51.3978 50.393 48.7263 53.0645 48.7223 56.3613C48.7279 56.6888 48.7611 57.0152 48.8215 57.3371L46.4565 58.2521C45.184 55.9893 42.9338 54.445 40.3648 54.0715V51.464C43.3688 50.8509 45.4205 48.0626 45.1123 45.0122C44.8042 41.9618 42.2363 39.6403 39.1704 39.6403C36.1044 39.6403 33.5365 41.9618 33.2284 45.0122C32.9202 48.0626 34.9719 50.8509 37.9759 51.464V54.0679C35.407 54.4415 33.1567 55.9858 31.8842 58.2485L29.5192 57.3335C29.577 57.0126 29.6078 56.6874 29.6112 56.3613C29.6334 53.369 27.4506 50.8163 24.4912 50.3736C21.5317 49.9309 18.6975 51.733 17.8431 54.6008C16.9886 57.4686 18.3743 60.5281 21.0934 61.7773C23.8126 63.0265 27.0365 62.0848 28.6557 59.5683L31.0147 60.4821C30.241 63.8373 31.6033 67.3238 34.4469 69.2656C37.2904 71.2074 41.0336 71.2074 43.8771 69.2656C46.7207 67.3238 48.083 63.8373 47.3093 60.4821L49.6683 59.5683C51.2081 61.9871 54.2495 62.9703 56.9137 61.9106C59.578 60.8508 61.1131 58.0472 60.5708 55.2317C60.0285 52.4162 57.5618 50.3834 54.6946 50.389ZM23.639 59.9446C21.66 59.9446 20.0557 58.3403 20.0557 56.3613C20.0557 54.3822 21.66 52.7779 23.639 52.7779C25.618 52.7779 27.2223 54.3822 27.2223 56.3613C27.2223 58.3403 25.618 59.9446 23.639 59.9446ZM35.5834 45.6113C35.5834 43.6322 37.1877 42.0279 39.1668 42.0279C41.1458 42.0279 42.7501 43.6322 42.7501 45.6113C42.7501 47.5903 41.1458 49.1946 39.1668 49.1946C37.1877 49.1946 35.5834 47.5903 35.5834 45.6113ZM39.1668 68.3057C35.8684 68.3057 33.1945 65.6318 33.1945 62.3335C33.1945 59.0351 35.8684 56.3613 39.1668 56.3613C42.4651 56.3613 45.139 59.0351 45.139 62.3335C45.135 65.6302 42.4635 68.3018 39.1668 68.3057ZM54.6946 59.9446C52.7155 59.9446 51.1112 58.3403 51.1112 56.3613C51.1112 54.3822 52.7155 52.7779 54.6946 52.7779C56.6736 52.7779 58.2779 54.3822 58.2779 56.3613C58.2779 58.3403 56.6736 59.9446 54.6946 59.9446Z" fill="#7ECA1D"/>
<path d="M23.6391 59.9446C21.6601 59.9446 20.0558 58.3403 20.0558 56.3613C20.0558 54.3823 21.6601 52.778 23.6391 52.778C25.6181 52.778 27.2224 54.3823 27.2224 56.3613C27.2224 58.3403 25.6181 59.9446 23.6391 59.9446ZM35.5835 45.6113C35.5835 43.6323 37.1878 42.028 39.1669 42.028C41.1459 42.028 42.7502 43.6323 42.7502 45.6113C42.7502 47.5903 41.1459 49.1946 39.1669 49.1946C37.1878 49.1946 35.5835 47.5903 35.5835 45.6113ZM39.1669 68.3057C35.8685 68.3057 33.1946 65.6319 33.1946 62.3335C33.1946 59.0351 35.8685 56.3613 39.1669 56.3613C42.4652 56.3613 45.1391 59.0351 45.1391 62.3335C45.1351 65.6302 42.4636 68.3018 39.1669 68.3057ZM54.6946 59.9446C52.7156 59.9446 51.1113 58.3403 51.1113 56.3613C51.1113 54.3823 52.7156 52.778 54.6946 52.778C56.6737 52.778 58.278 54.3823 58.278 56.3613C58.278 58.3403 56.6737 59.9446 54.6946 59.9446Z" fill="url(#paint0_linear)"/>
<path d="M27.8601 44.0644C28.2647 43.6112 28.2647 42.9266 27.8601 42.4734C27.7168 42.3121 24.2947 38.5389 19.9123 38.5389C19.6734 38.5389 19.4512 38.5544 19.2243 38.5747L21.9369 35.8621C23.8569 37.6791 26.3551 38.7624 28.9937 38.9223C33.3749 38.9223 36.7982 35.1491 36.9427 34.989C37.348 34.5357 37.348 33.8502 36.9427 33.3968C36.7993 33.2356 33.3749 29.4611 28.9937 29.4611C28.7548 29.4611 28.5326 29.4766 28.3045 29.497L31.0242 26.7784C32.9449 28.5944 35.4436 29.6765 38.0822 29.835C42.4646 29.835 45.8867 26.0605 46.03 25.8933C46.4346 25.4401 46.4346 24.7555 46.03 24.3023C44.7811 22.9805 43.2875 21.9136 41.6321 21.1609C44.574 18.0494 44.3339 13.1235 44.3208 12.9121C44.286 12.3068 43.8033 11.8235 43.198 11.7881C42.9878 11.7798 38.0619 11.5349 34.9492 14.4792C34.1967 12.8233 33.1298 11.3293 31.8078 10.0801C31.3546 9.67546 30.6699 9.67546 30.2168 10.0801C30.0555 10.2246 26.2751 13.6467 26.2751 18.0279C26.4329 20.6651 27.5142 23.1626 29.3293 25.0823L26.6251 27.8008C26.6442 27.5751 26.6597 27.3493 26.6597 27.1176C26.6597 22.7352 22.8865 19.3131 22.7252 19.1698C22.272 18.7652 21.5874 18.7652 21.1342 19.1698C20.9741 19.3131 17.1997 22.7352 17.1997 27.1176C17.3575 29.7548 18.4388 32.2523 20.2539 34.172L17.5437 36.8834C17.564 36.6576 17.5795 36.4307 17.5795 36.199C17.5795 31.8178 13.8051 28.3945 13.6438 28.2511C13.1907 27.8465 12.506 27.8465 12.0528 28.2511C11.8856 28.3945 8.11118 31.8178 8.11118 36.199C8.26975 38.8366 9.35138 41.3343 11.1666 43.2546L9.97212 44.449C9.66162 44.7489 9.53709 45.193 9.6464 45.6106C9.75571 46.0282 10.0818 46.3544 10.4995 46.4637C10.9171 46.573 11.3612 46.4485 11.6611 46.138L12.8555 44.9435C14.7761 46.7591 17.2742 47.8412 19.9123 48.0001C24.2947 48.0001 27.7168 44.2256 27.8601 44.0644ZM34.3221 34.1899C32.8651 35.5559 30.9851 36.3827 28.9937 36.5334C26.9984 36.3813 25.1142 35.5549 23.6509 34.1899C25.1129 32.8235 26.998 31.9979 28.9937 31.85C30.9837 32.0033 32.8626 32.8284 34.3221 34.1899ZM38.0822 27.4413C36.0875 27.2892 34.2038 26.4632 32.7406 25.099C34.204 23.7353 36.0876 22.9097 38.0822 22.7579C40.0716 22.9118 41.9496 23.7373 43.4082 25.099C41.95 26.4613 40.0718 27.2873 38.0822 27.4413ZM36.4816 16.3103C37.9999 15.0104 39.9163 14.2676 41.914 14.2045C41.8514 16.2008 41.1069 18.1154 39.8046 19.6296C39.5023 19.9265 39.1663 20.1871 38.8036 20.406C38.5647 20.3845 38.3258 20.369 38.087 20.369C37.1105 20.3767 36.1425 20.5517 35.2251 20.8862C35.5582 19.97 35.733 19.0039 35.7423 18.0291C35.7423 17.7902 35.7267 17.5513 35.704 17.3124C35.9239 16.9496 36.1848 16.6134 36.4816 16.3103ZM31.0123 12.7043C32.3744 14.1622 33.2003 16.0399 33.3546 18.0291C33.2025 20.0234 32.3764 21.9067 31.0123 23.3694C29.6481 21.9067 28.8221 20.0234 28.67 18.0291C28.8242 16.0399 29.6502 14.1622 31.0123 12.7043ZM21.9261 21.7892C23.291 23.2464 24.1162 25.1266 24.2648 27.1176C24.1131 29.1118 23.2875 30.9951 21.9237 32.458C20.56 30.9951 19.7344 29.1118 19.5826 27.1176C19.7368 25.1271 20.5632 23.2481 21.9261 21.7892ZM12.8483 30.8741C14.2083 32.3329 15.0321 34.2105 15.1847 36.199C15.0326 38.1933 14.2065 40.0766 12.8424 41.5393C11.4782 40.0766 10.6522 38.1933 10.5001 36.199C10.6543 34.2097 11.4803 32.3321 12.8424 30.8741H12.8483ZM19.9183 40.9278C21.9077 41.0817 23.7857 41.9072 25.2443 43.2689C23.7845 44.6325 21.904 45.4585 19.9123 45.6112C17.9176 45.4591 16.0339 44.6331 14.5707 43.2689C16.0341 41.9051 17.9177 41.0796 19.9123 40.9278H19.9183Z" fill="#7ECA1D"/>
<path d="M48.0975 21.8993C47.5359 22.2439 47.3595 22.9783 47.7033 23.5404V23.5488C49.5451 26.7875 50.2451 30.5512 49.6909 34.2355C49.6037 34.8661 49.452 35.4681 49.2047 36.5276C48.9987 37.3645 48.9007 38.2243 48.9133 39.0861C49.0834 41.9569 50.5469 44.5954 52.8922 46.2596C55.2375 47.9239 58.2113 48.4341 60.9772 47.6467C63.6395 46.978 65.8364 45.1037 66.916 42.5799C68.7542 38.3348 67.5251 33.2357 65.9126 30.1576C61.3236 21.3868 49.1175 21.271 48.0975 21.8993ZM63.8044 31.2673C65.2796 34.0838 66.1384 38.3802 64.7301 41.6303C63.9394 43.4936 62.3122 44.8718 60.3441 45.345C58.2825 45.9382 56.0631 45.5665 54.3072 44.3341C52.5513 43.1016 51.4474 41.1407 51.3046 39.0001C51.3016 38.3405 51.3819 37.6831 51.5434 37.0436C51.7716 36.0582 51.9555 35.3344 52.063 34.5628C52.5617 31.0217 52.089 27.4118 50.6954 24.1185C56.1026 24.4064 61.3546 26.5946 63.8044 31.2673Z" fill="#7ECA1D"/>
<path d="M63.8044 31.2674C65.2796 34.0839 66.1384 38.3803 64.7301 41.6304C63.9394 43.4937 62.3122 44.8719 60.3441 45.3451C58.2825 45.9383 56.0631 45.5667 54.3072 44.3342C52.5513 43.1017 51.4474 41.1408 51.3046 39.0002C51.3016 38.3406 51.3819 37.6833 51.5435 37.0437C51.7716 36.0583 51.9555 35.3345 52.063 34.5629C52.5617 31.0219 52.089 27.4119 50.6954 24.1187C56.1027 24.4065 61.3546 26.5947 63.8044 31.2674Z" fill="url(#paint1_linear)"/>
<defs>
<linearGradient id="paint0_linear" x1="20.0558" y1="42.028" x2="62.0919" y2="51.6587" gradientUnits="userSpaceOnUse">
<stop stop-color="#E3EEFF"/>
<stop offset="0.526042" stop-color="#E4F6E4"/>
<stop offset="1" stop-color="#FFEEE4"/>
</linearGradient>
<linearGradient id="paint1_linear" x1="50.6954" y1="24.1187" x2="67.5731" y2="25.9423" gradientUnits="userSpaceOnUse">
<stop stop-color="#E3EEFF"/>
<stop offset="0.526042" stop-color="#E4F6E4"/>
<stop offset="1" stop-color="#FFEEE4"/>
</linearGradient>
</defs>
</svg>
