<svg width="48" height="48" viewBox="0 0 48 48" fill="none" xmlns="http://www.w3.org/2000/svg">
<path fill-rule="evenodd" clip-rule="evenodd" d="M23.9586 1.26318C36.4931 1.26318 46.6539 11.424 46.6539 23.9585C46.6539 36.4931 36.4931 46.6539 23.9586 46.6539C11.424 46.6539 1.26318 36.4931 1.26318 23.9585C1.26318 11.424 11.424 1.26318 23.9586 1.26318ZM30.8083 20.3562C31.1747 18.9347 31.3674 17.3633 31.2711 15.8241C33.4971 17.8264 34.8967 20.7296 34.8967 23.9585C34.8967 24.8318 34.7943 25.6811 34.6009 26.4952C33.6409 26.8374 32.7306 27.2924 31.9441 27.7866C29.7361 29.1755 27.6063 31.4162 27.3278 34.1248C27.3194 34.2078 27.3128 34.2906 27.308 34.3731C26.4602 34.6456 25.5673 34.8175 24.6433 34.8747C24.9024 34.058 25.0526 33.1704 25.2057 32.266L25.2057 32.266C25.5428 30.2747 25.8938 28.2017 27.4498 26.6235C29.0972 24.9506 30.2258 22.6134 30.8083 20.3562ZM27.3979 35.7555C26.3324 36.0657 25.2071 36.2355 24.0433 36.2437C23.8877 36.5033 23.709 36.7493 23.5016 36.9791C22.2001 38.4226 20.2706 38.5992 18.4485 38.388C16.0384 38.1095 13.8486 37.1975 12.1376 35.4501C8.55887 31.7986 8.27673 25.8116 8.88107 21.0334C10.0187 12.0411 13.9997 7.90909 23.3087 8.00375H23.3069C25.7242 8.02923 27.9741 8.8247 29.5031 10.7688C30.2253 11.6865 30.7001 12.7487 30.9785 13.8748C31.3648 14.1443 31.7348 14.4354 32.0869 14.7463C32.4164 13.6301 33.449 12.8166 34.671 12.8166C36.16 12.8166 37.365 14.0234 37.365 15.5106C37.365 15.5356 37.3647 15.5604 37.364 15.5852C37.6489 15.5209 37.9454 15.487 38.2497 15.487C40.4614 15.487 42.2543 17.2799 42.2543 19.4916C42.2543 21.7032 40.4614 23.4962 38.2497 23.4962C37.5013 23.4962 36.8008 23.2909 36.2015 22.9335C36.2295 23.2715 36.2437 23.6134 36.2437 23.9585C36.2437 24.6811 36.1813 25.3891 36.0616 26.0775C37.0889 25.8582 38.1297 25.7998 39.1015 25.9845L40.1299 26.1793L40.1955 27.2241L40.1936 27.2223C40.3338 29.474 39.3927 31.9842 38.2132 33.8682C36.2127 37.0628 32.5921 39.8697 28.6985 38.1422L28.2908 37.962L28.0723 37.5743C27.7467 36.9972 27.5185 36.3874 27.3979 35.7555ZM35.7102 27.5504C36.8316 27.2323 37.9245 27.1304 38.8484 27.306C39.1233 31.7129 34.2322 39.1252 29.2446 36.9099C28.9422 36.3739 28.7617 35.835 28.6859 35.3008C32.0389 33.9015 34.639 31.0594 35.7102 27.5504ZM28.7385 33.7985C31.1275 32.6359 33.0299 30.6292 34.0576 28.1666C31.5391 29.33 29.227 31.4424 28.7385 33.7985ZM23.9586 2.6102C35.7486 2.6102 45.3069 12.1685 45.3069 23.9585C45.3069 35.7486 35.7486 45.3069 23.9586 45.3069C12.1685 45.3069 2.6102 35.7486 2.6102 23.9585C2.6102 12.1685 12.1685 2.6102 23.9586 2.6102ZM26.4887 25.6769C30.983 21.1171 32.2135 9.44178 23.2923 9.35076C14.3692 9.25975 11.2238 13.2334 10.2153 21.2027C9.20872 29.1719 11.2438 36.2019 18.6014 37.0501C22.9207 37.5481 23.338 35.1133 23.8554 32.095C24.2194 29.9719 24.6328 27.5599 26.4887 25.6769ZM14.7789 23.3378L19.9777 28.5366C20.2398 28.7987 20.2398 29.2265 19.9777 29.4886C19.7155 29.7507 19.2878 29.7507 19.0257 29.4886L13.8269 24.2898C13.5648 24.0277 13.5648 23.5999 13.8269 23.3378C14.089 23.0757 14.5168 23.0757 14.7789 23.3378ZM21.4102 13.2134L26.609 18.4121C26.8711 18.6742 26.8711 19.102 26.609 19.3641C26.3469 19.6262 25.9191 19.6262 25.657 19.3641L20.4582 14.1654C20.1961 13.9033 20.1961 13.4755 20.4582 13.2134C20.7203 12.9512 21.1481 12.9512 21.4102 13.2134ZM15.8201 15.4359L21.0189 20.6347C21.281 20.8968 21.281 21.3246 21.0189 21.5867C20.7567 21.8488 20.329 21.8488 20.0669 21.5867L14.8681 16.388C14.606 16.1258 14.606 15.6981 14.8681 15.4359C15.1302 15.1738 15.558 15.1738 15.8201 15.4359ZM34.671 14.1636C35.4155 14.1636 36.018 14.7661 36.018 15.5106C36.018 16.2551 35.4155 16.8576 34.671 16.8576C33.9265 16.8576 33.324 16.2551 33.324 15.5106C33.324 14.7661 33.9265 14.1636 34.671 14.1636ZM40.9073 19.4916C40.9073 18.0244 39.7169 16.834 38.2497 16.834C36.7826 16.834 35.5921 18.0244 35.5921 19.4916C35.5921 20.9587 36.7826 22.1492 38.2497 22.1492C39.7169 22.1492 40.9073 20.9587 40.9073 19.4916Z" fill="#7ECA1D"/>
<path fill-rule="evenodd" clip-rule="evenodd" d="M36.0179 15.5123C36.0179 16.2562 35.4148 16.8593 34.6708 16.8593C33.9269 16.8593 33.3238 16.2562 33.3238 15.5123C33.3238 14.7684 33.9269 14.1653 34.6708 14.1653C35.4148 14.1653 36.0179 14.7684 36.0179 15.5123ZM38.2495 22.149C39.7173 22.149 40.9072 20.9591 40.9072 19.4914C40.9072 18.0236 39.7173 16.8338 38.2495 16.8338C36.7818 16.8338 35.5919 18.0236 35.5919 19.4914C35.5919 20.9591 36.7818 22.149 38.2495 22.149ZM38.8504 27.3042C34.4926 26.4759 26.3759 31.8203 29.2465 36.908C34.2341 39.1233 39.1252 31.7111 38.8504 27.3042Z" fill="url(#paint0_linear)"/>
<defs>
<linearGradient id="paint0_linear" x1="28.6459" y1="14.1653" x2="42.7403" y2="15.3413" gradientUnits="userSpaceOnUse">
<stop stop-color="#E3EEFF"/>
<stop offset="0.526042" stop-color="#E4F6E4"/>
<stop offset="1" stop-color="#FFEEE4"/>
</linearGradient>
</defs>
</svg>
