<svg width="80" height="80" viewBox="0 0 80 80" fill="none" xmlns="http://www.w3.org/2000/svg">
<path fill-rule="evenodd" clip-rule="evenodd" d="M48.5832 12.9704C50.2042 11.8616 52.0225 11.1145 54.0382 10.9125C58.6803 10.4567 63.0688 13.3886 64.2387 17.9321C65.2113 21.6956 63.6185 25.2336 60.5738 27.5124C59.8926 28.0198 59.1596 28.4615 58.3843 28.8421C60.1557 29.6925 61.7109 30.8906 62.8949 32.5398C65.6107 36.3315 65.2677 41.5986 61.9129 44.8876C59.1408 47.608 55.2786 47.998 51.7829 46.5039C51.0029 46.1703 50.2512 45.7568 49.537 45.2776C49.6826 47.2368 49.4289 49.182 48.5926 51.0286C46.6662 55.276 41.9348 57.6112 37.4101 56.352C33.6653 55.3089 31.4006 52.1656 30.9449 48.388C30.8415 47.547 30.8274 46.6871 30.8838 45.8273C29.2628 46.9361 27.4445 47.6832 25.4288 47.8852C20.7867 48.341 16.3982 45.4091 15.2283 40.8656C14.2604 37.1021 15.8485 33.5641 18.8931 31.2853C19.5744 30.7779 20.3074 30.3362 21.0827 29.9556C19.3113 29.1052 17.7561 27.9071 16.5721 26.2579C13.8563 22.4662 14.1993 17.1991 17.5541 13.9101C20.3262 11.1897 24.1884 10.7997 27.6841 12.2938C28.4641 12.6274 29.2111 13.0409 29.93 13.5202C29.7843 11.5609 30.0381 9.61568 30.8744 7.76916C32.8008 3.52169 37.5322 1.18651 42.0569 2.44572C45.8017 3.4888 48.0663 6.63212 48.5221 10.4097C48.6255 11.2508 48.6396 12.1106 48.5832 12.9704ZM44.9042 22.6306L44.9136 22.64C44.9747 22.687 45.0311 22.734 45.0922 22.781L45.1063 22.7904C45.2002 22.8656 45.2895 22.9454 45.3835 23.0253C45.7453 23.3448 46.0836 23.6972 46.3843 24.0778L46.389 24.0825C46.4641 24.1764 46.5346 24.2704 46.6051 24.3644L46.6192 24.3832C46.6615 24.4396 46.7038 24.5006 46.7461 24.5617L46.7555 24.5758C46.8212 24.6745 46.887 24.7732 46.9481 24.8718L46.9622 24.8906C46.9998 24.9517 47.0374 25.0081 47.0703 25.0692L47.0844 25.0927C47.1219 25.1584 47.1595 25.2242 47.1971 25.29L47.2018 25.2947L47.2582 25.3981L47.2723 25.4263C47.3005 25.4826 47.3334 25.539 47.3616 25.5954L47.3851 25.6377C47.4179 25.7035 47.4508 25.7692 47.479 25.835V25.8397C47.526 25.9431 47.573 26.0512 47.62 26.1592L47.6388 26.2062C47.6623 26.2673 47.6858 26.3284 47.7093 26.3895L47.7187 26.4129L47.7562 26.521L47.7703 26.5586C47.7891 26.615 47.8126 26.6761 47.8314 26.7324L47.8502 26.7935C47.869 26.8499 47.8878 26.9063 47.9019 26.9627L47.916 27.0097L47.9489 27.1177V27.1224L47.9818 27.2446L48.0053 27.3433L48.0194 27.4043C48.0335 27.4607 48.0476 27.5171 48.0569 27.5688L48.071 27.6252L48.0945 27.7332L48.118 27.8554L48.1321 27.9494L48.1462 28.0292C48.1556 28.0762 48.1603 28.1279 48.1697 28.1749L48.1838 28.2595L48.1932 28.3487V28.3581L48.2073 28.485C48.2402 28.7857 48.2543 29.0911 48.2543 29.3965C48.2543 29.4388 48.2543 29.4764 48.2543 29.5187C48.2496 29.7348 48.2402 29.9462 48.2214 30.1577V30.1671C48.2026 30.3738 48.1744 30.5805 48.1415 30.7873L48.1368 30.8061C48.0898 31.0927 48.0288 31.3746 47.9536 31.6518V31.6565C47.9207 31.774 47.8878 31.8961 47.8502 32.0136V32.0183C47.7609 32.2908 47.6623 32.5586 47.5495 32.817L47.5448 32.8264C47.4649 33.0097 47.3757 33.1882 47.2864 33.3668L47.2817 33.3762C47.1877 33.5547 47.0891 33.7286 46.981 33.8977C46.7649 34.2407 46.5299 34.5696 46.2715 34.875C45.609 35.6644 44.8056 36.3315 43.9034 36.8343L43.8471 36.8672L43.7437 36.9236L43.7343 36.9283L43.6779 36.9612L43.5792 37.0128L43.5041 37.0504L43.3913 37.1021L43.3819 37.1068L43.3208 37.135L43.3114 37.1397L43.2034 37.1914H43.1987L43.1376 37.2196L43.1282 37.2243L43.0295 37.2666L42.9215 37.3088L42.8369 37.3417L42.7241 37.384L42.6395 37.4169C42.5972 37.431 42.555 37.4451 42.5127 37.4592L42.4516 37.478C42.4046 37.4921 42.3576 37.5109 42.3106 37.525L42.259 37.5438C42.212 37.5579 42.1603 37.572 42.1133 37.5861L42.0663 37.6002C42.0146 37.6142 41.9583 37.6283 41.9066 37.6424L41.8737 37.6518C41.8173 37.6659 41.7609 37.68 41.7045 37.6941L41.6575 37.7035C41.6059 37.7176 41.5495 37.727 41.4978 37.7364L41.4461 37.7458C41.3897 37.7552 41.3333 37.7693 41.277 37.7787L41.2488 37.7834C41.1877 37.7928 41.1313 37.8022 41.0702 37.8116L41.0373 37.8163C40.9763 37.8257 40.9152 37.8351 40.8494 37.8445L40.8306 37.8492C40.7648 37.8586 40.7037 37.8633 40.638 37.8727L40.6145 37.8774C40.5487 37.8821 40.4829 37.8915 40.4171 37.8962H40.4077C40.3373 37.9009 40.2668 37.9056 40.1963 37.9103H40.1916C40.0459 37.9196 39.9003 37.9197 39.7546 37.9197C39.6842 37.9197 39.609 37.9197 39.5385 37.915H39.5338H39.5244C39.4539 37.915 39.3882 37.9103 39.3224 37.9056H39.313C39.2425 37.9009 39.1767 37.8962 39.1062 37.8915H39.0968C39.0311 37.8868 38.9606 37.8821 38.8948 37.8727H38.8713C38.8055 37.868 38.7445 37.8586 38.6787 37.8492H38.6693H38.6599C38.5988 37.8398 38.5377 37.8351 38.4766 37.8257L38.4343 37.821C38.378 37.8116 38.3169 37.8022 38.2605 37.7928L38.2276 37.7881C38.1759 37.7787 38.1242 37.7693 38.0679 37.7599L38.0021 37.7458C37.9551 37.7364 37.9034 37.727 37.8564 37.7129L37.8 37.6988C37.7531 37.6894 37.7014 37.6753 37.6544 37.6612L37.5886 37.6471L37.4571 37.6095L37.3819 37.5861L37.2644 37.5485L37.1798 37.5203L37.0671 37.4827L36.9684 37.4498L36.959 37.4451L36.9073 37.4263L36.8932 37.4216C36.8462 37.4075 36.7993 37.3887 36.757 37.3699H36.7523L36.7006 37.3511L36.6818 37.3464L36.5596 37.2994L36.5455 37.2947L36.4939 37.276L36.4845 37.2713L36.3576 37.2196L36.3435 37.2149L36.2918 37.1914C35.9723 37.0504 35.6669 36.8907 35.3709 36.7168L35.2722 36.6557L35.2581 36.6464C35.1971 36.6088 35.1407 36.5712 35.0796 36.5336L35.0514 36.5148C34.9903 36.4725 34.9292 36.4349 34.8682 36.3926L34.8588 36.3879L34.7648 36.3222L34.746 36.3081C34.6896 36.2658 34.6332 36.2282 34.5816 36.1859L34.5534 36.1624C34.5017 36.1248 34.45 36.0825 34.403 36.0449L34.3701 36.0167C34.2808 35.9463 34.1963 35.8711 34.107 35.7959L34.0882 35.7771C34.0365 35.7301 33.9848 35.6879 33.9379 35.6409L33.9144 35.6174C33.8298 35.5375 33.7452 35.4576 33.6653 35.373L33.6512 35.3589C33.5996 35.3073 33.5526 35.2556 33.5009 35.2039L33.4821 35.1851L33.4069 35.1005L33.327 35.0113L33.2566 34.9314L33.2237 34.8938C33.1861 34.8515 33.1532 34.8092 33.1156 34.7669L33.078 34.72L33.0169 34.6401L32.9418 34.5414L32.8713 34.4474L32.8572 34.4286C32.8196 34.3723 32.7773 34.3206 32.7397 34.2642L32.7162 34.2313C32.6739 34.1702 32.6317 34.1091 32.5941 34.0481L32.5894 34.0434L32.5283 33.9494L32.5001 33.9071C32.4672 33.8554 32.4343 33.799 32.4014 33.7474L32.3873 33.7239C32.3497 33.6581 32.3122 33.5923 32.2746 33.5265L32.2699 33.5218L32.2182 33.4232L32.1947 33.3762C32.1665 33.3245 32.1383 33.2728 32.1148 33.2164L32.0913 33.1741C32.0678 33.1224 32.0396 33.0708 32.0162 33.0191L31.9927 32.9674L31.9504 32.8687L31.9316 32.8311C31.9081 32.7748 31.8799 32.7137 31.8564 32.6573L31.8376 32.6103C31.8141 32.5492 31.7906 32.4881 31.7671 32.4271L31.7577 32.4036L31.7201 32.2955L31.706 32.2579C31.6873 32.2015 31.6638 32.1405 31.645 32.0841L31.6262 32.023C31.6121 31.976 31.598 31.929 31.5792 31.8773L31.5557 31.8022L31.5275 31.7082V31.7035L31.4946 31.5813L31.4711 31.4827L31.457 31.4216C31.4429 31.3652 31.4288 31.3088 31.4194 31.2571L31.4053 31.2008L31.3818 31.0927L31.3584 30.9705L31.3443 30.8765L31.3302 30.7967C31.3208 30.7497 31.3161 30.698 31.3067 30.651L31.2926 30.5664L31.2832 30.4772V30.4678L31.2691 30.3409C31.2362 30.0402 31.2221 29.7348 31.2221 29.4294C31.2221 29.3871 31.2221 29.3495 31.2221 29.3072C31.2268 29.0911 31.2362 28.8797 31.255 28.6682V28.6588C31.2738 28.4521 31.302 28.2454 31.3349 28.0386L31.3396 28.0198C31.3725 27.8178 31.4147 27.6158 31.4617 27.4137V27.409C31.4805 27.3339 31.4993 27.254 31.5228 27.1788L31.5275 27.1647C31.5604 27.0472 31.5933 26.9298 31.6309 26.817L31.6356 26.8029C31.9128 25.9431 32.3263 25.1396 32.8478 24.4255C33.3693 23.7066 33.9989 23.0723 34.7178 22.5461H34.7225C34.9997 22.344 35.291 22.1561 35.5917 21.9869L35.5964 21.9822C35.6481 21.954 35.6998 21.9258 35.7515 21.8977L35.8079 21.8695C35.8455 21.8507 35.8877 21.8272 35.9253 21.8084L35.9441 21.799L36.0052 21.7708H36.0099L36.1086 21.7238L36.1931 21.6862L36.3012 21.6392L36.3106 21.6345L36.3717 21.6063L36.3858 21.6016L36.4845 21.5594L36.5878 21.5171L36.6724 21.4842L36.7805 21.4419L36.8603 21.4137L36.9825 21.3714L37.053 21.3479C37.1 21.3338 37.147 21.3197 37.1939 21.3009L37.2456 21.2868C37.2973 21.2727 37.349 21.254 37.4007 21.2399L37.4383 21.2305C37.4946 21.2164 37.551 21.1976 37.6074 21.1835L37.6356 21.1788C37.692 21.1647 37.7531 21.1506 37.8094 21.1365L37.847 21.1271C37.9034 21.113 37.9598 21.1036 38.0162 21.0895L38.0585 21.0801C38.1148 21.066 38.1759 21.0566 38.2323 21.0472L38.2558 21.0425C38.3169 21.0331 38.378 21.0237 38.439 21.0143L38.4672 21.0096C38.5283 21.0002 38.5941 20.9908 38.6552 20.9814L38.674 20.9767C38.7398 20.9673 38.8055 20.9626 38.8666 20.9532H38.8901C38.9559 20.9485 39.0217 20.9392 39.0921 20.9345H39.0968C39.1673 20.9298 39.2378 20.9251 39.3083 20.9204H39.313C39.4586 20.911 39.6043 20.911 39.7499 20.911C39.8204 20.911 39.8956 20.911 39.9661 20.9157H39.9755C40.1164 20.9204 40.2574 20.9251 40.3983 20.9392H40.4077C40.4735 20.9439 40.544 20.9485 40.6098 20.9579H40.6239C40.6896 20.9626 40.7554 20.972 40.8212 20.9814H40.8306H40.84C40.9058 20.9908 40.9716 21.0002 41.0373 21.0096H41.0467H41.0561C41.1219 21.019 41.183 21.0284 41.2488 21.0425H41.2582H41.2676C41.3286 21.0519 41.385 21.066 41.4461 21.0754L41.4884 21.0848C41.5448 21.0989 41.6012 21.1083 41.6575 21.1224L41.7045 21.1318C41.7562 21.1459 41.8126 21.1553 41.8643 21.1694L41.9066 21.1788C41.9583 21.1929 42.0052 21.207 42.0569 21.2211L42.1133 21.2352C42.1603 21.2493 42.2073 21.2633 42.2496 21.2774L42.3153 21.2962C42.3576 21.3103 42.4046 21.3244 42.4469 21.3385L42.5362 21.3714L42.6207 21.3996L42.7288 21.4372L42.8228 21.4748L42.9262 21.5171L43.0013 21.5453C43.0483 21.5641 43.0906 21.5829 43.1376 21.6016L43.1423 21.6063L43.194 21.6298C43.8095 21.9024 44.3874 22.2453 44.9183 22.6494L44.9042 22.6306ZM45.4117 19.929C57.2943 2.23899 73.0344 25.8397 50.7257 28.3112C50.3733 24.7497 48.3342 21.6815 45.4117 19.929ZM50.7774 29.5845C72.043 31.0316 59.4697 56.4648 46.1775 38.3801C48.9215 36.4067 50.721 33.207 50.7774 29.5845ZM45.1016 39.0614C54.4798 58.1985 26.1712 60.031 35.183 39.4749C36.569 40.1045 38.1102 40.4522 39.7358 40.4522C41.6857 40.4522 43.5135 39.9447 45.1063 39.0614H45.1016ZM34.0553 38.8829C22.1727 56.5728 6.42793 32.9721 28.7413 30.5007C29.0937 34.0622 31.1328 37.1303 34.0553 38.8829ZM28.6896 29.2274C7.42402 27.7802 19.9973 2.34705 33.2895 20.4317C30.5455 22.4051 28.746 25.6048 28.6896 29.2274ZM34.3654 19.7504C24.9871 0.613293 53.2958 -1.21914 44.284 19.337C42.898 18.7073 41.3568 18.3597 39.7358 18.3597C37.786 18.3597 35.9582 18.8671 34.3654 19.7504Z" fill="#768668"/>
<path fill-rule="evenodd" clip-rule="evenodd" d="M39.7358 67.563C41.4884 64.2364 44.0867 61.5301 47.8079 59.3922C49.9786 58.1424 52.2668 57.2215 54.555 56.2207C56.3921 55.422 58.3326 54.5292 59.9066 53.2747C60.804 52.5606 61.5558 51.7383 62.1525 50.7563C62.7586 49.7555 63.9286 49.3045 65.0515 49.6475C66.1698 49.9905 66.8933 51.0147 66.837 52.1847C66.5175 58.8096 64.8683 65.0587 58.9387 68.7611C53.3569 72.2474 46.699 72.2333 41.8079 77.1715C41.5823 77.4816 41.2816 77.74 40.9198 77.9279C40.5393 78.1253 40.1352 78.2239 39.7358 78.2192C39.3364 78.2192 38.9324 78.1253 38.5518 77.9279C38.19 77.74 37.8893 77.4769 37.6638 77.1715C32.7726 72.2286 26.1148 72.2474 20.5329 68.7611C14.5987 65.054 12.9495 58.8096 12.6347 52.1847C12.5783 51.0147 13.3019 49.9905 14.4201 49.6475C15.5384 49.3045 16.713 49.7508 17.3191 50.7563C17.9158 51.7383 18.6676 52.5606 19.565 53.2747C21.139 54.5339 23.0795 55.422 24.9166 56.2207C27.2048 57.2168 29.493 58.1424 31.6637 59.3922C35.385 61.5347 37.9833 64.2364 39.7358 67.563ZM39.7499 75.6914L39.7452 75.6679C49.0013 65.9138 63.3272 72.5716 64.3138 52.0625C58.6192 61.4737 42.9731 57.339 39.7358 75.6163C36.4985 57.339 20.8524 61.469 15.1578 52.0625C16.1445 72.5716 30.4703 65.9138 39.7264 75.6679L39.7217 75.6914L39.7358 75.6773L39.7499 75.6914Z" fill="#768668"/>
<path fill-rule="evenodd" clip-rule="evenodd" d="M39.7498 75.6914L39.7451 75.6679C49.0013 65.9138 63.3271 72.5716 64.3138 52.0625C58.6192 61.4737 42.973 57.339 39.7357 75.6163C36.4985 57.339 20.8523 61.469 15.1577 52.0625C16.1444 72.5716 30.4702 65.9138 39.7264 75.6679L39.7217 75.6914L39.7357 75.6773L39.7498 75.6914Z" fill="url(#paint0_linear)"/>
<defs>
<linearGradient id="paint0_linear" x1="15.1577" y1="52.0625" x2="66.5395" y2="68.8989" gradientUnits="userSpaceOnUse">
<stop stop-color="#E3EEFF"/>
<stop offset="0.526042" stop-color="#E4F6E4"/>
<stop offset="1" stop-color="#FFEEE4"/>
</linearGradient>
</defs>
</svg>
