<svg width="80" height="80" viewBox="0 0 80 80" fill="none" xmlns="http://www.w3.org/2000/svg">
<path fill-rule="evenodd" clip-rule="evenodd" d="M44.7424 55.8699C45.5863 54.3695 45.8051 52.6348 45.3362 50.9626C44.8674 49.306 43.789 47.9307 42.2887 47.0712C40.8509 46.2585 39.21 46.0397 37.6159 46.4148L34.3965 34.8499C33.5526 31.8024 30.38 30.0208 27.3325 30.8647L22.816 32.1306L17.7993 33.5684L15.1738 34.3029C13.0483 34.8655 11.6418 36.7253 11.5168 38.7726C10.7197 38.7569 9.68825 38.8195 8.62553 39.1164L7.68784 39.3821C4.64033 40.226 2.85871 43.3985 3.70264 46.446L6.15627 55.2135C2.87434 56.2606 0.967697 59.7457 1.90539 63.0901C2.70243 65.9344 5.29672 67.8098 8.12543 67.8098C8.62553 67.8098 9.12563 67.7473 9.62574 67.6223L9.75076 68.0599C11.7668 75.2645 18.3463 79.9998 25.4884 79.9998C26.9418 79.9998 28.4109 79.8123 29.8643 79.3903C38.538 76.968 43.6328 67.9505 41.2104 59.2768L41.0854 58.8392C42.6482 58.3547 43.9297 57.3077 44.7424 55.8699ZM27.9576 33.1152L23.4411 34.381L18.4244 35.8188L15.7989 36.5534C14.408 36.9441 13.5953 38.3819 13.986 39.7728C14.0954 40.1635 13.986 40.5854 13.7047 40.8824C13.4234 41.1793 13.0171 41.3043 12.6107 41.2262C12.5951 41.2262 10.9698 40.9136 9.28191 41.3825L8.34422 41.6482C6.53135 42.1483 5.48426 44.0237 5.98436 45.8209L7.34401 50.7282L11.548 49.5561C13.9391 48.884 16.4865 49.3998 18.5338 50.9626C20.378 52.3691 22.7066 52.8224 24.9414 52.1972L35.928 49.0872L32.1304 35.475C31.6303 33.6621 29.7549 32.615 27.9576 33.1152ZM6.79703 57.4796C4.74973 58.1828 3.57761 60.3552 4.17148 62.465C4.74973 64.5592 6.8908 65.825 9.00061 65.3718L6.79703 57.4796ZM12.0169 67.4347C14.0798 74.8738 21.8158 79.2341 29.2392 77.1555C36.6626 75.077 41.0229 67.3566 38.9756 59.9332L36.5844 51.3846L25.5822 54.4477C24.707 54.6821 23.8318 54.8071 22.9566 54.8071C20.8624 54.8071 18.8308 54.1351 17.1117 52.8224C15.6426 51.7127 13.8454 51.3377 12.1731 51.8065L7.96914 52.9786L12.0169 67.4347ZM40.4446 56.5888C41.3979 56.2762 42.195 55.6198 42.6951 54.729C43.2421 53.7757 43.3671 52.6661 43.0701 51.6034C42.7732 50.5563 42.0856 49.6654 41.1322 49.1341C40.2414 48.634 39.2256 48.4777 38.241 48.6965L40.4446 56.5888Z" fill="#7ECA1D"/>
<path d="M23.4411 34.381L27.9576 33.1152C29.7549 32.615 31.6303 33.6621 32.1304 35.475L35.928 49.0872L24.9414 52.1972C22.7066 52.8224 20.378 52.3691 18.5338 50.9626C16.4865 49.3998 13.9391 48.884 11.548 49.5561L7.34401 50.7282L5.98436 45.8209C5.48425 44.0237 6.53135 42.1483 8.34422 41.6482L9.28191 41.3825C10.9698 40.9136 12.5951 41.2262 12.6107 41.2262C13.0171 41.3043 13.4234 41.1793 13.7047 40.8824C13.986 40.5854 14.0954 40.1635 13.986 39.7728C13.5953 38.3819 14.408 36.9441 15.7989 36.5534L18.4244 35.8188L23.4411 34.381Z" fill="url(#paint0_linear)"/>
<path d="M4.17148 62.465C3.57761 60.3552 4.74973 58.1828 6.79703 57.4796L9.00061 65.3718C6.89079 65.825 4.74973 64.5592 4.17148 62.465Z" fill="url(#paint1_linear)"/>
<path d="M42.6951 54.729C42.195 55.6198 41.3979 56.2762 40.4446 56.5888L38.241 48.6965C39.2256 48.4777 40.2414 48.634 41.1322 49.1341C42.0856 49.6654 42.7732 50.5563 43.0701 51.6034C43.3671 52.6661 43.2421 53.7757 42.6951 54.729Z" fill="url(#paint2_linear)"/>
<path d="M32.7247 62.1214L22.285 65.0283C21.9881 65.1064 21.738 65.3096 21.5817 65.5753C21.4254 65.8409 21.3942 66.1691 21.4723 66.4661C22.285 69.3729 24.9418 71.2796 27.8174 71.2796C28.3956 71.2796 28.9895 71.2014 29.5834 71.0295C31.2712 70.5607 32.6934 69.4511 33.5529 67.9195C34.4125 66.3879 34.6313 64.6063 34.1624 62.9185C33.9905 62.309 33.3498 61.9495 32.7247 62.1214ZM31.5213 66.7786C30.9587 67.7632 30.0522 68.4821 28.9583 68.779C27.0985 69.2948 25.1762 68.4821 24.2073 66.9193L32.0683 64.7313C32.0526 65.4502 31.8807 66.1535 31.5213 66.7786Z" fill="#7ECA1D"/>
<path d="M22.3631 60.965C21.863 59.199 20.0345 58.1519 18.2529 58.652C16.4869 59.1521 15.4398 60.9806 15.9399 62.7623C16.0806 63.278 16.5494 63.6218 17.0652 63.6218C17.1746 63.6218 17.2683 63.6062 17.3777 63.5749C18.0029 63.403 18.3623 62.7623 18.1904 62.1371C18.0497 61.6058 18.3467 61.0744 18.878 60.9181C19.4094 60.7775 19.9408 61.0744 20.097 61.6058C20.2689 62.2309 20.9253 62.5903 21.5348 62.4184C22.1756 62.2465 22.535 61.5901 22.3631 60.965Z" fill="#7ECA1D"/>
<path d="M31.9897 54.8231C30.2237 55.3232 29.1766 57.1517 29.6767 58.9334C29.8174 59.4491 30.2862 59.7929 30.802 59.7929C30.9114 59.7929 31.0051 59.7773 31.1145 59.746C31.7397 59.5741 32.0991 58.9334 31.9272 58.3082C31.7866 57.7769 32.0835 57.2455 32.6148 57.0892C33.1462 56.9486 33.6776 57.2455 33.8339 57.7769C34.0058 58.402 34.6621 58.7614 35.2716 58.5895C35.8968 58.4176 36.2562 57.7612 36.0843 57.1517C35.5998 55.3701 33.7713 54.3387 31.9897 54.8231Z" fill="#7ECA1D"/>
<path fill-rule="evenodd" clip-rule="evenodd" d="M73.4517 22.2535C73.3579 22.2223 73.2641 22.2066 73.1704 22.1754C73.2173 19.4092 72.5296 16.6586 71.1387 14.1893C69.0602 10.4698 65.6532 7.76614 61.5586 6.60965C57.5578 5.46879 53.3382 5.92201 49.6811 7.89117C47.1025 9.26645 44.9771 11.2981 43.508 13.7674C43.4142 13.7361 43.3205 13.7049 43.2267 13.6892C39.8666 12.7359 36.3659 14.6894 35.4126 18.0495C34.4905 21.3158 36.319 24.7228 39.5228 25.7855L39.4134 26.1918C38.2413 30.2864 38.757 34.5998 40.8199 38.3193C42.8985 42.0388 46.3054 44.7425 50.4 45.899C51.8222 46.3054 53.2913 46.5085 54.7759 46.5085C56.0106 46.5085 57.2921 46.3835 58.433 46.0866C59.5738 45.7896 62.2262 44.7922 63.6059 43.8517C66.7784 41.7575 69.0914 38.5694 70.1385 34.9124L70.2479 34.506C70.7324 34.6311 71.2325 34.6779 71.7169 34.6779C74.4675 34.6779 77.0149 32.8651 77.7963 30.0833C78.7497 26.7076 76.7961 23.2068 73.4517 22.2535ZM51.0564 43.6486C53.2913 44.2737 55.6511 44.3362 57.9016 43.8048C58.459 43.7736 60.1208 43.3485 62.3088 41.8982C65.0124 40.1009 66.9816 37.3973 67.8724 34.2716L70.3104 25.7073C70.9355 23.4881 70.9981 21.1752 70.4979 18.9872C70.2166 19.1747 69.9353 19.3467 69.654 19.5029C67.2473 20.847 64.5905 21.5346 61.9024 21.5346C60.4334 21.5346 58.9643 21.3314 57.5109 20.9251C53.1037 19.6749 49.4467 16.5492 47.4776 12.4546C46.0554 13.908 44.9302 15.7053 44.2582 17.7682L42.836 22.7692L41.6795 26.8326C40.6793 30.3177 41.1169 34.0059 42.8829 37.1785C44.6489 40.351 47.5557 42.6483 51.0564 43.6486ZM40.1792 23.5194L40.5699 22.1285L42.0233 17.0337C42.0233 17.0337 42.289 16.2835 42.4453 15.9085C40.3824 15.4083 38.2569 16.6273 37.6787 18.6903C37.3974 19.7061 37.5224 20.7845 38.0381 21.7065C38.507 22.5661 39.2727 23.1912 40.1792 23.5194ZM58.1673 18.6434C61.668 19.6436 65.3406 19.206 68.5132 17.44C68.9351 17.19 69.3415 16.9399 69.7634 16.6586C69.5759 16.221 69.3571 15.7678 69.1227 15.3458C67.3567 12.1733 64.4498 9.87595 60.9491 8.87575C56.8076 7.70363 52.6036 8.54756 49.353 10.8449C50.947 14.6269 54.2133 17.5182 58.1673 18.6434ZM73.6549 31.818C74.5925 31.3023 75.2489 30.4427 75.5459 29.4269C76.1241 27.3639 74.9676 25.2229 72.9516 24.5821C72.8578 25.176 72.7328 25.7699 72.5609 26.3481L70.8887 32.2399C71.8263 32.4431 72.7953 32.2868 73.6549 31.818Z" fill="#7ECA1D"/>
<path fill-rule="evenodd" clip-rule="evenodd" d="M40.1795 23.5192L40.5702 22.1283L42.0236 17.0335C42.0236 17.0335 42.2893 16.2833 42.4456 15.9083C40.3826 15.4082 38.2572 16.6272 37.6789 18.6901C37.3976 19.7059 37.5227 20.7843 38.0384 21.7063C38.5072 22.5659 39.273 23.191 40.1795 23.5192ZM58.1675 18.6432C61.6683 19.6434 65.3409 19.2058 68.5134 17.4398C68.9354 17.1898 69.3417 16.9397 69.7637 16.6584C69.5762 16.2208 69.3574 15.7676 69.1229 15.3457C67.3569 12.1731 64.4501 9.87577 60.9494 8.87557C56.8079 7.70345 52.6039 8.54737 49.3532 10.8447C50.9473 14.6268 54.2136 17.518 58.1675 18.6432ZM73.6551 31.8178C74.5928 31.3021 75.2492 30.4425 75.5461 29.4267C76.1244 27.3638 74.9679 25.2227 72.9519 24.5819C72.8581 25.1758 72.7331 25.7697 72.5611 26.3479L70.8889 32.2398C71.8266 32.4429 72.7956 32.2867 73.6551 31.8178Z" fill="url(#paint3_linear)"/>
<path d="M51.3848 38.0381C51.9787 38.21 52.5569 38.2881 53.1508 38.2881C55.9639 38.2881 58.5582 36.4284 59.3708 33.5997C59.5427 32.9745 59.1833 32.3338 58.5582 32.1462L48.3842 29.255C47.759 29.0831 47.1183 29.4425 46.9308 30.0677C46.4619 31.7243 46.6651 33.4746 47.509 34.9749C48.3529 36.4753 49.7282 37.5692 51.3848 38.0381ZM56.6203 34.0216C55.6669 35.5219 53.8072 36.2877 52.0256 35.772C50.9628 35.475 50.0877 34.7718 49.5563 33.8185C49.2125 33.209 49.0406 32.5369 49.0406 31.8649L56.6203 34.0216Z" fill="#7ECA1D"/>
<path d="M49.353 26.4421C49.4624 26.4734 49.5718 26.489 49.6812 26.489C50.1969 26.489 50.6658 26.1452 50.8064 25.6294C51.3065 23.8947 50.2907 22.0662 48.5403 21.5817C47.6964 21.3473 46.8056 21.4411 46.0398 21.8787C45.274 22.3006 44.727 23.0039 44.477 23.8478C44.3051 24.473 44.6645 25.1137 45.2897 25.3012C45.9148 25.4732 46.5556 25.1137 46.7431 24.4886C46.8056 24.2542 46.9619 24.051 47.1807 23.926C47.3995 23.8009 47.6495 23.7697 47.884 23.8478C48.3841 23.9885 48.6654 24.5042 48.5247 25.0043C48.3684 25.6138 48.7279 26.2702 49.353 26.4421Z" fill="#7ECA1D"/>
<path d="M62.7304 30.2398C62.8398 30.2711 62.9492 30.2867 63.0586 30.2867C63.5744 30.2867 64.0432 29.9429 64.1839 29.4272C64.684 27.6924 63.6681 25.8639 61.9178 25.3795C61.0739 25.145 60.183 25.2388 59.4173 25.6764C58.6515 26.0984 58.1045 26.8016 57.8544 27.6456C57.6825 28.2707 58.042 28.9114 58.6671 29.099C59.2922 29.2709 59.933 28.9114 60.1205 28.2863C60.183 28.0519 60.3393 27.8487 60.5581 27.7237C60.7769 27.5987 61.027 27.5674 61.2614 27.6456C61.7615 27.7862 62.0428 28.3019 61.9021 28.802C61.7459 29.4115 62.1053 30.0679 62.7304 30.2398Z" fill="#7ECA1D"/>
<path d="M15.5335 15.5647L23.9102 19.3312C24.2384 19.4718 24.5822 19.5499 24.9261 19.5499C25.77 19.5499 26.5827 19.128 27.0515 18.3778L28.0673 16.7369C28.7237 15.6741 28.5049 14.2832 27.536 13.4862L20.4564 7.62561C19.8938 7.17239 19.1749 6.96922 18.456 7.07862C17.7371 7.18802 17.112 7.60998 16.7369 8.21948L14.4239 11.9546C14.0488 12.5641 13.9394 13.3143 14.1582 14.0019C14.377 14.7052 14.8771 15.2678 15.5335 15.5647ZM16.4243 13.2049L18.7529 9.46974C18.7842 9.42286 18.8154 9.40723 18.8623 9.3916C18.8779 9.3916 18.8779 9.3916 18.8936 9.3916C18.9248 9.3916 18.9561 9.40723 18.9873 9.42286L26.0513 15.2991C26.1138 15.346 26.1294 15.4397 26.0826 15.5022L25.0667 17.1432C25.0198 17.2057 24.9417 17.237 24.8792 17.2057L16.4868 13.4237C16.4399 13.4081 16.4087 13.3768 16.4087 13.3299C16.3931 13.283 16.3931 13.2361 16.4243 13.2049Z" fill="#7ECA1D"/>
<path d="M15.2989 28.3332L24.4726 29.0052C24.5351 29.0052 24.5977 29.0052 24.6602 29.0052C25.8323 29.0052 26.8637 28.1769 27.0982 27.0204L27.4889 25.1294C27.7389 23.9104 27.0513 22.6758 25.8792 22.2538L17.2211 19.1594C16.5491 18.9094 15.799 18.9875 15.1582 19.3313C14.5331 19.6908 14.0799 20.2847 13.9392 20.9879L13.0328 25.2857C12.8765 25.989 13.0484 26.7235 13.486 27.3017C13.9236 27.9269 14.58 28.2863 15.2989 28.3332ZM15.3301 25.8171L16.2366 21.5193C16.2522 21.4724 16.2678 21.4411 16.3147 21.4099C16.3459 21.3943 16.3616 21.3943 16.3928 21.3943C16.4085 21.3943 16.4241 21.3943 16.4397 21.4099L25.0978 24.5043C25.1759 24.5355 25.2072 24.6137 25.1915 24.6762L24.8008 26.5672C24.7852 26.6453 24.7227 26.6922 24.6445 26.6922L15.4708 26.0202C15.4239 26.0202 15.3926 25.989 15.3614 25.9577C15.3301 25.8952 15.3145 25.8483 15.3301 25.8171Z" fill="#7ECA1D"/>
<path d="M30.8175 13.4081C31.3019 13.877 31.9271 14.1114 32.5678 14.1114C33.1148 14.1114 33.6618 13.9395 34.0994 13.5801L35.6153 12.3923C36.5999 11.6265 36.8656 10.2356 36.2248 9.15727L31.5832 1.23376C31.2238 0.608626 30.5987 0.171036 29.8954 0.0460101C29.1921 -0.0946439 28.4576 0.0928949 27.895 0.530485L24.4411 3.23417C23.8785 3.67176 23.5191 4.34377 23.4878 5.06267C23.4566 5.78157 23.7222 6.48484 24.238 6.98494L30.8175 13.4081ZM25.8789 5.0783L29.3328 2.37462C29.364 2.35899 29.3953 2.34336 29.4266 2.34336C29.4422 2.34336 29.4422 2.34336 29.4578 2.34336C29.5047 2.35899 29.536 2.37462 29.5672 2.4215L34.2088 10.345C34.2557 10.4075 34.2244 10.5013 34.1775 10.5482L32.6616 11.7359C32.5991 11.7828 32.5209 11.7828 32.4584 11.7203L25.8633 5.31272C25.8321 5.28147 25.8164 5.23458 25.8164 5.1877C25.8164 5.15644 25.8321 5.10956 25.8789 5.0783Z" fill="#7ECA1D"/>
<path d="M16.4243 13.205L18.7529 9.4698C18.7842 9.42292 18.8154 9.40729 18.8623 9.39166C18.878 9.39166 18.878 9.39166 18.8936 9.39166C18.9248 9.39166 18.9561 9.40729 18.9874 9.42292L26.0513 15.2991C26.1138 15.346 26.1295 15.4398 26.0826 15.5023L25.0667 17.1433C25.0199 17.2058 24.9417 17.237 24.8792 17.2058L16.4868 13.4237C16.44 13.4081 16.4087 13.3769 16.4087 13.33C16.3931 13.2831 16.3931 13.2362 16.4243 13.205Z" fill="url(#paint4_linear)"/>
<path d="M15.3303 25.817L16.2368 21.5192C16.2524 21.4723 16.268 21.4411 16.3149 21.4098C16.3462 21.3942 16.3618 21.3942 16.3931 21.3942C16.4087 21.3942 16.4243 21.3942 16.44 21.4098L25.098 24.5042C25.1761 24.5354 25.2074 24.6136 25.1918 24.6761L24.8011 26.5671C24.7854 26.6453 24.7229 26.6921 24.6448 26.6921L15.471 26.0201C15.4241 26.0201 15.3929 25.9889 15.3616 25.9576C15.3303 25.8951 15.3147 25.8482 15.3303 25.817Z" fill="url(#paint5_linear)"/>
<path d="M25.8789 5.0783L29.3328 2.37462C29.364 2.35899 29.3953 2.34336 29.4266 2.34336H29.4578C29.5047 2.35899 29.5359 2.37462 29.5672 2.4215L34.2088 10.345C34.2557 10.4075 34.2244 10.5013 34.1775 10.5482L32.6616 11.7359C32.5991 11.7828 32.5209 11.7828 32.4584 11.7203L25.8633 5.31272C25.8321 5.28147 25.8164 5.23458 25.8164 5.1877C25.8164 5.15644 25.8321 5.10956 25.8789 5.0783Z" fill="url(#paint6_linear)"/>
<defs>
<linearGradient id="paint0_linear" x1="1.6665" y1="30.6552" x2="51.5157" y2="37.6425" gradientUnits="userSpaceOnUse">
<stop stop-color="#E3EEFF"/>
<stop offset="0.526042" stop-color="#E4F6E4"/>
<stop offset="1" stop-color="#FFEEE4"/>
</linearGradient>
<linearGradient id="paint1_linear" x1="1.6665" y1="30.6552" x2="51.5157" y2="37.6425" gradientUnits="userSpaceOnUse">
<stop stop-color="#E3EEFF"/>
<stop offset="0.526042" stop-color="#E4F6E4"/>
<stop offset="1" stop-color="#FFEEE4"/>
</linearGradient>
<linearGradient id="paint2_linear" x1="1.6665" y1="30.6552" x2="51.5157" y2="37.6425" gradientUnits="userSpaceOnUse">
<stop stop-color="#E3EEFF"/>
<stop offset="0.526042" stop-color="#E4F6E4"/>
<stop offset="1" stop-color="#FFEEE4"/>
</linearGradient>
<linearGradient id="paint3_linear" x1="37.5322" y1="8.34973" x2="79.0939" y2="18.7691" gradientUnits="userSpaceOnUse">
<stop stop-color="#E3EEFF"/>
<stop offset="0.526042" stop-color="#E4F6E4"/>
<stop offset="1" stop-color="#FFEEE4"/>
</linearGradient>
<linearGradient id="paint4_linear" x1="16.3984" y1="9.39166" x2="27.2259" y2="11.5079" gradientUnits="userSpaceOnUse">
<stop stop-color="#E3EEFF"/>
<stop offset="0.526042" stop-color="#E4F6E4"/>
<stop offset="1" stop-color="#FFEEE4"/>
</linearGradient>
<linearGradient id="paint5_linear" x1="15.3242" y1="21.3942" x2="25.8444" y2="24.4816" gradientUnits="userSpaceOnUse">
<stop stop-color="#E3EEFF"/>
<stop offset="0.526042" stop-color="#E4F6E4"/>
<stop offset="1" stop-color="#FFEEE4"/>
</linearGradient>
<linearGradient id="paint6_linear" x1="23.4854" y1="0" x2="38.3182" y2="2.16688" gradientUnits="userSpaceOnUse">
<stop stop-color="#E3EEFF"/>
<stop offset="0.526042" stop-color="#E4F6E4"/>
<stop offset="1" stop-color="#FFEEE4"/>
</linearGradient>
</defs>
</svg>
