<svg width="70" height="70" viewBox="0 0 70 70" fill="none" xmlns="http://www.w3.org/2000/svg">
<path d="M70 25.7945C70 14.9589 61.1781 6.13699 50.3425 6.13699C50.1123 6.13699 49.9014 6.15616 49.6712 6.15616C49.5753 6.15616 49.4986 6.17534 49.4027 6.17534H49.2685L49.1726 6.07945C45.4329 2.16712 40.389 0 35 0C29.611 0 24.5671 2.16712 20.8082 6.07945L20.7123 6.17534H20.5781C20.4822 6.17534 20.4055 6.17534 20.3096 6.15616C20.0986 6.13699 19.8685 6.13699 19.6384 6.13699C8.82192 6.13699 0 14.9589 0 25.7945C0 33.7342 4.75616 40.8685 12.1014 43.937L12.274 44.0137V68.7534C12.274 69.4438 12.8301 70 13.5205 70H56.4795C56.8055 70 57.1315 69.8658 57.3616 69.6356C57.5918 69.4055 57.726 69.0795 57.726 68.7534V44.0137L57.8986 43.937C65.2438 40.8685 70 33.7342 70 25.7945ZM14.7671 67.5069V57.751H55.2329V67.5069H14.7671ZM50.3425 42.9589C49.6521 42.9589 49.0959 43.5151 49.0959 44.2055C49.0959 44.8959 49.6521 45.4521 50.3425 45.4521C51.8192 45.4521 53.3343 45.2603 54.8685 44.8959L55.2137 44.8192V55.2579H14.7671V44.8192L15.1123 44.8959C16.6466 45.2603 18.1808 45.4521 19.6575 45.4521C20.3479 45.4521 20.9041 44.8959 20.9041 44.2055C20.9041 43.5151 20.3479 42.9589 19.6575 42.9589C10.1836 42.9589 2.49315 35.2685 2.49315 25.7945C2.49315 21.4795 4.10411 17.3562 7.03836 14.1726C9.95343 11.0082 13.9041 9.07123 18.1425 8.70685L18.7178 8.64931L18.411 9.14795C16.3973 12.3123 15.3425 15.937 15.3425 19.6575C15.3425 30.4932 24.1644 39.3151 35 39.3151C35.6904 39.3151 36.2466 38.7589 36.2466 38.0685C36.2466 37.3781 35.6904 36.8219 35 36.8219C25.526 36.8219 17.8356 29.1315 17.8356 19.6575C17.8356 10.1836 25.526 2.49315 35 2.49315C44.474 2.49315 52.1644 10.1836 52.1644 19.6575C52.1644 20.3479 52.7206 20.9041 53.411 20.9041C54.1014 20.9041 54.6575 20.3479 54.6575 19.6575C54.6575 15.937 53.6027 12.3123 51.589 9.14795L51.2822 8.64931L51.8575 8.70685C56.1151 9.07123 60.0658 11.0274 62.9616 14.1726C65.8959 17.3562 67.5069 21.4795 67.5069 25.7945C67.5069 35.2685 59.8164 42.9589 50.3425 42.9589Z" fill="#7ECA1D"/>
</svg>
