<svg width="48" height="48" viewBox="0 0 48 48" fill="none" xmlns="http://www.w3.org/2000/svg">
<path fill-rule="evenodd" clip-rule="evenodd" d="M3.79089 29.4312H40.8055V32.7263H1.92224L3.79089 29.4312Z" fill="url(#paint0_linear)"/>
<path fill-rule="evenodd" clip-rule="evenodd" d="M37.7045 37.2391C37.7045 36.901 37.429 36.6255 37.0909 36.6255C36.7527 36.6255 36.4772 36.901 36.4772 37.2391V39.6936C36.4772 40.0318 36.7527 40.3072 37.0909 40.3072C37.429 40.3072 37.7045 40.0318 37.7045 39.6936V37.2391ZM31.2829 21.1232L23.926 21.4713V21.4746C23.2513 21.5075 22.7268 22.0849 22.7581 22.7595C22.7631 22.8552 22.7779 22.9492 22.8043 23.0383L17.0128 23.2593C16.7621 23.2676 16.5427 23.1571 16.4025 22.9492C16.2623 22.7414 16.2408 22.4973 16.3431 22.268C18.2104 18.0864 21.9004 15.0529 25.7635 14.1688C25.818 14.1556 25.8642 14.1506 25.9203 14.1506C27.5716 14.149 29.2799 14.1477 30.9905 14.1465C32.687 14.1453 34.3858 14.144 36.0335 14.1424C36.3651 14.1424 36.6438 14.3618 36.7197 14.6834L38.3643 21.6032C38.4154 21.816 38.3726 22.0189 38.2406 22.1921C38.1086 22.3653 37.9239 22.461 37.7061 22.4692L32.5283 22.6655C32.5596 22.5451 32.5745 22.4197 32.5679 22.2911C32.5349 21.6164 31.9575 21.0919 31.2829 21.1232ZM24.4423 8.85235C12.9731 10.8664 6.78901 21.4432 1.33236 33.1994H1.33071C1.22679 33.4237 1.24329 33.6662 1.3769 33.8757C1.51051 34.0852 1.72495 34.2023 1.97238 34.2007C8.37997 34.1784 14.7872 34.1565 21.1943 34.1347C27.6015 34.1128 34.0087 34.091 40.4163 34.0687C40.6275 34.0671 40.8089 33.9846 40.9475 33.8246C41.0844 33.6646 41.1405 33.4732 41.1108 33.2637C40.5103 29.0706 42.6465 26.4248 46.2177 25.4483C46.5922 25.346 46.8132 24.9584 46.7126 24.5856L42.7042 9.7332C42.6217 9.42804 42.3562 9.2202 42.0395 9.2136L24.5792 8.84245C24.5313 8.8408 24.4901 8.8441 24.4423 8.85235ZM40.3883 27.9391H6.43436C6.17868 27.9391 5.95929 27.8153 5.82898 27.596C5.69867 27.3782 5.69372 27.1258 5.81414 26.9015C8.84102 21.2981 12.6399 15.8365 17.7155 12.704C19.8252 11.4009 22.0983 10.5266 24.533 10.0845C24.5808 10.0747 24.6237 10.0714 24.6732 10.073L41.0926 10.4227C41.4093 10.4293 41.6749 10.6355 41.7574 10.9423L45.2247 23.7872C45.3187 24.1369 45.1389 24.4948 44.8024 24.6268C43.4729 25.1481 42.2687 25.9431 41.3615 27.0879C41.2246 27.2611 41.0959 27.4376 40.9788 27.6191C40.8435 27.8252 40.6341 27.9391 40.3883 27.9391ZM5.06525 29.1663H39.293L39.2913 29.168C39.5124 29.168 39.7021 29.2587 39.8406 29.4302C39.9792 29.6018 40.027 29.8063 39.9792 30.0224C39.8291 30.7086 39.7681 31.4146 39.7845 32.1272C39.7895 32.3235 39.7219 32.4934 39.585 32.6336C39.448 32.7738 39.2798 32.8464 39.0835 32.8464C33.2202 32.8662 27.357 32.8864 21.4937 32.9066C15.6305 32.9268 9.76724 32.947 3.90398 32.9668C3.6549 32.9685 3.44046 32.8497 3.30685 32.6402C3.17324 32.4291 3.15839 32.1849 3.26561 31.9606C3.64171 31.1672 4.03099 30.3639 4.43513 29.5556C4.55719 29.3115 4.79143 29.1663 5.06525 29.1663ZM31.2132 12.916C29.4226 12.9172 27.6318 12.9184 25.8411 12.9201L25.8444 12.9234H25.7866C25.7322 12.9234 25.6877 12.9283 25.6349 12.9399L25.5788 12.9514C20.5873 14.055 16.475 18.1392 14.7744 22.8833L14.5121 23.6123C14.4296 23.8383 14.4643 24.0709 14.6061 24.2656C14.748 24.4602 14.9591 24.5625 15.2 24.5526L39.2435 23.6371C39.4612 23.6288 39.646 23.5332 39.778 23.36C39.9099 23.1868 39.9528 22.9839 39.9017 22.7711L37.688 13.4529C37.6105 13.1312 37.3317 12.9118 37.0018 12.9118H36.5878C34.7966 12.9135 33.005 12.9147 31.2132 12.916ZM6.84663 36.6255C7.18552 36.6255 7.46025 37.0295 7.46025 37.5278V39.4066C7.46025 39.905 7.18552 40.3089 6.84663 40.3089C6.50773 40.3089 6.233 39.905 6.233 39.4066V37.5278C6.233 37.0295 6.50773 36.6255 6.84663 36.6255ZM16.9286 36.6255C17.2675 36.6255 17.5423 37.0295 17.5423 37.5278V39.4066C17.5423 39.905 17.2675 40.3089 16.9286 40.3089C16.5898 40.3089 16.315 39.905 16.315 39.4066V37.5278C16.315 37.0295 16.5898 36.6255 16.9286 36.6255ZM27.6225 37.5278C27.6225 37.0295 27.3478 36.6255 27.0089 36.6255C26.67 36.6255 26.3953 37.0295 26.3953 37.5278V39.4066C26.3953 39.905 26.67 40.3089 27.0089 40.3089C27.3478 40.3089 27.6225 39.905 27.6225 39.4066V37.5278Z" fill="#7ECA1D"/>
<defs>
<linearGradient id="paint0_linear" x1="1.92224" y1="29.4312" x2="12.0262" y2="48.2106" gradientUnits="userSpaceOnUse">
<stop stop-color="#E3EEFF"/>
<stop offset="0.526042" stop-color="#E4F6E4"/>
<stop offset="1" stop-color="#FFEEE4"/>
</linearGradient>
</defs>
</svg>
