<svg width="80" height="80" viewBox="0 0 80 80" fill="none" xmlns="http://www.w3.org/2000/svg">
<path fill-rule="evenodd" clip-rule="evenodd" d="M19.4859 4.21045H55.432C61.518 4.21045 66.496 9.18846 66.496 15.2745V60.7809C66.496 66.8669 61.518 71.8449 55.432 71.8449H19.4859C13.3999 71.8449 8.42188 66.8669 8.42188 60.7809V15.2745C8.42188 9.18846 13.3999 4.21045 19.4859 4.21045V4.21045ZM20.3723 41.874H35.0847C35.8445 41.874 36.4697 42.4992 36.4697 43.259C36.4697 44.0187 35.8445 44.6439 35.0847 44.6439H20.3723C19.6125 44.6439 18.9873 44.0187 18.9873 43.259C18.9873 42.4992 19.6125 41.874 20.3723 41.874ZM20.3723 19.6668H30.9219C31.6816 19.6668 32.3068 20.292 32.3068 21.0518C32.3068 21.8116 31.6816 22.4368 30.9219 22.4368H20.3723C19.6125 22.4368 18.9873 21.8116 18.9873 21.0518C18.9873 20.292 19.6125 19.6668 20.3723 19.6668ZM36.9683 19.6668H54.6881C55.4479 19.6668 56.0731 20.292 56.0731 21.0518C56.0731 21.8116 55.4479 22.4368 54.6881 22.4368H36.9683C36.2085 22.4368 35.5833 21.8116 35.5833 21.0518C35.5833 20.292 36.2085 19.6668 36.9683 19.6668ZM20.3723 30.7704H26.3396C27.0993 30.7704 27.7245 31.3956 27.7245 32.1554C27.7245 32.9151 27.0993 33.5404 26.3396 33.5404H20.3723C19.6125 33.5404 18.9873 32.9151 18.9873 32.1554C18.9873 31.3956 19.6125 30.7704 20.3723 30.7704ZM32.94 30.7704H54.6802C55.44 30.7704 56.0652 31.3956 56.0652 32.1554C56.0652 32.9151 55.44 33.5404 54.6802 33.5404H32.94C32.1802 33.5404 31.555 32.9151 31.555 32.1554C31.555 31.3956 32.1802 30.7704 32.94 30.7704ZM19.4859 6.98832C14.9352 6.98832 11.1997 10.7238 11.1997 15.2745V60.7809C11.1997 65.3316 14.9352 69.0671 19.4859 69.0671H55.432C59.9827 69.0671 63.7182 65.3316 63.7182 60.7809V15.2745C63.7182 10.7238 59.9827 6.98832 55.432 6.98832H19.4859Z" fill="#FF4F4F"/>
<path d="M52.899 72.1694C60.5655 72.1694 66.7805 65.9545 66.7805 58.2879C66.7805 50.6214 60.5655 44.4065 52.899 44.4065C45.2325 44.4065 39.0176 50.6214 39.0176 58.2879C39.0176 65.9545 45.2325 72.1694 52.899 72.1694Z" fill="url(#paint0_linear)"/>
<path fill-rule="evenodd" clip-rule="evenodd" d="M45.2148 56.2938C45.753 55.7556 46.6394 55.7556 47.1775 56.2938L51.3483 60.4645L58.6372 53.1756C59.1754 52.6374 60.0618 52.6374 60.5999 53.1756C61.1381 53.7137 61.1381 54.6001 60.5999 55.1383L52.3296 63.4086L52.3059 63.4323L52.2822 63.4561L52.2584 63.4798L52.2347 63.5036L52.2109 63.5273L52.1793 63.5511L52.1476 63.5748L52.116 63.5906L52.0843 63.6064L52.0526 63.6223L52.021 63.6381L51.9893 63.6539L51.9577 63.6698L51.926 63.6856L51.8944 63.7014L51.8627 63.7172L51.831 63.7331L51.7994 63.741L51.7677 63.7489L51.7361 63.7568L51.7044 63.7647L51.6728 63.7726L51.6411 63.7806L51.6094 63.7885L51.5778 63.7964L51.5461 63.8043L51.5145 63.8122H51.4828H51.4512H51.4195H51.3879H51.3562H51.3245H51.2929H51.2612H51.2296H51.1979L51.1663 63.8043L51.1346 63.7964L51.1029 63.7885L51.0713 63.7806L51.0396 63.7726L51.008 63.7647L50.9763 63.7568L50.9447 63.7489L50.913 63.741L50.8813 63.7331L50.8497 63.7172L50.818 63.7014L50.7864 63.6856L50.7547 63.6698L50.7231 63.6539L50.6914 63.6381L50.6597 63.6223L50.6281 63.6064L50.5964 63.5906L50.5648 63.5748L50.5331 63.5511L50.5015 63.5273L50.4777 63.5036L50.454 63.4798L50.4302 63.4561L50.4065 63.4323L50.3828 63.4086L45.2306 58.2565C44.6925 57.7183 44.6925 56.8319 45.2306 56.2938H45.2148ZM52.9074 41.6367C62.1036 41.6367 69.5667 49.0919 69.5667 58.296C69.5667 67.4923 62.1115 74.9554 52.9074 74.9554C43.7111 74.9554 36.248 67.5002 36.248 58.296C36.248 49.0998 43.7032 41.6367 52.9074 41.6367ZM52.9074 44.4146C60.5762 44.4146 66.7888 50.6272 66.7888 58.296C66.7888 65.9649 60.5762 72.1775 52.9074 72.1775C45.2385 72.1775 39.0259 65.9649 39.0259 58.296C39.0259 50.6272 45.2385 44.4146 52.9074 44.4146Z" fill="#FF4F4F"/>
<defs>
<linearGradient id="paint0_linear" x1="39.0176" y1="44.4065" x2="70.3754" y2="49.3457" gradientUnits="userSpaceOnUse">
<stop stop-color="#E3EEFF"/>
<stop offset="0.526042" stop-color="#E4F6E4"/>
<stop offset="1" stop-color="#FFEEE4"/>
</linearGradient>
</defs>
</svg>
