<svg width="80" height="80" viewBox="0 0 80 80" fill="none" xmlns="http://www.w3.org/2000/svg">
<path d="M36.3104 77.8197H19.5389L16.8555 55.8491H38.8261L36.3104 77.8197ZM34.2978 35.5556C34.2978 33.3753 34.801 31.195 35.6395 29.3501L39.497 21.1321H59.1196V21.2998L62.8093 29.3501C63.6479 31.3627 64.1511 33.3753 64.1511 35.5556V68.26C64.1511 70.608 62.3062 72.4528 59.9582 72.4528H38.9938L42.1804 44.109C42.1804 43.7736 42.1804 43.4382 41.845 43.2704C41.6773 43.1027 41.3418 42.935 41.0064 42.935H34.1301V35.5556H34.2978Z" fill="url(#paint0_linear)"/>
<path d="M32.118 42.935H14.3403C14.0048 42.935 13.6694 43.1027 13.5017 43.2704C13.334 43.6059 13.334 43.9413 13.334 44.109L17.3591 78.9937C17.3591 79.4968 17.8623 80 18.3654 80H37.1495C37.6526 80 38.1558 79.6646 38.1558 78.9937L38.6589 74.6331H59.791C63.313 74.6331 66.1642 71.782 66.1642 68.26V35.5556C66.1642 33.0398 65.661 30.6918 64.6547 28.3438L58.7847 15.7652C58.2816 14.9266 58.1139 13.9203 58.1139 12.914V10.2306H59.791C60.4619 10.2306 60.7973 9.72746 60.7973 9.22432V3.68973C60.7973 1.67715 59.1201 0 57.1076 0H41.0069C38.9944 0 37.3172 1.67715 37.3172 3.68973V9.0566C37.3172 9.72746 37.8204 10.0629 38.3235 10.0629H40.1684V12.5786C40.1684 13.5849 40.0006 14.5912 39.4975 15.4298L33.6275 28.0084C32.6212 30.3564 32.118 32.7044 32.118 35.2201V42.935ZM36.3109 77.8197H19.5394L16.856 55.8491H38.8266L36.3109 77.8197ZM39.6652 8.05031V3.68973C39.6652 2.85115 40.3361 2.18029 41.1747 2.18029H57.2753C58.1139 2.18029 58.9524 2.85115 58.9524 3.68973V7.8826H39.6652V8.05031ZM57.1076 16.6038L58.1139 18.7841H40.5038L41.5101 16.6038C42.0132 15.4298 42.3487 14.088 42.3487 12.7463V10.2306H56.269V12.7463C56.269 14.088 56.6044 15.4298 57.1076 16.6038ZM34.2983 35.5556C34.2983 33.3753 34.8015 31.195 35.6401 29.3501L39.4975 21.1321H59.1201V21.2998L62.8099 29.3501C63.6484 31.3627 64.1516 33.3753 64.1516 35.5556V68.26C64.1516 70.608 62.3067 72.4528 59.9587 72.4528H38.9944L42.1809 44.109C42.1809 43.7736 42.1809 43.4382 41.8455 43.2704C41.6778 43.1027 41.3424 42.935 41.0069 42.935H34.1306V35.5556H34.2983ZM40.0006 45.1153L38.9944 53.6688H16.6883L15.682 45.1153H40.0006Z" fill="#7ECA1D"/>
<defs>
<linearGradient id="paint0_linear" x1="16.8555" y1="21.1321" x2="70.6712" y2="28.2042" gradientUnits="userSpaceOnUse">
<stop stop-color="#E3EEFF"/>
<stop offset="0.526042" stop-color="#E4F6E4"/>
<stop offset="1" stop-color="#FFEEE4"/>
</linearGradient>
</defs>
</svg>
