<svg width="48" height="48" viewBox="0 0 48 48" fill="none" xmlns="http://www.w3.org/2000/svg">
<path fill-rule="evenodd" clip-rule="evenodd" d="M38.4707 25.9222C38.591 22.1731 36.9621 18.7488 34.2072 16.9386C39.2241 15.8851 43.42 11.7733 43.3178 5.55289C41.13 5.53476 39.1944 5.95846 37.5606 6.75972C37.4831 4.95937 36.949 3.09473 35.8526 1.26636C34.0358 2.29513 32.6179 3.558 31.6106 4.98575C30.6032 3.5646 29.1903 2.30667 27.3801 1.2812C24.2097 6.56682 25.7298 12.169 29.4706 15.5999C27.7807 15.6526 26.1271 16.2247 24.6713 17.2073L24.6219 17.1513C22.8924 15.2207 20.4606 14.4986 17.953 15.1712C17.2622 15.3559 16.5681 15.646 15.8823 16.0368C15.8065 15.8521 15.7158 15.6526 15.6119 15.4399C15.8015 15.4119 15.9878 15.3723 16.1659 15.3245C17.6019 14.9404 18.6521 13.9413 19.1219 12.5152C19.4302 11.5755 19.3841 10.7495 19.3725 10.5929L19.211 8.55182L17.2029 8.94914C16.2153 9.14534 15.2575 9.53442 14.5106 10.2285C13.9946 10.7083 13.6236 11.287 13.4109 11.9497C13.3532 12.1294 13.3104 12.3042 13.2807 12.4707C12.7399 12.0569 12.1101 11.7123 11.3831 11.4963C10.9017 11.3529 10.3939 11.6282 10.2505 12.1096C10.107 12.5927 10.3823 13.0988 10.8638 13.2423C12.5833 13.7534 13.589 15.3822 14.0869 16.4786C13.3532 16.4951 12.6575 16.5891 12.0096 16.7622H12.0079C9.50031 17.4348 7.75602 19.2747 7.2235 21.812C7.03061 22.7336 7.00258 23.7195 7.14107 24.7417C7.19383 25.1325 7.27131 25.5248 7.37188 25.9189C23.6788 25.9189 15.8361 25.9189 38.474 25.9189L38.4707 25.9222ZM31.172 5.65841C31.1918 5.62378 31.2132 5.58916 31.2347 5.55619C31.2132 5.59081 31.1935 5.62543 31.172 5.65841ZM31.3072 5.43748C31.3336 5.39627 31.36 5.35505 31.3864 5.31383C31.36 5.35505 31.3336 5.39627 31.3072 5.43748ZM31.4556 5.20832C31.4836 5.16545 31.5133 5.12259 31.5413 5.08137C31.5117 5.12424 31.4836 5.1671 31.4556 5.20832ZM37.5623 6.87677C37.5639 6.93118 37.5656 6.98558 37.5656 7.03999C37.5656 6.98558 37.5639 6.93118 37.5623 6.87677ZM37.5672 7.16694C37.5672 7.21475 37.5672 7.26256 37.5672 7.30872C37.5672 7.26091 37.5672 7.2131 37.5672 7.16694Z" fill="url(#paint0_linear)"/>
<path fill-rule="evenodd" clip-rule="evenodd" d="M8.76971 25.9223L8.76778 25.9157H8.77136L8.76971 25.9223ZM8.76778 25.9157H7.36999C7.26942 25.5217 7.19194 25.1293 7.13918 24.7385C7.00069 23.7164 7.02872 22.7305 7.22161 21.8089C7.75413 19.2716 9.49842 17.4317 12.006 16.759H12.0077C12.6556 16.5859 13.3514 16.4919 14.085 16.4754C13.5871 15.3791 12.5814 13.7502 10.8619 13.2391C10.3805 13.0957 10.1051 12.5895 10.2486 12.1065C10.392 11.6251 10.8998 11.3497 11.3812 11.4932C12.1083 11.7091 12.7381 12.0537 13.2788 12.4675C13.3085 12.301 13.3514 12.1262 13.4091 11.9465C13.6217 11.2838 13.9927 10.7051 14.5087 10.2253C15.2556 9.53125 16.2134 9.14216 17.201 8.94597L19.2091 8.54864L19.3706 10.5897C19.3822 10.7463 19.4283 11.5723 19.12 12.512C18.6502 13.9381 17.6 14.9372 16.164 15.3214C15.9859 15.3692 15.7996 15.4087 15.61 15.4368C15.7139 15.6494 15.8046 15.8489 15.8804 16.0336C16.5663 15.6429 17.2603 15.3527 17.9511 15.168C20.4588 14.4954 22.8905 15.2175 24.62 17.1481L24.6695 17.2041C26.1252 16.2215 27.7788 15.6494 29.4687 15.5967C25.7279 12.1658 24.2078 6.56365 27.3782 1.27802C29.1884 2.30349 30.6014 3.56142 31.6087 4.98258C32.616 3.55483 34.0339 2.29195 35.8507 1.26318C36.9471 3.09155 37.4812 4.9562 37.5587 6.75654C39.1926 5.95529 41.1281 5.53158 43.3159 5.54972C43.4181 11.7701 39.2222 15.8819 34.2053 16.9354C36.9603 18.7456 38.5891 22.1699 38.4688 25.919H37.1169C37.1713 24.4731 36.9322 23.0849 36.4459 21.8501H34.789C34.4164 21.8501 34.113 21.5451 34.113 21.1741C34.113 20.8015 34.418 20.4982 34.789 20.4982H35.7798C34.7972 18.8759 33.3167 17.6658 31.485 17.1745C27.6799 16.1556 23.644 18.5791 21.8585 22.7123H25.4641C25.8367 22.7123 26.1401 23.0173 26.1401 23.3883C26.1401 23.7609 25.8351 24.0642 25.4641 24.0642H21.4183C21.4051 24.0642 21.3903 24.0642 21.3771 24.0626L21.3663 24.1002C21.3501 24.1565 21.3342 24.212 21.3194 24.2687C21.171 24.821 21.0688 25.3733 21.0061 25.919H19.6493C19.7152 25.2579 19.8356 24.5885 20.0153 23.9192C20.6599 21.5154 21.9524 19.4875 23.6011 18.0351C22.2096 16.4952 20.3087 15.938 18.3023 16.4754C17.6873 16.6403 17.1004 16.8975 16.5481 17.2107L16.0337 17.5025C15.6615 17.888 15.4862 17.8599 15.2454 17.8213C15.2164 17.8166 15.1864 17.8118 15.155 17.8076L14.113 17.8306C13.5212 17.8438 12.9276 17.9164 12.3556 18.0697L12.3275 18.0779C10.3293 18.6236 8.9692 20.0613 8.54219 22.0924C8.37238 22.9052 8.36414 23.7428 8.47625 24.5638C8.53859 25.0215 8.63847 25.4727 8.76778 25.9157ZM30.7646 15.4912C30.7769 15.5217 30.7897 15.5518 30.8025 15.5819L30.8025 15.5819C30.8153 15.612 30.8281 15.642 30.8404 15.6725C30.814 15.6115 30.7893 15.5522 30.7646 15.4912ZM30.6754 15.2726L30.6754 15.2726L30.6754 15.2726L30.6493 15.208C30.6724 15.2673 30.6954 15.3265 30.7201 15.384C30.7056 15.3467 30.6904 15.3095 30.6754 15.2726ZM30.5008 14.807L30.5007 14.8068L30.5007 14.8068L30.5007 14.8067L30.5007 14.8067L30.5007 14.8067C30.4842 14.7606 30.4678 14.7146 30.453 14.6685L30.4513 14.667C29.4252 11.6768 29.5695 8.77453 30.8388 6.26854C30.143 5.13425 29.1621 4.10054 27.8975 3.20696C26.7418 5.80031 26.6808 8.63437 27.9355 11.3003C28.5386 12.5806 29.4035 13.7226 30.4513 14.667C30.4675 14.7142 30.484 14.7614 30.5008 14.8086V14.807ZM31.1734 5.66018C31.1932 5.62556 31.2147 5.59093 31.2361 5.55796L31.2246 5.57679L31.2119 5.5978C31.1992 5.61896 31.1866 5.63988 31.1734 5.66018ZM31.457 5.21009C31.4759 5.18125 31.4955 5.1524 31.5148 5.12406L31.4908 5.15979L31.457 5.21009ZM31.5148 5.12406C31.524 5.11046 31.5333 5.0968 31.5427 5.08314L31.5222 5.11322L31.5148 5.12406ZM37.5109 8.32277L37.5108 8.32349L37.5093 8.32442L37.5109 8.32277ZM37.5108 8.32349C38.7487 7.58542 40.2204 7.11753 41.9046 6.96262C41.6095 9.78679 40.2461 12.2713 37.8258 13.953C36.5811 14.8185 35.155 15.3939 33.6695 15.6692C35.7895 13.7635 37.2139 11.1688 37.5108 8.32349ZM35.333 3.19212C31.1685 6.13499 30.087 10.5716 32.1099 15.2109C33.4585 14.1739 34.5697 12.8302 35.2968 11.2854C36.5514 8.61789 36.4904 5.78548 35.333 3.19212ZM17.9808 10.1742L17.9793 10.1745L17.9792 10.1726L17.9808 10.1742ZM17.9793 10.1745L18.0204 10.7002C18.055 11.1337 17.9676 11.6861 17.8341 12.0933C17.5109 13.0792 16.8169 13.7518 15.8128 14.0206C15.6793 14.0568 15.5441 14.0832 15.4072 14.1046L14.3521 14.2646C14.3439 14.2547 14.3356 14.2431 14.3274 14.2316L14.6043 12.7165C14.6258 12.5978 14.6554 12.4807 14.6917 12.367C14.8368 11.9202 15.0841 11.541 15.427 11.2211C15.9843 10.7034 16.7262 10.4215 17.4615 10.2764L17.9793 10.1745ZM7.3502 25.9223H39.697C41.6227 25.9223 43.6126 27.5479 43.1988 29.4241L40.4966 41.7198C40.0845 43.5976 38.9156 45.2216 36.9949 45.2216H10.1183C8.19596 45.2216 7.0386 43.5976 6.61654 41.7198L3.84678 29.4241C3.42307 27.5446 5.4229 25.9223 7.34855 25.9223H7.3502ZM7.3502 27.2726C6.43683 27.2726 4.92666 28.0672 5.16571 29.1273L7.93547 41.4231C8.18277 42.5178 8.81751 43.8713 10.12 43.8713H36.9965C38.2973 43.8713 38.9386 42.5277 39.1794 41.4296L41.8815 29.1339C42.1156 28.0656 40.6005 27.2726 39.6987 27.2726H7.35184H7.3502ZM11.3401 32.845V39.1132L11.3417 39.1149H13.7801C14.4907 39.1083 15.038 38.9517 15.4238 38.6417C15.8063 38.3318 15.9992 37.8751 15.9992 37.2733C15.9992 36.9205 15.9069 36.6221 15.7222 36.3781C15.5359 36.1341 15.2837 35.9725 14.9622 35.8918C15.2441 35.7829 15.4634 35.6115 15.62 35.3774C15.7783 35.1433 15.8574 34.8712 15.8574 34.5646C15.8574 34.0024 15.6612 33.5754 15.2672 33.2836C14.8748 32.9901 14.2978 32.845 13.5361 32.845H11.3401ZM12.6326 38.0713V36.388V36.3864H13.8164C14.4099 36.3962 14.7067 36.6848 14.7067 37.2568C14.7067 37.5107 14.6209 37.7119 14.4511 37.8553C14.2813 37.9987 14.0422 38.0713 13.7389 38.0713H12.6326ZM13.5889 35.4713H12.6326V33.8936H13.5361C13.8922 33.8936 14.1527 33.9546 14.3176 34.0799C14.4841 34.2052 14.5665 34.4096 14.5665 34.6932C14.5665 35.201 14.2401 35.4598 13.5889 35.4713ZM21.524 36.388H19.0444V38.073H21.9543V39.1133H17.7518V32.8434H21.9444V33.8936H19.0444V35.3823H21.524V36.388ZM24.7866 36.5463H27.2662V35.506H24.7866V33.8936H27.5762V32.8434H23.4957V39.1133H24.7866V36.5463ZM30.4827 39.1133H29.1918V32.8434H30.4827V39.1133ZM35.137 33.8936H37.0577V32.8434H31.9501V33.8936H33.8444V39.1133H35.137V33.8936Z" fill="#7ECA1D"/>
<defs>
<linearGradient id="paint0_linear" x1="7.05457" y1="1.26636" x2="46.8934" y2="10.496" gradientUnits="userSpaceOnUse">
<stop stop-color="#E3EEFF"/>
<stop offset="0.526042" stop-color="#E4F6E4"/>
<stop offset="1" stop-color="#FFEEE4"/>
</linearGradient>
</defs>
</svg>
