<svg width="80" height="80" viewBox="0 0 80 80" fill="none" xmlns="http://www.w3.org/2000/svg">
<path fill-rule="evenodd" clip-rule="evenodd" d="M69.4213 15.0438C73.4173 15.0438 76.6668 18.2935 76.6668 22.2897V34.0002C76.6668 37.9964 73.4173 41.2461 69.4213 41.2461H61.7367V65.0329C61.7367 68.2241 59.1459 70.815 55.9549 70.815H13.9309L5.49984 76.4361C5.07534 76.7142 4.50448 76.7435 4.0654 76.5092C3.61163 76.2604 3.3335 75.7919 3.3335 75.2796V32.8292C3.3335 29.6381 5.92433 27.0471 9.1153 27.0471H35.8285V16.4345C35.8285 15.6733 36.4579 15.0438 37.2191 15.0438H46.0015C46.7626 15.0438 47.392 15.6733 47.392 16.4345V17.5177L50.5537 16.6101C53.086 15.8928 54.8571 13.5508 54.8571 10.9159V9.11546C54.8571 5.92434 57.4479 3.33337 60.6389 3.33337C63.8298 3.33337 66.4207 5.92434 66.4207 9.11546V15.0438H69.4213ZM44.611 17.8251H38.6096V38.4648H44.611V17.8251ZM55.9549 68.0337C57.6089 68.0337 58.9556 66.687 58.9556 65.0329V41.2314H54.8279C52.6176 41.2314 50.4805 40.602 48.607 39.4162L47.5238 38.7283L47.3774 40.0165C47.3042 40.7191 46.7041 41.2461 46.0015 41.2461H37.2191C36.4579 41.2461 35.8285 40.6166 35.8285 39.8554V29.8283H9.1153C7.46127 29.8283 6.11456 31.1751 6.11456 32.8292V72.6886L12.7307 68.268C12.9649 68.1216 13.2284 68.0337 13.5065 68.0337H55.9549ZM69.4213 38.4648C71.8804 38.4648 73.8858 36.4594 73.8858 34.0002V22.2897C73.8858 19.8305 71.8804 17.8251 69.4213 17.8251H65.0301C64.269 17.8251 63.6395 17.1957 63.6395 16.4345V9.11546C63.6395 7.46135 62.2929 6.11457 60.6389 6.11457C58.9848 6.11457 57.6382 7.46135 57.6382 9.11546V10.9013C57.6382 14.7658 55.0328 18.2057 51.3149 19.2743L47.392 20.4014V34.3515L47.5238 34.5564C49.1632 37.001 51.8858 38.4648 54.8279 38.4648H69.4213ZM13.5065 40.2213H28.1439C28.905 40.2213 29.5344 40.8507 29.5344 41.612C29.5344 42.3731 28.905 43.0025 28.1439 43.0025H13.5065C12.7454 43.0025 12.1159 42.3731 12.1159 41.612C12.1159 40.8507 12.7454 40.2213 13.5065 40.2213ZM51.5637 49.0042H13.5065C12.7454 49.0042 12.1159 49.6336 12.1159 50.3948C12.1159 51.156 12.7454 51.7854 13.5065 51.7854H51.5637C52.3249 51.7854 52.9543 51.156 52.9543 50.3948C52.9543 49.6336 52.3249 49.0042 51.5637 49.0042ZM13.5065 57.7871H51.5637C52.3249 57.7871 52.9543 58.4165 52.9543 59.1777C52.9543 59.9388 52.3249 60.5684 51.5637 60.5684H13.5065C12.7454 60.5684 12.1159 59.9388 12.1159 59.1777C12.1159 58.4165 12.7454 57.7871 13.5065 57.7871Z" fill="#7ECA1D"/>
<path fill-rule="evenodd" clip-rule="evenodd" d="M55.9549 68.0338C57.6089 68.0338 58.9556 66.6871 58.9556 65.033V41.2314H54.8279C52.6176 41.2314 50.4805 40.602 48.607 39.4163L47.5238 38.7283L47.3775 40.0165C47.3042 40.7191 46.7041 41.2461 46.0015 41.2461H37.2191C36.4579 41.2461 35.8285 40.6167 35.8285 39.8555V29.8283H9.1153C7.46127 29.8283 6.11456 31.1751 6.11456 32.8292V72.6887L12.7307 68.268C12.9649 68.1216 13.2284 68.0338 13.5065 68.0338H55.9549ZM13.5065 40.2213H28.1439C28.905 40.2213 29.5344 40.8508 29.5344 41.612C29.5344 42.3731 28.905 43.0025 28.1439 43.0025H13.5065C12.7454 43.0025 12.116 42.3731 12.116 41.612C12.116 40.8508 12.7454 40.2213 13.5065 40.2213ZM51.5637 49.0042H13.5065C12.7454 49.0042 12.116 49.6337 12.116 50.3949C12.116 51.156 12.7454 51.7854 13.5065 51.7854H51.5637C52.3249 51.7854 52.9543 51.156 52.9543 50.3949C52.9543 49.6337 52.3249 49.0042 51.5637 49.0042ZM13.5065 57.7871H51.5637C52.3249 57.7871 52.9543 58.4165 52.9543 59.1777C52.9543 59.9389 52.3249 60.5684 51.5637 60.5684H13.5065C12.7454 60.5684 12.116 59.9389 12.116 59.1777C12.116 58.4165 12.7454 57.7871 13.5065 57.7871Z" fill="url(#paint0_linear)"/>
<defs>
<linearGradient id="paint0_linear" x1="3.3335" y1="27.0471" x2="65.4286" y2="38.9664" gradientUnits="userSpaceOnUse">
<stop stop-color="#E3EEFF"/>
<stop offset="0.526042" stop-color="#E4F6E4"/>
<stop offset="1" stop-color="#FFEEE4"/>
</linearGradient>
</defs>
</svg>
