<svg width="48" height="48" viewBox="0 0 48 48" fill="none" xmlns="http://www.w3.org/2000/svg">
<path fill-rule="evenodd" clip-rule="evenodd" d="M24 1.98584C35.8621 1.98584 45.4737 11.6014 45.4737 23.4595C45.4737 35.3216 35.8581 44.9332 24 44.9332C12.1379 44.9332 2.52631 35.3177 2.52631 23.4595C2.52631 11.5975 12.1419 1.98584 24 1.98584ZM24 3.53991C35.0004 3.53991 43.9196 12.4591 43.9196 23.4595C43.9196 34.46 35.0004 43.3791 24 43.3791C12.9995 43.3791 4.08037 34.46 4.08037 23.4595C4.08037 12.4591 12.9995 3.53991 24 3.53991Z" fill="#7ECA1D"/>
<path fill-rule="evenodd" clip-rule="evenodd" d="M35.0122 23.5342C37.6168 25.0371 38.5059 28.3656 37.003 30.9701C35.5001 33.5747 32.1716 34.4638 29.5671 32.9609C26.9626 31.458 26.0734 28.1295 27.5763 25.525C29.0792 22.9204 32.4077 22.0313 35.0122 23.5342ZM29.8228 13.3796C30.1927 13.5921 30.3225 14.0721 30.1061 14.4419L19.2394 33.2599C19.027 33.6297 18.547 33.7596 18.1771 33.5432C17.8073 33.3307 17.6775 32.8507 17.8939 32.4809L28.7605 13.6629C28.973 13.2931 29.453 13.1632 29.8228 13.3796ZM18.4329 13.9619C21.0374 15.4648 21.9266 18.7933 20.4237 21.3978C18.9207 24.0024 15.5923 24.8915 12.9877 23.3886C10.3832 21.8857 9.49403 18.5572 10.997 15.9527C12.4999 13.3482 15.8283 12.459 18.4329 13.9619ZM17.6539 15.3075C19.5148 16.3815 20.1483 18.7579 19.0781 20.6188C18.004 22.4798 15.6277 23.1132 13.7667 22.0431C11.9058 20.969 11.2724 18.5926 12.3425 16.7317C13.4166 14.8708 15.7929 14.2373 17.6539 15.3075ZM34.2332 24.8797C36.0942 25.9538 36.7276 28.3302 35.6575 30.1911C34.5834 32.0521 32.207 32.6855 30.3461 31.6153C28.4851 30.5413 27.8517 28.1649 28.9219 26.304C29.9959 24.443 32.3723 23.8096 34.2332 24.8797Z" fill="#7ECA1D"/>
<path fill-rule="evenodd" clip-rule="evenodd" d="M19.0779 20.6185C18.0045 22.4777 15.6271 23.1147 13.768 22.0413C11.9088 20.9679 11.2718 18.5905 12.3452 16.7314C13.4186 14.8722 15.7959 14.2352 17.6551 15.3086C19.5143 16.382 20.1513 18.7593 19.0779 20.6185ZM35.6578 30.191C34.5844 32.0502 32.2071 32.6872 30.3479 31.6138C28.4887 30.5404 27.8517 28.163 28.9251 26.3038C29.9985 24.4446 32.3758 23.8076 34.235 24.881C36.0942 25.9544 36.7312 28.3318 35.6578 30.191Z" fill="url(#paint0_linear)"/>
<defs>
<linearGradient id="paint0_linear" x1="11.8237" y1="14.7871" x2="38.7012" y2="20.7306" gradientUnits="userSpaceOnUse">
<stop stop-color="#E3EEFF"/>
<stop offset="0.526042" stop-color="#E4F6E4"/>
<stop offset="1" stop-color="#FFEEE4"/>
</linearGradient>
</defs>
</svg>
