<svg width="80" height="80" viewBox="0 0 80 80" fill="none" xmlns="http://www.w3.org/2000/svg">
<path fill-rule="evenodd" clip-rule="evenodd" d="M67.471 18.6065C67.471 17.9412 66.9917 17.369 66.3408 17.2617L63.4439 16.7753C54.9104 15.3447 46.7346 11.8183 39.8105 6.58952C39.3313 6.22472 38.6661 6.22472 38.1868 6.58952C31.2628 11.8183 23.0941 15.3376 14.5535 16.7753L11.6565 17.2617C11.0056 17.369 10.5264 17.9412 10.5264 18.6065V28.9854C10.5264 43.1268 14.5535 54.8648 24.4746 64.9433C31.3987 71.9746 38.2727 74.3566 38.5659 74.4567C38.709 74.5068 38.852 74.5282 38.9951 74.5282C39.1382 74.5282 39.2884 74.5068 39.4243 74.4567C39.7104 74.3566 46.5844 71.9746 53.5156 64.9433C63.4439 54.8648 67.471 43.1196 67.471 28.9854V18.6065ZM64.853 19.6651L63.0076 19.3575C54.3596 17.9055 46.0837 14.4148 38.9951 9.25042C31.9137 14.4148 23.6306 17.9055 14.9827 19.3575L13.1372 19.6651V28.9854C13.1372 42.2827 16.821 53.4485 26.3344 63.1121C28.981 65.7945 32.0138 68.1693 35.297 70.029C36.4057 70.6585 37.7505 71.3666 38.9951 71.8387C40.2397 71.3666 41.5916 70.6513 42.7003 70.029C45.9764 68.1693 49.0092 65.8016 51.6487 63.1193C61.1621 53.4628 64.8459 42.2899 64.8459 28.9926V19.6723L64.853 19.6651Z" fill="#6B33B3"/>
<path fill-rule="evenodd" clip-rule="evenodd" d="M38.9664 28.5417C40.8834 27.1897 43.3297 26.7463 45.6329 27.0825C47.9219 27.4186 50.1393 28.5274 51.6056 30.337C52.5713 31.5316 53.1435 32.9479 53.2723 34.4715C53.5727 37.9907 52.1636 41.4742 50.1965 44.3282C47.8217 47.7688 44.5242 50.5441 40.9764 52.7186L39.0665 53.8917L37.0565 52.9046C33.4228 51.1307 30.3042 48.3625 28.0438 45.0077C26.041 42.0321 24.4602 38.1481 24.6962 34.5144C25.1326 27.6261 33.759 24.958 38.9664 28.5417ZM38.9306 50.9089L39.6101 50.4869C42.8361 48.5055 45.8833 45.9662 48.0435 42.8404C49.6529 40.5085 50.919 37.5901 50.6686 34.7003C50.5828 33.6918 50.2108 32.769 49.5742 31.9894C48.5227 30.6875 46.8847 29.915 45.2538 29.679C43.5872 29.4358 41.7703 29.7362 40.3898 30.7519C39.5386 31.3814 38.4299 31.3885 37.5716 30.7734C34.0452 28.2484 27.6218 29.8363 27.3071 34.6932C27.1139 37.726 28.5517 41.0879 30.2183 43.5629C32.2212 46.5313 34.9893 48.9919 38.2082 50.5727L38.9306 50.9232V50.9089Z" fill="#6B33B3"/>
<path fill-rule="evenodd" clip-rule="evenodd" d="M38.931 50.9092L39.6106 50.4872C42.8365 48.5058 45.8837 45.9666 48.0439 42.8407C49.6533 40.5089 50.9194 37.5904 50.669 34.7007C50.5832 33.6921 50.2112 32.7694 49.5746 31.9897C48.5231 30.6879 46.8851 29.9153 45.2542 29.6793C43.5876 29.4361 41.7708 29.7365 40.3902 30.7522C39.539 31.3817 38.4303 31.3888 37.572 30.7737C34.0456 28.2487 27.6222 29.8366 27.3075 34.6935C27.1144 37.7264 28.5521 41.0882 30.2187 43.5632C32.2216 46.5316 34.9898 48.9922 38.2086 50.573L38.931 50.9235V50.9092Z" fill="url(#paint0_linear)"/>
<defs>
<linearGradient id="paint0_linear" x1="27.29" y1="29.5854" x2="53.6024" y2="34.1325" gradientUnits="userSpaceOnUse">
<stop stop-color="#E3EEFF"/>
<stop offset="0.526042" stop-color="#E4F6E4"/>
<stop offset="1" stop-color="#FFEEE4"/>
</linearGradient>
</defs>
</svg>
