<svg width="80" height="80" viewBox="0 0 80 80" fill="none" xmlns="http://www.w3.org/2000/svg">
<path fill-rule="evenodd" clip-rule="evenodd" d="M67.47 18.6065C67.47 17.9412 66.9908 17.369 66.3398 17.2617L63.4429 16.7753C54.9094 15.3447 46.7336 11.8183 39.8096 6.58952C39.3303 6.22472 38.6651 6.22472 38.1858 6.58952C31.2618 11.8183 23.0931 15.3376 14.5525 16.7753L11.6556 17.2617C11.0046 17.369 10.5254 17.9412 10.5254 18.6065V28.9854C10.5254 43.1268 14.5525 54.8648 24.4736 64.9433C31.3977 71.9746 38.2717 74.3566 38.565 74.4567C38.708 74.5068 38.8511 74.5282 38.9941 74.5282C39.1372 74.5282 39.2874 74.5068 39.4233 74.4567C39.7094 74.3566 46.5834 71.9746 53.5146 64.9433C63.4429 54.8648 67.47 43.1196 67.47 28.9854V18.6065ZM64.852 19.6651L63.0066 19.3575C54.3587 17.9055 46.0827 14.4148 38.9941 9.25042C31.9127 14.4148 23.6296 17.9055 14.9817 19.3575L13.1362 19.6651V28.9854C13.1362 42.2827 16.82 53.4485 26.3334 63.1121C28.98 65.7945 32.0128 68.1693 35.2961 70.029C36.4048 70.6585 37.7495 71.3666 38.9941 71.8387C40.2387 71.3666 41.5906 70.6513 42.6994 70.029C45.9754 68.1693 49.0083 65.8016 51.6477 63.1193C61.1611 53.4628 64.8449 42.2899 64.8449 28.9926V19.6723L64.852 19.6651Z" fill="#0065BD"/>
<path fill-rule="evenodd" clip-rule="evenodd" d="M38.9654 28.5417C40.8824 27.1897 43.3287 26.7463 45.632 27.0825C47.9209 27.4186 50.1383 28.5274 51.6047 30.337C52.5703 31.5316 53.1426 32.9479 53.2713 34.4715C53.5717 37.9907 52.1626 41.4742 50.1955 44.3282C47.8208 47.7688 44.5232 50.5441 40.9754 52.7186L39.0655 53.8917L37.0556 52.9046C33.4219 51.1307 30.3032 48.3625 28.0429 45.0077C26.04 42.0321 24.4592 38.1481 24.6953 34.5144C25.1316 27.6261 33.7581 24.958 38.9654 28.5417ZM38.9296 50.9089L39.6092 50.4869C42.8352 48.5055 45.8823 45.9662 48.0425 42.8404C49.6519 40.5085 50.918 37.5901 50.6676 34.7003C50.5818 33.6918 50.2098 32.769 49.5732 31.9894C48.5217 30.6875 46.8837 29.915 45.2528 29.679C43.5862 29.4358 41.7694 29.7362 40.3888 30.7519C39.5376 31.3814 38.4289 31.3885 37.5706 30.7734C34.0442 28.2484 27.6208 29.8363 27.3061 34.6932C27.113 37.726 28.5507 41.0879 30.2174 43.5629C32.2202 46.5313 34.9884 48.9919 38.2072 50.5727L38.9296 50.9232V50.9089Z" fill="#0065BD"/>
<path fill-rule="evenodd" clip-rule="evenodd" d="M38.9301 50.9092L39.6096 50.4872C42.8356 48.5058 45.8827 45.9666 48.0429 42.8407C49.6523 40.5089 50.9184 37.5904 50.668 34.7007C50.5822 33.6921 50.2103 32.7694 49.5736 31.9897C48.5222 30.6879 46.8841 29.9153 45.2533 29.6793C43.5866 29.4361 41.7698 29.7365 40.3893 30.7522C39.5381 31.3817 38.4294 31.3888 37.571 30.7737C34.0446 28.2487 27.6212 29.8366 27.3065 34.6935C27.1134 37.7264 28.5511 41.0882 30.2178 43.5632C32.2206 46.5316 34.9888 48.9922 38.2076 50.573L38.9301 50.9235V50.9092Z" fill="url(#paint0_linear)"/>
<defs>
<linearGradient id="paint0_linear" x1="27.2891" y1="29.5854" x2="53.6014" y2="34.1325" gradientUnits="userSpaceOnUse">
<stop stop-color="#E3EEFF"/>
<stop offset="0.526042" stop-color="#E4F6E4"/>
<stop offset="1" stop-color="#FFEEE4"/>
</linearGradient>
</defs>
</svg>
