<svg width="80" height="80" viewBox="0 0 80 80" fill="none" xmlns="http://www.w3.org/2000/svg">
<path fill-rule="evenodd" clip-rule="evenodd" d="M30.9485 29.1507C30.9485 34.6893 35.4516 39.1924 40.9902 39.1924C46.5288 39.1767 51.0319 34.6893 51.0319 29.1507C51.0319 23.612 46.5288 19.1089 40.9902 19.1089C35.4516 19.1089 30.9485 23.612 30.9485 29.1507ZM44.2974 54.6945C46.5568 58.1934 51.2324 59.1819 54.7156 56.9225C54.5935 56.457 54.5058 55.9873 54.4518 55.5167C54.8962 55.323 55.209 54.8788 55.209 54.3651C55.209 53.8519 54.8968 53.408 54.4529 53.214C54.7115 50.9823 55.7153 48.8632 57.3673 47.2417C56.0807 44.6842 53.4761 43.0838 50.6205 43.0681C49.1613 43.0681 47.7492 43.4917 46.5254 44.2762C43.0265 46.5356 42.038 51.2113 44.2974 54.6945ZM59.0304 59.6212C61.9331 62.6024 66.7029 62.6651 69.6841 59.7624C70.8318 58.6399 71.5842 57.1929 71.8515 55.6252C72.382 55.4844 72.7688 55.0056 72.7819 54.4278C72.8004 52.8019 72.0411 51.3447 70.8467 50.4115C69.5407 48.2961 67.2111 46.8741 64.5377 46.8337H64.4279C62.4666 46.8337 60.5838 47.6026 59.1717 48.9676C56.1905 51.8703 56.1278 56.6401 59.0304 59.6212Z" fill="url(#paint0_linear)"/>
<path fill-rule="evenodd" clip-rule="evenodd" d="M40.6569 51.8544H9.58871C8.89834 51.8544 8.3335 51.2895 8.3335 50.5992V7.92187C8.3335 7.2315 8.89834 6.66666 9.58871 6.66666H75.7244C76.4148 6.66666 76.9797 7.2315 76.9797 7.92187V50.5835C76.9797 51.2738 76.4148 51.8387 75.7244 51.8387H74.1554C74.3594 52.6703 74.4692 53.5175 74.4692 54.3648C74.4692 59.9191 69.9662 64.4065 64.4275 64.4065H64.2863C60.709 64.3594 57.4297 62.3982 55.6724 59.2758C54.5113 59.9505 53.2091 60.3898 51.8754 60.5624C46.3681 61.2528 41.3473 57.3616 40.6569 51.8544ZM44.297 54.6943C46.5564 58.1932 51.2321 59.1817 54.7153 56.9223C53.8053 53.4548 54.8095 49.7519 57.3669 47.2415C56.0804 44.684 53.4758 43.0836 50.6202 43.0679C49.161 43.0679 47.7489 43.4915 46.525 44.276C43.0261 46.5354 42.0377 51.2111 44.297 54.6943ZM20.462 44.3231H42.7908C43.2615 43.7425 43.7793 43.2091 44.3598 42.7541C48.6746 39.3022 54.9977 39.9926 58.4496 44.3231H64.8512C65.9495 42.4089 67.5342 40.8242 69.4484 39.7259V18.7952C67.5342 17.6969 65.9495 16.1121 64.8512 14.1979H20.462C19.3637 16.1121 17.779 17.6969 15.8648 18.7952V39.7259C17.779 40.8242 19.3637 42.4089 20.462 44.3231ZM59.0301 59.621C61.9328 62.6021 66.7026 62.6649 69.6837 59.7622C71.1115 58.3658 71.9274 56.4673 71.9588 54.4589C72.0216 50.301 68.6953 46.8963 64.5374 46.8335H64.4275C62.4663 46.8335 60.5834 47.6023 59.1713 48.9674C56.1902 51.8701 56.1274 56.6399 59.0301 59.621ZM74.4692 9.17708H10.8439V49.3439H40.6569C40.7667 48.481 40.9864 47.6337 41.3159 46.8335H19.7089C19.2225 46.8335 18.7988 46.5668 18.5792 46.1431C17.6064 44.1819 16.006 42.5815 14.0447 41.6087C13.6211 41.389 13.3544 40.9497 13.3544 40.479V18.042C13.3544 17.5556 13.6211 17.132 14.0447 16.9123C16.0217 15.9396 17.6064 14.3548 18.5792 12.3779C18.7988 11.9542 19.2382 11.6875 19.7089 11.6875H65.6043C66.0907 11.6875 66.5143 11.9542 66.734 12.3779C67.7068 14.3548 69.2915 15.9396 71.2684 16.8967C71.6921 17.1163 71.9588 17.5556 71.9588 18.0263V40.4633C71.9588 40.9497 71.6921 41.3733 71.2684 41.593C69.7622 42.3461 68.4756 43.4444 67.5185 44.8095C69.872 45.5783 71.8804 47.1944 73.1199 49.3439H73.214H74.4692V9.17708ZM40.9896 16.5988C47.9247 16.5988 53.5418 22.2159 53.5418 29.1509C53.5418 36.086 47.9247 41.6874 40.9896 41.7031C34.0546 41.7031 28.4375 36.086 28.4375 29.1509C28.4375 22.2159 34.0546 16.5988 40.9896 16.5988ZM30.9479 29.1509C30.9479 34.6895 35.451 39.1926 40.9896 39.1926C46.5283 39.1769 51.0314 34.6895 51.0314 29.1509C51.0314 23.6123 46.5283 19.1092 40.9896 19.1092C35.451 19.1092 30.9479 23.6123 30.9479 29.1509ZM50.62 48.089C51.3103 48.089 51.8752 47.5242 51.8752 46.8338C51.8752 46.1434 51.3103 45.5786 50.62 45.5786C47.8428 45.5786 45.5991 47.8223 45.5991 50.5995C45.5991 53.3766 47.8428 55.6203 50.62 55.6203C51.3103 55.6203 51.8752 55.0555 51.8752 54.3651C51.8752 53.6747 51.3103 53.1099 50.62 53.1099C49.2392 53.1099 48.1096 51.9802 48.1096 50.5995C48.1096 49.2187 49.2392 48.089 50.62 48.089ZM64.4273 49.3441H64.49C67.2672 49.3911 69.4795 51.6662 69.4481 54.4277C69.4324 55.118 68.8833 55.6672 68.1929 55.6672H68.1772C67.4868 55.6515 66.922 55.0867 66.9377 54.3963C66.9534 53.0156 65.8394 51.8702 64.4586 51.8545C63.0779 51.8388 61.9325 52.9528 61.9168 54.3335C61.9011 55.0239 61.3363 55.5888 60.6459 55.5731C59.9556 55.5574 59.3907 54.9925 59.4064 54.3022C59.4535 51.5564 61.6815 49.3441 64.4273 49.3441Z" fill="#7ECA1D"/>
<path fill-rule="evenodd" clip-rule="evenodd" d="M18.0222 43.5604C27.0566 43.5604 34.3776 50.8843 34.3776 59.9158C34.3776 68.9502 27.0537 76.2712 18.0222 76.2712C8.98775 76.2712 1.66675 68.9473 1.66675 59.9158C1.66675 50.8814 8.99069 43.5604 18.0222 43.5604Z" fill="#7ECA1D"/>
<path fill-rule="evenodd" clip-rule="evenodd" d="M18.0223 45.776C25.8311 45.776 32.1646 52.1066 32.1646 59.9184C32.1646 67.7273 25.8341 74.0608 18.0223 74.0608C10.2134 74.0608 3.87988 67.7302 3.87988 59.9184C3.87988 52.1095 10.2105 45.776 18.0223 45.776Z" fill="url(#paint1_linear)"/>
<path d="M19.624 59.0342L21.4344 56.73V54.7844H14.7042V57.0268H18.5337L16.6351 59.4339L17.5462 60.7946H18.0399C19.0274 60.7946 19.4594 61.3177 19.4594 61.9614C19.4594 62.605 19.0245 63.1282 18.0399 63.1282C17.1288 63.1282 16.6792 62.7079 16.4382 62.0202L14.375 63.2163C15.0186 64.7564 16.4529 65.4588 18.0399 65.4588C20.059 65.4588 21.8547 64.2626 21.8547 61.9584C21.8547 60.5066 20.9113 59.475 19.627 59.0253L19.624 59.0342Z" fill="#7ECA1D"/>
<defs>
<linearGradient id="paint0_linear" x1="30.9485" y1="19.1089" x2="78.2498" y2="26.3929" gradientUnits="userSpaceOnUse">
<stop stop-color="#E3EEFF"/>
<stop offset="0.526042" stop-color="#E4F6E4"/>
<stop offset="1" stop-color="#FFEEE4"/>
</linearGradient>
<linearGradient id="paint1_linear" x1="3.87988" y1="45.776" x2="35.8272" y2="50.808" gradientUnits="userSpaceOnUse">
<stop stop-color="#E3EEFF"/>
<stop offset="0.526042" stop-color="#E4F6E4"/>
<stop offset="1" stop-color="#FFEEE4"/>
</linearGradient>
</defs>
</svg>
