<svg width="80" height="80" viewBox="0 0 80 80" fill="none" xmlns="http://www.w3.org/2000/svg">
<path d="M46.9806 38.1118C46.9806 38.5042 47.2169 38.8686 47.5783 39.0087C47.7034 39.0648 47.8285 39.0788 47.9536 39.0788C48.2177 39.0788 48.4541 38.9807 48.6348 38.7985L52.2489 35.1547L52.374 35.0286H52.5408H70.514C74.1837 35.0286 77.1723 32.0155 77.1723 28.3157V12.9279C77.1723 9.22809 74.1837 6.215 70.514 6.215H43.3248C39.6551 6.215 36.6665 9.22809 36.6665 12.9279V28.3157C36.6665 32.0155 39.6551 35.0286 43.3248 35.0286H46.5636H46.9806V35.449V38.1118ZM43.3248 33.0666C40.7254 33.0666 38.6126 30.9364 38.6126 28.3157V12.9279C38.6126 10.3072 40.7254 8.17701 43.3248 8.17701H70.514C73.1134 8.17701 75.2263 10.3072 75.2263 12.9279V28.3157C75.2263 30.9364 73.1134 33.0666 70.514 33.0666H51.9709C51.7068 33.0666 51.4704 33.1647 51.2897 33.3469L49.6356 35.0146L48.9267 35.7293V34.7203V34.0476C48.9267 33.5151 48.4958 33.0666 47.9536 33.0666H43.3248Z" fill="#7ECA1D"/>
<path d="M48.333 25.5265V27.7408C48.333 28.2874 48.7639 28.7218 49.306 28.7218H63.7347C64.2629 28.7218 64.7077 28.2874 64.7077 27.7408V25.5265C64.7077 24.3633 64.3046 23.2282 63.5818 22.3172C62.8589 21.4203 61.8581 20.8037 60.76 20.5514L60.2318 20.4253L60.482 19.9348C60.8156 19.2901 60.9685 18.6034 60.9685 17.8887V17.0058C60.9685 14.5392 58.9668 12.5211 56.5204 12.5211C54.0739 12.5211 52.0722 14.5392 52.0722 17.0058V17.8887C52.0722 18.6034 52.239 19.2901 52.5587 19.9348L52.8089 20.4253L52.2807 20.5514C51.1826 20.8037 50.1679 21.4343 49.4589 22.3172C48.7361 23.2141 48.333 24.3493 48.333 25.5265ZM54.0183 17.0198C54.0183 15.6323 55.1442 14.4972 56.5204 14.4972C57.8965 14.4972 59.0224 15.6323 59.0224 17.0198V17.9027C59.0224 19.2901 57.8965 20.4253 56.5204 20.4253C55.1442 20.4253 54.0183 19.2901 54.0183 17.9027V17.0198ZM50.2791 26.3394V25.5265C50.2791 23.7887 51.683 22.3873 53.3928 22.3873H59.6479C61.3716 22.3873 62.7616 23.8027 62.7616 25.5265V26.3394V26.7598H62.3446H50.6961H50.2791V26.3394Z" fill="#7ECA1D"/>
<path d="M73.4261 68.1307L76.4564 71.1858C76.6649 71.396 76.9429 71.5081 77.2348 71.5081C77.5268 71.5081 77.8048 71.396 78.0133 71.1858C78.2218 70.9756 78.333 70.6953 78.333 70.401C78.333 70.1067 78.2218 69.8264 78.0133 69.6162L74.8996 66.477C74.4965 66.0706 73.9682 65.8603 73.4122 65.8603C72.8562 65.8603 72.328 66.0846 71.9249 66.477L69.4923 68.9295L67.0597 66.477C66.2396 65.6501 64.9052 65.6501 64.0851 66.477L61.6664 68.9155L59.1365 66.3368C58.3164 65.51 56.9819 65.51 56.1618 66.3368L53.91 68.6072L50.5599 62.8753L52.6033 61.4878C54.3826 60.2826 55.5363 58.3486 55.7309 56.1904C55.9394 54.0322 55.1888 51.916 53.6597 50.3884L47.9328 44.6145C45.4307 42.1059 41.4135 41.7976 38.5917 43.9278L34.8803 46.7026C34.4911 46.9969 33.9351 46.9549 33.5875 46.6045L27.0404 40.0038C26.6929 39.6534 26.6512 39.0928 26.9431 38.7004L29.6954 34.9586C31.7944 32.0996 31.5025 28.0495 29.0143 25.5409L23.2873 19.767C21.7722 18.2394 19.6732 17.4686 17.5187 17.6788C15.378 17.889 13.4597 19.0382 12.2643 20.8321L10.0124 24.2095C6.64854 29.2547 7.30186 36.0377 11.5554 40.3401L33.2261 62.1886C35.617 64.585 38.7863 65.9164 42.178 65.9164C44.3743 65.9164 46.5427 65.3418 48.4471 64.2347L48.6834 64.0945L52.0473 69.8404C52.3809 70.415 52.9508 70.7794 53.5902 70.8635C54.2436 70.9476 54.883 70.7233 55.3417 70.2609L57.6214 67.9625L60.1651 70.5271C60.9853 71.354 62.3197 71.354 63.1398 70.5271L65.5585 68.0886L67.9911 70.5412C68.8112 71.368 70.1456 71.368 70.9658 70.5412L73.4261 68.1307ZM39.9122 45.7216C41.8722 44.2501 44.6384 44.4603 46.362 46.1981L52.089 51.9721C53.1454 53.0372 53.6597 54.4947 53.5207 55.9802C53.4095 57.1294 52.9091 58.2085 52.1029 59.0213L51.9083 59.2175L39.106 46.3102L39.9122 45.7216ZM14.6691 21.4066C15.4892 20.5658 16.5734 20.0332 17.7411 19.9211C19.2145 19.781 20.6741 20.2995 21.7166 21.3646L27.4436 27.1385C29.1672 28.8763 29.3757 31.6652 27.9162 33.6412L27.2768 34.5101L14.4745 21.6028L14.6691 21.4066ZM48.0023 61.9223C46.2369 63.1275 44.2075 63.7021 42.1919 63.7021C39.4952 63.7021 36.8263 62.651 34.8108 60.633L13.14 38.7705C9.62322 35.2248 9.08111 29.6331 11.8612 25.4708L13.1956 23.4668L25.9423 36.318L25.1639 37.3691C24.2187 38.6444 24.3577 40.4522 25.4697 41.5874L32.0168 48.1882C33.1288 49.3093 34.9359 49.4495 36.2008 48.4965L37.299 47.6696L50.0456 60.5209L48.0023 61.9223Z" fill="#7ECA1D"/>
<path d="M39.9124 45.722C41.8723 44.2505 44.6385 44.4607 46.3622 46.1985L52.0891 51.9724C53.1456 53.0375 53.6599 54.495 53.5209 55.9806C53.4097 57.1297 52.9093 58.2088 52.103 59.0217L51.9084 59.2179L39.1061 46.3106L39.9124 45.722ZM14.6692 21.407C15.4893 20.5661 16.5736 20.0336 17.7412 19.9215C19.2147 19.7813 20.6742 20.2999 21.7167 21.365L27.4437 27.1389C29.1673 28.8767 29.3759 31.6656 27.9163 33.6416L27.2769 34.5105L14.4746 21.6032L14.6692 21.407Z" fill="url(#paint0_linear)"/>
<path d="M53.7392 17.0201C53.7392 15.6326 54.8651 14.4975 56.2413 14.4975C57.6174 14.4975 58.7434 15.6326 58.7434 17.0201V17.903C58.7434 19.2904 57.6174 20.4256 56.2413 20.4256C54.8651 20.4256 53.7392 19.2904 53.7392 17.903V17.0201ZM50 26.3396V25.5268C50 23.789 51.4039 22.3876 53.1137 22.3876H59.3689C61.0925 22.3876 62.4826 23.803 62.4826 25.5268V26.3396V26.7601H62.0656H50.417H50V26.3396Z" fill="url(#paint1_linear)"/>
<path d="M17.8804 75.9864C26.8443 75.9864 34.1109 68.7198 34.1109 59.7559C34.1109 50.7921 26.8443 43.5254 17.8804 43.5254C8.91655 43.5254 1.6499 50.7921 1.6499 59.7559C1.6499 68.7198 8.91655 75.9864 17.8804 75.9864Z" fill="#7ECA1D"/>
<path d="M17.8804 73.7866C25.6294 73.7866 31.9112 67.5048 31.9112 59.7558C31.9112 52.0068 25.6294 45.725 17.8804 45.725C10.1314 45.725 3.84961 52.0068 3.84961 59.7558C3.84961 67.5048 10.1314 73.7866 17.8804 73.7866Z" fill="url(#paint2_linear)"/>
<path d="M17.3226 54.5566L14.6025 55.5358L15.1844 57.5699L17.0246 57.0685V64.9496H19.3993V54.5566H17.3226Z" fill="#7ECA1D"/>
<defs>
<linearGradient id="paint0_linear" x1="14.4746" y1="19.899" x2="58.6157" y2="26.8074" gradientUnits="userSpaceOnUse">
<stop stop-color="#E3EEFF"/>
<stop offset="0.526042" stop-color="#E4F6E4"/>
<stop offset="1" stop-color="#FFEEE4"/>
</linearGradient>
<linearGradient id="paint1_linear" x1="50" y1="14.4975" x2="64.0866" y2="16.756" gradientUnits="userSpaceOnUse">
<stop stop-color="#E3EEFF"/>
<stop offset="0.526042" stop-color="#E4F6E4"/>
<stop offset="1" stop-color="#FFEEE4"/>
</linearGradient>
<linearGradient id="paint2_linear" x1="3.84961" y1="45.725" x2="35.5449" y2="50.7173" gradientUnits="userSpaceOnUse">
<stop stop-color="#E3EEFF"/>
<stop offset="0.526042" stop-color="#E4F6E4"/>
<stop offset="1" stop-color="#FFEEE4"/>
</linearGradient>
</defs>
</svg>
