<svg width="81" height="80" viewBox="0 0 81 80" fill="none" xmlns="http://www.w3.org/2000/svg">
<path d="M71.3333 46.0001H60V12.6668H71.3333V46.0001Z" fill="url(#paint0_linear)"/>
<path d="M56.4998 33.1666C56.4998 32.5 55.9998 32 55.3332 32C54.6665 32 54.1665 32.5 54.1665 33.1666V36C54.1665 36.6666 54.6665 37.1666 55.3332 37.1666C55.9998 37.1666 56.4998 36.6666 56.4998 36V33.1666Z" fill="#7ECA1D"/>
<path d="M39.3332 23.5001C38.9998 23.5001 38.6665 23.6667 38.4998 23.8334L26.1665 36.6667C25.6665 37.1667 25.6665 37.8334 26.1665 38.3334C26.6665 38.8334 27.3332 38.8334 27.8332 38.3334L40.3332 25.6667C40.8332 25.1667 40.8332 24.5001 40.3332 24.0001C39.9998 23.6667 39.6665 23.5001 39.3332 23.5001Z" fill="#7ECA1D"/>
<path d="M38 39.6666C40 39.6666 41.5 37.9999 41.5 35.9999C41.5 33.9999 39.8333 32.3333 38 32.3333C36.1667 32.3333 34.5 33.9999 34.5 35.9999C34.5 37.9999 36 39.6666 38 39.6666ZM38 34.6666C38.6667 34.6666 39.3333 35.3333 39.3333 35.9999C39.3333 36.6666 38.8333 37.3333 38 37.3333C37.1667 37.3333 36.6667 36.6666 36.6667 35.9999C36.6667 35.3333 37.3333 34.6666 38 34.6666Z" fill="#7ECA1D"/>
<path d="M54.1665 44.5C54.1665 45.1667 54.6665 45.6667 55.3332 45.6667C55.9998 45.6667 56.4998 45.1667 56.4998 44.5V41.6667C56.4998 41 55.9998 40.5 55.3332 40.5C54.6665 40.5 54.1665 41 54.1665 41.6667V44.5Z" fill="#7ECA1D"/>
<path d="M56.4998 24.6667C56.4998 24.0001 55.9998 23.5001 55.3332 23.5001C54.6665 23.5001 54.1665 24.0001 54.1665 24.6667V27.5001C54.1665 28.1667 54.6665 28.6667 55.3332 28.6667C55.9998 28.6667 56.4998 28.1667 56.4998 27.5001V24.6667Z" fill="#7ECA1D"/>
<path d="M56.4998 16.3334C56.4998 15.6667 55.9998 15.1667 55.3332 15.1667C54.6665 15.1667 54.1665 15.6667 54.1665 16.3334V19.1667C54.1665 19.8334 54.6665 20.3334 55.3332 20.3334C55.9998 20.3334 56.4998 19.8334 56.4998 19.1667V16.3334Z" fill="#7ECA1D"/>
<path d="M71.8332 12.3333H60.8332C60.1665 12.3333 59.6665 12.8333 59.6665 13.4999V47.3333C59.6665 47.9999 60.1665 48.4999 60.8332 48.4999H71.8332C72.4998 48.4999 72.9998 47.9999 72.9998 47.3333V13.4999C72.9998 12.8333 72.4998 12.3333 71.8332 12.3333ZM70.8332 45.8333C70.8332 45.9999 70.6665 46.1666 70.4998 46.1666H62.1665C61.9998 46.1666 61.8332 45.9999 61.8332 45.8333V14.8333C61.8332 14.6666 61.9998 14.6666 62.1665 14.6666H70.4998C70.6665 14.6666 70.8332 14.8333 70.8332 14.8333V45.8333Z" fill="#7ECA1D"/>
<path d="M79.3333 6.83332C79.1667 6.66666 79 6.66666 78.8333 6.66666H58C57.6667 6.66666 57.3333 6.83332 57.1667 6.99999L55.3333 8.83332C55.1667 8.99999 55 8.99999 55 8.83332L53.3333 6.99999C53.1667 6.83332 52.8333 6.66666 52.5 6.66666H8.5C8 6.66666 7.5 7.16666 7.5 7.83332V53C7.5 53.6666 8 54.1667 8.66667 54.1667H52.6667C53 54.1667 53.3333 54 53.5 53.8333L55.3333 52H55.5H55.6667L57.5 53.8333C57.6667 54 58 54.1667 58.3333 54.1667H79.1667C79.8333 54.1667 80.3333 53.6666 80.3333 53C80.3333 52.8333 80.3333 52.6667 80.1667 52.5L79.1667 50.3333V50.1667L80.1667 48C80.3333 47.6667 80.3333 47.3333 80.1667 47L79.1667 44.8333V44.6667L80.1667 42.5C80.3333 42.1667 80.3333 41.8333 80.1667 41.5L79.1667 39.3333V39.1667L80.1667 37C80.3333 36.6667 80.3333 36.3333 80.1667 36L78.8333 33.3333V33.1667L79.8333 31C80 30.6667 80 30.3333 79.8333 30L78.8333 27.8333V27.6667L79.8333 25.5C80 25.1667 80 24.8333 79.8333 24.5L78.6667 22.3333V22.1667L79.6667 20C79.8333 19.6667 79.8333 19.3333 79.6667 19L78.6667 16.8333V16.6667L79.6667 14.5C80 13.6667 80 13.3333 79.8333 13L78.6667 10.8333V10.6667L79.8333 8.33332C80 7.99999 80 7.66666 79.8333 7.49999C79.8333 7.16666 79.6667 6.99999 79.3333 6.83332ZM77.5 13.5L76.5 15.6667C76.3333 16 76.3333 16.3333 76.5 16.6667L77.5 18.8333V19L76.5 21.1667C76.3333 21.5 76.3333 21.8333 76.5 22.1667L77.5 24.3333V24.5L76.5 26.6667C76.3333 27 76.3333 27.3333 76.5 27.6667L77.5 29.8333V30L76.5 32.1667C76.3333 32.5 76.3333 32.8333 76.5 33.1667L77.5 35.3333V35.5L76.5 38.3333C76.3333 38.6667 76.3333 39 76.5 39.3333L77.5 41.5V41.6667L76.5 43.8333C76.3333 44.1667 76.3333 44.5 76.5 44.8333L77.5 47V47.1667L76.5 49.3333C76.3333 49.6667 76.3333 50 76.5 50.3333L76.8333 51.1667V51.3333L76.6667 51.8333H58.6667H58.5L56.1667 49.5C56 49.3333 55.6667 49.1667 55.3333 49.1667C55 49.1667 54.6667 49.3333 54.5 49.5L52.1667 51.6667H52H10C9.83333 51.6667 9.83333 51.5 9.83333 51.3333V9.16666C9.83333 8.99999 10 8.99999 10 8.99999H52H52.1667L54.5 11.3333C55 11.8333 55.6667 11.8333 56.1667 11.3333L58.5 8.99999H58.6667H76.6667C76.8333 8.99999 76.8333 8.99999 76.8333 9.16666C76.8333 9.33332 76.8333 9.33332 76.8333 9.33332L76.5 10.1667C76.3333 10.5 76.3333 10.8333 76.5 11.1667L77.5 13.3333C77.5 13.5 77.5 13.5 77.5 13.5Z" fill="#7ECA1D"/>
<path d="M28.3335 22.5C26.3335 22.5 24.8335 24.1667 24.8335 26.1667C24.8335 28.1667 26.5002 29.8333 28.3335 29.8333C30.1668 29.8333 31.8335 28.1667 31.8335 26.1667C31.8335 24.1667 30.3335 22.5 28.3335 22.5ZM28.3335 27.5C27.6668 27.5 27.0002 26.8333 27.0002 26.1667C27.0002 25.5 27.5002 24.8333 28.3335 24.8333C29.1668 24.8333 29.6668 25.5 29.6668 26.1667C29.6668 26.8333 29.0002 27.5 28.3335 27.5Z" fill="#7ECA1D"/>
<path d="M50.3334 30.4999C50.3334 30.3333 50.3334 30.3333 50.3334 30.1666C51.6667 28.3333 51.3334 25.6666 49.6667 24.1666C49.5 23.9999 49.3334 23.8333 49.1667 23.8333C49 23.8333 49 23.6666 49 23.4999C49.6667 21.3333 48.3334 18.9999 46.1667 18.3333C46 18.3333 45.8334 18.1666 45.5 18.1666C45.3334 18.1666 45.3334 17.9999 45.3334 17.9999C45.1667 16.8333 44.6667 15.8333 43.6667 15.1666C42.8334 14.4999 41.6667 14.1666 40.6667 14.3333C40.5 14.3333 40.3334 14.3333 40 14.4999C39.8334 14.4999 39.8334 14.4999 39.6667 14.3333C39.1667 13.3333 38.1667 12.6666 37.1667 12.3333C36.1667 11.9999 35 12.1666 34 12.6666C33.8334 12.8333 33.6667 12.8333 33.5 12.9999C33.3334 12.9999 33.3334 13.1666 33.1667 12.9999C32.3334 12.3333 31.1667 11.9999 30.1667 12.1666C29 12.3333 28.1667 12.8333 27.3334 13.8333C27.1667 13.9999 27 14.1666 27 14.3333C27 14.4999 26.8334 14.4999 26.6667 14.4999C25.6667 14.1666 24.5 14.3333 23.5 14.8333C22.5 15.3333 21.8334 16.3333 21.5 17.3333C21.6667 17.6666 21.6667 17.8333 21.6667 18.1666L21.5 18.3333C19.1667 18.6666 17.6667 20.6666 17.8334 22.9999C17.8334 23.1666 17.8334 23.4999 18 23.6666C18 23.8333 18 23.8333 17.8334 23.9999C15.8334 25.1666 15.1667 27.6666 16.3334 29.8333C16.5 29.9999 16.5 30.1666 16.6667 30.3333C16.6667 30.4999 16.6667 30.4999 16.6667 30.6666C15.3334 32.4999 15.6667 35.1666 17.3334 36.6666C17.5 36.8333 17.6667 36.9999 17.8334 36.9999C18 36.9999 18 37.1666 18 37.3333C17.3334 39.4999 18.6667 41.8333 20.8334 42.4999C21 42.4999 21.1667 42.6666 21.5 42.6666C21.6667 42.6666 21.6667 42.8333 21.6667 42.8333C21.8334 43.9999 22.3334 44.9999 23.3334 45.6666C24.1667 46.3333 25.3334 46.6666 26.3334 46.4999C26.5 46.4999 26.6667 46.4999 27 46.3333C27.1667 46.3333 27.1667 46.3333 27.3334 46.4999C27.8334 47.4999 28.8334 48.1666 29.8334 48.4999C30.8334 48.8333 32 48.6666 33 48.1666C33.1667 47.9999 33.3334 47.9999 33.5 47.8333H33.6667H33.8334C34.5 48.3333 35.3334 48.6666 36.3334 48.6666C36.6667 48.6666 37 48.6666 37.3334 48.4999C38.5 48.3333 39.5 47.4999 40.1667 46.4999C40.1667 46.3333 40.3334 46.3333 40.5 46.3333C41.5 46.6666 42.6667 46.4999 43.6667 45.9999C44.6667 45.4999 45.3334 44.4999 45.6667 43.4999C45.6667 43.3333 45.8334 43.1666 45.8334 42.8333C45.8334 42.6666 46 42.6666 46 42.6666C47.1667 42.4999 48.3334 41.8333 48.8334 40.8333C49.5 39.8333 49.6667 38.4999 49.3334 37.3333C49.3334 37.1666 49.3334 37.1666 49.5 36.9999C51.5 35.8333 52.1667 33.3333 51 31.1666C50.5 30.8333 50.5 30.6666 50.3334 30.4999ZM47.1667 30.8333C47.3334 31.1666 47.5 31.3333 47.8334 31.4999C48.8334 31.8333 49.1667 32.9999 48.8334 33.8333C48.5 34.4999 47.8334 34.9999 47.1667 34.9999C46.5 34.9999 46 35.4999 46 36.1666C46 36.4999 46.1667 36.8333 46.3334 36.9999C47 37.6666 47 38.8333 46.3334 39.6666C45.8334 40.1666 45 40.3333 44.3334 39.9999C44 39.8333 43.6667 39.8333 43.5 39.9999C43.1667 40.1666 43 40.3333 42.8334 40.6666C42.6667 40.9999 42.6667 41.1666 42.8334 41.4999C43.1667 42.4999 42.8334 43.4999 41.8334 43.8333C41.1667 44.1666 40.3334 43.9999 39.8334 43.4999C39.6667 43.3333 39.3334 43.1666 39 43.1666C38.6667 43.1666 38.5 43.3333 38.1667 43.4999C38 43.6666 37.8334 43.9999 37.8334 44.3333C37.8334 45.3333 37 46.1666 36 46.1666C35.3334 46.1666 34.6667 45.6666 34.3334 44.9999C34.1667 44.4999 33.8334 44.3333 33.3334 44.3333C32.8334 44.3333 32.5 44.6666 32.3334 44.9999C32.1667 45.4999 31.8334 45.8333 31.3334 45.9999C30.8334 46.1666 30.3334 46.1666 30 45.9999C29.3334 45.6666 28.8334 44.9999 28.8334 44.3333C28.8334 43.6666 28.3334 43.1666 27.6667 43.1666C27.3334 43.1666 27 43.3333 26.8334 43.4999C26.5 43.8333 26 43.9999 25.5 43.9999C25 43.9999 24.5 43.8333 24.1667 43.4999C23.6667 42.9999 23.5 42.1666 23.8334 41.4999C24 40.8333 23.8334 40.1666 23.1667 39.9999C22.8334 39.8333 22.6667 39.8333 22.3334 39.9999C21.8334 40.1666 21.3334 40.1666 21 39.9999C20.5 39.8333 20.1667 39.4999 20 38.9999C19.6667 38.3333 19.8334 37.4999 20.3334 36.9999C20.8334 36.4999 20.8334 35.8333 20.3334 35.3333C20.1667 35.1666 19.8334 34.9999 19.5 34.9999C18.5 34.9999 17.6667 34.1666 17.6667 33.1666C17.6667 32.4999 18.1667 31.8333 18.8334 31.4999C19.5 31.3333 19.6667 30.6666 19.5 29.9999C19.3334 29.6666 19.1667 29.4999 18.8334 29.3333C17.8334 28.9999 17.5 27.8333 17.8334 26.9999C18.1667 26.3333 18.8334 25.8333 19.5 25.8333C20.1667 25.8333 20.6667 25.3333 20.6667 24.6666C20.6667 24.3333 20.5 23.9999 20.3334 23.8333C19.6667 23.1666 19.6667 21.9999 20.3334 21.1666C20.8334 20.6666 21.6667 20.4999 22.3334 20.8333C22.6667 20.9999 23 20.9999 23.1667 20.8333C23.5 20.6666 23.6667 20.4999 23.8334 20.1666C24 19.8333 24 19.6666 23.8334 19.3333C23.5 18.3333 23.8334 17.3333 24.8334 16.9999C25.5 16.6666 26.3334 16.8333 26.8334 17.3333C27 17.4999 27.3334 17.6666 27.6667 17.6666C28 17.6666 28.3334 17.4999 28.5 17.3333C28.6667 17.1666 28.8334 16.8333 28.8334 16.4999C28.8334 15.4999 29.6667 14.6666 30.6667 14.6666C31.3334 14.6666 32 15.1666 32.3334 15.8333C32.5 16.3333 33 16.4999 33.3334 16.4999C33.6667 16.4999 34.1667 16.1666 34.3334 15.8333C34.5 15.3333 34.8334 14.9999 35.3334 14.8333C35.8334 14.6666 36.3334 14.6666 36.6667 14.8333C37.3334 15.1666 37.8334 15.8333 37.8334 16.4999C37.8334 17.1666 38.3334 17.6666 39 17.6666C39.3334 17.6666 39.6667 17.4999 39.8334 17.3333C40.1667 16.9999 40.6667 16.8333 41.1667 16.8333C41.6667 16.8333 42.1667 16.9999 42.5 17.3333C43 17.8333 43.1667 18.6666 42.8334 19.3333C42.6667 19.9999 42.8334 20.6666 43.5 20.8333C43.8334 20.9999 44 20.9999 44.3334 20.8333C44.8334 20.6666 45.3334 20.6666 45.6667 20.8333C46 20.9999 46.5 21.3333 46.6667 21.8333C47 22.4999 46.8334 23.3333 46.3334 23.8333C45.8334 24.3333 45.8334 24.9999 46.3334 25.4999C46.5 25.6666 46.8334 25.8333 47.1667 25.8333C48.1667 25.8333 49 26.6666 49 27.6666C49 28.4999 48.5 29.1666 47.8334 29.3333C47.3334 29.4999 47 30.1666 47.1667 30.8333Z" fill="#7ECA1D"/>
<path d="M16.3333 75.8332C25.3333 75.8332 32.6667 68.4998 32.6667 59.4998C32.6667 50.4998 25.3333 43.1665 16.3333 43.1665C7.33333 43.1665 0 50.4998 0 59.4998C0 68.4998 7.33333 75.8332 16.3333 75.8332Z" fill="#7ECA1D"/>
<path d="M16.3337 73.6666C24.167 73.6666 30.5003 67.3333 30.5003 59.4999C30.5003 51.6666 24.167 45.3333 16.3337 45.3333C8.50033 45.3333 2.16699 51.6666 2.16699 59.4999C2.16699 67.3333 8.50033 73.6666 16.3337 73.6666Z" fill="url(#paint1_linear)"/>
<path d="M12.833 64.8333H19.9997V62.5H16.4997L18.1663 60.8333C19.1663 59.8333 19.833 58.8333 19.833 57.5C19.833 55.3333 18.1663 54.1667 16.333 54.1667C14.833 54.1667 13.4997 54.8333 12.833 56.5L14.833 57.6667C15.1663 57 15.6663 56.5 16.333 56.5C16.9997 56.5 17.4997 57 17.4997 57.6667C17.4997 58.3333 16.9997 58.8333 16.4997 59.5L12.9997 63.1667V64.8333H12.833Z" fill="#7ECA1D"/>
<defs>
<linearGradient id="paint0_linear" x1="59.127" y1="28.984" x2="72.1962" y2="29.6833" gradientUnits="userSpaceOnUse">
<stop stop-color="#E3EEFF"/>
<stop offset="0.526" stop-color="#E4F6E4"/>
<stop offset="1" stop-color="#FFEEE4"/>
</linearGradient>
<linearGradient id="paint1_linear" x1="0.382993" y1="57.0028" x2="32.3157" y2="62.0324" gradientUnits="userSpaceOnUse">
<stop stop-color="#E3EEFF"/>
<stop offset="0.526" stop-color="#E4F6E4"/>
<stop offset="1" stop-color="#FFEEE4"/>
</linearGradient>
</defs>
</svg>
