<svg width="74" height="68" viewBox="0 0 74 68" fill="none" xmlns="http://www.w3.org/2000/svg">
<path d="M44.738 30.7766C44.738 31.1552 44.966 31.5068 45.3147 31.642C45.4354 31.6961 45.5561 31.7096 45.6769 31.7096C45.9317 31.7096 46.1597 31.6149 46.3341 31.4391L49.8212 27.9234L49.942 27.8017H50.1029H67.4449C70.9857 27.8017 73.8694 24.8944 73.8694 21.3245V6.47714C73.8694 2.90728 70.9857 0 67.4449 0H41.2106C37.6698 0 34.7861 2.90728 34.7861 6.47714V21.3245C34.7861 24.8944 37.6698 27.8017 41.2106 27.8017H44.3356H44.738V28.2073V30.7766ZM41.2106 25.9086C38.7025 25.9086 36.6638 23.8532 36.6638 21.3245V6.47714C36.6638 3.94849 38.7025 1.89311 41.2106 1.89311H67.4449C69.953 1.89311 71.9917 3.94849 71.9917 6.47714V21.3245C71.9917 23.8532 69.953 25.9086 67.4449 25.9086H49.553C49.2982 25.9086 49.0702 26.0032 48.8958 26.179L47.2997 27.7882L46.6157 28.4778V27.5042V26.8551C46.6157 26.3413 46.1999 25.9086 45.6769 25.9086H41.2106Z" fill="#7ECA1D"/>
<path d="M40.5264 18.6336V20.7701C40.5264 21.2975 40.9421 21.7166 41.4652 21.7166H55.3871C55.8968 21.7166 56.326 21.2975 56.326 20.7701V18.6336C56.326 17.5112 55.937 16.4159 55.2396 15.537C54.5422 14.6716 53.5765 14.0766 52.5169 13.8332L52.0072 13.7115L52.2487 13.2382C52.5705 12.6162 52.7181 11.9536 52.7181 11.264V10.4121C52.7181 8.03216 50.7867 6.08496 48.4262 6.08496C46.0656 6.08496 44.1343 8.03216 44.1343 10.4121V11.264C44.1343 11.9536 44.2952 12.6162 44.6037 13.2382L44.8451 13.7115L44.3354 13.8332C43.2759 14.0766 42.2968 14.6851 41.6128 15.537C40.9153 16.4024 40.5264 17.4977 40.5264 18.6336ZM46.012 10.4256C46.012 9.08689 47.0984 7.99159 48.4262 7.99159C49.754 7.99159 50.8404 9.08689 50.8404 10.4256V11.2775C50.8404 12.6162 49.754 13.7115 48.4262 13.7115C47.0984 13.7115 46.012 12.6162 46.012 11.2775V10.4256ZM42.4041 19.4179V18.6336C42.4041 16.9568 43.7587 15.6046 45.4084 15.6046H51.4439C53.107 15.6046 54.4483 16.9703 54.4483 18.6336V19.4179V19.8235H54.0459H42.8064H42.4041V19.4179Z" fill="#7ECA1D"/>
<path d="M66.5463 8.30273H60.8729C60.3633 8.30273 59.9341 8.72192 59.9341 9.24929C59.9341 9.77666 60.3499 10.1958 60.8729 10.1958H66.5463C67.056 10.1958 67.4852 9.77666 67.4852 9.24929C67.4852 8.72192 67.0694 8.30273 66.5463 8.30273Z" fill="#7ECA1D"/>
<path d="M66.5463 13.6982H60.8729C60.3633 13.6982 59.9341 14.1174 59.9341 14.6448C59.9341 15.1722 60.3499 15.5914 60.8729 15.5914H66.5463C67.056 15.5914 67.4852 15.1722 67.4852 14.6448C67.4852 14.1174 67.0694 13.6982 66.5463 13.6982Z" fill="#7ECA1D"/>
<path d="M66.5463 19.1069H60.8729C60.3633 19.1069 59.9341 19.5261 59.9341 20.0535C59.9341 20.5809 60.3499 21 60.8729 21H66.5463C67.056 21 67.4852 20.5809 67.4852 20.0535C67.4852 19.5261 67.0694 19.1069 66.5463 19.1069Z" fill="#7ECA1D"/>
<path d="M69.2556 59.7412L72.1794 62.689C72.3806 62.8918 72.6488 63 72.9305 63C73.2122 63 73.4804 62.8918 73.6816 62.689C73.8828 62.4862 73.9901 62.2157 73.9901 61.9318C73.9901 61.6478 73.8828 61.3774 73.6816 61.1745L70.6772 58.1455C70.2883 57.7534 69.7786 57.5506 69.2421 57.5506C68.7057 57.5506 68.196 57.7669 67.807 58.1455L65.4599 60.5119L63.1128 58.1455C62.3214 57.3477 61.0339 57.3477 60.2425 58.1455L57.9088 60.4984L55.4678 58.0103C54.6765 57.2125 53.3889 57.2125 52.5976 58.0103L50.4248 60.2009L47.1924 54.6703L49.164 53.3316C50.8808 52.1687 51.994 50.3027 52.1818 48.2202C52.383 46.1378 51.6587 44.096 50.1834 42.622L44.6575 37.0509C42.2433 34.6304 38.3672 34.3329 35.6445 36.3883L32.0634 39.0657C31.6879 39.3497 31.1514 39.3091 30.8161 38.971L24.4989 32.6021C24.1636 32.264 24.1234 31.7231 24.4051 31.3445L27.0607 27.7341C29.0859 24.9756 28.8043 21.0676 26.4035 18.6472L20.8776 13.076C19.4157 11.6021 17.3905 10.8584 15.3116 11.0612C13.2461 11.264 11.3952 12.3728 10.2417 14.1037L8.06896 17.3625C4.82321 22.2305 5.45358 28.7753 9.55772 32.9266L30.4674 54.0078C32.7743 56.32 35.8323 57.6047 39.1049 57.6047C41.224 57.6047 43.3163 57.0503 45.1538 55.982L45.3818 55.8468L48.6275 61.3909C48.9494 61.9453 49.4993 62.2969 50.1163 62.378C50.7467 62.4591 51.3636 62.2428 51.8062 61.7965L54.0058 59.5789L56.4603 62.0535C57.2516 62.8513 58.5392 62.8513 59.3305 62.0535L61.6642 59.7006L64.0114 62.067C64.8027 62.8648 66.0903 62.8648 66.8816 62.067L69.2556 59.7412ZM36.9187 38.1191C38.8098 36.6993 41.4788 36.9021 43.1419 38.5789L48.6678 44.1501C49.6871 45.1777 50.1834 46.5841 50.0492 48.0174C49.9419 49.1262 49.4591 50.1674 48.6812 50.9517L48.4934 51.141L36.1408 38.6871L36.9187 38.1191ZM12.5621 14.6581C13.3534 13.8468 14.3995 13.3329 15.5262 13.2247C16.9479 13.0895 18.3561 13.5898 19.3621 14.6175L24.8879 20.1887C26.551 21.8654 26.7522 24.5564 25.3439 26.463L24.727 27.3014L12.3743 14.8474L12.5621 14.6581ZM44.7246 53.7508C43.0212 54.9137 41.063 55.4682 39.1183 55.4682C36.5163 55.4682 33.9412 54.454 31.9964 52.5068L11.0867 31.4121C7.69342 27.991 7.17035 22.5956 9.85279 18.5795L11.1404 16.6459L23.4394 29.0457L22.6883 30.0599C21.7763 31.2904 21.9104 33.0348 22.9834 34.1301L29.3005 40.4991C30.3735 41.5808 32.1171 41.7161 33.3376 40.7965L34.3972 39.9987L46.6962 52.3986L44.7246 53.7508Z" fill="#7ECA1D"/>
<path d="M36.9189 38.1192C38.81 36.6994 41.479 36.9022 43.1422 38.579L48.668 44.1501C49.6873 45.1778 50.1836 46.5841 50.0495 48.0175C49.9422 49.1263 49.4593 50.1675 48.6814 50.9518L48.4936 51.1411L36.141 38.6872L36.9189 38.1192ZM12.5623 14.6582C13.3536 13.8469 14.3998 13.333 15.5264 13.2248C16.9481 13.0896 18.3564 13.5899 19.3623 14.6176L24.8881 20.1888C26.5512 21.8655 26.7524 24.5565 25.3441 26.4631L24.7272 27.3015L12.3745 14.8475L12.5623 14.6582Z" fill="url(#paint0_linear)"/>
<path d="M46.0122 10.4257C46.0122 9.087 47.0986 7.9917 48.4264 7.9917C49.7542 7.9917 50.8406 9.087 50.8406 10.4257V11.2776C50.8406 12.6163 49.7542 13.7116 48.4264 13.7116C47.0986 13.7116 46.0122 12.6163 46.0122 11.2776V10.4257ZM42.4043 19.418V18.6337C42.4043 16.9569 43.7589 15.6047 45.4086 15.6047H51.4441C53.1073 15.6047 54.4485 16.9705 54.4485 18.6337V19.418V19.8236H54.0461H42.8067H42.4043V19.418Z" fill="url(#paint1_linear)"/>
<path d="M15.6605 67.321C24.3096 67.321 31.321 60.3096 31.321 51.6605C31.321 43.0114 24.3096 36 15.6605 36C7.01144 36 0 43.0114 0 51.6605C0 60.3096 7.01144 67.321 15.6605 67.321Z" fill="#7ECA1D"/>
<path d="M15.6606 65.1986C23.1375 65.1986 29.1986 59.1374 29.1986 51.6605C29.1986 44.1837 23.1375 38.1225 15.6606 38.1225C8.18375 38.1225 2.12256 44.1837 2.12256 51.6605C2.12256 59.1374 8.18375 65.1986 15.6606 65.1986Z" fill="url(#paint2_linear)"/>
<path d="M15.1221 46.6442L12.4976 47.589L13.059 49.5517L14.8345 49.0679V56.6722H17.1259V46.6442H15.1221Z" fill="#7ECA1D"/>
<defs>
<linearGradient id="paint0_linear" x1="12.3745" y1="13.2031" x2="54.9653" y2="19.8689" gradientUnits="userSpaceOnUse">
<stop stop-color="#E3EEFF"/>
<stop offset="0.526042" stop-color="#E4F6E4"/>
<stop offset="1" stop-color="#FFEEE4"/>
</linearGradient>
<linearGradient id="paint1_linear" x1="42.4043" y1="7.9917" x2="55.9961" y2="10.171" gradientUnits="userSpaceOnUse">
<stop stop-color="#E3EEFF"/>
<stop offset="0.526042" stop-color="#E4F6E4"/>
<stop offset="1" stop-color="#FFEEE4"/>
</linearGradient>
<linearGradient id="paint2_linear" x1="2.12256" y1="38.1225" x2="32.7047" y2="42.9395" gradientUnits="userSpaceOnUse">
<stop stop-color="#E3EEFF"/>
<stop offset="0.526042" stop-color="#E4F6E4"/>
<stop offset="1" stop-color="#FFEEE4"/>
</linearGradient>
</defs>
</svg>
