<svg width="80" height="80" viewBox="0 0 80 80" fill="none" xmlns="http://www.w3.org/2000/svg">
<path fill-rule="evenodd" clip-rule="evenodd" d="M41.9296 17.4522C57.8731 18.1693 70.5811 31.3277 70.5811 47.4462C70.5811 64.0317 57.1393 77.4736 40.5538 77.4736C23.9682 77.4736 10.5264 64.0317 10.5264 47.4462C10.5264 31.3193 23.2344 18.1693 39.1779 17.4522V12.4657H35.3921C33.124 12.4657 31.2645 10.6062 31.2645 8.33807C31.2645 6.06996 33.124 4.21045 35.3921 4.21045H45.7654C48.0335 4.21045 49.893 6.06996 49.893 8.33807C49.893 10.6062 48.0335 12.4657 45.7654 12.4657H41.9296V17.4522ZM35.3921 6.9622H45.7654C46.5242 6.9622 47.1413 7.57925 47.1413 8.33807C47.1413 9.09688 46.5242 9.71394 45.7654 9.71394H35.3921C34.6333 9.71394 34.0163 9.09688 34.0163 8.33807C34.0163 7.57925 34.6333 6.9622 35.3921 6.9622ZM40.5538 70.6776C41.3126 70.6776 41.9296 71.2947 41.9296 72.0535V74.6885C55.9052 73.9964 67.1039 62.7893 67.796 48.8221H65.161C64.4022 48.8221 63.7852 48.205 63.7852 47.4462C63.7852 46.6874 64.4022 46.0703 65.161 46.0703H67.796C67.1039 32.0948 55.8968 20.896 41.9296 20.2039V22.8389C41.9296 23.5978 41.3126 24.2148 40.5538 24.2148C39.7949 24.2148 39.1779 23.5978 39.1779 22.8389V20.2039C25.2023 20.896 14.0036 32.1031 13.3115 46.0703H15.9465C16.7053 46.0703 17.3223 46.6874 17.3223 47.4462C17.3223 48.205 16.7053 48.8221 15.9465 48.8221H13.3115C14.0036 62.7976 25.2107 73.9964 39.1779 74.6885V72.0535C39.1779 71.2947 39.7949 70.6776 40.5538 70.6776Z" fill="#FF6889"/>
<path fill-rule="evenodd" clip-rule="evenodd" d="M50.6435 29.9677C51.3022 30.3429 51.5273 31.1935 51.1438 31.8439L45.1066 42.3005C46.5242 43.5596 47.4247 45.3941 47.4247 47.4454C47.4247 51.2395 44.3478 54.3165 40.5537 54.3165C36.7596 54.3165 33.6827 51.2395 33.6827 47.4454C33.6827 46.6866 33.8078 45.9528 34.0329 45.2691L26.6699 41.0164C26.0112 40.6411 25.786 39.7906 26.1696 39.1402C26.5448 38.4814 27.3954 38.2563 28.0458 38.6399L35.4088 42.8926C36.6679 41.475 38.5024 40.5744 40.5537 40.5744C41.3125 40.5744 42.0463 40.6995 42.7301 40.9246L48.7673 30.468C49.1425 29.8093 49.993 29.5841 50.6435 29.9677ZM40.5537 43.3262C42.8302 43.3262 44.6813 45.169 44.6813 47.4538C44.6813 49.7302 42.8385 51.5814 40.5537 51.5814C38.2773 51.5814 36.4261 49.7386 36.4261 47.4538C36.4261 45.1773 38.2689 43.3262 40.5537 43.3262Z" fill="#FF6889"/>
<path fill-rule="evenodd" clip-rule="evenodd" d="M40.5544 43.218C42.8975 43.218 44.7904 45.1109 44.7904 47.454C44.7904 49.7972 42.8975 51.6901 40.5544 51.6901C38.2112 51.6901 36.3184 49.7972 36.3184 47.454C36.3184 45.1109 38.2112 43.218 40.5544 43.218Z" fill="url(#paint0_linear)"/>
<defs>
<linearGradient id="paint0_linear" x1="36.3184" y1="43.218" x2="45.8874" y2="44.7252" gradientUnits="userSpaceOnUse">
<stop stop-color="#E3EEFF"/>
<stop offset="0.526042" stop-color="#E4F6E4"/>
<stop offset="1" stop-color="#FFEEE4"/>
</linearGradient>
</defs>
</svg>
