<svg width="80" height="80" viewBox="0 0 80 80" fill="none" xmlns="http://www.w3.org/2000/svg">
<path fill-rule="evenodd" clip-rule="evenodd" d="M4.02741 64.2638C2.48406 61.9745 1.96532 59.2136 2.13681 56.1355C5.48931 42.3182 18.342 27.0476 27.4006 19.0693C27.3449 19.6309 27.3149 20.1968 27.3149 20.7713C27.3149 21.2772 27.3406 21.7745 27.3835 22.2675C17.9776 30.9789 7.41421 44.7876 4.49042 56.4785C4.3961 58.6477 4.68334 60.8599 5.84943 62.7247C8.49027 65.1041 12.4301 66.9647 15.684 68.2251C20.8071 70.2143 26.3288 71.5347 31.7606 72.3364C44.579 74.2227 58.4648 73.361 70.6059 68.6452C71.1203 68.4309 71.5833 68.1436 72.0035 67.7749C76.2005 64.0923 75.4846 52.7873 75.4717 47.5999V47.467L75.4846 47.3341C75.6261 46.0523 75.4246 44.8176 74.7729 43.6987C72.7194 40.1747 67.4849 39.2829 63.7808 39.6345C57.989 40.1875 52.9559 43.4328 49.9678 48.4144L48.9561 50.0993L47.1126 49.4133C42.011 47.5099 37.1752 48.2044 32.6609 51.2311L31.0961 52.2771L29.8443 57.7817C29.0769 57.606 28.3052 57.4302 27.5378 57.2587C28.4424 54.5536 28.6867 52.0971 28.9825 49.0918C29.154 46.7725 28.7339 45.4735 28.3095 43.2871C27.9751 41.5765 27.9622 40.0803 28.3181 38.3655C28.7682 36.192 29.7414 33.9841 30.766 31.9735C30.5602 31.3304 30.3544 30.6831 30.1486 30.04C30.916 31.1761 31.8206 32.2093 32.8409 33.1181C28.1166 42.4468 31.8549 42.4125 31.3447 49.2676C37.1709 45.3663 42.9027 45.3192 47.94 47.2012C56.9429 32.2007 79.1629 35.5146 77.8382 47.5999C77.8553 55.1537 78.7256 67.8821 71.4847 70.8445C45.2006 81.0649 13.4033 73.0438 4.0317 64.2638H4.02741ZM37.8825 66.1073C46.8511 67.0504 55.6611 66.4845 64.2781 64.0194C64.3382 64.804 64.4025 65.5928 64.4625 66.3773C55.8926 68.8638 47.0741 69.374 38.0669 68.4651C38.0069 67.6806 37.9426 66.8918 37.8825 66.1073Z" fill="#6B33B3"/>
<path fill-rule="evenodd" clip-rule="evenodd" d="M43.8716 4.21045C53.0159 4.21045 60.4326 11.6228 60.4326 20.7715C60.4326 29.9158 53.0202 37.3325 43.8716 37.3325C34.7272 37.3325 27.3105 29.9201 27.3105 20.7715C27.3105 11.6271 34.7229 4.21045 43.8716 4.21045ZM43.8716 6.57692C51.7127 6.57692 58.0661 12.9304 58.0661 20.7715C58.0661 28.6125 51.7127 34.966 43.8716 34.966C36.0305 34.966 29.677 28.6125 29.677 20.7715C29.677 12.9304 36.0305 6.57692 43.8716 6.57692Z" fill="#6B33B3"/>
<path d="M43.8713 34.966C51.7107 34.966 58.0658 28.6109 58.0658 20.7715C58.0658 12.932 51.7107 6.5769 43.8713 6.5769C36.0319 6.5769 29.6768 12.932 29.6768 20.7715C29.6768 28.6109 36.0319 34.966 43.8713 34.966Z" fill="url(#paint0_linear)"/>
<path fill-rule="evenodd" clip-rule="evenodd" d="M43.8718 11.3057C49.0977 11.3057 53.3334 15.5413 53.3334 20.7673C53.3334 25.9932 49.0977 30.2289 43.8718 30.2289C38.6458 30.2289 34.4102 25.9932 34.4102 20.7673C34.4102 15.5413 38.6458 11.3057 43.8718 11.3057ZM43.8718 13.6721C47.7902 13.6721 50.9669 16.8489 50.9669 20.7673C50.9669 24.6857 47.7902 27.8624 43.8718 27.8624C39.9534 27.8624 36.7766 24.6857 36.7766 20.7673C36.7766 16.8489 39.9534 13.6721 43.8718 13.6721Z" fill="#6B33B3"/>
<path d="M43.8715 27.8668C47.79 27.8668 50.9666 24.6902 50.9666 20.7716C50.9666 16.8531 47.79 13.6765 43.8715 13.6765C39.953 13.6765 36.7764 16.8531 36.7764 20.7716C36.7764 24.6902 39.953 27.8668 43.8715 27.8668Z" fill="url(#paint1_linear)"/>
<defs>
<linearGradient id="paint0_linear" x1="29.6768" y1="6.5769" x2="61.7419" y2="11.6275" gradientUnits="userSpaceOnUse">
<stop stop-color="#E3EEFF"/>
<stop offset="0.526042" stop-color="#E4F6E4"/>
<stop offset="1" stop-color="#FFEEE4"/>
</linearGradient>
<linearGradient id="paint1_linear" x1="36.7764" y1="13.6765" x2="52.8041" y2="16.201" gradientUnits="userSpaceOnUse">
<stop stop-color="#E3EEFF"/>
<stop offset="0.526042" stop-color="#E4F6E4"/>
<stop offset="1" stop-color="#FFEEE4"/>
</linearGradient>
</defs>
</svg>
