<svg width="80" height="80" viewBox="0 0 80 80" fill="none" xmlns="http://www.w3.org/2000/svg">
<path d="M31.3821 22.0483C31.3821 20.0537 33.0081 18.4277 35.0027 18.4277H46.1246C48.1192 18.4277 49.7452 20.0537 49.7452 22.0483V23.631H31.3821V22.0483ZM51.046 77.8315H30.0596C25.1165 74.3844 22.168 68.7475 22.168 62.7204C22.168 62.5036 22.168 62.2651 22.1896 62.0483C22.1896 62.005 22.1896 61.9399 22.1896 61.8966C22.1896 61.7882 22.2113 61.593 22.233 61.3546V61.3329C22.2981 60.5524 22.4065 59.7502 22.5582 58.9914V58.9697C22.7533 57.8207 23.0569 56.3681 23.5338 54.612L53.3875 42.818C53.8428 44.0321 54.3631 45.3546 54.9485 46.8288C57.1165 52.2489 58.1138 56.4332 58.5474 58.9697V58.9914C58.6991 59.7502 58.8075 60.5524 58.8726 61.3546C58.8943 61.593 58.9159 61.7665 58.9159 61.8966C58.9159 61.9399 58.9159 62.005 58.9159 62.0483C58.9159 62.2651 58.9376 62.4819 58.9376 62.7204C58.9593 68.7475 56.0108 74.3844 51.046 77.8315Z" fill="url(#paint0_linear)"/>
<path d="M61.1057 62.1569C61.1057 62.0919 61.1057 62.0485 61.1057 61.9835C61.1057 61.9618 61.1057 61.6799 61.0407 61.1813C60.9756 60.3141 60.8455 59.4252 60.6721 58.5797C60.2168 55.9347 59.1762 51.5986 56.9431 46.0268C52.9323 36.0322 52.1518 32.6284 52.0217 29.203C51.9133 26.4713 51.8699 25.3005 51.8699 24.8886C51.8699 24.8236 51.8916 24.7585 51.8916 24.7152V22.0485C51.8916 18.8615 49.29 16.2599 46.103 16.2599H44.065V5.91842C44.065 5.63657 43.9566 5.35473 43.7398 5.15961L38.9051 0.324919C38.6016 0.0213962 38.1247 -0.0870049 37.7344 0.0864369C37.3225 0.259879 37.0623 0.650123 37.0623 1.08373V16.2599H35.0027C31.8157 16.2599 29.2141 18.8615 29.2141 22.0485V24.7152C29.2141 24.7802 29.2141 24.8452 29.2358 24.8886C29.2358 25.3005 29.1924 26.4496 29.084 29.203C28.9323 32.6284 28.1734 36.0106 24.1626 46.0268C21.9079 51.5986 20.8889 55.913 20.4119 58.5797C20.2385 59.4252 20.1084 60.2924 20.0434 61.1813C20 61.6799 20 61.9618 20 61.9835C20 62.0485 20 62.0919 20 62.1569C20 62.352 20 62.5255 20 62.7206C20 69.5932 23.4038 75.9889 29.1274 79.8046C29.3008 79.9347 29.5176 79.978 29.7344 79.978H51.393C51.6098 79.978 51.8266 79.913 52 79.8046C57.7236 75.9672 61.1274 69.5932 61.1274 62.7206C61.1274 62.5255 61.1274 62.3303 61.1057 62.1569ZM49.8753 29.2897C50.0054 32.1298 50.5041 34.9049 52.6287 40.7802L44.1734 44.119V25.7775H49.7236C49.7669 26.4713 49.8103 27.577 49.8753 29.2897ZM39.2304 3.70703L41.897 6.35202V16.2599H39.2304V3.70703ZM31.3821 22.0485C31.3821 20.0539 33.0081 18.4279 35.0027 18.4279H46.1247C48.1192 18.4279 49.7453 20.0539 49.7453 22.0485V23.6312H31.3821V22.0485ZM42.0271 26.081V44.8344L39.1003 45.9618V26.081H42.0271ZM26.1572 46.829C30.2764 36.5309 31.0786 32.9753 31.2304 29.2897C31.2954 27.577 31.3388 26.4929 31.3604 25.7992H36.9106V47.0024L24.2927 51.9889C24.7913 50.4062 25.3984 48.6935 26.1572 46.829ZM51.0461 77.8317H30.0596C25.1165 74.3845 22.168 68.7477 22.168 62.7206C22.168 62.5038 22.168 62.2653 22.1897 62.0485C22.1897 62.0051 22.1897 61.9401 22.1897 61.8967C22.1897 61.7883 22.2114 61.5932 22.2331 61.3547V61.333C22.2981 60.5526 22.4065 59.7504 22.5583 58.9916V58.9699C22.7534 57.8209 23.0569 56.3683 23.5339 54.6122L53.3875 42.8181C53.8428 44.0322 54.3631 45.3547 54.9485 46.829C57.1165 52.249 58.1138 56.4333 58.5474 58.9699V58.9916C58.6992 59.7504 58.8076 60.5526 58.8726 61.3547C58.8943 61.5932 58.916 61.7667 58.916 61.8967C58.916 61.9401 58.916 62.0051 58.916 62.0485C58.916 62.2653 58.9377 62.4821 58.9377 62.7206C58.9594 68.7477 56.0108 74.3845 51.0461 77.8317Z" fill="#7ECA1D"/>
<defs>
<linearGradient id="paint0_linear" x1="22.168" y1="18.4277" x2="64.3286" y2="22.5382" gradientUnits="userSpaceOnUse">
<stop stop-color="#E3EEFF"/>
<stop offset="0.526042" stop-color="#E4F6E4"/>
<stop offset="1" stop-color="#FFEEE4"/>
</linearGradient>
</defs>
</svg>
