<svg width="24" height="24" viewBox="0 0 24 24" xmlns="http://www.w3.org/2000/svg">
    <path d="M19.26 8.855c-1.928-2.048-4.204-2.502-6.409-1.278a5.403 5.403 0 0 1-.491.252.733.733 0 0 0 .101-.372V6.336v-.018-.296c0-1.187.932-2.152 2.077-2.152a.705.705 0 0 0 .693-.718.705.705 0 0 0-.693-.717c-1.051 0-1.994.489-2.63 1.259C11.097 2.094 9.478 1 7.615 1H6.231a.705.705 0 0 0-.693.717v1.435c0 1.605.73 3.036 1.865 3.956-.943.288-1.836.874-2.658 1.747-1.771 1.882-2.066 4.443-1.454 7.005.606 2.535 1.952 4.604 2.922 5.607 1.287 1.33 2.897 2.027 4.473 1.13.402-.23.947-.572 1.317-.59.369.018.915.36 1.316.59 1.406.8 2.995.399 4.473-1.13 1.31-1.354 2.465-3.591 2.944-5.7.577-2.54.26-5.068-1.476-6.912zM6.923 3.152v-.717h.692c1.909 0 3.462 1.609 3.462 3.587V6.739h-.693c-1.908 0-3.461-1.609-3.461-3.587zm12.466 12.286c-.483 2.123-1.641 4.047-2.575 5.013-1.034 1.069-1.985 1.368-2.829.888-.529-.302-1.227-.75-1.967-.767h-.031c-.74.017-1.44.467-1.967.767-.844.48-1.795.181-2.83-.888-.91-.941-2.052-2.832-2.555-4.935-.39-1.633-.516-3.94 1.101-5.659C7.11 8.397 8.75 7.871 10.5 8.842c1.208.67 1.798.67 3.005 0 1.66-.921 3.262-.58 4.764 1.015 1.59 1.69 1.486 3.967 1.12 5.581z"/>
</svg>
