<svg width="48" height="48" viewBox="0 0 48 48" fill="none" xmlns="http://www.w3.org/2000/svg">
    <path fill-rule="evenodd" clip-rule="evenodd" d="M10.51 37.589c-2.11-2.184-4.12-4.725-5.194-7.592-.795-2.12-.966-4.112-.84-6.352.031-.546.077-1.092.122-1.638.011-.123.032-.242.06-.357 1.067-4.34 3.258-8.302 6.92-10.966 5.11-3.72 11.567-3.857 17.482-2.341 1.19-1.817 2.933-2.916 5.19-3.028a2.332 2.332 0 0 1 2.051 1.015c.466.676.546 1.526.218 2.279-.47 1.064-.585 2.156-.403 3.28 2.898 1.578 4.547 4.164 5.404 7.283.574-.014 1.117-.01 1.705.241a2.333 2.333 0 0 1 1.42 2.125c.025 1.641.046 3.283.07 4.928 0 .056 0 .112-.003.164-.035.634-.28 1.215-.745 1.649-.784.728-1.596.69-2.486.728-1.48 3.71-4.035 6.317-6.709 9.24-.399.438-.48 1.922-.444 2.506a2.329 2.329 0 0 1-.641 1.743 2.33 2.33 0 0 1-1.704.735h-4.655a2.352 2.352 0 0 1-2.349-2.285c0-.029-.003-.067-.003-.112-1.334.28-2.681.213-4.018-.078-.007.078-.014.154-.014.2a2.348 2.348 0 0 1-2.349 2.264h-4.767a2.346 2.346 0 0 1-2.341-2.187c-.085-1.211-.459-2.349-.977-3.437v-.007zM34.3 17.32c.882 0 1.599.718 1.599 1.6 0 .882-.718 1.6-1.6 1.6-.882 0-1.599-.718-1.599-1.6 0-.882.717-1.6 1.6-1.6zM13.828 41.614h4.767a.749.749 0 0 0 .749-.721c.031-.84.27-1.508.97-1.799a.728.728 0 0 1 .479-.032c1.498.403 2.986.498 4.456.043a.761.761 0 0 1 .294-.032c.689.066 1.008.718 1.035 1.82.011.406.344.728.75.728h4.655c.213 0 .395-.08.542-.235a.714.714 0 0 0 .203-.556c-.07-1.274.157-2.905.864-3.672 2.664-2.908 5.236-5.488 6.584-9.226a.735.735 0 0 1 .627-.49c.962-.101 2.254.158 2.317-.913v-.053c-.025-1.641-.046-3.283-.07-4.928a.732.732 0 0 0-.452-.675c-.448-.193-1.13-.095-1.736-.098a.742.742 0 0 1-.728-.578c-.735-3.136-2.233-5.66-5.106-7.084a.732.732 0 0 1-.4-.51c-.353-1.614-.224-3.165.431-4.652a.718.718 0 0 0-.07-.725.727.727 0 0 0-.654-.322c-1.877.095-3.266 1.047-4.218 2.78a.741.741 0 0 1-.858.36C17.41 6.757 8.777 11.587 6.212 22.028a.612.612 0 0 0-.018.115c-.364 4.19-.616 8.078 5.562 14.431.06.06.101.119.136.196.634 1.309 1.089 2.674 1.19 4.147a.749.749 0 0 0 .746.697z" fill="#7ECA1D"/>
    <path d="M14.549 23.708a9.16 9.16 0 1 0 0-18.32 9.16 9.16 0 0 0 0 18.32z" fill="url(#a)"/>
    <path fill-rule="evenodd" clip-rule="evenodd" d="M14.549 3.79c5.942 0 10.759 4.816 10.759 10.759 0 5.943-4.817 10.759-10.76 10.759S3.79 20.492 3.79 14.548C3.79 8.607 8.605 3.79 14.55 3.79zm.546 13.702h-1.418a.242.242 0 0 0-.242.242v.871a.242.242 0 0 1-.241.242h-1.005a.242.242 0 0 1-.241-.242v-.871a.242.242 0 0 0-.242-.242h-.727a.242.242 0 0 1-.242-.241v-.728c0-.133.108-.242.242-.242h.728a.242.242 0 0 0 .241-.241v-.133a.242.242 0 0 0-.242-.242h-.727a.242.242 0 0 1-.242-.241v-.728c0-.133.108-.242.242-.242h.728a.242.242 0 0 0 .241-.241v-3.724c0-.133.108-.242.242-.242h3.041c.949 0 1.705.249 2.272.742.567.494.85 1.152.85 1.97 0 .837-.27 1.492-.809 1.968-.538.476-1.288.717-2.247.731h-1.623a.242.242 0 0 0-.242.242v.133c0 .133.108.241.242.241h1.417c.133 0 .242.109.242.242v.728a.242.242 0 0 1-.242.241l.004.007zm-1.418-3.03h1.537c.531 0 .944-.127 1.225-.372.283-.248.423-.616.423-1.106 0-.44-.14-.801-.416-1.078-.277-.28-.659-.423-1.145-.437h-1.624a.242.242 0 0 0-.242.241v2.513c0 .133.109.242.242.242v-.004zm.872-9.07a9.161 9.161 0 0 1 9.159 9.16 9.161 9.161 0 0 1-9.16 9.16 9.161 9.161 0 0 1-9.159-9.16 9.161 9.161 0 0 1 9.16-9.16z" fill="#7ECA1D"/>
    <defs>
        <linearGradient id="a" x1="5.389" y1="5.389" x2="26.081" y2="8.648" gradientUnits="userSpaceOnUse">
            <stop stop-color="#E3EEFF"/>
            <stop offset=".526" stop-color="#E4F6E4"/>
            <stop offset="1" stop-color="#FFEEE4"/>
        </linearGradient>
    </defs>
</svg>
