<svg width="24" height="24" viewBox="0 0 24 24" xmlns="http://www.w3.org/2000/svg">
    <path d="M21.167 3.667h-4.31a2.5 2.5 0 0 0-4.714 0H10.19a2.5 2.5 0 0 0-4.715 0H2.833A.833.833 0 0 0 2 4.5v16.667c0 .46.373.833.833.833h18.334c.46 0 .833-.373.833-.833V4.5a.833.833 0 0 0-.833-.833zm-17.5 1.666h2.5c.46 0 .833-.373.833-.833a.833.833 0 1 1 .833.833.833.833 0 1 0 0 1.667 2.5 2.5 0 0 0 2.358-1.667h2.642c.46 0 .834-.373.834-.833a.833.833 0 1 1 .833.833.833.833 0 0 0 0 1.667 2.5 2.5 0 0 0 2.357-1.667h3.476v2.5H3.667v-2.5zm16.666 15H3.667V9.5h16.666v10.833z"/>
</svg>
