<svg width="24" height="24" viewBox="0 0 24 24" xmlns="http://www.w3.org/2000/svg">
    <path fill-rule="evenodd" clip-rule="evenodd" d="M19.372 10.88a8.63 8.63 0 0 1 .334 5.463l-.166.665a25.787 25.787 0 0 1-2.133 5.656l-.174.336H6.767l-.174-.336a25.785 25.785 0 0 1-2.133-5.656l-.166-.665a8.63 8.63 0 0 1 .334-5.463l1.383-3.405c.39-.96.596-4.174.533-5.346L6.482 1h11.036l-.062 1.129c-.063 1.172.143 4.387.533 5.346l1.383 3.405zM7.776 2.29c.03 1.33-.156 4.505-.638 5.691L6.575 9.37c3.36 1.4 7.49 1.4 10.85 0l-.563-1.388c-.482-1.186-.668-4.361-.638-5.692H7.776zm-.278 19.42h3.89V17.93c-.45-.98-1.489-2.353-3.884-3.557a15.615 15.615 0 0 0-2.25-.914 7.275 7.275 0 0 0 .222 2.54l.003.013.167.671a24.472 24.472 0 0 0 1.852 5.029zM5.755 11.387a7.195 7.195 0 0 0-.27.798c1.386.423 4.786 1.687 6.515 4.302 1.729-2.615 5.13-3.879 6.515-4.302a7.202 7.202 0 0 0-.27-.798l-.338-.831c-1.804.757-3.832 1.155-5.907 1.155s-4.103-.398-5.907-1.155l-.338.831zm12.6 5.296l.17-.684a7.273 7.273 0 0 0 .22-2.538c-1.444.46-4.92 1.815-6.132 4.468v3.783h3.889a24.48 24.48 0 0 0 1.853-5.029zM12 6.59a.613.613 0 0 0-.613.613v.063a.613.613 0 0 0 1.226 0v-.063A.613.613 0 0 0 12 6.589z"/>
</svg>
