<svg width="24" height="24" viewBox="0 0 24 24" xmlns="http://www.w3.org/2000/svg">
    <path d="M2.862 12.835a3.48 3.48 0 0 0 3.39 2.994c.42.976 1.459 3.69 1.395 6.512A.645.645 0 0 0 8.29 23h7.441c.383 0 .681-.332.641-.712-.004-.042-.413-4.166 1.33-6.222a3.47 3.47 0 0 0 2.006-1.942h.007A3.288 3.288 0 0 0 23 10.84a3.292 3.292 0 0 0-1.8-2.93 3.927 3.927 0 0 0-5.803-4.243 4.378 4.378 0 0 0-7.964-.21A3.497 3.497 0 0 0 2.515 7.69a2.814 2.814 0 0 0 .347 5.145zm12.185 8.876H8.933c-.075-2.597-.906-4.966-1.377-6.112.133-.052.262-.111.389-.18a4.02 4.02 0 0 0 1.822 1.032l1.09 3.093a1.363 1.363 0 0 0 2.569-.002l1.31-3.735c.396.233.84.387 1.306.448-.975 1.878-1.036 4.278-.995 5.456zm-3.874-5.15a4.084 4.084 0 0 0 2.272-.97c-1.332 3.8-1.23 3.573-1.304 3.573-.075 0-.005.133-.968-2.603zM3.52 8.69a.645.645 0 0 0 .425-.973 2.206 2.206 0 0 1 1.873-3.365c.555 0 1.085.208 1.493.584a.645.645 0 0 0 1.062-.316 3.083 3.083 0 0 1 2.994-2.33 3.077 3.077 0 0 1 3.043 2.567.645.645 0 0 0 1.093.346 2.615 2.615 0 0 1 1.867-.777 2.636 2.636 0 0 1 2.44 3.624.645.645 0 0 0 .428.866 1.998 1.998 0 0 1 1.472 1.925 1.997 1.997 0 0 1-2.346 1.963.644.644 0 0 0-.74.493 2.174 2.174 0 0 1-2.132 1.7 2.188 2.188 0 0 1-2.002-1.31.645.645 0 0 0-1.175-.012 2.791 2.791 0 0 1-2.525 1.617 2.76 2.76 0 0 1-2.218-1.105.645.645 0 0 0-.914-.116c-.39.308-.859.472-1.355.472a2.188 2.188 0 0 1-2.185-2.213.644.644 0 0 0-.544-.636 1.527 1.527 0 1 1-.053-3.003z"/>
</svg>
