<svg width="24" height="24" viewBox="0 0 24 24" xmlns="http://www.w3.org/2000/svg">
    <path fill-rule="evenodd" clip-rule="evenodd" d="M19.735 23h-6.446a.645.645 0 0 1-.644-.645v-2.974a4.164 4.164 0 0 1-1.246.007v2.967a.644.644 0 0 1-.645.645H4.275a.645.645 0 0 1-.611-.44 14.71 14.71 0 0 1-.354-8.064c.349-1.466 1.034-2.821 1.735-4.21.606-1.198 1.224-2.422 1.649-3.762a6.306 6.306 0 0 0-.417-4.591A.645.645 0 0 1 6.853 1h10.303a.644.644 0 0 1 .577.933 6.273 6.273 0 0 0-.343 4.82c.42 1.262 1.005 2.414 1.578 3.545.699 1.379 1.381 2.725 1.732 4.198a14.709 14.709 0 0 1-.354 8.063.644.644 0 0 1-.611.441zm-5.801-1.29h5.328c.506-1.713.663-3.506.468-5.276-2.121-.195-3.98.538-5.796 2.282v2.995zM7.929 6.892l-.004.015c-.456 1.44-1.101 2.719-1.724 3.952-.189.374-.376.743-.554 1.112.24.099.518.246.84.415 1.179.621 2.938 1.549 5.513 1.549 2.577 0 4.34-.93 5.52-1.552.322-.17.6-.317.84-.416-.177-.364-.361-.729-.548-1.097-.588-1.16-1.195-2.358-1.645-3.708a7.548 7.548 0 0 1 .02-4.872H7.822a7.59 7.59 0 0 1 .107 4.602zm-3.65 9.542a13.411 13.411 0 0 0 .469 5.278h5.362v-2.953c-1.828-1.77-3.696-2.517-5.83-2.325zm6.88 1.515c.116.093.244.195.841.195.478 0 .773-.107.836-.157 1.906-1.904 4.035-2.998 6.684-2.859a10.927 10.927 0 0 0-.625-1.987c-.223.091-.492.233-.81.4-1.233.647-3.205 1.683-6.085 1.683-2.882 0-4.856-1.038-6.083-1.682a10.169 10.169 0 0 0-.803-.396 10.923 10.923 0 0 0-.624 1.982c2.594-.133 4.685.915 6.556 2.745.045.022.079.049.113.076zM12.645 12a.644.644 0 1 1-1.29 0 .644.644 0 0 1 1.29 0zm-11-5.844H2.71l-.19.189a.645.645 0 1 0 .912.912l1.29-1.29a.646.646 0 0 0 0-.911l-1.29-1.29a.645.645 0 1 0-.911.912l.189.19H1.645a.645.645 0 0 0 0 1.288zm19.834-2.39a.645.645 0 0 1 0 .912l-.189.19h1.066a.645.645 0 0 1 0 1.288H21.29l.19.19a.645.645 0 0 1-.912.91l-1.29-1.288a.646.646 0 0 1 0-.912l1.29-1.29a.645.645 0 0 1 .911 0z"/>
</svg>
