<svg width="24" height="24" viewBox="0 0 24 24" fill="none" xmlns="http://www.w3.org/2000/svg">
    <path d="M22.355 6.001h-5.827v-1.32C16.528 3.203 15.36 2 13.925 2h-3.85C8.64 2 7.472 3.203 7.472 4.681v1.32H1.645A.655.655 0 0 0 1 6.665V18.73C1 20.533 2.424 22 4.174 22h15.652C21.576 22 23 20.533 23 18.73V6.664a.655.655 0 0 0-.645-.664zm-8.893 8.666c0 .831-.656 1.507-1.462 1.507-.806 0-1.462-.676-1.462-1.507v-1.506h2.924v1.506zm.645-2.835H9.893a.655.655 0 0 0-.645.664v1.207C5.5 12.865 2.691 10.36 2.33 7.329h19.342c-.362 3.03-3.171 5.536-6.92 6.374v-1.206a.655.655 0 0 0-.644-.665zm-5.346-7.15c0-.747.59-1.354 1.314-1.354h3.85c.724 0 1.314.607 1.314 1.353v1.32H8.76v-1.32zm12.95 14.047c0 1.072-.846 1.943-1.885 1.943H4.174c-1.04 0-1.885-.872-1.885-1.943v-7.975a9.2 9.2 0 0 0 2.002 2.1c1.404 1.086 3.119 1.84 4.985 2.212.189 1.375 1.338 2.436 2.724 2.436 1.386 0 2.535-1.061 2.724-2.436 1.866-.372 3.58-1.126 4.985-2.211a9.2 9.2 0 0 0 2.002-2.101v7.975z" fill="#000"/>
</svg>
