<svg width="24" height="24" viewBox="0 0 24 24" xmlns="http://www.w3.org/2000/svg">
    <path d="M21.99 14.021c-.823-1.074-2.067-1.62-3.699-1.62-1.89 0-3.647.844-4.82 2.284a5.426 5.426 0 0 0-5.517.196c.098-1.778.026-4.603-1.025-7.14.3-.32.91-.797 1.753-.572a1.913 1.913 0 0 0 1.899-.55c.97-1.044 1.256-2.265.807-3.439C10.676 1.32 9.399 1.016 8.7 1c-.917-.019-1.957.409-2.928 1.206-.858.705-1.572 1.618-1.956 2.505-.591 1.366-1.415 4.974-1.968 7.944-.435 2.333-1.11 6.424-.744 7.616.075.247.29.429.548.464.021.002 2.176.304 4.911 1.517C7.62 22.72 9.702 23 11.97 23c.385 0 .776-.008 1.167-.025 1.89-.08 5.403-.435 7.697-1.914 1.417-.913 2.166-2.15 2.166-3.575 0-1.403-.35-2.6-1.01-3.465zm-1.882 5.928c-3.508 2.261-11.112 1.93-13 1.093-2.142-.95-3.939-1.373-4.775-1.535-.039-.926.188-3.175.828-6.61.628-3.373 1.42-6.595 1.882-7.662.588-1.356 2.277-2.91 3.594-2.91h.036c.24.006.968.022 1.467 1.326.268.699.086 1.395-.54 2.068a.585.585 0 0 1-.571.17c-1.73-.462-3.004.716-3.436 1.403a.66.66 0 0 0-.04.626c1.526 3.327 1.045 7.531.929 8.367a5.327 5.327 0 0 0-.863 1.931.667.667 0 0 0 1.303.286c.406-1.826 2.07-3.152 3.955-3.152.86 0 1.681.264 2.375.764l.01.006.01.008c.463.308 1.062 1.061 1.253 1.326a.668.668 0 0 0 .931.151.66.66 0 0 0 .153-.925 9.586 9.586 0 0 0-1.056-1.214 4.863 4.863 0 0 1 3.738-1.739c2.79 0 3.375 2.044 3.375 3.76 0 .981-.51 1.787-1.558 2.462z"/>
</svg>
