<svg width="24" height="24" viewBox="0 0 24 24" xmlns="http://www.w3.org/2000/svg">
    <path fill-rule="evenodd" clip-rule="evenodd" d="M20.845 9.303c.054.156.482.485.74.682l.001.001c.63.485 1.414 1.089 1.414 2.01 0 .93-.796 1.553-1.436 2.052l-.013.01c-.253.199-.663.52-.716.666-.05.155.087.67.17.979v.002c.212.791.452 1.69-.107 2.416-.554.72-1.519.783-2.37.838h-.005c-.342.022-.914.058-1.059.159-.144.1-.354.59-.484.892l-.007.015-.002.004c-.32.749-.682 1.594-1.57 1.88-.9.293-1.748-.219-2.43-.63l-.005-.003c-.307-.186-.773-.466-.966-.466-.197 0-.662.278-.975.466l-.01.006-.011.006c-.566.338-1.194.712-1.873.712-.172 0-.35-.024-.529-.08-.892-.273-1.257-1.127-1.579-1.88v-.002c-.13-.304-.347-.81-.49-.909-.14-.096-.674-.131-1.013-.154l-.033-.002h-.002c-.811-.051-1.819-.116-2.392-.833-.588-.739-.33-1.678-.123-2.433l.001-.003c.085-.307.227-.822.173-.98-.056-.16-.466-.484-.738-.697C1.78 13.534 1 12.92 1 11.996c0-.93.794-1.55 1.433-2.05l.002-.001.005-.004c.253-.198.671-.524.726-.672.05-.154-.086-.66-.17-.973l-.005-.017c-.213-.785-.454-1.674.084-2.395.547-.733 1.52-.795 2.378-.85h.002c.343-.022.919-.058 1.063-.16.146-.1.358-.597.488-.9l.003-.006.003-.008c.32-.746.682-1.59 1.57-1.876.904-.29 1.762.233 2.448.656l.005.003c.311.191.776.476.965.476.195 0 .66-.276.974-.464l.012-.008c.714-.428 1.525-.914 2.412-.64.892.273 1.257 1.127 1.578 1.88.13.305.347.812.492.911.14.096.682.132 1.022.155l.024.001h.002c.814.052 1.826.116 2.39.843.565.733.313 1.663.11 2.411v.002c-.084.31-.225.831-.17.993zm-1.734 4.877c.216-.616.766-1.046 1.298-1.46l.008-.006c.25-.196.698-.548.762-.714-.066-.156-.48-.476-.72-.662l-.02-.014c-.516-.397-1.103-.848-1.322-1.49-.217-.636-.029-1.333.137-1.949l.001-.003c.086-.312.227-.835.171-.987-.107-.062-.677-.098-1.023-.12l-.01-.002c-.7-.043-1.422-.09-1.989-.477-.57-.388-.846-1.035-1.113-1.66l-.003-.006c-.13-.302-.343-.801-.482-.896-.1.02-.563.299-.844.467l-.005.003c-.577.346-1.232.738-1.957.738-.728 0-1.382-.402-1.959-.757l-.005-.003c-.28-.172-.742-.456-.91-.458-.083.076-.302.586-.431.892-.265.618-.538 1.257-1.103 1.65-.57.395-1.305.442-2.015.487-.339.021-.904.058-1.043.152-.011.1.128.612.214.93l.004.016.002.006c.175.653.357 1.328.135 1.957-.216.616-.766 1.046-1.298 1.46-.256.2-.734.573-.775.735.04.132.502.497.752.694h.001c.51.402 1.088.858 1.305 1.492.215.634.026 1.328-.142 1.94l-.002.006c-.086.31-.229.832-.173.984.111.071.723.11 1.051.13.7.045 1.421.09 1.988.477.57.389.846 1.035 1.113 1.662l.006.013c.13.303.34.794.479.889.094-.02.518-.273.8-.442l.05-.029.004-.003c.577-.345 1.23-.736 1.952-.736.723 0 1.37.39 1.94.733l.005.004.023.013c.279.169.722.435.883.435.09-.077.308-.588.437-.893.264-.619.538-1.258 1.103-1.65.569-.396 1.333-.445 2.007-.488h.004c.34-.02.91-.057 1.049-.156.019-.108-.12-.629-.205-.947l-.002-.009-.001-.002c-.173-.648-.353-1.32-.132-1.946zm-4.326-5.32a.942.942 0 0 1 1.28-.109.83.83 0 0 1 .114 1.213l-4.691 5.315a.925.925 0 0 1-.658.307c-.012.002-.026.002-.039.002a.93.93 0 0 1-.643-.252l-2.427-2.3a.829.829 0 0 1 0-1.218.944.944 0 0 1 1.286 0l1.724 1.633 4.054-4.592z"/>
</svg>
