<svg width="24" height="24" viewBox="0 0 24 24" xmlns="http://www.w3.org/2000/svg">
    <path d="M20.957 8.578H18.6V4.513C18.6 3.127 17.553 2 16.267 2H3.334C2.047 2 1 3.127 1 4.513v7.607c0 1.385 1.047 2.512 2.334 2.512h1.699v2.63c0 .32.179.609.453.73.091.041.187.061.281.061.191 0 .38-.08.52-.232l2.045-2.202v1.383c0 1.213.917 2.2 2.044 2.2h5.686l2.384 2.566c.141.152.329.232.52.232.095 0 .19-.02.28-.06a.793.793 0 0 0 .454-.73V19.2h1.257c1.126 0 2.043-.986 2.043-2.2v-6.223c0-1.213-.917-2.2-2.043-2.2zm-15.19 4.473H3.334c-.477 0-.865-.418-.865-.931V4.513c0-.514.388-.932.865-.932h12.932c.477 0 .866.418.866.932v7.607c0 .513-.389.931-.866.931H8.945a.71.71 0 0 0-.52.232l-1.923 2.07v-1.511c0-.437-.33-.79-.735-.79zm15.764 3.95c0 .342-.258.62-.574.62h-1.991c-.406 0-.735.353-.735.79v.89l-1.346-1.45a.709.709 0 0 0-.519-.23h-5.99c-.317 0-.575-.278-.575-.62v-2.369h6.465c1.287 0 2.335-1.127 2.335-2.512v-1.96h2.356c.316 0 .574.277.574.618v6.224z"/>
</svg>
