<svg width="24" height="24" viewBox="0 0 24 24" xmlns="http://www.w3.org/2000/svg">
    <path fill-rule="evenodd" clip-rule="evenodd" d="M16.305 3.667v3.002C17.942 7.91 19 9.836 19 12c0 2.164-1.058 4.09-2.695 5.33v3.003c0 .92-.772 1.667-1.722 1.667H9.417c-.95 0-1.722-.747-1.722-1.667v-3.002C6.058 16.09 5 14.164 5 12c0-2.164 1.058-4.09 2.695-5.33V3.666c0-.92.772-1.667 1.722-1.667h5.166c.95 0 1.722.748 1.722 1.667zm-1.722 2.042V3.667H9.416v2.042a7.15 7.15 0 0 1 5.167 0zM9.417 18.291v2.042h5.166v-2.042a7.15 7.15 0 0 1-5.166 0zM6.722 12c0 2.817 2.368 5.108 5.278 5.108 2.91 0 5.278-2.291 5.278-5.108 0-2.817-2.368-5.108-5.278-5.108-2.91 0-5.278 2.291-5.278 5.108zm6.297-.24l1.385 1.182c.356.305.39.831.076 1.176a.873.873 0 0 1-.647.282.877.877 0 0 1-.569-.208l-1.834-1.567A.822.822 0 0 1 11.14 12V9.5c0-.46.386-.833.861-.833s.861.373.861.833v1.91l.158.35z"/>
</svg>
