<svg width="24" height="24" viewBox="0 0 24 24" xmlns="http://www.w3.org/2000/svg">
    <path d="M13.265 11.95l2.41 2.412a.852.852 0 1 1-1.205 1.205l-2.41-2.41-2.412 2.41a.852.852 0 1 1-1.205-1.205l2.41-2.411-2.41-2.411a.852.852 0 1 1 1.205-1.206l2.411 2.411 2.411-2.411a.852.852 0 1 1 1.206 1.206l-2.411 2.41z"/>
    <path fill-rule="evenodd" clip-rule="evenodd" d="M4.223 4.223c4.291-4.29 11.273-4.29 15.564 0 4.291 4.291 4.29 11.273 0 15.564-4.29 4.29-11.273 4.29-15.564 0-4.29-4.291-4.29-11.273 0-15.564zM5.43 5.43c-3.626 3.626-3.626 9.527 0 13.152 3.626 3.627 9.526 3.627 13.152 0 3.627-3.626 3.626-9.527 0-13.152-3.625-3.626-9.526-3.627-13.152 0z"/>
</svg>
