<svg width="130" height="124" viewBox="0 0 130 124" fill="none" xmlns="http://www.w3.org/2000/svg">
<path d="M130 61.5127C130 95.4771 102.32 123.025 68.1367 123.025C33.9788 123 6.27344 95.4771 6.27344 61.5127C6.27344 27.5483 33.9788 0 68.1367 0C102.295 0 130 27.5483 130 61.5127Z" fill="#D2763E"/>
<path d="M123.701 61.5127C123.701 95.4771 96.0213 123.025 61.8377 123.025C27.7053 123 0 95.4771 0 61.5127C0 27.5483 27.7053 0 61.8633 0C96.0213 0 123.701 27.5483 123.701 61.5127Z" fill="#FECB50"/>
<path d="M109.08 61.5127C109.08 87.4316 87.9299 108.462 61.8633 108.462C35.7712 108.462 14.6465 87.4316 14.6465 61.5127C14.6465 35.5939 35.7712 14.538 61.8633 14.538C87.9299 14.538 109.08 35.5684 109.08 61.5127Z" fill="#BF6718"/>
<path d="M109.08 61.5127C109.08 85.9803 89.1336 105.814 64.5265 105.814C39.9195 105.814 19.9727 85.9803 19.9727 61.5127C19.9727 37.0451 39.9195 17.2113 64.5265 17.2113C89.1336 17.1859 109.08 37.0197 109.08 61.5127Z" fill="#F6A33E"/>
<path d="M16.2084 73.6065L3.35434 81.4993C1.17786 75.236 0 68.5144 0 61.4873C0 60.9526 0 60.4434 0.0256057 59.9342L16.0292 50.0809C15.1073 53.7473 14.6208 57.5409 14.6208 61.4618C14.6208 65.6883 15.1842 69.7365 16.2084 73.6065Z" fill="#FFF151"/>
<path d="M106.007 18.4334L93.1533 26.3262C87.264 21.1322 80.0432 17.3895 72.1055 15.6327L88.1346 5.80493C94.8433 8.93658 100.886 13.2394 106.007 18.4334Z" fill="#FFF151"/>
<path d="M23.9157 89.4939L11.4458 97.1575C9.49975 94.4332 7.75857 91.5562 6.27344 88.5264L18.7946 80.8373C20.2029 83.8925 21.9185 86.7951 23.9157 89.4939Z" fill="#BF6718"/>
<path d="M116.48 32.6149L104.01 40.304C102.474 37.2742 100.63 34.4481 98.4795 31.8766L111.001 24.1875C113.049 26.8354 114.867 29.6361 116.48 32.6149Z" fill="#BF6718"/>
<path d="M51.6209 107.342L35.5918 117.195C30.061 114.623 25.0166 111.263 20.5356 107.265L33.6714 99.1943C38.9205 103.064 44.9891 105.89 51.6209 107.342Z" fill="#F69F1D"/>
<path d="M123.701 61.4873C123.701 62.0219 123.701 62.5312 123.675 63.0404L107.569 72.9445C108.542 69.2782 109.08 65.4337 109.08 61.4873C109.08 58.6866 108.824 55.9623 108.312 53.289L121.499 45.1925C122.933 50.3865 123.701 55.8605 123.701 61.4873Z" fill="#F69F1D"/>
<path d="M60.9669 30.5526C59.8915 30.4762 59.7123 30.629 59.7379 31.6983C59.7379 34.7791 59.7635 37.8598 59.7635 40.9151C59.7635 41.4497 59.7379 41.9589 59.6867 42.4936C59.6354 43.0028 59.3282 43.3084 58.8161 43.4102C58.5344 43.4611 58.2527 43.4611 57.9711 43.4611C56.1531 43.4611 55.9226 43.232 55.9226 41.4497C55.9226 38.369 55.9226 35.2883 55.9226 32.233C55.9226 30.629 55.8714 30.6035 54.2582 30.5781C53.3364 30.5526 53.1828 30.7054 53.1828 31.622C53.1828 34.9318 53.2084 38.2162 53.2084 41.5261C53.2084 43.2065 52.9011 43.512 51.2112 43.4866C49.6748 43.4866 49.3932 43.2065 49.3932 41.6789C49.3932 38.5472 49.3932 35.4156 49.3932 32.2839C49.3932 31.9275 49.342 31.5965 49.3164 31.24C49.2907 30.8836 49.0859 30.6545 48.7274 30.629C48.3177 30.5781 47.9336 30.5526 47.524 30.5781C46.6534 30.5781 46.5509 30.7054 46.5509 31.5456C46.5509 33.4551 46.5509 35.3647 46.5509 37.2487C46.5509 37.4779 46.4997 37.707 46.4741 37.9107C46.4741 39.7693 46.4741 41.628 46.4741 43.4611C46.4997 43.6903 46.5253 43.9449 46.5509 44.174C46.6022 45.3961 46.5509 46.6182 46.679 47.8403C46.9094 50.1063 48.5482 51.9649 50.8271 52.1432C53.2852 52.3469 55.769 52.3214 58.2271 52.1177C59.9683 51.9904 61.2998 50.8701 61.9143 49.1897C62.2216 48.3495 62.3752 47.382 62.3752 46.4909C62.4265 41.6789 62.4009 36.8414 62.4009 32.0293C62.3752 30.7054 62.324 30.6545 60.9669 30.5526Z" fill="#C77000"/>
<path d="M75.4853 84.3508C74.7171 84.58 73.9746 84.8346 73.232 85.0383C72.4382 85.2419 71.6188 85.4456 70.8251 85.5475C70.1081 85.6493 69.3912 85.5984 68.6742 85.6748C67.65 85.7766 67.061 86.3877 67.061 87.3806C67.061 88.2463 67.1635 89.1119 67.2659 89.9521C67.4195 91.0724 68.1621 92.1417 69.3143 92.2181C69.3912 92.2181 69.468 92.3709 69.5704 92.4473C70.9019 92.4473 72.2334 92.4473 73.5905 92.4473C73.7185 92.3709 73.8465 92.2436 74.0002 92.2181C75.1012 91.9635 75.9206 91.3779 76.151 90.2322C76.2791 89.5702 76.4071 88.8828 76.4327 88.1954C76.4839 87.126 76.4327 86.0567 76.4071 84.9873C76.3559 84.7073 75.7157 84.2744 75.4853 84.3508Z" fill="#C77000"/>
<path d="M75.3829 69.2017C75.7926 69.2017 75.9206 68.9471 75.9462 68.5907C75.9974 67.7759 76.0998 66.9612 76.0998 66.1465C76.2023 61.0798 76.2791 56.0132 76.3559 50.9465C76.3303 50.9465 76.3047 50.9465 76.2791 50.9465C76.2791 50.31 76.2791 49.648 76.2791 49.0115C76.2535 43.8176 76.3303 38.5981 75.9462 33.4042C75.8438 31.9529 75.4853 31.4437 74.1026 31.0109C72.6943 30.5781 71.2604 30.5017 69.8265 30.7308C67.9317 31.0109 66.7538 32.1057 66.2161 33.9389C65.6528 35.8484 65.6015 37.8089 65.5247 39.7439C65.3711 44.7596 65.2687 49.7753 65.1919 54.7911C65.1406 58.5338 65.0894 62.3019 65.4991 66.0446C65.6784 67.5977 66.0624 68.1579 67.5988 68.5143C70.1593 69.0999 72.7711 69.1254 75.3829 69.2017Z" fill="#C77000"/>
<path d="M59.6096 55.5294C59.6096 55.1475 59.5584 54.7656 59.5072 54.3837C59.4304 53.849 59.1231 53.5944 58.5854 53.5689C57.9965 53.5435 57.3819 53.4926 56.793 53.4926C54.5909 53.518 52.3632 53.5435 50.1611 53.6199C49.1113 53.6708 48.8809 54.0018 48.8809 55.0202C48.8809 57.7954 48.8809 60.5706 48.9065 63.3458C48.9065 64.2369 48.9833 65.128 49.0345 66.0191C49.0601 66.4774 49.2906 66.732 49.7771 66.8084C50.9805 67.0121 52.1584 67.2413 53.3362 67.4704C55.103 67.8014 56.8954 68.1324 58.6622 68.4379C59.456 68.5652 59.6865 68.3361 59.6865 67.5468C59.6865 65.4845 59.6865 63.4222 59.6865 61.3599C59.6609 61.3599 59.6096 61.3599 59.584 61.3599C59.6096 59.4249 59.6352 57.4899 59.6096 55.5294Z" fill="#C77000"/>
<path d="M48.574 68.7435C48.5996 69.7619 48.574 70.7804 48.574 71.7733C48.574 72.7663 48.574 73.8102 48.574 74.8031C48.574 74.9559 48.6252 75.1341 48.702 75.2869C49.0093 76.0507 49.7518 76.0507 50.3664 76.1271C51.2114 76.2289 52.082 76.2544 52.9269 76.2544C54.8218 76.2289 56.7166 76.2035 58.5858 76.1525C58.9443 76.1525 59.354 76.0252 59.6612 75.847C59.8661 75.7197 60.0965 75.4142 60.0965 75.185C60.1477 73.9375 60.1477 72.7154 60.0965 71.4678C60.0709 70.8058 60.0197 70.0929 59.4052 69.7365C58.8675 69.4055 58.2273 69.1763 57.6128 69.0236C56.7678 68.8199 55.8972 68.718 55.0266 68.5653C53.9256 68.3616 52.8245 68.1324 51.7235 67.9542C51.0833 67.8524 50.4176 67.8015 49.7775 67.7251C49.1885 67.6487 48.5484 68.0306 48.574 68.7435Z" fill="#C77000"/>
<path d="M48.4456 83.1287C48.4712 83.9434 48.8041 84.249 49.649 84.249C50.8013 84.2744 51.928 84.249 53.0802 84.249C53.0802 84.2744 53.0802 84.3253 53.0802 84.3508C54.5653 84.2744 56.0249 84.2235 57.51 84.0962C58.9951 83.9689 59.8401 83.3069 60.0706 81.8302C60.2498 80.659 60.2498 79.4369 60.2498 78.2402C60.2498 77.3746 59.9938 77.1709 59.1488 77.1454C57.3308 77.0945 55.5128 77.0181 53.6947 76.9672C52.2096 76.9418 50.7501 76.9418 49.265 76.9672C48.6248 76.9672 48.4456 77.1454 48.4456 77.782C48.3944 79.5642 48.42 81.3465 48.4456 83.1287Z" fill="#C77000"/>
<path d="M58.8928 85.14C57.6381 85.14 56.3578 85.14 55.1031 85.14C55.1031 85.1655 55.1031 85.2164 55.1031 85.2419C53.3875 85.2419 51.672 85.2419 49.9564 85.2419C49.265 85.2419 48.6761 85.6747 48.5993 86.3367C48.3944 87.7879 48.2664 89.2392 48.9322 90.614C49.1626 91.0723 49.6235 91.607 50.11 91.7343C50.9294 91.9889 51.8512 92.0398 52.7218 92.0907C54.6422 92.1671 56.5626 92.1162 58.4575 91.7852C59.0976 91.6834 59.8914 91.0469 60.0706 90.4103C60.4803 89.01 60.5059 87.5842 60.173 86.1584C59.9426 85.2419 59.8402 85.14 58.8928 85.14Z" fill="#C77000"/>
<path d="M68.3671 84.7837C69.4938 84.911 70.5692 84.5545 71.6446 84.3254C72.7713 84.0708 73.8723 83.8162 75.0246 83.6634C75.9976 83.5361 76.7402 83.0778 76.6889 82.3395C76.6377 81.1937 76.5097 80.0735 76.3561 78.9532C76.2537 78.2912 75.7415 77.9093 75.0502 77.8329C74.41 77.782 73.7699 77.7311 73.1298 77.6802C71.6702 77.7566 70.2363 77.8839 68.8024 77.9093C67.9062 77.9348 67.138 78.5713 67.2661 79.437C67.2917 79.6152 67.2917 79.7934 67.2405 79.9462C66.9076 81.2956 67.01 82.6195 67.3173 83.9435C67.4197 84.4272 67.855 84.7073 68.3671 84.7837Z" fill="#C77000"/>
<path d="M75.5108 70.5766C73.3087 69.8637 71.0554 69.4564 68.7253 69.8128C67.8035 69.9656 67.3169 70.322 67.2913 71.2386C67.2401 72.6389 67.2401 74.0647 67.2913 75.465C67.3169 76.3307 67.701 76.6362 68.5716 76.6362C69.4934 76.6617 70.4408 76.6362 71.3626 76.6362C71.3626 76.6108 71.3626 76.6108 71.3626 76.5853C72.4125 76.5853 73.4623 76.6362 74.5121 76.5599C75.7924 76.4835 76.1765 76.0761 76.2533 74.8285C76.3045 73.7592 76.2789 72.6644 76.2789 71.595C76.3045 71.0858 75.9973 70.7549 75.5108 70.5766Z" fill="#C77000"/>
<path d="M63.5275 30.5526C62.4521 30.4762 62.2728 30.629 62.2984 31.6983C62.2984 34.7791 62.324 37.8598 62.324 40.9151C62.324 41.4497 62.2984 41.9589 62.2472 42.4936C62.196 43.0028 61.8887 43.3084 61.3766 43.4102C61.0949 43.4611 60.8133 43.4611 60.5316 43.4611C58.7136 43.4611 58.4832 43.232 58.4832 41.4497C58.4832 38.369 58.4832 35.2883 58.4832 32.233C58.4832 30.629 58.432 30.6035 56.8188 30.5781C55.897 30.5526 55.7434 30.7054 55.7434 31.622C55.7434 34.9318 55.769 38.2162 55.769 41.5261C55.769 43.2065 55.4617 43.512 53.7717 43.4866C52.2354 43.4866 51.9537 43.2065 51.9537 41.6789C51.9537 38.5472 51.9537 35.4156 51.9537 32.2839C51.9537 31.9275 51.9025 31.5965 51.8769 31.24C51.8513 30.8836 51.6464 30.6545 51.288 30.629C50.8783 30.5781 50.4942 30.5526 50.0845 30.5781C49.2139 30.5781 49.1115 30.7054 49.1115 31.5456C49.1115 33.4551 49.1115 35.3647 49.1115 37.2487C49.1115 37.4779 49.0603 37.707 49.0347 37.9107C49.0347 39.7693 49.0347 41.628 49.0347 43.4611C49.0603 43.6903 49.0859 43.9449 49.1115 44.174C49.1627 45.3961 49.1115 46.6182 49.2395 47.8403C49.47 50.1063 51.1087 51.9649 53.3876 52.1432C55.8458 52.3469 58.3295 52.3214 60.7877 52.1177C62.5289 51.9904 63.8604 50.8701 64.4749 49.1897C64.7822 48.3495 64.9358 47.382 64.9358 46.4909C64.987 41.6789 64.9614 36.8414 64.9614 32.0293C64.9358 30.7054 64.8846 30.6545 63.5275 30.5526Z" fill="#FECB50"/>
<path d="M78.0458 84.3508C77.2777 84.58 76.5351 84.8346 75.7926 85.0383C74.9988 85.2419 74.1794 85.4456 73.3856 85.5475C72.6687 85.6493 71.9517 85.5984 71.2347 85.6748C70.2105 85.7766 69.6216 86.3877 69.6216 87.3806C69.6216 88.2463 69.724 89.1119 69.8264 89.9521C69.9801 91.0724 70.7226 92.1417 71.8749 92.2181C71.9517 92.2181 72.0285 92.3709 72.1309 92.4473C73.4624 92.4473 74.7939 92.4473 76.151 92.4473C76.2791 92.3709 76.4071 92.2436 76.5607 92.2181C77.6618 91.9635 78.4811 91.3779 78.7116 90.2322C78.8396 89.5702 78.9677 88.8828 78.9933 88.1954C79.0445 87.126 78.9933 86.0567 78.9677 84.9873C78.9164 84.7073 78.2763 84.2744 78.0458 84.3508Z" fill="#FECB50"/>
<path d="M77.9435 69.2017C78.3532 69.2017 78.4812 68.9471 78.5068 68.5907C78.558 67.7759 78.6604 66.9612 78.6604 66.1465C78.7629 61.0798 78.8397 56.0132 78.9165 50.9465C78.8909 50.9465 78.8653 50.9465 78.8397 50.9465C78.8397 50.31 78.8397 49.648 78.8397 49.0115C78.8141 43.8176 78.8909 38.5981 78.5068 33.4042C78.4044 31.9529 78.0459 31.4437 76.6632 31.0109C75.2549 30.5781 73.821 30.5017 72.387 30.7308C70.4922 31.0109 69.3144 32.1057 68.7766 33.9389C68.2133 35.8484 68.1621 37.8089 68.0853 39.7439C67.9316 44.7596 67.8292 49.7753 67.7524 54.7911C67.7012 58.5338 67.65 62.3019 68.0597 66.0446C68.2389 67.5977 68.623 68.1579 70.1593 68.5143C72.7199 69.0999 75.3317 69.1254 77.9435 69.2017Z" fill="#FECB50"/>
<path d="M62.1702 55.5294C62.1702 55.1475 62.119 54.7656 62.0678 54.3837C61.9909 53.849 61.6837 53.5944 61.146 53.5689C60.557 53.5435 59.9425 53.4926 59.3536 53.4926C57.1515 53.518 54.9238 53.5435 52.7217 53.6199C51.6719 53.6708 51.4414 54.0018 51.4414 55.0202C51.4414 57.7954 51.4414 60.5706 51.467 63.3458C51.467 64.2369 51.5438 65.128 51.595 66.0191C51.6206 66.4774 51.8511 66.732 52.3376 66.8084C53.5411 67.0121 54.7189 67.2413 55.8968 67.4704C57.6636 67.8014 59.456 68.1324 61.2228 68.4379C62.0166 68.5652 62.247 68.3361 62.247 67.5468C62.247 65.4845 62.247 63.4222 62.247 61.3599C62.2214 61.3599 62.1702 61.3599 62.1446 61.3599C62.1702 59.4249 62.1958 57.4899 62.1702 55.5294Z" fill="#FECB50"/>
<path d="M51.1345 68.7435C51.1601 69.7619 51.1345 70.7804 51.1345 71.7733C51.1345 72.7663 51.1345 73.8102 51.1345 74.8031C51.1345 74.9559 51.1857 75.1341 51.2626 75.2869C51.5698 76.0507 52.3124 76.0507 52.9269 76.1271C53.7719 76.2289 54.6425 76.2544 55.4875 76.2544C57.3823 76.2289 59.2771 76.2035 61.1463 76.1525C61.5048 76.1525 61.9145 76.0252 62.2218 75.847C62.4266 75.7197 62.6571 75.4142 62.6571 75.185C62.7083 73.9375 62.7083 72.7154 62.6571 71.4678C62.6315 70.8058 62.5803 70.0929 61.9657 69.7365C61.428 69.4055 60.7879 69.1763 60.1733 69.0236C59.3283 68.8199 58.4578 68.718 57.5872 68.5653C56.4861 68.3616 55.3851 68.1324 54.284 67.9542C53.6439 67.8524 52.9781 67.8015 52.338 67.7251C51.7491 67.6487 51.1089 68.0306 51.1345 68.7435Z" fill="#FECB50"/>
<path d="M51.0061 83.1287C51.0317 83.9434 51.3646 84.249 52.2096 84.249C53.3618 84.2744 54.4885 84.249 55.6408 84.249C55.6408 84.2744 55.6408 84.3253 55.6408 84.3508C57.1259 84.2744 58.5854 84.2235 60.0705 84.0962C61.5557 83.9689 62.4006 83.3069 62.6311 81.8302C62.8103 80.659 62.8103 79.4369 62.8103 78.2402C62.8103 77.3746 62.5543 77.1709 61.7093 77.1454C59.8913 77.0945 58.0733 77.0181 56.2553 76.9672C54.7702 76.9418 53.3106 76.9418 51.8255 76.9672C51.1854 76.9672 51.0061 77.1454 51.0061 77.782C50.9549 79.5642 50.9805 81.3465 51.0061 83.1287Z" fill="#FECB50"/>
<path d="M61.4533 85.14C60.1986 85.14 58.9184 85.14 57.6637 85.14C57.6637 85.1655 57.6637 85.2164 57.6637 85.2419C55.9481 85.2419 54.2325 85.2419 52.5169 85.2419C51.8256 85.2419 51.2366 85.6747 51.1598 86.3367C50.955 87.7879 50.827 89.2392 51.4927 90.614C51.7232 91.0723 52.1841 91.607 52.6706 91.7343C53.4899 91.9889 54.4117 92.0398 55.2823 92.0907C57.2028 92.1671 59.1232 92.1162 61.018 91.7852C61.6582 91.6834 62.4519 91.0469 62.6312 90.4103C63.0409 89.01 63.0665 87.5842 62.7336 86.1584C62.5031 85.2419 62.4007 85.14 61.4533 85.14Z" fill="#FECB50"/>
<path d="M70.9276 84.7837C72.0543 84.911 73.1297 84.5545 74.2052 84.3254C75.3318 84.0708 76.4329 83.8162 77.5851 83.6634C78.5581 83.5361 79.3007 83.0778 79.2495 82.3395C79.1983 81.1937 79.0703 80.0735 78.9166 78.9532C78.8142 78.2912 78.3021 77.9093 77.6107 77.8329C76.9706 77.782 76.3304 77.7311 75.6903 77.6802C74.2308 77.7566 72.7969 77.8839 71.3629 77.9093C70.4667 77.9348 69.6986 78.5713 69.8266 79.437C69.8522 79.6152 69.8522 79.7934 69.801 79.9462C69.4681 81.2956 69.5705 82.6195 69.8778 83.9435C69.9802 84.4272 70.4155 84.7073 70.9276 84.7837Z" fill="#FECB50"/>
<path d="M78.0713 70.5766C75.8692 69.8637 73.6159 69.4564 71.2858 69.8128C70.364 69.9656 69.8775 70.322 69.8519 71.2386C69.8007 72.6389 69.8007 74.0647 69.8519 75.465C69.8775 76.3307 70.2616 76.6362 71.1322 76.6362C72.054 76.6617 73.0014 76.6362 73.9232 76.6362C73.9232 76.6108 73.9232 76.6108 73.9232 76.5853C74.973 76.5853 76.0228 76.6362 77.0727 76.5599C78.353 76.4835 78.737 76.0761 78.8139 74.8285C78.8651 73.7592 78.8395 72.6644 78.8395 71.595C78.8651 71.0858 78.5578 70.7549 78.0713 70.5766Z" fill="#FECB50"/>
</svg>
