<svg width="24" height="24" viewBox="0 0 24 24" xmlns="http://www.w3.org/2000/svg">
    <path d="M16.583 8.727c-2.69 0-5.417-.986-5.417-2.864C11.166 3.987 13.893 3 16.583 3S22 3.986 22 5.864c0 1.877-2.727 2.863-5.417 2.863zm0-4.089c-2.434 0-3.75.873-3.75 1.226 0 .358 1.316 1.225 3.75 1.225 2.435 0 3.75-.873 3.75-1.226 0-.358-1.315-1.225-3.75-1.225z"/>
    <path d="M16.583 12.003c-2.69 0-5.417-.986-5.417-2.864V5.864h1.668V9.14c0 .358 1.314 1.225 3.749 1.225 2.434 0 3.75-.873 3.75-1.226V5.864H22V9.14c0 1.877-2.727 2.863-5.417 2.863z"/>
    <path d="M16.583 15.273c-2.69 0-5.417-.986-5.417-2.864V9.134h1.668v3.275c0 .36 1.314 1.226 3.749 1.226 2.434 0 3.75-.873 3.75-1.226V9.134H22v3.275c0 1.884-2.727 2.864-5.417 2.864z"/>
    <path d="M16.583 18.549c-2.69 0-5.417-.986-5.417-2.864V12.41h1.668v3.276c0 .36 1.314 1.226 3.749 1.226 2.434 0 3.75-.873 3.75-1.226V12.41H22v3.276c0 1.877-2.727 2.864-5.417 2.864z"/>
    <path d="M7.417 14.454C4.727 14.454 2 13.467 2 11.59c0-1.877 2.727-2.863 5.417-2.863s5.417.986 5.417 2.863-2.727 2.864-5.417 2.864zm0-4.09c-2.435 0-3.75.874-3.75 1.226 0 .359 1.315 1.226 3.75 1.226 2.434 0 3.75-.873 3.75-1.226 0-.352-1.316-1.225-3.75-1.225z"/>
    <path d="M7.417 17.73C4.727 17.73 2 16.743 2 14.866V11.59h1.668v3.276c0 .359 1.314 1.226 3.749 1.226 2.434 0 3.75-.873 3.75-1.226V11.59h1.667v3.276c0 1.877-2.727 2.864-5.417 2.864z"/>
    <path d="M7.417 21C4.727 21 2 20.014 2 18.137V14.86h1.668v3.276c0 .358 1.314 1.225 3.749 1.225 2.434 0 3.75-.873 3.75-1.225V14.86h1.667v3.276c0 1.883-2.727 2.863-5.417 2.863z"/>
</svg>
