<svg width="24" height="24" viewBox="0 0 24 24" xmlns="http://www.w3.org/2000/svg">
    <path d="M23 9.016c0-2.812-2.302-5.1-5.132-5.1-.123 0-.247.005-.372.014a6.622 6.622 0 0 0-10.992 0 5.025 5.025 0 0 0-.372-.014C3.302 3.916 1 6.204 1 9.016c0 2.566 1.916 4.694 4.401 5.048v7.049c0 1.04.853 1.887 1.9 1.887H16.7c1.047 0 1.9-.847 1.9-1.887v-7.05C21.084 13.71 23 11.583 23 9.017zm-6.301 12.532H7.3a.443.443 0 0 1-.438-.436v-7.047a5.07 5.07 0 0 0 2.008-.737 6.603 6.603 0 0 0 6.257 0 5.075 5.075 0 0 0 2.01.737v7.047c0 .237-.202.436-.44.436zm1.17-8.883c-.493 0-.968-.096-1.41-.28a6.526 6.526 0 0 0 1.899-3.072.731.731 0 0 0-1.408-.388c-.615 2.202-2.65 3.74-4.95 3.74-2.3 0-4.335-1.538-4.95-3.74a.731.731 0 0 0-1.408.388 6.525 6.525 0 0 0 1.9 3.073 3.663 3.663 0 0 1-1.41.279c-2.024 0-3.67-1.637-3.67-3.649 0-2.011 1.646-3.648 3.67-3.648.205 0 .415.018.626.054a.733.733 0 0 0 .76-.36 5.153 5.153 0 0 1 8.963 0 .733.733 0 0 0 .76.36c.212-.036.422-.054.627-.054 2.024 0 3.67 1.637 3.67 3.648 0 2.012-1.646 3.649-3.67 3.649z"/>
</svg>
