<svg width="24" height="24" viewBox="0 0 24 24" xmlns="http://www.w3.org/2000/svg">
    <path fill-rule="evenodd" clip-rule="evenodd" d="M15.273 4.5c0 .46.373.833.833.833h4.06c.46 0 .834.373.834.834v.356a.477.477 0 0 1-.477.477.477.477 0 0 0-.474.425l-1.347 12.351a2.513 2.513 0 0 1-.802 1.587c-.45.41-1.033.638-1.637.637H7.737a2.427 2.427 0 0 1-1.637-.637 2.513 2.513 0 0 1-.802-1.587L3.95 7.425A.477.477 0 0 0 3.477 7 .477.477 0 0 1 3 6.523v-.356c0-.46.373-.834.833-.834h4.06c.461 0 .834-.373.834-.833.001-.663.26-1.298.72-1.767A2.435 2.435 0 0 1 11.182 2h1.636c.65 0 1.275.264 1.735.733.46.469.719 1.104.72 1.767zm-4.67-.589a.843.843 0 0 0-.24.589c0 .46.374.833.834.833h1.606c.46 0 .833-.373.833-.833a.843.843 0 0 0-.24-.589.812.812 0 0 0-.578-.244h-1.636a.812.812 0 0 0-.579.244zm6.205 16.21a.838.838 0 0 0 .268-.529l1.253-11.484A1 1 0 0 0 17.334 7H6.666a1 1 0 0 0-.995 1.108l1.253 11.484a.838.838 0 0 0 .268.53c.15.136.344.212.545.211h8.526a.81.81 0 0 0 .545-.212zm-3.99-10.636a.818.818 0 1 0-1.636 0v8.364a.818.818 0 1 0 1.636 0V9.485zm2.457 9.177a.819.819 0 0 1-.747-.883l.684-8.373a.819.819 0 1 1 1.632.134l-.684 8.373a.819.819 0 0 1-.885.749zm-6.48-9.243a.819.819 0 0 0-1.633.134l.685 8.372a.819.819 0 1 0 1.631-.133l-.684-8.373z"/>
</svg>
