<svg width="24" height="24" viewBox="0 0 24 24" xmlns="http://www.w3.org/2000/svg">
    <path fill-rule="evenodd" clip-rule="evenodd" d="M21.989 6.32a.63.63 0 0 0-.073-.24.118.118 0 0 1-.008-.023.104.104 0 0 0-.013-.03l-2.5-3.75a.628.628 0 0 0-.52-.277H5.125a.626.626 0 0 0-.52.279l-2.5 3.75a.104.104 0 0 0-.013.03.146.146 0 0 1-.008.022.63.63 0 0 0-.073.24c0 .007-.003.014-.005.021A.114.114 0 0 0 2 6.375V20.75c0 .69.561 1.25 1.25 1.25h17.5c.689 0 1.25-.56 1.25-1.25V6.375a.115.115 0 0 0-.006-.032l-.005-.023zM18.54 3.25l1.668 2.5h-5.803l-.417-2.5h4.552zm-7.261 0h1.441l.417 2.5h-2.274l.416-2.5zM10.75 7h2.5v2.259l-1.053-.353a.646.646 0 0 0-.394 0l-1.053.353V7zM5.46 3.25h4.552l-.417 2.5H3.792l1.668-2.5zm15.29 18.125v-.625h.001l-.001.625zm0-.625H3.25V7H9.5v3.125c0 .201.096.39.26.506a.635.635 0 0 0 .563.088l1.677-.56 1.678.558a.616.616 0 0 0 .563-.086.62.62 0 0 0 .259-.506V7h6.25v13.75zm-11.875-5h-3.75a.625.625 0 0 0 0 1.25h3.75a.625.625 0 0 0 0-1.25zm-3.75 2.5H7a.625.625 0 0 1 0 1.25H5.125a.625.625 0 0 1 0-1.25z"/>
</svg>
