<svg width="24" height="24" viewBox="0 0 24 24" fill="none" xmlns="http://www.w3.org/2000/svg">
    <path fill-rule="evenodd" clip-rule="evenodd" d="M9.317 5.82A2.822 2.822 0 0 1 12.134 3a2.822 2.822 0 0 1 2.269 4.491c4.13.957 7.254 4.324 7.554 8.405h.238a.805.805 0 0 1 0 1.611H1.805a.805.805 0 0 1 0-1.612h.238c.306-4.156 3.54-7.572 7.785-8.455a2.808 2.808 0 0 1-.511-1.62zm1.61 0a1.21 1.21 0 0 0 1.207 1.21 1.21 1.21 0 0 0 0-2.418 1.21 1.21 0 0 0-1.207 1.209zm9.415 10.075C19.985 11.945 16.38 8.83 12 8.83c-4.38 0-7.985 3.114-8.342 7.066h16.684zm1.853 3.493H1.805a.805.805 0 0 0 0 1.612h20.39a.805.805 0 0 0 0-1.612z" fill="#000"/>
</svg>
