<svg width="24" height="24" viewBox="0 0 24 24" xmlns="http://www.w3.org/2000/svg">
    <path fill-rule="evenodd" clip-rule="evenodd" d="M19.177 2c.974.02 1.942.382 2.682 1.1a3.706 3.706 0 0 1 .001 5.348l-6.897 6.681a5.414 5.414 0 0 1-3.782 1.515H8.896c-.564 0-1.02-.441-1.02-.988v-2.213c0-1.382.555-2.682 1.563-3.662l6.906-6.69A3.932 3.932 0 0 1 19.177 2zm-7.996 12.668c.883 0 1.715-.333 2.34-.937l4.552-4.409-2.638-2.555-4.553 4.41a3.142 3.142 0 0 0-.966 2.266v1.225h1.265zm8.335-6.743l.9-.873a1.77 1.77 0 0 0 0-2.555 1.91 1.91 0 0 0-2.637 0l-.901.873 2.638 2.555zm-2.214 8.007c0-.547.456-.988 1.02-.988.564 0 1.02.441 1.02.988v3.104c0 1.635-1.373 2.964-3.06 2.964H5.06C3.373 22 2 20.67 2 19.036V6.19c0-1.635 1.373-2.965 3.06-2.965h5.927c.565 0 1.02.442 1.02.988 0 .547-.455.989-1.02.989H5.06c-.563 0-1.02.442-1.02.988v12.846c0 .545.457.988 1.02.988h11.222c.563 0 1.02-.443 1.02-.988v-3.104z"/>
</svg>
