<svg width="24" height="24" viewBox="0 0 24 24" xmlns="http://www.w3.org/2000/svg">
    <path d="M6.352 22.923c.294.153.66.071.854-.19L17.873 8.512a.627.627 0 0 0 .054-.671.67.67 0 0 0-.594-.352h-2.826l3.399-5.514a.626.626 0 0 0 .007-.648.67.67 0 0 0-.58-.326h-8a.663.663 0 0 0-.647.489L6.02 11.844a.628.628 0 0 0 .121.553c.127.156.32.248.526.248h3.04L6.041 22.13a.635.635 0 0 0 .31.793zm4.94-10.697a.626.626 0 0 0-.078-.594.673.673 0 0 0-.547-.277H7.52L9.854 2.29h6.306l-3.4 5.514a.626.626 0 0 0-.006.648.67.67 0 0 0 .58.326h2.693l-7.018 9.358 2.282-5.91z"/>
</svg>
