<svg width="24" height="24" viewBox="0 0 24 24" xmlns="http://www.w3.org/2000/svg">
    <path fill-rule="evenodd" clip-rule="evenodd" d="M15.333 14.5a.833.833 0 0 1 1.667 0v5c0 .46-.373.833-.834.833H12v.833c0 .526-.481.92-.997.817L2.67 20.317A.833.833 0 0 1 2 19.5V2.865a.892.892 0 0 1 .009-.149l.001-.009a.85.85 0 0 1 .011-.06l.002-.006a.798.798 0 0 1 .81-.64h13.334c.46-.001.833.372.833.832v5a.833.833 0 0 1-1.667 0V3.667H8.511l2.895.868c.353.106.594.43.594.798v13.333h3.333V14.5zM3.667 18.817l6.666 1.333V5.954l-6.666-2v14.863zm18.158-7.143l-.015.02a.827.827 0 0 1-.055.06v.001l-2.5 2.5a.833.833 0 0 1-1.179-1.178l1.077-1.078H14.5a.833.833 0 1 1 0-1.666h4.654l-1.077-1.078a.833.833 0 0 1 1.178-1.178l2.5 2.5.056.06.015.02a.366.366 0 0 0 .014.02.529.529 0 0 1 .02.027l.016.026.005.01.006.01.014.023a.497.497 0 0 1 .018.038l.017.036.01.027.004.01c0 .004.002.007.003.01l.01.03.008.028.002.01.003.01a.53.53 0 0 1 .007.031l.007.044.005.037a.837.837 0 0 1 0 .164l-.003.024-.002.013-.002.01a.533.533 0 0 1-.005.034l-.007.03-.003.011-.002.01a.458.458 0 0 1-.008.028l-.01.03-.003.01-.014.037a.57.57 0 0 1-.021.046.484.484 0 0 1-.014.028l-.014.024-.006.01a1.104 1.104 0 0 0-.005.009l-.017.027-.019.026-.007.01-.007.01z"/>
</svg>
