<svg width="24" height="24" viewBox="0 0 24 24" xmlns="http://www.w3.org/2000/svg">
    <path fill-rule="evenodd" clip-rule="evenodd" d="M21.167 4.174h-2.22C18.587 2.92 17.484 2 16.168 2c-1.317 0-2.42.92-2.781 2.174H2.833c-.46 0-.833.39-.833.87s.373.869.833.869h10.553c.362 1.253 1.464 2.174 2.78 2.174 1.317 0 2.42-.92 2.782-2.174h2.219c.46 0 .833-.39.833-.87s-.372-.87-.833-.87zm-5 2.174c-.69 0-1.25-.585-1.25-1.305 0-.719.56-1.304 1.25-1.304.689 0 1.25.585 1.25 1.304 0 .72-.561 1.305-1.25 1.305zm5 11.739h-2.22c-.36-1.253-1.464-2.174-2.78-2.174-1.317 0-2.42.92-2.781 2.174H2.833c-.46 0-.833.39-.833.87s.373.87.833.87h10.553c.36 1.252 1.464 2.173 2.78 2.173 1.317 0 2.42-.92 2.782-2.174h2.219c.46 0 .833-.39.833-.87s-.372-.87-.833-.87zm-5 2.174c-.69 0-1.25-.585-1.25-1.305 0-.719.56-1.304 1.25-1.304.689 0 1.25.585 1.25 1.304 0 .72-.561 1.305-1.25 1.305zm-5.553-9.13h10.553c.46 0 .833.389.833.869s-.372.87-.833.87H10.614c-.362 1.253-1.464 2.173-2.78 2.173-1.317 0-2.42-.92-2.781-2.173h-2.22c-.46 0-.833-.39-.833-.87s.373-.87.833-.87h2.22c.361-1.253 1.464-2.174 2.78-2.174 1.317 0 2.42.921 2.781 2.174zM6.584 12c0 .719.56 1.304 1.25 1.304.689 0 1.25-.585 1.25-1.304 0-.72-.561-1.304-1.25-1.304-.69 0-1.25.585-1.25 1.304z"/>
</svg>
