<svg width="48" height="48" viewBox="0 0 48 48" fill="none" xmlns="http://www.w3.org/2000/svg">
    <path fill-rule="evenodd" clip-rule="evenodd" d="M33.045 15.942a25.1 25.1 0 0 0-6.119-.006c-6.175.746-12.252 3.655-16.249 8.486 3.866 4.112 8.919 7.238 14.398 8.62 2.581.65 5.35.923 8.028.62-2.039-2.501-3.24-5.573-3.24-8.895 0-3.29 1.18-6.337 3.182-8.825z" fill="url(#a)"/>
    <path fill-rule="evenodd" clip-rule="evenodd" d="M26.522 30.59a13.686 13.686 0 0 1-1.302-5.823c0-2.909.92-5.625 2.517-7.936l1.39.294c-1.654 2.2-2.609 4.828-2.609 7.642 0 1.83.404 3.58 1.14 5.185l-1.136.638zm12.618-7.34a1.301 1.301 0 1 1 0 2.602 1.301 1.301 0 0 1 0-2.602zm-16.627-7.756c-.557-1.668-.694-3.313-.724-5.389 3.994.422 7.342 1.65 10.12 4.413.736.054 1.46.14 2.172.258h.002l.183.032c.157.028.312.056.467.088l.17.034c.177.036.354.075.529.115.055.012.109.026.164.04.162.038.32.08.48.121.05.014.1.026.147.04a38.991 38.991 0 0 1 .658.19c.165.05.328.104.49.158l.13.044c.168.057.335.117.5.18l.113.042c.17.066.338.134.505.203l.108.046c.163.07.324.141.483.215l.085.04c.173.081.342.165.511.25l.086.044c.16.081.314.165.47.252l.075.042c.165.094.33.191.491.29l.072.044c.15.094.302.191.45.29l.067.046c.159.108.316.219.469.332l.046.034c.147.11.29.22.433.334l.062.05c.15.121.296.245.441.372l.024.022c.142.125.279.252.416.384l.05.05c.135.13.266.264.395.401l.022.024c.133.141.263.286.388.433l.042.048c.121.141.238.286.352.434l.028.033c.119.154.234.31.346.472l.03.043c.107.154.21.31.312.47l.028.044c.105.167.204.338.302.51l.02.036c.093.168.183.338.27.512l.024.047c.09.181.175.366.256.553l.01.024c.08.183.156.37.227.559l.02.053c.074.195.143.394.207.595-.08.223-.163.444-.249.66l-.022.054c-.083.209-.17.412-.26.614l-.014.03c-.092.205-.189.408-.286.607l-.024.05c-.096.189-.193.375-.295.558l-.023.044c-.104.189-.211.372-.323.555l-.031.05c-.106.17-.211.338-.323.5l-.04.062c-.115.171-.232.34-.353.504l-.03.04c-.115.156-.235.31-.354.459l-.054.065c-.121.15-.242.295-.368.438l-.046.053c-.125.142-.252.28-.383.416l-.07.072c-.123.127-.248.252-.376.374l-.061.06c-.136.128-.273.252-.414.375l-.087.076c-.126.107-.251.212-.38.316l-.094.075c-.139.112-.282.22-.425.325l-.106.075c-.125.09-.252.18-.38.265l-.127.085a13.145 13.145 0 0 1-.563.352c-.125.076-.25.147-.378.219-.051.03-.105.058-.157.087-.125.068-.25.134-.377.2-.068.035-.138.069-.207.103-.128.061-.255.123-.382.18l-.185.084a11.72 11.72 0 0 1-.61.255c-.114.045-.23.09-.345.13l-.25.09c-.115.04-.23.08-.348.118-.09.03-.18.057-.269.085-.109.034-.218.066-.328.098l-.296.083c-.115.032-.23.062-.346.09a16.474 16.474 0 0 1-.937.207c-.113.021-.228.043-.344.063-.087.016-.175.03-.262.044h-.002c-1.973.316-4.059.336-6.183.075-1.718 1.261-3.707 1.876-5.996 2.118.018-1.312.098-2.38.396-3.436-4.13-1.436-8.175-3.882-11.628-7.243-.24 4.228-3.814 7.975-9.2 6.654-1.075-4.112 1.117-6.904 4.124-8.21-3.361-1.353-5.058-5.21-4.169-8.802 4.091-.297 8.86 1.958 9.234 6.419 3.22-3.375 7.4-5.682 11.782-6.909v-.008zm7.37-1.046c-1.963-1.56-4.198-2.416-6.745-2.85.071 1.232.238 2.391.64 3.572a27.845 27.845 0 0 1 6.105-.722zm-3.866 20.137a27.279 27.279 0 0 1-2.406-.6c-.137.5-.217 1-.265 1.513.957-.197 1.844-.49 2.671-.913zm19.338-10.122l-.006-.016c-.022-.063-.046-.125-.07-.189l-.014-.037-.065-.168-.022-.053c-.02-.052-.042-.102-.064-.153l-.032-.074-.053-.123-.048-.106-.042-.091.418 1.008-.002.002zm-.507-1.195l-.088-.175-.002-.004a8.456 8.456 0 0 0-.097-.185l-.002-.006a11.558 11.558 0 0 0-.957-1.483l-.01-.012a8.635 8.635 0 0 0-.121-.155l-.014-.018-.121-.152-.002-.002-.046-.055-.002-.002-.084-.1-.057-.065c-.03-.034-.06-.07-.092-.104l-.06-.067-.08-.09-.013-.012c-.053-.06-.11-.117-.165-.175l-.03-.031a8.611 8.611 0 0 0-.14-.144l-.05-.05-.104-.1c-1.893-1.826-4.371-3.03-7.03-3.694-.31-.075-.622-.145-.937-.209-2.125 2.375-3.38 5.356-3.38 8.584 0 3.263 1.282 6.274 3.45 8.658a15.723 15.723 0 0 0 3.737-1.227l.032-.016.147-.072.071-.035.116-.06.101-.052.09-.047c.041-.022.083-.044.125-.068l.07-.038c.047-.026.093-.052.139-.08l.057-.033c.048-.028.098-.056.145-.086l.058-.033c.046-.026.09-.054.133-.082l.086-.052.046-.027c2.378-1.496 4.225-3.68 5.403-6.493l.008-.016.083-.205.012-.03c.028-.068.054-.137.08-.205l.002-.004-.507-1.195v.004zM33.045 15.94a25.102 25.102 0 0 0-6.119-.006c-6.175.746-12.252 3.655-16.25 8.485 3.867 4.113 8.92 7.24 14.399 8.621 2.58.65 5.35.923 8.028.62-2.039-2.501-3.24-5.573-3.24-8.894 0-3.292 1.18-6.338 3.182-8.826zm11.84 7.406l-.031-.064-.006-.014.037.078zM2.64 31.886c-.217-1.425.03-2.807.968-4 1.323-1.685 3.657-2.552 5.821-2.643.16 1.684-.318 3.428-1.406 4.737-1.384 1.664-3.349 2.2-5.381 1.907h-.002zm6.745-7.978c.217-1.425-.03-2.808-.968-4-1.323-1.685-3.657-2.552-5.82-2.644-.16 1.685.317 3.429 1.405 4.737 1.384 1.665 3.349 2.2 5.381 1.907h.002z" fill="#7ECA1D"/>
    <defs>
        <linearGradient id="a" x1="10.677" y1="15.752" x2="35.676" y2="20.648" gradientUnits="userSpaceOnUse">
            <stop stop-color="#E3EEFF"/>
            <stop offset=".526" stop-color="#E4F6E4"/>
            <stop offset="1" stop-color="#FFEEE4"/>
        </linearGradient>
    </defs>
</svg>
