<svg width="24" height="24" viewBox="0 0 24 24" xmlns="http://www.w3.org/2000/svg">
    <path fill-rule="evenodd" clip-rule="evenodd" d="M19.09 1H4.91A1.92 1.92 0 0 0 3 2.925v18.15A1.92 1.92 0 0 0 4.91 23h14.18A1.92 1.92 0 0 0 21 21.075V2.925A1.92 1.92 0 0 0 19.09 1zm.274 20.075c0 .15-.125.275-.273.275H4.909a.278.278 0 0 1-.273-.275V2.925c0-.15.125-.275.273-.275h3V5.4c0 .456.367.825.818.825h6.546c.452 0 .818-.37.818-.825V2.65h3c.148 0 .273.126.273.275v18.15zM14.454 2.65H9.547v1.925h4.909V2.65zm0 7.7H9.273a.822.822 0 0 0-.818.825c0 .456.366.825.818.825h5.181c.452 0 .819-.37.819-.825a.822.822 0 0 0-.819-.825zm-6.817 3.3h8.727c.452 0 .818.37.818.825a.822.822 0 0 1-.818.825H7.637a.822.822 0 0 1-.818-.825c0-.456.366-.825.818-.825zm8.727 3.3H7.637a.822.822 0 0 0-.818.825c0 .456.366.825.818.825h8.727c.452 0 .818-.37.818-.825a.822.822 0 0 0-.818-.825z"/>
</svg>
