<svg width="48" height="48" viewBox="0 0 48 48" fill="none" xmlns="http://www.w3.org/2000/svg">
    <path fill-rule="evenodd" clip-rule="evenodd" d="M23.959 1.263c12.534 0 22.695 10.161 22.695 22.696 0 12.534-10.16 22.695-22.695 22.695S1.263 36.494 1.263 23.958c0-12.534 10.161-22.695 22.696-22.695zm6.85 19.093c.366-1.421.558-2.993.462-4.532a10.911 10.911 0 0 1 3.626 8.135c0 .873-.103 1.722-.296 2.536-.96.342-1.87.797-2.657 1.292-2.208 1.389-4.338 3.63-4.616 6.338a5.828 5.828 0 0 0-.02.248 10.9 10.9 0 0 1-2.665.502c.26-.817.41-1.705.563-2.609.337-1.991.688-4.064 2.244-5.642 1.647-1.673 2.776-4.01 3.358-6.268zm-3.411 15.4c-1.066.31-2.19.48-3.355.488-.155.26-.334.505-.541.735-1.302 1.444-3.231 1.62-5.053 1.409-2.41-.279-4.6-1.19-6.311-2.938-3.58-3.651-3.861-9.638-3.257-14.417C10.02 12.041 14 7.91 23.31 8.003h-.002c2.417.026 4.667.822 6.196 2.766.722.918 1.197 1.98 1.476 3.106.386.27.756.56 1.108.871a2.695 2.695 0 0 1 5.277.84 4.005 4.005 0 1 1-1.162 7.348 12.415 12.415 0 0 1-.14 3.143c1.027-.219 2.068-.277 3.04-.093l1.028.195.066 1.045-.002-.002c.14 2.252-.801 4.762-1.98 6.646-2.001 3.195-5.622 6.002-9.515 4.274l-.408-.18-.219-.388a5.976 5.976 0 0 1-.674-1.819zm8.312-8.206c1.122-.318 2.215-.42 3.138-.244.275 4.407-4.616 11.82-9.603 9.604a4.565 4.565 0 0 1-.56-1.61 12.319 12.319 0 0 0 7.025-7.75zm-6.972 6.248a10.98 10.98 0 0 0 5.32-5.631c-2.519 1.163-4.831 3.275-5.32 5.631zM23.958 2.61c11.79 0 21.349 9.559 21.349 21.349 0 11.79-9.558 21.348-21.348 21.348S2.61 35.749 2.61 23.958C2.61 12.169 12.17 2.61 23.96 2.61zm2.53 23.067c4.495-4.56 5.726-16.235-3.196-16.326-8.923-.091-12.068 3.882-13.077 11.852-1.006 7.969 1.029 14.999 8.386 15.847 4.32.498 4.737-1.937 5.254-4.955.364-2.123.778-4.535 2.634-6.418zm-11.71-2.34l5.2 5.2a.675.675 0 0 1 0 .952.675.675 0 0 1-.952 0l-5.2-5.2a.675.675 0 0 1 0-.951.675.675 0 0 1 .953 0zm6.632-10.124l5.199 5.2a.675.675 0 0 1 0 .951.675.675 0 0 1-.952 0l-5.199-5.199a.674.674 0 0 1 .952-.952zm-5.59 2.223l5.199 5.199a.675.675 0 0 1 0 .952.675.675 0 0 1-.952 0l-5.199-5.199a.675.675 0 0 1 0-.952.675.675 0 0 1 .952 0zm18.851-1.272a1.346 1.346 0 1 1 .001 2.692 1.346 1.346 0 0 1-.001-2.692zm6.236 5.328a2.658 2.658 0 1 0-5.316.001 2.658 2.658 0 0 0 5.316-.001z" fill="#7ECA1D"/>
    <path fill-rule="evenodd" clip-rule="evenodd" d="M36.018 15.512a1.347 1.347 0 1 1-2.694 0 1.347 1.347 0 0 1 2.694 0zm2.231 6.637a2.658 2.658 0 1 0 0-5.315 2.658 2.658 0 0 0 0 5.315zm.601 5.155c-4.357-.828-12.474 4.516-9.604 9.604 4.988 2.215 9.88-5.197 9.604-9.604z" fill="url(#a)"/>
    <defs>
        <linearGradient id="a" x1="28.646" y1="14.165" x2="42.74" y2="15.341" gradientUnits="userSpaceOnUse">
            <stop stop-color="#E3EEFF"/>
            <stop offset=".526" stop-color="#E4F6E4"/>
            <stop offset="1" stop-color="#FFEEE4"/>
        </linearGradient>
    </defs>
</svg>
