<svg width="48" height="48" viewBox="0 0 48 48" fill="none" xmlns="http://www.w3.org/2000/svg">
    <path fill-rule="evenodd" clip-rule="evenodd" d="M29.15 7.782c.973-.665 2.064-1.113 3.273-1.234 2.785-.274 5.418 1.485 6.12 4.211.584 2.258-.372 4.381-2.199 5.748-.409.305-.848.57-1.313.798 1.062.51 1.995 1.23 2.706 2.219 1.63 2.275 1.424 5.435-.59 7.409-1.663 1.632-3.98 1.866-6.077.97a8.245 8.245 0 0 1-1.348-.736c.088 1.175-.065 2.342-.567 3.45-1.155 2.549-3.994 3.95-6.709 3.194-2.247-.626-3.606-2.512-3.88-4.778a8.215 8.215 0 0 1-.036-1.537c-.972.666-2.063 1.114-3.273 1.235-2.785.274-5.418-1.486-6.12-4.212-.58-2.258.372-4.38 2.199-5.748.409-.304.848-.57 1.314-.798-1.063-.51-1.996-1.229-2.707-2.218-1.63-2.275-1.423-5.436.59-7.409 1.663-1.632 3.98-1.866 6.077-.97.468.2.917.449 1.348.736-.087-1.175.065-2.343.567-3.45 1.155-2.549 3.994-3.95 6.71-3.195 2.246.626 3.605 2.512 3.878 4.779.062.505.07 1.02.037 1.536zm-2.207 5.796l.005.006c.037.028.07.056.107.085l.009.005c.056.045.11.093.166.141.217.192.42.403.6.632l.003.003c.046.056.088.112.13.169l.008.011c.026.034.051.07.077.107l.005.008c.04.06.08.119.116.178l.008.011c.023.037.045.07.065.107l.009.015.067.118.003.003.034.062.008.017c.017.034.037.067.054.101l.014.026c.02.04.04.079.056.118v.003c.029.062.057.127.085.192l.011.028.043.11.005.014.023.065.008.022c.012.034.026.07.037.104l.011.037c.011.034.023.068.031.102l.009.028.02.065v.002l.02.074.013.059.009.037.022.098.009.034.014.065.014.073.008.057.009.048c.005.028.008.059.014.087l.008.05.006.054v.006l.008.076c.02.18.029.364.029.547v.073c-.003.13-.009.257-.02.384v.005a5.567 5.567 0 0 1-.048.372l-.003.012a5.045 5.045 0 0 1-.11.507v.003c-.02.07-.04.144-.062.214v.003a5.383 5.383 0 0 1-.18.48l-.003.005c-.048.11-.102.217-.155.324l-.003.006a5.179 5.179 0 0 1-.606.9c-.398.473-.88.873-1.42 1.175l-.035.02-.062.033-.005.003-.034.02-.06.03-.045.023-.067.031-.006.003-.037.017-.005.003-.065.03h-.003l-.037.018-.005.003-.06.025-.064.025-.05.02-.069.025-.05.02-.076.026-.037.01-.085.029-.03.011-.088.026-.028.008-.096.026-.02.005-.101.025-.029.006c-.03.009-.064.014-.095.02l-.031.006c-.034.005-.068.014-.102.02l-.017.002-.107.017-.02.003a8.201 8.201 0 0 1-.112.017l-.012.003c-.04.005-.076.008-.115.014l-.014.003c-.04.002-.08.008-.119.01h-.005l-.127.01h-.003c-.087.005-.175.005-.262.005-.043 0-.088 0-.13-.003h-.008a1.68 1.68 0 0 1-.122-.006h-.005l-.124-.008h-.006c-.04-.003-.082-.006-.121-.011h-.014c-.04-.003-.076-.009-.116-.014h-.011l-.11-.015-.025-.002-.105-.017-.02-.003-.095-.017-.04-.008c-.028-.006-.059-.012-.087-.02l-.034-.009a1.002 1.002 0 0 1-.087-.022l-.04-.009-.079-.022-.045-.014-.07-.023-.051-.017-.068-.022-.059-.02-.006-.003-.03-.011-.01-.003a.688.688 0 0 1-.08-.031h-.004l-.03-.011-.012-.003-.073-.028-.009-.003-.03-.011-.006-.003-.076-.031-.009-.003-.03-.014a5.359 5.359 0 0 1-.553-.285l-.06-.037-.008-.005-.107-.068-.017-.011-.11-.073-.006-.003-.056-.04-.011-.008c-.034-.026-.068-.048-.1-.073l-.016-.014c-.031-.023-.062-.048-.09-.071l-.02-.017c-.053-.042-.104-.087-.158-.132l-.011-.012c-.031-.028-.062-.053-.09-.081l-.014-.015c-.051-.047-.102-.095-.15-.146l-.008-.009c-.031-.03-.06-.062-.09-.093l-.012-.01-.045-.052-.048-.053-.042-.048-.02-.023-.065-.076-.022-.028-.037-.048-.045-.06-.042-.055-.009-.012c-.022-.034-.048-.065-.07-.098l-.014-.02c-.026-.037-.051-.074-.074-.11l-.002-.003-.037-.056-.017-.026c-.02-.03-.04-.065-.06-.096l-.008-.014-.067-.118-.003-.003-.031-.06-.014-.027c-.017-.031-.034-.062-.048-.096l-.014-.026c-.014-.03-.031-.061-.045-.093l-.014-.03-.026-.06-.011-.022-.045-.105-.011-.028-.043-.11-.005-.014-.023-.065-.008-.022c-.012-.034-.026-.07-.037-.105l-.011-.036-.028-.087-.015-.046-.017-.056v-.003l-.02-.073-.013-.06-.009-.036c-.008-.034-.017-.068-.022-.099l-.009-.034-.014-.064-.014-.074-.008-.056-.009-.048c-.005-.028-.008-.06-.014-.087l-.008-.051-.006-.054v-.005l-.009-.076a5.048 5.048 0 0 1-.028-.547v-.074c.003-.13.009-.256.02-.383v-.006c.011-.124.028-.248.048-.372l.003-.011a5.56 5.56 0 0 1 .073-.364v-.003c.011-.045.023-.093.037-.138l.002-.008c.02-.07.04-.141.063-.209l.002-.008a5.128 5.128 0 0 1 1.85-2.554h.003c.166-.122.34-.234.521-.336l.003-.003.093-.05.034-.017.07-.037.012-.006.036-.017h.003l.06-.028.05-.022.065-.028.005-.003.037-.017.008-.003.06-.025.062-.026.05-.02.065-.025.048-.017.073-.025.043-.014c.028-.009.056-.017.084-.028l.031-.009c.031-.008.062-.02.093-.028l.023-.006c.034-.008.068-.02.101-.028l.017-.003.105-.025.022-.006.102-.022.025-.006c.034-.008.07-.014.104-.02l.014-.002.11-.017.017-.003.113-.017.011-.003c.04-.005.08-.008.116-.014h.014l.121-.011h.003l.127-.009h.003c.087-.005.175-.005.262-.005.042 0 .087 0 .13.002h.005c.085.003.17.006.254.014h.006c.04.003.081.006.12.012h.01c.039.003.078.008.118.014h.011l.118.017h.012c.04.005.076.011.115.02h.012c.036.005.07.014.107.02l.025.005c.034.008.068.014.101.023l.029.005c.03.009.065.014.096.023l.025.005.09.026.034.008.082.026.04.01c.025.01.053.018.078.026l.054.02.05.017.065.022.057.023.062.025.045.017.082.034.002.003.031.014c.37.164.716.37 1.035.612l-.009-.012zm.304-1.62c7.13-10.615 16.574 3.546 3.188 5.029a6.628 6.628 0 0 0-3.188-5.03zm3.22 5.793c12.759.868 5.215 16.128-2.76 5.277a6.616 6.616 0 0 0 2.76-5.277zm-3.406 5.686c5.627 11.482-11.358 12.582-5.951.248a6.587 6.587 0 0 0 2.732.586 6.62 6.62 0 0 0 3.222-.834h-.003zm-6.628-.107c-7.13 10.614-16.576-3.547-3.188-5.03a6.628 6.628 0 0 0 3.188 5.03zm-3.22-5.793c-12.759-.869-5.215-16.129 2.76-5.278a6.616 6.616 0 0 0-2.76 5.277zm3.406-5.687C14.992.368 31.977-.73 26.57 11.602a6.584 6.584 0 0 0-2.729-.586 6.62 6.62 0 0 0-3.222.834z" fill="#7ECA1D"/>
    <path fill-rule="evenodd" clip-rule="evenodd" d="M23.841 40.538c1.052-1.996 2.611-3.62 4.844-4.903 1.302-.75 2.675-1.302 4.048-1.902 1.102-.48 2.267-1.015 3.211-1.768.538-.429.99-.922 1.347-1.511a1.5 1.5 0 0 1 1.74-.666c.67.206 1.105.82 1.071 1.523-.191 3.975-1.181 7.724-4.739 9.946-3.349 2.092-7.344 2.083-10.278 5.046a1.52 1.52 0 0 1-.533.454 1.538 1.538 0 0 1-1.42 0 1.55 1.55 0 0 1-.534-.454c-2.934-2.966-6.93-2.954-10.278-5.046-3.56-2.225-4.55-5.971-4.74-9.946a1.502 1.502 0 0 1 1.072-1.523 1.498 1.498 0 0 1 1.74.666c.357.589.809 1.082 1.347 1.51.944.756 2.109 1.29 3.211 1.769 1.373.597 2.746 1.153 4.048 1.902 2.233 1.286 3.792 2.907 4.843 4.903zm.009 4.877l-.003-.014c5.554-5.853 14.15-1.858 14.741-14.163-3.416 5.646-12.804 3.165-14.747 14.132C21.9 34.403 12.511 36.88 9.095 31.238c.592 12.305 9.187 8.31 14.74 14.163l-.002.014.009-.008.008.008z" fill="#7ECA1D"/>
    <path fill-rule="evenodd" clip-rule="evenodd" d="M23.85 45.415l-.003-.014c5.554-5.853 14.15-1.858 14.741-14.164-3.416 5.647-12.804 3.166-14.747 14.133C21.9 34.403 12.511 36.88 9.095 31.238c.592 12.305 9.187 8.31 14.74 14.163l-.002.014.009-.009.008.009z" fill="url(#a)"/>
    <defs>
        <linearGradient id="a" x1="9.095" y1="31.238" x2="39.924" y2="41.339" gradientUnits="userSpaceOnUse">
            <stop stop-color="#E3EEFF"/>
            <stop offset=".526" stop-color="#E4F6E4"/>
            <stop offset="1" stop-color="#FFEEE4"/>
        </linearGradient>
    </defs>
</svg>
