<svg width="48" height="48" viewBox="0 0 48 48" fill="none" xmlns="http://www.w3.org/2000/svg">
    <path fill-rule="evenodd" clip-rule="evenodd" d="M8.26 12.632h7.102v9.466h17.275v-9.466h7.1v4.733h4.68v4.733h2.32v4.733h-2.32v4.733h-4.68v4.733h-7.1v-9.466H15.362v9.466H8.26v-4.733H3.582v-4.733H1.263v-4.733h2.32v-4.733H8.26v-4.733zM3.583 23.28H2.446v2.367h1.136v-2.367zm4.679-4.733v11.834H4.765V18.548h3.496zm7.1 7.1h17.276v-2.367H15.362v2.367zM9.447 13.814h4.733v21.3H9.446v-21.3zm34.97 11.834v-2.367h1.136v2.367h-1.136zm-4.678 4.734V18.548h3.495v11.834h-3.495zM33.82 13.814h4.733v21.3H33.82v-21.3z" fill="#7ECA1D"/>
    <path fill-rule="evenodd" clip-rule="evenodd" d="M4.765 18.547H8.26v11.834H4.765V18.547zm-2.32 4.733h1.137v2.368H2.446v-2.367zm40.786-4.733h-3.496v11.834h3.496V18.547zm1.183 4.733h1.136v2.368h-1.136v-2.367z" fill="url(#a)"/>
    <defs>
        <linearGradient id="a" x1="2.446" y1="18.547" x2="39.984" y2="40.084" gradientUnits="userSpaceOnUse">
            <stop stop-color="#E3EEFF"/>
            <stop offset=".526" stop-color="#E4F6E4"/>
            <stop offset="1" stop-color="#FFEEE4"/>
        </linearGradient>
    </defs>
</svg>
