<svg width="80" height="68" viewBox="0 0 80 68" fill="none" xmlns="http://www.w3.org/2000/svg">
<path fill-rule="evenodd" clip-rule="evenodd" d="M72.5183 29.2661H79.4586C79.6474 29.2661 79.8097 29.3536 79.9121 29.5106C80.0144 29.6675 80.0281 29.8499 79.9504 30.0202L79.5831 30.8243H72.5183V29.2661ZM79.2082 31.6454L76.2679 38.0833C76.2017 38.2282 76.2017 38.3784 76.2679 38.5232L79.3462 45.2634H64.0325C64.546 44.1799 65.0137 43.0791 65.4373 41.9605H71.9784C72.2758 41.9605 72.5183 41.7206 72.5183 41.4264V31.6452H79.2082V31.6454ZM79.7213 46.0844L79.9505 46.5862C80.0282 46.7565 80.0146 46.9388 79.9122 47.0959C79.8098 47.2528 79.6475 47.3403 79.4587 47.3403H62.9805C63.2052 46.9243 63.4226 46.5057 63.6331 46.0844H79.7214H79.7213Z" fill="#65A217"/>
<path fill-rule="evenodd" clip-rule="evenodd" d="M7.48192 29.2651H0.541598C0.352779 29.2651 0.190475 29.3526 0.0881108 29.5096C-0.0142537 29.6665 -0.0279434 29.849 0.049755 30.0192L0.417034 30.8234H7.48192V29.2651ZM0.792083 31.6445L3.73241 38.0823C3.79864 38.2272 3.79864 38.3774 3.73241 38.5223L0.654076 45.2625H15.9677C15.4543 44.1791 14.9865 43.0783 14.5628 41.9597H8.02174C7.72438 41.9597 7.48192 41.7198 7.48192 41.4255V31.6444H0.792083V31.6445ZM0.279027 46.0836L0.0498783 46.5854C-0.0278201 46.7556 -0.0141304 46.938 0.0882342 47.095C0.190599 47.252 0.352902 47.3395 0.541722 47.3395H17.0197C16.795 46.9234 16.5776 46.5048 16.3672 46.0836H0.279027Z" fill="#65A217"/>
<path fill-rule="evenodd" clip-rule="evenodd" d="M68.6833 12.2514C68.6833 11.5857 68.2004 11.0179 67.5419 10.9088L64.6242 10.4237C56.0245 8.99549 47.7925 5.48557 40.8174 0.272387C40.332 -0.0907957 39.6638 -0.0907957 39.1784 0.272387C32.2034 5.48557 23.9713 8.99549 15.3716 10.4237L12.4539 10.9088C11.7953 11.0176 11.3125 11.5856 11.3125 12.2514V22.597C11.3125 23.0289 11.3164 23.4585 11.3241 23.886H13.8138C13.8059 23.4586 13.8017 23.029 13.8017 22.597V13.1825L15.7839 12.853C24.509 11.4023 32.8595 7.90899 39.9978 2.739C47.136 7.90911 55.4865 11.4023 64.2117 12.853L66.1938 13.1825V22.597C66.1938 23.029 66.1897 23.4586 66.1818 23.886H68.6714C68.6791 23.4585 68.683 23.0289 68.683 22.597V12.2514H68.6833ZM14.5604 41.9602C16.8232 47.9354 20.3457 53.3995 25.3683 58.4457C32.346 65.4556 39.2712 67.8315 39.5625 67.9287C39.7034 67.9766 39.8506 68 39.9979 68C40.1445 68 40.2919 67.9761 40.4332 67.9287C40.7247 67.8313 47.65 65.4556 54.627 58.4457C59.6502 53.399 63.1727 47.9349 65.4352 41.9602H62.7649C60.6199 47.2676 57.3895 52.1598 52.8534 56.7173C50.1798 59.4033 47.1116 61.7743 43.7956 63.6364C42.6627 64.2726 41.2692 64.9991 39.9985 65.4677C38.7251 64.997 37.3391 64.276 36.2012 63.637C32.8844 61.7748 29.8157 59.4037 27.1416 56.7173C22.6055 52.1599 19.3754 47.2677 17.2305 41.9602H14.5604Z" fill="#65A217"/>
<path d="M21.3987 17.1005C21.3811 18.2716 22.2937 19.1456 23.5126 19.1282C24.0307 19.1282 24.5313 18.9767 25.0141 18.6679L24.5843 17.9629C24.2664 18.1784 23.9601 18.2833 23.6598 18.2833C23.3124 18.2833 23.0357 18.1726 22.8179 17.957C22.6059 17.7356 22.4999 17.4502 22.4999 17.1005C22.4999 16.751 22.6059 16.4655 22.8179 16.2499C23.0357 16.0286 23.3125 15.9179 23.6598 15.9179C23.9601 15.9179 24.2663 16.0227 24.5843 16.2383L25.0141 15.5333C24.5313 15.2246 24.0308 15.073 23.5126 15.073C22.2937 15.0556 21.3811 15.9295 21.3987 17.1007V17.1005ZM29.4094 19.0583V18.2659H27.5251V17.4386H29.1267V16.6695H27.5251V15.9353H29.3152V15.1429H26.4476V19.0584H29.4094V19.0583ZM32.0088 19.0583V17.7589H32.3739L33.2159 19.0583H34.3817L33.3689 17.59C33.8812 17.4443 34.1992 16.9957 34.1992 16.4306C34.1992 16.0519 34.0638 15.743 33.7929 15.5042C33.5279 15.2653 33.1806 15.1429 32.7625 15.1429H30.9725V19.0584H32.0088V19.0583ZM32.0088 15.9586H32.5917C32.9156 15.9586 33.1393 16.1626 33.1393 16.4481C33.1393 16.7453 32.9156 16.9434 32.5917 16.9434H32.0088V15.9588V15.9586ZM36.5102 15.9586V19.0583H37.5877V15.9586H38.73V15.1429H35.362V15.9586H36.5102ZM41.2706 19.0583V15.1428H40.1931V19.0583H41.2706ZM44.1115 19.0583V17.6192H45.7131V16.8094H44.1115V15.9588H45.9016V15.1431H43.034V19.0585H44.1115V19.0583ZM48.5422 19.0583V15.1428H47.4647V19.0583H48.5422ZM53.2674 19.0583V18.2659H51.3831V17.4386H52.9847V16.6695H51.3831V15.9353H53.1731V15.1429H50.3056V19.0584H53.2674V19.0583ZM56.5557 19.0583C57.1681 19.0583 57.6628 18.8776 58.0455 18.5164C58.4281 18.1493 58.6225 17.6774 58.6225 17.1005C58.6225 16.5179 58.4341 16.046 58.0514 15.6847C57.6687 15.3234 57.174 15.1428 56.5557 15.1428H54.8305V19.0583H56.5557ZM55.908 15.9586H56.4262C56.7442 15.9586 57.0033 16.0635 57.2094 16.2791C57.4155 16.4946 57.5214 16.7685 57.5214 17.1007C57.5214 17.4327 57.4155 17.7066 57.2094 17.9222C57.0033 18.1377 56.7442 18.2427 56.4262 18.2427H55.908V15.9588V15.9586Z" fill="#65A217"/>
<path fill-rule="evenodd" clip-rule="evenodd" d="M8.02029 23.8855H71.9762C72.2736 23.8855 72.516 24.1254 72.516 24.4197V25.2926H7.48059V24.4197C7.48059 24.1254 7.72306 23.8855 8.02041 23.8855H8.02029ZM14.7763 37.5604V33.7783H18.738V37.5604H21.2907V28.2848H18.738V31.846H14.7763V28.2848H12.2236V37.5604H14.7763ZM27.1432 37.5604L27.8407 35.6832H31.2862L31.9836 37.5604H34.5363L30.7421 28.2848H28.3847L24.5765 37.5604H27.1431H27.1432ZM29.5564 31.0315L30.6166 33.8611H28.4963L29.5564 31.0315ZM36.7899 32.9225C36.7481 35.6969 38.9102 37.7674 41.7978 37.7259C43.0253 37.7259 44.211 37.367 45.3549 36.6355L44.3365 34.9653C43.5832 35.476 42.8579 35.7245 42.1465 35.7245C41.3236 35.7245 40.6679 35.4622 40.1518 34.9515C39.6496 34.427 39.3985 33.7506 39.3985 32.9225C39.3985 32.0943 39.6496 31.4179 40.1518 30.9073C40.6679 30.3828 41.3236 30.1205 42.1465 30.1205C42.858 30.1205 43.5833 30.369 44.3365 30.8797L45.3549 29.2095C44.211 28.478 43.0253 28.1191 41.7978 28.1191C38.9102 28.0777 36.7481 30.1481 36.7899 32.9225ZM47.9432 32.9225C47.9014 35.6969 50.0635 37.7674 52.9511 37.7259C54.1786 37.7259 55.3643 37.367 56.5082 36.6355L55.4898 34.9653C54.7365 35.476 54.0112 35.7245 53.2998 35.7245C52.4769 35.7245 51.8212 35.4622 51.3051 34.9515C50.8029 34.427 50.5518 33.7506 50.5518 32.9225C50.5518 32.0943 50.8029 31.4179 51.3051 30.9073C51.8212 30.3828 52.4769 30.1205 53.2998 30.1205C54.0113 30.1205 54.7366 30.369 55.4898 30.8797L56.5082 29.2095C55.3643 28.478 54.1786 28.1191 52.9511 28.1191C50.0635 28.0777 47.9014 30.1481 47.9432 32.9225ZM62.5838 37.5603V34.703H64.2717C65.304 34.703 66.1409 34.3994 66.7966 33.8058C67.4522 33.1984 67.773 32.4255 67.773 31.4868C67.773 30.5482 67.4522 29.7753 66.7966 29.1818C66.1409 28.5882 65.304 28.2846 64.2717 28.2846H60.1288V37.5601H62.5839L62.5838 37.5603ZM62.5838 30.217H63.8671C64.704 30.217 65.276 30.7553 65.276 31.4868C65.276 32.2598 64.7041 32.7705 63.8671 32.7705H62.5838V30.217ZM72.516 26.1134V39.7314H7.48059V26.1134H72.516ZM72.516 40.5525V41.4254C72.516 41.7197 72.2736 41.9596 71.9762 41.9596H8.02029C7.72294 41.9596 7.48047 41.7197 7.48047 41.4254V40.5525H72.5159H72.516Z" fill="#65A217"/>
<path fill-rule="evenodd" clip-rule="evenodd" d="M40.1848 49.3142L41.255 51.5683C41.2861 51.6339 41.3442 51.6756 41.4168 51.6846L43.9142 51.9952C43.9957 52.0053 44.0599 52.0579 44.0854 52.1353C44.1109 52.2127 44.09 52.2926 44.0301 52.3483L42.1943 54.052C42.1409 54.1016 42.1187 54.1691 42.1325 54.2402L42.6056 56.6864C42.621 56.7664 42.5905 56.8431 42.5239 56.891C42.4574 56.9388 42.3741 56.9439 42.3021 56.9046L40.0972 55.7034C40.0332 55.6685 39.9614 55.6685 39.8973 55.7034L37.6924 56.9046C37.6203 56.9439 37.5371 56.9387 37.4706 56.891C37.404 56.8431 37.3733 56.7664 37.3889 56.6864L37.862 54.2402C37.8756 54.1691 37.8536 54.1016 37.8002 54.052L35.9644 52.3483C35.9044 52.2926 35.8836 52.2127 35.9091 52.1353C35.9345 52.0579 35.9988 52.0053 36.0803 51.9952L38.5776 51.6846C38.6503 51.6756 38.7083 51.6339 38.7395 51.5683L39.8097 49.3142C39.8447 49.2406 39.915 49.1963 39.9973 49.1963C40.0796 49.1963 40.15 49.2406 40.1849 49.3142H40.1848Z" fill="#65A217"/>
<path fill-rule="evenodd" clip-rule="evenodd" d="M51.3037 46.3957L51.9531 47.7634C51.9719 47.8032 52.0072 47.8286 52.0512 47.8341L53.5665 48.0225C53.6159 48.0286 53.655 48.0606 53.6704 48.1075C53.6859 48.1545 53.6733 48.203 53.6369 48.2368L52.523 49.2706C52.4905 49.3006 52.4771 49.3416 52.4855 49.3848L52.7726 50.869C52.782 50.9176 52.7633 50.9641 52.723 50.9931C52.6827 51.0222 52.6321 51.0252 52.5885 51.0014L51.2507 50.2726C51.2118 50.2514 51.1683 50.2514 51.1293 50.2726L49.7916 51.0014C49.7479 51.0252 49.6973 51.0222 49.657 50.9931C49.6167 50.9641 49.5981 50.9176 49.6074 50.869L49.8945 49.3848C49.9029 49.3416 49.8894 49.3007 49.857 49.2706L48.7431 48.2368C48.7067 48.203 48.6942 48.1545 48.7096 48.1075C48.725 48.0606 48.764 48.0286 48.8135 48.0225L50.3288 47.8341C50.3728 47.8286 50.4081 47.8032 50.427 47.7634L51.0763 46.3957C51.0975 46.3511 51.1402 46.3242 51.1901 46.3242C51.2401 46.3242 51.2828 46.3511 51.304 46.3957H51.3037Z" fill="#65A217"/>
<path fill-rule="evenodd" clip-rule="evenodd" d="M28.9248 46.3957L29.5742 47.7634C29.593 47.8032 29.6283 47.8286 29.6723 47.8341L31.1876 48.0225C31.2371 48.0286 31.2761 48.0606 31.2915 48.1075C31.307 48.1545 31.2944 48.203 31.258 48.2368L30.1441 49.2706C30.1118 49.3006 30.0982 49.3416 30.1066 49.3848L30.3937 50.869C30.4031 50.9176 30.3844 50.9641 30.3441 50.9931C30.3038 51.0222 30.2532 51.0252 30.2096 51.0014L28.8718 50.2726C28.8328 50.2514 28.7894 50.2514 28.7504 50.2726L27.4127 51.0014C27.369 51.0252 27.3184 51.0222 27.2781 50.9931C27.2378 50.9641 27.2192 50.9176 27.2285 50.869L27.5156 49.3848C27.524 49.3416 27.5106 49.3007 27.4781 49.2706L26.3642 48.2368C26.3278 48.203 26.3153 48.1545 26.3307 48.1075C26.3461 48.0606 26.3851 48.0286 26.4346 48.0225L27.9499 47.8341C27.9939 47.8286 28.0292 47.8032 28.0481 47.7634L28.6974 46.3957C28.7186 46.3511 28.7613 46.3242 28.8112 46.3242C28.8612 46.3242 28.9039 46.3511 28.9251 46.3957H28.9248Z" fill="#65A217"/>
</svg>
