<svg width="24" height="24" viewBox="0 0 24 24" xmlns="http://www.w3.org/2000/svg">
    <path fill-rule="evenodd" clip-rule="evenodd" d="M18.094 3.673c-2.313-1.397-5.09-1.945-7.827-1.546-.048 0-.096.005-.143.013-2.895.456-5.421 1.91-7.115 4.093-1.69 2.183-2.346 4.834-1.845 7.466.084.434.2.871.347 1.296a6.857 6.857 0 0 1-.42 5.398.772.772 0 0 0 .127.89c.23.25.595.353.944.268l4.109-1.02A11.73 11.73 0 0 0 11.98 22c.728 0 1.463-.066 2.193-.2 2.881-.527 5.364-2.042 6.99-4.265 3.357-4.59 1.98-10.808-3.07-13.862zm1.543 12.94c-1.355 1.853-3.424 3.115-5.824 3.554-2.398.44-4.843.003-6.884-1.23a.987.987 0 0 0-.75-.11l-2.797.694a8.366 8.366 0 0 0-.12-5.02 7.853 7.853 0 0 1-.291-1.087c-.418-2.193.128-4.402 1.538-6.222 1.386-1.788 3.444-2.989 5.806-3.39a1.16 1.16 0 0 0 .131-.012c2.319-.364 4.674.088 6.634 1.272 4.21 2.544 5.356 7.725 2.558 11.55zm-7.634-9.695c-.507 0-.916.373-.916.833v4.999c0 .46.41.833.916.833.507 0 .917-.373.917-.833V7.751c0-.46-.41-.833-.917-.833zm.65 8.655a.77.77 0 0 1 .193.275c.046.1.073.209.073.317a.764.764 0 0 1-.073.317.954.954 0 0 1-.193.274 1.088 1.088 0 0 1-.302.175.986.986 0 0 1-.348.067 1.078 1.078 0 0 1-.65-.242.956.956 0 0 1-.193-.274.766.766 0 0 1-.073-.317c0-.108.027-.217.073-.317.046-.108.11-.2.192-.275a.977.977 0 0 1 .825-.225c.064.009.119.025.174.05a.55.55 0 0 1 .156.075.57.57 0 0 1 .11.073l.036.027z"/>
</svg>
