<svg width="48" height="48" viewBox="0 0 48 48" fill="none" xmlns="http://www.w3.org/2000/svg">
    <path fill-rule="evenodd" clip-rule="evenodd" d="M3.79 29.431h37.016v3.295H1.922l1.869-3.295z" fill="url(#a)"/>
    <path fill-rule="evenodd" clip-rule="evenodd" d="M37.705 37.24a.615.615 0 0 0-1.228 0v2.454a.615.615 0 0 0 1.228 0v-2.455zm-6.422-16.117l-7.357.348v.004a1.232 1.232 0 0 0-1.122 1.563l-5.791.221a.689.689 0 0 1-.61-.31.686.686 0 0 1-.06-.681c1.867-4.182 5.557-7.215 9.42-8.1a.627.627 0 0 1 .157-.017 19127.743 19127.743 0 0 1 10.113-.009c.332 0 .61.22.687.541l1.644 6.92a.68.68 0 0 1-.123.59.685.685 0 0 1-.535.276l-5.178.197a1.232 1.232 0 0 0-1.245-1.542zm-6.84-12.27c-11.47 2.013-17.654 12.59-23.11 24.346H1.33a.688.688 0 0 0 .046.677c.134.21.348.326.595.325l19.222-.066 19.222-.066a.686.686 0 0 0 .532-.244.687.687 0 0 0 .163-.561c-.6-4.193 1.536-6.84 5.107-7.816a.706.706 0 0 0 .495-.862L42.704 9.733a.696.696 0 0 0-.665-.52l-17.46-.37a.637.637 0 0 0-.137.01zm15.945 19.086H6.434a.686.686 0 0 1-.605-.343.688.688 0 0 1-.015-.695c3.027-5.603 6.826-11.065 11.901-14.197a19.493 19.493 0 0 1 6.818-2.62.576.576 0 0 1 .14-.011l16.42.35a.695.695 0 0 1 .664.52l3.468 12.844a.7.7 0 0 1-.423.84c-1.33.521-2.533 1.316-3.44 2.46-.137.174-.266.35-.383.532a.687.687 0 0 1-.59.32zM5.065 29.166h34.228l-.002.002c.221 0 .411.09.55.262a.68.68 0 0 1 .138.592 8.885 8.885 0 0 0-.194 2.105.676.676 0 0 1-.2.507.678.678 0 0 1-.502.212l-17.59.06-17.589.06a.687.687 0 0 1-.597-.326.686.686 0 0 1-.041-.68c.376-.793.765-1.596 1.17-2.404a.69.69 0 0 1 .63-.39zm26.148-16.25l-5.372.004.003.003h-.057a.665.665 0 0 0-.152.017l-.056.011c-4.992 1.104-9.104 5.188-10.805 9.932l-.262.73a.684.684 0 0 0 .094.653.68.68 0 0 0 .594.287l24.043-.916a.685.685 0 0 0 .535-.277.68.68 0 0 0 .124-.589l-2.214-9.318a.7.7 0 0 0-.686-.541h-.414l-5.375.004zM6.847 36.626c.339 0 .613.404.613.902v1.879c0 .498-.274.902-.613.902-.34 0-.614-.404-.614-.902v-1.88c0-.498.275-.901.614-.901zm10.082 0c.338 0 .613.404.613.902v1.879c0 .498-.275.902-.613.902-.34 0-.614-.404-.614-.902v-1.88c0-.498.275-.901.614-.901zm10.694.902c0-.498-.275-.902-.614-.902-.339 0-.614.404-.614.902v1.879c0 .498.275.902.614.902.339 0 .613-.404.613-.902v-1.88z" fill="#7ECA1D"/>
    <defs>
        <linearGradient id="a" x1="1.922" y1="29.431" x2="12.026" y2="48.211" gradientUnits="userSpaceOnUse">
            <stop stop-color="#E3EEFF"/>
            <stop offset=".526" stop-color="#E4F6E4"/>
            <stop offset="1" stop-color="#FFEEE4"/>
        </linearGradient>
    </defs>
</svg>
