<svg width="48" height="48" viewBox="0 0 48 48" fill="none" xmlns="http://www.w3.org/2000/svg">
    <path fill-rule="evenodd" clip-rule="evenodd" d="M14.123 9.29c.33-3.776 3.523-6.764 7.38-6.764h4.633c3.857 0 7.05 2.988 7.38 6.764h4.273c3.337 0 6.063 2.726 6.063 6.063v24.11c0 3.337-2.726 6.063-6.063 6.063H9.853c-3.337 0-6.064-2.726-6.064-6.064V15.353c0-3.337 2.727-6.063 6.064-6.063h4.273-.003zm17.869 0c-.325-2.94-2.833-5.247-5.858-5.247H21.5c-3.022 0-5.533 2.308-5.858 5.247h16.35zM9.85 10.806h27.936a4.56 4.56 0 0 1 4.547 4.547v24.11a4.56 4.56 0 0 1-4.547 4.546H9.85a4.56 4.56 0 0 1-4.547-4.547V15.353a4.56 4.56 0 0 1 4.547-4.547z" fill="#7ECA1D"/>
    <path fill-rule="evenodd" clip-rule="evenodd" d="M19.503 23.339c.89-.553 1.648-1.418 2.176-2.28a2.487 2.487 0 0 1 2-1.2 2.485 2.485 0 0 1 2.123.964c.606.776 1.484 1.867 2.392 2.503.862-.583 1.612-1.704 2.16-2.447a2.5 2.5 0 0 1 2.932-.852 2.5 2.5 0 0 1 1.59 2.604l-1.06 10.078a2.481 2.481 0 0 1-1.154 1.859 2.478 2.478 0 0 1-1.996.304c-2.868-.385-5.645-.449-8.536-.312-1.785.084-3.568.231-5.348.358a2.484 2.484 0 0 1-1.895-.41 2.484 2.484 0 0 1-1.06-1.796l-1.06-10.078a2.5 2.5 0 0 1 1.565-2.594 2.505 2.505 0 0 1 2.924.801c.52.675 1.397 1.9 2.247 2.5v-.002zm8.642 1.704c1.51-.532 2.521-2.031 3.429-3.264a.983.983 0 0 1 1.161-.337.986.986 0 0 1 .632 1.032l-1.06 10.078a.977.977 0 0 1-.457.738.97.97 0 0 1-.862.099c-5.42-.743-9.512-.322-14.42.025a.961.961 0 0 1-.813-.15.972.972 0 0 1-.421-.712l-1.06-10.078a.984.984 0 0 1 .621-1.03.986.986 0 0 1 1.159.318c.862 1.123 2.039 2.774 3.446 3.284 1.45-.617 2.663-1.874 3.472-3.196a.966.966 0 0 1 .794-.474.966.966 0 0 1 .842.383c.905 1.162 2.145 2.658 3.54 3.287l-.003-.003z" fill="#7ECA1D"/>
    <path fill-rule="evenodd" clip-rule="evenodd" d="M28.145 25.04c1.51-.532 2.521-2.03 3.429-3.263a.983.983 0 0 1 1.161-.337.986.986 0 0 1 .632 1.032l-1.06 10.078a.977.977 0 0 1-.457.738.971.971 0 0 1-.862.098c-5.42-.743-9.512-.322-14.42.026a.961.961 0 0 1-.813-.15.972.972 0 0 1-.421-.712l-1.06-10.078a.984.984 0 0 1 .621-1.03.986.986 0 0 1 1.159.317c.862 1.123 2.039 2.774 3.446 3.284 1.45-.616 2.663-1.874 3.472-3.195a.967.967 0 0 1 .794-.474.966.966 0 0 1 .842.383c.905 1.161 2.145 2.657 3.54 3.286l-.003-.002z" fill="url(#a)"/>
    <defs>
        <linearGradient id="a" x1="14.268" y1="21.369" x2="35.089" y2="26.557" gradientUnits="userSpaceOnUse">
            <stop stop-color="#E3EEFF"/>
            <stop offset=".526" stop-color="#E4F6E4"/>
            <stop offset="1" stop-color="#FFEEE4"/>
        </linearGradient>
    </defs>
</svg>
