<svg width="24" height="24" viewBox="0 0 24 24" xmlns="http://www.w3.org/2000/svg">
    <path d="M22.985 8.35a2.505 2.505 0 0 0-.02-.174C22.659 4.73 20.102 2 16.784 2c-1.923 0-3.68.9-4.83 2.359C10.829 2.89 9.139 2 7.227 2 3.92 2 1.369 4.71 1.04 8.196c-.006.04-.012.09-.018.148-.056.563-.01 1.31.207 2.219.461 1.931 1.54 3.69 3.06 5.054l7.08 6.157c.344.3.86.301 1.207.003l7.131-6.147c1.681-1.73 2.68-3.288 3.077-5.081.198-.901.245-1.642.2-2.199zm-1.992 1.812c-.311 1.41-1.14 2.702-2.55 4.157l-6.466 5.57-6.468-5.624c-1.24-1.113-2.122-2.552-2.496-4.119-.17-.711-.204-1.257-.163-1.663l.013-.091c.235-2.625 2.066-4.58 4.364-4.58 1.71 0 3.166 1.033 3.873 2.69.315.739 1.373.739 1.689 0 .693-1.624 2.251-2.69 3.994-2.69 2.297 0 4.128 1.955 4.364 4.58.006.053.008.068.01.1.03.383-.004.947-.164 1.67z"/>
</svg>
