<svg width="24" height="24" viewBox="0 0 24 24" xmlns="http://www.w3.org/2000/svg">
    <path fill-rule="evenodd" clip-rule="evenodd" d="M14.886 3.22a4.167 4.167 0 0 1 5.893 5.892l-5.185 5.185a4.166 4.166 0 0 1-5.892 0 .833.833 0 1 1 1.179-1.178 2.5 2.5 0 0 0 3.535 0L19.6 7.934a2.5 2.5 0 1 0-3.536-3.535l-2.828 2.827a.833.833 0 0 1-1.178-1.178l2.827-2.828zM7.935 19.6l2.356-2.356a.833.833 0 0 1 1.179 1.178L9.113 20.78a4.166 4.166 0 1 1-5.893-5.892l4.715-4.714a4.166 4.166 0 0 1 5.891 0 .834.834 0 0 1-1.178 1.178 2.5 2.5 0 0 0-3.535 0l-4.714 4.715A2.5 2.5 0 1 0 7.935 19.6z"/>
</svg>
