<svg width="48" height="48" viewBox="0 0 48 48" fill="none" xmlns="http://www.w3.org/2000/svg">
    <path fill-rule="evenodd" clip-rule="evenodd" d="M37.495 2.682c-3.424.041-6.816.745-9.985 2.071A26.796 26.796 0 0 0 18 11.46c-3.237 3.573-5.403 7.95-6.17 12.718-.723 4.482-.15 8.973 1.357 13.196 1.88-14.998 11.216-27.762 24.307-34.687v-.005z" fill="url(#a)"/>
    <path fill-rule="evenodd" clip-rule="evenodd" d="M12.915 40.453C3.226 19.152 20.2.234 39.347 1.306c.06 4.254-.84 8.582-2.384 12.741l-4.845 1.053 2.643 3.964C29.566 29.31 20.966 37.76 14.328 40.23a35.771 35.771 0 0 0 .527 6.135l-1.372.372a38.325 38.325 0 0 1-.568-6.285zm6.898-20.466l1.757-.849.618 1.272-3.515 1.698a41.28 41.28 0 0 0-1.784 4.091l4.64-2.243.618 1.271-5.908 2.856a41.727 41.727 0 0 0-1.085 4.123l6.29-3.037.617 1.271-7.22 3.492a38.872 38.872 0 0 0-.472 4.768c3.305-1.367 6.63-4.092 9-6.412 3.859-3.773 7.237-8.346 9.767-13.136l-3.333-4.995 6.107-1.33c1.062-3.03 1.789-6.212 1.984-9.423a37.548 37.548 0 0 0-3.278 1.658c-6.19 3.533-11.252 8.759-14.79 14.92l-.013.005zM35.978 2.742C28.826 6.26 22.46 12.19 18.146 20.073c-2.983 5.448-4.65 11.22-5.103 16.878-1.399-4.1-1.912-8.442-1.213-12.778.768-4.768 2.93-9.145 6.171-12.719A26.854 26.854 0 0 1 27.51 4.75a26.681 26.681 0 0 1 8.469-2.012v.004z" fill="#7ECA1D"/>
    <defs>
        <linearGradient id="a" x1="11.52" y1="2.682" x2="41.173" y2="6.18" gradientUnits="userSpaceOnUse">
            <stop stop-color="#E3EEFF"/>
            <stop offset=".526" stop-color="#E4F6E4"/>
            <stop offset="1" stop-color="#FFEEE4"/>
        </linearGradient>
    </defs>
</svg>
