<svg width="24" height="24" viewBox="0 0 24 24" xmlns="http://www.w3.org/2000/svg">
    <path fill-rule="evenodd" clip-rule="evenodd" d="M18.3 7.833v.834c1.489 0 2.7 1.121 2.7 2.5V19.5c0 1.378-1.211 2.5-2.7 2.5H5.7C4.211 22 3 20.878 3 19.5v-8.333c0-1.379 1.211-2.5 2.7-2.5v-.834C5.7 4.617 8.526 2 12 2c3.474 0 6.3 2.617 6.3 5.833zM12 3.667c-2.481 0-4.5 1.869-4.5 4.166v.834h9v-.834c0-2.297-2.019-4.166-4.5-4.166zm6.3 16.666c.496 0 .9-.373.9-.833v-8.333c0-.46-.404-.834-.9-.834H5.7c-.496 0-.9.374-.9.834V19.5c0 .46.404.833.9.833h12.6zm-9-6.25c0-1.378 1.211-2.5 2.7-2.5s2.7 1.122 2.7 2.5c0 1.085-.755 2.002-1.8 2.347v1.403c0 .461-.403.834-.9.834s-.9-.373-.9-.834V16.43c-1.045-.345-1.8-1.262-1.8-2.347zm1.8 0c0 .46.404.834.9.834s.9-.374.9-.834c0-.46-.404-.833-.9-.833s-.9.373-.9.833z"/>
</svg>
