<svg width="48" height="48" viewBox="0 0 48 48" fill="none" xmlns="http://www.w3.org/2000/svg">
    <path fill-rule="evenodd" clip-rule="evenodd" d="M8.707 15.168C16.3 16.038 19.037 9.58 24 10.14c4.964-.56 7.7 5.898 15.293 5.028 7.06-5.565 12.878 6.993-1.055 10.112.015-.032.03-.062.043-.094-2.324 5.064-7.978 9.329-14.282 9.256-6.304.073-11.958-4.192-14.282-9.256l.043.094C-4.172 22.16 1.647 9.603 8.706 15.168zm29.601 5.79C34.002 19.898 29.144 19.3 24 19.3c-5.143 0-10.002.598-14.308 1.659a9.134 9.134 0 0 1-.015-.294v-4.347c2.612.085 4.88-.64 7.215-2.01.99-.581 1.928-1.236 2.905-1.834.776-.475 1.617-.937 2.506-1.157a4.424 4.424 0 0 1 1.577-.11l.12.015.12-.014a4.424 4.424 0 0 1 1.577.11c.887.22 1.73.681 2.506 1.156.977.598 1.916 1.254 2.905 1.834 2.334 1.37 4.603 2.095 7.215 2.01v4.347a9.311 9.311 0 0 1-.015.294zM9.822 22.007c4.247-1.042 9.068-1.631 14.18-1.631 5.11 0 9.93.59 14.178 1.631-.468 2.625-1.985 5.086-3.854 6.951-3.077-.81-6.591-1.27-10.325-1.27-3.734 0-7.248.46-10.325 1.27-1.869-1.865-3.385-4.326-3.854-6.95zm4.775 7.799c2.826-.668 6.02-1.043 9.404-1.043 3.384 0 6.58.375 9.405 1.043-2.61 2.22-5.939 3.602-9.393 3.562h-.026c-3.454.04-6.783-1.342-9.392-3.562h.002zm24.801-13.311v4.19a11.203 11.203 0 0 1-.491 2.87l-.005.455c2.495-.685 5.263-1.991 6.355-4.324.653-1.396.572-3.187-.678-4.229-.667-.557-1.5-.719-2.346-.563-1.055.195-2.03.85-2.833 1.602l-.002-.001zm-.591 7.371l-.087.253c.03-.084.059-.169.087-.253zm-.115.326l-.08.216.08-.216zm-.127.334a5.817 5.817 0 0 1-.07.17l.07-.17zm-.14.34c-.017.04-.035.079-.051.119l.051-.119zm-28.796.119a5.82 5.82 0 0 1-.052-.119l.052.119zm-.123-.288l-.07-.171c.022.057.045.114.07.17zm-.115-.288a18.019 18.019 0 0 1-.081-.216l.08.216zm-.109-.29zm-.103-.297a11.205 11.205 0 0 1-.576-3.137v-4.189c-.804-.753-1.779-1.407-2.834-1.602-.845-.156-1.679.007-2.346.563-1.251 1.042-1.332 2.833-.677 4.23 1.09 2.332 3.86 3.638 6.354 4.323l-.005-.456.085.267z" fill="#7ECA1D"/>
    <path fill-rule="evenodd" clip-rule="evenodd" d="M39.592 19.027l-4.84-2.794-.952 1.65 4.84 2.793.952-1.65zm-12.06-2.794l-4.839 2.794.953 1.65 4.839-2.795-.953-1.65zm3.611 19.558a8.436 8.436 0 1 0 0-16.872 8.436 8.436 0 0 0 0 16.872z" fill="url(#a)"/>
    <path fill-rule="evenodd" clip-rule="evenodd" d="M31.32 23.016c.3 0 .544.243.544.54v3.427h4.68c.298 0 .543.244.543.54 0 .298-.245.541-.543.541h-5.237l-.014-.001-.014-.001-.014-.001-.013-.001-.014-.002-.014-.002-.014-.003-.012-.003-.013-.003-.013-.003-.013-.004-.012-.005-.013-.004-.013-.004-.013-.005-.012-.006-.011-.005-.012-.006-.012-.006-.011-.007-.012-.006-.01-.008-.011-.007-.01-.007-.012-.008-.01-.008-.01-.009-.01-.008-.01-.009-.01-.008-.009-.01-.01-.01-.008-.009-.008-.01-.01-.009-.008-.01-.008-.01-.008-.011-.007-.011-.007-.01-.008-.011-.006-.012-.007-.011-.006-.012-.006-.012-.006-.011-.005-.012-.005-.012-.005-.012-.004-.013-.004-.013-.004-.012-.003-.013-.004-.013-.003-.012-.002-.013-.002-.014-.002-.014-.001-.013-.001-.014-.001-.014-.002-.013v-3.981c0-.297.245-.54.544-.54l.002-.001zm.046-5.124c.818 0 1.61.102 2.367.293a1.616 1.616 0 0 1 .058-1.507 1.638 1.638 0 0 1 2.224-.593l3.547 2.038a1.62 1.62 0 0 1 .596 2.212c-.33.57-.962.864-1.581.8a9.487 9.487 0 0 1 2.395 6.314c0 5.277-4.3 9.556-9.607 9.556-5.305 0-9.607-4.279-9.607-9.556 0-2.42.905-4.63 2.396-6.313a1.636 1.636 0 0 1-1.582-.8 1.62 1.62 0 0 1 .597-2.213l3.546-2.038a1.638 1.638 0 0 1 2.225.593c.277.478.28 1.042.057 1.507a9.656 9.656 0 0 1 2.368-.293h.002zm0 1.08c4.707 0 8.521 3.795 8.521 8.476 0 4.681-3.815 8.476-8.52 8.476-4.707 0-8.521-3.796-8.521-8.476 0-4.682 3.815-8.476 8.52-8.476zm7.654.085l-3.547-2.037a.54.54 0 1 0-.542.935l3.547 2.037a.54.54 0 1 0 .542-.935zm-15.308 0l3.547-2.037a.54.54 0 1 1 .542.935l-3.547 2.037a.54.54 0 1 1-.542-.935z" fill="#7ECA1D"/>
    <defs>
        <linearGradient id="a" x1="22.693" y1="16.233" x2="41.898" y2="18.846" gradientUnits="userSpaceOnUse">
            <stop stop-color="#E3EEFF"/>
            <stop offset=".526" stop-color="#E4F6E4"/>
            <stop offset="1" stop-color="#FFEEE4"/>
        </linearGradient>
    </defs>
</svg>
