<svg width="48" height="48" viewBox="0 0 48 48" fill="none" xmlns="http://www.w3.org/2000/svg">
    <path fill-rule="evenodd" clip-rule="evenodd" d="M8.949 23.49c10.111-2.486 20.144-2.376 30.102.177-.176 2.145-1.348 4.725-4.055 7.972-7.62-1.576-14.755-1.592-21.302.296-2.932-2.592-4.192-5.46-4.745-8.445z" fill="url(#a)"/>
    <path fill-rule="evenodd" clip-rule="evenodd" d="M8.707 17.65c7.593.848 10.329-5.44 15.294-4.896 4.964-.544 7.7 5.742 15.293 4.896 7.059-5.418 12.879 6.81-1.056 9.847l.044-.092c-2.323 4.93-7.978 9.083-14.282 9.012-6.304.07-11.959-4.083-14.283-9.012.014.03.03.06.044.092-13.933-3.037-8.114-15.265-1.055-9.847zm29.6 5.64c-4.306-1.034-9.164-1.617-14.307-1.617-5.143 0-10.002.583-14.308 1.616a7.901 7.901 0 0 1-.015-.286V18.77c2.612.083 4.88-.624 7.214-1.957.99-.566 1.928-1.203 2.906-1.785.776-.463 1.618-.913 2.505-1.127a4.553 4.553 0 0 1 1.578-.107l.12.014.12-.014a4.553 4.553 0 0 1 1.577.107c.887.214 1.73.664 2.505 1.127.977.582 1.916 1.22 2.906 1.785 2.335 1.333 4.602 2.041 7.214 1.957v4.233c-.003.096-.008.191-.014.286zM9.822 24.307C14.068 23.294 18.888 22.72 24 22.72c5.11 0 9.931.574 14.178 1.59-.467 2.555-1.985 4.95-3.853 6.767-3.076-.788-6.592-1.236-10.324-1.236-3.733 0-7.248.448-10.326 1.236-1.869-1.815-3.385-4.211-3.853-6.768zm4.774 7.593c2.827-.65 6.02-1.015 9.405-1.015 3.384 0 6.578.366 9.405 1.015-2.61 2.163-5.938 3.507-9.393 3.47h-.025c-3.454.037-6.782-1.307-9.392-3.47zm24.802-12.96v4.079a10.646 10.646 0 0 1-.577 3.055c.03-.087.058-.173.086-.26l-.006.445c2.495-.668 5.263-1.94 6.355-4.21.653-1.36.572-3.104-.678-4.118-.667-.542-1.5-.7-2.346-.549-1.055.19-2.03.827-2.834 1.56v-.001zm-.592 7.178c-.027.081-.057.163-.087.245.03-.082.06-.164.087-.245zm-.114.317zm-.127.324l-.069.166.07-.166zm-.14.331l-.052.116.052-.116zm-28.797.116l-.051-.116.051.116zm-.123-.28l-.069-.167.07.166zm-.115-.281zm-.108-.283c-.03-.082-.06-.164-.088-.246.028.082.058.164.088.246zm-.103-.29a10.644 10.644 0 0 1-.576-3.055V18.94c-.804-.733-1.778-1.37-2.835-1.56-.844-.152-1.677.007-2.346.549-1.25 1.014-1.332 2.758-.677 4.117 1.091 2.271 3.86 3.543 6.355 4.21l-.006-.444c.027.086.055.173.085.26zM12.337 8.262a.704.704 0 0 1 .901 0l1.801 1.582a.515.515 0 0 1 0 .792.704.704 0 0 1-.901 0l-1.801-1.582a.515.515 0 0 1 0-.792zm23.326 0a.515.515 0 0 1 0 .792l-1.801 1.582a.704.704 0 0 1-.901 0 .515.515 0 0 1 0-.792l1.8-1.582a.704.704 0 0 1 .902 0zM24 6.316c.35 0 .637.251.637.559v2.238c0 .307-.287.559-.637.559-.35 0-.636-.252-.636-.56V6.876c0-.308.286-.56.636-.56zM12.337 40.598a.638.638 0 0 0 .901 0l1.801-1.808a.638.638 0 1 0-.901-.905l-1.801 1.809a.644.644 0 0 0 0 .904zm23.326 0a.644.644 0 0 0 0-.904l-1.801-1.809a.638.638 0 1 0-.901.905l1.8 1.808a.638.638 0 0 0 .902 0zM24 42.823a.64.64 0 0 0 .637-.64v-2.557a.64.64 0 0 0-.637-.639.64.64 0 0 0-.636.64v2.557c0 .351.286.639.636.639z" fill="#7ECA1D"/>
    <defs>
        <linearGradient id="a" x1="8.949" y1="21.687" x2="37.648" y2="34.966" gradientUnits="userSpaceOnUse">
            <stop stop-color="#E3EEFF"/>
            <stop offset=".526" stop-color="#E4F6E4"/>
            <stop offset="1" stop-color="#FFEEE4"/>
        </linearGradient>
    </defs>
</svg>
