<svg width="48" height="48" viewBox="0 0 48 48" fill="none" xmlns="http://www.w3.org/2000/svg">
    <path fill-rule="evenodd" clip-rule="evenodd" d="M11.691 2.526h21.568c3.651 0 6.638 2.987 6.638 6.639v27.304c0 3.651-2.987 6.638-6.638 6.638H11.69c-3.652 0-6.638-2.987-6.638-6.638V9.165c0-3.652 2.986-6.639 6.638-6.639zm.532 22.599h8.827c.456 0 .831.375.831.83a.835.835 0 0 1-.83.832h-8.828a.835.835 0 0 1-.831-.831c0-.456.375-.831.83-.831zm0-13.325h6.33c.456 0 .83.375.83.831a.835.835 0 0 1-.83.831h-6.33a.835.835 0 0 1-.831-.83c0-.457.375-.832.83-.832zm9.957 0h10.632c.456 0 .831.375.831.831a.835.835 0 0 1-.83.831H22.18a.835.835 0 0 1-.83-.83c0-.457.375-.832.83-.832zm-9.957 6.662h3.58c.456 0 .831.375.831.831a.835.835 0 0 1-.83.831h-3.581a.835.835 0 0 1-.831-.83c0-.457.375-.832.83-.832zm7.54 0h13.045c.456 0 .83.375.83.831a.835.835 0 0 1-.83.831H19.764a.835.835 0 0 1-.831-.83c0-.457.375-.832.83-.832zM11.692 4.193c-2.73 0-4.972 2.241-4.972 4.972v27.304c0 2.73 2.242 4.971 4.972 4.971h21.568c2.73 0 4.971-2.241 4.971-4.971V9.165c0-2.73-2.24-4.972-4.971-4.972H11.69z" fill="#7ECA1D"/>
    <path d="M31.74 43.302a8.329 8.329 0 1 0 0-16.658 8.329 8.329 0 0 0 0 16.658z" fill="url(#a)"/>
    <path fill-rule="evenodd" clip-rule="evenodd" d="M27.129 33.776a.837.837 0 0 1 1.177 0l2.503 2.503 4.373-4.374a.837.837 0 0 1 1.178 0 .837.837 0 0 1 0 1.178l-4.962 4.962-.015.014-.014.015-.014.014-.015.014-.014.015-.019.014-.019.014-.019.01-.019.009-.019.01-.019.009-.019.01-.019.009-.019.01-.019.009-.019.01-.019.009-.019.005-.019.005-.019.004-.019.005-.019.005-.019.005-.019.004-.019.005-.019.005-.019.005H30.72l-.02-.005-.019-.005-.018-.005-.02-.005-.018-.004-.02-.005-.018-.005-.02-.005-.018-.004-.02-.005-.018-.01-.02-.009-.018-.01-.02-.009-.019-.01-.018-.009-.02-.01-.018-.009-.02-.01-.018-.009-.02-.014-.018-.014-.015-.015-.014-.014-.014-.014-.014-.014-.015-.015-3.09-3.091a.837.837 0 0 1 0-1.178h-.01zm4.615-8.794c5.518 0 9.996 4.473 9.996 9.996 0 5.517-4.473 9.995-9.996 9.995-5.518 0-9.995-4.473-9.995-9.995 0-5.518 4.473-9.996 9.995-9.996zm0 1.667a8.327 8.327 0 0 1 8.329 8.329 8.327 8.327 0 0 1-8.329 8.329 8.327 8.327 0 0 1-8.329-8.33 8.327 8.327 0 0 1 8.33-8.328z" fill="#7ECA1D"/>
    <defs>
        <linearGradient id="a" x1="23.41" y1="26.644" x2="42.225" y2="29.608" gradientUnits="userSpaceOnUse">
            <stop stop-color="#E3EEFF"/>
            <stop offset=".526" stop-color="#E4F6E4"/>
            <stop offset="1" stop-color="#FFEEE4"/>
        </linearGradient>
    </defs>
</svg>
