<svg width="48" height="48" viewBox="0 0 48 48" fill="none" xmlns="http://www.w3.org/2000/svg">
    <path fill-rule="evenodd" clip-rule="evenodd" d="M7.9 19.364h33.293V9.251c0-2.821-2.313-5.134-5.134-5.134H13.03c-2.822 0-5.134 2.313-5.134 5.135v10.112h.004z" fill="url(#a)"/>
    <path fill-rule="evenodd" clip-rule="evenodd" d="M14.282 8.93l1.442 4.073L17.16 8.93h1.518v5.617h-1.161v-1.535l.116-2.65-1.515 4.185h-.794l-1.512-4.182.116 2.647v1.535H12.77V8.93h1.512zm8.786 3.176h-2.22v1.509h2.607v.933H19.69V8.93h3.758v.94h-2.6v1.335h2.22v.9zm5.637 2.442h-1.158v-2.409H25.29v2.409h-1.158V8.93h1.158v2.276h2.256V8.93h1.158v5.617zm7.615-2.68c0 .553-.096 1.039-.291 1.456a2.223 2.223 0 0 1-.84.966c-.364.225-.781.34-1.251.34a2.34 2.34 0 0 1-1.155-.28 2.206 2.206 0 0 1-.83-.808c-.212-.35-.34-.76-.39-1.227h-.645v2.236H29.76V8.934h1.158v2.48h.625c.023-.505.136-.952.337-1.342.202-.387.48-.688.837-.9.358-.212.761-.318 1.214-.318.467 0 .884.113 1.248.338.363.225.645.549.843.97.199.42.298.906.298 1.458v.251-.003zm-1.171-.255c0-.588-.106-1.038-.318-1.343-.212-.307-.51-.46-.903-.46-.387 0-.688.153-.9.454-.211.304-.317.747-.32 1.33v.274c0 .576.105 1.019.317 1.337.212.317.516.476.91.476.387 0 .684-.152.893-.46.208-.304.314-.748.317-1.333v-.275h.004z" fill="#7ECA1D"/>
    <path fill-rule="evenodd" clip-rule="evenodd" d="M13.034 2.53h23.028c3.698 0 6.722 3.023 6.722 6.722v21.634l-.033.033h.033l-14.05 14.05v-.034l-.033.033H13.038c-3.699 0-6.722-3.023-6.722-6.721V9.248c0-3.698 3.023-6.722 6.722-6.722l-.004.004zm28.162 28.39V20.79H7.9v17.46a5.147 5.147 0 0 0 5.134 5.134h15.697v-5.64c0-3.755 3.07-6.825 6.825-6.825h5.64zm0-21.668v9.95H7.9v-9.95a5.147 5.147 0 0 1 5.134-5.134h23.028a5.147 5.147 0 0 1 5.134 5.134zM38.95 32.507h-3.395c-2.877 0-5.236 2.359-5.236 5.237v3.394l8.63-8.63zM15.807 27.45h-2.54a.796.796 0 0 0-.795.794c0 .437.357.794.794.794h2.54a.796.796 0 0 0 .795-.794.796.796 0 0 0-.794-.794zm20.02 0H19.264a.796.796 0 0 0-.794.794c0 .437.357.794.794.794h16.563a.796.796 0 0 0 .794-.794.796.796 0 0 0-.794-.794zM18.744 33.8h-5.478a.796.796 0 0 0-.794.794c0 .437.357.794.794.794h5.478a.796.796 0 0 0 .794-.794.796.796 0 0 0-.794-.794zm6.524 0h-3.146a.796.796 0 0 0-.794.794c0 .437.357.794.794.794h3.146a.796.796 0 0 0 .794-.794.796.796 0 0 0-.794-.794z" fill="#7ECA1D"/>
    <defs>
        <linearGradient id="a" x1="7.897" y1="4.117" x2="42.36" y2="15.971" gradientUnits="userSpaceOnUse">
            <stop stop-color="#E3EEFF"/>
            <stop offset=".526" stop-color="#E4F6E4"/>
            <stop offset="1" stop-color="#FFEEE4"/>
        </linearGradient>
    </defs>
</svg>
