<svg width="48" height="48" viewBox="0 0 48 48" fill="none" xmlns="http://www.w3.org/2000/svg">
    <path d="M23.363 37.413c5.93 0 10.736-4.807 10.736-10.737S29.293 15.94 23.363 15.94c-5.93 0-10.737 4.807-10.737 10.737s4.807 10.737 10.737 10.737z" fill="url(#a)"/>
    <path fill-rule="evenodd" clip-rule="evenodd" d="M8.449 2.526l3.733.862 3.733-.862 3.733.862 3.734-.862 3.733.862 3.733-.862 3.733.862c1.226.285 2.49-.862 3.734-.862 0 7.16 2.359 22.086 2.359 29.245 0 7.159-2.422 6.544-2.422 13.703H8.767c0-7.16-2.451-6.031-2.451-13.187 0-7.16 2.133-22.602 2.133-29.76zm1.353 1.79c-.056 1.665-.178 3.342-.306 4.992-.214 2.75-.476 5.497-.735 8.24-.259 2.729-.518 5.46-.732 8.195-.17 2.163-.33 4.378-.33 6.547 0 1.242.071 2.53.345 3.745.185.812.461 1.526.77 2.29.372.917.694 1.776.914 2.749.22.97.333 1.965.386 2.966H36.9a18.84 18.84 0 0 1 .378-3.028c.217-1.013.535-1.934.892-2.901.306-.831.586-1.622.773-2.493.268-1.255.346-2.559.346-3.841 0-2.135-.176-4.326-.363-6.451-.235-2.673-.524-5.343-.81-8.012-.285-2.688-.577-5.376-.815-8.067-.14-1.598-.273-3.226-.336-4.845-.877.349-1.725.62-2.686.398l-3.433-.794-3.733.862-3.733-.862-3.734.862-3.733-.862-3.733.862-2.38-.55.003-.003z" fill="#7ECA1D"/>
    <path fill-rule="evenodd" clip-rule="evenodd" d="M28.837 17.044a11.476 11.476 0 0 1 6.131 10.158c0 6.175-4.877 11.21-10.988 11.465v2.413l-4.309-3.16 4.31-3.16v2.474c5.32-.255 9.555-4.647 9.555-10.032 0-3.879-2.197-7.241-5.416-8.916l.717-1.242zM17.458 36.583a11.476 11.476 0 0 1-6.132-10.158c0-6.175 4.878-11.21 10.988-11.465v-2.413l4.31 3.16-4.31 3.16v-2.475c-5.32.256-9.555 4.648-9.555 10.033 0 3.878 2.197 7.241 5.415 8.916l-.716 1.242z" fill="#7ECA1D"/>
    <path d="M36.047 7.005h-24.72v1.432h24.72V7.005z" fill="#7ECA1D"/>
    <defs>
        <linearGradient id="a" x1="12.626" y1="15.939" x2="36.88" y2="19.759" gradientUnits="userSpaceOnUse">
            <stop stop-color="#E3EEFF"/>
            <stop offset=".526" stop-color="#E4F6E4"/>
            <stop offset="1" stop-color="#FFEEE4"/>
        </linearGradient>
    </defs>
</svg>
