<svg width="24" height="24" viewBox="0 0 24 24" xmlns="http://www.w3.org/2000/svg">
    <path fill-rule="evenodd" clip-rule="evenodd" d="M1 12C1 5.934 5.934 1 12 1s11 4.935 11 11-4.934 11-11 11S1 18.066 1 12zm1.704 0c0 5.126 4.17 9.296 9.296 9.296 5.126 0 9.296-4.17 9.296-9.296 0-5.126-4.17-9.296-9.296-9.296-5.125 0-9.296 4.17-9.296 9.296zm10.148-.929h3.408a.852.852 0 1 1 0 1.704h-3.408v3.409a.852.852 0 1 1-1.704 0v-3.409H7.74a.852.852 0 1 1 0-1.704h3.408V7.663a.852.852 0 1 1 1.704 0v3.408z"/>
</svg>
