<svg width="48" height="48" viewBox="0 0 48 48" fill="none" xmlns="http://www.w3.org/2000/svg">
    <path fill-rule="evenodd" clip-rule="evenodd" d="M38.47 25.922c.121-3.749-1.508-7.173-4.263-8.983 5.017-1.054 9.213-5.166 9.11-11.386-2.187-.018-4.123.405-5.756 1.207-.078-1.8-.612-3.665-1.708-5.494-1.817 1.03-3.235 2.292-4.242 3.72-1.008-1.421-2.42-2.68-4.23-3.705C24.21 6.567 25.73 12.17 29.47 15.6c-1.69.053-3.344.625-4.8 1.607l-.05-.056c-1.729-1.93-4.16-2.652-6.668-1.98a8.772 8.772 0 0 0-2.07.866 10.178 10.178 0 0 0-.271-.597c.19-.028.376-.068.554-.115 1.436-.385 2.486-1.384 2.956-2.81.308-.94.262-1.766.25-1.922l-.161-2.041-2.008.397c-.988.196-1.945.585-2.692 1.28a3.994 3.994 0 0 0-1.23 2.242 5.856 5.856 0 0 0-1.898-.975.912.912 0 0 0-.52 1.746c1.72.511 2.726 2.14 3.224 3.237-.734.016-1.43.11-2.077.283h-.002c-2.508.673-4.252 2.513-4.784 5.05a8.629 8.629 0 0 0-.083 2.93c.053.39.13.783.23 1.177h31.103l-.003.003zM31.173 5.658c.02-.034.041-.069.063-.102-.022.035-.041.07-.063.102zm.135-.22l.08-.124-.08.123zm.149-.23l.085-.127c-.03.043-.057.086-.085.127zm6.106 1.669c.002.054.004.109.004.163 0-.054-.002-.109-.004-.163zm.005.29v0z" fill="url(#a)"/>
    <path fill-rule="evenodd" clip-rule="evenodd" d="M8.77 25.922l-.002-.006h.003l-.001.006zm-.002-.006H7.37c-.1-.394-.178-.787-.23-1.178a8.628 8.628 0 0 1 .082-2.93c.532-2.536 2.276-4.376 4.784-5.049h.002a8.813 8.813 0 0 1 2.077-.284c-.498-1.096-1.504-2.725-3.223-3.236a.91.91 0 0 1 .52-1.746c.726.216 1.356.56 1.897.974a4.014 4.014 0 0 1 1.23-2.242c.747-.694 1.704-1.083 2.692-1.279l2.008-.397.162 2.04c.011.157.057.983-.251 1.923-.47 1.426-1.52 2.425-2.956 2.81a4.938 4.938 0 0 1-.554.115c.104.212.195.412.27.597.686-.391 1.38-.681 2.071-.866 2.508-.673 4.94.05 6.669 1.98l.05.056c1.455-.983 3.109-1.555 4.799-1.607-3.741-3.431-5.261-9.033-2.09-14.319 1.81 1.025 3.222 2.283 4.23 3.705 1.007-1.428 2.425-2.691 4.242-3.72 1.096 1.829 1.63 3.693 1.708 5.494 1.634-.802 3.57-1.225 5.757-1.207.102 6.22-4.094 10.332-9.11 11.385 2.754 1.81 4.383 5.235 4.263 8.984h-1.352a10.085 10.085 0 0 0-.671-4.069h-1.657a.678.678 0 0 1-.676-.676c0-.372.305-.676.676-.676h.99c-.982-1.622-2.462-2.832-4.294-3.324-3.805-1.018-7.841 1.405-9.627 5.538h3.606c.373 0 .676.305.676.676a.678.678 0 0 1-.676.676h-4.046l-.04-.001-.012.037a11.351 11.351 0 0 0-.36 1.819H19.65c.066-.661.187-1.33.366-2 .645-2.404 1.937-4.431 3.586-5.884-1.391-1.54-3.292-2.097-5.299-1.56a7.52 7.52 0 0 0-1.754.736l-.514.292c-.372.385-.548.357-.789.318a3.262 3.262 0 0 0-.09-.013l-1.042.023a7.437 7.437 0 0 0-1.757.239l-.028.008c-1.999.546-3.359 1.983-3.786 4.014a7.277 7.277 0 0 0-.066 2.472c.063.457.162.909.292 1.352zM30.765 15.49l.037.09.038.091a8.207 8.207 0 0 1-.075-.18zm-.09-.218l-.026-.065c.023.06.046.118.071.176l-.045-.111zm-.174-.466a4.434 4.434 0 0 1-.048-.139l-.002-.001c-1.026-2.99-.881-5.892.388-8.398-.696-1.135-1.677-2.168-2.941-3.062-1.156 2.593-1.217 5.427.038 8.093a10.67 10.67 0 0 0 2.515 3.367l.05.142v-.002zm.672-9.147c.02-.034.042-.07.063-.102l-.011.019-.013.02a2.042 2.042 0 0 1-.039.063zm.284-.45l.058-.086-.024.036-.034.05zm.058-.086a6.22 6.22 0 0 1 .028-.04l-.02.03-.008.01zm5.996 3.199l-.002.001.002-.001zm0 0c1.238-.738 2.71-1.205 4.394-1.36-.296 2.824-1.659 5.308-4.08 6.99a10.693 10.693 0 0 1-4.156 1.716c2.12-1.905 3.545-4.5 3.842-7.346zm-2.178-5.13c-4.164 2.942-5.246 7.379-3.223 12.018a10.769 10.769 0 0 0 3.187-3.926c1.254-2.667 1.193-5.5.036-8.093zm-17.352 6.981h-.002v-.001l.002.001zm-.002 0l.041.526c.035.434-.052.986-.186 1.393-.323.986-1.017 1.659-2.021 1.928a3.77 3.77 0 0 1-.406.084l-1.055.16a.59.59 0 0 1-.025-.033l.277-1.515a2.673 2.673 0 0 1 .823-1.495c.557-.519 1.3-.8 2.035-.946l.517-.101zM7.35 25.922h32.347c1.926 0 3.916 1.626 3.502 3.502L40.497 41.72c-.413 1.878-1.581 3.502-3.502 3.502H10.118c-1.922 0-3.08-1.624-3.501-3.502l-2.77-12.296c-.424-1.88 1.576-3.502 3.502-3.502h.001zm0 1.35c-.913 0-2.423.795-2.184 1.855l2.77 12.296c.247 1.095.882 2.448 2.184 2.448h26.877c1.3 0 1.942-1.343 2.182-2.441l2.703-12.296c.234-1.068-1.282-1.861-2.183-1.861H7.35zm3.99 5.573v6.268l.002.002h2.438c.71-.007 1.258-.163 1.644-.473.382-.31.575-.767.575-1.369 0-.353-.092-.65-.277-.895a1.329 1.329 0 0 0-.76-.486c.282-.11.501-.28.658-.515.158-.234.237-.506.237-.812 0-.563-.196-.99-.59-1.281-.392-.294-.97-.439-1.73-.439H11.34zm1.293 5.226v-1.685h1.183c.594.01.89.299.89.87 0 .255-.085.456-.255.6-.17.143-.409.215-.712.215h-1.106zm.956-2.6h-.956v-1.577h.903c.356 0 .617.06.782.186.166.125.248.33.248.613 0 .508-.326.767-.977.778zm7.935.917h-2.48v1.685h2.91v1.04h-4.202v-6.27h4.192v1.05h-2.9v1.49h2.48v1.005zm3.263.158h2.48v-1.04h-2.48v-1.612h2.79v-1.05h-4.081v6.27h1.29v-2.568zm5.696 2.567h-1.291v-6.27h1.29v6.27zm4.654-5.22h1.92v-1.05H31.95v1.05h1.894v5.22h1.293v-5.22z" fill="#7ECA1D"/>
    <defs>
        <linearGradient id="a" x1="7.055" y1="1.266" x2="46.893" y2="10.496" gradientUnits="userSpaceOnUse">
            <stop stop-color="#E3EEFF"/>
            <stop offset=".526" stop-color="#E4F6E4"/>
            <stop offset="1" stop-color="#FFEEE4"/>
        </linearGradient>
    </defs>
</svg>
