<svg width="24" height="24" viewBox="0 0 24 24" xmlns="http://www.w3.org/2000/svg">
    <path fill-rule="evenodd" clip-rule="evenodd" d="M12 1C8.928 1 6.429 3.566 6.429 6.72S8.928 12.44 12 12.44c3.072 0 5.572-2.566 5.572-5.72S15.072 1 12 1zM8.429 6.72C8.429 4.62 10.082 3 12 3c1.918 0 3.572 1.62 3.572 3.72S13.918 10.44 12 10.44c-1.918 0-3.571-1.62-3.571-3.72zM18.719 16.616C17.24 15.058 15.28 14.2 13.2 14.2h-2.4c-2.08 0-4.04.858-5.519 2.416A8.328 8.328 0 0 0 3 22.377c0 .344.269.623.6.623h16.8c.331 0 .6-.279.6-.623 0-2.165-.81-4.211-2.281-5.761zM5.146 21a6.279 6.279 0 0 1 1.586-3.008C7.847 16.818 9.288 16.2 10.8 16.2h2.4c1.512 0 2.953.618 4.068 1.792A6.28 6.28 0 0 1 18.854 21H5.146z"/>
</svg>
