<svg width="24" height="24" viewBox="0 0 24 24" xmlns="http://www.w3.org/2000/svg">
    <path fill-rule="evenodd" clip-rule="evenodd" d="M12 21a9 9 0 1 0 0-18 9 9 0 0 0 0 18zm0 2c6.075 0 11-4.925 11-11S18.075 1 12 1 1 5.925 1 12s4.925 11 11 11zm.952-7.948V12.78c1.842-.443 3.118-2.106 3.045-3.986-.079-2.048-1.767-3.713-3.843-3.79a4.004 4.004 0 0 0-2.948 1.112A3.872 3.872 0 0 0 8 8.934a.95.95 0 0 0 .952.948.95.95 0 0 0 .953-.948c0-.552.22-1.068.623-1.453a2.113 2.113 0 0 1 1.555-.584c1.086.041 1.97.906 2.01 1.969a2.059 2.059 0 0 1-1.633 2.081 1.774 1.774 0 0 0-1.412 1.74v2.365A.95.95 0 0 0 12 16a.95.95 0 0 0 .952-.948zM12 19a1 1 0 1 0 0-2 1 1 0 0 0 0 2z"/>
</svg>
