<svg width="24" height="24" viewBox="0 0 24 24" xmlns="http://www.w3.org/2000/svg">
    <path d="M21.219 2H2.78A.781.781 0 0 0 2 2.781v15.313c0 .431.35.781.781.781h5.77l2.897 2.896c.305.305.8.305 1.104 0l2.897-2.896h5.77c.431 0 .781-.35.781-.781V2.78A.781.781 0 0 0 21.219 2zm-.782 15.313h-5.312a.782.782 0 0 0-.553.228L12 20.114 9.427 17.54a.781.781 0 0 0-.552-.229H3.562V3.563h16.875v13.75zm-11.412-5.48l-.435 2.535a.782.782 0 0 0 1.134.823L12 13.995l2.276 1.197a.782.782 0 0 0 1.134-.824l-.435-2.535 1.842-1.795a.782.782 0 0 0-.433-1.333l-2.545-.37L12.7 6.03a.782.782 0 0 0-1.4 0L10.16 8.336l-2.545.37a.782.782 0 0 0-.433 1.332l1.842 1.795zm1.767-2.01a.781.781 0 0 0 .589-.428L12 8.14l.62 1.255c.113.23.333.39.588.428l1.385.2-1.002.978a.78.78 0 0 0-.225.691l.236 1.38-1.238-.651a.781.781 0 0 0-.728 0l-1.238.65.236-1.379a.781.781 0 0 0-.224-.691l-1.003-.977 1.385-.201z"/>
</svg>
