<svg width="24" height="24" viewBox="0 0 24 24" xmlns="http://www.w3.org/2000/svg">
    <path fill-rule="evenodd" clip-rule="evenodd" d="M7.596 16.56a.83.83 0 0 1 .922.723l.38 3.091a.833.833 0 0 1-.722.924l-3.045.38c-.531.04-.874-.303-.927-.724a.835.835 0 0 1 .722-.927l1.013-.126A9.933 9.933 0 0 1 2.486 8.906C3.8 4.81 7.673 1.996 11.947 2c.555 0 .882.392.873.85-.012.457-.347.808-.873.808-3.563.008-6.788 2.349-7.886 5.759a8.281 8.281 0 0 0 2.951 9.218l-.139-1.148a.832.832 0 0 1 .723-.927zM19.073 3.977l-1.012.126a9.925 9.925 0 0 1 3.453 10.987C20.2 19.186 16.326 22 12.05 22c-.555 0-.882-.392-.874-.85.013-.457.347-.808.874-.808 3.563-.008 6.788-2.348 7.886-5.759a8.282 8.282 0 0 0-2.951-9.218l.138 1.148a.83.83 0 0 1-1.645.204l-.375-3.087a.833.833 0 0 1 .723-.923l3.044-.38c.531-.041.874.302.927.723a.835.835 0 0 1-.723.927z"/>
</svg>
