<svg width="48" height="48" viewBox="0 0 48 48" fill="none" xmlns="http://www.w3.org/2000/svg">
    <path fill-rule="evenodd" clip-rule="evenodd" d="M24 1.986c11.862 0 21.474 9.615 21.474 21.473 0 11.863-9.616 21.474-21.474 21.474-11.862 0-21.474-9.615-21.474-21.474C2.526 11.598 12.142 1.986 24 1.986zm0 1.554c11 0 19.92 8.92 19.92 19.92 0 11-8.92 19.92-19.92 19.92-11 0-19.92-8.92-19.92-19.92C4.08 12.46 13 3.54 24 3.54z" fill="#7ECA1D"/>
    <path fill-rule="evenodd" clip-rule="evenodd" d="M35.012 23.534a5.442 5.442 0 0 1 1.991 7.436 5.442 5.442 0 0 1-7.436 1.99 5.442 5.442 0 0 1-1.99-7.435 5.442 5.442 0 0 1 7.435-1.99zm-5.19-10.154c.37.212.5.692.284 1.062L19.24 33.26a.778.778 0 0 1-1.345-.78L28.76 13.664a.778.778 0 0 1 1.062-.283zm-11.39.582a5.442 5.442 0 0 1 1.992 7.436 5.442 5.442 0 0 1-7.436 1.99 5.442 5.442 0 0 1-1.991-7.435 5.442 5.442 0 0 1 7.436-1.991zm-.778 1.345a3.89 3.89 0 0 1 1.424 5.312 3.89 3.89 0 0 1-5.311 1.424 3.89 3.89 0 0 1-1.425-5.311 3.89 3.89 0 0 1 5.312-1.425zm16.58 9.573a3.89 3.89 0 0 1 1.423 5.311 3.89 3.89 0 0 1-5.31 1.424 3.89 3.89 0 0 1-1.425-5.311 3.89 3.89 0 0 1 5.311-1.424z" fill="#7ECA1D"/>
    <path fill-rule="evenodd" clip-rule="evenodd" d="M19.078 20.619a3.887 3.887 0 1 1-6.733-3.888 3.887 3.887 0 0 1 6.733 3.887zm16.58 9.572a3.887 3.887 0 1 1-6.733-3.887 3.887 3.887 0 0 1 6.733 3.887z" fill="url(#a)"/>
    <defs>
        <linearGradient id="a" x1="11.824" y1="14.787" x2="38.701" y2="20.731" gradientUnits="userSpaceOnUse">
            <stop stop-color="#E3EEFF"/>
            <stop offset=".526" stop-color="#E4F6E4"/>
            <stop offset="1" stop-color="#FFEEE4"/>
        </linearGradient>
    </defs>
</svg>
