<svg width="24" height="24" viewBox="0 0 24 24" xmlns="http://www.w3.org/2000/svg">
    <path fill-rule="evenodd" clip-rule="evenodd" d="M20.418 12.857l2.243 1.706a.855.855 0 0 1 .219 1.118l-2.172 3.652a.87.87 0 0 1-1.064.363l-2.66-1.04a8.482 8.482 0 0 1-1.555.874l-.4 2.734a.864.864 0 0 1-.857.736H9.828a.864.864 0 0 1-.857-.736l-.4-2.734a8.482 8.482 0 0 1-1.554-.874l-2.661 1.04a.87.87 0 0 1-1.064-.363L1.12 15.68a.855.855 0 0 1 .22-1.118l2.242-1.706a8.038 8.038 0 0 1 0-1.714L1.34 9.438a.855.855 0 0 1-.219-1.12l2.172-3.65a.87.87 0 0 1 1.064-.364l2.66 1.04a8.486 8.486 0 0 1 1.555-.874l.4-2.734A.864.864 0 0 1 9.828 1h4.344c.43 0 .795.313.857.736l.4 2.734a8.48 8.48 0 0 1 1.554.874l2.661-1.04a.87.87 0 0 1 1.064.363L22.88 8.32a.855.855 0 0 1-.22 1.119l-2.242 1.705c.059.553.063 1.125 0 1.714zm-3.254 4.022l2.428.949 1.406-2.364-2.034-1.547a.856.856 0 0 1-.327-.828 6.354 6.354 0 0 0 0-2.178.856.856 0 0 1 .327-.828l2.034-1.547-1.406-2.364-2.428.949a.872.872 0 0 1-.863-.132 6.762 6.762 0 0 0-1.953-1.097.86.86 0 0 1-.562-.684l-.364-2.49h-2.844l-.364 2.49a.86.86 0 0 1-.562.684A6.764 6.764 0 0 0 7.7 6.99a.872.872 0 0 1-.863.132l-2.428-.949-1.406 2.364 2.034 1.547a.856.856 0 0 1 .327.828 6.355 6.355 0 0 0 0 2.178.856.856 0 0 1-.327.828l-2.034 1.547 1.406 2.364 2.428-.949a.872.872 0 0 1 .863.132c.585.472 1.243.84 1.953 1.097.3.108.516.37.562.684l.364 2.49h2.844l.364-2.49a.861.861 0 0 1 .562-.684A6.762 6.762 0 0 0 16.3 17.01a.872.872 0 0 1 .863-.132zM8.535 12c0-1.895 1.554-3.438 3.465-3.438 1.91 0 3.464 1.543 3.464 3.438 0 1.895-1.554 3.438-3.464 3.438S8.535 13.895 8.535 12zm1.733 0c0 .948.777 1.719 1.732 1.719s1.732-.771 1.732-1.719c0-.948-.777-1.719-1.732-1.719s-1.732.771-1.732 1.719z"/>
</svg>
