<svg width="24" height="24" viewBox="0 0 24 24" xmlns="http://www.w3.org/2000/svg">
    <path d="M19.333 15.667a3.667 3.667 0 0 0-3.391 2.272L7.97 13.592A3.652 3.652 0 0 0 8.333 12c0-.57-.13-1.11-.362-1.591l7.97-4.348a3.667 3.667 0 1 0-.23-1.962L6.752 8.985a3.667 3.667 0 1 0 0 6.03l8.959 4.886a3.667 3.667 0 1 0 3.622-4.234zm0-12.834A1.833 1.833 0 1 1 17.5 4.668v-.005a1.833 1.833 0 0 1 1.833-1.83zM2.833 12a1.833 1.833 0 1 1 3.175 1.25 1.827 1.827 0 0 1-1.341.584A1.833 1.833 0 0 1 2.833 12zm16.5 9.167a1.833 1.833 0 0 1-1.833-1.83v-.005a1.833 1.833 0 1 1 1.833 1.835z"/>
</svg>
