<svg width="48" height="48" viewBox="0 0 48 48" fill="none" xmlns="http://www.w3.org/2000/svg">
    <path fill-rule="evenodd" clip-rule="evenodd" d="M8.663 9.924h2.431c.054-4.077 3.406-7.398 7.497-7.398h4.689c4.09 0 7.443 3.32 7.496 7.398h2.431c3.375 0 6.137 2.762 6.137 6.137v21.475c0 3.375-2.762 6.137-6.137 6.137H8.663c-3.374 0-6.137-2.762-6.137-6.137V16.061c0-3.375 2.763-6.137 6.137-6.137zm0 1.533h24.544a4.615 4.615 0 0 1 4.602 4.6v21.477a4.615 4.615 0 0 1-4.602 4.6H8.663a4.615 4.615 0 0 1-4.601-4.6V16.058a4.615 4.615 0 0 1 4.601-4.601zm3.964-1.533H29.24c-.054-3.236-2.717-5.865-5.964-5.865h-4.69c-3.246 0-5.906 2.63-5.963 5.865h.003z" fill="#7ECA1D"/>
    <path fill-rule="evenodd" clip-rule="evenodd" d="M26.997 15.818l-6.907 3.987 1.36 2.356 6.907-3.988-1.36-2.355zm5.153 27.915c6.65 0 12.042-5.391 12.042-12.041S38.8 19.65 32.15 19.65c-6.65 0-12.04 5.39-12.04 12.04 0 6.65 5.39 12.042 12.04 12.042zm12.06-23.928l-6.908-3.987-1.36 2.355 6.907 3.988 1.36-2.356z" fill="url(#a)"/>
    <path fill-rule="evenodd" clip-rule="evenodd" d="M32.085 25.393a.77.77 0 0 1 .768.768v4.868h6.613a.77.77 0 0 1 .768.768.77.77 0 0 1-.768.767H32.026l-.02-.003-.02-.002-.02-.003-.02-.003-.02-.003-.02-.003-.016-.005-.017-.006-.017-.006-.017-.005-.017-.006-.017-.006-.017-.005-.017-.009-.017-.008-.017-.009-.017-.008-.017-.009-.017-.008-.017-.009-.014-.011-.014-.012-.015-.01-.014-.012-.014-.012-.014-.01-.014-.012-.014-.012-.015-.014-.014-.014-.011-.014-.011-.014-.012-.014-.011-.014-.011-.015-.012-.014-.011-.014-.011-.014-.009-.017-.008-.017-.009-.017-.008-.017-.009-.017-.008-.017-.009-.017-.008-.017-.006-.017-.006-.017-.005-.017-.006-.017-.006-.017-.005-.017-.003-.02-.003-.02-.003-.02-.003-.02-.003-.02-.002-.02v-5.694a.77.77 0 0 1 .767-.768v-.003zm.066-7.278c1.155 0 2.275.144 3.346.416a2.3 2.3 0 0 1 .082-2.139 2.304 2.304 0 0 1 3.142-.841l5.012 2.895a2.304 2.304 0 0 1 .841 3.142 2.311 2.311 0 0 1-2.235 1.136 13.517 13.517 0 0 1 3.386 8.97c0 7.497-6.078 13.577-13.577 13.577-7.497 0-13.577-6.077-13.577-13.576 0-3.437 1.278-6.576 3.386-8.97a2.311 2.311 0 0 1-2.236-1.137 2.306 2.306 0 0 1 .842-3.142l5.012-2.895a2.306 2.306 0 0 1 3.142.841 2.3 2.3 0 0 1 .082 2.14 13.566 13.566 0 0 1 3.346-.417h.005zm0 1.533c6.65 0 12.04 5.391 12.04 12.04 0 6.65-5.39 12.042-12.04 12.042-6.65 0-12.042-5.392-12.042-12.041 0-6.65 5.392-12.041 12.041-12.041zm10.817.122l-5.012-2.896a.771.771 0 0 0-1.049.28.771.771 0 0 0 .281 1.049l5.012 2.892a.771.771 0 0 0 1.048-.28.771.771 0 0 0-.28-1.048v.003zm-21.632 0l5.012-2.896a.771.771 0 0 1 1.048.28.771.771 0 0 1-.28 1.049l-5.012 2.892a.771.771 0 0 1-1.048-.28.771.771 0 0 1 .28-1.048v.003z" fill="#7ECA1D"/>
    <defs>
        <linearGradient id="a" x1="20.09" y1="15.818" x2="47.501" y2="19.548" gradientUnits="userSpaceOnUse">
            <stop stop-color="#E3EEFF"/>
            <stop offset=".526" stop-color="#E4F6E4"/>
            <stop offset="1" stop-color="#FFEEE4"/>
        </linearGradient>
    </defs>
</svg>
