<svg width="48" height="48" viewBox="0 0 48 48" fill="none" xmlns="http://www.w3.org/2000/svg">
    <path fill-rule="evenodd" clip-rule="evenodd" d="M40.483 11.164c0-.4-.288-.743-.678-.807l-1.739-.292a32.574 32.574 0 0 1-14.18-6.111.805.805 0 0 0-.974 0 32.604 32.604 0 0 1-14.18 6.111l-1.738.292a.816.816 0 0 0-.678.807v6.227c0 8.485 2.416 15.528 8.369 21.575 4.154 4.219 8.279 5.648 8.455 5.708a.77.77 0 0 0 .257.043.753.753 0 0 0 .258-.043c.171-.06 4.296-1.49 8.454-5.708 5.957-6.047 8.374-13.094 8.374-21.575v-6.227zm-1.571.635l-1.108-.184A34.167 34.167 0 0 1 23.397 5.55 34.143 34.143 0 0 1 8.99 11.614l-1.108.185v5.592c0 7.979 2.21 14.678 7.919 20.476 1.588 1.61 3.407 3.035 5.377 4.15.665.378 1.472.803 2.219 1.086.747-.283 1.558-.712 2.223-1.086a24.694 24.694 0 0 0 5.37-4.145c5.707-5.794 7.918-12.498 7.918-20.477v-5.592l.004-.004z" fill="#7ECA1D"/>
    <path fill-rule="evenodd" clip-rule="evenodd" d="M23.38 17.125c1.15-.811 2.618-1.077 4-.875 1.373.201 2.704.866 3.583 1.952a4.52 4.52 0 0 1 1 2.48c.18 2.112-.665 4.203-1.845 5.915-1.425 2.064-3.404 3.73-5.532 5.034l-1.146.704-1.206-.592c-2.18-1.065-4.052-2.726-5.408-4.738-1.202-1.786-2.15-4.116-2.008-6.296.261-4.133 5.437-5.734 8.562-3.584zm-.022 13.42l.408-.253c1.936-1.189 3.764-2.712 5.06-4.588.966-1.399 1.725-3.15 1.575-4.884a2.933 2.933 0 0 0-.657-1.626c-.63-.781-1.613-1.245-2.592-1.387-1-.145-2.09.035-2.918.644a1.417 1.417 0 0 1-1.691.013c-2.116-1.515-5.97-.562-6.159 2.352-.116 1.82.747 3.837 1.747 5.322a12.453 12.453 0 0 0 4.794 4.206l.433.21v-.009z" fill="#7ECA1D"/>
    <path fill-rule="evenodd" clip-rule="evenodd" d="M23.358 30.546l.408-.254c1.936-1.189 3.764-2.712 5.06-4.588.966-1.399 1.725-3.15 1.575-4.884a2.933 2.933 0 0 0-.657-1.626c-.63-.781-1.613-1.245-2.592-1.386-1-.146-2.09.034-2.918.643a1.416 1.416 0 0 1-1.691.013c-2.116-1.515-5.97-.562-6.159 2.352-.116 1.82.747 3.837 1.747 5.322a12.454 12.454 0 0 0 4.794 4.206l.433.21v-.008z" fill="url(#a)"/>
    <defs>
        <linearGradient id="a" x1="16.374" y1="17.751" x2="32.161" y2="20.479" gradientUnits="userSpaceOnUse">
            <stop stop-color="#E3EEFF"/>
            <stop offset=".526" stop-color="#E4F6E4"/>
            <stop offset="1" stop-color="#FFEEE4"/>
        </linearGradient>
    </defs>
</svg>
