<svg width="24" height="24" viewBox="0 0 24 24" xmlns="http://www.w3.org/2000/svg">
    <path fill-rule="evenodd" clip-rule="evenodd" d="M14.295 1.622l5.382 3.153C21.11 5.615 22 7.185 22 8.874v6.252c0 1.69-.89 3.26-2.323 4.099l-5.382 3.153a4.545 4.545 0 0 1-4.59 0l-5.382-3.153C2.89 18.385 2 16.815 2 15.126V8.874c0-1.689.89-3.26 2.323-4.099l5.382-3.153a4.545 4.545 0 0 1 4.59 0zm4.547 16.111a3.024 3.024 0 0 0 1.477-2.607V8.874a3.024 3.024 0 0 0-1.477-2.607L13.46 3.114a2.89 2.89 0 0 0-2.92 0L5.158 6.267a3.024 3.024 0 0 0-1.477 2.607v6.252c0 1.074.566 2.073 1.477 2.607l5.382 3.153a2.89 2.89 0 0 0 2.92 0l5.382-3.153zM13.69 12l3.054 1.79a.87.87 0 0 1 .312 1.173.83.83 0 0 1-1.147.319l-3.07-1.799v3.588a.85.85 0 0 1-.84.86.85.85 0 0 1-.84-.86v-3.588l-3.07 1.799a.83.83 0 0 1-1.147-.319.87.87 0 0 1 .312-1.173L10.309 12l-3.054-1.79a.87.87 0 0 1-.312-1.173.83.83 0 0 1 1.147-.319l3.07 1.799V6.929a.85.85 0 0 1 .84-.86.85.85 0 0 1 .84.86v3.588l3.07-1.799a.83.83 0 0 1 1.147.319.87.87 0 0 1-.312 1.173L13.691 12z"/>
</svg>
