<svg width="24" height="24" viewBox="0 0 24 24" xmlns="http://www.w3.org/2000/svg">
    <path d="M17.48 1.522c-3.63-.696-7.4-.696-11.03 0-1.605.348-3.63 2.298-3.979 3.83a21.968 21.968 0 0 0 0 9.05c.419 1.532 2.443 3.482 3.98 3.83.07 0 .139.07.139.14v4.385c0 .21.28.348.419.14l2.094-2.159s1.675-1.74 1.955-2.019c0 0 .07-.07.14-.07 2.093.07 4.258-.139 6.352-.487 1.605-.348 3.63-2.297 3.979-3.829a21.967 21.967 0 0 0 0-9.051c-.42-1.462-2.444-3.412-4.05-3.76zm.07 13.09c-.35.696-.768 1.253-1.466 1.6l-.628.21a8.85 8.85 0 0 1-.699-.21c-2.233-.904-4.328-2.157-6.003-3.968A16.747 16.747 0 0 1 6.45 8.763c-.279-.627-.558-1.184-.768-1.81-.21-.557.14-1.114.489-1.532.35-.418.768-.696 1.257-.905.349-.209.698-.07.977.209.558.696 1.117 1.392 1.536 2.158.279.488.21 1.045-.28 1.393-.14.07-.209.139-.349.278-.07.07-.209.14-.279.279-.14.209-.14.417-.07.626.559 1.602 1.606 2.855 3.212 3.551.279.14.488.209.837.209.489-.07.698-.627 1.047-.905.35-.279.768-.279 1.187-.07.35.21.698.488 1.117.766.349.279.698.488 1.047.766.21.14.28.487.14.835zM14.618 9.39c-.14 0-.07 0 0 0-.28 0-.35-.14-.419-.348 0-.14 0-.349-.07-.488a1.323 1.323 0 0 0-.489-.766l-.418-.209c-.21-.07-.35-.07-.559-.07-.21-.069-.28-.208-.28-.417 0-.14.21-.278.35-.278 1.117.07 1.955.696 2.094 2.019v.278c0 .14-.07.279-.21.279zm-.698-3.064c-.35-.139-.698-.278-1.117-.348-.14 0-.35-.07-.489-.07-.21 0-.349-.139-.28-.348 0-.209.14-.348.35-.278.698.07 1.326.209 1.955.487 1.256.627 1.954 1.671 2.164 3.064V9.738c-.07.278-.559.348-.629 0 0-.07-.07-.21-.07-.279 0-.626-.14-1.253-.418-1.81-.42-.627-.908-1.044-1.466-1.323zm3.77 4.178c-.21 0-.35-.21-.35-.418 0-.418-.07-.836-.14-1.253-.278-2.228-2.093-4.038-4.258-4.387-.349-.07-.698-.07-.977-.139-.21 0-.489 0-.558-.278-.07-.21.14-.418.349-.418h.14c2.861.07.139 0 0 0 2.931.07 5.374 2.019 5.863 4.943.07.488.14.975.14 1.532.14.209 0 .418-.21.418z"/>
</svg>
