<svg width="24" height="24" viewBox="0 0 24 24" xmlns="http://www.w3.org/2000/svg">
    <path d="M23.777 17.562c0-.096-.095-.096-.095-.192-.382-.767-1.242-1.726-2.388-2.781-.573-.48-.86-.863-1.05-1.055-.287-.383-.287-.671-.191-1.055.095-.287.477-.767 1.146-1.63.382-.48.573-.767.86-1.054 1.432-1.918 2.1-3.165 1.909-3.74l-.095-.096c-.096-.096-.191-.192-.382-.192-.191-.096-.478-.096-.764 0H18.43l-.096.096c-.095.096-.095.096-.095.192-.382 1.055-.86 1.918-1.337 2.877-.287.479-.573.958-.86 1.342-.286.384-.477.671-.668.863-.191.192-.382.288-.478.48-.095.095-.286.191-.286.095-.095 0-.191 0-.191-.096l-.286-.287c-.096-.096-.096-.288-.191-.48v-.48-.574-.576-1.055-.863-.67-.576c0-.096-.096-.288-.096-.384l-.286-.287c-.096-.096-.287-.096-.382-.192A8.531 8.531 0 0 0 11.458 5c-1.527 0-2.577.096-2.96.288-.19.096-.381.191-.477.383-.19.192-.19.288-.095.288.477.096.86.288 1.05.575l.096.192c.095.096.095.288.19.575.096.288.096.576.096.96v1.534c0 .479-.095.767-.095 1.054 0 .288-.096.48-.191.576-.096.191-.096.287-.191.287 0 0 0 .096-.096.096-.095 0-.19.096-.382.096-.095 0-.286-.096-.382-.192a1.153 1.153 0 0 1-.477-.48c-.191-.19-.382-.479-.573-.862-.191-.384-.478-.767-.669-1.343l-.19-.383a13.594 13.594 0 0 1-.478-1.055c-.191-.48-.382-.863-.573-1.342a1.323 1.323 0 0 0-.286-.384h-.096s-.095-.096-.191-.096c-.095 0-.19-.096-.286-.096H.764c-.382 0-.573.096-.669.192L0 5.959v.192c0 .096 0 .191.095.383.478 1.15 1.05 2.302 1.624 3.452.573 1.055 1.146 2.014 1.528 2.685.477.671.86 1.343 1.337 1.918s.763.959.859 1.15l.382.384.286.288c.191.192.478.48.86.767.382.288.86.575 1.337.863.477.288 1.05.48 1.623.671.668.192 1.241.288 1.814.192h1.433c.286 0 .477-.096.668-.288l.096-.096c0-.095.095-.095.095-.191v-.384c0-.383 0-.671.096-.959.095-.287.095-.48.19-.67.096-.193.191-.289.287-.384l.191-.192h.095c.191-.096.478 0 .669.191.286.192.573.48.764.768.19.287.477.575.86.958.381.384.668.672.859.768l.286.191c.191.096.382.192.669.288.286.096.477.096.668.096l3.247-.096c.286 0 .573-.096.764-.192.19-.096.286-.192.286-.383v-.384c-.19-.192-.19-.288-.19-.383z"/>
</svg>
