<svg width="24" height="24" viewBox="0 0 24 24" xmlns="http://www.w3.org/2000/svg">
    <path fill-rule="evenodd" clip-rule="evenodd" d="M4.313 2h4.593a2.316 2.316 0 0 1 2.313 2.313v4.593a2.316 2.316 0 0 1-2.313 2.313H4.313A2.316 2.316 0 0 1 2 8.906V4.313A2.315 2.315 0 0 1 4.313 2zm4.593 7.656c.414 0 .75-.336.75-.75V4.313a.751.751 0 0 0-.75-.75H4.313a.751.751 0 0 0-.75.75v4.593c0 .414.336.75.75.75h4.593zM15.126 2h4.53A2.346 2.346 0 0 1 22 4.344v4.531a2.347 2.347 0 0 1-2.344 2.344h-4.53a2.346 2.346 0 0 1-2.345-2.344V4.344A2.346 2.346 0 0 1 15.125 2zm4.53 7.656c.431 0 .782-.35.782-.781V4.344c0-.431-.35-.782-.782-.782h-4.53c-.432 0-.782.351-.782.782v4.531c0 .43.35.781.781.781h4.531zm-10.75 3.125H4.313A2.315 2.315 0 0 0 2 15.094v4.593A2.315 2.315 0 0 0 4.313 22h4.593a2.315 2.315 0 0 0 2.313-2.313v-4.593a2.315 2.315 0 0 0-2.313-2.313zm.75 6.906c0 .414-.336.75-.75.75H4.313a.751.751 0 0 1-.75-.75v-4.593c0-.414.336-.75.75-.75h4.593c.414 0 .75.336.75.75v4.593zm5.47-6.906h4.53A2.347 2.347 0 0 1 22 15.125v4.531A2.346 2.346 0 0 1 19.656 22h-4.53a2.346 2.346 0 0 1-2.345-2.344v-4.531a2.346 2.346 0 0 1 2.344-2.344zm4.53 7.656c.431 0 .782-.35.782-.78v-4.532c0-.43-.35-.781-.782-.781h-4.53c-.432 0-.782.35-.782.781v4.531c0 .431.35.782.781.782h4.531z"/>
</svg>
