<svg width="24" height="24" viewBox="0 0 24 24" xmlns="http://www.w3.org/2000/svg">
    <path d="M21.959 9.552a.852.852 0 0 0-.679-.6l-5.893-.903-2.638-5.598c-.284-.601-1.223-.601-1.507 0l-2.638 5.6-5.885.901a.852.852 0 0 0-.678.6.912.912 0 0 0 .213.904l4.257 4.358-1.002 6.156a.9.9 0 0 0 .335.863.814.814 0 0 0 .887.065l5.265-2.905 5.275 2.906a.806.806 0 0 0 .886-.068.903.903 0 0 0 .333-.863l-1.008-6.155 4.264-4.358a.908.908 0 0 0 .213-.903zm-5.97 4.323a.91.91 0 0 0-.24.781l.794 4.852-4.157-2.292a.814.814 0 0 0-.783.001l-4.15 2.29.788-4.853a.908.908 0 0 0-.24-.779L4.643 10.44l4.639-.712a.842.842 0 0 0 .632-.48l2.08-4.414 2.08 4.413c.122.259.358.44.632.481l4.645.712-3.363 3.436z"/>
</svg>
