<svg width="48" height="48" viewBox="0 0 48 48" fill="none" xmlns="http://www.w3.org/2000/svg">
    <path d="M41.802 17.491H10.688v10.29h31.114V17.49z" fill="url(#a)"/>
    <path fill-rule="evenodd" clip-rule="evenodd" d="M16.7 3.79h19.088c4.006 0 7.285 3.278 7.285 7.284V34.34c0 4.007-3.279 7.285-7.285 7.285H16.699c-4.006 0-7.284-3.278-7.284-7.285V11.074c0-4.006 3.278-7.284 7.284-7.284zm-6.01 12.428h31.112v-5.146c0-3.306-2.706-6.012-6.011-6.012H16.702c-3.306 0-6.011 2.706-6.011 6.012v5.146zm31.112 1.273H10.688v10.29h31.114V17.49zm-.003 11.56H10.688v5.285c0 3.306 2.706 6.012 6.011 6.012h19.089c3.305 0 6.011-2.706 6.011-6.012v-5.285zM15.99 10.398h20.507c.35 0 .635.287.635.635 0 .35-.287.636-.635.636H15.99a.638.638 0 0 1-.635-.636c0-.35.287-.635.635-.635zm14.808 11.14a.638.638 0 0 0-.898 0h-.003a.638.638 0 0 0 0 .899l2.36 2.36.012.012.01.01.011.012.014.01.014.011.014.011.013.009.014.008.014.008.013.008.014.008.014.009.014.008.013.005.014.006.014.005.013.006.014.005.014.006.013.005.014.006.014.003.013.002.014.003.014.003.016.003.017.002.016.003h.132l.016-.003.016-.003.017-.002.016-.003.014-.003.014-.002.013-.003.014-.006.014-.005.013-.006.014-.005.014-.006.014-.005.013-.006.014-.005.014-.008.013-.009.014-.008.014-.008.013-.008.014-.008.014-.009.013-.01.014-.012.014-.01.01-.011.012-.011.01-.011 3.788-3.788a.638.638 0 0 0 0-.898.638.638 0 0 0-.898 0l-3.339 3.338-1.911-1.911zM15.99 34.168h20.507c.35 0 .635.287.635.635 0 .35-.287.635-.635.635H15.99a.638.638 0 0 1-.635-.635c0-.35.287-.635.635-.635zm9.618-12.031H15.99a.638.638 0 0 0-.635.635c0 .348.284.636.635.636h9.618a.638.638 0 0 0 .636-.636.638.638 0 0 0-.636-.635z" fill="#7ECA1D"/>
    <path d="M13.186 44.21a9.396 9.396 0 1 0 0-18.792 9.396 9.396 0 0 0 0 18.793z" fill="#7ECA1D"/>
    <path d="M13.186 42.937a8.123 8.123 0 1 0 0-16.246 8.123 8.123 0 0 0 0 16.246z" fill="url(#b)"/>
    <path d="M12.863 31.804l-1.575.567.337 1.178 1.065-.29v4.562h1.375v-6.017h-1.202z" fill="#7ECA1D"/>
    <defs>
        <linearGradient id="a" x1="10.688" y1="17.491" x2="40.043" y2="31.473" gradientUnits="userSpaceOnUse">
            <stop stop-color="#E3EEFF"/>
            <stop offset=".526" stop-color="#E4F6E4"/>
            <stop offset="1" stop-color="#FFEEE4"/>
        </linearGradient>
        <linearGradient id="b" x1="5.063" y1="26.691" x2="23.412" y2="29.582" gradientUnits="userSpaceOnUse">
            <stop stop-color="#E3EEFF"/>
            <stop offset=".526" stop-color="#E4F6E4"/>
            <stop offset="1" stop-color="#FFEEE4"/>
        </linearGradient>
    </defs>
</svg>
