<svg width="48" height="48" viewBox="0 0 48 48" fill="none" xmlns="http://www.w3.org/2000/svg">
    <path fill-rule="evenodd" clip-rule="evenodd" d="M24.067 30.447a13.185 13.185 0 0 1-1.27-.061v6.042h2.54v-6.04c.43-.043.854-.105 1.27-.186v6.226h.452c3.429 0 6.394 2.46 7.04 5.82l.29 1.51H13.74l.29-1.51a7.19 7.19 0 0 1 7.04-5.82h.457V30.2a13.236 13.236 0 0 1-6.626-3.462c-2.83-.077-5.593-.797-7.613-2.921-1.785-1.88-2.58-4.435-2.992-6.94-.49-2.996-.508-4.924-.508-7.957v-1.27h7.042v1.27h-5.77c0 9.631.537 15.581 8.613 16.465a13.16 13.16 0 0 1-2.843-8.175V3.79h26.47v3.862h7.03v1.27c0 3.032-.018 4.96-.508 7.955-.41 2.506-1.206 5.061-2.993 6.941-2.015 2.122-4.772 2.842-7.598 2.921a13.189 13.189 0 0 1-9.165 3.708zM37.302 17.21v-8.29h5.759c0 9.627-.538 15.574-8.6 16.463a13.16 13.16 0 0 0 2.84-8.173zM24.067 29.177c6.581 0 11.964-5.384 11.964-11.964V5.06H12.1v12.152c0 6.581 5.384 11.964 11.964 11.964h.002zm2.992 8.52H21.07c-2.866 0-5.27 2.07-5.793 4.79h17.573c-.522-2.72-2.926-4.79-5.792-4.79z" fill="#7ECA1D"/>
    <path fill-rule="evenodd" clip-rule="evenodd" d="M24.335 9.419l1.82 3.562a.296.296 0 0 0 .213.16l3.803.727c.11.022.194.094.23.202a.301.301 0 0 1-.063.3l-2.689 2.96a.292.292 0 0 0-.076.243l.521 4.043a.299.299 0 0 1-.125.286.295.295 0 0 1-.31.022l-3.454-1.751a.29.29 0 0 0-.273 0l-3.454 1.753a.291.291 0 0 1-.31-.024.294.294 0 0 1-.125-.286l.52-4.043a.299.299 0 0 0-.075-.243l-2.69-2.96a.292.292 0 0 1-.062-.3.298.298 0 0 1 .23-.202l3.803-.727a.296.296 0 0 0 .212-.16l1.82-3.562a.295.295 0 0 1 .27-.165c.117 0 .216.06.27.165h-.006zm-.27 2.266l-.958 1.874a1.563 1.563 0 0 1-1.105.83l-2.11.403 1.53 1.684c.31.342.455.8.396 1.259l-.287 2.229 1.823-.926c.45-.227.972-.227 1.422 0l1.823.924-.287-2.229a1.575 1.575 0 0 1 .396-1.259l1.53-1.684-2.11-.403a1.562 1.562 0 0 1-1.105-.83l-.958-1.874v.002z" fill="#7ECA1D"/>
    <path fill-rule="evenodd" clip-rule="evenodd" d="M24.067 11.683l-.958 1.875a1.562 1.562 0 0 1-1.106.83l-2.109.402 1.53 1.684c.31.342.454.801.395 1.26l-.286 2.228 1.822-.925c.45-.228.973-.228 1.423 0l1.822.924-.286-2.23a1.576 1.576 0 0 1 .396-1.259l1.529-1.684-2.109-.402a1.563 1.563 0 0 1-1.106-.83l-.957-1.875v.002z" fill="url(#a)"/>
    <path fill-rule="evenodd" clip-rule="evenodd" d="M13.87 26.654a9.382 9.382 0 0 1 9.382 9.382 9.381 9.381 0 0 1-9.381 9.382 9.381 9.381 0 0 1-9.382-9.382 9.382 9.382 0 0 1 9.382-9.382z" fill="#7ECA1D"/>
    <path fill-rule="evenodd" clip-rule="evenodd" d="M13.87 27.925a8.112 8.112 0 1 1 0 16.225 8.112 8.112 0 0 1 0-16.224z" fill="url(#b)"/>
    <path d="M14.79 35.53l1.038-1.321v-1.116h-3.86v1.286h2.196l-1.089 1.38.523.781h.283c.566 0 .814.3.814.67 0 .369-.25.669-.814.669-.523 0-.78-.241-.919-.636l-1.183.686c.369.884 1.192 1.287 2.102 1.287 1.158 0 2.188-.687 2.188-2.008 0-.833-.541-1.425-1.278-1.683l-.001.006z" fill="#7ECA1D"/>
    <defs>
        <linearGradient id="a" x1="19.894" y1="11.681" x2="29.316" y2="13.177" gradientUnits="userSpaceOnUse">
            <stop stop-color="#E3EEFF"/>
            <stop offset=".526" stop-color="#E4F6E4"/>
            <stop offset="1" stop-color="#FFEEE4"/>
        </linearGradient>
        <linearGradient id="b" x1="5.759" y1="27.925" x2="24.084" y2="30.812" gradientUnits="userSpaceOnUse">
            <stop stop-color="#E3EEFF"/>
            <stop offset=".526" stop-color="#E4F6E4"/>
            <stop offset="1" stop-color="#FFEEE4"/>
        </linearGradient>
    </defs>
</svg>
