<svg width="48" height="48" viewBox="0 0 48 48" fill="none" xmlns="http://www.w3.org/2000/svg">
    <path fill-rule="evenodd" clip-rule="evenodd" d="M25.67 2.895c11.635 0 21.067 9.432 21.067 21.068 0 11.635-9.432 21.067-21.068 21.067-11.635 0-21.067-9.432-21.067-21.067 0-11.636 9.432-21.068 21.067-21.068zm6.358 17.724c.34-1.32.519-2.779.43-4.207a10.128 10.128 0 0 1 3.365 7.55c0 .811-.095 1.6-.275 2.356-.89.317-1.736.74-2.466 1.198-2.05 1.29-4.026 3.37-4.285 5.884a5.288 5.288 0 0 0-.018.23c-.787.253-1.616.413-2.474.466.24-.758.38-1.582.522-2.422.313-1.848.639-3.773 2.083-5.238 1.53-1.552 2.577-3.722 3.118-5.817zm-3.166 14.294c-.989.288-2.034.446-3.114.454-.144.24-.31.469-.503.682-1.208 1.34-2.999 1.504-4.69 1.308-2.238-.259-4.27-1.105-5.859-2.727-3.322-3.39-3.583-8.947-3.022-13.383C12.73 12.9 16.424 9.064 25.066 9.152h-.002c2.244.024 4.333.762 5.752 2.567.67.852 1.111 1.838 1.37 2.883.358.25.702.52 1.029.81a2.502 2.502 0 0 1 4.898.778 3.717 3.717 0 1 1-1.08 6.821 11.517 11.517 0 0 1-.129 2.919c.954-.204 1.92-.258 2.822-.087l.955.181.06.97-.001-.002c.13 2.09-.744 4.42-1.838 6.17-1.857 2.965-5.218 5.57-8.833 3.967l-.378-.167-.203-.36a5.546 5.546 0 0 1-.626-1.689zm7.716-7.616c1.041-.295 2.056-.39 2.913-.227.255 4.091-4.285 10.971-8.915 8.915a4.237 4.237 0 0 1-.518-1.494 11.435 11.435 0 0 0 6.52-7.194zm-6.471 5.8a10.193 10.193 0 0 0 4.937-5.228c-2.338 1.08-4.484 3.04-4.937 5.228zM25.669 4.146c10.945 0 19.817 8.872 19.817 19.817 0 10.944-8.872 19.817-19.816 19.817-10.945 0-19.818-8.873-19.818-19.817 0-10.945 8.873-19.817 19.817-19.817zm2.35 21.412c4.171-4.233 5.313-15.07-2.968-15.155-8.283-.085-11.203 3.604-12.139 11.001-.934 7.398.955 13.924 7.785 14.711 4.009.462 4.396-1.798 4.877-4.6.337-1.97.721-4.21 2.444-5.957zm-10.87-2.172l4.825 4.826a.626.626 0 0 1 0 .884.626.626 0 0 1-.884 0l-4.825-4.826a.626.626 0 0 1 .883-.884zm6.155-9.398l4.826 4.826a.626.626 0 0 1 0 .884.626.626 0 0 1-.884 0l-4.826-4.826a.626.626 0 0 1 0-.884.626.626 0 0 1 .884 0zm-5.19 2.063l4.827 4.826a.626.626 0 0 1 0 .884.626.626 0 0 1-.884 0l-4.826-4.826a.626.626 0 0 1 .884-.884zm17.5-1.18a1.25 1.25 0 1 1 0 2.499 1.25 1.25 0 0 1 0-2.5zm5.789 4.945a2.468 2.468 0 1 0-4.936.002 2.468 2.468 0 0 0 4.936-.002z" fill="#7ECA1D"/>
    <path fill-rule="evenodd" clip-rule="evenodd" d="M36.864 16.122a1.25 1.25 0 1 1-2.501 0 1.25 1.25 0 0 1 2.5 0zm2.071 6.16a2.467 2.467 0 1 0 0-4.933 2.467 2.467 0 0 0 0 4.934zm.558 4.786c-4.045-.769-11.58 4.192-8.915 8.915 4.63 2.056 9.17-4.824 8.915-8.915z" fill="url(#a)"/>
    <path d="M10.5 45.134a9.238 9.238 0 1 0 0-18.476 9.238 9.238 0 0 0 0 18.476z" fill="#7ECA1D"/>
    <path d="M10.5 43.883a7.987 7.987 0 1 0 0-15.974 7.987 7.987 0 0 0 0 15.974z" fill="url(#b)"/>
    <path d="M8.519 38.912h4.021v-1.3h-1.985l.98-.99c.54-.54.92-1.148.92-1.858 0-1.191-.945-1.884-2.001-1.884-.82 0-1.614.414-1.994 1.293l1.14.667c.16-.372.457-.642.87-.642.398 0 .634.254.634.625 0 .347-.253.693-.6 1.048L8.52 37.932v.98z" fill="#7ECA1D"/>
    <defs>
        <linearGradient id="a" x1="30.021" y1="14.872" x2="43.104" y2="15.963" gradientUnits="userSpaceOnUse">
            <stop stop-color="#E3EEFF"/>
            <stop offset=".526" stop-color="#E4F6E4"/>
            <stop offset="1" stop-color="#FFEEE4"/>
        </linearGradient>
        <linearGradient id="b" x1="2.514" y1="27.909" x2="20.557" y2="30.751" gradientUnits="userSpaceOnUse">
            <stop stop-color="#E3EEFF"/>
            <stop offset=".526" stop-color="#E4F6E4"/>
            <stop offset="1" stop-color="#FFEEE4"/>
        </linearGradient>
    </defs>
</svg>
