<svg width="48" height="48" viewBox="0 0 48 48" fill="none" xmlns="http://www.w3.org/2000/svg">
    <path fill-rule="evenodd" clip-rule="evenodd" d="M25.158 10.471c9.566.43 17.19 8.326 17.19 17.997 0 9.951-8.065 18.016-18.016 18.016-9.951 0-18.016-8.065-18.016-18.016 0-9.676 7.625-17.566 17.19-17.997V7.48h-2.27a2.485 2.485 0 0 1-2.477-2.477 2.485 2.485 0 0 1 2.476-2.477h6.224a2.485 2.485 0 0 1 2.477 2.477 2.485 2.485 0 0 1-2.477 2.477h-2.301v2.991zm-3.923-6.294h6.224a.826.826 0 0 1 0 1.651h-6.224a.826.826 0 0 1 0-1.65zm3.097 38.23c.456 0 .826.37.826.825v1.581c8.385-.415 15.104-7.14 15.52-15.52h-1.581a.826.826 0 0 1 0-1.65h1.58c-.415-8.386-7.139-15.105-15.52-15.52v1.58a.826.826 0 0 1-1.65 0v-1.58c-8.386.415-15.105 7.139-15.52 15.52h1.58a.826.826 0 0 1 0 1.65h-1.58c.415 8.386 7.14 15.105 15.52 15.52v-1.58c0-.456.37-.826.825-.826z" fill="#7ECA1D"/>
    <path fill-rule="evenodd" clip-rule="evenodd" d="M30.386 17.98a.82.82 0 0 1 .3 1.126l-3.622 6.274a4.123 4.123 0 1 1-6.644 1.781l-4.418-2.551a.82.82 0 0 1-.3-1.126.82.82 0 0 1 1.126-.3l4.417 2.552a4.118 4.118 0 0 1 3.087-1.391c.456 0 .896.075 1.306.21l3.622-6.274a.82.82 0 0 1 1.126-.3zm-6.054 8.016a2.476 2.476 0 1 1 0 4.953 2.476 2.476 0 1 1 0-4.953z" fill="#7ECA1D"/>
    <path fill-rule="evenodd" clip-rule="evenodd" d="M24.332 25.93a2.539 2.539 0 0 1 2.542 2.543 2.539 2.539 0 0 1-2.541 2.541 2.539 2.539 0 0 1-2.542-2.541 2.539 2.539 0 0 1 2.541-2.542z" fill="url(#a)"/>
    <defs>
        <linearGradient id="a" x1="21.791" y1="25.931" x2="27.532" y2="26.835" gradientUnits="userSpaceOnUse">
            <stop stop-color="#E3EEFF"/>
            <stop offset=".526" stop-color="#E4F6E4"/>
            <stop offset="1" stop-color="#FFEEE4"/>
        </linearGradient>
    </defs>
</svg>
