<svg width="48" height="48" viewBox="0 0 48 48" fill="none" xmlns="http://www.w3.org/2000/svg">
    <path fill-rule="evenodd" clip-rule="evenodd" d="M2.416 38.558c-.926-1.373-1.237-3.03-1.134-4.877 2.011-8.29 9.723-17.452 15.158-22.24-.033.338-.051.677-.051 1.022 0 .303.015.602.041.898-5.643 5.226-11.982 13.512-13.736 20.526-.056 1.302.116 2.629.816 3.748 1.584 1.428 3.948 2.544 5.9 3.3 3.074 1.194 6.387 1.986 9.646 2.467 7.691 1.132 16.023.615 23.307-2.215.31-.128.587-.3.839-.522 2.518-2.21 2.089-8.993 2.08-12.105v-.08l.009-.08c.085-.769-.036-1.51-.427-2.18-1.232-2.115-4.373-2.65-6.596-2.44-3.475.333-6.495 2.28-8.287 5.269l-.607 1.01-1.107-.41c-3.06-1.143-5.962-.726-8.67 1.09l-.94.627-.75 3.303-1.384-.314c.542-1.623.689-3.097.866-4.9.103-1.391-.149-2.17-.403-3.483-.201-1.026-.209-1.924.005-2.953.27-1.304.854-2.628 1.468-3.835l-.37-1.16a9.873 9.873 0 0 0 1.616 1.847c-2.835 5.597-.592 5.577-.898 9.69 3.495-2.341 6.934-2.37 9.957-1.24 5.402-9 18.734-7.012 17.939.239.01 4.532.532 12.17-3.812 13.947-15.77 6.132-34.85 1.32-40.472-3.949h-.003zm20.313 1.106c5.382.566 10.668.227 15.838-1.252l.11 1.415c-5.142 1.491-10.433 1.797-15.837 1.252-.036-.47-.075-.944-.11-1.415z" fill="#7ECA1D"/>
    <path fill-rule="evenodd" clip-rule="evenodd" d="M26.323 2.526c5.486 0 9.936 4.448 9.936 9.937 0 5.487-4.447 9.937-9.936 9.937-5.487 0-9.937-4.448-9.937-9.937 0-5.487 4.448-9.937 9.937-9.937zm0 1.42a8.515 8.515 0 0 1 8.516 8.517 8.515 8.515 0 0 1-8.516 8.517 8.515 8.515 0 0 1-8.517-8.517 8.515 8.515 0 0 1 8.517-8.517z" fill="#7ECA1D"/>
    <path d="M26.323 20.98a8.517 8.517 0 1 0 0-17.034 8.517 8.517 0 0 0 0 17.034z" fill="url(#a)"/>
    <path fill-rule="evenodd" clip-rule="evenodd" d="M26.323 6.783a5.677 5.677 0 1 1 0 11.354 5.677 5.677 0 0 1 0-11.354zm0 1.42a4.257 4.257 0 1 1 0 8.515 4.257 4.257 0 0 1 0-8.515z" fill="#7ECA1D"/>
    <path d="M26.323 16.72a4.257 4.257 0 1 0 0-8.514 4.257 4.257 0 0 0 0 8.514z" fill="url(#b)"/>
    <defs>
        <linearGradient id="a" x1="17.806" y1="3.946" x2="37.045" y2="6.977" gradientUnits="userSpaceOnUse">
            <stop stop-color="#E3EEFF"/>
            <stop offset=".526" stop-color="#E4F6E4"/>
            <stop offset="1" stop-color="#FFEEE4"/>
        </linearGradient>
        <linearGradient id="b" x1="22.066" y1="8.206" x2="31.682" y2="9.721" gradientUnits="userSpaceOnUse">
            <stop stop-color="#E3EEFF"/>
            <stop offset=".526" stop-color="#E4F6E4"/>
            <stop offset="1" stop-color="#FFEEE4"/>
        </linearGradient>
    </defs>
</svg>
