<svg width="48" height="48" viewBox="0 0 48 48" fill="none" xmlns="http://www.w3.org/2000/svg">
    <path fill-rule="evenodd" clip-rule="evenodd" d="M10.703 10.517c.261-3.05 2.787-5.464 5.842-5.464h3.668c3.052 0 5.58 2.412 5.841 5.464h3.383c1.892 0 3.535 1.129 4.316 2.76a.554.554 0 0 0-.522.086 20.84 20.84 0 0 1-.57.424c-.59-1.21-1.817-2.046-3.224-2.046H7.323c-1.979 0-3.6 1.653-3.6 3.673v5.665h17.942v1.224H3.724v12.583c0 2.02 1.62 3.673 3.6 3.673h20.47c.46.456.917.863 1.361 1.224H7.326c-2.643 0-4.799-2.202-4.799-4.897V15.411c0-2.697 2.159-4.897 4.8-4.897h3.382l-.005.003zm14.145 0c-.257-2.374-2.242-4.24-4.635-4.24h-3.668c-2.393 0-4.379 1.863-4.635 4.24h12.94-.002z" fill="#7ECA1D"/>
    <path fill-rule="evenodd" clip-rule="evenodd" d="M45.474 18.49a.577.577 0 0 0-.474-.574l-1.21-.207a22.482 22.482 0 0 1-9.882-4.346.552.552 0 0 0-.68 0 22.47 22.47 0 0 1-9.881 4.346l-1.21.207a.579.579 0 0 0-.474.574v4.427c0 6.033 1.682 11.043 5.832 15.344 2.896 3 5.771 4.018 5.89 4.059.058.02.12.03.182.03.06 0 .122-.012.181-.03.122-.04 2.995-1.06 5.89-4.06 4.151-4.3 5.836-9.31 5.836-15.343V18.49z" fill="#7ECA1D"/>
    <path fill-rule="evenodd" clip-rule="evenodd" d="M44.274 19.032l-.684-.117a23.666 23.666 0 0 1-10.023-4.288 23.653 23.653 0 0 1-10.023 4.287l-.684.118v3.885c0 5.678 1.543 10.397 5.49 14.485a17.195 17.195 0 0 0 3.723 2.934c.447.26.99.552 1.494.75.507-.198 1.054-.494 1.503-.754a17.224 17.224 0 0 0 3.715-2.927c3.946-4.089 5.49-8.805 5.49-14.486V19.032z" fill="url(#a)"/>
    <path fill-rule="evenodd" clip-rule="evenodd" d="M33.06 23.509c.33 0 .6.275.6.612v3.887h5.173c.33 0 .6.276.6.612 0 .337-.27.613-.6.613H33.013l-.015-.003-.015-.002-.016-.002-.015-.003-.016-.002-.016-.002-.015-.005-.013-.004-.014-.005-.013-.004-.013-.005-.013-.004-.014-.005-.013-.007-.013-.006-.014-.007-.013-.007-.013-.007-.013-.006-.014-.007-.01-.01-.012-.008-.01-.01-.012-.008-.011-.01-.011-.008-.011-.01-.011-.008-.011-.012-.011-.011-.01-.011-.008-.012-.009-.01-.009-.012-.009-.012-.008-.01-.01-.012-.008-.011-.007-.014-.006-.014-.007-.013-.007-.014-.006-.013-.007-.014-.007-.013-.006-.014-.005-.013-.004-.014-.005-.013-.004-.014-.004-.014-.005-.015-.002-.016-.002-.016-.002-.016-.003-.016-.002-.015-.002-.016v-4.545c0-.336.27-.612.6-.612l.002-.002z" fill="#7ECA1D"/>
    <defs>
        <linearGradient id="a" x1="22.86" y1="14.627" x2="47.251" y2="17.737" gradientUnits="userSpaceOnUse">
            <stop stop-color="#E3EEFF"/>
            <stop offset=".526" stop-color="#E4F6E4"/>
            <stop offset="1" stop-color="#FFEEE4"/>
        </linearGradient>
    </defs>
</svg>
