<svg width="24" height="24" viewBox="0 0 24 24" xmlns="http://www.w3.org/2000/svg">
    <path d="M20.55 6.545h-3.92c.972-1.486.768-3.343-.46-4.16-1.238-.82-3.042-.281-4.034 1.209a3.221 3.221 0 0 0-.135.22 3.18 3.18 0 0 0-.134-.22c-.992-1.49-2.797-2.033-4.034-1.209-1.228.817-1.432 2.674-.46 4.16h-3.92c-.8 0-1.453.65-1.453 1.453v12.553C2 21.347 2.653 22 3.453 22H20.55c.8 0 1.454-.653 1.454-1.453V7.998c0-.804-.654-1.453-1.454-1.453zm-.213 1.666v5.229h-7.503V8.21h7.503zm-6.842-3.715c.425-.641 1.005-.866 1.372-.866.155 0 .286.037.4.11.253.168.318.482.339.658.045.408-.086.87-.347 1.27-.425.636-1.004.865-1.372.865a.717.717 0 0 1-.4-.11c-.416-.282-.514-1.14.008-1.927zm-5.098-.098c.02-.172.085-.49.339-.657a.708.708 0 0 1 .4-.11c.367 0 .947.224 1.371.865.527.788.425 1.649.012 1.922a.708.708 0 0 1-.4.11c-.367 0-.947-.224-1.371-.865-.266-.396-.392-.857-.351-1.265zm2.771 3.813v5.229H3.667V8.21h7.502zm-7.502 6.894h7.502v5.23H3.667v-5.23zm9.168 5.23v-5.23h7.499v5.23h-7.499z"/>
</svg>
