<svg width="24" height="24" viewBox="0 0 24 24" xmlns="http://www.w3.org/2000/svg">
    <path d="M18.71 22a.861.861 0 0 1-.488-.153l-5.532-3.813-2.967 2.17a.86.86 0 0 1-.803.114.88.88 0 0 1-.548-.607l-1.49-5.738-5.322-2.068a.885.885 0 0 1-.56-.821.885.885 0 0 1 .549-.829l20.24-8.185a.86.86 0 0 1 .996.232.89.89 0 0 1 .197.76l-3.416 18.219a.882.882 0 0 1-.522.651.858.858 0 0 1-.333.068zm-5.534-5.77l4.927 3.397L20.761 5.45l-9.6 9.39 1.992 1.373.023.016zm-4.102-.756l.66 2.541 1.421-1.04-1.861-1.283a.875.875 0 0 1-.22-.218zm-4.807-4.413l3.655 1.42a.88.88 0 0 1 .53.601l.464 1.786a.891.891 0 0 1 .263-.546l9.148-8.947-14.06 5.686z"/>
</svg>
