<svg width="24" height="24" viewBox="0 0 24 24" xmlns="http://www.w3.org/2000/svg">
    <path fill-rule="evenodd" clip-rule="evenodd" d="M22.87 11.862l.007.013a.917.917 0 0 1 0 .917l-.008.013c-.251.422-4.09 6.862-10.869 6.862-6.78 0-10.618-6.44-10.87-6.863l-.007-.012a.917.917 0 0 1 .007-.93C1.382 11.44 5.22 5 12 5c6.78 0 10.618 6.44 10.87 6.862zm-19.86.471c.944 1.394 4.152 5.5 8.99 5.5 4.857 0 8.046-4.106 8.99-5.5-.944-1.393-4.142-5.5-8.99-5.5-4.847 0-8.073 4.107-8.99 5.5zm4.408 0A4.583 4.583 0 1 1 12 16.917a4.583 4.583 0 0 1-4.582-4.584zm1.833 0a2.75 2.75 0 1 0 5.499.001 2.75 2.75 0 0 0-5.5 0z"/>
</svg>
