<svg width="48" height="48" viewBox="0 0 48 48" fill="none" xmlns="http://www.w3.org/2000/svg">
    <path d="M23.368 37.657c5.917 0 10.713-4.797 10.713-10.713 0-5.917-4.796-10.713-10.713-10.713-5.916 0-10.713 4.796-10.713 10.712 0 5.917 4.797 10.713 10.713 10.713z" fill="url(#a)"/>
    <path fill-rule="evenodd" clip-rule="evenodd" d="M23.37 20.908a6.203 6.203 0 0 1 6.208 6.2c0 3.425-2.78 6.2-6.208 6.2a6.204 6.204 0 0 1-6.208-6.2c0-3.424 2.779-6.2 6.208-6.2zM10.337 7.402h5.803a.725.725 0 0 1 0 1.449h-5.803a.725.725 0 0 1 0-1.449zm21.61 0a.725.725 0 1 1-.001 1.45.725.725 0 0 1 0-1.45zm3.377 0a.725.725 0 1 1 0 1.45.725.725 0 0 1 0-1.45zM6.505 11.046h33.73V5.962a.73.73 0 0 0-.728-.727H7.23a.73.73 0 0 0-.727.727v5.084h.002zm33.73 1.449H6.504v29.204c0 .4.328.727.728.727h32.276a.73.73 0 0 0 .728-.727V12.495h-.003zM7.23 3.79h32.276c1.198 0 2.178.979 2.178 2.175v35.737c0 1.196-.98 2.175-2.177 2.175H7.23a2.183 2.183 0 0 1-2.177-2.175V5.965c0-1.196.98-2.175 2.177-2.175zm16.14 11.923c6.303 0 11.412 5.103 11.412 11.398 0 6.296-5.109 11.398-11.412 11.398-6.304 0-11.413-5.102-11.413-11.398 0-6.295 5.11-11.398 11.413-11.398zm0 1.449c5.5 0 9.962 4.455 9.962 9.95 0 5.493-4.461 9.949-9.962 9.949-5.501 0-9.963-4.456-9.963-9.95 0-5.494 4.462-9.95 9.963-9.95zm0 5.197a4.756 4.756 0 0 1 4.758 4.752 4.756 4.756 0 0 1-4.758 4.752 4.756 4.756 0 0 1-4.758-4.752 4.756 4.756 0 0 1 4.758-4.752z" fill="#7ECA1D"/>
    <defs>
        <linearGradient id="a" x1="12.655" y1="16.23" x2="36.856" y2="20.042" gradientUnits="userSpaceOnUse">
            <stop stop-color="#E3EEFF"/>
            <stop offset=".526" stop-color="#E4F6E4"/>
            <stop offset="1" stop-color="#FFEEE4"/>
        </linearGradient>
    </defs>
</svg>
