<svg width="48" height="48" viewBox="0 0 48 48" fill="none" xmlns="http://www.w3.org/2000/svg">
    <path fill-rule="evenodd" clip-rule="evenodd" d="M33.37 44.597c-3.273.703-7.561 1.13-12.256 1.13-10.267 0-18.588-2.04-18.588-4.554 0-2.408 7.636-4.381 17.302-4.544l-.983 1.427c-8.12.209-14.377 1.524-14.377 3.114 0 1.736 7.452 3.143 16.645 3.143 4.644 0 8.846-.36 11.864-.938l.89.818-.497.4v.004z" fill="#7ECA1D"/>
    <path fill-rule="evenodd" clip-rule="evenodd" d="M24.3 32.368C22.915 34.224 21.34 36 19.774 37.3l-.9.75-.904-.744c-3.832-3.157-7.111-7.968-9.05-12.504-1.357-3.174-2.263-6.652-2.263-10.118 0-10.768 13.1-16.207 20.85-8.634 1.859 1.816 2.863 3.995 3.264 6.315-.47.12-.932.268-1.382.443-.339-2.114-1.216-4.101-2.874-5.751C19.542.328 8.068 5.264 8.068 14.685c0 8.3 5.625 17.27 10.8 21.535 1.345-1.118 3.138-3.074 4.821-5.42.187.527.39 1.05.611 1.568zm-5.433-21.05c2.25 0 4.274 1.794 4.274 4.262 0 2.242-2.025 4.261-4.273 4.261-2.476 0-4.274-2.019-4.274-4.26 0-2.469 1.798-4.262 4.274-4.262zm0 1.41c-1.692 0-2.86 1.165-2.86 2.852a2.852 2.852 0 0 0 2.86 2.851c1.47 0 2.86-1.387 2.86-2.85a2.852 2.852 0 0 0-2.86-2.852z" fill="#7ECA1D"/>
    <path fill-rule="evenodd" clip-rule="evenodd" d="M22.321 23.153c.02-9.878 11.941-14.851 18.983-7.873 4.386 4.347 3.597 10.685 1.724 15.978-.6 1.693-1.446 3.335-2.375 4.865-1.557 2.562-3.981 5.808-6.328 7.705l-.912.737-.895-.76c-5.516-4.688-10.346-13.273-10.194-20.655l-.003.003zm17.985-6.872c-6.144-6.115-16.562-1.762-16.57 6.89-.161 7.484 5.042 15.609 9.694 19.564 2.424-1.96 6.623-7.227 8.261-11.943 1.744-4.848 2.53-10.65-1.388-14.508l.003-.003zm-6.876 3.78a3.858 3.858 0 0 1 3.864 3.853 3.858 3.858 0 0 1-3.864 3.852 3.858 3.858 0 0 1-3.863-3.852 3.858 3.858 0 0 1 3.863-3.852zm0 1.41a2.445 2.445 0 0 0-2.45 2.443 2.445 2.445 0 0 0 2.45 2.442 2.445 2.445 0 0 0 2.45-2.442 2.445 2.445 0 0 0-2.45-2.442z" fill="#7ECA1D"/>
    <path d="M40.306 16.281c-6.144-6.114-16.562-1.762-16.57 6.89-.161 7.484 5.042 15.609 9.697 19.564 2.424-1.959 6.623-7.227 8.261-11.943 1.744-4.847 2.53-10.65-1.388-14.508v-.003zm-6.876 3.78a3.858 3.858 0 0 1 3.864 3.853 3.858 3.858 0 0 1-3.864 3.852 3.858 3.858 0 0 1-3.863-3.852 3.858 3.858 0 0 1 3.863-3.852z" fill="url(#a)"/>
    <defs>
        <linearGradient id="a" x1="23.732" y1="13.424" x2="45.943" y2="15.74" gradientUnits="userSpaceOnUse">
            <stop stop-color="#E3EEFF"/>
            <stop offset=".526" stop-color="#E4F6E4"/>
            <stop offset="1" stop-color="#FFEEE4"/>
        </linearGradient>
    </defs>
</svg>
