<svg xmlns="http://www.w3.org/2000/svg" xmlns:xlink="http://www.w3.org/1999/xlink" width="64" height="1994" viewBox="0 0 64 1994"><svg width="24" height="24" viewBox="0 0 24 24" id="apple" y="0"><path d="M19.26 8.855c-1.928-2.048-4.204-2.502-6.409-1.278a5.403 5.403 0 0 1-.491.252.733.733 0 0 0 .101-.372V6.022c0-1.187.932-2.152 2.077-2.152a.705.705 0 0 0 .693-.718.705.705 0 0 0-.693-.717 3.407 3.407 0 0 0-2.63 1.259C11.097 2.094 9.478 1 7.615 1H6.231a.705.705 0 0 0-.693.717v1.435a5.08 5.08 0 0 0 1.865 3.956c-.943.288-1.836.874-2.658 1.747-1.771 1.882-2.066 4.443-1.454 7.005.606 2.535 1.952 4.604 2.922 5.607 1.287 1.33 2.897 2.027 4.473 1.13.402-.23.947-.572 1.317-.59.369.018.915.36 1.316.59 1.406.8 2.995.399 4.473-1.13 1.31-1.354 2.465-3.591 2.944-5.7.577-2.54.26-5.068-1.476-6.912zM6.923 3.152v-.717h.692c1.909 0 3.462 1.609 3.462 3.587v.717h-.693c-1.908 0-3.461-1.609-3.461-3.587zm12.466 12.286c-.483 2.123-1.641 4.047-2.575 5.013-1.034 1.069-1.985 1.368-2.829.888-.529-.302-1.227-.75-1.967-.767h-.031c-.74.017-1.44.467-1.967.767-.844.48-1.795.181-2.83-.888-.91-.941-2.052-2.832-2.555-4.935-.39-1.633-.516-3.94 1.101-5.659C7.11 8.397 8.75 7.871 10.5 8.842c1.208.67 1.798.67 3.005 0 1.66-.921 3.262-.58 4.764 1.015 1.59 1.69 1.486 3.967 1.12 5.581z"></path></svg><svg width="24" height="24" viewBox="0 0 24 24" id="arrow-down" y="24"><path d="M5.692 8.29A.99.99 0 1 0 4.29 9.695l7.01 7.015a.99.99 0 0 0 1.4 0l7.01-7.015a.993.993 0 0 0-1.402-1.403L12 14.605 5.692 8.29z"></path></svg><svg width="24" height="24" viewBox="0 0 24 24" id="arrow-left" y="48"><path d="M15.71 5.692a.99.99 0 1 0-1.404-1.402L7.291 11.3a.99.99 0 0 0 0 1.4l7.015 7.01a.993.993 0 0 0 1.403-1.402L9.395 12l6.314-6.308z"></path></svg><svg width="24" height="24" viewBox="0 0 24 24" id="arrow-right" y="72"><path d="M8.29 18.308a.99.99 0 1 0 1.404 1.402l7.015-7.01a.99.99 0 0 0 0-1.4L9.694 4.29A.993.993 0 0 0 8.29 5.692L14.605 12 8.29 18.308z"></path></svg><svg width="24" height="24" viewBox="0 0 24 24" id="arrow-up" y="96"><path d="M5.692 15.71a.99.99 0 1 1-1.402-1.404l7.01-7.015a.99.99 0 0 1 1.4 0l7.01 7.015a.993.993 0 0 1-1.402 1.403L12 9.395 5.692 15.71z"></path></svg><svg width="24" height="24" viewBox="0 0 24 24" id="calendar" y="120"><path d="M21.167 3.667h-4.31a2.5 2.5 0 0 0-4.714 0H10.19a2.5 2.5 0 0 0-4.715 0H2.833A.833.833 0 0 0 2 4.5v16.667c0 .46.373.833.833.833h18.334c.46 0 .833-.373.833-.833V4.5a.833.833 0 0 0-.833-.833zm-17.5 1.666h2.5c.46 0 .833-.373.833-.833a.833.833 0 1 1 .833.833.833.833 0 1 0 0 1.667 2.5 2.5 0 0 0 2.358-1.667h2.642c.46 0 .834-.373.834-.833a.833.833 0 1 1 .833.833.833.833 0 0 0 0 1.667 2.5 2.5 0 0 0 2.357-1.667h3.476v2.5H3.667v-2.5zm16.666 15H3.667V9.5h16.666v10.833z"></path></svg><svg width="24" height="24" viewBox="0 0 24 24" id="cat-daily" y="144"><path d="M22.355 6.001h-5.827v-1.32C16.528 3.203 15.36 2 13.925 2h-3.85C8.64 2 7.472 3.203 7.472 4.681v1.32H1.645A.655.655 0 0 0 1 6.665V18.73C1 20.533 2.424 22 4.174 22h15.652C21.576 22 23 20.533 23 18.73V6.664A.655.655 0 0 0 22.355 6zm-8.893 8.666c0 .831-.656 1.507-1.462 1.507-.806 0-1.462-.676-1.462-1.507v-1.506h2.924v1.506zm.645-2.835H9.893a.655.655 0 0 0-.645.664v1.207C5.5 12.865 2.691 10.36 2.33 7.329h19.342c-.362 3.03-3.171 5.536-6.92 6.374v-1.206a.655.655 0 0 0-.644-.665zm-5.346-7.15c0-.747.59-1.354 1.314-1.354h3.85c.724 0 1.314.607 1.314 1.353v1.32H8.76v-1.32zm12.95 14.047c0 1.072-.846 1.943-1.885 1.943H4.174c-1.04 0-1.885-.872-1.885-1.943v-7.975a9.2 9.2 0 0 0 2.002 2.1c1.404 1.086 3.119 1.84 4.985 2.212.189 1.375 1.338 2.436 2.724 2.436 1.386 0 2.535-1.061 2.724-2.436 1.866-.372 3.58-1.126 4.985-2.211a9.2 9.2 0 0 0 2.002-2.101v7.975z"></path></svg><svg width="24" height="24" viewBox="0 0 24 24" id="cat-detox" y="168"><path d="M18.456 8.35a4.67 4.67 0 0 1 1.493 1.042c.805.846 1.167 1.907 1.019 2.989l-1.102 8.058C19.588 22.47 17.559 24 15.146 24H8.854c-2.412 0-4.441-1.53-4.719-3.56l-1.033-7.55v-.005l-.07-.505c-.147-1.082.214-2.144 1.019-2.99a4.671 4.671 0 0 1 1.493-1.04v-.698c0-1.646 1.445-2.985 3.222-2.985h4.547c.1-1.273.812-2.448 1.946-3.19l2.064-1.35a.793.793 0 0 1 1.052.168.667.667 0 0 1-.182.974L16.13 2.62c-.734.48-1.205 1.23-1.301 2.048h.407c1.776 0 3.221 1.339 3.221 2.985zm1.015 3.855c.093-.678-.14-1.348-.653-1.889-.62-.652-1.557-1.026-2.57-1.026H14.81v2.377a5.37 5.37 0 0 1 .945-.077c1.04 0 1.586.232 2.066.437.406.172.726.309 1.437.309.068 0 .133-.002.196-.004zm-2.524-4.552c0-.875-.768-1.587-1.713-1.587h-.425v1.826h1.44c.236 0 .469.014.698.043zM8.766 6.066c-.945 0-1.713.712-1.713 1.587v.282c.23-.029.462-.043.698-.043h5.55V6.066zM7.75 9.29c-1.012 0-1.948.374-2.568 1.026-.514.54-.746 1.211-.654 1.889l.01.07c.184.036.41.06.707.06.71 0 1.03-.136 1.436-.308.48-.205 1.026-.437 2.066-.437 1.041 0 1.586.232 2.067.437.405.172.725.309 1.436.309.478 0 .78-.062 1.05-.155V9.29zm7.396 13.312c1.654 0 3.04-1.005 3.222-2.339l.893-6.53h-.005c-1.04 0-1.586-.231-2.066-.436-.406-.172-.726-.309-1.437-.309-.592 0-.913.095-1.238.226a.78.78 0 0 1-.319.134c-.453.19-.99.386-1.946.386-1.04 0-1.585-.232-2.066-.437-.406-.172-.726-.309-1.437-.309-.71 0-1.03.137-1.436.31-.48.204-1.026.436-2.066.436-.186 0-.355-.008-.51-.021l.895 6.55c.183 1.334 1.568 2.339 3.222 2.339zm.809-7.813a.742.742 0 0 1 .629.554.697.697 0 0 1-.452.782.803.803 0 0 1-.847-.176.665.665 0 0 1-.106-.798.778.778 0 0 1 .776-.362zm-.855 4.194a.742.742 0 0 1 .629.554.697.697 0 0 1-.452.783.803.803 0 0 1-.847-.176.665.665 0 0 1-.106-.799.778.778 0 0 1 .776-.362zm-2.823-1.466a.803.803 0 0 1-.883-.189.664.664 0 0 1-.088-.78.78.78 0 0 1 .797-.358c.301.05.55.271.608.551.07.316-.117.646-.434.776zm-3.212 1.466a.741.741 0 0 1 .629.554.697.697 0 0 1-.451.783.803.803 0 0 1-.848-.176.665.665 0 0 1-.106-.799.778.778 0 0 1 .776-.362zm-1.7-2.594a.664.664 0 0 1-.064-.802.784.784 0 0 1 .794-.326c.31.057.552.293.6.582a.692.692 0 0 1-.391.72.804.804 0 0 1-.94-.174z"></path></svg><svg width="24" height="24" viewBox="0 0 24 24" id="cat-light" y="192"><path fill-rule="evenodd" clip-rule="evenodd" d="M19.735 23h-6.446a.645.645 0 0 1-.644-.645v-2.974a4.164 4.164 0 0 1-1.246.007v2.967a.644.644 0 0 1-.645.645H4.275a.645.645 0 0 1-.611-.44 14.71 14.71 0 0 1-.354-8.064c.349-1.466 1.034-2.821 1.735-4.21.606-1.198 1.224-2.422 1.649-3.762a6.306 6.306 0 0 0-.417-4.591A.645.645 0 0 1 6.853 1h10.303a.644.644 0 0 1 .577.933 6.273 6.273 0 0 0-.343 4.82c.42 1.262 1.005 2.414 1.578 3.545.699 1.379 1.381 2.725 1.732 4.198a14.709 14.709 0 0 1-.354 8.063.644.644 0 0 1-.611.441zm-5.801-1.29h5.328c.506-1.713.663-3.506.468-5.276-2.121-.195-3.98.538-5.796 2.282v2.995zM7.929 6.892l-.004.015c-.456 1.44-1.101 2.719-1.724 3.952-.189.374-.376.743-.554 1.112.24.099.518.246.84.415 1.179.621 2.938 1.549 5.513 1.549 2.577 0 4.34-.93 5.52-1.552.322-.17.6-.317.84-.416a70.021 70.021 0 0 0-.548-1.097c-.588-1.16-1.195-2.358-1.645-3.708a7.548 7.548 0 0 1 .02-4.872H7.822a7.59 7.59 0 0 1 .107 4.602zm-3.65 9.542a13.411 13.411 0 0 0 .469 5.278h5.362v-2.953c-1.828-1.77-3.696-2.517-5.83-2.325zm6.88 1.515c.116.093.244.195.841.195.478 0 .773-.107.836-.157 1.906-1.904 4.035-2.998 6.684-2.859a10.927 10.927 0 0 0-.625-1.987c-.223.091-.492.233-.81.4-1.233.647-3.205 1.683-6.085 1.683-2.882 0-4.856-1.038-6.083-1.682a10.169 10.169 0 0 0-.803-.396 10.923 10.923 0 0 0-.624 1.982c2.594-.133 4.685.915 6.556 2.745.045.022.079.049.113.076zM12.645 12a.644.644 0 1 1-1.29 0 .644.644 0 0 1 1.29 0zm-11-5.844H2.71l-.19.189a.645.645 0 1 0 .912.912l1.29-1.29a.646.646 0 0 0 0-.911l-1.29-1.29a.645.645 0 1 0-.911.912l.189.19H1.645a.645.645 0 0 0 0 1.288zm19.834-2.39a.645.645 0 0 1 0 .912l-.189.19h1.066a.645.645 0 0 1 0 1.288H21.29l.19.19a.645.645 0 0 1-.912.91l-1.29-1.288a.646.646 0 0 1 0-.912l1.29-1.29a.645.645 0 0 1 .911 0z"></path></svg><svg width="24" height="24" viewBox="0 0 24 24" id="cat-normal" y="216"><path fill-rule="evenodd" clip-rule="evenodd" d="M19.372 10.88a8.63 8.63 0 0 1 .334 5.463l-.166.665a25.787 25.787 0 0 1-2.133 5.656l-.174.336H6.767l-.174-.336a25.785 25.785 0 0 1-2.133-5.656l-.166-.665a8.63 8.63 0 0 1 .334-5.463l1.383-3.405c.39-.96.596-4.174.533-5.346L6.482 1h11.036l-.062 1.129c-.063 1.172.143 4.387.533 5.346l1.383 3.405zM7.776 2.29c.03 1.33-.156 4.505-.638 5.691L6.575 9.37c3.36 1.4 7.49 1.4 10.85 0l-.563-1.388c-.482-1.186-.668-4.361-.638-5.692H7.776zm-.278 19.42h3.89v-3.78c-.45-.98-1.489-2.353-3.884-3.557a15.615 15.615 0 0 0-2.25-.914 7.275 7.275 0 0 0 .222 2.54l.003.013.167.671a24.472 24.472 0 0 0 1.852 5.029zM5.755 11.387a7.195 7.195 0 0 0-.27.798c1.386.423 4.786 1.687 6.515 4.302 1.729-2.615 5.13-3.879 6.515-4.302a7.202 7.202 0 0 0-.27-.798l-.338-.831c-1.804.757-3.832 1.155-5.907 1.155s-4.103-.398-5.907-1.155l-.338.831zm12.6 5.296l.17-.684a7.273 7.273 0 0 0 .22-2.538c-1.444.46-4.92 1.815-6.132 4.468v3.783h3.889a24.48 24.48 0 0 0 1.853-5.029zM12 6.59a.613.613 0 0 0-.613.613v.063a.613.613 0 0 0 1.226 0v-.063A.613.613 0 0 0 12 6.589z"></path></svg><svg width="24" height="24" viewBox="0 0 24 24" id="cat-strong" y="240"><path d="M21.99 14.021c-.823-1.074-2.067-1.62-3.699-1.62-1.89 0-3.647.844-4.82 2.284a5.426 5.426 0 0 0-5.517.196c.098-1.778.026-4.603-1.025-7.14.3-.32.91-.797 1.753-.572a1.913 1.913 0 0 0 1.899-.55c.97-1.044 1.256-2.265.807-3.439C10.676 1.32 9.399 1.016 8.7 1c-.917-.019-1.957.409-2.928 1.206-.858.705-1.572 1.618-1.956 2.505-.591 1.366-1.415 4.974-1.968 7.944-.435 2.333-1.11 6.424-.744 7.616.075.247.29.429.548.464.021.002 2.176.304 4.911 1.517C7.62 22.72 9.702 23 11.97 23c.385 0 .776-.008 1.167-.025 1.89-.08 5.403-.435 7.697-1.914 1.417-.913 2.166-2.15 2.166-3.575 0-1.403-.35-2.6-1.01-3.465zm-1.882 5.928c-3.508 2.261-11.112 1.93-13 1.093-2.142-.95-3.939-1.373-4.775-1.535-.039-.926.188-3.175.828-6.61.628-3.373 1.42-6.595 1.882-7.662.588-1.356 2.277-2.91 3.594-2.91h.036c.24.006.968.022 1.467 1.326.268.699.086 1.395-.54 2.068a.585.585 0 0 1-.571.17c-1.73-.462-3.004.716-3.436 1.403a.66.66 0 0 0-.04.626c1.526 3.327 1.045 7.531.929 8.367a5.327 5.327 0 0 0-.863 1.931.667.667 0 0 0 1.303.286c.406-1.826 2.07-3.152 3.955-3.152.86 0 1.681.264 2.375.764l.01.006.01.008c.463.308 1.062 1.061 1.253 1.326a.668.668 0 0 0 .931.151.66.66 0 0 0 .153-.925 9.586 9.586 0 0 0-1.056-1.214 4.863 4.863 0 0 1 3.738-1.739c2.79 0 3.375 2.044 3.375 3.76 0 .981-.51 1.787-1.558 2.462z"></path></svg><svg width="24" height="24" viewBox="0 0 24 24" id="cat-veggi" y="264"><path d="M2.862 12.835a3.48 3.48 0 0 0 3.39 2.994c.42.976 1.459 3.69 1.395 6.512A.645.645 0 0 0 8.29 23h7.441a.645.645 0 0 0 .641-.712c-.004-.042-.413-4.166 1.33-6.222a3.47 3.47 0 0 0 2.006-1.942h.007A3.288 3.288 0 0 0 23 10.84a3.292 3.292 0 0 0-1.8-2.93 3.927 3.927 0 0 0-5.803-4.243 4.378 4.378 0 0 0-7.964-.21A3.497 3.497 0 0 0 2.515 7.69a2.814 2.814 0 0 0 .347 5.145zm12.185 8.876H8.933c-.075-2.597-.906-4.966-1.377-6.112.133-.052.262-.111.389-.18a4.02 4.02 0 0 0 1.822 1.032l1.09 3.093a1.363 1.363 0 0 0 2.569-.002l1.31-3.735c.396.233.84.387 1.306.448-.975 1.878-1.036 4.278-.995 5.456zm-3.874-5.15a4.084 4.084 0 0 0 2.272-.97c-1.332 3.8-1.23 3.573-1.304 3.573-.075 0-.005.133-.968-2.603zM3.52 8.69a.645.645 0 0 0 .425-.973 2.206 2.206 0 0 1 1.873-3.365c.555 0 1.085.208 1.493.584a.645.645 0 0 0 1.062-.316 3.083 3.083 0 0 1 2.994-2.33 3.077 3.077 0 0 1 3.043 2.567.645.645 0 0 0 1.093.346 2.615 2.615 0 0 1 1.867-.777 2.636 2.636 0 0 1 2.44 3.624.645.645 0 0 0 .428.866 1.998 1.998 0 0 1 1.472 1.925 1.997 1.997 0 0 1-2.346 1.963.644.644 0 0 0-.74.493 2.174 2.174 0 0 1-2.132 1.7 2.188 2.188 0 0 1-2.002-1.31.645.645 0 0 0-1.175-.012 2.791 2.791 0 0 1-2.525 1.617 2.76 2.76 0 0 1-2.218-1.105.645.645 0 0 0-.914-.116c-.39.308-.859.472-1.355.472a2.188 2.188 0 0 1-2.185-2.213.644.644 0 0 0-.544-.636 1.527 1.527 0 1 1-.053-3.003z"></path></svg><svg width="24" height="24" viewBox="0 0 24 24" id="chat" y="288"><path d="M20.957 8.578H18.6V4.513C18.6 3.127 17.553 2 16.267 2H3.334C2.047 2 1 3.127 1 4.513v7.607c0 1.385 1.047 2.512 2.334 2.512h1.699v2.63c0 .32.179.609.453.73a.685.685 0 0 0 .281.061c.191 0 .38-.08.52-.232l2.045-2.202v1.383c0 1.213.917 2.2 2.044 2.2h5.686l2.384 2.566a.708.708 0 0 0 .52.232c.095 0 .19-.02.28-.06a.793.793 0 0 0 .454-.73V19.2h1.257C22.083 19.2 23 18.214 23 17v-6.223c0-1.213-.917-2.2-2.043-2.2zm-15.19 4.473H3.334c-.477 0-.865-.418-.865-.931V4.513c0-.514.388-.932.865-.932h12.932c.477 0 .866.418.866.932v7.607c0 .513-.389.931-.866.931H8.945a.71.71 0 0 0-.52.232l-1.923 2.07v-1.511c0-.437-.33-.79-.735-.79zm15.764 3.95c0 .342-.258.62-.574.62h-1.991c-.406 0-.735.353-.735.79v.89l-1.346-1.45a.709.709 0 0 0-.519-.23h-5.99c-.317 0-.575-.278-.575-.62v-2.369h6.465c1.287 0 2.335-1.127 2.335-2.512v-1.96h2.356c.316 0 .574.277.574.618v6.224z"></path></svg><svg width="24" height="24" viewBox="0 0 24 24" id="check-wave" y="312"><path fill-rule="evenodd" clip-rule="evenodd" d="M20.845 9.303c.054.156.482.485.74.682l.001.001c.63.485 1.414 1.089 1.414 2.01 0 .93-.796 1.553-1.436 2.052l-.013.01c-.253.199-.663.52-.716.666-.05.155.087.67.17.979v.002c.212.791.452 1.69-.107 2.416-.554.72-1.519.783-2.37.838h-.005c-.342.022-.914.058-1.059.159-.144.1-.354.59-.484.892l-.007.015-.002.004c-.32.749-.682 1.594-1.57 1.88-.9.293-1.748-.219-2.43-.63l-.005-.003c-.307-.186-.773-.466-.966-.466-.197 0-.662.278-.975.466l-.01.006-.011.006c-.566.338-1.194.712-1.873.712-.172 0-.35-.024-.529-.08-.892-.273-1.257-1.127-1.579-1.88v-.002c-.13-.304-.347-.81-.49-.909-.14-.096-.674-.131-1.013-.154l-.033-.002h-.002c-.811-.051-1.819-.116-2.392-.833-.588-.739-.33-1.678-.123-2.433l.001-.003c.085-.307.227-.822.173-.98-.056-.16-.466-.484-.738-.697C1.78 13.534 1 12.92 1 11.996c0-.93.794-1.55 1.433-2.05l.002-.001.005-.004c.253-.198.671-.524.726-.672.05-.154-.086-.66-.17-.973l-.005-.017c-.213-.785-.454-1.674.084-2.395.547-.733 1.52-.795 2.378-.85h.002c.343-.022.919-.058 1.063-.16.146-.1.358-.597.488-.9l.003-.006.003-.008c.32-.746.682-1.59 1.57-1.876.904-.29 1.762.233 2.448.656l.005.003c.311.191.776.476.965.476.195 0 .66-.276.974-.464l.012-.008c.714-.428 1.525-.914 2.412-.64.892.273 1.257 1.127 1.578 1.88.13.305.347.812.492.911.14.096.682.132 1.022.155l.024.001h.002c.814.052 1.826.116 2.39.843.565.733.313 1.663.11 2.411v.002c-.084.31-.225.831-.17.993zm-1.734 4.877c.216-.616.766-1.046 1.298-1.46l.008-.006c.25-.196.698-.548.762-.714-.066-.156-.48-.476-.72-.662l-.02-.014c-.516-.397-1.103-.848-1.322-1.49-.217-.636-.029-1.333.137-1.949l.001-.003c.086-.312.227-.835.171-.987-.107-.062-.677-.098-1.023-.12l-.01-.002c-.7-.043-1.422-.09-1.989-.477-.57-.388-.846-1.035-1.113-1.66l-.003-.006c-.13-.302-.343-.801-.482-.896-.1.02-.563.299-.844.467l-.005.003c-.577.346-1.232.738-1.957.738-.728 0-1.382-.402-1.959-.757l-.005-.003c-.28-.172-.742-.456-.91-.458-.083.076-.302.586-.431.892-.265.618-.538 1.257-1.103 1.65-.57.395-1.305.442-2.015.487-.339.021-.904.058-1.043.152-.011.1.128.612.214.93l.004.016.002.006c.175.653.357 1.328.135 1.957-.216.616-.766 1.046-1.298 1.46-.256.2-.734.573-.775.735.04.132.502.497.752.694h.001c.51.402 1.088.858 1.305 1.492.215.634.026 1.328-.142 1.94l-.002.006c-.086.31-.229.832-.173.984.111.071.723.11 1.051.13.7.045 1.421.09 1.988.477.57.389.846 1.035 1.113 1.662l.006.013c.13.303.34.794.479.889.094-.02.518-.273.8-.442l.05-.029.004-.003c.577-.345 1.23-.736 1.952-.736.723 0 1.37.39 1.94.733l.005.004.023.013c.279.169.722.435.883.435.09-.077.308-.588.437-.893.264-.619.538-1.258 1.103-1.65.569-.396 1.333-.445 2.007-.488h.004c.34-.02.91-.057 1.049-.156.019-.108-.12-.629-.205-.947l-.002-.009-.001-.002c-.173-.648-.353-1.32-.132-1.946zm-4.326-5.32a.942.942 0 0 1 1.28-.109.83.83 0 0 1 .114 1.213l-4.691 5.315a.925.925 0 0 1-.658.307c-.012.002-.026.002-.039.002a.93.93 0 0 1-.643-.252l-2.427-2.3a.829.829 0 0 1 0-1.218.944.944 0 0 1 1.286 0l1.724 1.633 4.054-4.592z"></path></svg><svg width="24" height="24" viewBox="0 0 24 24" id="checked" y="336"><path d="M8.95 17.607a1 1 0 0 0 1.414 0l9.9-9.9a1 1 0 1 0-1.415-1.414l-9.192 9.192-4.95-4.95a1 1 0 0 0-1.414 1.415l5.657 5.657z"></path></svg><svg width="24" height="24" viewBox="0 0 24 24" id="clock" y="360"><path fill-rule="evenodd" clip-rule="evenodd" d="M16.305 3.667v3.002C17.942 7.91 19 9.836 19 12c0 2.164-1.058 4.09-2.695 5.33v3.003c0 .92-.772 1.667-1.722 1.667H9.417c-.95 0-1.722-.747-1.722-1.667v-3.002C6.058 16.09 5 14.164 5 12c0-2.164 1.058-4.09 2.695-5.33V3.666c0-.92.772-1.667 1.722-1.667h5.166c.95 0 1.722.748 1.722 1.667zm-1.722 2.042V3.667H9.416v2.042a7.15 7.15 0 0 1 5.167 0zM9.417 18.291v2.042h5.166v-2.042a7.15 7.15 0 0 1-5.166 0zM6.722 12c0 2.817 2.368 5.108 5.278 5.108 2.91 0 5.278-2.291 5.278-5.108 0-2.817-2.368-5.108-5.278-5.108-2.91 0-5.278 2.291-5.278 5.108zm6.297-.24l1.385 1.182c.356.305.39.831.076 1.176a.873.873 0 0 1-.647.282.877.877 0 0 1-.569-.208l-1.834-1.567a.822.822 0 0 1-.29-.625V9.5c0-.46.386-.833.861-.833s.861.373.861.833v1.91l.158.35z"></path></svg><svg width="24" height="24" viewBox="0 0 24 24" id="close" y="384"><path d="M19.685 5.836a1.076 1.076 0 1 0-1.521-1.52L12 10.478 5.836 4.315a1.076 1.076 0 1 0-1.52 1.521L10.478 12l-6.164 6.164a1.076 1.076 0 0 0 1.521 1.52L12 13.522l6.164 6.164a1.076 1.076 0 1 0 1.52-1.521L13.522 12l6.164-6.164z"></path></svg><svg width="24" height="24" viewBox="0 0 24 24" id="close-round" y="408"><path d="M13.265 11.95l2.41 2.412a.852.852 0 1 1-1.205 1.205l-2.41-2.41-2.412 2.41a.852.852 0 1 1-1.205-1.205l2.41-2.411-2.41-2.411a.852.852 0 1 1 1.205-1.206l2.411 2.411 2.411-2.411a.852.852 0 1 1 1.206 1.206l-2.411 2.41z"></path><path fill-rule="evenodd" clip-rule="evenodd" d="M4.223 4.223c4.291-4.29 11.273-4.29 15.564 0 4.291 4.291 4.29 11.273 0 15.564-4.29 4.29-11.273 4.29-15.564 0-4.29-4.291-4.29-11.273 0-15.564zM5.43 5.43c-3.626 3.626-3.626 9.527 0 13.152 3.626 3.627 9.526 3.627 13.152 0 3.627-3.626 3.626-9.527 0-13.152-3.625-3.626-9.526-3.627-13.152 0z"></path></svg><svg width="24" height="24" viewBox="0 0 24 24" id="coin" y="432"><path d="M16.583 8.727c-2.69 0-5.417-.986-5.417-2.864C11.166 3.987 13.893 3 16.583 3S22 3.986 22 5.864c0 1.877-2.727 2.863-5.417 2.863zm0-4.089c-2.434 0-3.75.873-3.75 1.226 0 .358 1.316 1.225 3.75 1.225 2.435 0 3.75-.873 3.75-1.226 0-.358-1.315-1.225-3.75-1.225z"></path><path d="M16.583 12.003c-2.69 0-5.417-.986-5.417-2.864V5.864h1.668V9.14c0 .358 1.314 1.225 3.749 1.225 2.434 0 3.75-.873 3.75-1.226V5.864H22V9.14c0 1.877-2.727 2.863-5.417 2.863z"></path><path d="M16.583 15.273c-2.69 0-5.417-.986-5.417-2.864V9.134h1.668v3.275c0 .36 1.314 1.226 3.749 1.226 2.434 0 3.75-.873 3.75-1.226V9.134H22v3.275c0 1.884-2.727 2.864-5.417 2.864z"></path><path d="M16.583 18.549c-2.69 0-5.417-.986-5.417-2.864V12.41h1.668v3.276c0 .36 1.314 1.226 3.749 1.226 2.434 0 3.75-.873 3.75-1.226V12.41H22v3.276c0 1.877-2.727 2.864-5.417 2.864z"></path><path d="M7.417 14.454C4.727 14.454 2 13.467 2 11.59c0-1.877 2.727-2.863 5.417-2.863s5.417.986 5.417 2.863-2.727 2.864-5.417 2.864zm0-4.09c-2.435 0-3.75.874-3.75 1.226 0 .359 1.315 1.226 3.75 1.226 2.434 0 3.75-.873 3.75-1.226 0-.352-1.316-1.225-3.75-1.225z"></path><path d="M7.417 17.73C4.727 17.73 2 16.743 2 14.866V11.59h1.668v3.276c0 .359 1.314 1.226 3.749 1.226 2.434 0 3.75-.873 3.75-1.226V11.59h1.667v3.276c0 1.877-2.727 2.864-5.417 2.864z"></path><path d="M7.417 21C4.727 21 2 20.014 2 18.137V14.86h1.668v3.276c0 .358 1.314 1.225 3.749 1.225 2.434 0 3.75-.873 3.75-1.225V14.86h1.667v3.276c0 1.883-2.727 2.863-5.417 2.863z"></path></svg><svg width="24" height="24" viewBox="0 0 24 24" id="cook" y="456"><path d="M23 9.016c0-2.812-2.302-5.1-5.132-5.1-.123 0-.247.005-.372.014a6.622 6.622 0 0 0-10.992 0 5.025 5.025 0 0 0-.372-.014C3.302 3.916 1 6.204 1 9.016c0 2.566 1.916 4.694 4.401 5.048v7.049c0 1.04.853 1.887 1.9 1.887H16.7c1.047 0 1.9-.847 1.9-1.887v-7.05c2.484-.353 4.4-2.48 4.4-5.046zm-6.301 12.532H7.3a.443.443 0 0 1-.438-.436v-7.047a5.07 5.07 0 0 0 2.008-.737 6.603 6.603 0 0 0 6.257 0 5.075 5.075 0 0 0 2.01.737v7.047a.444.444 0 0 1-.44.436zm1.17-8.883c-.493 0-.968-.096-1.41-.28a6.526 6.526 0 0 0 1.899-3.072.731.731 0 0 0-1.408-.388c-.615 2.202-2.65 3.74-4.95 3.74-2.3 0-4.335-1.538-4.95-3.74a.731.731 0 0 0-1.408.388 6.525 6.525 0 0 0 1.9 3.073 3.663 3.663 0 0 1-1.41.279c-2.024 0-3.67-1.637-3.67-3.649 0-2.011 1.646-3.648 3.67-3.648.205 0 .415.018.626.054a.733.733 0 0 0 .76-.36 5.153 5.153 0 0 1 8.963 0 .733.733 0 0 0 .76.36 3.75 3.75 0 0 1 .627-.054c2.024 0 3.67 1.637 3.67 3.648 0 2.012-1.646 3.649-3.67 3.649z"></path></svg><svg width="21" height="24" viewBox="0 0 21 24" id="copy" y="480"><path d="M13.204 24H3.898C1.748 24 0 22.318 0 20.25V7.547c0-2.068 1.749-3.75 3.898-3.75h9.306c2.15 0 3.898 1.682 3.898 3.75V20.25c0 2.068-1.748 3.75-3.898 3.75zM3.898 5.672c-1.075 0-1.949.841-1.949 1.875V20.25c0 1.034.874 1.875 1.949 1.875h9.306c1.075 0 1.95-.841 1.95-1.875V7.547c0-1.034-.875-1.875-1.95-1.875H3.898zM21 17.906V3.75C21 1.682 19.252 0 17.102 0H6.285c-.538 0-.974.42-.974.938 0 .517.436.937.974.937h10.817c1.075 0 1.949.841 1.949 1.875v14.156c0 .518.436.938.975.938.538 0 .974-.42.974-.938z"></path></svg><svg width="24" height="24" viewBox="0 0 24 24" id="delete" y="504"><path fill-rule="evenodd" clip-rule="evenodd" d="M15.273 4.5c0 .46.373.833.833.833h4.06c.46 0 .834.373.834.834v.356a.477.477 0 0 1-.477.477.477.477 0 0 0-.474.425l-1.347 12.351a2.513 2.513 0 0 1-.802 1.587c-.45.41-1.033.638-1.637.637H7.737a2.427 2.427 0 0 1-1.637-.637 2.513 2.513 0 0 1-.802-1.587L3.95 7.425A.477.477 0 0 0 3.477 7 .477.477 0 0 1 3 6.523v-.356c0-.46.373-.834.833-.834h4.06a.833.833 0 0 0 .834-.833c.001-.663.26-1.298.72-1.767A2.435 2.435 0 0 1 11.182 2h1.636c.65 0 1.275.264 1.735.733.46.469.719 1.104.72 1.767zm-4.67-.589a.843.843 0 0 0-.24.589c0 .46.374.833.834.833h1.606c.46 0 .833-.373.833-.833a.843.843 0 0 0-.24-.589.812.812 0 0 0-.578-.244h-1.636a.812.812 0 0 0-.579.244zm6.205 16.21a.838.838 0 0 0 .268-.529l1.253-11.484A1 1 0 0 0 17.334 7H6.666a1 1 0 0 0-.995 1.108l1.253 11.484a.838.838 0 0 0 .268.53c.15.136.344.212.545.211h8.526a.81.81 0 0 0 .545-.212zm-3.99-10.636a.818.818 0 1 0-1.636 0v8.364a.818.818 0 1 0 1.636 0V9.485zm2.457 9.177a.819.819 0 0 1-.747-.883l.684-8.373a.819.819 0 1 1 1.632.134l-.684 8.373a.819.819 0 0 1-.885.749zm-6.48-9.243a.819.819 0 0 0-1.633.134l.685 8.372a.819.819 0 1 0 1.631-.133l-.684-8.373z"></path></svg><svg width="24" height="24" viewBox="0 0 24 24" id="deliver" y="528"><path fill-rule="evenodd" clip-rule="evenodd" d="M21.989 6.32a.63.63 0 0 0-.073-.24.118.118 0 0 1-.008-.023.104.104 0 0 0-.013-.03l-2.5-3.75a.628.628 0 0 0-.52-.277H5.125a.626.626 0 0 0-.52.279l-2.5 3.75a.104.104 0 0 0-.013.03.146.146 0 0 1-.008.022.63.63 0 0 0-.073.24c0 .007-.003.014-.005.021A.114.114 0 0 0 2 6.375V20.75c0 .69.561 1.25 1.25 1.25h17.5c.689 0 1.25-.56 1.25-1.25V6.375a.115.115 0 0 0-.006-.032l-.005-.023zM18.54 3.25l1.668 2.5h-5.803l-.417-2.5h4.552zm-7.261 0h1.441l.417 2.5h-2.274l.416-2.5zM10.75 7h2.5v2.259l-1.053-.353a.646.646 0 0 0-.394 0l-1.053.353V7zM5.46 3.25h4.552l-.417 2.5H3.792l1.668-2.5zm15.29 18.125v-.625h.001l-.001.625zm0-.625H3.25V7H9.5v3.125c0 .201.096.39.26.506a.635.635 0 0 0 .563.088l1.677-.56 1.678.558a.616.616 0 0 0 .563-.086.62.62 0 0 0 .259-.506V7h6.25v13.75zm-11.875-5h-3.75a.625.625 0 0 0 0 1.25h3.75a.625.625 0 0 0 0-1.25zm-3.75 2.5H7a.625.625 0 0 1 0 1.25H5.125a.625.625 0 0 1 0-1.25z"></path></svg><svg width="24" height="24" viewBox="0 0 24 24" id="dish" y="552"><path fill-rule="evenodd" clip-rule="evenodd" d="M9.317 5.82A2.822 2.822 0 0 1 12.134 3a2.822 2.822 0 0 1 2.269 4.491c4.13.957 7.254 4.324 7.554 8.405h.238a.805.805 0 0 1 0 1.611H1.805a.805.805 0 0 1 0-1.612h.238c.306-4.156 3.54-7.572 7.785-8.455a2.808 2.808 0 0 1-.511-1.62zm1.61 0a1.21 1.21 0 0 0 1.207 1.21 1.21 1.21 0 0 0 0-2.418 1.21 1.21 0 0 0-1.207 1.209zm9.415 10.075C19.985 11.945 16.38 8.83 12 8.83c-4.38 0-7.985 3.114-8.342 7.066h16.684zm1.853 3.493H1.805a.805.805 0 0 0 0 1.612h20.39a.805.805 0 0 0 0-1.612z"></path></svg><svg width="14" height="20" viewBox="0 0 14 20" id="download" y="576"><path d="M14 20H0v-2h14v2zm-7-4l-6-6 1.41-1.41L6 12.17V0h2v12.17l3.59-3.58L13 10l-6 6z"></path></svg><svg width="24" height="16" viewBox="0 0 24 16" id="dumbbells" y="596"><path d="M22.734 2.157h-1.87v-.921C20.865.554 20.298 0 19.6 0h-3.617c-.698 0-1.266.554-1.266 1.236v4.078H9.284V1.236C9.284.554 8.716 0 8.018 0H4.401c-.698 0-1.266.554-1.266 1.236v.921h-1.87C.569 2.157 0 2.712 0 3.393v9.214c0 .681.568 1.236 1.266 1.236h1.87v.921c0 .682.567 1.236 1.265 1.236h3.617c.698 0 1.266-.554 1.266-1.236v-4.078h5.432v4.078c0 .682.568 1.236 1.266 1.236h3.617c.698 0 1.266-.554 1.266-1.236v-.921h1.87c.697 0 1.265-.555 1.265-1.236V3.393c0-.681-.568-1.236-1.266-1.236zM1.406 12.47V3.53h1.73v8.94h-1.73zm6.472 2.157H4.542V1.373h3.336v13.254zm1.406-5.314V6.687h5.432v2.626H9.284zm10.174 5.314h-3.336V1.373h3.336v13.254zm3.136-2.157h-1.73V3.53h1.73v8.94z"></path></svg><svg width="24" height="24" viewBox="0 0 24 24" id="edit" y="612"><path fill-rule="evenodd" clip-rule="evenodd" d="M19.177 2a3.95 3.95 0 0 1 2.682 1.1 3.706 3.706 0 0 1 .001 5.348l-6.897 6.681a5.414 5.414 0 0 1-3.782 1.515H8.896c-.564 0-1.02-.441-1.02-.988v-2.213c0-1.382.555-2.682 1.563-3.662l6.906-6.69A3.932 3.932 0 0 1 19.177 2zm-7.996 12.668c.883 0 1.715-.333 2.34-.937l4.552-4.409-2.638-2.555-4.553 4.41a3.142 3.142 0 0 0-.966 2.266v1.225h1.265zm8.335-6.743l.9-.873a1.77 1.77 0 0 0 0-2.555 1.91 1.91 0 0 0-2.637 0l-.901.873 2.638 2.555zm-2.214 8.007c0-.547.456-.988 1.02-.988.564 0 1.02.441 1.02.988v3.104c0 1.635-1.373 2.964-3.06 2.964H5.06C3.373 22 2 20.67 2 19.036V6.19c0-1.635 1.373-2.965 3.06-2.965h5.927c.565 0 1.02.442 1.02.988 0 .547-.455.989-1.02.989H5.06c-.563 0-1.02.442-1.02.988v12.846c0 .545.457.988 1.02.988h11.222c.563 0 1.02-.443 1.02-.988v-3.104z"></path></svg><svg width="24" height="24" viewBox="0 0 24 24" id="energy" y="636"><path d="M6.352 22.923c.294.153.66.071.854-.19L17.873 8.512a.627.627 0 0 0 .054-.671.67.67 0 0 0-.594-.352h-2.826l3.399-5.514a.626.626 0 0 0 .007-.648.67.67 0 0 0-.58-.326h-8a.663.663 0 0 0-.647.489L6.02 11.844a.628.628 0 0 0 .121.553c.127.156.32.248.526.248h3.04L6.041 22.13a.635.635 0 0 0 .31.793zm4.94-10.697a.626.626 0 0 0-.078-.594.673.673 0 0 0-.547-.277H7.52L9.854 2.29h6.306l-3.4 5.514a.626.626 0 0 0-.006.648.67.67 0 0 0 .58.326h2.693l-7.018 9.358 2.282-5.91z"></path></svg><svg width="24" height="24" viewBox="0 0 24 24" id="exit" y="660"><path fill-rule="evenodd" clip-rule="evenodd" d="M15.333 14.5a.833.833 0 0 1 1.667 0v5c0 .46-.373.833-.834.833H12v.833c0 .526-.481.92-.997.817L2.67 20.317A.833.833 0 0 1 2 19.5V2.865a.892.892 0 0 1 .009-.149l.001-.009a.85.85 0 0 1 .011-.06l.002-.006a.798.798 0 0 1 .81-.64h13.334a.832.832 0 0 1 .833.832v5a.833.833 0 0 1-1.667 0V3.667H8.511l2.895.868c.353.106.594.43.594.798v13.333h3.333V14.5zM3.667 18.817l6.666 1.333V5.954l-6.666-2v14.863zm18.158-7.143l-.015.02a.827.827 0 0 1-.055.06v.001l-2.5 2.5a.833.833 0 0 1-1.179-1.178l1.077-1.078H14.5a.833.833 0 1 1 0-1.666h4.654l-1.077-1.078a.833.833 0 0 1 1.178-1.178l2.5 2.5.056.06.015.02a.366.366 0 0 0 .014.02.529.529 0 0 1 .02.027l.016.026.005.01.006.01.014.023a.497.497 0 0 1 .018.038l.017.036.01.027.004.01c0 .004.002.007.003.01l.01.03.008.028.002.01.003.01a.53.53 0 0 1 .007.031l.007.044.005.037a.837.837 0 0 1 0 .164l-.003.024-.002.013-.002.01a.533.533 0 0 1-.005.034l-.007.03-.003.011-.002.01a.458.458 0 0 1-.008.028l-.01.03-.003.01-.014.037a.57.57 0 0 1-.021.046.484.484 0 0 1-.014.028l-.014.024-.006.01a1.104 1.104 0 0 0-.005.009l-.017.027-.019.026-.007.01-.007.01z"></path></svg><svg width="24" height="24" viewBox="0 0 24 24" id="filter" y="684"><path fill-rule="evenodd" clip-rule="evenodd" d="M21.167 4.174h-2.22C18.587 2.92 17.484 2 16.168 2c-1.317 0-2.42.92-2.781 2.174H2.833c-.46 0-.833.39-.833.87s.373.869.833.869h10.553c.362 1.253 1.464 2.174 2.78 2.174 1.317 0 2.42-.92 2.782-2.174h2.219c.46 0 .833-.39.833-.87s-.372-.87-.833-.87zm-5 2.174c-.69 0-1.25-.585-1.25-1.305 0-.719.56-1.304 1.25-1.304.689 0 1.25.585 1.25 1.304 0 .72-.561 1.305-1.25 1.305zm5 11.739h-2.22c-.36-1.253-1.464-2.174-2.78-2.174-1.317 0-2.42.92-2.781 2.174H2.833c-.46 0-.833.39-.833.87s.373.87.833.87h10.553c.36 1.252 1.464 2.173 2.78 2.173 1.317 0 2.42-.92 2.782-2.174h2.219c.46 0 .833-.39.833-.87s-.372-.87-.833-.87zm-5 2.174c-.69 0-1.25-.585-1.25-1.305 0-.719.56-1.304 1.25-1.304.689 0 1.25.585 1.25 1.304 0 .72-.561 1.305-1.25 1.305zm-5.553-9.13h10.553c.46 0 .833.389.833.869s-.372.87-.833.87H10.614c-.362 1.253-1.464 2.173-2.78 2.173-1.317 0-2.42-.92-2.781-2.173h-2.22c-.46 0-.833-.39-.833-.87s.373-.87.833-.87h2.22c.361-1.253 1.464-2.174 2.78-2.174 1.317 0 2.42.921 2.781 2.174zM6.584 12c0 .719.56 1.304 1.25 1.304.689 0 1.25-.585 1.25-1.304 0-.72-.561-1.304-1.25-1.304-.69 0-1.25.585-1.25 1.304z"></path></svg><svg width="24" height="24" viewBox="0 0 24 24" id="folder-menu" y="708"><path fill-rule="evenodd" clip-rule="evenodd" d="M19.09 1H4.91A1.92 1.92 0 0 0 3 2.925v18.15A1.92 1.92 0 0 0 4.91 23h14.18A1.92 1.92 0 0 0 21 21.075V2.925A1.92 1.92 0 0 0 19.09 1zm.274 20.075c0 .15-.125.275-.273.275H4.909a.278.278 0 0 1-.273-.275V2.925c0-.15.125-.275.273-.275h3V5.4c0 .456.367.825.818.825h6.546c.452 0 .818-.37.818-.825V2.65h3c.148 0 .273.126.273.275v18.15zM14.454 2.65H9.547v1.925h4.909V2.65zm0 7.7H9.273a.822.822 0 0 0-.818.825c0 .456.366.825.818.825h5.181c.452 0 .819-.37.819-.825a.822.822 0 0 0-.819-.825zm-6.817 3.3h8.727c.452 0 .818.37.818.825a.822.822 0 0 1-.818.825H7.637a.822.822 0 0 1-.818-.825c0-.456.366-.825.818-.825zm8.727 3.3H7.637a.822.822 0 0 0-.818.825c0 .456.366.825.818.825h8.727c.452 0 .818-.37.818-.825a.822.822 0 0 0-.818-.825z"></path></svg><svg width="24" height="24" viewBox="0 0 24 24" id="info" y="732"><path fill-rule="evenodd" clip-rule="evenodd" d="M18.094 3.673c-2.313-1.397-5.09-1.945-7.827-1.546a.854.854 0 0 0-.143.013c-2.895.456-5.421 1.91-7.115 4.093-1.69 2.183-2.346 4.834-1.845 7.466.084.434.2.871.347 1.296a6.857 6.857 0 0 1-.42 5.398.772.772 0 0 0 .127.89c.23.25.595.353.944.268l4.109-1.02A11.73 11.73 0 0 0 11.98 22c.728 0 1.463-.066 2.193-.2 2.881-.527 5.364-2.042 6.99-4.265 3.357-4.59 1.98-10.808-3.07-13.862zm1.543 12.94c-1.355 1.853-3.424 3.115-5.824 3.554-2.398.44-4.843.003-6.884-1.23a.987.987 0 0 0-.75-.11l-2.797.694a8.366 8.366 0 0 0-.12-5.02 7.853 7.853 0 0 1-.291-1.087c-.418-2.193.128-4.402 1.538-6.222 1.386-1.788 3.444-2.989 5.806-3.39a1.16 1.16 0 0 0 .131-.012c2.319-.364 4.674.088 6.634 1.272 4.21 2.544 5.356 7.725 2.558 11.55zm-7.634-9.695c-.507 0-.916.373-.916.833v4.999c0 .46.41.833.916.833.507 0 .917-.373.917-.833V7.751c0-.46-.41-.833-.917-.833zm.65 8.655a.77.77 0 0 1 .193.275c.046.1.073.209.073.317a.764.764 0 0 1-.073.317.954.954 0 0 1-.193.274 1.088 1.088 0 0 1-.302.175.986.986 0 0 1-.348.067 1.078 1.078 0 0 1-.65-.242.956.956 0 0 1-.193-.274.766.766 0 0 1-.073-.317c0-.108.027-.217.073-.317.046-.108.11-.2.192-.275a.977.977 0 0 1 .825-.225.615.615 0 0 1 .174.05.55.55 0 0 1 .156.075.57.57 0 0 1 .11.073l.036.027z"></path></svg><svg width="24" height="24" viewBox="0 0 24 24" id="like" y="756"><path d="M22.985 8.35a2.505 2.505 0 0 0-.02-.174C22.659 4.73 20.102 2 16.784 2c-1.923 0-3.68.9-4.83 2.359C10.829 2.89 9.139 2 7.227 2 3.92 2 1.369 4.71 1.04 8.196c-.006.04-.012.09-.018.148-.056.563-.01 1.31.207 2.219.461 1.931 1.54 3.69 3.06 5.054l7.08 6.157c.344.3.86.301 1.207.003l7.131-6.147c1.681-1.73 2.68-3.288 3.077-5.081.198-.901.245-1.642.2-2.199zm-1.992 1.812c-.311 1.41-1.14 2.702-2.55 4.157l-6.466 5.57-6.468-5.624c-1.24-1.113-2.122-2.552-2.496-4.119-.17-.711-.204-1.257-.163-1.663l.013-.091c.235-2.625 2.066-4.58 4.364-4.58 1.71 0 3.166 1.033 3.873 2.69.315.739 1.373.739 1.689 0 .693-1.624 2.251-2.69 3.994-2.69 2.297 0 4.128 1.955 4.364 4.58.006.053.008.068.01.1.03.383-.004.947-.164 1.67z"></path></svg><svg width="24" height="24" viewBox="0 0 24 24" id="link" y="780"><path fill-rule="evenodd" clip-rule="evenodd" d="M14.886 3.22a4.167 4.167 0 0 1 5.893 5.892l-5.185 5.185a4.166 4.166 0 0 1-5.892 0 .833.833 0 1 1 1.179-1.178 2.5 2.5 0 0 0 3.535 0L19.6 7.934a2.5 2.5 0 1 0-3.536-3.535l-2.828 2.827a.833.833 0 0 1-1.178-1.178l2.827-2.828zM7.935 19.6l2.356-2.356a.833.833 0 0 1 1.179 1.178L9.113 20.78a4.166 4.166 0 1 1-5.893-5.892l4.715-4.714a4.166 4.166 0 0 1 5.891 0 .834.834 0 0 1-1.178 1.178 2.5 2.5 0 0 0-3.535 0l-4.714 4.715A2.5 2.5 0 1 0 7.935 19.6z"></path></svg><svg width="24" height="24" viewBox="0 0 24 24" id="location" y="804"><path d="M12 0C7.037 0 3 4.007 3 8.932c0 2.755 1.43 6.098 4.248 9.938a44.106 44.106 0 0 0 4.18 4.898A.813.813 0 0 0 12 24a.813.813 0 0 0 .558-.22c.086-.08 2.124-2.003 4.19-4.774C19.57 15.223 21 11.834 21 8.932 21 4.007 16.962 0 12 0zm0 12.788c-2.426 0-4.4-1.925-4.4-4.29s1.974-4.29 4.4-4.29 4.4 1.925 4.4 4.29c0 2.366-1.974 4.29-4.4 4.29z"></path></svg><svg width="24" height="24" viewBox="0 0 24 24" id="lock" y="828"><path fill-rule="evenodd" clip-rule="evenodd" d="M18.3 7.833v.834c1.489 0 2.7 1.121 2.7 2.5V19.5c0 1.378-1.211 2.5-2.7 2.5H5.7C4.211 22 3 20.878 3 19.5v-8.333c0-1.379 1.211-2.5 2.7-2.5v-.834C5.7 4.617 8.526 2 12 2c3.474 0 6.3 2.617 6.3 5.833zM12 3.667c-2.481 0-4.5 1.869-4.5 4.166v.834h9v-.834c0-2.297-2.019-4.166-4.5-4.166zm6.3 16.666c.496 0 .9-.373.9-.833v-8.333c0-.46-.404-.834-.9-.834H5.7c-.496 0-.9.374-.9.834V19.5c0 .46.404.833.9.833h12.6zm-9-6.25c0-1.378 1.211-2.5 2.7-2.5s2.7 1.122 2.7 2.5c0 1.085-.755 2.002-1.8 2.347v1.403c0 .461-.403.834-.9.834s-.9-.373-.9-.834V16.43c-1.045-.345-1.8-1.262-1.8-2.347zm1.8 0c0 .46.404.834.9.834s.9-.374.9-.834c0-.46-.404-.833-.9-.833s-.9.373-.9.833z"></path></svg><svg width="24" height="24" viewBox="0 0 24 24" id="mail" y="852"><path fill-rule="evenodd" clip-rule="evenodd" d="M4.247 4h15.506a3.218 3.218 0 0 1 3.143 2.513l-10.883 6.564-10.91-6.564A3.218 3.218 0 0 1 4.248 4zm7.74 10.923c.208 0 .442-.051.65-.18L23 8.514v8.282C23 18.565 21.546 20 19.753 20H4.247C2.455 20 1 18.564 1 16.795V8.513l10.338 6.23c.208.129.441.18.649.18z"></path></svg><svg width="24" height="24" viewBox="0 0 24 24" id="menu" y="876"><path d="M1 5c0-.552.547-1 1.222-1h19.556C22.453 4 23 4.448 23 5s-.547 1-1.222 1H2.222C1.547 6 1 5.552 1 5zm0 7c0-.552.547-1 1.222-1h19.556c.675 0 1.222.448 1.222 1s-.547 1-1.222 1H2.222C1.547 13 1 12.552 1 12zm1.222 6C1.547 18 1 18.448 1 19s.547 1 1.222 1h19.556c.675 0 1.222-.448 1.222-1s-.547-1-1.222-1H2.222z"></path></svg><svg width="24" height="24" viewBox="0 0 24 24" id="menu-bold" y="900"><rect x="2" y="4" width="20" height="4" rx="1"></rect><rect x="2" y="10" width="20" height="4" rx="1"></rect><rect x="2" y="16" width="20" height="4" rx="1"></rect></svg><svg width="24" height="24" viewBox="0 0 24 24" id="menu-list" y="924"><rect x="7" y="11" width="15" height="2" rx="1"></rect><rect x="2" y="11" width="3" height="2" rx="1"></rect><rect x="2" y="17" width="3" height="2" rx="1"></rect><rect x="2" y="5" width="3" height="2" rx="1"></rect><rect x="7" y="17" width="15" height="2" rx="1"></rect><rect x="7" y="5" width="15" height="2" rx="1"></rect></svg><svg width="24" height="24" viewBox="0 0 24 24" id="minus" y="948"><path fill-rule="evenodd" clip-rule="evenodd" d="M21 12c0 .497-.366.9-.818.9H3.818C3.366 12.9 3 12.497 3 12s.366-.9.818-.9h16.364c.452 0 .818.403.818.9z"></path></svg><svg width="24" height="24" viewBox="0 0 24 24" id="money" y="972"><path d="M22.313 12h-.688V8.43a.702.702 0 0 0-.688-.715h-.687V5.572a.702.702 0 0 0-.688-.714h-2.325l-1.185-2.463a.676.676 0 0 0-.922-.32l-1.585.825-.243-.505a.675.675 0 0 0-.922-.318L7.024 4.858H3.062C1.925 4.858 1 5.82 1 7.001v12.856C1 21.04 1.925 22 3.063 22h17.875c.379 0 .687-.32.687-.714v-3.572h.688c.379 0 .687-.32.687-.714v-4.285a.701.701 0 0 0-.688-.714zm-3.438-5.713v1.428h-.263l-.687-1.428h.95zM15.13 3.674l1.945 4.041h-1.213L14.16 4.177l.97-.503zm-2.75 0l1.945 4.041H4.6l7.78-4.041zM3.062 6.287h1.213l-1.845.958a.741.741 0 0 1-.055-.244c0-.394.308-.714.688-.714zM20.25 20.572H3.062a.702.702 0 0 1-.687-.715V9.007c.225.084.457.137.688.137H20.25V12H17.5c-1.517 0-2.75 1.28-2.75 2.857 0 1.575 1.233 2.857 2.75 2.857h2.75v2.857zm1.375-4.286H17.5c-.758 0-1.375-.641-1.375-1.429 0-.787.617-1.428 1.375-1.428h4.125v2.857z"></path></svg><svg width="24" height="24" viewBox="0 0 24 24" id="more" y="996"><path fill-rule="evenodd" clip-rule="evenodd" d="M6 12a2 2 0 1 1-4 0 2 2 0 0 1 4 0zm8 0a2 2 0 1 1-4 0 2 2 0 0 1 4 0zm6 2a2 2 0 1 0 0-4 2 2 0 0 0 0 4z"></path></svg><svg width="24" height="24" viewBox="0 0 24 24" id="navigation" y="1020"><path d="M20.849 2.064l-18.331 7.5c-.771.315-.653 1.441.166 1.59l8.598 1.564 1.564 8.598c.149.82 1.275.937 1.59.166l7.5-18.331a.833.833 0 0 0-1.087-1.087zM13.975 18.21l-1.156-6.358a.833.833 0 0 0-.671-.67L5.79 10.024 19.641 4.36l-5.666 13.85z"></path></svg><svg width="56" height="24" viewBox="0 0 56 24" id="pay-apple" y="1044"><path fill-rule="evenodd" clip-rule="evenodd" d="M11.831 0c.138 1.109-.322 2.217-.965 3.049-.69.831-1.748 1.432-2.852 1.293-.138-1.062.414-2.217 1.012-2.91C9.716.647 10.866.046 11.831 0zm-2.52 5.175c.698-.273 1.566-.612 2.52-.555.598.046 2.346.23 3.403 1.893-.092.047-2.07 1.202-2.023 3.604 0 2.623 2.082 3.618 2.469 3.803l.06.03c0 .047-.368 1.34-1.288 2.68-.781 1.201-1.61 2.31-2.897 2.356-.64.023-1.064-.16-1.504-.349-.445-.192-.906-.39-1.623-.39-.76 0-1.246.21-1.715.414-.41.177-.808.35-1.366.371-1.241.046-2.207-1.247-2.989-2.402C.703 14.274-.493 9.978 1.162 7.068c.828-1.478 2.3-2.356 3.91-2.402.7 0 1.373.265 1.958.496.45.178.848.335 1.168.335.287 0 .665-.147 1.112-.322zm21.788 1.893c0-3.372-2.345-5.728-5.748-5.728h-6.53V18.8h2.713v-5.959h3.725c3.45 0 5.84-2.356 5.84-5.774zm-6.483 3.51h-3.128V3.65h3.128c2.345 0 3.678 1.248 3.678 3.465 0 2.171-1.333 3.465-3.678 3.465zm11.91.878c-3.035.185-4.737 1.571-4.737 3.788 0 2.264 1.748 3.835 4.323 3.835 1.655 0 3.265-.878 4-2.31h.047v2.079h2.483V10.07c0-2.587-1.978-4.204-5.059-4.204-3.127 0-5.104 1.709-5.242 4.019h2.483c.23-1.109 1.15-1.848 2.668-1.848 1.563 0 2.529.831 2.529 2.264v.97l-3.495.184zm3.495 1.617v1.016c0 1.663-1.426 2.91-3.265 2.91-1.38 0-2.3-.738-2.3-1.847s.874-1.802 2.438-1.894l3.127-.185zm4.92 8.361v2.125c.113.023.326.035.535.046.217.012.43.023.523.047 2.621 0 3.863-.97 4.966-4.065l4.737-13.443h-2.76l-3.218 10.394h-.046l-3.22-10.394h-2.804l4.598 12.75s-.23.739-.23.785c-.414 1.294-1.057 1.802-2.253 1.802-.184 0-.644 0-.828-.047z"></path></svg><svg width="58" height="23" viewBox="0 0 58 23" id="pay-google" y="1068"><path fill-rule="evenodd" clip-rule="evenodd" d="M13.584 5.047a5.074 5.074 0 0 0-3.572-1.387c-2.429 0-4.49 1.626-5.227 3.817a5.504 5.504 0 0 0 0 3.54c.737 2.19 2.798 3.816 5.227 3.816 1.258 0 2.334-.321 3.17-.884v-.001a4.3 4.3 0 0 0 1.218-1.216 4.24 4.24 0 0 0 .64-1.594h-5.028v-3.56h8.78c.108.62.161 1.25.16 1.88 0 2.813-1.012 5.192-2.77 6.801h-.001l.002.002c-1.543 1.412-3.659 2.232-6.171 2.232a9.359 9.359 0 0 1-4.887-1.377 9.27 9.27 0 0 1-3.432-3.718 9.194 9.194 0 0 1 0-8.303 9.27 9.27 0 0 1 3.432-3.718A9.359 9.359 0 0 1 10.012 0a8.98 8.98 0 0 1 6.229 2.407l-2.657 2.64zm13.781 5.815v6.517h-2.082V1.285h5.522a5.023 5.023 0 0 1 3.575 1.393 4.453 4.453 0 0 1 1.494 3.397 4.432 4.432 0 0 1-1.493 3.416c-.966.914-2.158 1.37-3.576 1.37h-3.44v.001zm0-7.596v5.619h3.492a2.769 2.769 0 0 0 2.06-.833 2.743 2.743 0 0 0 .836-1.966 2.727 2.727 0 0 0-.836-1.967 2.716 2.716 0 0 0-2.06-.854h-3.492v.001zm13.306 2.742c1.54 0 2.754.408 3.644 1.225.89.817 1.336 1.937 1.335 3.36v6.786h-1.992v-1.528h-.09c-.862 1.258-2.009 1.888-3.44 1.888-1.221 0-2.243-.36-3.066-1.079a3.423 3.423 0 0 1-1.234-2.697c0-1.14.434-2.045 1.302-2.718.867-.673 2.025-1.01 3.473-1.012 1.236 0 2.254.224 3.054.674v-.473a2.34 2.34 0 0 0-.86-1.83 2.96 2.96 0 0 0-2.01-.753c-1.162 0-2.082.487-2.76 1.461l-1.834-1.147c1.009-1.438 2.502-2.157 4.478-2.157zm-2.693 8a1.64 1.64 0 0 0 .69 1.349c.46.36 1.032.55 1.618.539a3.331 3.331 0 0 0 2.342-.966c.69-.644 1.034-1.4 1.034-2.269-.649-.513-1.554-.77-2.715-.77-.846 0-1.551.202-2.116.607-.57.411-.853.91-.853 1.51zm12.151 8.225l6.952-15.865h-2.267l-3.213 7.91h-.045l-3.304-7.91h-2.263l4.57 10.314-2.579 5.551h2.15z"></path></svg><svg width="64" height="16" viewBox="0 0 64 16" id="pay-halva" y="1091"><path d="M13.643 15.438l-3.434-6.907a8.698 8.698 0 0 0 1.955-.895 7.432 7.432 0 0 0 1.53-1.265 5.712 5.712 0 0 0 1.004-1.502 4.181 4.181 0 0 0 .376-1.622 3.607 3.607 0 0 0-.2-1.294 2.893 2.893 0 0 0-.627-1.022 2.594 2.594 0 0 0-1.004-.639c-.392-.142-.837-.19-1.327-.145a3.32 3.32 0 0 0-.939.215 2.798 2.798 0 0 0-.66.377 2.12 2.12 0 0 0-.415.43 1.388 1.388 0 0 0-.2.372c-.029.107-.033.177-.003.208.088.09.19.26.304.51.118.252.216.554.298.908.081.35.114.718.098 1.103a2.687 2.687 0 0 1-.288 1.102c-.176.354-.464.655-.863.912L7.208.771a.203.203 0 0 0-.033-.063C7.155.67 7.119.65 7.07.646H2.107c-.053 0-.085.014-.102.038a.095.095 0 0 0-.02.07c0 .024.004.034.004.038l3.178 6.72c-.7.214-1.35.506-1.952.866a8.23 8.23 0 0 0-1.589 1.238 6.12 6.12 0 0 0-1.089 1.48 4.001 4.001 0 0 0-.45 1.596c-.024.46.032.89.162 1.29.131.398.324.749.583 1.05a2.74 2.74 0 0 0 2.099.967 2.76 2.76 0 0 0 .984-.18c.294-.114.553-.26.772-.437a3.16 3.16 0 0 0 .549-.548 2.23 2.23 0 0 0 .3-.502c.06-.15.073-.25.043-.309a2.082 2.082 0 0 1-.274-.447 3.533 3.533 0 0 1-.262-.76 3.18 3.18 0 0 1-.078-.943c.016-.336.11-.669.277-1.002.167-.329.435-.638.808-.925l2.119 5.492c0 .003.006.02.023.052.016.031.046.049.095.052h5.297c.055-.003.078-.021.075-.052-.007-.031-.01-.049-.017-.052zm12.614-4.244c.026-.208.06-.475.105-.794l.144-1.058c.052-.385.108-.78.166-1.182l.164-1.165c.052-.375.101-.708.144-1.006.042-.298.078-.534.101-.707l.04-.267c-.004-.042-.014-.07-.03-.083-.017-.014-.026-.021-.03-.021h-3.923a.305.305 0 0 0-.06.024c-.032.017-.051.049-.058.1 0 .004-.02.136-.052.39-.033.256-.075.602-.125 1.046a3.815 3.815 0 0 0-.604-1.03 2.658 2.658 0 0 0-.89-.693 2.755 2.755 0 0 0-1.193-.253 3.615 3.615 0 0 0-1.432.288 4.03 4.03 0 0 0-1.197.787c-.36.34-.674.735-.942 1.185-.268.451-.49.944-.66 1.474a8.812 8.812 0 0 0-.396 3.342 7.62 7.62 0 0 0 .298 1.603 5.1 5.1 0 0 0 .634 1.356c.268.395.592.707.971.932.38.23.818.347 1.311.35a2.965 2.965 0 0 0 1.302-.308 4.224 4.224 0 0 0 1.137-.832c.347-.35.66-.756.936-1.21.03.495.147.918.353 1.272.21.354.487.624.837.811.346.191.749.285 1.203.288.278-.003.55-.048.82-.138.269-.087.52-.205.756-.35.232-.146.431-.306.598-.48.167-.17.285-.34.357-.509.04-.09.042-.156.003-.2a.726.726 0 0 0-.177-.136 1.132 1.132 0 0 1-.261-.215 1.284 1.284 0 0 1-.255-.447c-.075-.198-.124-.472-.147-.822-.026-.347-.007-.794.052-1.342zm-5.513 1.748a.929.929 0 0 1-.608-.219 1.396 1.396 0 0 1-.386-.6 3.206 3.206 0 0 1-.176-.894 6.006 6.006 0 0 1 .032-1.096 6.47 6.47 0 0 1 .22-1.1c.1-.343.225-.64.379-.901.154-.256.327-.46.526-.607.2-.145.419-.218.66-.222a.921.921 0 0 1 .612.222c.167.146.298.35.396.607.095.26.153.558.18.902.023.34.016.707-.03 1.099s-.118.76-.222 1.096a3.92 3.92 0 0 1-.386.894 2.005 2.005 0 0 1-.533.6 1.159 1.159 0 0 1-.664.219zm18.972-7.76a.092.092 0 0 0-.023-.066c-.014-.01-.026-.018-.036-.018h.02c-1.525-.329-2.993-.492-4.398-.485-1.41.01-2.787.17-4.137.485-.013 0-.026.007-.045.021-.02.014-.03.042-.033.083l-.03.257a34.544 34.544 0 0 1-.232 1.62 30.19 30.19 0 0 1-.19 1.084c-.071.375-.15.732-.235 1.079a9.524 9.524 0 0 1-.274.933 10.37 10.37 0 0 1-.674 1.48 6.287 6.287 0 0 1-.634.943c-.2.24-.38.427-.537.559-.156.135-.28.242-.376.322-.091.08-.144.156-.153.232-.013.09 0 .226.036.406a2.626 2.626 0 0 0 .621 1.203c.176.194.396.357.657.482.265.128.579.194.942.198a2.679 2.679 0 0 0 1.425-.375c.419-.25.785-.638 1.092-1.168.311-.527.563-1.207.76-2.036.195-.825.352-1.688.47-2.597a31.78 31.78 0 0 0 .235-2.812h1.59c-.053.444-.105.923-.167 1.436l-.184 1.58-.183 1.592-.173 1.47c-.052.458-.101.864-.14 1.218-.043.35-.076.624-.099.825l-.035.305c.003.049.016.08.039.09.023.01.035.018.039.014h3.786c.003.004.017-.003.04-.014.022-.01.036-.041.039-.09l.039-.336c.026-.219.059-.52.105-.902l.153-1.314c.056-.496.118-1.016.183-1.567l.193-1.665c.066-.554.128-1.092.187-1.601.059-.51.114-.971.163-1.384.046-.413.085-.749.118-1.009l.056-.478zm5.16 2.309l.097-.416c1.141-.14 2.1-.371 2.88-.694.782-.322 1.4-.704 1.858-1.14.458-.438.775-.899.952-1.384.176-.482.229-.957.16-1.418a2.767 2.767 0 0 0-.514-1.255 2.876 2.876 0 0 0-1.072-.881A3.286 3.286 0 0 0 47.72 0a5.135 5.135 0 0 0-2.122.52 6.401 6.401 0 0 0-1.766 1.294 9.419 9.419 0 0 0-1.393 1.869c-.402.7-.742 1.445-1.013 2.236a14.722 14.722 0 0 0-.618 2.396 14.11 14.11 0 0 0-.21 2.358c0 .721.102 1.4.298 2.032.2.63.49 1.186.876 1.664.39.482.867.86 1.432 1.13.57.274 1.223.413 1.965.417a5.875 5.875 0 0 0 1.743-.264 5.32 5.32 0 0 0 1.51-.76 4.952 4.952 0 0 0 1.893-2.753 5.651 5.651 0 0 0 .171-1.882c-.05-.59-.2-1.089-.451-1.502a2.97 2.97 0 0 0-.971-.98 3.957 3.957 0 0 0-1.308-.514 5.26 5.26 0 0 0-1.459-.08 5.553 5.553 0 0 0-1.422.309zm2.138-4.765c.16 0 .277.032.35.084a.345.345 0 0 1 .13.211.88.88 0 0 1 .01.267 1.713 1.713 0 0 1-.278.718c-.15.222-.327.423-.53.607a5.16 5.16 0 0 1-.598.468c-.196.132-.36.232-.49.305-.131.07-.197.107-.203.107.039-.149.094-.34.163-.568.066-.23.15-.468.245-.722.095-.253.207-.488.327-.714a2.17 2.17 0 0 1 .403-.544.68.68 0 0 1 .47-.219zm-.079 8.53a2.5 2.5 0 0 1-.069.472c-.042.19-.104.392-.182.603a3.37 3.37 0 0 1-.305.597c-.12.187-.261.34-.425.454a.94.94 0 0 1-.55.184.733.733 0 0 1-.568-.25 1.522 1.522 0 0 1-.32-.642 4.434 4.434 0 0 1-.128-.877 9.248 9.248 0 0 1 .003-.953 14.198 14.198 0 0 1 .17-1.502 3.171 3.171 0 0 1 .618-.128 1.86 1.86 0 0 1 .52.003c.327.063.582.184.769.361.19.18.32.41.392.694.072.28.098.61.075.984zm15.283-.062c.026-.208.059-.475.104-.794l.144-1.058c.053-.385.108-.78.167-1.182l.164-1.165c.052-.375.101-.708.144-1.006.042-.298.078-.534.101-.707l.04-.267c-.004-.042-.014-.07-.03-.083-.017-.014-.026-.021-.03-.021h-3.924a.31.31 0 0 0-.059.024c-.032.017-.052.049-.058.1 0 .004-.02.136-.053.39-.032.256-.075.602-.124 1.046a3.823 3.823 0 0 0-.605-1.03 2.657 2.657 0 0 0-.89-.693c-.342-.166-.741-.25-1.192-.253a3.624 3.624 0 0 0-1.433.288c-.441.187-.84.45-1.196.787-.36.34-.674.735-.942 1.185a7.15 7.15 0 0 0-.66 1.474 8.812 8.812 0 0 0-.395 3.342c.044.563.143 1.097.296 1.603.157.506.366.96.635 1.356.268.395.592.707.97.932.38.23.818.347 1.312.35a2.967 2.967 0 0 0 1.301-.308 4.225 4.225 0 0 0 1.138-.832c.347-.35.66-.756.935-1.21.03.495.147.918.353 1.272.21.354.487.624.837.811.347.191.75.285 1.204.288.278-.003.549-.048.82-.138.268-.087.52-.205.756-.35.232-.146.431-.306.598-.48.167-.17.285-.34.356-.509.04-.09.043-.156.004-.2a.73.73 0 0 0-.177-.136 1.132 1.132 0 0 1-.261-.215 1.282 1.282 0 0 1-.255-.447c-.076-.198-.125-.472-.148-.822-.026-.347-.006-.794.053-1.342zm-5.513 1.748a.929.929 0 0 1-.608-.219 1.395 1.395 0 0 1-.386-.6 3.206 3.206 0 0 1-.177-.894 6.006 6.006 0 0 1 .033-1.096 6.47 6.47 0 0 1 .22-1.1c.1-.343.225-.64.379-.901a2.02 2.02 0 0 1 .526-.607c.2-.145.419-.218.66-.222a.92.92 0 0 1 .612.222c.167.146.297.35.395.607.095.26.154.558.18.902.023.34.017.707-.03 1.099-.045.392-.117.76-.221 1.096-.102.34-.233.638-.386.894a2.009 2.009 0 0 1-.533.6 1.16 1.16 0 0 1-.664.219z"></path></svg><svg width="39" height="21" viewBox="0 0 39 21" id="pay-master" y="1107"><path d="M27.209.526c-2.699 0-5.177.86-7.107 2.29C18.005 1.072 15.203 0 12.117 0 5.629-.002.369 4.7.369 10.499.369 16.299 5.629 21 12.117 21c3.088 0 5.888-1.073 7.985-2.815 1.93 1.427 4.408 2.287 7.107 2.287 6.152 0 11.16-4.473 11.16-9.973 0-5.5-5.008-9.973-11.16-9.973zm0 17.35c-1.983 0-3.809-.63-5.232-1.682 1.187-1.64 1.888-3.592 1.888-5.695s-.7-4.055-1.888-5.695c1.423-1.048 3.25-1.678 5.232-1.678 4.547 0 8.247 3.308 8.247 7.373s-3.7 7.377-8.247 7.377z"></path></svg><svg width="53" height="15" viewBox="0 0 53 15" id="pay-mir" y="1128"><path d="M20.492 0v14.903h4.277s1.07 0 1.652-1.064c2.916-5.71 3.79-7.452 3.79-7.452h.584v8.516h4.86V0h-4.277s-1.069.097-1.652 1.065c-2.43 4.935-3.79 7.451-3.79 7.451h-.584V0h-4.86zm16.232 0h10.011c2.916 0 5.346 2.42 5.346 5.323 0 .29 0 .774-.097 1.064h-7.97c-3.5 0-6.707-3.097-7.29-6.387zm.875 15V6.968h14.19c-.68 2.129-2.721 3.774-5.054 3.774H42.46V15H37.6zM.081.097V15h4.665V6.968h.584L8.05 15h2.139l2.721-8.032h.583V15h4.86V.097h-4.86s-1.36 0-2.138 2.129c-1.75 5.032-2.138 6.387-2.138 6.387s-.195-.774-2.139-6.387C6.302.096 4.941.096 4.941.096H.08z"></path></svg><svg width="52" height="16" viewBox="0 0 52 16" id="pay-visa" y="1143"><path fill-rule="evenodd" clip-rule="evenodd" d="M36.649 10.514c0 3.154-2.854 5.257-7.285 5.257-1.877 0-3.68-.375-4.656-.826l.6-3.455.527.226c1.351.6 2.253.826 3.905.826 1.201 0 2.478-.45 2.478-1.502 0-.676-.526-1.127-2.178-1.878-1.577-.75-3.68-1.952-3.68-4.13C26.36 2.028 29.29 0 33.42 0c1.577 0 2.929.3 3.755.676l-.601 3.304-.3-.3c-.752-.3-1.728-.6-3.155-.6-1.577.074-2.328.75-2.328 1.35 0 .677.901 1.203 2.328 1.878 2.404 1.127 3.53 2.404 3.53 4.206zM47.914.225h-3.23c-.975 0-1.726.3-2.177 1.277l-6.158 14.044h4.355s.751-1.878.902-2.328h5.332c.15.525.526 2.253.526 2.253h3.905L47.914.225zm-5.107 9.839c.376-.902 1.652-4.281 1.652-4.281 0 .075.376-.901.526-1.427l.3 1.352s.827 3.68.977 4.43h-3.455v-.074zM.075.075L0 .375c5.032 1.202 8.336 4.131 9.763 7.736L8.336 1.352C8.111.376 7.435.075 6.534.075H.075zm18.775.15l-6.534 15.246h-4.43L4.13 2.704c2.703 1.727 4.956 4.43 5.782 6.308l.45 1.577L14.42.15h4.431v.075zM24.708.15h-4.13l-2.629 15.32h4.13L24.71.15z"></path></svg><svg width="24" height="24" viewBox="0 0 24 24" id="phone" y="1159"><path d="M20.082 18.637l-.54-.836c-.97-1.484-2.309-3.188-4.065-3.188-.325 0-.648.06-.966.184l-.943.375c-.086.033-.17.07-.258.11-.242.11-.515.233-.797.233-.694 0-1.498-.838-2.264-2.36-.752-1.494-.704-2.277-.531-2.67.19-.436.633-.621 1.109-.788l.184-.067.954-.373c2.487-.965 1.562-4.337 1.258-5.442l-.257-.95C12.746 2.08 12.163 0 10.23 0c-.358 0-.74.077-1.135.23-.26.096-3.825 1.446-5.117 3.82-1.544 2.824-1.259 6.61.848 11.253 2.09 4.648 4.8 7.491 8.056 8.45.559.165 1.19.248 1.876.248 2.247 0 4.465-.887 4.645-.96.775-.305 1.275-.768 1.488-1.376.36-1.032-.244-2.162-.81-3.027zm-.855 2.526c-.05.141-.222.27-.511.383l-.016.006c-.02.009-2.027.825-3.942.824-.506 0-.96-.057-1.346-.172-2.743-.807-5.089-3.34-6.973-7.53-1.898-4.184-2.201-7.512-.9-9.892 1.01-1.856 4.174-3.033 4.205-3.044l.018-.007c.18-.07.342-.107.467-.107.386 0 .737.555 1.042 1.642l.256.947c.552 2.013.468 3.272-.24 3.547l-.95.371c-.037.015-.081.03-.13.047-.525.184-1.617.568-2.11 1.695-.449 1.023-.263 2.32.566 3.969 1.117 2.218 2.376 3.297 3.85 3.297.684 0 1.233-.248 1.561-.396.06-.027.115-.052.173-.074l.944-.376a.782.782 0 0 1 .286-.056c.454 0 1.269.418 2.567 2.402l.539.835c.664 1.018.716 1.48.644 1.689z"></path></svg><svg width="24" height="24" viewBox="0 0 24 24" id="phone-dark" y="1183"><path d="M21.476 16.678l-2.797-2.791c-1-.997-2.697-.598-3.097.698-.3.897-1.299 1.395-2.198 1.196-1.997-.499-4.694-3.09-5.194-5.184-.3-.897.3-1.894 1.199-2.193 1.298-.398 1.698-2.093.699-3.09l-2.797-2.79c-.799-.698-1.998-.698-2.697 0L2.696 4.416c-1.898 1.994.2 7.277 4.895 11.962 4.695 4.685 9.989 6.878 11.987 4.884l1.898-1.894c.699-.797.699-1.993 0-2.691z"></path></svg><svg width="24" height="24" viewBox="0 0 24 24" id="play" y="1207"><path d="M21.733 9.784L6.305 1.339C4.668.44 3 1.423 3 3.19v17.63C3 22.317 4.013 23 4.955 23c.444 0 .896-.135 1.345-.397l15.497-9.124c.779-.46 1.216-1.141 1.203-1.87-.013-.728-.474-1.394-1.267-1.825zm-.975 2.066L5.262 20.97a1.002 1.002 0 0 1-.243.108.955.955 0 0 1-.03-.258V3.19c0-.18.034-.272.034-.295.06.004.167.034.301.107l15.426 8.445c.19.105.246.196.265.176-.01.025-.075.118-.257.227z"></path></svg><svg width="24" height="24" viewBox="0 0 24 24" id="plus" y="1231"><path fill-rule="evenodd" clip-rule="evenodd" d="M12.9 3.818c0-.452-.403-.818-.9-.818s-.9.366-.9.818V11.1H3.818c-.452 0-.818.403-.818.9s.366.9.818.9H11.1v7.282c0 .452.403.818.9.818s.9-.366.9-.818V12.9h7.282c.452 0 .818-.403.818-.9s-.366-.9-.818-.9H12.9V3.818z"></path></svg><svg width="24" height="24" viewBox="0 0 24 24" id="plus-round" y="1255"><path fill-rule="evenodd" clip-rule="evenodd" d="M1 12C1 5.934 5.934 1 12 1s11 4.935 11 11-4.934 11-11 11S1 18.066 1 12zm1.704 0c0 5.126 4.17 9.296 9.296 9.296 5.126 0 9.296-4.17 9.296-9.296 0-5.126-4.17-9.296-9.296-9.296-5.125 0-9.296 4.17-9.296 9.296zm10.148-.929h3.408a.852.852 0 1 1 0 1.704h-3.408v3.409a.852.852 0 1 1-1.704 0v-3.409H7.74a.852.852 0 1 1 0-1.704h3.408V7.663a.852.852 0 1 1 1.704 0v3.408z"></path></svg><svg width="24" height="24" viewBox="0 0 24 24" id="profile" y="1279"><path fill-rule="evenodd" clip-rule="evenodd" d="M12 1C8.928 1 6.429 3.566 6.429 6.72S8.928 12.44 12 12.44c3.072 0 5.572-2.566 5.572-5.72S15.072 1 12 1zM8.429 6.72C8.429 4.62 10.082 3 12 3c1.918 0 3.572 1.62 3.572 3.72S13.918 10.44 12 10.44c-1.918 0-3.571-1.62-3.571-3.72zm10.29 9.896C17.24 15.058 15.28 14.2 13.2 14.2h-2.4c-2.08 0-4.04.858-5.519 2.416A8.328 8.328 0 0 0 3 22.377c0 .344.269.623.6.623h16.8c.331 0 .6-.279.6-.623 0-2.165-.81-4.211-2.281-5.761zM5.146 21a6.279 6.279 0 0 1 1.586-3.008C7.847 16.818 9.288 16.2 10.8 16.2h2.4c1.512 0 2.953.618 4.068 1.792A6.28 6.28 0 0 1 18.854 21H5.146z"></path></svg><svg width="24" height="24" viewBox="0 0 24 24" id="profile-round" y="1303"><path fill-rule="evenodd" clip-rule="evenodd" d="M19.167 17.444A9 9 0 1 0 3 12a8.96 8.96 0 0 0 1.833 5.444c.214-.24.483-.494.817-.744C6.855 15.796 8.828 15 12 15c3.172 0 5.144.796 6.35 1.7.334.25.602.505.817.744zM17.78 18.9a3.503 3.503 0 0 0-.63-.599c-.794-.596-2.322-1.3-5.15-1.3-2.828 0-4.356.704-5.15 1.3-.288.216-.49.426-.63.599A8.964 8.964 0 0 0 12 21c2.2 0 4.216-.79 5.78-2.101zM12 23c6.075 0 11-4.925 11-11S18.075 1 12 1 1 5.925 1 12s4.925 11 11 11zm0-11a2 2 0 1 0 0-4 2 2 0 0 0 0 4zm0 2a4 4 0 1 0 0-8 4 4 0 0 0 0 8z"></path></svg><svg width="24" height="24" viewBox="0 0 24 24" id="question" y="1327"><path fill-rule="evenodd" clip-rule="evenodd" d="M12 21a9 9 0 1 0 0-18 9 9 0 0 0 0 18zm0 2c6.075 0 11-4.925 11-11S18.075 1 12 1 1 5.925 1 12s4.925 11 11 11zm.952-7.948V12.78c1.842-.443 3.118-2.106 3.045-3.986-.079-2.048-1.767-3.713-3.843-3.79a4.004 4.004 0 0 0-2.948 1.112A3.872 3.872 0 0 0 8 8.934a.95.95 0 0 0 .952.948.95.95 0 0 0 .953-.948c0-.552.22-1.068.623-1.453a2.113 2.113 0 0 1 1.555-.584c1.086.041 1.97.906 2.01 1.969a2.059 2.059 0 0 1-1.633 2.081 1.774 1.774 0 0 0-1.412 1.74v2.365A.95.95 0 0 0 12 16a.95.95 0 0 0 .952-.948zM12 19a1 1 0 1 0 0-2 1 1 0 0 0 0 2z"></path></svg><svg width="24" height="24" viewBox="0 0 24 24" id="rating" y="1351"><path d="M21.219 2H2.78a.781.781 0 0 0-.78.781v15.313c0 .431.35.781.781.781h5.77l2.897 2.896a.78.78 0 0 0 1.104 0l2.897-2.896h5.77c.431 0 .781-.35.781-.781V2.78a.781.781 0 0 0-.781-.78zm-.782 15.313h-5.312a.782.782 0 0 0-.553.228L12 20.114 9.427 17.54a.781.781 0 0 0-.552-.229H3.562V3.563h16.875v13.75zm-11.412-5.48l-.435 2.535a.782.782 0 0 0 1.134.823L12 13.995l2.276 1.197a.782.782 0 0 0 1.134-.824l-.435-2.535 1.842-1.795a.782.782 0 0 0-.433-1.333l-2.545-.37L12.7 6.03a.782.782 0 0 0-1.4 0l-1.14 2.306-2.545.37a.782.782 0 0 0-.433 1.332l1.842 1.795zm1.767-2.01a.781.781 0 0 0 .589-.428L12 8.14l.62 1.255c.113.23.333.39.588.428l1.385.2-1.002.978a.78.78 0 0 0-.225.691l.236 1.38-1.238-.651a.781.781 0 0 0-.728 0l-1.238.65.236-1.379a.781.781 0 0 0-.224-.691l-1.003-.977 1.385-.201z"></path></svg><svg width="24" height="24" viewBox="0 0 24 24" id="reload" y="1375"><path fill-rule="evenodd" clip-rule="evenodd" d="M7.596 16.56a.83.83 0 0 1 .922.723l.38 3.091a.833.833 0 0 1-.722.924l-3.045.38c-.531.04-.874-.303-.927-.724a.835.835 0 0 1 .722-.927l1.013-.126A9.933 9.933 0 0 1 2.486 8.906C3.8 4.81 7.673 1.996 11.947 2c.555 0 .882.392.873.85-.012.457-.347.808-.873.808-3.563.008-6.788 2.349-7.886 5.759a8.281 8.281 0 0 0 2.951 9.218l-.139-1.148a.832.832 0 0 1 .723-.927zM19.073 3.977l-1.012.126a9.925 9.925 0 0 1 3.453 10.987C20.2 19.186 16.326 22 12.05 22c-.555 0-.882-.392-.874-.85.013-.457.347-.808.874-.808 3.563-.008 6.788-2.348 7.886-5.759a8.282 8.282 0 0 0-2.951-9.218l.138 1.148a.83.83 0 0 1-1.645.204l-.375-3.087a.833.833 0 0 1 .723-.923l3.044-.38c.531-.041.874.302.927.723a.835.835 0 0 1-.723.927z"></path></svg><svg width="32" height="32" viewBox="0 0 32 32" id="sale" y="1399"><g clip-path="url(#a)"><path d="M29.872 16.415a.938.938 0 0 1 0-.83l1.194-2.44a2.778 2.778 0 0 0-1.199-3.69l-2.4-1.274a.938.938 0 0 1-.488-.67l-.47-2.677a2.778 2.778 0 0 0-3.137-2.28l-2.691.38a.938.938 0 0 1-.788-.255L17.939.789a2.778 2.778 0 0 0-3.878 0l-1.954 1.89a.938.938 0 0 1-.788.256l-2.69-.38a2.778 2.778 0 0 0-3.139 2.28L5.02 7.51a.938.938 0 0 1-.486.67l-2.4 1.274a2.778 2.778 0 0 0-1.2 3.69l1.194 2.44a.938.938 0 0 1 0 .83L.934 18.856a2.778 2.778 0 0 0 1.199 3.69l2.4 1.273a.937.937 0 0 1 .488.67l.47 2.677a2.776 2.776 0 0 0 3.137 2.28l2.691-.38a.938.938 0 0 1 .788.256l1.954 1.89a2.78 2.78 0 0 0 3.878 0l1.954-1.89a.939.939 0 0 1 .788-.257l2.69.381a2.778 2.778 0 0 0 3.139-2.28l.47-2.677a.938.938 0 0 1 .486-.67l2.401-1.274a2.778 2.778 0 0 0 1.199-3.689l-1.194-2.441zm-.87 4.5l-2.4 1.273a2.772 2.772 0 0 0-1.44 1.983l-.47 2.676a.94.94 0 0 1-1.062.772l-2.69-.381a2.77 2.77 0 0 0-2.33.757l-1.954 1.89a.94.94 0 0 1-1.312 0l-1.953-1.89a2.769 2.769 0 0 0-2.33-.757l-2.691.38a.94.94 0 0 1-1.062-.77l-.47-2.678a2.771 2.771 0 0 0-1.44-1.982l-2.4-1.273a.94.94 0 0 1-.406-1.248l1.194-2.442c.38-.779.38-1.671 0-2.45l-1.194-2.441a.94.94 0 0 1 .406-1.248l2.4-1.274a2.772 2.772 0 0 0 1.44-1.982l.47-2.677a.94.94 0 0 1 1.062-.771l2.69.38a2.772 2.772 0 0 0 2.33-.757l1.954-1.89a.94.94 0 0 1 1.312 0l1.953 1.89a2.771 2.771 0 0 0 2.33.757l2.691-.38a.94.94 0 0 1 1.062.771l.47 2.677c.15.853.674 1.576 1.44 1.982l2.4 1.274a.94.94 0 0 1 .405 1.248l-1.193 2.441a2.772 2.772 0 0 0 0 2.45l1.194 2.441a.94.94 0 0 1-.406 1.249z"></path><path d="M22.743 9.257a.923.923 0 0 0-1.305 0l-12.18 12.18a.923.923 0 1 0 1.305 1.306l12.18-12.18a.923.923 0 0 0 0-1.306zM12.309 7.695a3.388 3.388 0 0 0-3.384 3.383 3.388 3.388 0 0 0 3.383 3.384 3.388 3.388 0 0 0 3.384-3.383 3.387 3.387 0 0 0-3.383-3.384zm0 4.921a1.54 1.54 0 0 1-1.538-1.538c0-.848.69-1.538 1.537-1.538.848 0 1.539.69 1.539 1.538a1.54 1.54 0 0 1-1.538 1.539zm7.382 4.922a3.388 3.388 0 0 0-3.383 3.384 3.387 3.387 0 0 0 3.383 3.383 3.388 3.388 0 0 0 3.384-3.383 3.388 3.388 0 0 0-3.384-3.384zm0 4.922a1.54 1.54 0 0 1-1.538-1.538c0-.848.69-1.538 1.538-1.538.848 0 1.538.69 1.538 1.538a1.54 1.54 0 0 1-1.538 1.538z"></path></g><defs><clipPath id="a"><path d="M0 0h32v32H0z"></path></clipPath></defs></svg><svg width="24" height="24" viewBox="0 0 24 24" id="settings" y="1431"><path fill-rule="evenodd" clip-rule="evenodd" d="M20.418 12.857l2.243 1.706a.855.855 0 0 1 .219 1.118l-2.172 3.652a.87.87 0 0 1-1.064.363l-2.66-1.04a8.482 8.482 0 0 1-1.555.874l-.4 2.734a.864.864 0 0 1-.857.736H9.828a.864.864 0 0 1-.857-.736l-.4-2.734a8.482 8.482 0 0 1-1.554-.874l-2.661 1.04a.87.87 0 0 1-1.064-.363L1.12 15.68a.855.855 0 0 1 .22-1.118l2.242-1.706a8.038 8.038 0 0 1 0-1.714L1.34 9.438a.855.855 0 0 1-.219-1.12l2.172-3.65a.87.87 0 0 1 1.064-.364l2.66 1.04a8.486 8.486 0 0 1 1.555-.874l.4-2.734A.864.864 0 0 1 9.828 1h4.344c.43 0 .795.313.857.736l.4 2.734a8.48 8.48 0 0 1 1.554.874l2.661-1.04a.87.87 0 0 1 1.064.363L22.88 8.32a.855.855 0 0 1-.22 1.119l-2.242 1.705a8.048 8.048 0 0 1 0 1.714zm-3.254 4.022l2.428.949 1.406-2.364-2.034-1.547a.856.856 0 0 1-.327-.828 6.354 6.354 0 0 0 0-2.178.856.856 0 0 1 .327-.828l2.034-1.547-1.406-2.364-2.428.949a.872.872 0 0 1-.863-.132 6.762 6.762 0 0 0-1.953-1.097.86.86 0 0 1-.562-.684l-.364-2.49h-2.844l-.364 2.49a.86.86 0 0 1-.562.684A6.764 6.764 0 0 0 7.7 6.99a.872.872 0 0 1-.863.132l-2.428-.949-1.406 2.364 2.034 1.547a.856.856 0 0 1 .327.828 6.355 6.355 0 0 0 0 2.178.856.856 0 0 1-.327.828l-2.034 1.547 1.406 2.364 2.428-.949a.872.872 0 0 1 .863.132c.585.472 1.243.84 1.953 1.097.3.108.516.37.562.684l.364 2.49h2.844l.364-2.49a.861.861 0 0 1 .562-.684A6.762 6.762 0 0 0 16.3 17.01a.872.872 0 0 1 .863-.132zM8.535 12c0-1.895 1.554-3.438 3.465-3.438 1.91 0 3.464 1.543 3.464 3.438 0 1.895-1.554 3.438-3.464 3.438S8.535 13.895 8.535 12zm1.733 0c0 .948.777 1.719 1.732 1.719s1.732-.771 1.732-1.719c0-.948-.777-1.719-1.732-1.719s-1.732.771-1.732 1.719z"></path></svg><svg width="24" height="24" viewBox="0 0 24 24" id="share" y="1455"><path d="M19.333 15.667a3.667 3.667 0 0 0-3.391 2.272L7.97 13.592A3.652 3.652 0 0 0 8.333 12c0-.57-.13-1.11-.362-1.591l7.97-4.348a3.667 3.667 0 1 0-.23-1.962L6.752 8.985a3.667 3.667 0 1 0 0 6.03l8.959 4.886a3.667 3.667 0 1 0 3.622-4.234zm0-12.834A1.833 1.833 0 1 1 17.5 4.668v-.005a1.833 1.833 0 0 1 1.833-1.83zM2.833 12a1.833 1.833 0 1 1 3.175 1.25 1.827 1.827 0 0 1-1.341.584A1.833 1.833 0 0 1 2.833 12zm16.5 9.167a1.833 1.833 0 0 1-1.833-1.83v-.005a1.833 1.833 0 1 1 1.833 1.835z"></path></svg><svg width="24" height="24" viewBox="0 0 24 24" id="snow" y="1479"><path fill-rule="evenodd" clip-rule="evenodd" d="M14.295 1.622l5.382 3.153C21.11 5.615 22 7.185 22 8.874v6.252c0 1.69-.89 3.26-2.323 4.099l-5.382 3.153a4.545 4.545 0 0 1-4.59 0l-5.382-3.153C2.89 18.385 2 16.815 2 15.126V8.874c0-1.69.89-3.26 2.323-4.099l5.382-3.153a4.545 4.545 0 0 1 4.59 0zm4.547 16.111a3.024 3.024 0 0 0 1.477-2.607V8.874a3.024 3.024 0 0 0-1.477-2.607L13.46 3.114a2.89 2.89 0 0 0-2.92 0L5.158 6.267a3.024 3.024 0 0 0-1.477 2.607v6.252c0 1.074.566 2.073 1.477 2.607l5.382 3.153a2.89 2.89 0 0 0 2.92 0l5.382-3.153zM13.69 12l3.054 1.79a.87.87 0 0 1 .312 1.173.83.83 0 0 1-1.147.319l-3.07-1.799v3.588a.85.85 0 0 1-.84.86.85.85 0 0 1-.84-.86v-3.588l-3.07 1.799a.83.83 0 0 1-1.147-.319.87.87 0 0 1 .312-1.173L10.309 12l-3.054-1.79a.87.87 0 0 1-.312-1.173.83.83 0 0 1 1.147-.319l3.07 1.799V6.929a.85.85 0 0 1 .84-.86.85.85 0 0 1 .84.86v3.588l3.07-1.799a.83.83 0 0 1 1.147.319.87.87 0 0 1-.312 1.173L13.691 12z"></path></svg><svg width="24" height="24" viewBox="0 0 24 24" id="soc-fb" y="1503"><path d="M22 5.316C22 3.554 20.446 2 18.684 2H5.316C3.554 2 2 3.554 2 5.316v13.368C2 20.446 3.554 22 5.316 22h6.736v-7.565H9.565V11.12h2.487V9.772c0-2.28 1.658-4.249 3.73-4.249h2.695V8.84h-2.695c-.31 0-.621.311-.621.933v1.347h3.316v3.316H15.16V22h3.523C20.446 22 22 20.446 22 18.684V5.316z"></path></svg><svg width="24" height="24" viewBox="0 0 24 24" id="soc-inst" y="1527"><path fill-rule="evenodd" clip-rule="evenodd" d="M22.94 7.468c-.052-1.169-.24-1.973-.512-2.669a5.368 5.368 0 0 0-1.272-1.951A5.413 5.413 0 0 0 19.21 1.58c-.7-.27-1.5-.46-2.668-.511C15.363 1.013 14.989 1 12.002 1s-3.36.013-4.534.064c-1.169.052-1.973.241-2.669.512-.74.28-1.4.709-1.951 1.272A5.417 5.417 0 0 0 1.58 4.795c-.27.7-.46 1.5-.511 2.669C1.013 8.64 1 9.015 1 12.002s.013 3.361.064 4.534c.052 1.17.241 1.973.512 2.67.28.738.713 1.4 1.272 1.95.55.56 1.216.993 1.947 1.268.7.271 1.5.46 2.669.512 1.173.051 1.547.064 4.534.064s3.36-.013 4.534-.064c1.169-.052 1.973-.241 2.669-.512a5.628 5.628 0 0 0 3.219-3.219c.27-.7.46-1.5.511-2.669.052-1.173.065-1.547.065-4.534s-.005-3.36-.056-4.534zm-1.981 8.982c-.048 1.075-.228 1.655-.378 2.042a3.65 3.65 0 0 1-2.09 2.088c-.386.15-.97.331-2.04.379-1.161.051-1.51.064-4.444.064-2.936 0-3.288-.013-4.444-.064-1.075-.048-1.655-.228-2.042-.378a3.386 3.386 0 0 1-1.263-.821 3.42 3.42 0 0 1-.821-1.264c-.15-.387-.331-.971-.378-2.041-.052-1.16-.065-1.509-.065-4.444 0-2.936.013-3.288.065-4.444.047-1.074.227-1.655.378-2.041.176-.478.455-.912.825-1.264a3.415 3.415 0 0 1 1.264-.82c.386-.151.97-.332 2.041-.38 1.16-.05 1.509-.064 4.444-.064 2.94 0 3.288.013 4.444.065 1.074.047 1.654.228 2.041.378.477.176.911.456 1.264.82.365.358.644.787.82 1.265.15.386.331.97.379 2.041.051 1.16.064 1.508.064 4.444 0 2.935-.013 3.279-.064 4.44zm-8.957-10.1a5.653 5.653 0 0 0-5.651 5.652 5.653 5.653 0 0 0 5.651 5.652 5.653 5.653 0 0 0 5.652-5.652 5.653 5.653 0 0 0-5.652-5.651zm0 9.318a3.667 3.667 0 1 1 .001-7.333 3.667 3.667 0 0 1 0 7.333zm5.875-8.221a1.32 1.32 0 1 0 0-2.64 1.32 1.32 0 0 0 0 2.64z"></path></svg><svg width="24" height="24" viewBox="0 0 24 24" id="soc-inst-light" y="1551"><path fill-rule="evenodd" clip-rule="evenodd" d="M22.94 7.468c-.052-1.169-.24-1.973-.512-2.669a5.368 5.368 0 0 0-1.272-1.951A5.413 5.413 0 0 0 19.21 1.58c-.7-.27-1.5-.46-2.668-.511C15.363 1.013 14.989 1 12.002 1s-3.36.013-4.534.064c-1.169.052-1.973.241-2.669.512-.74.28-1.4.709-1.951 1.272A5.417 5.417 0 0 0 1.58 4.795c-.27.7-.46 1.5-.511 2.669C1.013 8.64 1 9.015 1 12.002s.013 3.361.064 4.534c.052 1.17.241 1.973.512 2.67.28.738.713 1.4 1.272 1.95.55.56 1.216.993 1.947 1.268.7.271 1.5.46 2.669.512 1.173.051 1.547.064 4.534.064s3.36-.013 4.534-.064c1.169-.052 1.973-.241 2.669-.512a5.628 5.628 0 0 0 3.219-3.219c.27-.7.46-1.5.511-2.669.052-1.173.065-1.547.065-4.534s-.005-3.36-.056-4.534zm-1.981 8.982c-.048 1.075-.228 1.655-.378 2.042a3.65 3.65 0 0 1-2.09 2.088c-.386.15-.97.331-2.04.379-1.161.051-1.51.064-4.444.064-2.936 0-3.288-.013-4.444-.064-1.075-.048-1.655-.228-2.042-.378a3.386 3.386 0 0 1-1.263-.821 3.42 3.42 0 0 1-.821-1.264c-.15-.387-.331-.971-.378-2.041-.052-1.16-.065-1.509-.065-4.444 0-2.936.013-3.288.065-4.444.047-1.074.227-1.655.378-2.041.176-.478.455-.912.825-1.264a3.415 3.415 0 0 1 1.264-.82c.386-.151.97-.332 2.041-.38 1.16-.05 1.509-.064 4.444-.064 2.94 0 3.288.013 4.444.065 1.074.047 1.654.228 2.041.378.477.176.911.456 1.264.82.365.358.644.787.82 1.265.15.386.331.97.379 2.041.051 1.16.064 1.508.064 4.444 0 2.935-.013 3.279-.064 4.44zm-8.957-10.1a5.653 5.653 0 0 0-5.651 5.652 5.653 5.653 0 0 0 5.651 5.652 5.653 5.653 0 0 0 5.652-5.652 5.653 5.653 0 0 0-5.652-5.651zm0 9.318a3.667 3.667 0 1 1 .001-7.333 3.667 3.667 0 0 1 0 7.333zm5.875-8.221a1.32 1.32 0 1 0 0-2.64 1.32 1.32 0 0 0 0 2.64z"></path></svg><svg width="24" height="24" viewBox="0 0 24 24" id="soc-telegram" y="1575"><path d="M1.386 11.6l5.058 1.965 1.971 6.612c.086.446.6.536.943.268l2.83-2.413c.256-.268.685-.268 1.028 0l5.058 3.842c.343.268.857.09.943-.357l3.772-18.762c.086-.447-.343-.893-.772-.715L1.386 10.438c-.515.18-.515.983 0 1.162zm6.772.983l9.944-6.344c.172-.089.343.18.172.268L10.13 14.46c-.257.268-.514.625-.514 1.072l-.258 2.144c0 .268-.428.357-.514 0l-1.029-3.931c-.257-.447-.085-.983.343-1.161z"></path></svg><svg width="24" height="24" viewBox="0 0 24 24" id="soc-telegram-light" y="1599"><path d="M18.71 22a.861.861 0 0 1-.488-.153l-5.532-3.813-2.967 2.17a.86.86 0 0 1-.803.114.88.88 0 0 1-.548-.607l-1.49-5.738-5.322-2.068a.885.885 0 0 1-.56-.821.885.885 0 0 1 .549-.829l20.24-8.185a.86.86 0 0 1 .996.232.89.89 0 0 1 .197.76l-3.416 18.219a.882.882 0 0 1-.522.651.858.858 0 0 1-.333.068zm-5.534-5.77l4.927 3.397L20.761 5.45l-9.6 9.39 1.992 1.373.023.016zm-4.102-.756l.66 2.541 1.421-1.04-1.861-1.283a.875.875 0 0 1-.22-.218zm-4.807-4.413l3.655 1.42a.88.88 0 0 1 .53.601l.464 1.786a.891.891 0 0 1 .263-.546l9.148-8.947-14.06 5.686z"></path></svg><svg width="22" height="18" viewBox="0 0 22 18" id="soc-twitter" y="1623"><path d="M22 2.13a9.321 9.321 0 0 1-2.599.718 4.51 4.51 0 0 0 1.984-2.51 8.976 8.976 0 0 1-2.86 1.1A4.505 4.505 0 0 0 15.231 0c-2.497 0-4.507 2.04-4.507 4.543 0 .36.03.706.104 1.036-3.75-.185-7.067-1.994-9.296-4.751a4.597 4.597 0 0 0-.618 2.296c0 1.573.805 2.967 2.004 3.774a4.43 4.43 0 0 1-2.038-.56v.05a4.555 4.555 0 0 0 3.614 4.463c-.368.101-.768.15-1.183.15-.289 0-.58-.017-.854-.078.585 1.799 2.243 3.121 4.215 3.164a9.023 9.023 0 0 1-5.593 1.937c-.37 0-.724-.017-1.079-.062A12.633 12.633 0 0 0 6.919 18c8.3 0 12.837-6.923 12.837-12.924 0-.2-.007-.395-.017-.587A9.034 9.034 0 0 0 22 2.13z"></path></svg><svg width="24" height="24" viewBox="0 0 24 24" id="soc-viber" y="1641"><path d="M17.48 1.522c-3.63-.696-7.4-.696-11.03 0-1.605.348-3.63 2.298-3.979 3.83a21.968 21.968 0 0 0 0 9.05c.419 1.532 2.443 3.482 3.98 3.83.07 0 .139.07.139.14v4.385c0 .21.28.348.419.14l2.094-2.159s1.675-1.74 1.955-2.019c0 0 .07-.07.14-.07 2.093.07 4.258-.139 6.352-.487 1.605-.348 3.63-2.297 3.979-3.829a21.967 21.967 0 0 0 0-9.051c-.42-1.462-2.444-3.412-4.05-3.76zm.07 13.09c-.35.696-.768 1.253-1.466 1.6l-.628.21a8.85 8.85 0 0 1-.699-.21c-2.233-.904-4.328-2.157-6.003-3.968A16.747 16.747 0 0 1 6.45 8.763c-.279-.627-.558-1.184-.768-1.81-.21-.557.14-1.114.489-1.532.35-.418.768-.696 1.257-.905.349-.209.698-.07.977.209.558.696 1.117 1.392 1.536 2.158.279.488.21 1.045-.28 1.393-.14.07-.209.139-.349.278-.07.07-.209.14-.279.279-.14.209-.14.417-.07.626.559 1.602 1.606 2.855 3.212 3.551.279.14.488.209.837.209.489-.07.698-.627 1.047-.905.35-.279.768-.279 1.187-.07.35.21.698.488 1.117.766.349.279.698.488 1.047.766.21.14.28.487.14.835zM14.618 9.39c-.14 0-.07 0 0 0-.28 0-.35-.14-.419-.348 0-.14 0-.349-.07-.488a1.323 1.323 0 0 0-.489-.766l-.418-.209c-.21-.07-.35-.07-.559-.07-.21-.069-.28-.208-.28-.417 0-.14.21-.278.35-.278 1.117.07 1.955.696 2.094 2.019v.278c0 .14-.07.279-.21.279zm-.698-3.064c-.35-.139-.698-.278-1.117-.348-.14 0-.35-.07-.489-.07-.21 0-.349-.139-.28-.348 0-.209.14-.348.35-.278.698.07 1.326.209 1.955.487 1.256.627 1.954 1.671 2.164 3.064v.905c-.07.278-.559.348-.629 0 0-.07-.07-.21-.07-.279a4.07 4.07 0 0 0-.418-1.81c-.42-.627-.908-1.044-1.466-1.323zm3.77 4.178c-.21 0-.35-.21-.35-.418 0-.418-.07-.836-.14-1.253-.278-2.228-2.093-4.038-4.258-4.387-.349-.07-.698-.07-.977-.139-.21 0-.489 0-.558-.278-.07-.21.14-.418.349-.418h.14c2.861.07.139 0 0 0 2.931.07 5.374 2.019 5.863 4.943.07.488.14.975.14 1.532.14.209 0 .418-.21.418z"></path></svg><svg width="24" height="24" viewBox="0 0 24 24" id="soc-vk" y="1665"><path d="M23.777 17.562c0-.096-.095-.096-.095-.192-.382-.767-1.242-1.726-2.388-2.781-.573-.48-.86-.863-1.05-1.055-.287-.383-.287-.671-.191-1.055.095-.287.477-.767 1.146-1.63.382-.48.573-.767.86-1.054 1.432-1.918 2.1-3.165 1.909-3.74l-.095-.096c-.096-.096-.191-.192-.382-.192-.191-.096-.478-.096-.764 0H18.43l-.096.096c-.095.096-.095.096-.095.192-.382 1.055-.86 1.918-1.337 2.877-.287.479-.573.958-.86 1.342-.286.384-.477.671-.668.863-.191.192-.382.288-.478.48-.095.095-.286.191-.286.095-.095 0-.191 0-.191-.096l-.286-.287c-.096-.096-.096-.288-.191-.48V6.055c0-.096-.096-.288-.096-.384l-.286-.287c-.096-.096-.287-.096-.382-.192A8.531 8.531 0 0 0 11.458 5c-1.527 0-2.577.096-2.96.288-.19.096-.381.191-.477.383-.19.192-.19.288-.095.288.477.096.86.288 1.05.575l.096.192c.095.096.095.288.19.575.096.288.096.576.096.96v1.534c0 .479-.095.767-.095 1.054 0 .288-.096.48-.191.576-.096.191-.096.287-.191.287 0 0 0 .096-.096.096-.095 0-.19.096-.382.096-.095 0-.286-.096-.382-.192a1.153 1.153 0 0 1-.477-.48c-.191-.19-.382-.479-.573-.862-.191-.384-.478-.767-.669-1.343l-.19-.383a13.594 13.594 0 0 1-.478-1.055c-.191-.48-.382-.863-.573-1.342a1.323 1.323 0 0 0-.286-.384h-.096s-.095-.096-.191-.096c-.095 0-.19-.096-.286-.096H.764c-.382 0-.573.096-.669.192L0 5.959v.192c0 .096 0 .191.095.383.478 1.15 1.05 2.302 1.624 3.452.573 1.055 1.146 2.014 1.528 2.685.477.671.86 1.343 1.337 1.918s.763.959.859 1.15l.382.384.286.288c.191.192.478.48.86.767.382.288.86.575 1.337.863.477.288 1.05.48 1.623.671.668.192 1.241.288 1.814.192h1.433c.286 0 .477-.096.668-.288l.096-.096c0-.095.095-.095.095-.191v-.384c0-.383 0-.671.096-.959.095-.287.095-.48.19-.67.096-.193.191-.289.287-.384l.191-.192h.095c.191-.096.478 0 .669.191.286.192.573.48.764.768.19.287.477.575.86.958.381.384.668.672.859.768l.286.191c.191.096.382.192.669.288.286.096.477.096.668.096l3.247-.096c.286 0 .573-.096.764-.192.19-.096.286-.192.286-.383v-.384c-.19-.192-.19-.288-.19-.383z"></path></svg><svg width="24" height="24" viewBox="0 0 24 24" id="soc-wp" y="1689"><path d="M19.073 4.917A9.932 9.932 0 0 0 12.035 2C6.53 2 2.07 6.444 2.07 11.93c0 1.737.487 3.473 1.324 4.931L2 22l5.296-1.389a10.189 10.189 0 0 0 4.739 1.18c5.505 0 9.965-4.444 9.965-9.93-.07-2.57-1.045-5.07-2.927-6.944zm-2.23 10.555c-.209.556-1.184 1.111-1.672 1.18-.418.07-.976.07-1.533-.069-.349-.139-.837-.277-1.394-.555-2.509-1.042-4.112-3.542-4.251-3.75-.14-.14-1.045-1.32-1.045-2.57 0-1.25.627-1.805.836-2.083.209-.278.488-.278.697-.278h.488c.139 0 .348-.07.557.417.21.486.697 1.736.767 1.805a.44.44 0 0 1 0 .417c-.07.139-.14.278-.28.417-.138.139-.278.347-.348.416-.139.14-.278.278-.139.487.14.277.627 1.041 1.394 1.736.976.833 1.742 1.11 2.02 1.25.28.139.419.07.558-.07.14-.139.627-.694.767-.972s.348-.208.557-.139c.21.07 1.464.695 1.673.833.278.14.418.209.488.278.07.209.07.695-.14 1.25z"></path></svg><svg width="24" height="24" viewBox="0 0 24 24" id="soc-wp-light" y="1713"><path fill-rule="evenodd" clip-rule="evenodd" d="M19.795 4.197A10.91 10.91 0 0 0 12.046 1C6.008 1 1.094 5.89 1.092 11.9c0 1.922.503 3.798 1.462 5.451L1 23l5.807-1.516c1.6.869 3.401 1.326 5.235 1.327h.004c6.037 0 10.952-4.89 10.954-10.902a10.808 10.808 0 0 0-3.205-7.712zM12.046 20.97h-.004a9.126 9.126 0 0 1-4.634-1.263l-.332-.197-3.446.9.92-3.344-.217-.342A9.007 9.007 0 0 1 2.941 11.9c.002-4.995 4.087-9.06 9.109-9.06a9.068 9.068 0 0 1 6.436 2.657 8.986 8.986 0 0 1 2.665 6.41c-.003 4.997-4.087 9.062-9.105 9.062zm4.994-6.786c-.274-.137-1.62-.796-1.87-.887-.25-.09-.434-.136-.616.137-.183.272-.707.886-.867 1.068-.16.181-.319.204-.593.068-.273-.136-1.155-.424-2.2-1.352-.814-.722-1.364-1.614-1.523-1.887-.16-.273-.002-.406.12-.556.296-.366.593-.75.684-.932.091-.181.045-.34-.023-.477-.068-.136-.616-1.477-.844-2.022-.222-.531-.448-.46-.616-.468-.16-.008-.342-.01-.524-.01-.183 0-.48.069-.73.341-.251.273-.958.932-.958 2.273 0 1.34.98 2.636 1.118 2.818.136.181 1.93 2.933 4.675 4.112a15.61 15.61 0 0 0 1.56.574c.656.208 1.253.178 1.724.108.526-.078 1.62-.659 1.848-1.295.228-.636.228-1.181.16-1.295-.069-.114-.251-.182-.525-.318z"></path></svg><svg width="24" height="24" viewBox="0 0 24 24" id="squares" y="1737"><path fill-rule="evenodd" clip-rule="evenodd" d="M4.313 2h4.593a2.316 2.316 0 0 1 2.313 2.313v4.593a2.316 2.316 0 0 1-2.313 2.313H4.313A2.316 2.316 0 0 1 2 8.906V4.313A2.315 2.315 0 0 1 4.313 2zm4.593 7.656a.75.75 0 0 0 .75-.75V4.313a.751.751 0 0 0-.75-.75H4.313a.751.751 0 0 0-.75.75v4.593c0 .414.336.75.75.75h4.593zM15.126 2h4.53A2.346 2.346 0 0 1 22 4.344v4.531a2.347 2.347 0 0 1-2.344 2.344h-4.53a2.346 2.346 0 0 1-2.345-2.344V4.344A2.346 2.346 0 0 1 15.125 2zm4.53 7.656c.431 0 .782-.35.782-.781V4.344a.782.782 0 0 0-.782-.782h-4.53a.782.782 0 0 0-.782.782v4.531c0 .43.35.781.781.781h4.531zm-10.75 3.125H4.313A2.315 2.315 0 0 0 2 15.094v4.593A2.315 2.315 0 0 0 4.313 22h4.593a2.315 2.315 0 0 0 2.313-2.313v-4.593a2.315 2.315 0 0 0-2.313-2.313zm.75 6.906a.75.75 0 0 1-.75.75H4.313a.751.751 0 0 1-.75-.75v-4.593a.75.75 0 0 1 .75-.75h4.593a.75.75 0 0 1 .75.75v4.593zm5.47-6.906h4.53A2.347 2.347 0 0 1 22 15.125v4.531A2.346 2.346 0 0 1 19.656 22h-4.53a2.346 2.346 0 0 1-2.345-2.344v-4.531a2.346 2.346 0 0 1 2.344-2.344zm4.53 7.656c.431 0 .782-.35.782-.78v-4.532c0-.43-.35-.781-.782-.781h-4.53a.782.782 0 0 0-.782.781v4.531c0 .431.35.782.781.782h4.531z"></path></svg><svg width="48" height="48" viewBox="0 0 48 48" id="star" y="1761"><path d="M43.917 19.105c-.198-.64-.723-1.104-1.357-1.2l-11.787-1.806-5.275-11.197c-.569-1.203-2.447-1.203-3.015 0L17.207 16.1 5.44 17.904a1.704 1.704 0 0 0-1.357 1.2 1.824 1.824 0 0 0 .425 1.808l8.514 8.716L11.02 41.94c-.11.66.15 1.329.669 1.724.292.222.639.335.987.335.267 0 .536-.067.787-.205l10.53-5.81 10.55 5.812c.567.31 1.255.263 1.771-.136a1.806 1.806 0 0 0 .667-1.726l-2.017-12.309 8.529-8.716a1.813 1.813 0 0 0 .425-1.805zM31.98 27.75a1.82 1.82 0 0 0-.483 1.562l1.59 9.703-8.315-4.582a1.628 1.628 0 0 0-.781-.201c-.271 0-.54.067-.784.203l-8.302 4.579 1.579-9.705A1.816 1.816 0 0 0 16 27.75l-6.713-6.87 9.279-1.425a1.684 1.684 0 0 0 1.264-.96l4.16-8.828 4.159 8.825c.245.519.718.88 1.264.963l9.29 1.425-6.724 6.871z"></path></svg><svg width="48" height="48" viewBox="0 0 48 48" id="star-full" y="1809"><path d="M43.917 19.105c-.198-.64-.723-1.104-1.357-1.2l-11.787-1.806-5.275-11.197c-.569-1.203-2.447-1.203-3.015 0L17.207 16.1 5.44 17.904a1.704 1.704 0 0 0-1.357 1.2 1.824 1.824 0 0 0 .425 1.808l8.514 8.716L11.02 41.94c-.11.66.15 1.329.669 1.724.292.222.639.335.987.335.267 0 .536-.067.787-.205l10.53-5.81 10.55 5.812c.567.31 1.255.263 1.771-.136a1.806 1.806 0 0 0 .667-1.726l-2.017-12.309 8.529-8.716a1.813 1.813 0 0 0 .425-1.805z"></path></svg><svg width="24" height="24" viewBox="0 0 24 24" id="stop" y="1857"><path fill-rule="evenodd" clip-rule="evenodd" d="M17.618 19.032a9.001 9.001 0 0 1-12.65-12.65l12.65 12.65zm1.414-1.414L6.382 4.968a9.001 9.001 0 0 1 12.65 12.65zm.746 2.16c-4.296 4.296-11.26 4.296-15.556 0-4.296-4.296-4.296-11.26 0-15.556 4.296-4.296 11.26-4.296 15.556 0 4.296 4.296 4.296 11.26 0 15.556z"></path></svg><svg width="24" height="24" viewBox="0 0 24 24" id="surprise" y="1881"><path d="M20.55 6.545h-3.92c.972-1.486.768-3.343-.46-4.16-1.238-.82-3.042-.281-4.034 1.209a3.221 3.221 0 0 0-.135.22 3.18 3.18 0 0 0-.134-.22c-.992-1.49-2.797-2.033-4.034-1.209-1.228.817-1.432 2.674-.46 4.16h-3.92c-.8 0-1.453.65-1.453 1.453v12.553C2 21.347 2.653 22 3.453 22H20.55c.8 0 1.454-.653 1.454-1.453V7.998c0-.804-.654-1.453-1.454-1.453zm-.213 1.666v5.229h-7.503V8.21h7.503zm-6.842-3.715c.425-.641 1.005-.866 1.372-.866a.72.72 0 0 1 .4.11c.253.168.318.482.339.658.045.408-.086.87-.347 1.27-.425.636-1.004.865-1.372.865a.717.717 0 0 1-.4-.11c-.416-.282-.514-1.14.008-1.927zm-5.098-.098c.02-.172.085-.49.339-.657a.708.708 0 0 1 .4-.11c.367 0 .947.224 1.371.865.527.788.425 1.649.012 1.922a.708.708 0 0 1-.4.11c-.367 0-.947-.224-1.371-.865-.266-.396-.392-.857-.351-1.265zm2.771 3.813v5.229H3.667V8.21h7.502zm-7.502 6.894h7.502v5.23H3.667v-5.23zm9.168 5.23v-5.23h7.499v5.23h-7.499z"></path></svg><svg width="24" height="24" viewBox="0 0 24 24" id="time" y="1905"><path fill-rule="evenodd" clip-rule="evenodd" d="M1 12C1 5.934 5.934 1 12 1s11 4.934 11 11-4.934 11-11 11S1 18.066 1 12zm1.704 0c0 5.125 4.17 9.296 9.296 9.296 5.125 0 9.296-4.17 9.296-9.296 0-5.125-4.17-9.296-9.296-9.296-5.125 0-9.296 4.17-9.296 9.296zm10.148-.358l3.067 2.3a.85.85 0 0 1-.512 1.534.847.847 0 0 1-.51-.17l-3.408-2.556a.85.85 0 0 1-.341-.682V6.956a.851.851 0 1 1 1.704 0v4.686z"></path></svg><svg width="24" height="24" viewBox="0 0 24 24" id="transport" y="1929"><path fill-rule="evenodd" clip-rule="evenodd" d="M23.841 11.935l-1.41-1.966h.001l-2.269-4.882a.753.753 0 0 0-.676-.45h-3.226v-.819c0-.452-.339-.818-.757-.818H2.9c-.418 0-.756.366-.756.818 0 .452.338.818.756.818h11.849v5.728c0 .452.338.818.756.818h5.882l1.101 1.535v4.22h-1.425c-.328-1.424-1.52-2.482-2.936-2.482s-2.608 1.058-2.936 2.481h-4.464c-.328-1.423-1.52-2.481-2.936-2.481s-2.608 1.058-2.936 2.481H2.899c-.418 0-.756.367-.756.819 0 .451.338.818.756.818h1.968C5.212 19.969 6.392 21 7.79 21c1.398 0 2.577-1.031 2.923-2.427h4.49C15.55 19.969 16.728 21 18.126 21c1.398 0 2.578-1.031 2.923-2.427h2.195c.417 0 .756-.367.756-.818v-5.319a.864.864 0 0 0-.159-.501zm-4.82-5.662l1.521 3.272H16.26V6.273h2.761zM7.79 19.363c-.834 0-1.513-.733-1.513-1.636 0-.902.679-1.636 1.513-1.636.834 0 1.513.734 1.513 1.636 0 .903-.679 1.637-1.513 1.637zm10.336 0c-.834 0-1.513-.733-1.513-1.636 0-.902.679-1.636 1.513-1.636.834 0 1.513.734 1.513 1.636 0 .903-.679 1.637-1.513 1.637zM1.992 12.792H5.47c.417 0 .756.366.756.818 0 .452-.339.818-.756.818H1.99c-.417 0-.756-.366-.756-.818 0-.452.339-.818.757-.818zM7.21 9.573H.756c-.417 0-.756.366-.756.818 0 .452.339.818.756.818H7.21c.418 0 .756-.366.756-.818 0-.452-.338-.818-.756-.818zM1.992 6.355h6.453c.418 0 .757.366.757.818 0 .452-.339.818-.757.818H1.992c-.418 0-.757-.366-.757-.818 0-.452.339-.818.757-.818z"></path></svg><svg width="24" height="17" viewBox="0 0 24 17" id="userGroup" y="1953"><path d="M2.654 4.42C2.654 1.983 4.59 0 6.968 0s4.313 1.983 4.313 4.42-1.935 4.42-4.313 4.42c-2.379 0-4.314-1.983-4.314-4.42zm5.243 5.78c1.61 0 3.128.663 4.272 1.867a6.428 6.428 0 0 1 1.766 4.452.473.473 0 0 1-.464.481H.465A.473.473 0 0 1 0 16.519c0-1.673.627-3.254 1.766-4.452C2.911 10.863 4.428 10.2 6.04 10.2h1.858zM17.032 0c-2.378 0-4.313 1.983-4.313 4.42s1.935 4.42 4.313 4.42c2.379 0 4.314-1.983 4.314-4.42S19.41 0 17.032 0z"></path><path d="M23.535 17h-8.92c.061-.15.095-.313.095-.481a7.2 7.2 0 0 0-2.122-5.13 5.794 5.794 0 0 1 3.515-1.189h1.858c1.61 0 3.128.663 4.273 1.867A6.428 6.428 0 0 1 24 16.519a.473.473 0 0 1-.465.481z"></path></svg><svg width="24" height="24" viewBox="0 0 24 24" id="view" y="1970"><path fill-rule="evenodd" clip-rule="evenodd" d="M22.87 11.862l.007.013a.917.917 0 0 1 0 .917l-.008.013c-.251.422-4.09 6.862-10.869 6.862-6.78 0-10.618-6.44-10.87-6.863l-.007-.012a.917.917 0 0 1 .007-.93C1.382 11.44 5.22 5 12 5c6.78 0 10.618 6.44 10.87 6.862zm-19.86.471c.944 1.394 4.152 5.5 8.99 5.5 4.857 0 8.046-4.106 8.99-5.5-.944-1.393-4.142-5.5-8.99-5.5-4.847 0-8.073 4.107-8.99 5.5zm4.408 0A4.583 4.583 0 1 1 12 16.917a4.583 4.583 0 0 1-4.582-4.584zm1.833 0a2.75 2.75 0 1 0 5.499.001 2.75 2.75 0 0 0-5.5 0z"></path></svg></svg>