<svg xmlns="http://www.w3.org/2000/svg" width="180" height="52" viewBox="0 0 180 52"><g><g><g><g><path d="M179 46.002c0 2.771-2.291 5.016-5.126 5.016H6.132C3.3 51.018 1 48.773 1 46.002v-40C1 3.232 3.3.98 6.132.98h167.741c2.836 0 5.126 2.253 5.126 5.022z"/></g><g><path fill="#a6a6a6" d="M173.334 1.042c3.086 0 5.598 2.449 5.598 5.458v39c0 3.01-2.512 5.458-5.598 5.458H6.667c-3.087 0-5.599-2.449-5.599-5.458v-39c0-3.01 2.512-5.458 5.599-5.458zM6.667 0C3.002 0 0 2.927 0 6.5v39C0 49.073 3.002 52 6.667 52h166.667c3.665 0 6.666-2.927 6.666-6.5v-39c0-3.573-3.001-6.5-6.666-6.5z"/></g><g><g><g><path fill="#fff" d="M44.735 32.417c-.027.117-.699 2.396-2.372 4.71-1.397 2.037-2.861 4.029-5.187 4.065-2.259.051-3.019-1.296-5.61-1.296-2.614 0-3.423 1.26-5.59 1.347-2.215.08-3.907-2.175-5.355-4.194-2.894-4.122-5.148-11.617-2.126-16.717 1.464-2.5 4.133-4.111 6.986-4.154 2.218-.045 4.275 1.46 5.638 1.46 1.336 0 3.88-1.8 6.503-1.53 1.097.03 4.22.422 6.234 3.286-.163.095-3.72 2.133-3.681 6.323.044 5.022 4.505 6.682 4.56 6.7zm-13.883-16.69c-.248-1.888.712-3.895 1.787-5.12 1.215-1.39 3.324-2.454 5.01-2.527.222 1.962-.575 3.895-1.74 5.316-1.217 1.398-3.162 2.468-5.057 2.33z"/></g></g></g><g><g><path fill="#fff" d="M71.53 40.95h-3.028l-1.659-5.081h-5.765l-1.58 5.081H56.55l5.712-17.3h3.528zm-6.687-11.73c-.158-.462-.456-1.55-.894-3.26h-.054c-.174.736-.456 1.823-.842 3.26l-1.474 4.517h4.764z"/></g><g><path fill="#fff" d="M86.211 34.56c0 2.122-.588 3.799-1.764 5.03-1.053 1.096-2.361 1.643-3.922 1.643-1.686 0-2.896-.59-3.634-1.77h-.053v6.57h-2.843v-13.45c0-1.334-.036-2.703-.105-4.107h2.5l.159 1.977h.053c.948-1.49 2.387-2.233 4.317-2.233 1.51 0 2.77.581 3.778 1.745 1.01 1.164 1.514 2.696 1.514 4.595zm-2.896.101c0-1.214-.28-2.215-.842-3.003-.615-.821-1.44-1.232-2.475-1.232-.701 0-1.339.229-1.908.68a3.142 3.142 0 0 0-1.119 1.785 3.544 3.544 0 0 0-.132.845v2.08c0 .907.286 1.673.856 2.298.571.626 1.312.938 2.224.938 1.071 0 1.904-.403 2.5-1.207.598-.805.896-1.865.896-3.184z"/></g><g><path fill="#fff" d="M100.93 34.56c0 2.122-.588 3.799-1.765 5.03-1.052 1.096-2.36 1.643-3.922 1.643-1.685 0-2.896-.59-3.632-1.77h-.053v6.57h-2.843v-13.45c0-1.334-.036-2.703-.105-4.107h2.5l.159 1.977h.053c.947-1.49 2.385-2.233 4.317-2.233 1.508 0 2.768.581 3.779 1.745 1.007 1.164 1.512 2.696 1.512 4.595zm-2.896.101c0-1.214-.281-2.215-.844-3.003-.615-.821-1.437-1.232-2.473-1.232-.703 0-1.339.229-1.91.68a3.14 3.14 0 0 0-1.117 1.785c-.087.343-.132.624-.132.845v2.08c0 .907.285 1.673.853 2.298.571.624 1.312.938 2.227.938 1.07 0 1.904-.403 2.5-1.207.597-.805.896-1.865.896-3.184z"/></g><g><path fill="#fff" d="M117.388 36.102c0 1.472-.524 2.67-1.576 3.594-1.156 1.01-2.765 1.514-4.833 1.514-1.91 0-3.44-.359-4.599-1.078l.659-2.31c1.248.736 2.617 1.105 4.109 1.105 1.07 0 1.904-.236 2.503-.707.596-.47.893-1.102.893-1.89 0-.702-.245-1.294-.737-1.773-.49-.48-1.307-.926-2.448-1.338-3.107-1.13-4.659-2.785-4.659-4.96 0-1.423.544-2.59 1.633-3.497 1.086-.908 2.534-1.362 4.344-1.362 1.615 0 2.956.274 4.027.822l-.71 2.259c-1-.53-2.131-.796-3.397-.796-1 0-1.781.24-2.341.72-.473.427-.71.948-.71 1.566 0 .684.27 1.25.814 1.694.473.41 1.333.855 2.581 1.335 1.527.6 2.648 1.3 3.37 2.103.718.801 1.077 1.803 1.077 3z"/></g><g><path fill="#fff" d="M126.782 30.558h-3.133v6.057c0 1.54.552 2.31 1.658 2.31.508 0 .93-.043 1.263-.129l.079 2.105c-.56.204-1.298.307-2.211.307-1.123 0-2-.334-2.633-1.001-.631-.668-.948-1.789-.948-3.363v-6.288h-1.867v-2.08h1.867v-2.284l2.792-.822v3.106h3.133z"/></g><g><path fill="#fff" d="M140.922 34.62c0 1.917-.563 3.491-1.685 4.722-1.178 1.268-2.74 1.9-4.688 1.9-1.878 0-3.372-.607-4.487-1.822-1.115-1.214-1.672-2.747-1.672-4.594 0-1.933.573-3.516 1.724-4.747 1.148-1.233 2.697-1.849 4.645-1.849 1.878 0 3.388.607 4.528 1.823 1.091 1.179 1.635 2.701 1.635 4.567zm-2.95.09c0-1.151-.251-2.138-.762-2.96-.596-.997-1.448-1.493-2.552-1.493-1.143 0-2.01.498-2.607 1.492-.51.824-.762 1.827-.762 3.012 0 1.15.252 2.137.762 2.959.615.996 1.474 1.492 2.582 1.492 1.085 0 1.937-.507 2.552-1.518.524-.839.788-1.836.788-2.985z"/></g><g><path fill="#fff" d="M150.165 30.914a5.06 5.06 0 0 0-.896-.077c-1 0-1.773.368-2.317 1.105-.473.65-.71 1.472-.71 2.463v6.546H143.4l.027-8.546c0-1.438-.036-2.747-.107-3.928h2.476l.104 2.387h.079c.3-.82.773-1.48 1.421-1.976a3.496 3.496 0 0 1 2.055-.668c.262 0 .5.018.71.05z"/></g><g><path fill="#fff" d="M162.87 34.127c0 .496-.033.915-.103 1.257h-8.528c.033 1.232.445 2.175 1.237 2.825.719.58 1.648.872 2.79.872 1.262 0 2.414-.196 3.45-.59l.445 1.924c-1.21.515-2.64.77-4.289.77-1.984 0-3.541-.569-4.675-1.706-1.13-1.138-1.697-2.665-1.697-4.581 0-1.882.527-3.448 1.581-4.697 1.104-1.334 2.596-2.001 4.474-2.001 1.844 0 3.24.667 4.188 2 .75 1.06 1.128 2.37 1.128 3.927zm-2.71-.72c.019-.82-.167-1.53-.552-2.13-.492-.77-1.248-1.156-2.265-1.156-.93 0-1.686.376-2.263 1.13-.473.6-.755 1.318-.841 2.155h5.921z"/></g></g><g><g><g><path fill="#fff" d="M65.395 13.012c0 1.53-.47 2.682-1.41 3.455-.871.714-2.108 1.072-3.711 1.072-.795 0-1.475-.034-2.044-.102v-8.36a15.462 15.462 0 0 1 2.407-.177c1.526 0 2.677.324 3.453.971.87.732 1.305 1.778 1.305 3.14zm-1.473.038c0-.992-.27-1.753-.808-2.283-.539-.53-1.325-.794-2.361-.794-.44 0-.815.028-1.126.088v6.356c.172.026.487.037.944.037 1.07 0 1.895-.29 2.476-.87.582-.58.875-1.424.875-2.534z"/></g><g><path fill="#fff" d="M73.216 14.348c0 .943-.276 1.715-.828 2.32-.579.623-1.345.934-2.303.934-.922 0-1.657-.298-2.205-.896-.547-.596-.82-1.349-.82-2.256 0-.95.281-1.728.847-2.333.565-.604 1.325-.907 2.282-.907.923 0 1.664.298 2.226.894.533.58.801 1.329.801 2.244zm-1.45.044c0-.565-.125-1.05-.374-1.454-.293-.49-.71-.734-1.253-.734-.562 0-.988.245-1.282.734-.25.404-.374.897-.374 1.48 0 .565.125 1.05.374 1.454.303.489.724.733 1.268.733.534 0 .952-.248 1.254-.746.258-.412.388-.901.388-1.467z"/></g><g><path fill="#fff" d="M83.687 11.33l-1.967 6.128h-1.28l-.815-2.66a19.505 19.505 0 0 1-.505-1.98h-.025c-.122.673-.29 1.332-.506 1.98l-.865 2.66h-1.295L74.58 11.33h1.436l.71 2.913c.173.69.314 1.346.427 1.967h.026c.104-.512.276-1.165.518-1.954l.892-2.925h1.139l.855 2.863c.206.698.374 1.37.504 2.017h.038c.095-.63.238-1.302.427-2.017l.763-2.863h1.372z"/></g><g><path fill="#fff" d="M90.93 17.467h-1.398v-3.51c0-1.082-.421-1.623-1.267-1.623-.414 0-.749.149-1.009.446a1.559 1.559 0 0 0-.388 1.05v3.636h-1.397V13.09c0-.538-.018-1.122-.051-1.754h1.228l.065.958h.039a1.99 1.99 0 0 1 .724-.74 2.407 2.407 0 0 1 1.267-.344c.586 0 1.074.185 1.462.555.483.454.724 1.131.724 2.03v3.672z"/></g><g><path fill="#fff" d="M94.786 17.46H93.39V8.52h1.396z"/></g><g><path fill="#fff" d="M103.006 14.348c0 .943-.276 1.715-.828 2.32-.579.623-1.347.934-2.303.934-.924 0-1.658-.298-2.205-.896-.547-.596-.82-1.349-.82-2.256 0-.95.281-1.728.847-2.333.565-.604 1.325-.907 2.281-.907.924 0 1.664.298 2.227.894.533.58.801 1.329.801 2.244zm-1.45.044c0-.565-.126-1.05-.375-1.454-.292-.49-.711-.734-1.252-.734-.563 0-.99.245-1.282.734-.25.404-.374.897-.374 1.48 0 .565.125 1.05.374 1.454.303.489.724.733 1.268.733.534 0 .951-.248 1.252-.746.26-.412.388-.901.388-1.467z"/></g><g><path fill="#fff" d="M108.515 17.463l-.104-.706h-.038c-.43.563-1.042.845-1.836.845-.594 0-1.074-.186-1.435-.555-.328-.335-.492-.753-.492-1.248 0-.749.32-1.32.964-1.715.643-.395 1.547-.589 2.71-.58v-.114c0-.807-.434-1.21-1.305-1.21-.62 0-1.166.152-1.638.454l-.284-.895c.584-.352 1.305-.529 2.156-.529 1.642 0 2.466.845 2.466 2.535v2.257c0 .612.031 1.1.091 1.461zm-.196-3.051c-1.541-.026-2.312.386-2.312 1.235 0 .32.088.559.268.719.18.16.41.239.683.239.307 0 .593-.095.855-.283a1.159 1.159 0 0 0 .506-.965z"/></g><g><path fill="#fff" d="M116.47 17.46l-.065-.984h-.039c-.396.749-1.07 1.123-2.019 1.123-.757 0-1.388-.29-1.888-.87-.5-.58-.749-1.332-.749-2.256 0-.992.27-1.796.815-2.41.526-.571 1.172-.857 1.94-.857.844 0 1.434.277 1.77.832h.027V8.52h1.399v7.29c0 .596.016 1.146.049 1.65zm-.208-3.606c0-.177-.013-.32-.039-.43a1.545 1.545 0 0 0-.505-.825 1.394 1.394 0 0 0-.935-.334c-.521 0-.929.202-1.229.606-.297.404-.448.92-.448 1.551 0 .606.143 1.097.43 1.476.302.403.71.604 1.22.604.46 0 .826-.168 1.105-.504.269-.311.401-.685.401-1.122z"/></g><g><path fill="#fff" d="M129.666 14.348c0 .943-.276 1.715-.828 2.32-.579.623-1.344.934-2.303.934-.921 0-1.656-.298-2.205-.896-.547-.596-.82-1.349-.82-2.256 0-.95.281-1.728.847-2.333.565-.604 1.325-.907 2.284-.907.921 0 1.664.298 2.224.894.533.58.801 1.329.801 2.244zm-1.448.044c0-.565-.125-1.05-.375-1.454-.294-.49-.71-.734-1.254-.734-.56 0-.987.245-1.282.734-.25.404-.374.897-.374 1.48 0 .565.125 1.05.374 1.454.303.489.724.733 1.268.733.534 0 .954-.248 1.255-.746.257-.412.388-.901.388-1.467z"/></g><g><path fill="#fff" d="M137.178 17.467h-1.396v-3.51c0-1.082-.421-1.623-1.268-1.623-.415 0-.75.149-1.008.446a1.552 1.552 0 0 0-.388 1.05v3.636h-1.399V13.09c0-.538-.016-1.122-.049-1.754h1.227l.065.958h.039c.164-.298.406-.543.724-.74.38-.228.802-.344 1.268-.344.585 0 1.073.185 1.461.555.484.454.724 1.131.724 2.03v3.672z"/></g><g><path fill="#fff" d="M146.578 12.357h-1.539v2.977c0 .756.274 1.135.815 1.135.25 0 .459-.021.623-.064l.036 1.033c-.276.102-.64.153-1.086.153-.552 0-.981-.164-1.292-.492-.312-.327-.466-.879-.466-1.652v-3.09h-.919v-1.02h.919v-1.124l1.369-.403v1.525h1.539v1.022z"/></g><g><path fill="#fff" d="M153.979 17.46h-1.399v-3.484c0-1.098-.421-1.648-1.265-1.648-.648 0-1.091.318-1.334.955a1.672 1.672 0 0 0-.065.49v3.686h-1.396V8.52h1.396v3.693h.027c.44-.672 1.07-1.007 1.888-1.007.578 0 1.057.184 1.437.555.473.461.71 1.148.71 2.055v3.644z"/></g><g><path fill="#fff" d="M161.608 14.11c0 .245-.019.45-.052.618h-4.19c.018.606.218 1.067.606 1.387.355.286.812.43 1.372.43.62 0 1.185-.097 1.695-.29l.218.946c-.596.252-1.297.378-2.109.378-.973 0-1.74-.28-2.295-.838-.557-.56-.833-1.31-.833-2.25 0-.925.257-1.695.776-2.308.541-.655 1.273-.983 2.197-.983.904 0 1.591.328 2.055.983.375.52.56 1.163.56 1.928zm-1.333-.352c.01-.404-.082-.752-.271-1.046-.243-.378-.612-.568-1.112-.568-.456 0-.828.184-1.112.555-.232.295-.37.647-.415 1.06z"/></g></g></g></g></g></g></svg>