<svg xmlns="http://www.w3.org/2000/svg" width="180" height="52" viewBox="0 0 180 52"><defs><linearGradient id="s1aia" x1="29.03" x2="6.68" y1="40.68" y2="18.86" gradientUnits="userSpaceOnUse"><stop offset="0" stop-color="#00a0ff"/><stop offset=".01" stop-color="#00a1ff"/><stop offset=".26" stop-color="#00beff"/><stop offset=".51" stop-color="#00d2ff"/><stop offset=".76" stop-color="#00dfff"/><stop offset="1" stop-color="#00e3ff"/></linearGradient><linearGradient id="s1aib" x1="45.05" x2="12.83" y1="26" y2="26" gradientUnits="userSpaceOnUse"><stop offset="0" stop-color="#ffe000"/><stop offset=".41" stop-color="#ffbd00"/><stop offset=".78" stop-color="orange"/><stop offset="1" stop-color="#ff9c00"/></linearGradient><linearGradient id="s1aic" x1="33.06" x2="2.75" y1="23.02" y2="-6.57" gradientUnits="userSpaceOnUse"><stop offset="0" stop-color="#ff3a44"/><stop offset="1" stop-color="#c31162"/></linearGradient><linearGradient id="s1aid" x1="9.72" x2="23.25" y1="51.77" y2="38.56" gradientUnits="userSpaceOnUse"><stop offset="0" stop-color="#32a071"/><stop offset=".07" stop-color="#2da771"/><stop offset=".48" stop-color="#15cf74"/><stop offset=".8" stop-color="#06e775"/><stop offset="1" stop-color="#00f076"/></linearGradient></defs><g><g><g><path d="M173.096 52H6.657C2.997 52 0 49.073 0 45.5v-39C0 2.927 2.998 0 6.657 0h166.439c3.66 0 6.657 2.927 6.657 6.5v39c0 3.573-2.997 6.5-6.657 6.5z"/></g><g><path fill="#a6a6a6" d="M173.096 1.042c3.082 0 5.59 2.449 5.59 5.458v39c0 3.01-2.508 5.458-5.59 5.458H6.657c-3.082 0-5.59-2.449-5.59-5.458v-39c0-3.01 2.508-5.458 5.59-5.458zM6.657 0C2.997 0 0 2.927 0 6.5v39C0 49.073 2.998 52 6.657 52h166.439c3.66 0 6.657-2.927 6.657-6.5v-39c0-3.573-2.997-6.5-6.657-6.5z"/></g><g><g><path fill="#fff" d="M63.136 13.317c0 1.085-.332 1.955-.988 2.603-.754.769-1.736 1.155-2.94 1.155-1.15 0-2.132-.393-2.937-1.168-.807-.786-1.21-1.752-1.21-2.907s.403-2.12 1.21-2.9c.805-.782 1.787-1.176 2.938-1.176a4.27 4.27 0 0 1 1.639.33c.52.216.942.509 1.248.87l-.696.685c-.534-.615-1.261-.92-2.191-.92a3.09 3.09 0 0 0-2.184.864c-.611.578-.917 1.327-.917 2.247 0 .92.306 1.675.917 2.254.617.57 1.345.863 2.183.863.89 0 1.64-.293 2.23-.87.39-.382.612-.908.67-1.58h-2.9v-.94h3.869c.046.203.06.4.06.59z"/><path fill="none" stroke="#fff" stroke-miterlimit="20" stroke-width=".16" d="M63.136 13.317c0 1.085-.332 1.955-.988 2.603-.754.769-1.736 1.155-2.94 1.155-1.15 0-2.132-.393-2.937-1.168-.807-.786-1.21-1.752-1.21-2.907s.403-2.12 1.21-2.9c.805-.782 1.787-1.176 2.938-1.176a4.27 4.27 0 0 1 1.639.33c.52.216.942.509 1.248.87l-.696.685c-.534-.615-1.261-.92-2.191-.92a3.09 3.09 0 0 0-2.184.864c-.611.578-.917 1.327-.917 2.247 0 .92.306 1.675.917 2.254.617.57 1.345.863 2.183.863.89 0 1.64-.293 2.23-.87.39-.382.612-.908.67-1.58h-2.9v0-.94 0h3.869c.046.203.06.4.06.59z"/></g></g><g><g><path fill="#fff" d="M69.273 10.06H65.64v2.47h3.275v.94H65.64v2.47h3.633v.957h-4.662V9.103h4.662z"/><path fill="none" stroke="#fff" stroke-miterlimit="20" stroke-width=".16" d="M69.273 10.06v0H65.64v2.47h3.275v.94H65.64v2.47h3.633v.957h-4.662v0-7.794 0h4.662v0z"/></g></g><g><g><path fill="#fff" d="M73.604 16.897h-1.029V10.06h-2.229v-.957h5.488v.957h-2.23v6.837z"/><path fill="none" stroke="#fff" stroke-miterlimit="20" stroke-width=".16" d="M73.604 16.897v0h-1.029v0-6.837 0h-2.229v0-.957 0h5.488v.957h-2.23v6.837z"/></g></g><g><g><path fill="#fff" d="M79.805 16.897V9.103h1.027v7.794z"/><path fill="none" stroke="#fff" stroke-miterlimit="20" stroke-width=".16" d="M79.805 16.897v0-7.794 0h1.027v7.794z"/></g></g><g><g><path fill="#fff" d="M85.384 16.897h-1.02V10.06h-2.237v-.957h5.494v.957h-2.237z"/><path fill="none" stroke="#fff" stroke-miterlimit="20" stroke-width=".16" d="M85.384 16.897v0h-1.02v0-6.837 0h-2.237v0-.957 0h5.494v.957h-2.237v0z"/></g></g><g><g><path fill="#fff" d="M98.01 15.894c-.787.788-1.762 1.181-2.926 1.181-1.17 0-2.145-.393-2.933-1.18-.785-.787-1.176-1.753-1.176-2.895 0-1.142.39-2.108 1.176-2.894.788-.788 1.763-1.182 2.933-1.182 1.157 0 2.132.394 2.92 1.188.792.793 1.183 1.752 1.183 2.888 0 1.142-.391 2.108-1.177 2.894zm-5.098-.653c.593.583 1.313.876 2.172.876.852 0 1.58-.293 2.165-.876.591-.584.89-1.333.89-2.241 0-.908-.299-1.657-.89-2.24-.585-.584-1.313-.877-2.165-.877-.859 0-1.58.293-2.172.876-.59.583-.89 1.333-.89 2.241 0 .908.3 1.657.89 2.24z"/><path fill="none" stroke="#fff" stroke-miterlimit="20" stroke-width=".16" d="M98.01 15.894c-.787.788-1.762 1.181-2.926 1.181-1.17 0-2.145-.393-2.933-1.18-.785-.787-1.176-1.753-1.176-2.895 0-1.142.39-2.108 1.176-2.894.788-.788 1.763-1.182 2.933-1.182 1.157 0 2.132.394 2.92 1.188.792.793 1.183 1.752 1.183 2.888 0 1.142-.391 2.108-1.177 2.894zm-5.098-.653c.593.583 1.313.876 2.172.876.852 0 1.58-.293 2.165-.876.591-.584.89-1.333.89-2.241 0-.908-.299-1.657-.89-2.24-.585-.584-1.313-.877-2.165-.877-.859 0-1.58.293-2.172.876-.59.583-.89 1.333-.89 2.241 0 .908.3 1.657.89 2.24z"/></g></g><g><g><path fill="#fff" d="M100.63 16.897V9.103h1.248l3.881 6.061h.045l-.045-1.498V9.103h1.027v7.794h-1.072l-4.064-6.36h-.045l.045 1.504v4.856h-1.02z"/><path fill="none" stroke="#fff" stroke-miterlimit="20" stroke-width=".16" d="M100.63 16.897v0-7.794 0h1.248v0l3.881 6.061v0h.045v0l-.045-1.498v0-4.563 0h1.027v7.794h-1.072v0l-4.064-6.36v0h-.045v0l.045 1.504v4.856h-1.02v0z"/></g></g><g><path fill="#fff" d="M96.41 33.808c0 3.18-2.554 5.528-5.688 5.528-3.128 0-5.682-2.348-5.682-5.528 0-3.206 2.554-5.53 5.682-5.53 3.134 0 5.689 2.324 5.689 5.53zm-2.49 0c0-1.994-1.482-3.352-3.198-3.352s-3.192 1.358-3.192 3.352c0 1.968 1.476 3.35 3.192 3.35 1.716 0 3.199-1.382 3.199-3.35zm-9.914 0c0 3.18-2.55 5.528-5.682 5.528-3.134 0-5.682-2.348-5.682-5.528 0-3.206 2.548-5.53 5.682-5.53 3.132 0 5.682 2.324 5.682 5.53zm-2.49 0c0-1.994-1.476-3.352-3.192-3.352-1.718 0-3.2 1.358-3.2 3.352 0 1.968 1.482 3.35 3.2 3.35 1.716 0 3.192-1.382 3.192-3.35zm-9.856-3.835c.083.42.13.921.13 1.467 0 1.759-.495 3.936-2.081 5.485-1.548 1.573-3.517 2.411-6.138 2.411-4.85 0-8.926-3.852-8.926-8.588 0-4.735 4.076-8.588 8.926-8.588 2.68 0 4.59 1.029 6.027 2.368l-1.696 1.656c-1.027-.946-2.419-1.676-4.331-1.676-3.537 0-6.307 2.787-6.307 6.24 0 3.453 2.77 6.24 6.307 6.24 2.295 0 3.602-.902 4.44-1.714.69-.673 1.139-1.638 1.307-2.951H63.57v-2.35zm52.238 1.822l.261.629-7.575 3.06c.58 1.111 1.484 1.675 2.743 1.675 1.269 0 2.146-.61 2.79-1.53l1.93 1.257a5.645 5.645 0 0 1-4.72 2.45c-3.217 0-5.617-2.43-5.617-5.528 0-3.289 2.425-5.53 5.338-5.53 2.94 0 4.382 2.28 4.85 3.517zm-7.723 1.84l5.065-2.05c-.28-.69-1.119-1.173-2.107-1.173a3.067 3.067 0 0 0-2.958 3.224zM110.02 22.75h2.49V39h-2.49zm-4.078 6.76v-.895h2.36v9.928c0 4.08-2.463 5.758-5.383 5.758-2.743 0-4.395-1.804-5.02-3.27l2.166-.882c.39.902 1.333 1.974 2.854 1.974 1.866 0 3.023-1.136 3.023-3.25v-.793h-.083c-.56.667-1.627 1.256-2.978 1.256-2.836 0-5.43-2.411-5.43-5.51 0-3.117 2.594-5.548 5.43-5.548 1.351 0 2.418.585 2.978 1.232zm.176 4.316c0-1.948-1.333-3.37-3.024-3.37-1.716 0-3.152 1.422-3.152 3.37 0 1.93 1.436 3.333 3.152 3.333 1.691 0 3.024-1.402 3.024-3.333zm29.438-11.076c2.751 0 5.463 1.948 5.463 5.046 0 3.098-2.705 5.047-5.463 5.047h-3.472V39H129.6V22.75zm.065 7.833c1.854 0 2.913-1.53 2.913-2.787a2.853 2.853 0 0 0-2.913-2.786h-3.537v5.573zm20.408 2.158v6.233h-2.398v-1.256h-.085c-.579.856-1.501 1.592-3.172 1.592-2.185 0-4.13-1.402-4.13-3.58 0-2.38 2.419-3.656 4.792-3.656 1.184 0 2.146.376 2.595.63v-.171c-.02-1.335-1.326-2.09-2.615-2.09-.922 0-1.794.292-2.268 1.194l-2.204-.902c.768-1.714 2.633-2.488 4.428-2.488 2.854 0 5.057 1.612 5.057 4.494zm-2.398 1.84c-.664-.31-1.177-.545-2.27-.545-1.222 0-2.633.482-2.633 1.74 0 .983 1.132 1.376 1.944 1.376 1.438 0 2.764-1.066 2.96-2.57zm11.136-5.978h2.763l-6.832 15.322h-2.595l2.53-5.477-4.434-9.845h2.678l2.951 7.045h.085zm-22.384-5.853h2.49V39h-2.49z"/></g><g><g><path fill="url(#s1aia)" d="M13.894 9.8c-.39.4-.617 1.022-.617 1.828v28.75c0 .806.226 1.428.617 1.828l.097.088 16.5-16.104v-.38l-16.5-16.104z"/></g></g><g><g><path fill="url(#s1aib)" d="M35.985 31.56l-5.494-5.37v-.38l5.501-5.37.123.07 6.515 3.618c1.859 1.027 1.859 2.717 0 3.75l-6.515 3.613-.13.07z"/></g></g><g><g><path fill="url(#s1aic)" d="M36.115 31.49L30.491 26 13.894 42.206c.618.634 1.625.71 2.77.077L36.115 31.49"/></g></g><g><g><path fill="url(#s1aid)" d="M36.115 20.51L16.664 9.716c-1.145-.627-2.152-.55-2.77.083L30.491 26z"/></g></g></g></g></svg>