<svg width="129" height="124" viewBox="0 0 129 124" fill="none" xmlns="http://www.w3.org/2000/svg">
<path d="M129 61.5127C129 95.4771 101.533 123.025 67.6125 123.025C33.7173 123 6.2251 95.4771 6.2251 61.5127C6.2251 27.5483 33.7173 0 67.6125 0C101.508 0 129 27.5483 129 61.5127Z" fill="#989897"/>
<path d="M122.749 61.5127C122.749 95.4771 95.2826 123.025 61.362 123.025C27.4922 123 0 95.4771 0 61.5127C0 27.5483 27.4922 0 61.3874 0C95.2826 0 122.749 27.5483 122.749 61.5127Z" fill="#D9D9D9"/>
<path d="M108.241 61.5127C108.241 87.4316 87.2534 108.462 61.3873 108.462C35.4959 108.462 14.5337 87.4316 14.5337 61.5127C14.5337 35.5939 35.4959 14.538 61.3873 14.538C87.2534 14.538 108.241 35.5684 108.241 61.5127Z" fill="#838382"/>
<path d="M108.241 61.5127C108.241 85.9803 88.4478 105.814 64.03 105.814C39.6122 105.814 19.8188 85.9803 19.8188 61.5127C19.8188 37.0451 39.6122 17.2113 64.03 17.2113C88.4478 17.1859 108.241 37.0197 108.241 61.5127Z" fill="#F2F2F2"/>
<path d="M16.0837 73.6065L3.32854 81.4993C1.1688 75.236 0 68.5144 0 61.4873C0 60.9526 0 60.4434 0.0254087 59.9342L15.9058 50.0809C14.9911 53.7473 14.5084 57.5409 14.5084 61.4618C14.5084 65.6883 15.0674 69.7365 16.0837 73.6065Z" fill="#F8F8F8"/>
<path d="M105.192 18.4334L92.4367 26.3262C86.5927 21.1322 79.4275 17.3895 71.5508 15.6327L87.4566 5.80493C94.1137 8.93658 100.11 13.2394 105.192 18.4334Z" fill="#F8F8F8"/>
<path d="M23.7317 89.4939L11.3577 97.1575C9.42659 94.4332 7.6988 91.5562 6.2251 88.5264L18.65 80.8373C20.0474 83.8926 21.7498 86.7951 23.7317 89.4939Z" fill="#838382"/>
<path d="M115.584 32.6149L103.21 40.304C101.685 37.2742 99.856 34.4481 97.7217 31.8766L110.147 24.1875C112.179 26.8354 113.983 29.6361 115.584 32.6149Z" fill="#838382"/>
<path d="M51.2241 107.342L35.3182 117.195C29.83 114.623 24.8245 111.263 20.3779 107.265L33.4126 99.1943C38.6214 103.064 44.6432 105.89 51.2241 107.342Z" fill="#C0C0C0"/>
<path d="M122.75 61.4873C122.75 62.0219 122.75 62.5312 122.724 63.0404L106.742 72.9445C107.708 69.2782 108.241 65.4337 108.241 61.4873C108.241 58.6866 107.987 55.9623 107.479 53.289L120.565 45.1925C121.987 50.3865 122.75 55.8605 122.75 61.4873Z" fill="#C0C0C0"/>
<path d="M46.3242 92V78.3591H36V71.7307L46.3242 71.2504V66.3512H36V59.8189L46.3242 59.3386V31H65.2678C68.425 31 71.3613 31.3522 74.0765 32.0567C76.8549 32.6971 79.2544 33.7538 81.275 35.2268C83.3588 36.6357 85.0006 38.4609 86.2004 40.7024C87.4001 42.9438 88 45.6016 88 48.6756C88 51.8137 87.3685 54.5034 86.1056 56.7449C84.9059 58.9864 83.2641 60.8116 81.1803 62.2205C79.0965 63.6294 76.6655 64.6861 73.8871 65.3906C71.1718 66.031 68.2987 66.3512 65.2678 66.3512H59.49V71.1543H81.6539V78.3591H59.49V92H46.3242ZM59.49 59.2425H64.6995C67.983 59.2425 70.5404 58.378 72.3716 56.6488C74.2028 54.9197 75.1184 52.5501 75.1184 49.5402C75.1184 46.0819 74.2028 43.6163 72.3716 42.1433C70.5404 40.6063 67.983 39.8378 64.6995 39.8378H59.49V59.2425Z" fill="#919191"/>
<path d="M49.3242 92V78.3591H39V71.7307L49.3242 71.2504V66.3512H39V59.8189L49.3242 59.3386V31H68.2678C71.425 31 74.3613 31.3522 77.0765 32.0567C79.8549 32.6971 82.2544 33.7538 84.275 35.2268C86.3588 36.6357 88.0006 38.4609 89.2004 40.7024C90.4001 42.9438 91 45.6016 91 48.6756C91 51.8137 90.3685 54.5034 89.1056 56.7449C87.9059 58.9864 86.2641 60.8116 84.1803 62.2205C82.0965 63.6294 79.6655 64.6861 76.8871 65.3906C74.1718 66.031 71.2987 66.3512 68.2678 66.3512H62.49V71.1543H84.6539V78.3591H62.49V92H49.3242ZM62.49 59.2425H67.6995C70.983 59.2425 73.5404 58.378 75.3716 56.6488C77.2028 54.9197 78.1184 52.5501 78.1184 49.5402C78.1184 46.0819 77.2028 43.6163 75.3716 42.1433C73.5404 40.6063 70.983 39.8378 67.6995 39.8378H62.49V59.2425Z" fill="#C9C9C9"/>
</svg>
