<svg xmlns="http://www.w3.org/2000/svg" width="120" height="41" viewBox="0 0 120 41"><g><g><g><g><path fill="#e6f2d6" d="M1.807 8.002A.49.49 0 0 1 1.7 7.86"/></g></g><g><path fill="#7eca1d" d="M7.925 30.428c-.93-.036-2.861-.107-3.326-.142a61.12 61.12 0 0 1-2.754-.177c-.072 0-.286-.036-.394-.177-.178-.177-.107-.46-.107-.567.072-.46.072-1.487 0-3.046 0-.106.036-.318.179-.496.215-.318.5-.46.608-.496.215-.106.393-.106.608-.141 0 0 .179-.036.358 0 1.037.035 2.54.39 2.54.39.464.106 1.18.283 2.11.495.107.036.357.142.536.39.322.39.286.85.286.956v2.48a.59.59 0 0 1-.25.424c-.143.106-.322.106-.394.106z"/></g><g><path d="M6.92 25.22c-1.538-.318-3.112-.637-4.65-.955-.5 0-.93-.425-.93-.921V16.72c0-.496.43-.921.93-.921h5.4c.502 0 .93.425.93.92 0 2.692-.035 5.349-.035 8.04 0 .107 0 .178-.036.213-.143.319-.787.425-1.61.248z"/></g><g><path d="M10.317.28H8.779V6.905c0 .07-.036.106-.036.177-.179.425-.608.85-1.18.885-.823.036-1.288-.779-1.36-.885a2.897 2.897 0 0 1-.214-.567V.21H4.272v6.587c-.036.071-.071.178-.107.248-.072.107-.537.957-1.36.886-.572-.036-.965-.46-1.144-.85V.21H.016v11.05c0 .177-.036.39 0 .602 0 .07 0 .106.036.177.357 1.7 2.825 3.117 5.15 3.046 2.325.07 4.793-1.346 5.15-3.046v-.07h.036V.28h-.071z"/></g><g><path fill="#65a217" d="M7.53 36.019H2.27a.995.995 0 0 1-1.001-.992v-2.585c0-.531.43-.992 1.001-.992H7.53a.995.995 0 0 1 1.002.992v2.585a.995.995 0 0 1-1.002.992z"/></g><g><path fill="#7eca1d" d="M7.67 40.87H2.553c-.107 0-.393 0-.715-.212-.358-.283-.393-.637-.429-.708v-2.125c0-.354.286-.673.68-.673 1.86-.07 3.72-.177 5.615-.248.036 0 .286-.07.536.106.18.107.215.284.25.354 0 1.417 0 2.48-.035 2.94 0 .07 0 .248-.143.425-.25.212-.644.142-.644.142z"/></g><g><path d="M18.37 25.606c-1.539-.141-3.077-.318-4.65-.46a.89.89 0 0 1-.43-.283c-.393-.425-.214-1.027-.178-1.063-.036-7.26-.072-14.485-.072-21.746C13.04.921 13.97 0 15.115 0h2.503c1.145 0 2.075.92 2.075 2.054v22.773a.94.94 0 0 1-.43.708c-.429.248-.858.107-.894.071z"/></g><g><path fill="#65a217" d="M18.578 31.168h-3.54c-.573 0-1.038-.46-1.038-1.027.036-.956.072-1.877.107-2.833 0-.036-.107-.425.18-.709.25-.283.643-.248.679-.248 1.216.071 2.432.142 3.612.248.572 0 1.038.46 1.038 1.027v2.515c.035.567-.43 1.027-1.038 1.027z"/></g><g><path fill="#7eca1d" d="M19.407 35.448a.613.613 0 0 1-.394.177c-.536.106-2.11.354-4.256.673-.107 0-.394 0-.572-.213a.735.735 0 0 1-.215-.53c.036-.922.072-1.63.072-2.126 0-.566 0-.85.178-1.133.358-.496 1.11-.496 1.431-.496 1.109.035 2.254.035 3.362.07.072 0 .18.036.322.143.143.106.179.247.215.318l.107 2.019c.036.354.036.85-.25 1.098z"/></g><g><path fill="#65a217" d="M18.69 40.624a1.25 1.25 0 0 1-.321.212c-.43.248-.716.142-1.681.142-.895 0-1.18.07-1.574-.142a1.252 1.252 0 0 1-.322-.248c-.25-.212-.572-.531-.68-1.027-.071-.248-.035-.319-.035-.992-.036-.956-.108-1.133 0-1.31.25-.39.858-.425 1.216-.46a109.3 109.3 0 0 0 3.934-.319c.072 0 .179 0 .25.07 0 0 .072.072.108.178.071.177.036 1.169-.036 2.48v.07a2.253 2.253 0 0 1-.25.673c-.18.354-.43.566-.609.673z"/></g><g><g><path fill="#7eca1d" d="M49.087 27.316c0 .984-.16 1.89-.398 2.717a7.529 7.529 0 0 1-1.153 2.165c-.477.63-1.073 1.142-1.75 1.614-.675.434-1.43.827-2.266 1.103-.835.276-1.71.512-2.624.63-.915.157-1.949.197-3.102.197H30.24c-.477 0-.875-.157-1.233-.433-.318-.276-.477-.748-.477-1.378V9.4c0-.63.16-1.102.477-1.378a1.876 1.876 0 0 1 1.233-.433h7.157c1.75 0 3.22.157 4.413.433a9.424 9.424 0 0 1 3.062 1.3 5.8 5.8 0 0 1 1.909 2.244c.437.905.676 1.968.676 3.189 0 .67-.08 1.338-.279 1.93-.159.59-.437 1.14-.755 1.653-.318.512-.756.945-1.233 1.3-.477.393-1.034.668-1.67.905.796.157 1.551.393 2.227.748a6.172 6.172 0 0 1 1.79 1.417 6.42 6.42 0 0 1 1.192 2.008c.239.788.358 1.654.358 2.599zm-8.152-11.497c0-.197.04-.748-.08-1.26 0-.079-.119-.512-.357-.866l-.04-.04c-.08-.078-.238-.314-.517-.472-.04-.04-.08-.04-.119-.079-.04-.039-.279-.118-.596-.236-.2-.04-.478-.118-.796-.118-1.113 0-2.186 0-3.3.04v5.669c1.869.04 3.3.04 3.897 0 .159 0 .397-.04.676-.197.119-.04.357-.197.596-.551.557-.63.596-1.417.636-1.89zm1.352 12.009c.16-.709.08-1.26.04-1.417-.04-.276-.12-.63-.358-1.064-.199-.315-.437-.511-.596-.669-.318-.275-.636-.433-.994-.59-.279-.118-.517-.237-.676-.276H35.17v6.103H39.9c.319-.04.597-.118.756-.197.12-.04.358-.158.636-.354.16-.119.318-.276.517-.512.318-.355.398-.749.477-1.024z"/></g><g><path fill="#7eca1d" d="M71.307 24.867c.04.119.159.867-.318 1.575-.438.63-1.114.827-1.273.827-3.737 0-7.435 0-11.173.04 0 .354.04.945.278 1.575.12.315.358.945.955 1.496.835.748 1.908.827 2.584.905.12 0 .597 0 1.511-.039 1.114-.04 1.71-.079 2.108-.158.437-.078 1.034-.196 1.71-.511.397-.197.715-.394 1.312-.512.596-.118.795 0 .914.079.199.118.279.354.358.551.12.276.12.472.12.59v.473c0 .394.039.394.039.905 0 .316 0 .591-.04.827 0 .237-.04.394-.08.59-.039.158-.079.277-.119.395-.04.118-.119.197-.238.315-.08.118-.358.236-.756.393-.437.158-.954.355-1.59.512-.636.158-1.392.315-2.227.433-.835.119-1.75.197-2.704.197-1.71 0-3.22-.197-4.533-.63-1.312-.433-2.386-1.102-3.26-1.968-.875-.867-1.511-1.97-1.949-3.308-.437-1.339-.636-2.914-.636-4.685 0-1.693.239-3.268.676-4.607a10.035 10.035 0 0 1 1.948-3.504 8.872 8.872 0 0 1 3.142-2.205c1.232-.512 2.624-.748 4.135-.748 1.63 0 3.022.236 4.175.709 1.153.472 2.107 1.142 2.823 1.968.756.827 1.272 1.85 1.63 2.993.358 1.141.517 2.402.517 3.74v.787h-.04zm-6.243-2.086c.04-.237.239-1.457-.596-2.441-.478-.591-1.114-.788-1.392-.906-.16-.04-.915-.315-1.869-.118-.278.04-.676.118-1.073.394-.637.393-.955.984-1.074 1.22-.398.788-.318 1.496-.278 1.85h6.282z"/></g></g><g><path d="M92.565 10.752a8.5 8.5 0 0 1-.053 1.073 2.33 2.33 0 0 1-.183.696 1.142 1.142 0 0 1-.274.377.557.557 0 0 1-.358.13h-9.455v7.393h8.869c.137 0 .259.037.358.109.106.065.198.188.281.355.084.174.137.399.175.681.039.283.061.638.061 1.066 0 .42-.022.775-.06 1.058a2.606 2.606 0 0 1-.176.703c-.083.181-.175.312-.281.392a.555.555 0 0 1-.358.116h-8.869v10.241c0 .153-.045.29-.137.406-.084.109-.243.203-.48.283-.228.08-.532.138-.898.181-.373.044-.852.065-1.431.065-.563 0-1.035-.021-1.416-.065-.38-.043-.685-.101-.906-.181a1.114 1.114 0 0 1-.48-.283.607.607 0 0 1-.144-.406V10.223c0-.623.167-1.073.503-1.348.335-.276.745-.413 1.24-.413h13.604c.13 0 .251.036.358.116.1.08.19.203.274.384.084.174.145.413.183.71.038.297.053.66.053 1.08zm10.049 24.478a.56.56 0 0 1-.137.37c-.084.108-.236.195-.457.268a4.63 4.63 0 0 1-.853.16c-.358.035-.814.05-1.362.05-.548 0-1.005-.015-1.363-.05a4.636 4.636 0 0 1-.853-.16c-.22-.073-.373-.16-.457-.269a.56.56 0 0 1-.137-.37V16.313a.56.56 0 0 1 .137-.37c.084-.109.236-.203.457-.275a3.93 3.93 0 0 1 .853-.182c.358-.043.815-.065 1.363-.065a11.7 11.7 0 0 1 1.362.065c.35.044.64.102.853.182.22.072.373.166.457.275a.56.56 0 0 1 .137.37zm.457-25.398c0 1.08-.229 1.819-.693 2.232-.465.413-1.317.616-2.573.616-1.264 0-2.124-.196-2.558-.594-.442-.399-.662-1.116-.662-2.146 0-1.08.228-1.826.685-2.247.449-.413 1.31-.623 2.58-.623 1.249 0 2.102.203 2.55.609.45.398.67 1.116.67 2.153zM120 33.367c0 .623-.038 1.102-.122 1.435-.083.333-.19.565-.327.696-.13.137-.327.26-.586.362a5.256 5.256 0 0 1-.921.275c-.343.08-.723.138-1.135.182-.41.043-.822.065-1.24.065-1.112 0-2.079-.138-2.9-.406-.815-.268-1.493-.681-2.033-1.24-.533-.558-.93-1.26-1.18-2.116-.252-.848-.38-1.856-.38-3.015v-9.706h-2.414c-.282 0-.503-.166-.647-.5-.152-.333-.229-.891-.229-1.674 0-.413.016-.761.054-1.044.037-.283.098-.508.175-.674a.755.755 0 0 1 .281-.348.691.691 0 0 1 .388-.109h2.39v-4.24c0-.138.039-.268.123-.384.083-.109.236-.203.449-.283.213-.08.51-.138.875-.174.366-.036.815-.05 1.355-.05.548 0 1.005.014 1.37.05.366.036.655.094.869.174.205.08.357.174.441.283a.612.612 0 0 1 .137.384v4.24h4.316c.153 0 .282.036.389.109a.802.802 0 0 1 .281.348c.076.166.13.391.168.674.038.283.053.63.053 1.044 0 .782-.076 1.34-.22 1.674-.153.334-.366.5-.648.5h-4.34V28.8c0 1.037.168 1.812.51 2.327.343.514.952.775 1.828.775.297 0 .563-.021.8-.072.235-.05.448-.109.63-.174a6.21 6.21 0 0 0 .473-.167.912.912 0 0 1 .343-.072c.091 0 .175.021.258.072.077.051.145.145.19.297.039.145.085.348.123.602.037.26.053.58.053.978z"/></g></g></g></svg>