<svg width="20" height="41" viewBox="0 0 20 41" fill="none" xmlns="http://www.w3.org/2000/svg">
<path fill-rule="evenodd" clip-rule="evenodd" d="M1.8329 8.00399C1.79656 7.96857 1.76022 7.93315 1.72388 7.8623L1.8329 8.00399Z" fill="#E6F2D6"/>
<path fill-rule="evenodd" clip-rule="evenodd" d="M8.04617 30.4231C7.10148 30.3877 5.13943 30.3169 4.66702 30.2815C3.83135 30.246 3.17724 30.2106 1.8693 30.1044C1.79662 30.1044 1.57859 30.0689 1.46957 29.9272C1.28787 29.7501 1.36055 29.4669 1.36055 29.3606C1.43323 28.9003 1.43323 27.8732 1.36055 26.3148C1.36055 26.2085 1.39689 25.9961 1.54225 25.8189C1.76028 25.5002 2.051 25.3585 2.15987 25.323C2.37791 25.2167 2.55961 25.2167 2.7775 25.1813C2.7775 25.1813 2.9592 25.1458 3.1409 25.1813C4.1946 25.2167 5.72072 25.5709 5.72072 25.5709C6.19299 25.6772 6.91979 25.8543 7.86447 26.0668C7.97349 26.1022 8.22787 26.2085 8.40942 26.4565C8.73633 26.8461 8.70014 27.3064 8.70014 27.4127C8.70014 28.2273 8.70014 29.0773 8.70014 29.8918C8.70014 29.9272 8.6638 30.1752 8.44576 30.3167C8.30055 30.423 8.11885 30.423 8.04617 30.423V30.4231Z" fill="#7ECA1D"/>
<path fill-rule="evenodd" clip-rule="evenodd" d="M7.02873 25.2167C5.46642 24.8981 3.86762 24.5791 2.3053 24.2605C1.79655 24.2605 1.36062 23.8355 1.36062 23.3396L1.36047 16.7167C1.36047 16.2208 1.7964 15.7959 2.30516 15.7959H7.79172C8.30047 15.7959 8.7364 16.2208 8.7364 16.7167C8.7364 19.4084 8.70006 22.0647 8.70006 24.7564C8.70006 24.8626 8.70006 24.9335 8.66372 24.9689C8.51822 25.2876 7.8644 25.3938 7.02873 25.2167Z" fill="black"/>
<path fill-rule="evenodd" clip-rule="evenodd" d="M10.4805 0.283734H8.91806V6.16292C8.91806 6.16292 8.91806 6.19835 8.91806 6.23377V6.90664C8.91806 6.97749 8.88172 7.01291 8.88172 7.08375C8.70002 7.50867 8.26409 7.93374 7.68265 7.96916C6.84699 8.00458 6.37472 7.19002 6.30189 7.08375C6.19287 6.87122 6.12019 6.65883 6.08385 6.51714L6.084 0.212891H4.33984V6.80038C4.3035 6.87122 4.26716 6.97749 4.23082 7.04833C4.15814 7.1546 3.68587 8.00458 2.85006 7.93374C2.26877 7.89831 1.86904 7.47339 1.68748 7.08375V0.212891H0.0161509V11.2628C0.0161509 11.4399 -0.0201887 11.6525 0.0161509 11.8649C0.0161509 11.9357 0.0161509 11.9711 0.0524906 12.042C0.415887 13.7421 2.92289 15.1587 5.28467 15.0878C7.64631 15.1587 10.1535 13.7419 10.5169 12.042C10.5169 12.0065 10.5169 11.9711 10.5169 11.9711L10.5532 11.9714V0.283876H10.4807L10.4805 0.283734Z" fill="black"/>
<path fill-rule="evenodd" clip-rule="evenodd" d="M7.64641 36.0191H2.30521C1.76026 36.0191 1.28784 35.5941 1.28784 35.0274V32.442C1.28784 31.9108 1.72377 31.4503 2.30521 31.4503L7.64641 31.4502C8.19136 31.4502 8.66377 31.8751 8.66377 32.4419V35.0272C8.66377 35.594 8.1915 36.0189 7.64641 36.0189V36.0191Z" fill="#65A217"/>
<path fill-rule="evenodd" clip-rule="evenodd" d="M7.79177 40.8708C6.04761 40.8708 4.34008 40.8708 2.59593 40.8708C2.48691 40.8708 2.19619 40.8708 1.86928 40.6583C1.50588 40.3749 1.46954 40.0207 1.43335 39.95C1.43335 39.2417 1.43335 38.5333 1.43335 37.825C1.43335 37.4707 1.72407 37.1521 2.12366 37.1521C4.01303 37.0812 5.9024 36.975 7.82811 36.9041C7.86445 36.9041 8.11883 36.8333 8.37306 37.0104C8.55476 37.1167 8.5911 37.2938 8.62744 37.3646C8.62744 38.7813 8.62744 39.8437 8.5911 40.3042C8.5911 40.3751 8.5911 40.5522 8.44574 40.7291C8.19136 40.9415 7.79162 40.8708 7.79162 40.8708H7.79177Z" fill="#7ECA1D"/>
<path fill-rule="evenodd" clip-rule="evenodd" d="M18.6556 25.6064C17.0932 25.4647 15.5308 25.2877 13.9321 25.146C13.8231 25.1106 13.6414 25.0398 13.4962 24.8626C13.0965 24.4377 13.2782 23.8356 13.3145 23.8001C13.2782 16.5398 13.2418 9.31469 13.2418 2.05433C13.2418 0.92111 14.1865 0.000141123 15.3492 0.000141123L17.8926 0C19.0551 0 20 0.920828 20 2.05419C20 9.63334 20 17.2479 20 24.8269C20 24.8624 19.9636 25.2873 19.564 25.5352C19.1281 25.7833 18.692 25.6416 18.6557 25.6062L18.6556 25.6064Z" fill="black"/>
<path fill-rule="evenodd" clip-rule="evenodd" d="M18.8735 31.1667H15.2765C14.6952 31.1667 14.2228 30.7064 14.2228 30.1396C14.2591 29.1834 14.2955 28.2626 14.3318 27.3063C14.3318 27.2709 14.2228 26.8814 14.5135 26.598C14.7679 26.3146 15.1676 26.35 15.2038 26.35C16.4392 26.4209 17.6746 26.4917 18.8737 26.598C19.455 26.598 19.9274 27.0583 19.9274 27.6251V30.1398C19.9637 30.7064 19.4914 31.1667 18.8737 31.1667H18.8735Z" fill="#65A217"/>
<path fill-rule="evenodd" clip-rule="evenodd" d="M19.7094 35.4521C19.564 35.5938 19.3825 35.6292 19.3097 35.6292C18.7647 35.7355 17.1659 35.9834 14.986 36.3021C14.877 36.3021 14.5862 36.3021 14.4047 36.0895C14.223 35.9124 14.1866 35.6999 14.1866 35.5584C14.223 34.6375 14.2593 33.9292 14.2593 33.4333C14.2593 32.8667 14.2593 32.5833 14.441 32.3001C14.8044 31.8042 15.5674 31.8042 15.8945 31.8042C17.0208 31.8396 18.1836 31.8396 19.31 31.875C19.3826 31.875 19.4917 31.9105 19.6369 32.0167C19.7822 32.123 19.8186 32.2647 19.8549 32.3354C19.8912 33.0083 19.9276 33.6813 19.9639 34.3542C20.0001 34.7085 20.0001 35.2043 19.7094 35.4522V35.4521Z" fill="#7ECA1D"/>
<path fill-rule="evenodd" clip-rule="evenodd" d="M18.9826 40.6232C18.9099 40.694 18.8009 40.7648 18.6556 40.8357C18.2197 41.0836 17.929 40.9774 16.948 40.9774C16.0396 40.9774 15.7489 41.0482 15.3492 40.8357C15.2038 40.7648 15.0948 40.6586 15.0223 40.5877C14.7679 40.3752 14.441 40.0565 14.332 39.5606C14.2593 39.3127 14.2956 39.242 14.2956 38.569C14.2593 37.6127 14.1866 37.4357 14.2956 37.2585C14.55 36.8689 15.1676 36.8336 15.531 36.7981C16.7301 36.7273 18.038 36.621 19.5278 36.4795C19.6005 36.4795 19.7095 36.4795 19.7822 36.5503C19.7822 36.5503 19.8549 36.6212 19.8912 36.7274C19.9639 36.9046 19.9275 37.8962 19.8549 39.2066C19.8549 39.242 19.8549 39.242 19.8549 39.2774C19.8185 39.4545 19.7458 39.7023 19.6005 39.9503C19.4186 40.3042 19.1644 40.5167 18.9826 40.623V40.6232Z" fill="#65A217"/>
</svg>
