<svg width="128" height="45" viewBox="0 0 128 45" fill="none" xmlns="http://www.w3.org/2000/svg">
<path d="M77.2781 12.7365C77.1459 12.3098 76.7962 12.0007 76.3736 11.936L68.5155 10.7323L64.9984 3.26791C64.6195 2.4662 63.3676 2.4662 62.9887 3.26791L59.4716 10.7334L51.6258 11.936C51.2033 12.0007 50.8524 12.311 50.7213 12.7365C50.5902 13.162 50.6989 13.6287 51.0049 13.9414L56.6808 19.7519L55.3459 27.9603C55.273 28.4011 55.4456 28.8467 55.792 29.1099C55.987 29.2581 56.2179 29.3333 56.4499 29.3333C56.6281 29.3333 56.8074 29.2886 56.9744 29.197L63.9952 25.3237L71.0284 29.1981C71.4061 29.405 71.8646 29.3732 72.2086 29.1076C72.5538 28.8443 72.7253 28.3988 72.6536 27.9568L71.3086 19.7507L76.9945 13.9402C77.3005 13.6287 77.4104 13.1632 77.2781 12.7365ZM69.3191 18.4999C69.0558 18.7703 68.9347 19.1594 68.9975 19.5415L70.0578 26.0102L64.5142 22.9551C64.3506 22.8658 64.1723 22.8211 63.993 22.8211C63.8125 22.8211 63.6332 22.8658 63.4707 22.9563L57.9361 26.0091L58.9885 19.5392C59.0513 19.1595 58.9302 18.7692 58.6669 18.5001L54.1914 13.9191L60.3772 12.9693C60.7415 12.9153 61.0564 12.6743 61.2201 12.3287L63.993 6.44422L66.7659 12.3276C66.9296 12.6732 67.2445 12.9141 67.6088 12.9694L73.8025 13.9192L69.3191 18.4999Z" fill="#FF7B27"/>
<path d="M125.278 25.7365C125.146 25.3098 124.796 25.0007 124.374 24.936L116.515 23.7323L112.998 16.2679C112.62 15.4662 111.368 15.4662 110.989 16.2679L107.472 23.7334L99.6258 24.936C99.2033 25.0007 98.8524 25.311 98.7213 25.7365C98.5902 26.162 98.6989 26.6287 99.0049 26.9414L104.681 32.7519L103.346 40.9603C103.273 41.4011 103.446 41.8467 103.792 42.1099C103.987 42.2581 104.218 42.3333 104.45 42.3333C104.628 42.3333 104.807 42.2886 104.974 42.197L111.995 38.3237L119.028 42.1981C119.406 42.405 119.865 42.3732 120.209 42.1076C120.554 41.8443 120.725 41.3988 120.654 40.9568L119.309 32.7507L124.994 26.9402C125.301 26.6287 125.41 26.1632 125.278 25.7365ZM117.319 31.4999C117.056 31.7703 116.935 32.1594 116.997 32.5415L118.058 39.0102L112.514 35.9551C112.351 35.8658 112.172 35.8211 111.993 35.8211C111.813 35.8211 111.633 35.8658 111.471 35.9563L105.936 39.0091L106.989 32.5392C107.051 32.1595 106.93 31.7692 106.667 31.5001L102.191 26.9191L108.377 25.9693C108.741 25.9153 109.056 25.6743 109.22 25.3287L111.993 19.4442L114.766 25.3276C114.93 25.6732 115.245 25.9141 115.609 25.9694L121.802 26.9192L117.319 31.4999Z" fill="#FF7B27"/>
<path d="M29.2781 25.7365C29.1459 25.3098 28.7962 25.0007 28.3736 24.936L20.5155 23.7323L16.9984 16.2679C16.6195 15.4662 15.3676 15.4662 14.9887 16.2679L11.4716 23.7334L3.62583 24.936C3.20328 25.0007 2.85245 25.311 2.7213 25.7365C2.59016 26.162 2.69891 26.6287 3.00489 26.9414L8.68077 32.7519L7.34588 40.9603C7.27301 41.4011 7.44562 41.8467 7.79197 42.1099C7.98697 42.2581 8.21791 42.3333 8.44989 42.3333C8.62812 42.3333 8.80744 42.2886 8.97442 42.197L15.9952 38.3237L23.0284 42.1981C23.4061 42.405 23.8646 42.3732 24.2086 42.1076C24.5538 41.8443 24.7253 41.3988 24.6536 40.9568L23.3086 32.7507L28.9945 26.9402C29.3005 26.6287 29.4104 26.1632 29.2781 25.7365ZM21.3191 31.4999C21.0558 31.7703 20.9347 32.1594 20.9975 32.5415L22.0578 39.0102L16.5142 35.9551C16.3506 35.8658 16.1723 35.8211 15.993 35.8211C15.8125 35.8211 15.6332 35.8658 15.4707 35.9563L9.93608 39.0091L10.9885 32.5392C11.0513 32.1595 10.9302 31.7692 10.6669 31.5001L6.1914 26.9191L12.3772 25.9693C12.7415 25.9153 13.0564 25.6743 13.2201 25.3287L15.993 19.4442L18.7659 25.3276C18.9296 25.6732 19.2445 25.9141 19.6088 25.9694L25.8025 26.9192L21.3191 31.4999Z" fill="#FF7B27"/>
</svg>
