<svg width="80" height="80" viewBox="0 0 80 80" fill="none" xmlns="http://www.w3.org/2000/svg">
<path fill-rule="evenodd" clip-rule="evenodd" d="M17.5167 62.6483C13.9992 59.0083 10.6508 54.7733 8.85999 49.9957C7.53582 46.4607 7.24999 43.1416 7.45999 39.4082C7.51249 38.4982 7.58832 37.5882 7.66416 36.6782C7.68166 36.474 7.71666 36.2757 7.76332 36.0832C9.54249 28.8499 13.1942 22.2465 19.2958 17.8073C27.8125 11.6065 38.5751 11.379 48.4334 13.9048C50.4167 10.8773 53.3218 9.04566 57.0843 8.85899C58.4434 8.78899 59.7326 9.42483 60.5026 10.5507C61.2784 11.6765 61.4126 13.094 60.8643 14.3482C60.0826 16.1215 59.8901 17.9415 60.1934 19.814C65.0234 22.4449 67.771 26.7557 69.2001 31.9532C70.1568 31.9299 71.061 31.9357 72.041 32.3557C73.4701 32.9682 74.386 34.339 74.4093 35.8965C74.4501 38.6324 74.4851 41.3682 74.526 44.1099C74.526 44.2032 74.526 44.2966 74.5201 44.3841C74.4618 45.4399 74.0535 46.4082 73.2776 47.1316C71.971 48.3449 70.6176 48.2807 69.136 48.3449C66.6684 54.5283 62.4101 58.8741 57.9534 63.7449C57.2884 64.4741 57.1543 66.9474 57.2126 67.9216C57.2709 69.0066 56.8918 70.0391 56.1451 70.8266C55.3984 71.6141 54.3893 72.0516 53.3043 72.0516C50.7201 72.0516 48.1359 72.0516 45.5459 72.0516C43.4284 72.0516 41.6901 70.36 41.6317 68.2424C41.6317 68.1958 41.6259 68.1316 41.6259 68.0558C39.4034 68.5224 37.1576 68.4116 34.9292 67.9274C34.9175 68.0558 34.9059 68.1841 34.9059 68.2599C34.83 70.3658 33.1034 72.0341 30.9917 72.0341C28.3434 72.0341 25.695 72.0341 23.0467 72.0341C20.9875 72.0341 19.2842 70.4416 19.1442 68.3883C19.0042 66.3699 18.38 64.4741 17.5167 62.6599V62.6483ZM57.1659 28.8674C58.6359 28.8674 59.8318 30.0632 59.8318 31.5332C59.8318 33.0032 58.6359 34.199 57.1659 34.199C55.6959 34.199 54.5001 33.0032 54.5001 31.5332C54.5001 30.0632 55.6959 28.8674 57.1659 28.8674ZM23.0467 69.3566C25.695 69.3566 28.3434 69.3566 30.9917 69.3566C31.6625 69.3566 32.2167 68.8258 32.24 68.1549C32.2925 66.7549 32.6892 65.6408 33.8559 65.1566C34.1184 65.0458 34.3809 65.0341 34.655 65.1041C37.1517 65.7749 39.6309 65.9324 42.0809 65.1741C42.2501 65.1216 42.3959 65.1099 42.5709 65.1216C43.7201 65.2324 44.2509 66.3174 44.2976 68.1549C44.3151 68.8316 44.8692 69.3683 45.5459 69.3683C48.1301 69.3683 50.7142 69.3683 53.3043 69.3683C53.6601 69.3683 53.9634 69.2341 54.2084 68.9774C54.4534 68.7208 54.5701 68.4058 54.5468 68.0499C54.4301 65.9266 54.8093 63.2083 55.9876 61.9308C60.4268 57.0833 64.7143 52.7841 66.9601 46.5541C67.1293 46.0932 67.5143 45.7899 68.0043 45.7374C69.6085 45.5682 71.761 45.9999 71.866 44.2149C71.866 44.1857 71.866 44.1566 71.866 44.1274C71.8251 41.3916 71.7901 38.6557 71.7493 35.914C71.7435 35.4124 71.4576 34.9865 70.9968 34.7882C70.2501 34.4674 69.1126 34.6307 68.1035 34.6249C67.5201 34.6249 67.0243 34.234 66.8901 33.6624C65.6651 28.4357 63.1684 24.2299 58.3793 21.8557C58.0293 21.6807 57.8018 21.389 57.7143 21.004C57.1251 18.3148 57.3409 15.7307 58.4318 13.2515C58.6126 12.8432 58.5718 12.4057 58.3151 12.044C58.0643 11.6765 57.6676 11.484 57.2243 11.5073C54.0976 11.6648 51.7817 13.2515 50.1951 16.139C49.9151 16.6523 49.3317 16.8973 48.7659 16.7398C29.0142 11.2623 14.6292 19.3123 10.3533 36.7132C10.3358 36.7774 10.33 36.8357 10.3242 36.9057C9.7175 43.8882 9.29749 50.3691 19.5933 60.9566C19.6925 61.0558 19.7625 61.1549 19.8208 61.2833C20.8767 63.4649 21.635 65.7399 21.8042 68.1958C21.8509 68.8491 22.3934 69.3566 23.0467 69.3566Z" fill="#768668"/>
<path d="M24.2483 39.5134C32.6794 39.5134 39.5141 32.6787 39.5141 24.2476C39.5141 15.8164 32.6794 8.98169 24.2483 8.98169C15.8172 8.98169 8.98242 15.8164 8.98242 24.2476C8.98242 32.6787 15.8172 39.5134 24.2483 39.5134Z" fill="url(#paint0_linear)"/>
<path fill-rule="evenodd" clip-rule="evenodd" d="M24.2476 6.31592C34.1526 6.31592 42.1793 14.3426 42.1793 24.2476C42.1793 34.1526 34.1526 42.1793 24.2476 42.1793C14.3426 42.1793 6.31592 34.1526 6.31592 24.2476C6.31592 14.3426 14.3426 6.31592 24.2476 6.31592ZM25.1576 29.1535H22.7951C22.5734 29.1535 22.3926 29.3343 22.3926 29.556V31.0085C22.3926 31.2301 22.2118 31.411 21.9901 31.411H20.3159C20.0943 31.411 19.9134 31.2301 19.9134 31.0085V29.556C19.9134 29.3343 19.7326 29.1535 19.5109 29.1535H18.2976C18.0759 29.1535 17.8951 28.9726 17.8951 28.751V27.5376C17.8951 27.316 18.0759 27.1351 18.2976 27.1351H19.5109C19.7326 27.1351 19.9134 26.9543 19.9134 26.7326V26.511C19.9134 26.2893 19.7326 26.1085 19.5109 26.1085H18.2976C18.0759 26.1085 17.8951 25.9276 17.8951 25.706V24.4926C17.8951 24.271 18.0759 24.0901 18.2976 24.0901H19.5109C19.7326 24.0901 19.9134 23.9093 19.9134 23.6876V17.4809C19.9134 17.2593 20.0943 17.0784 20.3159 17.0784H25.3851C26.966 17.0784 28.226 17.4926 29.171 18.3151C30.116 19.1376 30.5885 20.2343 30.5885 21.5993C30.5885 22.9935 30.1393 24.0843 29.241 24.8776C28.3426 25.671 27.0943 26.0735 25.4959 26.0968H22.7893C22.5676 26.0968 22.3868 26.2776 22.3868 26.4993V26.721C22.3868 26.9426 22.5676 27.1235 22.7893 27.1235H25.1518C25.3734 27.1235 25.5543 27.3043 25.5543 27.526V28.7393C25.5543 28.961 25.3734 29.1418 25.1518 29.1418L25.1576 29.1535ZM22.7951 24.1018H25.3559C26.2426 24.1018 26.931 23.8918 27.3976 23.4835C27.8701 23.0693 28.1035 22.4568 28.1035 21.6401C28.1035 20.9051 27.8701 20.3043 27.4093 19.8434C26.9485 19.3768 26.3126 19.1376 25.5018 19.1143H22.7951C22.5734 19.1143 22.3926 19.2951 22.3926 19.5168V23.7051C22.3926 23.9268 22.5734 24.1076 22.7951 24.1076V24.1018ZM24.2476 8.98759C32.6768 8.98759 39.5135 15.8243 39.5135 24.2535C39.5135 32.6826 32.6768 39.5193 24.2476 39.5193C15.8184 39.5193 8.98176 32.6826 8.98176 24.2535C8.98176 15.8243 15.8184 8.98759 24.2476 8.98759Z" fill="#768668"/>
<defs>
<linearGradient id="paint0_linear" x1="8.98242" y1="8.98169" x2="43.4676" y2="14.4134" gradientUnits="userSpaceOnUse">
<stop stop-color="#E3EEFF"/>
<stop offset="0.526042" stop-color="#E4F6E4"/>
<stop offset="1" stop-color="#FFEEE4"/>
</linearGradient>
</defs>
</svg>
