<svg width="78" height="54" viewBox="0 0 78 54" fill="none" xmlns="http://www.w3.org/2000/svg">
<path d="M70.7387 44.4214H73.4044C75.5681 44.4214 77.3337 42.6558 77.3337 40.4921V28.1329C77.3683 26.5923 76.4163 25.1383 74.9623 24.5151L69.5443 22.161L64.9918 13.2983C63.8494 11.0654 61.5818 9.68057 59.0718 9.68057C59.0545 9.68057 59.0372 9.68057 59.0199 9.68057H50.867V7.06678C50.867 3.36247 47.8724 0.333252 44.2027 0.333252H7.29814C3.64577 0.333252 0.668479 3.36247 0.668479 7.06678V40.4748C0.633859 42.6385 2.36484 44.4214 4.52857 44.456H4.59781H5.94798V44.8888C5.94798 45.0099 5.94798 45.0792 5.93067 45.1484C5.93067 45.183 5.93067 45.2004 5.93067 45.235C5.91336 49.9433 9.72152 53.786 14.4298 53.8033C14.4471 53.8033 14.4471 53.8033 14.4644 53.8033C19.1554 53.8033 22.9809 49.9952 22.9982 45.3042V45.2177C22.9982 45.0965 22.9982 45.0619 22.9809 44.9061L22.9289 44.4387H53.6712V45.2177C53.6712 47.5026 54.5367 49.649 56.1465 51.2588C57.7563 52.8859 59.8854 53.7687 62.1703 53.786C62.1876 53.786 62.1876 53.786 62.2049 53.786C64.4725 53.786 66.6016 52.9032 68.2114 51.3107C69.8386 49.7009 70.7214 47.5718 70.7387 45.2869V44.4214ZM14.4817 51.2242C11.2102 51.2242 8.54445 48.5585 8.54445 45.2869C8.54445 42.0154 11.2102 39.3496 14.4817 39.3496C17.7533 39.3496 20.419 42.0154 20.419 45.2869C20.419 48.5585 17.7533 51.2242 14.4817 51.2242ZM48.2705 41.8942H22.3231L22.2019 41.6345C20.8344 38.6399 17.8225 36.7185 14.5163 36.7185C14.4817 36.7185 14.4644 36.7185 14.4298 36.7185C11.1236 36.7185 8.11171 38.6399 6.74423 41.6345L6.62306 41.8942H4.59781C3.83618 41.8942 3.26495 41.3056 3.26495 40.5094V31.1621H48.2705V41.8942ZM48.2705 28.5656H3.26495V7.08409C3.26495 4.79919 5.08249 2.94704 7.29814 2.94704H44.2027C45.2932 2.96435 46.3318 3.39709 47.0934 4.17604C47.8551 4.95498 48.2705 5.99357 48.2705 7.06678V28.5656ZM50.867 12.2944H59.0199C60.5778 12.277 61.9799 13.1079 62.6896 14.4754L66.4805 21.8148H50.867V12.2944ZM62.2222 51.2242C58.9507 51.2242 56.285 48.5585 56.285 45.2869C56.285 42.0154 58.9507 39.3496 62.2222 39.3496C65.4938 39.3496 68.1595 42.0154 68.1595 45.2869C68.1595 48.5585 65.4938 51.2242 62.2222 51.2242ZM69.9424 41.6518C67.9518 37.3936 62.8627 35.5415 58.6045 37.5321C56.787 38.3803 55.3329 39.8343 54.4847 41.6518L54.3636 41.8942H50.867V24.4112H68.3499L73.9583 26.8865C74.4603 27.1289 74.7719 27.6655 74.7546 28.2194V40.5094C74.7546 41.3056 74.1833 41.8942 73.4217 41.8942H70.0636L69.9424 41.6518Z" fill="#7ECA1D"/>
</svg>
