<svg width="80" height="80" viewBox="0 0 80 80" fill="none" xmlns="http://www.w3.org/2000/svg">
<path fill-rule="evenodd" clip-rule="evenodd" d="M70.648 19.6944C71.6077 20.8975 72.3381 22.2009 72.8108 23.5759C73.5126 25.3233 73.5985 28.546 73.1402 30.7517C72.8824 31.9548 72.4957 32.8858 72.2665 33.4014C73.9137 39.1163 71.6793 44.3155 67.5113 47.5811C67.8837 51.2048 67.1246 54.184 65.234 56.404C62.7847 59.2973 59.161 60.0564 57.5855 60.2426C55.1506 65.9145 50.4241 67.404 45.1103 65.184C45.1246 67.8624 44.5946 72.5889 41.286 76.2842C41.0569 76.5277 40.7561 76.671 40.4267 76.671H37.7912C37.3472 76.671 36.9462 76.4132 36.76 76.0121C36.5022 75.4678 30.7873 63.2934 33.6662 55.3155C29.9853 55.2152 26.4475 53.9262 23.5543 51.6345C23.5863 52.2342 23.6658 52.8892 23.7478 53.5652C24.032 55.9079 24.3467 58.5014 22.8238 59.9132C21.5204 61.1163 19.6155 61.1879 17.9827 60.0707C15.718 58.5232 16.3268 55.0859 16.751 52.6905C16.8097 52.3589 16.8649 52.0473 16.9084 51.7634C9.43187 52.6944 6.40973 43.8572 8.83031 39.7751C3.65973 34.6905 4.81989 30.4509 6.05166 27.572L6.1376 27.4001C6.14822 27.3576 6.16672 27.323 6.18726 27.2846C6.19441 27.2712 6.20181 27.2574 6.20921 27.2426C6.39541 26.9275 6.59593 26.6267 6.8251 26.3116C4.17536 21.098 4.64802 15.727 9.91885 12.977C10.2912 11.5303 11.5517 7.77774 14.8173 5.98737C17.023 4.76992 19.6298 4.69831 22.609 5.7582C26.204 2.82201 31.0452 3.32331 33.967 6.05899C39.3238 3.43789 42.8472 4.85586 44.4228 5.88711C48.3472 2.10586 53.2027 2.77904 57.1702 6.23086C61.2379 4.23998 66.122 3.63841 69.1012 7.09024C69.1155 7.11888 69.1441 7.16185 69.1728 7.1905C72.8681 12.6189 71.3928 17.8181 70.648 19.6944ZM29.7131 25.8103C29.4983 32.9001 25.3446 35.0199 19.8446 32.6423C19.6584 33.3871 19.4149 34.003 19.1858 34.5043C20.2457 34.9483 21.2053 35.5928 22.0217 36.3949C23.6402 35.0342 25.5452 35.3064 26.9918 36.8676C27.3642 35.8363 27.9657 34.9197 28.7248 34.3467C30.0425 33.3728 31.7899 32.8858 33.6949 32.9574C31.9332 28.9757 32.8212 25.0512 37.1467 24.4639C40.5842 23.9913 44.8095 22.5733 46.6428 19.6228C44.8381 19.2647 43.3772 18.7491 42.5751 18.4197C40.4123 19.9236 37.9918 20.654 35.4423 20.5538C34.5972 20.7686 29.8277 22.1436 29.7131 25.8103ZM23.6259 38.5004C25.7027 42.0954 25.7027 46.7074 24.3277 49.2855C24.3542 49.3003 24.4167 49.3534 24.5147 49.4367C25.3685 50.1625 28.9174 53.1795 34.8407 53.0382C36.6454 50.6606 40.0543 49.1853 44.0933 50.2165C44.2652 49.9158 44.4657 49.3428 44.3511 48.5981C43.9071 45.6762 39.51 43.2413 36.8173 42.0238C36.2444 41.766 35.9866 41.0785 36.2444 40.5056C36.5022 39.9327 37.1897 39.6749 37.7626 39.9327C41.4006 41.5798 43.9358 43.3845 45.3537 45.3324C46.8577 44.516 48.3329 43.585 49.4358 42.3246C50.4814 41.1072 51.4123 39.1449 50.8394 37.2973C50.3095 35.6072 48.2327 33.2009 45.1676 32.1553C42.9761 31.4105 42.8186 28.4027 44.8524 27.3858C49.5647 25.0225 51.5126 22.7022 51.0256 19.9665C50.3524 20.0095 49.6793 20.0095 49.0347 19.9665C48.648 20.8689 47.8889 21.9717 46.7001 23.003C43.9071 25.4379 40.1259 26.3832 37.4332 26.7556C36.3303 26.8988 35.6428 27.3428 35.3277 28.102C34.8694 29.2191 35.1558 31.4392 36.5738 33.4874C37.704 33.8559 38.2441 34.1296 42.3423 36.2063C43.0222 36.5508 43.8001 36.945 44.6949 37.3975C45.2535 37.6697 45.4827 38.3715 45.1962 38.9301C44.9097 39.4887 44.2079 39.7178 43.6493 39.4314C42.6857 38.9434 41.8448 38.5145 41.105 38.1372C36.7205 35.9009 35.8872 35.4759 34.1103 35.2921C32.5061 35.1202 31.0738 35.4496 30.0712 36.1944C28.5243 37.3402 28.2808 41.1072 30.859 43.671C32.2196 45.0173 34.1389 45.6046 36.6454 45.4613C37.2756 45.4184 37.8199 45.9053 37.8485 46.5356C37.8915 47.1658 37.4045 47.71 36.7743 47.7387C31.7327 48.0251 28.2665 45.7478 26.8199 41.1072C26.5907 40.3624 26.161 39.6605 25.6884 38.9301C25.4449 38.5577 24.4709 37.4548 23.7548 37.9561C23.7394 38.0229 23.7221 38.0877 23.705 38.1521C23.6744 38.2674 23.6443 38.3809 23.6259 38.5004ZM55.7522 18.6918C54.9644 19.1072 54.148 19.4079 53.3173 19.6085C54.2726 25.1977 48.1027 28.303 45.9416 29.3906L45.9123 29.4053C45.6832 29.5199 45.6975 29.8637 45.941 29.9496C49.7222 31.2387 52.329 34.2035 53.0595 36.5954C53.7613 38.9014 53.0452 41.6514 51.1832 43.7999C49.8368 45.3467 48.1324 46.421 46.428 47.3376C46.8004 48.5264 46.8004 49.8012 46.2847 50.947C46.9293 51.2335 47.5881 51.5772 48.2613 51.9783C48.8629 50.1736 50.0946 47.7673 54.3342 46.4926C53.8186 43.7712 53.9475 41.0069 55.5946 38.7582C55.6233 35.9509 54.2483 33.8741 53.0452 32.6137C51.6272 31.1241 52.2144 28.6606 54.148 27.9731C55.5087 27.4861 57.1988 26.6697 58.0725 25.4236C56.411 23.5902 55.7808 21.141 55.7522 18.6918ZM57.7288 36.753C58.0439 36.5382 58.3876 36.3376 58.76 36.1371C58.0582 33.3155 58.1584 30.3077 59.2613 27.5434C58.2444 28.5889 56.7834 29.4626 54.9215 30.1215C54.5491 30.2647 54.4488 30.7517 54.7209 31.0382C55.9097 32.2986 57.2561 34.2178 57.7288 36.753ZM70.1408 32.4991C70.3446 32.0544 70.6405 31.4086 70.9058 30.2217C71.4071 28.0303 70.648 24.3207 70.648 24.3207C70.1897 23.0173 69.4592 21.7712 68.4566 20.6397C68.1415 20.2816 68.0842 19.766 68.2991 19.3507C68.3011 19.3463 68.3041 19.34 68.3081 19.3317C68.5011 18.9287 70.9177 13.8841 67.3108 8.53685C64.0452 4.84154 57.6142 8.5655 57.5426 8.60847C57.0842 8.8806 56.497 8.79466 56.1246 8.40794C56.1246 8.40794 56.111 8.3957 56.0897 8.37516C55.7651 8.06293 53.2356 5.6293 50.2522 5.6293C48.2899 5.6293 46.6715 6.68919 45.3681 8.17878C44.9241 8.68008 44.1363 8.6944 43.678 8.20742C43.678 8.20742 42.8902 7.41966 41.372 7.04727C39.3238 6.54597 36.8746 7.04727 34.2821 8.46524C33.7952 8.72305 33.1936 8.60847 32.8498 8.1931C30.8446 5.77253 26.6194 5.08503 23.6545 7.90664C23.3251 8.20742 22.8524 8.30768 22.4371 8.13581C19.859 7.09024 17.6819 7.04727 15.9488 7.99258C13.0107 9.61267 12.1519 13.5886 12.0732 13.953C12.0698 13.9688 12.0673 13.9796 12.0673 13.9796C11.9957 14.3376 11.7665 14.6527 11.4228 14.8103C9.51781 15.6983 8.31468 16.9444 7.8277 18.5486C6.81078 21.9001 9.15973 25.7673 9.18838 25.8103C9.44619 26.2257 9.40322 26.7556 9.10244 27.128C8.94489 27.3142 8.81598 27.4861 8.68708 27.6723C6.52432 30.9952 6.65322 35.5355 11.0933 38.6007C11.7379 39.0447 11.8095 39.9613 11.2079 40.4626C9.03083 42.2387 10.7353 50.9327 17.4384 49.3428C17.9397 49.2139 18.4267 49.3428 18.7847 49.6723C19.5009 50.3454 19.3147 51.434 19.0139 53.0811C18.6988 54.8142 18.2261 57.4496 19.286 58.1658C19.5582 58.3663 20.5178 58.9249 21.2769 58.223C21.9501 57.6072 21.678 55.4014 21.4774 53.7973C21.4667 53.7137 21.4557 53.6289 21.4445 53.5431C21.2317 51.9082 20.9703 49.8994 21.9501 48.7699C24.0556 46.335 23.3108 37.727 17.2092 36.266C16.3928 36.0655 16.0491 35.0915 16.579 34.4327C17.6819 33.029 17.8537 30.7231 17.8537 30.7087C17.997 28.9327 17.6246 26.5981 15.9058 23.8481C15.5191 23.2465 15.7769 22.4444 16.4358 22.1723C16.4377 22.1684 16.4607 22.1565 16.501 22.1356C16.7595 22.0016 17.7289 21.4991 18.398 20.3962C19.0855 19.2504 19.1715 17.9327 18.928 16.615C18.7274 15.5694 19.9735 14.8246 20.8043 15.5408C21.9931 16.572 24.0412 17.4887 26.0751 17.5889C27.7631 17.6726 28.7407 17.3081 29.4429 17.0464C30.0633 16.8151 30.4687 16.664 30.9592 16.973C32.9501 18.2048 35.4853 18.2621 35.4996 18.2621C37.3329 18.3337 39.5243 17.8897 41.7157 16.1996C42.2373 15.7872 42.6767 15.9706 43.2513 16.2104C43.3553 16.2537 43.4636 16.299 43.5777 16.3428C46.9722 17.6606 51.441 18.3624 54.7209 16.615C55.4426 16.2314 55.8308 15.9009 56.1172 15.6571C56.4618 15.3637 56.6592 15.1957 57.1129 15.2113C57.8147 15.24 58.3303 15.8988 58.1871 16.5863C58.1871 16.5863 58.186 16.5938 58.1839 16.6059C58.1507 16.8008 57.8752 18.419 58.1584 20.253C58.4449 22.0577 59.161 23.4327 60.2926 24.4066C60.7542 24.7973 61.1376 24.9996 61.4438 25.1611C61.8784 25.3905 62.1574 25.5377 62.2834 26.0251C62.3981 26.4693 62.2403 26.7451 61.9698 27.2181C61.6995 27.6907 61.3165 28.3603 60.9801 29.5915C60.3642 31.8689 60.5074 34.1749 61.1949 36.3949C61.3668 36.9535 61.0946 37.5551 60.5647 37.7842C56.411 39.6033 55.7092 42.697 56.7978 47.0369C56.9553 47.6527 56.5686 48.2829 55.9384 48.4262C51.3795 49.4636 50.7227 51.6963 50.2657 53.25C50.0349 54.0344 49.8551 54.6458 49.2496 54.8428C48.6937 55.0203 48.3429 54.7777 47.8746 54.4539C47.7758 54.3856 47.6718 54.3137 47.5595 54.2413C44.967 52.5798 42.6037 51.9066 40.5126 52.2074C32.2053 53.4249 35.1702 66.602 38.5647 74.3507H39.9254C43.6207 69.8103 42.747 63.4796 42.7327 63.4079C42.5894 62.4197 43.6636 61.7322 44.4944 62.2764C44.523 62.3051 48.1897 64.6397 51.4553 63.5655C53.303 62.9639 54.7353 61.3454 55.7235 58.7387C55.8811 58.2947 56.2965 58.0082 56.7548 57.9939C56.7978 57.9939 61.0373 57.822 63.5009 54.8858C65.0478 53.0382 65.6064 50.4457 65.1623 47.1801C65.1051 46.7361 65.3056 46.3064 65.678 46.0629C65.9501 45.891 72.4814 41.5225 69.9462 33.6306C69.8141 33.2122 69.9265 32.9668 70.1408 32.4991ZM30.2717 19.2217C27.8941 20.1098 25.4592 20.1098 23.1675 19.3793C21.7016 18.8828 21.1053 19.688 20.9905 20.1527C20.5178 21.6137 19.5439 22.8454 18.4267 23.6475C19.5439 25.7244 20.217 27.9587 20.1597 30.279C21.4631 30.9236 23.8264 31.7686 25.3876 30.9236C26.648 30.2504 27.3212 28.503 27.4071 25.7387C27.4931 23.0746 29.1259 21.0408 31.4319 19.723C30.9449 19.5512 30.5582 19.365 30.2717 19.2217Z" fill="#FF6889"/>
<path fill-rule="evenodd" clip-rule="evenodd" d="M30.2718 19.2219C27.8942 20.1099 25.4593 20.1099 23.1676 19.3795C21.7017 18.883 21.1054 19.6882 20.9906 20.1529C20.5179 21.6139 19.5439 22.8456 18.4268 23.6477C19.5439 25.7245 20.2171 27.9589 20.1598 30.2792C21.4632 30.9237 23.8265 31.7688 25.3877 30.9237C26.6481 30.2506 27.3213 28.5032 27.4072 25.7389C27.4932 23.0748 29.126 21.0409 31.432 19.7232C30.945 19.5514 30.5583 19.3652 30.2718 19.2219Z" fill="url(#paint0_linear)"/>
<path d="M24.3278 49.2857C25.7028 46.7076 25.7028 42.0956 23.626 38.5005C23.6546 38.3144 23.7119 38.1425 23.7549 37.9563C24.471 37.455 25.445 38.5578 25.6885 38.9302C26.1611 39.6607 26.5908 40.3625 26.82 41.1073C28.2666 45.7479 31.7327 48.0253 36.7744 47.7388C37.4046 47.7102 37.8916 47.1659 37.8486 46.5357C37.82 45.9055 37.2757 45.4185 36.6455 45.4615C34.139 45.6047 32.2197 45.0175 30.8591 43.6711C28.2809 41.1073 28.5244 37.3404 30.0713 36.1946C31.0739 35.4498 32.5062 35.1203 34.1104 35.2922C36.1872 35.5071 36.9749 36.0513 43.6494 39.4315C44.208 39.718 44.9098 39.4888 45.1963 38.9302C45.4827 38.3716 45.2536 37.6698 44.695 37.3977C38.4072 34.218 37.8916 33.9172 36.5739 33.4875C35.1559 31.4394 34.8695 29.2193 35.3278 28.1021C35.6429 27.343 36.3304 26.899 37.4333 26.7558C40.126 26.3834 43.9072 25.4381 46.7002 23.0032C47.889 21.9719 48.6481 20.869 49.0348 19.9667C49.6794 20.0097 50.3525 20.0097 51.0257 19.9667C51.5127 22.7024 49.5648 25.0227 44.8525 27.386C42.8187 28.4029 42.9762 31.4107 45.1676 32.1555C48.2328 33.2011 50.3096 35.6073 50.8395 37.2974C51.4124 39.1451 50.4814 41.1073 49.4359 42.3248C48.333 43.5852 46.8577 44.5162 45.3538 45.3326C43.9359 43.3847 41.4007 41.58 37.7627 39.9328C37.1898 39.675 36.5023 39.9328 36.2445 40.5058C35.9867 41.0787 36.2445 41.7662 36.8174 42.024C39.5101 43.2414 43.9072 45.6763 44.3512 48.5982C44.4658 49.343 44.2653 49.9159 44.0934 50.2167C40.0544 49.1854 36.6455 50.6607 34.8408 53.0383C28.238 53.1959 24.5856 49.4289 24.3278 49.2857ZM58.7601 36.1373C58.3877 36.3378 58.044 36.5383 57.7288 36.7532C57.2562 34.218 55.9098 32.2987 54.721 31.0383C54.4489 30.7519 54.5492 30.2649 54.9216 30.1216C56.7835 29.4628 58.2445 28.5891 59.2614 27.5435C58.1585 30.3078 58.0583 33.3157 58.7601 36.1373Z" fill="url(#paint1_linear)"/>
<defs>
<linearGradient id="paint0_linear" x1="18.4268" y1="19.2219" x2="33.0581" y2="21.7077" gradientUnits="userSpaceOnUse">
<stop stop-color="#E3EEFF"/>
<stop offset="0.526042" stop-color="#E4F6E4"/>
<stop offset="1" stop-color="#FFEEE4"/>
</linearGradient>
<linearGradient id="paint1_linear" x1="18.4268" y1="18.8933" x2="64.074" y2="27.4906" gradientUnits="userSpaceOnUse">
<stop stop-color="#E3EEFF"/>
<stop offset="0.526042" stop-color="#E4F6E4"/>
<stop offset="1" stop-color="#FFEEE4"/>
</linearGradient>
</defs>
</svg>
