<svg width="69" height="74" viewBox="0 0 69 74" fill="none" xmlns="http://www.w3.org/2000/svg">
<path fill-rule="evenodd" clip-rule="evenodd" d="M65.648 16.6945C66.6077 17.8976 67.3381 19.201 67.8108 20.576C68.5126 22.3234 68.5985 25.5461 68.1402 27.7518C67.8824 28.9549 67.4957 29.8859 67.2665 30.4016C68.9137 36.1164 66.6793 41.3156 62.5113 44.5812C62.8837 48.2049 62.1246 51.1841 60.234 53.4042C57.7847 56.2974 54.161 57.0565 52.5855 57.2427C50.1506 62.9146 45.4241 64.4042 40.1103 62.1841C40.1246 64.8625 39.5946 69.5891 36.286 73.2844C36.0569 73.5279 35.7561 73.6711 35.4267 73.6711H32.7912C32.3472 73.6711 31.9462 73.4133 31.76 73.0122C31.5022 72.468 25.7873 60.2935 28.6662 52.3156C24.9853 52.2154 21.4475 50.9263 18.5543 48.6346C18.5863 49.2344 18.6658 49.8894 18.7478 50.5653C19.032 52.908 19.3467 55.5016 17.8238 56.9133C16.5204 58.1164 14.6155 58.188 12.9827 57.0708C10.718 55.5233 11.3268 52.0861 11.751 49.6907C11.8097 49.3591 11.8649 49.0474 11.9084 48.7635C4.43187 49.6945 1.40973 40.8573 3.83031 36.7753C-1.34027 31.6906 -0.18011 27.451 1.05166 24.5721L1.1376 24.4003C1.14822 24.3578 1.16672 24.3232 1.18726 24.2847C1.19441 24.2714 1.20181 24.2575 1.20921 24.2427C1.39541 23.9276 1.59593 23.6268 1.8251 23.3117C-0.824641 18.0982 -0.351984 12.7271 4.91885 9.97708C5.29125 8.53046 6.55166 4.77786 9.81729 2.98749C12.023 1.77005 14.6298 1.69843 17.609 2.75833C21.204 -0.177871 26.0452 0.323431 28.967 3.05911C34.3238 0.438015 37.8472 1.85598 39.4228 2.88723C43.3472 -0.894017 48.2027 -0.22084 52.1702 3.23098C56.2379 1.2401 61.122 0.638535 64.1012 4.09036C64.1155 4.119 64.1441 4.16197 64.1728 4.19062C67.8681 9.61901 66.3928 14.8182 65.648 16.6945ZM24.7131 22.8104C24.4983 29.9003 20.3446 32.0201 14.8446 29.6424C14.6584 30.3872 14.4149 31.0031 14.1858 31.5044C15.2457 31.9484 16.2053 32.593 17.0217 33.3951C18.6402 32.0344 20.5452 32.3065 21.9918 33.8677C22.3642 32.8365 22.9657 31.9198 23.7248 31.3469C25.0425 30.3729 26.7899 29.8859 28.6949 29.9575C26.9332 25.9758 27.8212 22.0513 32.1467 21.4641C35.5842 20.9914 39.8095 19.5734 41.6428 16.6229C39.8381 16.2648 38.3772 15.7492 37.5751 15.4198C35.4123 16.9237 32.9918 17.6542 30.4423 17.5539C29.5972 17.7687 24.8277 19.1437 24.7131 22.8104ZM18.6259 35.5005C20.7027 39.0956 20.7027 43.7075 19.3277 46.2857C19.3542 46.3004 19.4167 46.3535 19.5147 46.4368C20.3685 47.1627 23.9174 50.1796 29.8407 50.0383C31.6454 47.6607 35.0543 46.1854 39.0933 47.2167C39.2652 46.9159 39.4657 46.343 39.3511 45.5982C38.9071 42.6763 34.51 40.2414 31.8173 39.024C31.2444 38.7661 30.9866 38.0786 31.2444 37.5057C31.5022 36.9328 32.1897 36.675 32.7626 36.9328C36.4006 38.5799 38.9358 40.3846 40.3537 42.3325C41.8577 41.5161 43.3329 40.5851 44.4358 39.3247C45.4814 38.1073 46.4123 36.1451 45.8394 34.2974C45.3095 32.6073 43.2327 30.201 40.1676 29.1555C37.9761 28.4107 37.8186 25.4029 39.8524 24.3859C44.5647 22.0227 46.5126 19.7023 46.0256 16.9667C45.3524 17.0096 44.6793 17.0096 44.0347 16.9667C43.648 17.869 42.8889 18.9719 41.7001 20.0031C38.9071 22.438 35.1259 23.3833 32.4332 23.7557C31.3303 23.899 30.6428 24.343 30.3277 25.1021C29.8694 26.2193 30.1558 28.4393 31.5738 30.4875C32.704 30.856 33.2441 31.1297 37.3423 33.2064C38.0222 33.551 38.8001 33.9452 39.6949 34.3977C40.2535 34.6698 40.4827 35.3716 40.1962 35.9302C39.9097 36.4888 39.2079 36.718 38.6493 36.4315C37.6857 35.9435 36.8448 35.5146 36.105 35.1373C31.7205 32.901 30.8872 32.476 29.1103 32.2922C27.5061 32.1203 26.0738 32.4497 25.0712 33.1945C23.5243 34.3404 23.2808 38.1073 25.859 40.6711C27.2196 42.0174 29.1389 42.6047 31.6454 42.4615C32.2756 42.4185 32.8199 42.9055 32.8485 43.5357C32.8915 44.1659 32.4045 44.7102 31.7743 44.7388C26.7327 45.0253 23.2665 42.7479 21.8199 38.1073C21.5907 37.3625 21.161 36.6607 20.6884 35.9302C20.4449 35.5578 19.4709 34.4549 18.7548 34.9562C18.7394 35.023 18.7221 35.0879 18.705 35.1522C18.6744 35.2675 18.6443 35.3811 18.6259 35.5005ZM50.7522 15.6919C49.9644 16.1073 49.148 16.4081 48.3173 16.6086C49.2726 22.1978 43.1027 25.3031 40.9416 26.3908L40.9123 26.4055C40.6832 26.52 40.6975 26.8638 40.941 26.9497C44.7222 28.2388 47.329 31.2036 48.0595 33.5956C48.7613 35.9016 48.0452 38.6516 46.1832 40.8C44.8368 42.3469 43.1324 43.4211 41.428 44.3378C41.8004 45.5266 41.8004 46.8013 41.2847 47.9471C41.9293 48.2336 42.5881 48.5773 43.2613 48.9784C43.8629 47.1737 45.0946 44.7674 49.3342 43.4927C48.8186 40.7713 48.9475 38.007 50.5946 35.7583C50.6233 32.951 49.2483 30.8742 48.0452 29.6138C46.6272 28.1242 47.2144 25.6607 49.148 24.9732C50.5087 24.4862 52.1988 23.6698 53.0725 22.4237C51.411 20.5904 50.7808 18.1411 50.7522 15.6919ZM52.7288 33.7531C53.0439 33.5383 53.3876 33.3378 53.76 33.1372C53.0582 30.3156 53.1584 27.3078 54.2613 24.5435C53.2444 25.5891 51.7834 26.4628 49.9215 27.1216C49.5491 27.2648 49.4488 27.7518 49.7209 28.0383C50.9097 29.2987 52.2561 31.218 52.7288 33.7531ZM65.1408 29.4993C65.3446 29.0545 65.6405 28.4088 65.9058 27.2219C66.4071 25.0305 65.648 21.3208 65.648 21.3208C65.1897 20.0174 64.4592 18.7713 63.4566 17.6398C63.1415 17.2818 63.0842 16.7661 63.2991 16.3508C63.3011 16.3465 63.3041 16.3401 63.3081 16.3319C63.5011 15.9289 65.9177 10.8842 62.3108 5.53697C59.0452 1.84166 52.6142 5.56562 52.5426 5.60859C52.0842 5.88072 51.497 5.79479 51.1246 5.40807C51.1246 5.40807 51.111 5.39582 51.0897 5.37529C50.7651 5.06305 48.2356 2.62942 45.2522 2.62942C43.2899 2.62942 41.6715 3.68932 40.3681 5.1789C39.9241 5.6802 39.1363 5.69452 38.678 5.20755C38.678 5.20755 37.8902 4.41979 36.372 4.04739C34.3238 3.54609 31.8746 4.04739 29.2821 5.46536C28.7952 5.72317 28.1936 5.60859 27.8498 5.19322C25.8446 2.77265 21.6194 2.08515 18.6545 4.90676C18.3251 5.20755 17.8524 5.30781 17.4371 5.13593C14.859 4.09036 12.6819 4.04739 10.9488 4.9927C8.01066 6.6128 7.15194 10.5887 7.07323 10.9531C7.06983 10.9689 7.06729 10.9797 7.06729 10.9797C6.99567 11.3378 6.76651 11.6529 6.42276 11.8104C4.51781 12.6984 3.31468 13.9445 2.8277 15.5487C1.81078 18.9003 4.15973 22.7674 4.18838 22.8104C4.44619 23.2258 4.40322 23.7557 4.10244 24.1281C3.94489 24.3143 3.81598 24.4862 3.68708 24.6724C1.52432 27.9953 1.65322 32.5357 6.09333 35.6008C6.73786 36.0448 6.80948 36.9614 6.20791 37.4628C4.03083 39.2388 5.73526 47.9328 12.4384 46.343C12.9397 46.2141 13.4267 46.343 13.7847 46.6724C14.5009 47.3456 14.3147 48.4341 14.0139 50.0812C13.6988 51.8143 13.2261 54.4497 14.286 55.1659C14.5582 55.3664 15.5178 55.925 16.2769 55.2232C16.9501 54.6073 16.678 52.4016 16.4774 50.7974C16.4667 50.7138 16.4557 50.629 16.4445 50.5432C16.2317 48.9083 15.9703 46.8996 16.9501 45.77C19.0556 43.3351 18.3108 34.7271 12.2092 33.2661C11.3928 33.0656 11.0491 32.0917 11.579 31.4328C12.6819 30.0292 12.8537 27.7232 12.8537 27.7089C12.997 25.9328 12.6246 23.5982 10.9058 20.8482C10.5191 20.2466 10.7769 19.4445 11.4358 19.1724C11.4377 19.1685 11.4607 19.1566 11.501 19.1357C11.7595 19.0017 12.7289 18.4992 13.398 17.3963C14.0855 16.2505 14.1715 14.9328 13.928 13.6151C13.7274 12.5695 14.9735 11.8247 15.8043 12.5409C16.9931 13.5721 19.0412 14.4888 21.0751 14.5891C22.7631 14.6727 23.7407 14.3083 24.4429 14.0465C25.0633 13.8152 25.4687 13.6641 25.9592 13.9732C27.9501 15.2049 30.4853 15.2622 30.4996 15.2622C32.3329 15.3338 34.5243 14.8898 36.7157 13.1997C37.2373 12.7873 37.6767 12.9707 38.2513 13.2105C38.3553 13.2539 38.4636 13.2991 38.5777 13.343C41.9722 14.6607 46.441 15.3625 49.7209 13.6151C50.4426 13.2315 50.8308 12.9011 51.1172 12.6572C51.4618 12.3638 51.6592 12.1958 52.1129 12.2115C52.8147 12.2401 53.3303 12.899 53.1871 13.5865C53.1871 13.5865 53.186 13.5939 53.1839 13.606C53.1507 13.8009 52.8752 15.4191 53.1584 17.2531C53.4449 19.0578 54.161 20.4328 55.2926 21.4068C55.7542 21.7974 56.1376 21.9997 56.4438 22.1613C56.8784 22.3906 57.1574 22.5378 57.2834 23.0253C57.3981 23.4694 57.2403 23.7452 56.9698 24.2182C56.6995 24.6908 56.3165 25.3604 55.9801 26.5917C55.3642 28.869 55.5074 31.175 56.1949 33.3951C56.3668 33.9536 56.0946 34.5552 55.5647 34.7844C51.411 36.6034 50.7092 39.6971 51.7978 44.037C51.9553 44.6529 51.5686 45.2831 50.9384 45.4263C46.3795 46.4637 45.7227 48.6964 45.2657 50.2501C45.0349 51.0346 44.8551 51.6459 44.2496 51.843C43.6937 52.0204 43.3429 51.7778 42.8746 51.454C42.7758 51.3857 42.6718 51.3138 42.5595 51.2414C39.967 49.5799 37.6037 48.9068 35.5126 49.2075C27.2053 50.425 30.1702 63.6021 33.5647 71.3508H34.9254C38.6207 66.8104 37.747 60.4797 37.7327 60.4081C37.5894 59.4198 38.6636 58.7323 39.4944 59.2766C39.523 59.3052 43.1897 61.6398 46.4553 60.5656C48.303 59.9641 49.7353 58.3456 50.7235 55.7388C50.8811 55.2948 51.2965 55.0083 51.7548 54.994C51.7978 54.994 56.0373 54.8221 58.5009 51.8859C60.0478 50.0383 60.6064 47.4458 60.1623 44.1802C60.1051 43.7362 60.3056 43.3065 60.678 43.063C60.9501 42.8911 67.4814 38.5227 64.9462 30.6307C64.8141 30.2123 64.9265 29.9669 65.1408 29.4993ZM25.2717 16.2219C22.8941 17.1099 20.4592 17.1099 18.1675 16.3794C16.7016 15.8829 16.1053 16.6882 15.9905 17.1529C15.5178 18.6138 14.5439 19.8456 13.4267 20.6476C14.5439 22.7245 15.217 24.9589 15.1597 27.2792C16.4631 27.9237 18.8264 28.7687 20.3876 27.9237C21.648 27.2505 22.3212 25.5031 22.4071 22.7388C22.4931 20.0747 24.1259 18.0409 26.4319 16.7232C25.9449 16.5513 25.5582 16.3651 25.2717 16.2219Z" fill="#7ECA1D"/>
</svg>
