<svg width="48" height="48" viewBox="0 0 48 48" fill="none" xmlns="http://www.w3.org/2000/svg">
<path fill-rule="evenodd" clip-rule="evenodd" d="M33.0452 15.9419C30.979 15.6794 28.883 15.6993 26.9262 15.9359C20.7514 16.6817 14.6742 19.5911 10.677 24.4215C14.5429 28.534 19.596 31.6601 25.0747 33.0422C27.656 33.6925 30.4242 33.9649 33.1029 33.6627C31.0645 31.161 29.8634 28.0885 29.8634 24.7675C29.8634 21.4763 31.0426 18.4297 33.0452 15.9419Z" fill="url(#paint0_linear)"/>
<path fill-rule="evenodd" clip-rule="evenodd" d="M26.5224 30.5902C25.6832 28.7964 25.2198 26.8297 25.2198 24.7675C25.2198 21.8581 26.1405 19.1416 27.7374 16.8308L29.1275 17.1251C27.4729 19.3246 26.5184 21.9535 26.5184 24.7675C26.5184 26.597 26.9221 28.347 27.6579 29.9518L26.5224 30.5902ZM39.1403 23.2501C39.8582 23.2501 40.4408 23.8328 40.4408 24.5507C40.4408 25.2686 39.8582 25.8513 39.1403 25.8513C38.4224 25.8513 37.8397 25.2686 37.8397 24.5507C37.8397 23.8328 38.4224 23.2501 39.1403 23.2501ZM22.5133 15.4944C21.9564 13.826 21.8192 12.1814 21.7894 10.1052C25.7826 10.5268 29.1315 11.7558 31.9096 14.518C32.6454 14.5717 33.3692 14.6572 34.0812 14.7765H34.0832C34.1448 14.7865 34.2045 14.7984 34.2661 14.8084C34.4232 14.8362 34.5783 14.864 34.7334 14.8959C34.7891 14.9078 34.8468 14.9177 34.9025 14.9297C35.0795 14.9655 35.2565 15.0052 35.4315 15.045C35.4871 15.0569 35.5408 15.0709 35.5965 15.0848C35.7576 15.1226 35.9167 15.1643 36.0758 15.2061C36.1255 15.22 36.1752 15.2319 36.2229 15.2459C36.3959 15.2936 36.569 15.3433 36.74 15.393C36.7877 15.4069 36.8334 15.4209 36.8812 15.4368C37.0462 15.4865 37.2093 15.5402 37.3704 15.5939L37.5016 15.6376C37.6687 15.6953 37.8357 15.7549 38.0008 15.8186L38.1141 15.8603C38.2832 15.926 38.4522 15.9936 38.6192 16.0632L38.7266 16.1089C38.8897 16.1785 39.0508 16.2501 39.2099 16.3237C39.2377 16.3376 39.2675 16.3496 39.2954 16.3635C39.4684 16.445 39.6374 16.5285 39.8065 16.614L39.892 16.6578C40.0511 16.7393 40.2062 16.8228 40.3613 16.9103L40.4369 16.9521C40.6019 17.0456 40.767 17.143 40.9281 17.2424C40.9519 17.2564 40.9758 17.2723 40.9996 17.2862C41.1508 17.3797 41.3019 17.4771 41.4491 17.5765L41.5167 17.6223C41.6758 17.7297 41.8329 17.841 41.986 17.9544L42.0317 17.9882C42.1789 18.0976 42.3221 18.2089 42.4653 18.3223L42.5269 18.372C42.6761 18.4933 42.8232 18.6166 42.9684 18.7439L42.9923 18.7657C43.1335 18.891 43.2707 19.0183 43.4079 19.1496L43.4576 19.1993C43.5928 19.3305 43.7241 19.4638 43.8533 19.601L43.8752 19.6248C44.0085 19.766 44.1377 19.9112 44.263 20.0584L44.3048 20.1061C44.4261 20.2473 44.5434 20.3925 44.6567 20.5396L44.6846 20.5734C44.8039 20.7265 44.9193 20.8836 45.0306 21.0447L45.0604 21.0885C45.1678 21.2416 45.2712 21.3987 45.3727 21.5578L45.4005 21.6015C45.5059 21.7686 45.6053 21.9396 45.7028 22.1126L45.7227 22.1484C45.8161 22.3155 45.9056 22.4865 45.9931 22.6595L46.017 22.7072C46.1065 22.8882 46.192 23.0731 46.2735 23.2601L46.2835 23.2839C46.363 23.4669 46.4386 23.6538 46.5102 23.8427L46.53 23.8964C46.6036 24.0913 46.6732 24.2902 46.7369 24.491C46.6573 24.7138 46.5738 24.9345 46.4883 25.1513L46.4664 25.205C46.3829 25.4138 46.2954 25.6166 46.2059 25.8194L46.192 25.8493C46.1005 26.0541 46.0031 26.257 45.9056 26.4558L45.8818 26.5055C45.7863 26.6945 45.6889 26.8814 45.5874 27.0643L45.5636 27.1081C45.4602 27.297 45.3528 27.48 45.2414 27.6629L45.2096 27.7126C45.1042 27.8837 44.9988 28.0507 44.8874 28.2138L44.8477 28.2754C44.7323 28.4464 44.615 28.6155 44.4937 28.7785L44.4639 28.8183C44.3485 28.9754 44.2292 29.1285 44.1099 29.2777L44.0562 29.3433C43.9349 29.4925 43.8136 29.6376 43.6883 29.7808L43.6425 29.8345C43.5173 29.9757 43.39 30.1149 43.2587 30.2501L43.1891 30.3217C43.0658 30.449 42.9406 30.5743 42.8133 30.6956C42.7934 30.7155 42.7715 30.7354 42.7516 30.7553C42.6164 30.8845 42.4792 31.0078 42.338 31.1311C42.3082 31.157 42.2803 31.1808 42.2505 31.2067C42.1252 31.3141 41.9999 31.4195 41.8707 31.5229C41.8388 31.5487 41.809 31.5726 41.7772 31.5984C41.638 31.7098 41.4948 31.8172 41.3516 31.9226C41.3158 31.9484 41.282 31.9723 41.2462 31.9981C41.121 32.0876 40.9937 32.1771 40.8664 32.2626C40.8246 32.2905 40.7809 32.3203 40.7391 32.3482C40.6099 32.4337 40.4786 32.5172 40.3454 32.5987C40.2897 32.6325 40.234 32.6663 40.1763 32.7001C40.0511 32.7757 39.9258 32.8473 39.7985 32.9189C39.7468 32.9487 39.6931 32.9766 39.6414 33.0064C39.5161 33.074 39.3908 33.1396 39.2636 33.2053C39.1959 33.2411 39.1263 33.2749 39.0567 33.3087C38.9295 33.3703 38.8022 33.432 38.6749 33.4896C38.6133 33.5175 38.5516 33.5453 38.49 33.5732C38.3707 33.6268 38.2494 33.6786 38.128 33.7283C38.0465 33.7621 37.963 33.7959 37.8795 33.8277C37.7661 33.8734 37.6508 33.9172 37.5354 33.9589C37.4519 33.9888 37.3684 34.0186 37.2849 34.0484C37.1695 34.0882 37.0542 34.128 36.9369 34.1658C36.8474 34.1956 36.7579 34.2234 36.6684 34.2513C36.559 34.2851 36.4496 34.3169 36.3403 34.3487C36.2408 34.3766 36.1434 34.4044 36.044 34.4322C35.9286 34.4641 35.8133 34.4939 35.6979 34.5217C35.6045 34.5456 35.509 34.5675 35.4136 34.5893C35.3102 34.6132 35.2048 34.6371 35.1013 34.6589C34.988 34.6828 34.8746 34.7067 34.7613 34.7286C34.6479 34.7504 34.5326 34.7723 34.4173 34.7922C34.3298 34.8081 34.2423 34.822 34.1548 34.8359H34.1528C32.18 35.1521 30.094 35.172 27.9701 34.9115C26.2519 36.1723 24.2633 36.7868 21.9743 37.0294C21.9922 35.7169 22.0718 34.649 22.3701 33.593C18.2397 32.1572 14.1948 29.7112 10.7425 26.3504C10.5019 30.5783 6.9283 34.3249 1.54108 33.0044C0.467216 28.8919 2.6587 26.0998 5.66552 24.7933C2.30472 23.441 0.608409 19.5831 1.49733 15.9916C5.58796 15.6953 10.3567 17.9504 10.7306 22.4109C13.9502 19.0362 18.1303 16.7294 22.5133 15.5024V15.4944ZM29.8832 14.4484C27.9204 12.8873 25.6851 12.0322 23.1377 11.5987C23.2093 12.8297 23.3763 13.989 23.778 15.1703C25.8104 14.701 27.8707 14.4584 29.8832 14.4484ZM26.0172 34.5854C25.2158 34.4243 24.4124 34.2234 23.611 33.9848C23.4738 34.4859 23.3942 34.9851 23.3465 35.4982C24.303 35.3013 25.19 35.0089 26.0172 34.5854ZM45.3548 24.4632L45.3488 24.4473C45.3269 24.3837 45.3031 24.322 45.2792 24.2584L45.2653 24.2206C45.2434 24.1649 45.2215 24.1092 45.1996 24.0535L45.1778 23.9998C45.1579 23.9481 45.136 23.8984 45.1141 23.8467L45.0823 23.7731C45.0644 23.7314 45.0465 23.6916 45.0286 23.6498C45.0127 23.614 44.9968 23.5802 44.9809 23.5444L44.9391 23.453L45.3568 24.4612L45.3548 24.4632ZM44.8477 23.268C44.8178 23.2104 44.79 23.1507 44.7602 23.093L44.7582 23.089C44.7264 23.0274 44.6945 22.9658 44.6607 22.9041L44.6587 22.8981C44.3783 22.3811 44.0602 21.8859 43.7022 21.4146L43.6923 21.4027C43.6525 21.351 43.6127 21.2993 43.571 21.2476L43.557 21.2297C43.5173 21.18 43.4775 21.1283 43.4357 21.0785L43.4337 21.0765L43.388 21.0209L43.386 21.0189C43.3582 20.9851 43.3303 20.9532 43.3025 20.9194L43.2448 20.8538C43.215 20.82 43.1852 20.7842 43.1533 20.7504L43.0937 20.6828L43.0121 20.5933L43.0002 20.5814C42.9465 20.5217 42.8908 20.464 42.8352 20.4064L42.8053 20.3746C42.7596 20.3268 42.7119 20.2791 42.6641 20.2314L42.6144 20.1817C42.5806 20.1479 42.5448 20.114 42.511 20.0802C40.6178 18.2547 38.14 17.0515 35.4812 16.3873C35.1709 16.3118 34.8587 16.2422 34.5445 16.1785C32.4187 18.553 31.1638 21.5339 31.1638 24.7615C31.1638 28.0248 32.4465 31.0356 34.6141 33.42C35.9525 33.1535 37.2013 32.7439 38.3508 32.193L38.3826 32.1771C38.4323 32.1533 38.48 32.1294 38.5298 32.1055L38.6013 32.0697C38.6391 32.0499 38.6789 32.03 38.7167 32.0101L38.8181 31.9584L38.9076 31.9107C38.9494 31.8888 38.9911 31.8669 39.0329 31.843L39.1025 31.8053C39.1502 31.7794 39.1959 31.7535 39.2417 31.7257L39.2994 31.6919C39.3471 31.6641 39.3968 31.6362 39.4445 31.6064L39.5022 31.5726C39.5479 31.5467 39.5917 31.5189 39.6354 31.491L39.721 31.4393L39.7667 31.4115C42.1451 29.916 43.9925 27.7325 45.1698 24.9186L45.1778 24.9027C45.2056 24.8351 45.2335 24.7655 45.2613 24.6979L45.2732 24.668C45.3011 24.6004 45.3269 24.5308 45.3528 24.4632L45.3548 24.4592L44.8477 23.264V23.268ZM33.0451 15.9399C30.9789 15.6774 28.8829 15.6973 26.926 15.9339C20.7513 16.6797 14.674 19.589 10.6769 24.4194C14.5428 28.532 19.5959 31.6581 25.0746 33.0402C27.6559 33.6905 30.4241 33.9629 33.1028 33.6607C31.0644 31.1589 29.8633 28.0865 29.8633 24.7655C29.8633 21.4743 31.0425 18.4277 33.0451 15.9399ZM44.8854 23.3456L44.8536 23.2819L44.8477 23.268L44.8854 23.3456ZM2.63881 31.8868C2.42205 30.4609 2.66864 29.0788 3.60728 27.8856C4.92972 26.2013 7.26438 25.3342 9.42802 25.2427C9.58711 26.9271 9.10984 28.6712 8.02205 29.9797C6.63796 31.6442 4.67319 32.1791 2.6408 31.8868H2.63881ZM9.38427 23.9084C9.60103 22.4825 9.35444 21.1004 8.4158 19.9072C7.09336 18.2228 4.7587 17.3558 2.59506 17.2643C2.43597 18.9487 2.91324 20.6927 4.00103 22.0013C5.38512 23.6658 7.34989 24.2007 9.38228 23.9084H9.38427Z" fill="#7ECA1D"/>
<defs>
<linearGradient id="paint0_linear" x1="10.677" y1="15.7517" x2="35.6761" y2="20.6482" gradientUnits="userSpaceOnUse">
<stop stop-color="#E3EEFF"/>
<stop offset="0.526042" stop-color="#E4F6E4"/>
<stop offset="1" stop-color="#FFEEE4"/>
</linearGradient>
</defs>
</svg>
