<svg width="80" height="80" viewBox="0 0 80 80" fill="none" xmlns="http://www.w3.org/2000/svg">
<path fill-rule="evenodd" clip-rule="evenodd" d="M55.0753 26.5697C51.6316 26.1322 48.1382 26.1653 44.8769 26.5597C34.5857 27.8026 24.4569 32.6516 17.7949 40.7023C24.2381 47.5564 32.66 52.7667 41.7912 55.0702C46.0932 56.154 50.7069 56.6081 55.1714 56.1043C51.7741 51.9348 49.7722 46.814 49.7722 41.279C49.7722 35.7937 51.7377 30.716 55.0753 26.5697Z" fill="url(#paint0_linear)"/>
<path fill-rule="evenodd" clip-rule="evenodd" d="M44.2041 50.9837C42.8054 47.9941 42.0332 44.7161 42.0332 41.2791C42.0332 36.4301 43.5677 31.9027 46.2292 28.0513L48.546 28.5419C45.7884 32.2076 44.1975 36.5892 44.1975 41.2791C44.1975 44.3283 44.8703 47.245 46.0966 49.9197L44.2041 50.9837ZM65.2339 38.7502C66.4304 38.7502 67.4016 39.7213 67.4016 40.9178C67.4016 42.1143 66.4304 43.0854 65.2339 43.0854C64.0374 43.0854 63.0663 42.1143 63.0663 40.9178C63.0663 39.7213 64.0374 38.7502 65.2339 38.7502ZM37.5223 25.8241C36.5942 23.0433 36.3655 20.3023 36.3158 16.842C42.9711 17.5447 48.5526 19.593 53.1828 24.1967C54.4091 24.2862 55.6156 24.4287 56.8021 24.6276H56.8054C56.9082 24.6441 57.0076 24.664 57.1104 24.6806C57.3722 24.727 57.6307 24.7734 57.8892 24.8264C57.982 24.8463 58.0782 24.8629 58.171 24.8828C58.4659 24.9424 58.7609 25.0087 59.0526 25.075C59.1454 25.0949 59.2349 25.1181 59.3277 25.1413C59.5962 25.2043 59.8613 25.2739 60.1265 25.3435C60.2093 25.3667 60.2922 25.3866 60.3717 25.4098C60.6601 25.4893 60.9484 25.5722 61.2335 25.655C61.313 25.6782 61.3892 25.7014 61.4688 25.7279C61.7439 25.8108 62.0157 25.9003 62.2841 25.9898L62.5029 26.0627C62.7813 26.1588 63.0597 26.2582 63.3348 26.3643L63.5237 26.4339C63.8054 26.5433 64.0872 26.656 64.3656 26.772L64.5446 26.8482C64.8163 26.9642 65.0848 27.0835 65.3499 27.2062C65.3963 27.2294 65.4461 27.2493 65.4925 27.2725C65.7808 27.4083 66.0625 27.5475 66.3443 27.6901L66.4868 27.763C66.7519 27.8989 67.0105 28.0381 67.269 28.1839L67.3949 28.2535C67.67 28.4093 67.9451 28.5717 68.2136 28.7374C68.2534 28.7606 68.2931 28.7871 68.3329 28.8103C68.5848 28.9661 68.8367 29.1285 69.082 29.2942L69.1946 29.3705C69.4598 29.5494 69.7216 29.7351 69.9768 29.924L70.0531 29.9803C70.2983 30.1626 70.537 30.3482 70.7756 30.5371L70.8784 30.62C71.1269 30.8222 71.3722 31.0277 71.6142 31.2398L71.6539 31.2762C71.8893 31.4851 72.1179 31.6972 72.3466 31.9159L72.4295 31.9988C72.6549 32.2175 72.8736 32.4396 73.0891 32.6683L73.1255 32.7081C73.3476 32.9434 73.563 33.1853 73.7718 33.4306L73.8414 33.5102C74.0436 33.7455 74.2392 33.9874 74.4281 34.2327L74.4745 34.289C74.6733 34.5442 74.8656 34.8061 75.0512 35.0745L75.1009 35.1475C75.2799 35.4027 75.4522 35.6645 75.6213 35.9297L75.6677 36.0026C75.8433 36.281 76.009 36.566 76.1715 36.8544L76.2046 36.914C76.3604 37.1924 76.5095 37.4775 76.6554 37.7658L76.6951 37.8454C76.8443 38.147 76.9868 38.4552 77.1227 38.7668L77.1393 38.8066C77.2718 39.1115 77.3978 39.423 77.5171 39.7379L77.5502 39.8274C77.6729 40.1522 77.7889 40.4836 77.8949 40.8184C77.7624 41.1896 77.6232 41.5575 77.4806 41.9188L77.4442 42.0083C77.305 42.3563 77.1591 42.6943 77.01 43.0324L76.9868 43.0821C76.8343 43.4235 76.6719 43.7616 76.5095 44.093L76.4697 44.1759C76.3107 44.4908 76.1483 44.8023 75.9792 45.1072L75.9394 45.1801C75.7671 45.495 75.5881 45.7999 75.4025 46.1049L75.3495 46.1877C75.1738 46.4728 74.9982 46.7512 74.8126 47.023L74.7463 47.1257C74.554 47.4107 74.3585 47.6925 74.1563 47.9642L74.1066 48.0305C73.9143 48.2924 73.7155 48.5476 73.5166 48.7962L73.4271 48.9055C73.225 49.1541 73.0228 49.3961 72.814 49.6347L72.7377 49.7242C72.5289 49.9595 72.3168 50.1915 72.0981 50.4169L71.9821 50.5362C71.7766 50.7483 71.5678 50.9571 71.3556 51.1593C71.3225 51.1925 71.286 51.2256 71.2529 51.2588C71.0275 51.4742 70.7988 51.6797 70.5635 51.8852C70.5138 51.9283 70.4674 51.968 70.4177 52.0111C70.2089 52.1901 70 52.3658 69.7846 52.5381C69.7316 52.5812 69.6819 52.621 69.6288 52.6641C69.3968 52.8497 69.1582 53.0286 68.9196 53.2043C68.8599 53.2474 68.8036 53.2872 68.7439 53.3302C68.5351 53.4794 68.323 53.6285 68.1108 53.7711C68.0412 53.8175 67.9683 53.8672 67.8987 53.9136C67.6833 54.0561 67.4645 54.1953 67.2425 54.3312C67.1497 54.3875 67.0569 54.4439 66.9607 54.5002C66.7519 54.6262 66.5431 54.7455 66.331 54.8648C66.2448 54.9145 66.1553 54.9609 66.0692 55.0107C65.8604 55.1233 65.6516 55.2327 65.4394 55.3421C65.3267 55.4018 65.2107 55.4581 65.0947 55.5144C64.8826 55.6172 64.6705 55.7199 64.4584 55.816C64.3556 55.8624 64.2529 55.9089 64.1501 55.9553C63.9513 56.0447 63.7491 56.1309 63.5469 56.2138C63.411 56.2701 63.2718 56.3265 63.1326 56.3795C62.9437 56.4557 62.7515 56.5286 62.5592 56.5982C62.42 56.648 62.2808 56.6977 62.1416 56.7474C61.9494 56.8137 61.7571 56.88 61.5616 56.9429C61.4124 56.9927 61.2633 57.0391 61.1141 57.0855C60.9319 57.1418 60.7496 57.1948 60.5673 57.2479C60.4016 57.2943 60.2391 57.3407 60.0734 57.3871C59.8812 57.4401 59.689 57.4898 59.4967 57.5362C59.3409 57.576 59.1819 57.6125 59.0228 57.6489C58.8504 57.6887 58.6747 57.7285 58.5024 57.7649C58.3135 57.8047 58.1246 57.8445 57.9356 57.8809C57.7467 57.9174 57.5545 57.9538 57.3623 57.987C57.2164 58.0135 57.0706 58.0367 56.9247 58.0599H56.9214C53.6336 58.5869 50.1567 58.62 46.617 58.1858C43.7533 60.2872 40.4389 61.3113 36.6241 61.7157C36.6539 59.5282 36.7865 57.7483 37.2836 55.9884C30.3996 53.5954 23.6581 49.5187 17.9043 43.9174C17.5033 50.9638 11.5473 57.2081 2.56863 55.0073C0.778856 48.1532 4.43132 43.4997 9.44269 41.3222C3.84136 39.0684 1.01418 32.6385 2.49571 26.6527C9.31343 26.1588 17.2614 29.9173 17.8845 37.3515C23.2505 31.727 30.2173 27.8823 37.5223 25.8373V25.8241ZM49.8054 24.0807C46.5341 21.4789 42.8087 20.0537 38.563 19.3312C38.6823 21.3828 38.9607 23.3151 39.6302 25.2838C43.0175 24.5016 46.4513 24.0973 49.8054 24.0807ZM43.3622 57.6423C42.0265 57.3738 40.6875 57.0391 39.3518 56.6413C39.1231 57.4766 38.9905 58.3085 38.911 59.1636C40.5052 58.8355 41.9834 58.3483 43.3622 57.6423ZM75.5914 40.772L75.5815 40.7455C75.545 40.6394 75.5053 40.5367 75.4655 40.4306L75.4423 40.3676C75.4058 40.2748 75.3694 40.182 75.3329 40.0892L75.2965 39.9997C75.2633 39.9136 75.2269 39.8307 75.1904 39.7445L75.1374 39.6219C75.1075 39.5523 75.0777 39.486 75.0479 39.4164C75.0214 39.3567 74.9948 39.3004 74.9683 39.2407L74.8987 39.0883L75.5947 40.7687L75.5914 40.772ZM74.7463 38.78C74.6965 38.6839 74.6501 38.5845 74.6004 38.4884L74.5971 38.4817C74.5441 38.379 74.4911 38.2763 74.4347 38.1735L74.4314 38.1636C73.9641 37.3018 73.4338 36.4765 72.8372 35.691L72.8206 35.6711C72.7543 35.585 72.688 35.4988 72.6184 35.4126L72.5952 35.3828C72.5289 35.2999 72.4626 35.2138 72.393 35.1309L72.3897 35.1276L72.3135 35.0348L72.3102 35.0315C72.2638 34.9751 72.2174 34.9221 72.171 34.8657L72.0749 34.7564C72.0251 34.7 71.9754 34.6404 71.9224 34.584L71.823 34.4713L71.6871 34.3222L71.6672 34.3023C71.5777 34.2029 71.4849 34.1067 71.3921 34.0106L71.3424 33.9576C71.2661 33.878 71.1866 33.7985 71.1071 33.719L71.0242 33.6361C70.9678 33.5798 70.9082 33.5234 70.8518 33.4671C67.6965 30.4244 63.5668 28.4192 59.1355 27.3122C58.6184 27.1863 58.098 27.0703 57.5744 26.9642C54.0313 30.9216 51.9399 35.8899 51.9399 41.2692C51.9399 46.7081 54.0777 51.7261 57.6904 55.7C59.921 55.2559 62.0024 54.5732 63.9181 53.6551L63.9712 53.6285C64.054 53.5888 64.1336 53.549 64.2164 53.5092L64.3357 53.4496C64.3987 53.4164 64.465 53.3833 64.528 53.3501L64.697 53.264L64.8462 53.1844C64.9158 53.148 64.9854 53.1115 65.055 53.0717L65.171 53.0088C65.2505 52.9657 65.3267 52.9226 65.403 52.8762L65.4991 52.8198C65.5786 52.7734 65.6615 52.727 65.741 52.6773L65.8372 52.621C65.9134 52.5779 65.9863 52.5315 66.0592 52.4851L66.2018 52.3989L66.278 52.3525C70.242 49.8601 73.3211 46.2209 75.2832 41.531L75.2965 41.5045C75.3429 41.3918 75.3893 41.2758 75.4357 41.1631L75.4555 41.1134C75.5019 41.0007 75.545 40.8847 75.5881 40.772L75.5914 40.7654L74.7463 38.7734V38.78ZM55.0753 26.5665C51.6317 26.129 48.1383 26.1621 44.8769 26.5565C34.5857 27.7994 24.4569 32.6484 17.795 40.6991C24.2382 47.5533 32.66 52.7635 41.7912 55.067C46.0933 56.1508 50.7069 56.6049 55.1714 56.1011C51.7742 51.9316 49.7723 46.8108 49.7723 41.2758C49.7723 35.7905 51.7377 30.7128 55.0753 26.5665ZM74.8092 38.9093L74.7562 38.8032L74.7463 38.78L74.8092 38.9093ZM4.39818 53.1446C4.03691 50.7682 4.44789 48.4647 6.01229 46.4761C8.21636 43.6688 12.1075 42.2237 15.7135 42.0712C15.9787 44.8785 15.1832 47.7853 13.3703 49.9661C11.0634 52.7403 7.78881 53.6319 4.40149 53.1446H4.39818ZM15.6406 39.8473C16.0019 37.4709 15.5909 35.1673 14.0265 33.1787C11.8224 30.3714 7.93133 28.9263 4.32526 28.7739C4.06011 31.5812 4.85557 34.4879 6.66854 36.6688C8.97536 39.4429 12.25 40.3345 15.6373 39.8473H15.6406Z" fill="#1DD0C7"/>
<defs>
<linearGradient id="paint0_linear" x1="17.7949" y1="26.2527" x2="59.4601" y2="34.4136" gradientUnits="userSpaceOnUse">
<stop stop-color="#E3EEFF"/>
<stop offset="0.526042" stop-color="#E4F6E4"/>
<stop offset="1" stop-color="#FFEEE4"/>
</linearGradient>
</defs>
</svg>
