<svg width="80" height="80" viewBox="0 0 80 80" fill="none" xmlns="http://www.w3.org/2000/svg">
<path fill-rule="evenodd" clip-rule="evenodd" d="M65.726 33.9671C62.8554 27.6733 58.9256 19.0461 59.6164 6.28947C59.6317 5.95176 59.5089 5.62939 59.2787 5.38377C59.0484 5.13816 58.726 5 58.3883 5H22.9278C22.5901 5 22.2677 5.13816 22.0374 5.38377C21.8072 5.62939 21.6844 5.96711 21.6997 6.28947C22.4045 19.0219 18.4603 27.6864 15.5758 34.0231L15.5594 34.0592L15.537 34.1081C14.5641 36.2363 13.7292 38.0626 13.2874 39.6469C10.0023 51.1141 15.805 65.7742 22.5901 74.5242C22.8203 74.8158 23.1888 75 23.5572 75H57.7743C58.158 75 58.5111 74.8158 58.7414 74.5242C65.6953 65.5439 71.1142 50.6842 68.0287 39.6469C67.5724 38.0348 66.7243 36.1665 65.7532 34.027L65.726 33.9671ZM19.988 30.237L19.9881 30.2369L19.9882 30.2367C20.0534 30.0832 20.1186 29.9298 20.18 29.7763C23.0352 22.5154 24.4015 15.1162 24.2173 7.74781C24.2173 7.67105 24.248 7.57895 24.3094 7.5329C24.3708 7.47149 24.4475 7.44079 24.5243 7.44079H56.7918C56.8686 7.44079 56.9607 7.47149 57.0067 7.5329C57.0681 7.5943 57.0988 7.67105 57.0988 7.74781C56.9146 15.1009 58.2808 22.5154 61.1361 29.761C61.2436 30.0526 61.3664 30.3443 61.5199 30.6974C61.5813 30.8509 61.5199 31.0198 61.3664 31.0965C55.0111 34.1053 47.8576 35.6864 40.658 35.6864C33.4585 35.6864 26.305 34.0899 19.9497 31.0965C19.7962 31.0198 19.7348 30.8509 19.7962 30.6974C19.8575 30.544 19.9227 30.3907 19.9879 30.2374L19.9879 30.2372L19.988 30.237ZM39.43 72.2215C39.43 72.3904 39.2918 72.5286 39.123 72.5286H24.3094C24.2173 72.5286 24.1252 72.4825 24.0637 72.4057C20.3642 67.4628 17.6164 61.8136 16.0966 56.0877C14.7611 50.9913 14.4541 45.9562 15.2523 41.9189C15.2677 41.8268 15.3291 41.75 15.4059 41.704C15.4826 41.6579 15.5747 41.6579 15.6668 41.6886C22.498 44.3136 28.9607 49.3487 35.2238 54.2303C36.6361 55.3356 37.9716 56.3641 39.3225 57.3926C39.3993 57.454 39.4453 57.5461 39.4453 57.6382V72.2215H39.43ZM40.658 55.2588C40.5966 55.2588 40.5199 55.2435 40.4738 55.1974C39.2918 54.2917 38.0945 53.3706 36.8357 52.3882C30.6186 47.5373 23.5725 42.057 16.2809 39.3092C16.1273 39.2478 16.0506 39.079 16.0966 38.9101C16.5527 37.6358 17.126 36.4319 17.7243 35.1754L17.7243 35.1753C17.8107 34.9938 17.8976 34.8113 17.9848 34.6272C18.169 34.2588 18.3532 33.875 18.5374 33.4759C18.6142 33.3224 18.7984 33.261 18.9519 33.3377C25.6142 36.4847 33.1208 38.1426 40.658 38.1426C48.1953 38.1426 55.7019 36.4847 62.3642 33.3377C62.5177 33.261 62.7019 33.3377 62.7787 33.4759L63.3313 34.6272C64.0374 36.0855 64.6975 37.4518 65.2194 38.9101C65.2808 39.0636 65.1887 39.2478 65.0352 39.2939C57.7282 42.0417 50.6822 47.5373 44.4651 52.3882C43.2063 53.3706 42.0243 54.2917 40.8423 55.1821C40.7962 55.2281 40.7194 55.2588 40.658 55.2588ZM64.5287 57.8992C62.8861 63.1492 60.2918 68.3071 57.2523 72.4057C57.1909 72.4825 57.0988 72.5286 57.0067 72.5286H42.1931C42.0243 72.5286 41.8861 72.3904 41.8861 72.2215V57.6382C41.8861 57.5461 41.9322 57.454 42.0089 57.3926C42.9704 56.6605 43.9552 55.8974 44.9301 55.1419L44.9307 55.1415L44.9329 55.1397L44.9338 55.1391L44.9357 55.1376C45.3287 54.833 45.72 54.5298 46.1076 54.2303L46.2005 54.158C52.4193 49.3142 58.8365 44.316 65.6186 41.704C65.7107 41.6733 65.8028 41.6733 65.8795 41.7193C65.9563 41.7654 66.0177 41.8421 66.033 41.9342C66.8927 46.4935 66.3708 52.0044 64.5287 57.8992ZM52.9388 16.6517C53.617 16.6517 54.1668 16.1019 54.1668 15.4236C54.1668 14.7454 53.617 14.1956 52.9388 14.1956C52.2605 14.1956 51.7107 14.7454 51.7107 15.4236C51.7107 16.1019 52.2605 16.6517 52.9388 16.6517ZM52.3245 21.7942C52.171 21.1341 52.6008 20.474 53.2609 20.3359C53.3377 20.3205 53.4298 20.3052 53.5219 20.3052C53.7522 20.3052 53.9824 20.3819 54.182 20.5047C54.4583 20.6736 54.6425 20.9499 54.7193 21.2723C55.1644 23.3293 55.7324 25.417 56.4078 27.474C56.6227 28.1188 56.2697 28.8096 55.6249 29.0245C54.9802 29.2394 54.2894 28.8863 54.0745 28.2416C53.3684 26.1078 52.7851 23.928 52.3245 21.7942ZM78.4211 17.2655H68.9189C68.7961 17.2655 68.6886 17.1888 68.6425 17.0813C68.5965 16.9739 68.6272 16.8357 68.704 16.7436L72.2193 13.2283C72.6952 12.7524 72.6952 11.9695 72.2193 11.4936C71.9737 11.248 71.6667 11.1405 71.3443 11.1405C71.0219 11.1405 70.7149 11.2634 70.4693 11.4936L64.329 17.634C63.8531 18.1098 63.8531 18.8927 64.329 19.3686L70.4693 25.509C70.9452 25.9848 71.7281 25.9848 72.204 25.509C72.6798 25.0331 72.6798 24.2502 72.204 23.7743L68.6886 20.259C68.5965 20.1669 68.5812 20.044 68.6272 19.9212C68.6733 19.8138 68.7807 19.737 68.9035 19.737H78.4211C79.0965 19.737 79.6491 19.1844 79.6491 18.509C79.6491 17.8335 79.0965 17.2655 78.4211 17.2655ZM10.8312 11.4783L16.9716 17.6187C17.4474 18.1099 17.4474 18.8774 16.9716 19.3533L10.8312 25.4937C10.3553 25.9695 9.57245 25.9695 9.09657 25.4937C8.6207 25.0178 8.6207 24.2349 9.09657 23.759L12.6119 20.2437C12.6887 20.1516 12.7194 20.0134 12.6733 19.906C12.6273 19.7985 12.5198 19.7217 12.397 19.7217H2.89482C2.21938 19.7217 1.66675 19.1691 1.66675 18.4937C1.66675 17.8182 2.21938 17.2656 2.89482 17.2656H12.3817C12.5045 17.2656 12.6119 17.1888 12.658 17.0814C12.704 16.9586 12.6887 16.8358 12.5966 16.7437L9.08122 13.2283C8.85096 12.9827 8.72815 12.6757 8.72815 12.3533C8.72815 12.031 8.85096 11.7239 9.09657 11.4783C9.57245 11.0025 10.3553 11.0025 10.8312 11.4783Z" fill="#FF6889"/>
<path fill-rule="evenodd" clip-rule="evenodd" d="M40.6582 55.259C40.5968 55.259 40.52 55.2437 40.474 55.1976C39.2919 54.2919 38.0946 53.3709 36.8358 52.3884C30.6187 47.5375 23.5726 42.0573 16.281 39.3095C16.1275 39.2481 16.0507 39.0792 16.0968 38.9103C16.5528 37.6361 17.1261 36.4321 17.7244 35.1756C17.8108 34.9941 17.8977 34.8115 17.9849 34.6275C18.1691 34.259 18.3533 33.8753 18.5376 33.4761C18.6143 33.3226 18.7985 33.2612 18.952 33.338C25.6143 36.4849 33.1209 38.1428 40.6582 38.1428C48.1954 38.1428 55.702 36.4849 62.3643 33.338C62.5178 33.2612 62.702 33.338 62.7788 33.4761L63.3314 34.6275C64.0376 36.0858 64.6976 37.452 65.2196 38.9103C65.281 39.0639 65.1889 39.2481 65.0354 39.2941C57.7283 42.0419 50.6823 47.5375 44.4652 52.3884C43.2064 53.3709 42.0244 54.2919 40.8424 55.1823C40.7963 55.2283 40.7196 55.259 40.6582 55.259Z" fill="url(#paint0_linear)"/>
<defs>
<linearGradient id="paint0_linear" x1="16.0835" y1="33.3049" x2="66.6875" y2="51.1512" gradientUnits="userSpaceOnUse">
<stop stop-color="#E3EEFF"/>
<stop offset="0.526042" stop-color="#E4F6E4"/>
<stop offset="1" stop-color="#FFEEE4"/>
</linearGradient>
</defs>
</svg>
