<svg width="79" height="70" viewBox="0 0 79 70" fill="none" xmlns="http://www.w3.org/2000/svg">
<path fill-rule="evenodd" clip-rule="evenodd" d="M64.7259 28.9671C61.8553 22.6733 57.9255 14.0461 58.6163 1.28947C58.6316 0.951755 58.5088 0.629386 58.2786 0.383772C58.0483 0.138158 57.7259 0 57.3882 0H21.9277C21.59 0 21.2676 0.138158 21.0374 0.383772C20.8071 0.629386 20.6843 0.967106 20.6996 1.28947C21.4044 14.0219 17.4603 22.6864 14.5757 29.0231L14.5593 29.0592L14.5369 29.1081C13.564 31.2363 12.7291 33.0626 12.2874 34.6469C9.00227 46.1141 14.8049 60.7742 21.59 69.5242C21.8202 69.8158 22.1887 70 22.5571 70H56.7742C57.158 70 57.511 69.8158 57.7413 69.5242C64.6952 60.5439 70.1141 45.6842 67.0286 34.6469C66.5723 33.0348 65.7242 31.1665 64.7531 29.027L64.7259 28.9671ZM18.9879 25.237L18.988 25.2369L18.9881 25.2367C19.0533 25.0832 19.1185 24.9298 19.1799 24.7763C22.0352 17.5154 23.4014 10.1162 23.2172 2.74781C23.2172 2.67105 23.2479 2.57895 23.3093 2.5329C23.3707 2.47149 23.4474 2.44079 23.5242 2.44079H55.7917C55.8685 2.44079 55.9606 2.47149 56.0066 2.5329C56.0681 2.5943 56.0988 2.67105 56.0988 2.74781C55.9145 10.1009 57.2808 17.5154 60.136 24.761C60.2435 25.0526 60.3663 25.3443 60.5198 25.6974C60.5812 25.8509 60.5198 26.0198 60.3663 26.0965C54.011 29.1053 46.8575 30.6864 39.658 30.6864C32.4584 30.6864 25.3049 29.0899 18.9496 26.0965C18.7961 26.0198 18.7347 25.8509 18.7961 25.6974C18.8575 25.544 18.9226 25.3907 18.9878 25.2374L18.9879 25.2372L18.9879 25.237ZM38.4299 67.2215C38.4299 67.3904 38.2917 67.5286 38.1229 67.5286H23.3093C23.2172 67.5286 23.1251 67.4825 23.0637 67.4057C19.3641 62.4628 16.6163 56.8136 15.0966 51.0877C13.761 45.9913 13.454 40.9562 14.2523 36.9189C14.2676 36.8268 14.329 36.75 14.4058 36.704C14.4825 36.6579 14.5746 36.6579 14.6667 36.6886C21.4979 39.3136 27.9606 44.3487 34.2238 49.2303C35.636 50.3356 36.9716 51.3641 38.3224 52.3926C38.3992 52.454 38.4452 52.5461 38.4452 52.6382V67.2215H38.4299ZM39.658 50.2588C39.5966 50.2588 39.5198 50.2435 39.4738 50.1974C38.2917 49.2917 37.0944 48.3706 35.8356 47.3882C29.6185 42.5373 22.5724 37.057 15.2808 34.3092C15.1273 34.2478 15.0505 34.079 15.0966 33.9101C15.5526 32.6358 16.1259 31.4319 16.7242 30.1754L16.7242 30.1753C16.8106 29.9938 16.8975 29.8113 16.9847 29.6272C17.1689 29.2588 17.3531 28.875 17.5374 28.4759C17.6141 28.3224 17.7983 28.261 17.9518 28.3377C24.6141 31.4847 32.1207 33.1426 39.658 33.1426C47.1952 33.1426 54.7018 31.4847 61.3641 28.3377C61.5176 28.261 61.7018 28.3377 61.7786 28.4759L62.3312 29.6272C63.0373 31.0855 63.6974 32.4518 64.2194 33.9101C64.2808 34.0636 64.1887 34.2478 64.0352 34.2939C56.7281 37.0417 49.6821 42.5373 43.465 47.3882C42.2062 48.3706 41.0242 49.2917 39.8422 50.1821C39.7961 50.2281 39.7194 50.2588 39.658 50.2588ZM63.5286 52.8992C61.886 58.1492 59.2917 63.3071 56.2523 67.4057C56.1909 67.4825 56.0988 67.5286 56.0066 67.5286H41.1931C41.0242 67.5286 40.886 67.3904 40.886 67.2215V52.6382C40.886 52.5461 40.9321 52.454 41.0088 52.3926C41.9703 51.6605 42.9551 50.8974 43.9301 50.1419L43.9306 50.1415L43.9328 50.1397L43.9337 50.1391L43.9357 50.1376C44.3286 49.833 44.72 49.5298 45.1075 49.2303L45.2004 49.158C51.4192 44.3142 57.8365 39.316 64.6185 36.704C64.7106 36.6733 64.8027 36.6733 64.8795 36.7193C64.9562 36.7654 65.0176 36.8421 65.033 36.9342C65.8926 41.4935 65.3707 47.0044 63.5286 52.8992ZM51.9387 11.6517C52.6169 11.6517 53.1667 11.1019 53.1667 10.4236C53.1667 9.74538 52.6169 9.19556 51.9387 9.19556C51.2604 9.19556 50.7106 9.74538 50.7106 10.4236C50.7106 11.1019 51.2604 11.6517 51.9387 11.6517ZM51.3244 16.7942C51.1709 16.1341 51.6008 15.474 52.2608 15.3359C52.3376 15.3205 52.4297 15.3052 52.5218 15.3052C52.7521 15.3052 52.9823 15.3819 53.1819 15.5047C53.4582 15.6736 53.6424 15.9499 53.7192 16.2723C54.1643 18.3293 54.7323 20.417 55.4078 22.474C55.6227 23.1188 55.2696 23.8096 54.6249 24.0245C53.9801 24.2394 53.2893 23.8863 53.0744 23.2416C52.3683 21.1078 51.785 18.928 51.3244 16.7942ZM77.421 12.2655H67.9188C67.796 12.2655 67.6885 12.1888 67.6425 12.0813C67.5964 11.9739 67.6271 11.8357 67.7039 11.7436L71.2192 8.22826C71.6951 7.75239 71.6951 6.96949 71.2192 6.49361C70.9736 6.248 70.6666 6.14054 70.3442 6.14054C70.0219 6.14054 69.7148 6.26335 69.4692 6.49361L63.3289 12.634C62.853 13.1098 62.853 13.8927 63.3289 14.3686L69.4692 20.509C69.9451 20.9848 70.728 20.9848 71.2039 20.509C71.6798 20.0331 71.6798 19.2502 71.2039 18.7743L67.6885 15.259C67.5964 15.1669 67.5811 15.044 67.6271 14.9212C67.6732 14.8138 67.7806 14.737 67.9034 14.737H77.421C78.0964 14.737 78.6491 14.1844 78.6491 13.509C78.6491 12.8335 78.0964 12.2655 77.421 12.2655ZM9.83114 6.47833L15.9715 12.6187C16.4474 13.1099 16.4474 13.8774 15.9715 14.3533L9.83114 20.4937C9.35526 20.9695 8.57237 20.9695 8.09649 20.4937C7.62062 20.0178 7.62062 19.2349 8.09649 18.759L11.6118 15.2437C11.6886 15.1516 11.7193 15.0134 11.6732 14.906C11.6272 14.7985 11.5197 14.7217 11.3969 14.7217H1.89474C1.2193 14.7217 0.666668 14.1691 0.666668 13.4937C0.666668 12.8182 1.2193 12.2656 1.89474 12.2656H11.3816C11.5044 12.2656 11.6118 12.1888 11.6579 12.0814C11.7039 11.9586 11.6886 11.8358 11.5965 11.7437L8.08114 8.22833C7.85088 7.98271 7.72807 7.67569 7.72807 7.35333C7.72807 7.03096 7.85088 6.72394 8.09649 6.47833C8.57237 6.00245 9.35526 6.00245 9.83114 6.47833Z" fill="#7ECA1D"/>
</svg>
