<svg width="80" height="80" viewBox="0 0 80 80" fill="none" xmlns="http://www.w3.org/2000/svg">
<path fill-rule="evenodd" clip-rule="evenodd" d="M42.7824 4.82526C62.1747 4.82526 77.8947 20.5453 77.8947 39.9376C77.8947 59.3299 62.1747 75.0499 42.7824 75.0499C23.3901 75.0499 7.67004 59.3299 7.67004 39.9376C7.67004 20.5453 23.3901 4.82526 42.7824 4.82526ZM53.3796 34.3642C53.9464 32.1649 54.2446 29.7339 54.0957 27.3526C57.5395 30.4504 59.7049 34.942 59.7049 39.9376C59.7049 41.2886 59.5465 42.6027 59.2473 43.8623C57.7621 44.3916 56.3537 45.0956 55.1369 45.8601C51.7209 48.0089 48.4259 51.4756 47.995 55.6661C47.982 55.7945 47.9717 55.9225 47.9643 56.0502C46.6526 56.4717 45.2712 56.7376 43.8417 56.8261C44.2425 55.5625 44.4749 54.1893 44.7118 52.79L44.7118 52.7899C45.2334 49.7091 45.7763 46.502 48.1837 44.0603C50.7324 41.4722 52.4784 37.8562 53.3796 34.3642ZM48.1034 58.1888C46.4549 58.6688 44.7139 58.9315 42.9133 58.9441C42.6726 59.3457 42.3961 59.7262 42.0754 60.0817C40.0618 62.3149 37.0766 62.5881 34.2576 62.2614C30.529 61.8305 27.1411 60.4196 24.4939 57.716C18.9572 52.0668 18.5207 42.8043 19.4557 35.4118C21.2158 21.4998 27.3748 15.107 41.7769 15.2534H41.7741C45.514 15.2929 48.9948 16.5236 51.3604 19.5312C52.4778 20.9512 53.2124 22.5946 53.6431 24.3369C54.2406 24.7538 54.8131 25.2041 55.3578 25.6851C55.8676 23.9583 57.4653 22.6997 59.3557 22.6997C61.6594 22.6997 63.5237 24.5668 63.5237 26.8677C63.5237 26.9062 63.5232 26.9447 63.5222 26.983C63.9629 26.8835 64.4215 26.8309 64.8924 26.8309C68.3141 26.8309 71.088 29.6049 71.088 33.0266C71.088 36.4483 68.3141 39.2222 64.8924 39.2222C63.7345 39.2222 62.6508 38.9046 61.7237 38.3517C61.7669 38.8746 61.7889 39.4035 61.7889 39.9376C61.7889 41.0555 61.6924 42.1509 61.5072 43.2159C63.0965 42.8767 64.7068 42.7864 66.2102 43.0721L67.8013 43.3734L67.9027 44.9899L67.8999 44.9871C68.1168 48.4707 66.6608 52.3543 64.8359 55.269C61.7409 60.2114 56.1395 64.554 50.1156 61.8815L49.4848 61.6026L49.1469 61.0028C48.643 60.11 48.2899 59.1664 48.1034 58.1888ZM60.9636 45.4947C62.6984 45.0026 64.3893 44.845 65.8187 45.1166C66.244 51.9347 58.6769 63.4022 50.9605 59.9749C50.4926 59.1456 50.2134 58.3119 50.0961 57.4854C55.2835 55.3206 59.3061 50.9235 60.9636 45.4947ZM50.1775 55.1611C53.8735 53.3624 56.8167 50.2579 58.4066 46.4481C54.5104 48.248 50.9333 51.516 50.1775 55.1611ZM42.7824 6.90924C61.0229 6.90924 75.8107 21.6971 75.8107 39.9376C75.8107 58.1781 61.0229 72.966 42.7824 72.966C24.5419 72.966 9.75403 58.1781 9.75403 39.9376C9.75403 21.6971 24.5419 6.90924 42.7824 6.90924ZM46.6968 42.5959C53.6499 35.5413 55.5537 17.4782 41.7515 17.3374C27.9465 17.1966 23.0802 23.3444 21.52 35.6737C19.9626 48.003 23.1111 58.8791 34.4942 60.1915C41.1766 60.9619 41.8223 57.1951 42.6227 52.5254C43.1858 49.2406 43.8254 45.5091 46.6968 42.5959ZM28.5804 38.9769L36.6235 47.0199C37.029 47.4255 37.029 48.0873 36.6235 48.4928C36.2179 48.8983 35.5561 48.8983 35.1506 48.4928L27.1075 40.4497C26.702 40.0442 26.702 39.3824 27.1075 38.9769C27.5131 38.5713 28.1749 38.5713 28.5804 38.9769ZM38.8398 23.3132L46.8829 31.3562C47.2884 31.7618 47.2884 32.4236 46.8829 32.8291C46.4773 33.2346 45.8155 33.2346 45.41 32.8291L37.3669 24.786C36.9614 24.3805 36.9614 23.7187 37.3669 23.3132C37.7725 22.9076 38.4343 22.9076 38.8398 23.3132ZM30.1913 26.7518L38.2343 34.7948C38.6398 35.2003 38.6398 35.8621 38.2343 36.2677C37.8288 36.6732 37.167 36.6732 36.7614 36.2677L28.7184 28.2246C28.3129 27.8191 28.3129 27.1573 28.7184 26.7518C29.1239 26.3462 29.7857 26.3462 30.1913 26.7518ZM59.3557 24.7837C60.5076 24.7837 61.4397 25.7159 61.4397 26.8677C61.4397 28.0195 60.5076 28.9517 59.3557 28.9517C58.2039 28.9517 57.2718 28.0195 57.2718 26.8677C57.2718 25.7159 58.2039 24.7837 59.3557 24.7837ZM69.004 33.0266C69.004 30.7567 67.1622 28.9149 64.8924 28.9149C62.6225 28.9149 60.7807 30.7567 60.7807 33.0266C60.7807 35.2964 62.6225 37.1382 64.8924 37.1382C67.1622 37.1382 69.004 35.2964 69.004 33.0266Z" fill="#7ECA1D"/>
<path fill-rule="evenodd" clip-rule="evenodd" d="M61.4396 26.8703C61.4396 28.0213 60.5066 28.9543 59.3556 28.9543C58.2047 28.9543 57.2716 28.0213 57.2716 26.8703C57.2716 25.7193 58.2047 24.7863 59.3556 24.7863C60.5066 24.7863 61.4396 25.7193 61.4396 26.8703ZM64.8923 37.1381C67.1631 37.1381 69.0039 35.2973 69.0039 33.0265C69.0039 30.7557 67.1631 28.9148 64.8923 28.9148C62.6215 28.9148 60.7806 30.7557 60.7806 33.0265C60.7806 35.2973 62.6215 37.1381 64.8923 37.1381ZM65.8218 45.1135C59.0798 43.8322 46.5224 52.1005 50.9636 59.9718C58.6799 63.3991 66.2471 51.9315 65.8218 45.1135Z" fill="url(#paint0_linear)"/>
<path d="M17.3961 75.7923C25.8992 75.7923 32.7923 68.8992 32.7923 60.3961C32.7923 51.8931 25.8992 45 17.3961 45C8.89309 45 2 51.8931 2 60.3961C2 68.8992 8.89309 75.7923 17.3961 75.7923Z" fill="#7ECA1D"/>
<path d="M17.3122 73.6243C24.6643 73.6243 30.6243 67.6643 30.6243 60.3122C30.6243 52.9601 24.6643 47 17.3122 47C9.96006 47 4 52.9601 4 60.3122C4 67.6643 9.96006 73.6243 17.3122 73.6243Z" fill="url(#paint1_linear)"/>
<path d="M13 56L22 65" stroke="#7ECA1D" stroke-width="2" stroke-linecap="round"/>
<path d="M22 56L13 65" stroke="#7ECA1D" stroke-width="2" stroke-linecap="round"/>
<defs>
<linearGradient id="paint0_linear" x1="50.0343" y1="24.7863" x2="71.84" y2="26.6057" gradientUnits="userSpaceOnUse">
<stop stop-color="#E3EEFF"/>
<stop offset="0.526042" stop-color="#E4F6E4"/>
<stop offset="1" stop-color="#FFEEE4"/>
</linearGradient>
<linearGradient id="paint1_linear" x1="4" y1="47" x2="34.0718" y2="51.7366" gradientUnits="userSpaceOnUse">
<stop stop-color="#E3EEFF"/>
<stop offset="0.526042" stop-color="#E4F6E4"/>
<stop offset="1" stop-color="#FFEEE4"/>
</linearGradient>
</defs>
</svg>
