<svg width="80" height="80" viewBox="0 0 80 80" fill="none" xmlns="http://www.w3.org/2000/svg">
<path fill-rule="evenodd" clip-rule="evenodd" d="M39.9311 2.10529C60.8219 2.10529 77.7567 19.04 77.7567 39.9309C77.7567 60.8217 60.8219 77.7565 39.9311 77.7565C19.0402 77.7565 2.10547 60.8217 2.10547 39.9309C2.10547 19.04 19.0402 2.10529 39.9311 2.10529ZM51.3473 33.9271C51.958 31.5578 52.2791 28.9389 52.1187 26.3735C55.8286 29.7107 58.1613 34.5493 58.1613 39.9309C58.1613 41.3863 57.9907 42.8018 57.6683 44.1587C56.0684 44.7289 54.5511 45.4873 53.2403 46.311C49.5603 48.6258 46.0107 52.3604 45.5465 56.8747C45.5325 57.013 45.5214 57.151 45.5134 57.2886C44.1005 57.7427 42.6123 58.0291 41.0724 58.1245C41.5041 56.7633 41.7545 55.284 42.0097 53.7767C42.5716 50.4578 43.1564 47.0029 45.7499 44.3725C48.4955 41.5844 50.3765 37.689 51.3473 33.9271ZM45.6633 59.5925C43.8875 60.1095 42.012 60.3925 40.0724 60.4061C39.8131 60.8388 39.5151 61.2489 39.1696 61.6319C37.0004 64.0377 33.7845 64.332 30.7477 63.98C26.7309 63.5159 23.0812 61.9959 20.2294 59.0835C14.265 52.9976 13.7947 43.0194 14.802 35.0556C16.6981 20.0686 23.333 13.1818 38.848 13.3396H38.8449C42.8738 13.3821 46.6236 14.7078 49.172 17.948C50.3757 19.4776 51.1671 21.2478 51.6311 23.1247C52.2748 23.5738 52.8915 24.0589 53.4783 24.5771C54.0274 22.7169 55.7486 21.361 57.7851 21.361C60.2668 21.361 62.2752 23.3724 62.2752 25.851C62.2752 25.8926 62.2746 25.9341 62.2735 25.9755C62.7484 25.8682 63.2424 25.8116 63.7497 25.8116C67.4357 25.8116 70.424 28.8 70.424 32.486C70.424 36.1721 67.4357 39.1604 63.7497 39.1604C62.5023 39.1604 61.3349 38.8182 60.3361 38.2226C60.3826 38.7859 60.4063 39.3556 60.4063 39.9309C60.4063 41.1352 60.3023 42.3152 60.1029 43.4624C61.815 43.097 63.5497 42.9997 65.1693 43.3075L66.8834 43.6321L66.9926 45.3735L66.9895 45.3705C67.2232 49.1233 65.6547 53.3069 63.6888 56.4469C60.3546 61.7713 54.3203 66.4494 47.831 63.5703L47.1514 63.27L46.7874 62.6238C46.2446 61.662 45.8643 60.6456 45.6633 59.5925ZM59.5172 45.9173C61.3861 45.3871 63.2077 45.2174 64.7476 45.51C65.2057 52.8549 57.0538 65.2086 48.7411 61.5164C48.2371 60.6231 47.9363 59.725 47.81 58.8347C53.3983 56.5025 57.7317 51.7657 59.5172 45.9173ZM47.8976 56.3308C51.8793 54.3931 55.05 51.0486 56.7628 46.9444C52.5654 48.8833 48.7117 52.4039 47.8976 56.3308ZM39.9311 4.35031C59.5811 4.35031 75.5117 20.2809 75.5117 39.9309C75.5117 59.5809 59.5811 75.5115 39.9311 75.5115C20.2811 75.5115 4.35049 59.5809 4.35049 39.9309C4.35049 20.2809 20.2811 4.35031 39.9311 4.35031ZM44.148 42.7949C51.6385 35.1952 53.6894 15.7363 38.8207 15.5846C23.9489 15.4329 18.7065 22.0557 17.0257 35.3378C15.348 48.6198 18.7398 60.3364 31.0025 61.7502C38.2013 62.5801 38.8969 58.5222 39.7592 53.4917C40.3658 49.9531 41.0548 45.9332 44.148 42.7949ZM24.6317 38.8964L33.2963 47.561C33.7331 47.9978 33.7331 48.7108 33.2963 49.1476C32.8594 49.5845 32.1464 49.5845 31.7096 49.1476L23.045 40.4831C22.6081 40.0462 22.6081 39.3333 23.045 38.8964C23.4819 38.4595 24.1948 38.4595 24.6317 38.8964ZM35.6839 22.0223L44.3485 30.6869C44.7853 31.1238 44.7853 31.8367 44.3485 32.2736C43.9116 32.7104 43.1986 32.7104 42.7618 32.2736L34.0972 23.609C33.6603 23.1721 33.6603 22.4592 34.0972 22.0223C34.5341 21.5854 35.247 21.5854 35.6839 22.0223ZM26.367 25.7266L35.0316 34.3912C35.4685 34.828 35.4685 35.541 35.0316 35.9779C34.5947 36.4147 33.8818 36.4147 33.4449 35.9779L24.7803 27.3133C24.3435 26.8764 24.3435 26.1635 24.7803 25.7266C25.2172 25.2897 25.9302 25.2897 26.367 25.7266ZM57.7851 23.606C59.026 23.606 60.0302 24.6102 60.0302 25.851C60.0302 27.0919 59.026 28.096 57.7851 28.096C56.5443 28.096 55.5401 27.0919 55.5401 25.851C55.5401 24.6102 56.5443 23.606 57.7851 23.606ZM68.179 32.486C68.179 30.0408 66.1949 28.0567 63.7497 28.0567C61.3044 28.0567 59.3203 30.0408 59.3203 32.486C59.3203 34.9313 61.3044 36.9154 63.7497 36.9154C66.1949 36.9154 68.179 34.9313 68.179 32.486Z" fill="#C4C5CC"/>
<path fill-rule="evenodd" clip-rule="evenodd" d="M60.0298 25.8539C60.0298 27.0938 59.0247 28.0989 57.7848 28.0989C56.5449 28.0989 55.5398 27.0938 55.5398 25.8539C55.5398 24.614 56.5449 23.6089 57.7848 23.6089C59.0247 23.6089 60.0298 24.614 60.0298 25.8539ZM63.7493 36.9151C66.1956 36.9151 68.1787 34.932 68.1787 32.4857C68.1787 30.0394 66.1956 28.0563 63.7493 28.0563C61.303 28.0563 59.3199 30.0394 59.3199 32.4857C59.3199 34.932 61.303 36.9151 63.7493 36.9151ZM64.7506 45.507C57.4877 44.1266 43.9599 53.0339 48.7442 61.5134C57.0569 65.2056 65.2087 52.8519 64.7506 45.507Z" fill="#F1F2F6"/>
</svg>
