<svg width="80" height="80" viewBox="0 0 80 80" fill="none" xmlns="http://www.w3.org/2000/svg">
<path fill-rule="evenodd" clip-rule="evenodd" d="M48.5815 12.9704C50.2025 11.8616 52.0208 11.1145 54.0365 10.9125C58.6786 10.4567 63.0671 13.3886 64.237 17.9321C65.2096 21.6956 63.6168 25.2336 60.5721 27.5124C59.8909 28.0198 59.1579 28.4615 58.3826 28.8421C60.154 29.6925 61.7092 30.8906 62.8932 32.5398C65.609 36.3315 65.266 41.5986 61.9112 44.8876C59.1391 47.608 55.2769 47.998 51.7812 46.5039C51.0012 46.1703 50.2495 45.7568 49.5353 45.2776C49.6809 47.2368 49.4272 49.182 48.5909 51.0286C46.6645 55.276 41.9331 57.6112 37.4084 56.352C33.6636 55.3089 31.3989 52.1656 30.9432 48.388C30.8398 47.547 30.8257 46.6871 30.8821 45.8273C29.2611 46.9361 27.4428 47.6832 25.4271 47.8852C20.7849 48.341 16.3965 45.4091 15.2266 40.8656C14.2587 37.1021 15.8468 33.5641 18.8914 31.2853C19.5727 30.7779 20.3057 30.3362 21.081 29.9556C19.3096 29.1052 17.7544 27.9071 16.5704 26.2579C13.8546 22.4662 14.1976 17.1991 17.5524 13.9101C20.3245 11.1897 24.1867 10.7997 27.6824 12.2938C28.4624 12.6274 29.2094 13.0409 29.9283 13.5202C29.7826 11.5609 30.0364 9.61568 30.8727 7.76916C32.7991 3.52169 37.5305 1.18651 42.0552 2.44572C45.7999 3.4888 48.0646 6.63212 48.5204 10.4097C48.6238 11.2508 48.6379 12.1106 48.5815 12.9704ZM44.9025 22.6306L44.9119 22.64C44.973 22.687 45.0294 22.734 45.0905 22.781L45.1046 22.7904C45.1985 22.8656 45.2878 22.9454 45.3818 23.0253C45.7436 23.3448 46.0819 23.6972 46.3826 24.0778L46.3873 24.0825C46.4624 24.1764 46.5329 24.2704 46.6034 24.3644L46.6175 24.3832C46.6598 24.4396 46.7021 24.5006 46.7444 24.5617L46.7537 24.5758C46.8195 24.6745 46.8853 24.7732 46.9464 24.8718L46.9605 24.8906C46.9981 24.9517 47.0357 25.0081 47.0686 25.0692L47.0826 25.0927C47.1202 25.1584 47.1578 25.2242 47.1954 25.29L47.2001 25.2947L47.2565 25.3981L47.2706 25.4263C47.2988 25.4826 47.3317 25.539 47.3599 25.5954L47.3834 25.6377C47.4162 25.7035 47.4491 25.7692 47.4773 25.835V25.8397C47.5243 25.9431 47.5713 26.0512 47.6183 26.1592L47.6371 26.2062C47.6606 26.2673 47.6841 26.3284 47.7076 26.3895L47.7169 26.4129L47.7545 26.521L47.7686 26.5586C47.7874 26.615 47.8109 26.6761 47.8297 26.7324L47.8485 26.7935C47.8673 26.8499 47.8861 26.9063 47.9002 26.9627L47.9143 27.0097L47.9472 27.1177V27.1224L47.9801 27.2446L48.0036 27.3433L48.0177 27.4043C48.0317 27.4607 48.0458 27.5171 48.0552 27.5688L48.0693 27.6252L48.0928 27.7332L48.1163 27.8554L48.1304 27.9494L48.1445 28.0292C48.1539 28.0762 48.1586 28.1279 48.168 28.1749L48.1821 28.2595L48.1915 28.3487V28.3581L48.2056 28.485C48.2385 28.7857 48.2526 29.0911 48.2526 29.3965C48.2526 29.4388 48.2526 29.4764 48.2526 29.5187C48.2479 29.7348 48.2385 29.9462 48.2197 30.1577V30.1671C48.2009 30.3738 48.1727 30.5805 48.1398 30.7873L48.1351 30.8061C48.0881 31.0927 48.0271 31.3746 47.9519 31.6518V31.6565C47.919 31.774 47.8861 31.8961 47.8485 32.0136V32.0183C47.7592 32.2908 47.6606 32.5586 47.5478 32.817L47.5431 32.8264C47.4632 33.0097 47.374 33.1882 47.2847 33.3668L47.28 33.3762C47.186 33.5547 47.0873 33.7286 46.9793 33.8977C46.7631 34.2407 46.5282 34.5696 46.2698 34.875C45.6073 35.6644 44.8039 36.3315 43.9017 36.8343L43.8454 36.8672L43.742 36.9236L43.7326 36.9283L43.6762 36.9612L43.5775 37.0128L43.5024 37.0504L43.3896 37.1021L43.3802 37.1068L43.3191 37.135L43.3097 37.1397L43.2017 37.1914H43.197L43.1359 37.2196L43.1265 37.2243L43.0278 37.2666L42.9197 37.3088L42.8352 37.3417L42.7224 37.384L42.6378 37.4169C42.5955 37.431 42.5533 37.4451 42.511 37.4592L42.4499 37.478C42.4029 37.4921 42.3559 37.5109 42.3089 37.525L42.2572 37.5438C42.2103 37.5579 42.1586 37.572 42.1116 37.5861L42.0646 37.6002C42.0129 37.6142 41.9565 37.6283 41.9049 37.6424L41.872 37.6518C41.8156 37.6659 41.7592 37.68 41.7028 37.6941L41.6558 37.7035C41.6042 37.7176 41.5478 37.727 41.4961 37.7364L41.4444 37.7458C41.388 37.7552 41.3316 37.7693 41.2753 37.7787L41.2471 37.7834C41.186 37.7928 41.1296 37.8022 41.0685 37.8116L41.0356 37.8163C40.9745 37.8257 40.9135 37.8351 40.8477 37.8445L40.8289 37.8492C40.7631 37.8586 40.702 37.8633 40.6363 37.8727L40.6128 37.8774C40.547 37.8821 40.4812 37.8915 40.4154 37.8962H40.406C40.3355 37.9009 40.2651 37.9056 40.1946 37.9103H40.1899C40.0442 37.9196 39.8986 37.9197 39.7529 37.9197C39.6825 37.9197 39.6073 37.9197 39.5368 37.915H39.5321H39.5227C39.4522 37.915 39.3864 37.9103 39.3207 37.9056H39.3113C39.2408 37.9009 39.175 37.8962 39.1045 37.8915H39.0951C39.0294 37.8868 38.9589 37.8821 38.8931 37.8727H38.8696C38.8038 37.868 38.7427 37.8586 38.677 37.8492H38.6676H38.6582C38.5971 37.8398 38.536 37.8351 38.4749 37.8257L38.4326 37.821C38.3763 37.8116 38.3152 37.8022 38.2588 37.7928L38.2259 37.7881C38.1742 37.7787 38.1225 37.7693 38.0662 37.7599L38.0004 37.7458C37.9534 37.7364 37.9017 37.727 37.8547 37.7129L37.7983 37.6988C37.7514 37.6894 37.6997 37.6753 37.6527 37.6612L37.5869 37.6471L37.4553 37.6095L37.3802 37.5861L37.2627 37.5485L37.1781 37.5203L37.0654 37.4827L36.9667 37.4498L36.9573 37.4451L36.9056 37.4263L36.8915 37.4216C36.8445 37.4075 36.7976 37.3887 36.7553 37.3699H36.7506L36.6989 37.3511L36.6801 37.3464L36.5579 37.2994L36.5438 37.2947L36.4921 37.276L36.4827 37.2713L36.3559 37.2196L36.3418 37.2149L36.2901 37.1914C35.9706 37.0504 35.6652 36.8907 35.3692 36.7168L35.2705 36.6557L35.2564 36.6464C35.1954 36.6088 35.139 36.5712 35.0779 36.5336L35.0497 36.5148C34.9886 36.4725 34.9275 36.4349 34.8665 36.3926L34.8571 36.3879L34.7631 36.3222L34.7443 36.3081C34.6879 36.2658 34.6315 36.2282 34.5798 36.1859L34.5517 36.1624C34.5 36.1248 34.4483 36.0825 34.4013 36.0449L34.3684 36.0167C34.2791 35.9463 34.1946 35.8711 34.1053 35.7959L34.0865 35.7771C34.0348 35.7301 33.9831 35.6879 33.9361 35.6409L33.9127 35.6174C33.8281 35.5375 33.7435 35.4576 33.6636 35.373L33.6495 35.3589C33.5979 35.3073 33.5509 35.2556 33.4992 35.2039L33.4804 35.1851L33.4052 35.1005L33.3253 35.0113L33.2549 34.9314L33.222 34.8938C33.1844 34.8515 33.1515 34.8092 33.1139 34.7669L33.0763 34.72L33.0152 34.6401L32.9401 34.5414L32.8696 34.4474L32.8555 34.4286C32.8179 34.3723 32.7756 34.3206 32.738 34.2642L32.7145 34.2313C32.6722 34.1702 32.63 34.1091 32.5924 34.0481L32.5877 34.0434L32.5266 33.9494L32.4984 33.9071C32.4655 33.8554 32.4326 33.799 32.3997 33.7474L32.3856 33.7239C32.348 33.6581 32.3105 33.5923 32.2729 33.5265L32.2682 33.5218L32.2165 33.4232L32.193 33.3762C32.1648 33.3245 32.1366 33.2728 32.1131 33.2164L32.0896 33.1741C32.0661 33.1224 32.0379 33.0708 32.0144 33.0191L31.991 32.9674L31.9487 32.8687L31.9299 32.8311C31.9064 32.7748 31.8782 32.7137 31.8547 32.6573L31.8359 32.6103C31.8124 32.5492 31.7889 32.4881 31.7654 32.4271L31.756 32.4036L31.7184 32.2955L31.7043 32.2579C31.6855 32.2015 31.6621 32.1405 31.6433 32.0841L31.6245 32.023C31.6104 31.976 31.5963 31.929 31.5775 31.8773L31.554 31.8022L31.5258 31.7082V31.7035L31.4929 31.5813L31.4694 31.4827L31.4553 31.4216C31.4412 31.3652 31.4271 31.3088 31.4177 31.2571L31.4036 31.2008L31.3801 31.0927L31.3566 30.9705L31.3426 30.8765L31.3285 30.7967C31.3191 30.7497 31.3144 30.698 31.305 30.651L31.2909 30.5664L31.2815 30.4772V30.4678L31.2674 30.3409C31.2345 30.0402 31.2204 29.7348 31.2204 29.4294C31.2204 29.3871 31.2204 29.3495 31.2204 29.3072C31.2251 29.0911 31.2345 28.8797 31.2533 28.6682V28.6588C31.2721 28.4521 31.3003 28.2454 31.3332 28.0386L31.3379 28.0198C31.3707 27.8178 31.413 27.6158 31.46 27.4137V27.409C31.4788 27.3339 31.4976 27.254 31.5211 27.1788L31.5258 27.1647C31.5587 27.0472 31.5916 26.9298 31.6292 26.817L31.6339 26.8029C31.9111 25.9431 32.3245 25.1396 32.8461 24.4255C33.3676 23.7066 33.9972 23.0723 34.7161 22.5461H34.7208C34.998 22.344 35.2893 22.1561 35.59 21.9869L35.5947 21.9822C35.6464 21.954 35.6981 21.9258 35.7498 21.8977L35.8062 21.8695C35.8437 21.8507 35.886 21.8272 35.9236 21.8084L35.9424 21.799L36.0035 21.7708H36.0082L36.1069 21.7238L36.1914 21.6862L36.2995 21.6392L36.3089 21.6345L36.37 21.6063L36.3841 21.6016L36.4827 21.5594L36.5861 21.5171L36.6707 21.4842L36.7788 21.4419L36.8586 21.4137L36.9808 21.3714L37.0513 21.3479C37.0983 21.3338 37.1452 21.3197 37.1922 21.3009L37.2439 21.2868C37.2956 21.2727 37.3473 21.254 37.399 21.2399L37.4366 21.2305C37.4929 21.2164 37.5493 21.1976 37.6057 21.1835L37.6339 21.1788C37.6903 21.1647 37.7514 21.1506 37.8077 21.1365L37.8453 21.1271C37.9017 21.113 37.9581 21.1036 38.0145 21.0895L38.0568 21.0801C38.1131 21.066 38.1742 21.0566 38.2306 21.0472L38.2541 21.0425C38.3152 21.0331 38.3763 21.0237 38.4373 21.0143L38.4655 21.0096C38.5266 21.0002 38.5924 20.9908 38.6535 20.9814L38.6723 20.9767C38.738 20.9673 38.8038 20.9626 38.8649 20.9532H38.8884C38.9542 20.9485 39.02 20.9392 39.0904 20.9345H39.0951C39.1656 20.9298 39.2361 20.9251 39.3066 20.9204H39.3113C39.4569 20.911 39.6026 20.911 39.7482 20.911C39.8187 20.911 39.8939 20.911 39.9644 20.9157H39.9738C40.1147 20.9204 40.2557 20.9251 40.3966 20.9392H40.406C40.4718 20.9439 40.5423 20.9485 40.6081 20.9579H40.6222C40.6879 20.9626 40.7537 20.972 40.8195 20.9814H40.8289H40.8383C40.9041 20.9908 40.9699 21.0002 41.0356 21.0096H41.045H41.0544C41.1202 21.019 41.1813 21.0284 41.2471 21.0425H41.2565H41.2659C41.3269 21.0519 41.3833 21.066 41.4444 21.0754L41.4867 21.0848C41.5431 21.0989 41.5995 21.1083 41.6558 21.1224L41.7028 21.1318C41.7545 21.1459 41.8109 21.1553 41.8626 21.1694L41.9049 21.1788C41.9565 21.1929 42.0035 21.207 42.0552 21.2211L42.1116 21.2352C42.1586 21.2493 42.2056 21.2633 42.2479 21.2774L42.3136 21.2962C42.3559 21.3103 42.4029 21.3244 42.4452 21.3385L42.5345 21.3714L42.619 21.3996L42.7271 21.4372L42.8211 21.4748L42.9244 21.5171L42.9996 21.5453C43.0466 21.5641 43.0889 21.5829 43.1359 21.6016L43.1406 21.6063L43.1923 21.6298C43.8078 21.9024 44.3857 22.2453 44.9166 22.6494L44.9025 22.6306ZM45.41 19.929C57.2926 2.23899 73.0326 25.8397 50.724 28.3112C50.3716 24.7497 48.3325 21.6815 45.41 19.929ZM50.7757 29.5845C72.0413 31.0316 59.468 56.4648 46.1758 38.3801C48.9198 36.4067 50.7193 33.207 50.7757 29.5845ZM45.0999 39.0614C54.4781 58.1985 26.1695 60.031 35.1813 39.4749C36.5673 40.1045 38.1084 40.4522 39.7341 40.4522C41.684 40.4522 43.5118 39.9447 45.1046 39.0614H45.0999ZM34.0536 38.8829C22.171 56.5728 6.42623 32.9721 28.7396 30.5007C29.092 34.0622 31.1311 37.1303 34.0536 38.8829ZM28.6879 29.2274C7.42231 27.7802 19.9956 2.34705 33.2877 20.4317C30.5438 22.4051 28.7443 25.6048 28.6879 29.2274ZM34.3637 19.7504C24.9854 0.613293 53.2941 -1.21914 44.2823 19.337C42.8962 18.7073 41.3551 18.3597 39.7341 18.3597C37.7842 18.3597 35.9565 18.8671 34.3637 19.7504Z" fill="#0065BD"/>
<path fill-rule="evenodd" clip-rule="evenodd" d="M39.7351 67.563C41.4876 64.2364 44.0859 61.5301 47.8072 59.3922C49.9779 58.1424 52.2661 57.2215 54.5543 56.2207C56.3914 55.422 58.3319 54.5292 59.9059 53.2747C60.8033 52.5606 61.5551 51.7383 62.1518 50.7563C62.7579 49.7555 63.9278 49.3045 65.0508 49.6475C66.169 49.9905 66.8926 51.0147 66.8362 52.1847C66.5167 58.8096 64.8675 65.0587 58.938 68.7611C53.3561 72.2474 46.6983 72.2333 41.8071 77.1715C41.5816 77.4816 41.2809 77.74 40.9191 77.9279C40.5385 78.1253 40.1345 78.2239 39.7351 78.2192C39.3357 78.2192 38.9316 78.1253 38.551 77.9279C38.1893 77.74 37.8886 77.4769 37.663 77.1715C32.7719 72.2286 26.114 72.2474 20.5322 68.7611C14.5979 65.054 12.9487 58.8096 12.6339 52.1847C12.5776 51.0147 13.3011 49.9905 14.4194 49.6475C15.5376 49.3045 16.7123 49.7508 17.3184 50.7563C17.9151 51.7383 18.6669 52.5606 19.5643 53.2747C21.1383 54.5339 23.0788 55.422 24.9159 56.2207C27.2041 57.2168 29.4923 58.1424 31.663 59.3922C35.3842 61.5347 37.9825 64.2364 39.7351 67.563ZM39.7492 75.6914L39.7445 75.6679C49.0006 65.9138 63.3264 72.5716 64.3131 52.0625C58.6185 61.4737 42.9724 57.339 39.7351 75.6163C36.4978 57.339 20.8517 61.469 15.157 52.0625C16.1437 72.5716 30.4696 65.9138 39.7257 75.6679L39.721 75.6914L39.7351 75.6773L39.7492 75.6914Z" fill="#0065BD"/>
<path fill-rule="evenodd" clip-rule="evenodd" d="M39.7484 75.6914L39.7437 75.6679C48.9998 65.9138 63.3256 72.5716 64.3123 52.0625C58.6177 61.4737 42.9716 57.339 39.7343 75.6163C36.497 57.339 20.8509 61.469 15.1562 52.0625C16.1429 72.5716 30.4688 65.9138 39.7249 75.6679L39.7202 75.6914L39.7343 75.6773L39.7484 75.6914Z" fill="url(#paint0_linear)"/>
<defs>
<linearGradient id="paint0_linear" x1="15.1563" y1="52.0625" x2="66.538" y2="68.8989" gradientUnits="userSpaceOnUse">
<stop stop-color="#E3EEFF"/>
<stop offset="0.526042" stop-color="#E4F6E4"/>
<stop offset="1" stop-color="#FFEEE4"/>
</linearGradient>
</defs>
</svg>
