<svg width="48" height="48" viewBox="0 0 48 48" fill="none" xmlns="http://www.w3.org/2000/svg">
<path fill-rule="evenodd" clip-rule="evenodd" d="M29.1499 7.78231C30.1225 7.117 31.2135 6.66876 32.4229 6.54754C35.2082 6.27408 37.8413 8.03321 38.5432 10.7593C39.1268 13.0174 38.1711 15.1402 36.3443 16.5075C35.9355 16.812 35.4957 17.077 35.0306 17.3053C36.0934 17.8156 37.0265 18.5344 37.7369 19.5239C39.3664 21.799 39.1606 24.9592 37.1478 26.9326C35.4845 28.5649 33.1672 28.7989 31.0697 27.9024C30.6018 27.7022 30.1507 27.4541 29.7222 27.1666C29.8096 28.3422 29.6574 29.5093 29.1555 30.6172C27.9997 33.1657 25.1609 34.5668 22.446 33.8113C20.1992 33.1854 18.8404 31.2994 18.5669 29.0328C18.5049 28.5282 18.4965 28.0123 18.5303 27.4964C17.5577 28.1617 16.4667 28.61 15.2573 28.7312C12.472 29.0047 9.83893 27.2455 9.13697 24.5194C8.55623 22.2613 9.5091 20.1385 11.3359 18.7712C11.7447 18.4668 12.1844 18.2018 12.6496 17.9734C11.5868 17.4632 10.6537 16.7443 9.94324 15.7548C8.31379 13.4798 8.51959 10.3195 10.5324 8.34614C12.1957 6.71387 14.513 6.47988 16.6105 7.37636C17.0784 7.57652 17.5267 7.8246 17.958 8.11215C17.8706 6.93658 18.0228 5.76946 18.5246 4.66155C19.6805 2.11306 22.5193 0.711957 25.2342 1.46748C27.481 2.09333 28.8398 3.97932 29.1133 6.24589C29.1753 6.75051 29.1837 7.26641 29.1499 7.78231ZM26.9425 13.5784L26.9482 13.5841C26.9848 13.6123 27.0187 13.6404 27.0553 13.6686L27.0638 13.6743C27.1201 13.7194 27.1737 13.7673 27.2301 13.8152C27.4472 14.0069 27.6501 14.2184 27.8306 14.4467L27.8334 14.4495C27.8785 14.5059 27.9208 14.5623 27.9631 14.6187L27.9715 14.63C27.9969 14.6638 28.0223 14.7004 28.0476 14.7371L28.0533 14.7455C28.0927 14.8047 28.1322 14.8639 28.1689 14.9231L28.1773 14.9344C28.1999 14.9711 28.2224 15.0049 28.2422 15.0415L28.2506 15.0556C28.2732 15.0951 28.2957 15.1346 28.3183 15.174L28.3211 15.1769L28.3549 15.2389L28.3634 15.2558C28.3803 15.2896 28.4 15.3235 28.4169 15.3573L28.431 15.3827C28.4508 15.4221 28.4705 15.4616 28.4874 15.5011V15.5039C28.5156 15.5659 28.5438 15.6307 28.572 15.6956L28.5833 15.7238C28.5974 15.7604 28.6115 15.7971 28.6256 15.8337L28.6312 15.8478L28.6537 15.9127L28.6622 15.9352C28.6735 15.969 28.6876 16.0057 28.6988 16.0395L28.7101 16.0762C28.7214 16.11 28.7327 16.1438 28.7411 16.1777L28.7496 16.2058L28.7693 16.2707V16.2735L28.7891 16.3468L28.8032 16.406L28.8116 16.4427C28.8201 16.4765 28.8285 16.5103 28.8342 16.5413L28.8426 16.5751L28.8567 16.64L28.8708 16.7133L28.8793 16.7697L28.8877 16.8176C28.8934 16.8458 28.8962 16.8768 28.9018 16.905L28.9103 16.9557L28.9159 17.0093V17.0149L28.9244 17.091C28.9441 17.2715 28.9526 17.4547 28.9526 17.638C28.9526 17.6633 28.9526 17.6859 28.9526 17.7113C28.9498 17.8409 28.9441 17.9678 28.9328 18.0947V18.1003C28.9216 18.2243 28.9046 18.3484 28.8849 18.4724L28.8821 18.4837C28.8539 18.6557 28.8173 18.8248 28.7721 18.9911V18.994C28.7524 19.0644 28.7327 19.1377 28.7101 19.2082V19.211C28.6566 19.3745 28.5974 19.5352 28.5297 19.6903L28.5269 19.6959C28.479 19.8059 28.4254 19.913 28.3718 20.0201L28.369 20.0258C28.3126 20.1329 28.2534 20.2372 28.1886 20.3387C28.0589 20.5445 27.918 20.7418 27.7629 20.925C27.3654 21.3987 26.8833 21.799 26.3421 22.1006L26.3082 22.1204L26.2462 22.1542L26.2406 22.157L26.2067 22.1767L26.1475 22.2078L26.1024 22.2303L26.0348 22.2613L26.0291 22.2641L25.9925 22.281L25.9869 22.2839L25.922 22.3149H25.9192L25.8825 22.3318L25.8769 22.3346L25.8177 22.36L25.7529 22.3854L25.7021 22.4051L25.6345 22.4305L25.5837 22.4502C25.5583 22.4587 25.533 22.4671 25.5076 22.4756L25.471 22.4868C25.4428 22.4953 25.4146 22.5066 25.3864 22.515L25.3554 22.5263C25.3272 22.5348 25.2962 22.5432 25.268 22.5517L25.2398 22.5601C25.2088 22.5686 25.1749 22.5771 25.1439 22.5855L25.1242 22.5912C25.0904 22.5996 25.0565 22.6081 25.0227 22.6165L24.9945 22.6222C24.9635 22.6306 24.9297 22.6363 24.8987 22.6419L24.8677 22.6475C24.8338 22.6532 24.8 22.6616 24.7662 22.6673L24.7493 22.6701C24.7126 22.6757 24.6788 22.6814 24.6421 22.687L24.6224 22.6898C24.5858 22.6955 24.5491 22.7011 24.5096 22.7067L24.4984 22.7096C24.4589 22.7152 24.4222 22.718 24.3828 22.7236L24.3687 22.7265C24.3292 22.7293 24.2897 22.7349 24.2503 22.7377H24.2446C24.2024 22.7406 24.1601 22.7434 24.1178 22.7462H24.115C24.0276 22.7518 23.9402 22.7518 23.8528 22.7518C23.8105 22.7518 23.7654 22.7518 23.7231 22.749H23.7203H23.7146C23.6724 22.749 23.6329 22.7462 23.5934 22.7434H23.5878C23.5455 22.7406 23.506 22.7377 23.4637 22.7349H23.4581C23.4186 22.7321 23.3764 22.7293 23.3369 22.7236H23.3228C23.2833 22.7208 23.2467 22.7152 23.2072 22.7096H23.2016H23.1959C23.1593 22.7039 23.1226 22.7011 23.086 22.6955L23.0606 22.6926C23.0268 22.687 22.9901 22.6814 22.9563 22.6757L22.9366 22.6729C22.9056 22.6673 22.8745 22.6616 22.8407 22.656L22.8012 22.6475C22.7731 22.6419 22.742 22.6363 22.7139 22.6278L22.68 22.6193C22.6518 22.6137 22.6208 22.6052 22.5926 22.5968L22.5532 22.5883L22.4742 22.5658L22.4291 22.5517L22.3586 22.5291L22.3079 22.5122L22.2402 22.4897L22.181 22.4699L22.1754 22.4671L22.1444 22.4558L22.1359 22.453C22.1077 22.4446 22.0796 22.4333 22.0542 22.422H22.0514L22.0204 22.4107L22.0091 22.4079L21.9358 22.3797L21.9273 22.3769L21.8963 22.3656L21.8907 22.3628L21.8146 22.3318L21.8061 22.329L21.7751 22.3149C21.5834 22.2303 21.4001 22.1345 21.2225 22.0301L21.1633 21.9935L21.1549 21.9879C21.1182 21.9653 21.0844 21.9428 21.0478 21.9202L21.0308 21.9089C20.9942 21.8836 20.9575 21.861 20.9209 21.8356L20.9153 21.8328L20.8589 21.7933L20.8476 21.7849C20.8138 21.7595 20.7799 21.737 20.7489 21.7116L20.732 21.6975C20.701 21.6749 20.67 21.6496 20.6418 21.627L20.6221 21.6101C20.5685 21.5678 20.5178 21.5227 20.4642 21.4776L20.4529 21.4663C20.4219 21.4381 20.3909 21.4128 20.3627 21.3846L20.3486 21.3705C20.2979 21.3225 20.2471 21.2746 20.1992 21.2239L20.1907 21.2154C20.1597 21.1844 20.1315 21.1534 20.1005 21.1224L20.0893 21.1111L20.0442 21.0604L19.9962 21.0068L19.9539 20.9589L19.9342 20.9363C19.9117 20.911 19.8919 20.8856 19.8694 20.8602L19.8468 20.832L19.8102 20.7841L19.7651 20.7249L19.7228 20.6685L19.7143 20.6572C19.6918 20.6234 19.6664 20.5924 19.6438 20.5586L19.6297 20.5388C19.6044 20.5022 19.579 20.4655 19.5564 20.4289L19.5536 20.4261L19.517 20.3697L19.5001 20.3443C19.4803 20.3133 19.4606 20.2795 19.4409 20.2485L19.4324 20.2344C19.4098 20.1949 19.3873 20.1554 19.3647 20.116L19.3619 20.1131L19.3309 20.0539L19.3168 20.0258C19.2999 19.9947 19.283 19.9637 19.2689 19.9299L19.2548 19.9045C19.2407 19.8735 19.2238 19.8425 19.2097 19.8115L19.1956 19.7805L19.1702 19.7213L19.1589 19.6987C19.1449 19.6649 19.1279 19.6283 19.1138 19.5944L19.1026 19.5662C19.0885 19.5296 19.0744 19.4929 19.0603 19.4563L19.0546 19.4422L19.0321 19.3774L19.0236 19.3548C19.0124 19.321 18.9983 19.2843 18.987 19.2505L18.9757 19.2138C18.9672 19.1857 18.9588 19.1575 18.9475 19.1265L18.9334 19.0813L18.9165 19.025V19.0221L18.8968 18.9488L18.8827 18.8896L18.8742 18.853C18.8658 18.8192 18.8573 18.7853 18.8517 18.7543L18.8432 18.7205L18.8291 18.6557L18.815 18.5824L18.8066 18.526L18.7981 18.4781C18.7925 18.4499 18.7896 18.4189 18.784 18.3907L18.7755 18.3399L18.7699 18.2864V18.2807L18.7614 18.2046C18.7417 18.0242 18.7333 17.8409 18.7333 17.6577C18.7333 17.6323 18.7333 17.6098 18.7333 17.5844C18.7361 17.4547 18.7417 17.3279 18.753 17.201V17.1954C18.7643 17.0713 18.7812 16.9473 18.8009 16.8232L18.8037 16.812C18.8235 16.6907 18.8488 16.5695 18.877 16.4483V16.4455C18.8883 16.4004 18.8996 16.3524 18.9137 16.3073L18.9165 16.2989C18.9362 16.2284 18.956 16.1579 18.9785 16.0903L18.9813 16.0818C19.1477 15.5659 19.3958 15.0838 19.7087 14.6553C20.0216 14.224 20.3994 13.8434 20.8307 13.5277H20.8335C20.9998 13.4065 21.1746 13.2937 21.355 13.1922L21.3579 13.1894C21.3889 13.1725 21.4199 13.1556 21.4509 13.1386L21.4847 13.1217C21.5073 13.1104 21.5326 13.0964 21.5552 13.0851L21.5665 13.0794L21.6031 13.0625H21.6059L21.6651 13.0343L21.7159 13.0118L21.7807 12.9836L21.7864 12.9808L21.823 12.9639L21.8315 12.961L21.8907 12.9357L21.9527 12.9103L22.0034 12.8906L22.0683 12.8652L22.1162 12.8483L22.1895 12.8229L22.2318 12.8088C22.26 12.8003 22.2882 12.7919 22.3164 12.7806L22.3474 12.7722C22.3784 12.7637 22.4094 12.7524 22.4404 12.744L22.463 12.7383C22.4968 12.7299 22.5306 12.7186 22.5644 12.7101L22.5814 12.7073C22.6152 12.6989 22.6518 12.6904 22.6857 12.6819L22.7082 12.6763C22.742 12.6678 22.7759 12.6622 22.8097 12.6538L22.8351 12.6481C22.8689 12.6397 22.9056 12.634 22.9394 12.6284L22.9535 12.6256C22.9901 12.6199 23.0268 12.6143 23.0634 12.6086L23.0803 12.6058C23.117 12.6002 23.1565 12.5946 23.1931 12.5889L23.2044 12.5861C23.2439 12.5805 23.2833 12.5776 23.32 12.572H23.3341C23.3735 12.5692 23.413 12.5635 23.4553 12.5607H23.4581C23.5004 12.5579 23.5427 12.5551 23.585 12.5523H23.5878C23.6752 12.5466 23.7626 12.5466 23.85 12.5466C23.8922 12.5466 23.9374 12.5466 23.9796 12.5494H23.9853C24.0699 12.5523 24.1544 12.5551 24.239 12.5635H24.2446C24.2841 12.5664 24.3264 12.5692 24.3659 12.5748H24.3743C24.4138 12.5776 24.4533 12.5833 24.4927 12.5889H24.4984H24.504C24.5435 12.5946 24.5829 12.6002 24.6224 12.6058H24.628H24.6337C24.6731 12.6115 24.7098 12.6171 24.7493 12.6256H24.7549H24.7605C24.7972 12.6312 24.831 12.6397 24.8677 12.6453L24.893 12.6509C24.9269 12.6594 24.9607 12.665 24.9945 12.6735L25.0227 12.6791C25.0537 12.6876 25.0876 12.6932 25.1186 12.7017L25.1439 12.7073C25.1749 12.7158 25.2031 12.7242 25.2342 12.7327L25.268 12.7411C25.2962 12.7496 25.3244 12.7581 25.3497 12.7665L25.3892 12.7778C25.4146 12.7863 25.4428 12.7947 25.4681 12.8032L25.5217 12.8229L25.5724 12.8398L25.6373 12.8624L25.6937 12.8849L25.7557 12.9103L25.8008 12.9272C25.829 12.9385 25.8544 12.9498 25.8825 12.961L25.8854 12.9639L25.9164 12.978C26.2857 13.1415 26.6324 13.3473 26.951 13.5897L26.9425 13.5784ZM27.247 11.9574C34.3766 1.34344 43.8206 15.5039 30.4354 16.9867C30.224 14.8498 29.0005 13.009 27.247 11.9574ZM30.4664 17.7507C43.2258 18.619 35.6818 33.8789 27.7065 23.0281C29.3529 21.8441 30.4326 19.9243 30.4664 17.7507ZM27.0609 23.4369C32.6879 34.9192 15.7027 36.0186 21.1098 23.685C21.9414 24.0627 22.8661 24.2713 23.8415 24.2713C25.0114 24.2713 26.1081 23.9669 27.0638 23.4369H27.0609ZM20.4332 23.3298C13.3036 33.9437 3.85676 19.7833 17.2448 18.3005C17.4562 20.4373 18.6797 22.2782 20.4332 23.3298ZM17.2138 17.5365C4.45441 16.6682 11.9984 1.40828 19.9737 12.2591C18.3273 13.4431 17.2476 15.3629 17.2138 17.5365ZM20.6193 11.8503C14.9923 0.368025 31.9775 -0.731433 26.5704 11.6022C25.7388 11.2245 24.8141 11.0158 23.8415 11.0158C22.6716 11.0158 21.5749 11.3203 20.6193 11.8503Z" fill="#7ECA1D"/>
<path fill-rule="evenodd" clip-rule="evenodd" d="M23.8415 40.5378C24.893 38.5419 26.452 36.9181 28.6848 35.6354C29.9872 34.8855 31.3601 34.3329 32.733 33.7325C33.8353 33.2532 34.9996 32.7176 35.944 31.9649C36.4824 31.5364 36.9335 31.043 37.2915 30.4538C37.6552 29.8534 38.3572 29.5827 39.0309 29.7885C39.7019 29.9943 40.136 30.6089 40.1022 31.3109C39.9105 35.2858 38.921 39.0352 35.3633 41.2567C32.0141 43.3485 28.0194 43.34 25.0847 46.3029C24.9494 46.489 24.769 46.644 24.5519 46.7568C24.3236 46.8752 24.0811 46.9344 23.8415 46.9316C23.6019 46.9316 23.3594 46.8752 23.1311 46.7568C22.914 46.644 22.7336 46.4862 22.5983 46.3029C19.6636 43.3372 15.6689 43.3485 12.3198 41.2567C8.75922 39.0324 7.76971 35.2858 7.58082 31.3109C7.547 30.6089 7.98114 29.9943 8.65209 29.7885C9.32304 29.5827 10.0278 29.8505 10.3915 30.4538C10.7495 31.043 11.2006 31.5364 11.739 31.9649C12.6834 32.7204 13.8477 33.2532 14.95 33.7325C16.3229 34.3301 17.6958 34.8855 18.9983 35.6354C21.231 36.9209 22.79 38.5419 23.8415 40.5378ZM23.85 45.4149L23.8471 45.4008C29.4008 39.5483 37.9963 43.543 38.5883 31.2376C35.1716 36.8843 25.7839 34.4034 23.8415 45.3698C21.8991 34.4034 12.5115 36.8814 9.09469 31.2376C9.68671 43.543 18.2822 39.5483 23.8359 45.4008L23.8331 45.4149L23.8415 45.4065L23.85 45.4149Z" fill="#7ECA1D"/>
<path fill-rule="evenodd" clip-rule="evenodd" d="M23.85 45.4149L23.8472 45.4008C29.4009 39.5483 37.9964 43.543 38.5884 31.2375C35.1716 36.8842 25.7839 34.4034 23.8415 45.3698C21.8992 34.4034 12.5115 36.8814 9.09473 31.2375C9.68674 43.543 18.2822 39.5483 23.8359 45.4008L23.8331 45.4149L23.8415 45.4064L23.85 45.4149Z" fill="url(#paint0_linear)"/>
<defs>
<linearGradient id="paint0_linear" x1="9.09473" y1="31.2375" x2="39.9238" y2="41.3394" gradientUnits="userSpaceOnUse">
<stop stop-color="#E3EEFF"/>
<stop offset="0.526042" stop-color="#E4F6E4"/>
<stop offset="1" stop-color="#FFEEE4"/>
</linearGradient>
</defs>
</svg>
