<svg width="48" height="48" viewBox="0 0 48 48" fill="none" xmlns="http://www.w3.org/2000/svg">
<path fill-rule="evenodd" clip-rule="evenodd" d="M8.26084 12.6316H15.3616V22.0979H32.6368V12.6316H39.7375V17.3649H44.4162V22.0979H46.7369V26.831H44.4162V31.5644H39.7375V36.2975H32.6368V26.831H15.3616V36.2975H8.26084V31.5644H3.58222V26.831H1.26318V22.0979H3.58222V17.3649H8.26084V12.6316ZM3.58222 23.2807H2.44599V25.6482H3.58222V23.2807ZM8.26084 18.5477V30.3816H4.76502V18.5477H8.26084ZM15.3616 25.6482H32.6368V23.2807H15.3616V25.6482ZM9.4456 13.8144H14.1788V35.1147H9.4456V13.8144ZM44.4162 25.6482V23.2807H45.5521V25.6482H44.4162ZM39.7375 30.3816V18.5477H43.2334V30.3816H39.7375ZM33.8196 13.8144H38.5528V35.1147H33.8196V13.8144Z" fill="#7ECA1D"/>
<path fill-rule="evenodd" clip-rule="evenodd" d="M4.76492 18.5473H8.26082V30.3813H4.76492V18.5473ZM2.44589 23.2805H3.58201V25.6481H2.44589V23.2805ZM43.2313 18.5473H39.7354V30.3813H43.2313V18.5473ZM44.4144 23.2805H45.5505V25.6481H44.4144V23.2805Z" fill="url(#paint0_linear)"/>
<defs>
<linearGradient id="paint0_linear" x1="2.44592" y1="18.5474" x2="39.984" y2="40.0839" gradientUnits="userSpaceOnUse">
<stop stop-color="#E3EEFF"/>
<stop offset="0.526042" stop-color="#E4F6E4"/>
<stop offset="1" stop-color="#FFEEE4"/>
</linearGradient>
</defs>
</svg>
