<svg width="48" height="48" viewBox="0 0 48 48" fill="none" xmlns="http://www.w3.org/2000/svg">
<path fill-rule="evenodd" clip-rule="evenodd" d="M14.1234 9.28972C14.4531 5.5137 17.6458 2.52637 21.503 2.52637H26.1361C29.9933 2.52637 33.186 5.5137 33.5157 9.28972H37.7888C41.1261 9.28972 43.8522 12.0159 43.8522 15.3531V39.4623C43.8522 42.7996 41.1261 45.5258 37.7888 45.5258H9.85286C6.51556 45.5258 3.78943 42.7996 3.78943 39.4623V15.3531C3.78943 12.0159 6.51556 9.28972 9.85286 9.28972H14.1259H14.1234ZM31.9916 9.28972C31.667 6.35056 29.159 4.04286 26.1336 4.04286H21.5004C18.4776 4.04286 15.967 6.35056 15.6424 9.28972H31.9891H31.9916ZM9.85032 10.8062H37.7862C40.2867 10.8062 42.3332 12.8527 42.3332 15.3531V39.4623C42.3332 41.9628 40.2867 44.0093 37.7862 44.0093H9.85032C7.34989 44.0093 5.30338 41.9628 5.30338 39.4623V15.3531C5.30338 12.8527 7.34989 10.8062 9.85032 10.8062Z" fill="#7ECA1D"/>
<path fill-rule="evenodd" clip-rule="evenodd" d="M19.5029 23.3389C20.393 22.7861 21.1513 21.9213 21.6787 21.0591C22.1149 20.3465 22.8453 19.9078 23.6796 19.8596C24.5088 19.8114 25.2925 20.1664 25.8022 20.8232C26.4083 21.5992 27.2857 22.6897 28.1936 23.3262C29.0558 22.7429 29.8064 21.6221 30.3542 20.879C31.0287 19.961 32.2232 19.6136 33.2857 20.027C34.3483 20.4378 34.995 21.4978 34.8758 22.6314L33.8157 32.7092C33.7346 33.4826 33.3187 34.1521 32.6619 34.568C32.0583 34.951 31.3457 35.0575 30.6661 34.8723C27.798 34.4869 25.0211 34.4235 22.1301 34.5604C20.3448 34.6441 18.5621 34.7912 16.7818 34.918C16.1174 35.0422 15.4479 34.8977 14.8875 34.5072C14.2814 34.0837 13.9061 33.4446 13.8275 32.7117L12.7674 22.6339C12.6483 21.5105 13.2848 20.4581 14.3321 20.0396C15.382 19.6212 16.5663 19.9458 17.2561 20.841C17.7759 21.5156 18.6534 22.7404 19.5029 23.3414V23.3389ZM28.1454 25.043C29.6543 24.5105 30.6661 23.0118 31.574 21.7793C31.8453 21.4116 32.3094 21.2772 32.7354 21.442C33.1615 21.6068 33.4125 22.0202 33.3669 22.4741L32.3069 32.552C32.2739 32.8639 32.1141 33.12 31.8504 33.2899C31.5841 33.4573 31.2849 33.4928 30.9882 33.3888C25.5689 32.6458 21.4759 33.0668 16.5688 33.4142C16.2797 33.4877 16.0008 33.437 15.7548 33.2646C15.5088 33.0921 15.3668 32.8487 15.3338 32.552L14.2738 22.4741C14.2256 22.0253 14.4741 21.6119 14.8951 21.4445C15.3161 21.2772 15.7776 21.404 16.054 21.7615C16.9162 22.885 18.0929 24.5359 19.5004 25.0456C20.9509 24.4293 22.1631 23.1715 22.9721 21.8503C23.147 21.5637 23.4285 21.3938 23.7658 21.3761C24.1031 21.3558 24.3998 21.4927 24.6077 21.759C25.5131 22.9205 26.7532 24.4167 28.1479 25.0456L28.1454 25.043Z" fill="#7ECA1D"/>
<path fill-rule="evenodd" clip-rule="evenodd" d="M28.1453 25.0406C29.6542 24.508 30.6661 23.0093 31.5739 21.7768C31.8453 21.4091 32.3094 21.2747 32.7354 21.4396C33.1614 21.6044 33.4125 22.0178 33.3668 22.4717L32.3068 32.5495C32.2739 32.8614 32.1141 33.1176 31.8504 33.2875C31.5841 33.4548 31.2848 33.4903 30.9881 33.3864C25.5688 32.6433 21.4758 33.0643 16.5688 33.4117C16.2797 33.4853 16.0007 33.4345 15.7547 33.2621C15.5088 33.0897 15.3667 32.8462 15.3338 32.5495L14.2738 22.4717C14.2256 22.0228 14.4741 21.6095 14.8951 21.4421C15.316 21.2747 15.7776 21.4015 16.054 21.7591C16.9162 22.8825 18.0929 24.5334 19.5003 25.0431C20.9509 24.4269 22.1631 23.1691 22.972 21.8478C23.147 21.5613 23.4285 21.3914 23.7658 21.3736C24.1031 21.3533 24.3998 21.4903 24.6077 21.7566C25.513 22.918 26.7531 24.4142 28.1479 25.0431L28.1453 25.0406Z" fill="url(#paint0_linear)"/>
<defs>
<linearGradient id="paint0_linear" x1="14.2678" y1="21.3691" x2="35.0885" y2="26.5574" gradientUnits="userSpaceOnUse">
<stop stop-color="#E3EEFF"/>
<stop offset="0.526042" stop-color="#E4F6E4"/>
<stop offset="1" stop-color="#FFEEE4"/>
</linearGradient>
</defs>
</svg>
