<svg width="48" height="48" viewBox="0 0 48 48" fill="none" xmlns="http://www.w3.org/2000/svg">
<path fill-rule="evenodd" clip-rule="evenodd" d="M37.4946 2.68237C34.0709 2.72324 30.6789 3.42706 27.5095 4.75296C23.8996 6.26503 20.6302 8.55357 18.0011 11.4597C14.7636 15.0332 12.5977 19.4105 11.8303 24.1783C11.1083 28.66 11.6804 33.1508 13.188 37.3737C15.0678 22.3756 24.4036 9.61157 37.4946 2.68691V2.68237Z" fill="url(#paint0_linear)"/>
<path fill-rule="evenodd" clip-rule="evenodd" d="M12.9155 40.4525C3.22555 19.1518 20.1989 0.235 39.3472 1.30662C39.4063 5.5613 38.5072 9.88864 36.9634 14.048L32.1184 15.1014L34.7611 19.0655C29.5665 29.3095 20.9663 37.7598 14.3277 40.23C14.3277 40.8248 14.3459 41.4242 14.3731 42.0236C14.4458 43.4766 14.6047 44.9296 14.8544 46.3645L13.4831 46.7369C13.1244 44.689 12.9337 42.5866 12.9155 40.4525ZM19.8129 19.9873L21.5702 19.1382L22.1877 20.4096L18.6732 22.1078C18.0057 23.4428 17.4063 24.805 16.8887 26.199L21.5293 23.9559L22.1469 25.2273L16.2393 28.0834C15.808 29.4366 15.4447 30.817 15.1541 32.2065L21.4431 29.1687L22.0606 30.4401L14.8408 33.9319C14.5865 35.5076 14.4276 37.0968 14.3686 38.6997C17.6742 37.333 20.9981 34.6085 23.3683 32.2882C27.228 28.5148 30.6063 23.9423 33.1355 19.1518L29.8026 14.157L35.9099 12.8265C36.9724 9.79783 37.699 6.61476 37.8942 3.40445C36.7726 3.90393 35.6783 4.4579 34.6158 5.06182C28.4267 8.59453 23.3638 13.8209 19.8265 19.9827L19.8129 19.9873ZM35.978 2.7415C28.8263 6.26058 22.4602 12.1908 18.1465 20.0736C15.1632 25.5225 13.4967 31.2938 13.0427 36.9515C11.6441 32.8512 11.131 28.5103 11.8303 24.1739C12.5977 19.4061 14.7591 15.0288 18.0012 11.4552C20.6303 8.55366 23.8996 6.26058 27.5095 4.74851C30.2113 3.61786 33.0719 2.93675 35.978 2.73696V2.7415Z" fill="#7ECA1D"/>
<defs>
<linearGradient id="paint0_linear" x1="11.5199" y1="2.68237" x2="41.1734" y2="6.17952" gradientUnits="userSpaceOnUse">
<stop stop-color="#E3EEFF"/>
<stop offset="0.526042" stop-color="#E4F6E4"/>
<stop offset="1" stop-color="#FFEEE4"/>
</linearGradient>
</defs>
</svg>
