<svg width="48" height="48" viewBox="0 0 48 48" fill="none" xmlns="http://www.w3.org/2000/svg">
<path fill-rule="evenodd" clip-rule="evenodd" d="M8.94879 23.4898C19.0602 21.0036 29.0935 21.1136 39.0511 23.6669C38.8751 25.8122 37.7027 28.3918 34.9965 31.6391C27.3768 30.0633 20.2408 30.0466 13.6945 31.9346C10.7622 29.343 9.50238 26.4751 8.94879 23.4898Z" fill="url(#paint0_linear)"/>
<path fill-rule="evenodd" clip-rule="evenodd" d="M8.70682 17.6502C16.3003 18.4975 19.0358 12.2108 24.0009 12.7539C28.9649 12.2096 31.7004 18.4963 39.2939 17.6502C46.3527 12.2321 52.1729 24.4598 38.2384 27.4966C38.2534 27.4663 38.2672 27.436 38.2822 27.4046C35.9592 32.3345 30.3039 36.4878 23.9998 36.4171C17.6957 36.4878 12.0415 32.3345 9.71737 27.4046C9.73119 27.4349 9.74617 27.4652 9.76115 27.4966C-4.17213 24.4598 1.64685 12.2321 8.70567 17.6502H8.70682ZM38.3076 23.2894C34.0015 22.2558 29.1435 21.6734 23.9998 21.6734C18.8572 21.6734 13.9981 22.2558 9.69202 23.2894C9.6851 23.194 9.68049 23.0986 9.67704 23.0032C9.67704 21.5926 9.67704 20.1819 9.67704 18.7702C12.2892 18.8532 14.5569 18.1462 16.8914 16.813C17.8812 16.2474 18.8192 15.61 19.7974 15.0276C20.5729 14.5652 21.4152 14.1152 22.3025 13.9008C22.8245 13.7751 23.3453 13.7359 23.88 13.7942L23.9998 13.8077L24.1196 13.7942C24.6543 13.7359 25.1751 13.7751 25.6971 13.9008C26.5843 14.1152 27.4278 14.5652 28.2021 15.0276C29.1793 15.61 30.1184 16.2474 31.1082 16.813C33.4427 18.1462 35.7103 18.8543 38.3225 18.7702C38.3225 20.1808 38.3225 21.5926 38.3225 23.0032C38.3191 23.0986 38.3145 23.194 38.3076 23.2894ZM9.82107 24.3083C14.0683 23.2938 18.8883 22.7193 23.9998 22.7193C29.1101 22.7193 33.9312 23.2927 38.1785 24.3083C37.7107 26.8636 36.1931 29.2596 34.3253 31.0765C31.2487 30.2875 27.7332 29.8398 24.0009 29.8398C20.2676 29.8398 16.7531 30.2875 13.6754 31.0765C11.8064 29.2607 10.29 26.8648 9.82222 24.3083H9.82107ZM14.5949 31.9013C17.4215 31.2515 20.6156 30.8857 23.9998 30.8857C27.384 30.8857 30.5781 31.2515 33.4046 31.9013C30.7947 34.0638 27.467 35.4082 24.0125 35.3701H23.9998H23.9871C20.5326 35.4082 17.2048 34.0638 14.5949 31.9013ZM39.3965 18.9419V23.02C39.3619 24.039 39.1625 25.0658 38.8203 26.0747C38.8503 25.9883 38.8779 25.9019 38.9056 25.8155L38.8998 26.2599C41.3945 25.5922 44.1634 24.3207 45.2546 22.0493C45.9079 20.6892 45.8273 18.9464 44.5771 17.9319C43.9099 17.3898 43.0768 17.2316 42.231 17.3831C41.1756 17.5728 40.2007 18.2102 39.3965 18.943V18.9419ZM38.8053 26.1185C38.7777 26.2004 38.7477 26.2823 38.7178 26.3643C38.7477 26.2823 38.7777 26.2004 38.8053 26.1185ZM38.6913 26.4361C38.6648 26.5068 38.6383 26.5764 38.6106 26.6471C38.6383 26.5775 38.6659 26.5068 38.6913 26.4361ZM38.5645 26.7604C38.5415 26.8154 38.5184 26.8715 38.4954 26.9265C38.5184 26.8715 38.5415 26.8154 38.5645 26.7604ZM38.4239 27.0915C38.4067 27.1296 38.3894 27.1689 38.3721 27.207C38.3894 27.1689 38.4067 27.1296 38.4239 27.0915ZM9.62749 27.207C9.6102 27.1689 9.59292 27.1296 9.57564 27.0915C9.59292 27.1296 9.6102 27.1689 9.62749 27.207ZM9.5042 26.9265C9.48115 26.8715 9.4581 26.8154 9.43506 26.7604C9.4581 26.8154 9.48115 26.8715 9.5042 26.9265ZM9.38897 26.6459C9.36131 26.5764 9.33366 26.5057 9.30831 26.435C9.33481 26.5057 9.36131 26.5752 9.38897 26.6459ZM9.28065 26.3631C9.2507 26.2812 9.22074 26.1993 9.19308 26.1174C9.22074 26.1993 9.2507 26.2812 9.28065 26.3631ZM9.1781 26.0725C8.83588 25.0636 8.63653 24.0368 8.60197 23.0178V18.9396C7.79768 18.2068 6.82401 17.5694 5.76737 17.3797C4.92276 17.2282 4.08967 17.3865 3.42135 17.9285C2.17113 18.943 2.08932 20.6869 2.74381 22.0459C3.83501 24.3173 6.60392 25.5888 9.09859 26.2565L9.09283 25.8121C9.12049 25.8985 9.14814 25.9849 9.1781 26.0714V26.0725Z" fill="#7ECA1D"/>
<path fill-rule="evenodd" clip-rule="evenodd" d="M12.3368 8.26208C12.5844 8.04462 12.9892 8.04462 13.238 8.26208L15.0391 9.84427C15.2866 10.0617 15.2866 10.4174 15.0391 10.6359C14.7915 10.8534 14.3867 10.8534 14.1379 10.6359L12.3368 9.05371C12.0893 8.83625 12.0893 8.48061 12.3368 8.26208ZM35.6631 8.26208C35.9106 8.47954 35.9106 8.83518 35.6631 9.05371L33.862 10.6359C33.6145 10.8534 33.2096 10.8534 32.9609 10.6359C32.7133 10.4184 32.7133 10.0628 32.9609 9.84427L34.7619 8.26208C35.0095 8.04462 35.4143 8.04462 35.6631 8.26208ZM23.9994 6.31567C24.3493 6.31567 24.6359 6.56741 24.6359 6.87485V9.11263C24.6359 9.42007 24.3493 9.6718 23.9994 9.6718C23.6494 9.6718 23.3628 9.42007 23.3628 9.11263V6.87485C23.3628 6.56741 23.6494 6.31567 23.9994 6.31567V6.31567Z" fill="#7ECA1D"/>
<path fill-rule="evenodd" clip-rule="evenodd" d="M12.3368 40.5983C12.5844 40.8468 12.9892 40.8468 13.238 40.5983L15.0391 38.7901C15.2866 38.5416 15.2866 38.1351 15.0391 37.8854C14.7915 37.6368 14.3867 37.6368 14.1379 37.8854L12.3368 39.6936C12.0893 39.9421 12.0893 40.3486 12.3368 40.5983ZM35.6631 40.5983C35.9106 40.3498 35.9106 39.9433 35.6631 39.6936L33.862 37.8854C33.6145 37.6368 33.2096 37.6368 32.9609 37.8854C32.7133 38.1339 32.7133 38.5403 32.9609 38.7901L34.7619 40.5983C35.0095 40.8468 35.4143 40.8468 35.6631 40.5983ZM23.9994 42.8228C24.3493 42.8228 24.6359 42.5351 24.6359 42.1837V39.6263C24.6359 39.2749 24.3493 38.9872 23.9994 38.9872C23.6494 38.9872 23.3628 39.2749 23.3628 39.6263V42.1837C23.3628 42.5351 23.6494 42.8228 23.9994 42.8228Z" fill="#7ECA1D"/>
<defs>
<linearGradient id="paint0_linear" x1="8.94879" y1="21.687" x2="37.6485" y2="34.966" gradientUnits="userSpaceOnUse">
<stop stop-color="#E3EEFF"/>
<stop offset="0.526042" stop-color="#E4F6E4"/>
<stop offset="1" stop-color="#FFEEE4"/>
</linearGradient>
</defs>
</svg>
