<svg width="48" height="48" viewBox="0 0 48 48" fill="none" xmlns="http://www.w3.org/2000/svg">
<path fill-rule="evenodd" clip-rule="evenodd" d="M8.70687 15.1677C16.3003 16.0371 19.0363 9.58067 24.0011 10.1396C28.9648 9.58067 31.7008 16.0382 39.2942 15.1677C46.3531 9.60278 52.1723 22.161 38.2388 25.2797C38.2535 25.2482 38.2682 25.2176 38.2819 25.1861C35.9584 30.25 30.3044 34.515 24 34.4423C17.6957 34.515 12.0416 30.25 9.71813 25.1861C9.73287 25.2176 9.74655 25.2492 9.76128 25.2797C-4.1723 22.161 1.64695 9.60278 8.70582 15.1677H8.70687ZM38.3082 20.9589C34.0022 19.8969 29.1437 19.299 24 19.299C18.8574 19.299 13.9979 19.8969 9.69183 20.9579C9.68551 20.86 9.68025 20.7621 9.67709 20.6642C9.67709 19.2148 9.67709 17.7665 9.67709 16.3171C12.2889 16.4024 14.5566 15.6761 16.8917 14.3067C17.8819 13.7257 18.8195 13.071 19.7971 12.4731C20.5727 11.9984 21.4145 11.5363 22.3027 11.3164C22.8246 11.1869 23.3455 11.1469 23.8801 11.2069L24 11.2206L24.12 11.2069C24.6546 11.1469 25.1754 11.1869 25.6974 11.3164C26.5845 11.5363 27.4274 11.9984 28.2029 12.4731C29.1805 13.071 30.1192 13.7267 31.1083 14.3067C33.4424 15.6761 35.7111 16.4024 38.323 16.3171C38.323 17.7665 38.323 19.2148 38.323 20.6642C38.3198 20.7621 38.3145 20.86 38.3082 20.9579V20.9589ZM9.82231 22.0062C14.0694 20.9642 18.89 20.3748 24.0011 20.3748C29.1121 20.3748 33.9317 20.9642 38.1798 22.0062C37.7116 24.6313 36.1952 27.0923 34.3263 28.9574C31.2494 28.1469 27.7347 27.687 24.0011 27.687C20.2675 27.687 16.7528 28.1469 13.6759 28.9574C11.807 27.0923 10.2906 24.6313 9.82231 22.0073V22.0062ZM14.5966 29.8047C17.4231 29.1374 20.6179 28.7616 24.0011 28.7616C27.3853 28.7616 30.5801 29.1374 33.4055 29.8047C30.7958 32.0256 27.4674 33.4066 24.0127 33.3666H24H23.9874C20.5327 33.4066 17.2042 32.0246 14.5945 29.8047H14.5966ZM39.3984 16.4939V20.6832C39.3637 21.7294 39.1637 22.7841 38.8217 23.8198C38.8512 23.7314 38.8796 23.6419 38.907 23.5535L38.9017 24.0093C41.3967 23.3241 44.1654 22.0178 45.2566 19.6853C45.9101 18.2886 45.829 16.4982 44.5789 15.4561C43.9117 14.8993 43.0783 14.7372 42.2333 14.893C41.1779 15.0877 40.2034 15.7424 39.3995 16.495L39.3984 16.4939ZM38.807 23.8651C38.7786 23.9493 38.7491 24.0335 38.7197 24.1177C38.7502 24.0335 38.7786 23.9493 38.807 23.8651ZM38.6923 24.1914C38.666 24.264 38.6386 24.3356 38.6113 24.4072C38.6386 24.3356 38.666 24.263 38.6923 24.1914ZM38.565 24.525C38.5429 24.5819 38.5197 24.6387 38.4955 24.6956C38.5187 24.6387 38.5418 24.5819 38.565 24.525ZM38.425 24.865C38.4082 24.905 38.3903 24.944 38.3735 24.984C38.3914 24.944 38.4082 24.905 38.425 24.865ZM9.62869 24.984C9.6108 24.944 9.59396 24.905 9.57712 24.865C9.59396 24.905 9.61185 24.944 9.62869 24.984ZM9.50557 24.6956C9.48242 24.6387 9.45927 24.5819 9.43612 24.525C9.45821 24.5819 9.48137 24.6387 9.50557 24.6956ZM9.39087 24.4082C9.36351 24.3366 9.33615 24.264 9.30984 24.1924C9.33615 24.2651 9.36351 24.3366 9.39087 24.4082ZM9.28248 24.1187C9.25196 24.0345 9.22355 23.9503 9.19514 23.8661C9.22355 23.9503 9.25301 24.0345 9.28248 24.1187ZM9.17935 23.8209C8.83735 22.7851 8.63742 21.7305 8.60269 20.6842V16.495C7.79873 15.7424 6.82429 15.0877 5.76883 14.893C4.92383 14.7372 4.0904 14.9004 3.42324 15.4561C2.17205 16.4982 2.09102 18.2886 2.74556 19.6853C3.8368 22.0178 6.60541 23.3241 9.10043 24.0093L9.09517 23.5535C9.12253 23.643 9.15094 23.7314 9.18041 23.8198L9.17935 23.8209Z" fill="#7ECA1D"/>
<path fill-rule="evenodd" clip-rule="evenodd" d="M39.5917 19.0268L34.7526 16.2329L33.8002 17.8824L38.6394 20.6763L39.5917 19.0268ZM27.5325 16.2329L22.6934 19.0268L23.6457 20.6763L28.4848 17.8824L27.5325 16.2329ZM31.1431 35.7914C35.8023 35.7914 39.5794 32.0143 39.5794 27.3551C39.5794 22.6958 35.8023 18.9187 31.1431 18.9187C26.4838 18.9187 22.7068 22.6958 22.7068 27.3551C22.7068 32.0143 26.4838 35.7914 31.1431 35.7914Z" fill="url(#paint0_linear)"/>
<path fill-rule="evenodd" clip-rule="evenodd" d="M31.3208 23.0156C31.6194 23.0156 31.8639 23.2588 31.8639 23.5559V26.9835H36.5436C36.8423 26.9835 37.0867 27.2267 37.0867 27.5238C37.0867 27.8208 36.8423 28.064 36.5436 28.064H31.3208H31.307L31.2931 28.063L31.2793 28.0619L31.2655 28.0608L31.2517 28.0598L31.2379 28.0577L31.2241 28.0556L31.2102 28.0534L31.1975 28.0503L31.1847 28.0471L31.172 28.0439L31.1592 28.0397L31.1465 28.0355L31.1337 28.0312L31.121 28.027L31.1082 28.0217L31.0965 28.0164L31.0848 28.0112L31.0731 28.0048L31.0614 27.9985L31.0497 27.9921L31.0381 27.9858L31.0274 27.9784L31.0168 27.971L31.0062 27.9636L30.9955 27.9562L30.9849 27.9477L30.9743 27.9393L30.9647 27.9308L30.9552 27.9223L30.9456 27.9139L30.936 27.9044L30.9265 27.8949L30.918 27.8853L30.9095 27.8758L30.9009 27.8663L30.8924 27.8557L30.8839 27.8452L30.8765 27.8346L30.8691 27.824L30.8616 27.8134L30.8542 27.8029L30.8478 27.7912L30.8414 27.7796L30.8351 27.768L30.8287 27.7564L30.8234 27.7447L30.818 27.7331L30.8127 27.7215L30.8085 27.7088L30.8042 27.6961L30.8 27.6834L30.7957 27.6707L30.7925 27.658L30.7894 27.6453L30.7862 27.6327L30.784 27.62L30.7819 27.6062L30.7798 27.5925L30.7787 27.5787L30.7777 27.565L30.7766 27.5512L30.7755 27.5375V27.5238V23.5569C30.7755 23.2598 31.02 23.0167 31.3186 23.0167L31.3208 23.0156ZM31.3665 17.8921C32.1838 17.8921 32.9767 17.9936 33.7334 18.185C33.5113 17.7198 33.5145 17.1562 33.7908 16.6784C34.2383 15.9066 35.2395 15.6401 36.0154 16.0852L39.5621 18.1226C40.338 18.5677 40.6058 19.5636 40.1584 20.3354C39.8278 20.9042 39.1965 21.1992 38.5769 21.1358C40.068 22.8189 40.9725 25.0286 40.9725 27.4487C40.9725 32.7265 36.6712 37.0053 31.3654 37.0053C26.0597 37.0053 21.7583 32.7265 21.7583 27.4487C21.7583 25.0286 22.6628 22.8189 24.154 21.1358C23.5343 21.1992 22.903 20.9053 22.5724 20.3354C22.125 19.5636 22.3928 18.5687 23.1687 18.1226L26.7154 16.0852C27.4913 15.6401 28.4915 15.9066 28.94 16.6784C29.2174 17.1562 29.2195 17.7198 28.9974 18.185C29.7552 17.9936 30.5481 17.8921 31.3654 17.8921H31.3665ZM31.3665 18.9716C36.0728 18.9716 39.8874 22.7671 39.8874 27.4476C39.8874 32.1292 36.0717 35.9237 31.3665 35.9237C26.6602 35.9237 22.8456 32.1281 22.8456 27.4476C22.8456 22.7661 26.6612 18.9716 31.3665 18.9716ZM39.0201 19.0572L35.4733 17.0199C35.2151 16.8718 34.8813 16.9607 34.7325 17.2176C34.5837 17.4745 34.673 17.8065 34.9313 17.9545L38.478 19.9918C38.7363 20.1398 39.07 20.051 39.2188 19.7941C39.3676 19.5372 39.2783 19.2052 39.0201 19.0572ZM23.7118 19.0572L27.2586 17.0199C27.5168 16.8718 27.8506 16.9607 27.9994 17.2176C28.1482 17.4745 28.0589 17.8065 27.8006 17.9545L24.2539 19.9918C23.9956 20.1398 23.6619 20.051 23.5131 19.7941C23.3643 19.5372 23.4535 19.2052 23.7118 19.0572Z" fill="#7ECA1D"/>
<defs>
<linearGradient id="paint0_linear" x1="22.6934" y1="16.2329" x2="41.8977" y2="18.8464" gradientUnits="userSpaceOnUse">
<stop stop-color="#E3EEFF"/>
<stop offset="0.526042" stop-color="#E4F6E4"/>
<stop offset="1" stop-color="#FFEEE4"/>
</linearGradient>
</defs>
</svg>
