<svg width="80" height="80" viewBox="0 0 80 80" fill="none" xmlns="http://www.w3.org/2000/svg">
<path fill-rule="evenodd" clip-rule="evenodd" d="M76.6673 36.7306C76.6673 32.4759 73.2057 29.0143 68.9511 29.0143C64.6964 29.0143 61.2348 32.4759 61.2348 36.7306C61.2348 37.2483 61.2857 37.7596 61.3871 38.2606H54.8059C54.6368 37.7288 54.3412 37.1374 53.8267 36.4603C53.0004 35.3733 51.6774 34.7796 50.1458 34.0923L50.1428 34.0911L50.1406 34.0902C48.8819 33.525 47.4555 32.8847 45.9991 31.8443C44.8364 31.0139 44.1141 29.9141 43.1147 28.3921C41.6058 26.0944 39.5395 22.9477 34.6202 19.0534C26.5578 12.6708 15.8684 13.3171 15.0068 13.3803C8.45824 13.4278 3.33398 24.9149 3.33398 39.5705C3.33398 53.5773 8.01431 64.6897 14.1454 65.688C14.1898 65.698 14.2355 65.7051 14.282 65.709L14.2924 65.7098C14.5735 65.7481 14.8589 65.7647 15.144 65.7601C15.5553 65.7777 16.0987 65.7927 16.7492 65.7927C20.6835 65.7927 28.5212 65.238 34.5471 61.2975C39.4748 58.075 41.5479 55.4671 43.0618 53.563L43.0633 53.5612C44.0547 52.314 44.7714 51.4129 45.9262 50.7315C47.3867 49.8696 48.8166 49.3395 50.0788 48.8714L50.0821 48.8701L50.0841 48.8695C51.6121 48.3032 52.9319 47.814 53.7666 46.9067C53.967 46.6892 54.1366 46.4744 54.2804 46.2635L61.2525 46.594C61.2407 46.7549 61.2348 46.9161 61.2348 47.0776C61.2348 50.7253 64.2025 53.693 67.8503 53.693C71.4982 53.693 74.4658 50.7253 74.4658 47.0776C74.4658 45.6669 74.012 44.3016 73.1925 43.1777C75.3384 41.7671 76.6673 39.3589 76.6673 36.7306ZM15.2139 63.7539C14.8647 63.7404 14.6256 63.7254 14.517 63.7179C12.2944 63.3845 10.089 60.9742 8.39471 56.9897C6.42297 52.3533 5.33721 46.1669 5.33721 39.5705C5.33721 32.974 6.42297 26.7877 8.39471 22.1513C10.2237 17.8503 12.6486 15.3833 15.0472 15.3833C17.4459 15.3833 19.8706 17.8501 21.6996 22.1513C23.6714 26.7877 24.7571 32.9739 24.7571 39.5705C24.7571 46.1671 23.6712 52.3533 21.6996 56.9897C19.9129 61.1913 17.5579 63.6427 15.2139 63.7539ZM53.0353 44.0369C52.9854 44.5257 52.8111 44.9865 52.2923 45.5503C51.7837 46.1029 50.6742 46.5143 49.3895 46.9907L49.3876 46.9913C48.1121 47.464 46.5245 48.0524 44.908 49.0064C43.4334 49.8763 42.5343 51.0072 41.4935 52.3165L41.4929 52.3171C39.9845 54.2145 38.1072 56.5759 33.4505 59.621C29.1476 62.4348 23.6842 63.3787 19.7212 63.6656C23.8995 59.7034 26.7603 50.5215 26.7603 39.5705C26.7603 28.6662 23.9239 19.5162 19.7747 15.5267C23.5538 15.9231 28.9631 17.1299 33.377 20.6242C38.0422 24.3174 39.9261 27.186 41.4399 29.4911L41.4404 29.4917L41.441 29.4926C42.4748 31.0668 43.3677 32.4267 44.8348 33.4745C46.4555 34.6322 48.047 35.3463 49.3256 35.92C50.6602 36.519 51.7145 36.9922 52.2317 37.6726C53.0379 38.7335 53.0308 39.3329 53.0212 40.1625V40.1673C53.0186 40.3989 53.0159 40.638 53.0292 40.8995V42.6755C53.0292 42.8443 53.0353 43.014 53.0415 43.1853L53.0445 43.2699L53.0487 43.3973C53.0441 43.6615 53.039 43.8855 53.0353 44.0369ZM71.2047 41.9814C70.891 42.1162 70.6674 42.4018 70.6122 42.7391C70.5567 43.076 70.6769 43.4181 70.9311 43.6464C71.9042 44.5209 72.4623 45.7715 72.4623 47.0778C72.4623 49.6209 70.3932 51.6901 67.8501 51.6901C65.307 51.6901 63.2379 49.6211 63.2379 47.0778C63.2379 46.6802 63.289 46.2845 63.3895 45.9015C63.4663 45.6092 63.4072 45.2978 63.2283 45.0541C63.0494 44.8106 62.7701 44.6607 62.4682 44.6463L55.1519 44.2995L55.0565 40.2641H62.7317C63.0652 40.2641 63.3767 40.0982 63.5628 39.8213C63.7489 39.5445 63.785 39.1933 63.6589 38.8844C63.3795 38.199 63.2377 37.4742 63.2377 36.731C63.2377 33.5806 65.8004 31.018 68.9507 31.018C72.101 31.018 74.6637 33.5806 74.6637 36.731C74.6637 39.0168 73.3059 41.078 71.2047 41.9814ZM10.774 25.6242C10.865 25.6496 10.9565 25.662 11.0466 25.662C11.484 25.662 11.8856 25.3737 12.0102 24.9323C12.8666 21.8988 15.3736 20.8956 15.4898 20.8505C16.005 20.6557 16.2667 20.0809 16.0742 19.564C15.881 19.0456 15.3039 18.7821 14.7859 18.975C14.6411 19.0291 11.2242 20.3432 10.0821 24.3881C9.93188 24.9205 10.2415 25.4739 10.774 25.6242ZM10.2582 43.9941C10.2582 40.551 11.851 37.9548 13.963 37.9548C16.075 37.9548 17.6678 40.5513 17.6678 43.9941C17.6678 47.4371 16.075 50.0335 13.963 50.0335C11.851 50.0335 10.2582 47.4371 10.2582 43.9941ZM12.2614 43.9939C12.2614 46.4203 13.2855 48.0301 13.963 48.0301C14.6405 48.0301 15.6645 46.4203 15.6645 43.9939C15.6645 41.5676 14.6403 39.9579 13.963 39.9579C13.2855 39.9579 12.2614 41.5676 12.2614 43.9939Z" fill="#7ECA1D"/>
<path fill-rule="evenodd" clip-rule="evenodd" d="M53.0355 44.037C52.9856 44.5258 52.8113 44.9866 52.2925 45.5505C51.784 46.103 50.6744 46.5144 49.3898 46.9908L49.3878 46.9914C48.1124 47.4641 46.5248 48.0525 44.9083 49.0065C43.4336 49.8764 42.5346 51.0073 41.4937 52.3166C39.9854 54.214 38.1075 56.576 33.4508 59.6211C29.1479 62.4349 23.6844 63.3788 19.7214 63.6657C23.8998 59.7035 26.7606 50.5217 26.7606 39.5706C26.7606 28.6663 23.9242 19.5163 19.7749 15.5269C23.554 15.9232 28.9633 17.13 33.3772 20.6243C38.0425 24.3175 39.9264 27.1861 41.4402 29.4912L41.4413 29.4927C42.475 31.0669 43.368 32.4268 44.8351 33.4746C46.4557 34.6323 48.0473 35.3464 49.3259 35.9201C50.6605 36.5191 51.7148 36.9923 52.232 37.6727C53.0381 38.7336 53.0311 39.333 53.0215 40.1626V40.1675C53.0189 40.399 53.0162 40.6381 53.0295 40.8996V42.6756C53.0295 42.8445 53.0355 43.0141 53.0418 43.1854L53.0448 43.27L53.049 43.3974C53.0443 43.6616 53.0393 43.8856 53.0355 44.037ZM12.2617 43.9941C12.2617 46.4204 13.2858 48.0302 13.9633 48.0302C14.6408 48.0302 15.6648 46.4204 15.6648 43.9941C15.6648 41.5677 14.6406 39.958 13.9633 39.958C13.2858 39.958 12.2617 41.5677 12.2617 43.9941Z" fill="url(#paint0_linear)"/>
<defs>
<linearGradient id="paint0_linear" x1="12.2617" y1="15.5269" x2="58.6472" y2="21.7173" gradientUnits="userSpaceOnUse">
<stop stop-color="#E3EEFF"/>
<stop offset="0.526042" stop-color="#E4F6E4"/>
<stop offset="1" stop-color="#FFEEE4"/>
</linearGradient>
</defs>
</svg>
