<svg width="48" height="48" viewBox="0 0 48 48" fill="none" xmlns="http://www.w3.org/2000/svg">
<path fill-rule="evenodd" clip-rule="evenodd" d="M7.90052 19.3642H41.1926V9.2515C41.1926 6.42975 38.8803 4.11743 36.0585 4.11743H13.0313C10.2095 4.11743 7.89722 6.42975 7.89722 9.2515V19.3642H7.90052Z" fill="url(#paint0_linear)"/>
<path fill-rule="evenodd" clip-rule="evenodd" d="M14.2817 8.93058L15.724 13.0028L17.1597 8.93058H18.6781V14.5476H17.5169V13.0127L17.6327 10.363L16.1176 14.5476H15.3237L13.8119 10.3663L13.9277 13.0127V14.5476H12.7699V8.93058H14.2817ZM23.0678 12.1063H20.8481V13.6148H23.4549V14.5476H19.6903V8.93058H23.4482V9.87006H20.8481V11.2065H23.0678V12.1063ZM28.7047 14.5476H27.5469V12.1394H25.2908V14.5476H24.133V8.93058H25.2908V11.2065H27.5469V8.93058H28.7047V14.5476ZM36.3198 11.8681C36.3198 12.4206 36.2239 12.9068 36.0287 13.3236C35.8335 13.7405 35.5523 14.0613 35.1885 14.2896C34.8246 14.5145 34.4078 14.6303 33.938 14.6303C33.508 14.6303 33.1242 14.5377 32.7835 14.3491C32.4428 14.1606 32.1649 13.8926 31.9532 13.542C31.7415 13.1913 31.6125 12.7811 31.5629 12.3147H30.9178V14.5509H29.76V8.93388H30.9178V11.4149H31.543C31.5662 10.9088 31.6786 10.4622 31.8804 10.0718C32.0822 9.68481 32.3601 9.38378 32.7174 9.17206C33.0746 8.96035 33.4782 8.85449 33.9314 8.85449C34.3978 8.85449 34.8147 8.96696 35.1785 9.19191C35.5424 9.41686 35.8236 9.74105 36.0221 10.1612C36.2206 10.5813 36.3198 11.0676 36.3198 11.62V11.8714V11.8681ZM35.1488 11.6134C35.1488 11.0246 35.0429 10.5747 34.8312 10.2703C34.6195 9.96268 34.3218 9.81051 33.9281 9.81051C33.5411 9.81051 33.24 9.96268 33.0283 10.2637C32.8166 10.5681 32.7107 11.0113 32.7074 11.5935V11.8681C32.7074 12.4437 32.8133 12.887 33.025 13.2046C33.2367 13.5221 33.5411 13.6809 33.9347 13.6809C34.3218 13.6809 34.6195 13.5287 34.8279 13.2211C35.0363 12.9168 35.1421 12.4735 35.1455 11.888V11.6134H35.1488Z" fill="#7ECA1D"/>
<path fill-rule="evenodd" clip-rule="evenodd" d="M13.0344 2.52968H36.0617C39.76 2.52968 42.7836 5.55322 42.7836 9.25161V30.8862L42.7505 30.9192H42.7836L28.7344 44.9685V44.9354L28.7013 44.9685H13.0377C9.33934 44.9685 6.3158 41.9449 6.3158 38.2466V9.2483C6.3158 5.54991 9.33934 2.52637 13.0377 2.52637L13.0344 2.52968ZM41.1957 30.9192V20.7891H7.90035V38.2499C7.90035 41.0749 10.2094 43.3839 13.0344 43.3839H28.731V37.7437C28.731 33.9891 31.8009 30.9192 35.5555 30.9192H41.1957ZM41.1957 9.25161V19.2013H7.90035V9.25161C7.90035 6.42654 10.2094 4.11753 13.0344 4.11753H36.0617C38.8867 4.11753 41.1957 6.42654 41.1957 9.25161ZM38.9496 32.5071H35.5555C32.6775 32.5071 30.3189 34.8657 30.3189 37.7437V41.1378L38.9496 32.5071ZM15.8067 27.4489H13.2661C12.8294 27.4489 12.4722 27.8062 12.4722 28.2429C12.4722 28.6795 12.8294 29.0368 13.2661 29.0368H15.8067C16.2433 29.0368 16.6006 28.6795 16.6006 28.2429C16.6006 27.8062 16.2433 27.4489 15.8067 27.4489ZM35.8269 27.4489H19.2636C18.8269 27.4489 18.4697 27.8062 18.4697 28.2429C18.4697 28.6795 18.8269 29.0368 19.2636 29.0368H35.8269C36.2636 29.0368 36.6208 28.6795 36.6208 28.2429C36.6208 27.8062 36.2636 27.4489 35.8269 27.4489ZM18.7442 33.8004H13.2661C12.8294 33.8004 12.4722 34.1576 12.4722 34.5943C12.4722 35.031 12.8294 35.3882 13.2661 35.3882H18.7442C19.1809 35.3882 19.5381 35.031 19.5381 34.5943C19.5381 34.1576 19.1809 33.8004 18.7442 33.8004ZM25.2677 33.8004H22.1217C21.6851 33.8004 21.3278 34.1576 21.3278 34.5943C21.3278 35.031 21.6851 35.3882 22.1217 35.3882H25.2677C25.7043 35.3882 26.0616 35.031 26.0616 34.5943C26.0616 34.1576 25.7043 33.8004 25.2677 33.8004Z" fill="#7ECA1D"/>
<defs>
<linearGradient id="paint0_linear" x1="7.89722" y1="4.11743" x2="42.3596" y2="15.9713" gradientUnits="userSpaceOnUse">
<stop stop-color="#E3EEFF"/>
<stop offset="0.526042" stop-color="#E4F6E4"/>
<stop offset="1" stop-color="#FFEEE4"/>
</linearGradient>
</defs>
</svg>
