<svg width="48" height="48" viewBox="0 0 48 48" fill="none" xmlns="http://www.w3.org/2000/svg">
<path d="M23.3627 37.4129C29.2925 37.4129 34.0995 32.6058 34.0995 26.6761C34.0995 20.7463 29.2925 15.9392 23.3627 15.9392C17.4329 15.9392 12.6259 20.7463 12.6259 26.6761C12.6259 32.6058 17.4329 37.4129 23.3627 37.4129Z" fill="url(#paint0_linear)"/>
<path fill-rule="evenodd" clip-rule="evenodd" d="M8.44866 2.52637L12.1819 3.3884L15.9152 2.52637L19.6484 3.3884L23.3817 2.52637L27.115 3.3884L30.8482 2.52637L34.5815 3.3884C35.8071 3.67266 37.0713 2.52637 38.3147 2.52637C38.3147 9.68529 40.6737 24.6118 40.6737 31.7707C40.6737 38.9297 38.2523 38.3148 38.2523 45.4737C28.2959 45.4737 18.7203 45.4737 8.76696 45.4737C8.76696 38.3148 6.3158 39.4426 6.3158 32.2867C6.3158 25.1278 8.44866 9.68529 8.44866 2.52637ZM9.80216 4.31533C9.74564 5.9807 9.62367 7.65842 9.49576 9.30834C9.28158 12.0582 9.01981 14.805 8.76101 17.5487C8.50221 20.2769 8.24341 23.0082 8.02923 25.7427C7.85967 27.9055 7.69904 30.1208 7.69904 32.2898C7.69904 33.5319 7.77043 34.8203 8.0441 36.0346C8.22853 36.8472 8.50518 37.5609 8.81455 38.3241C9.18639 39.2417 9.50766 40.1007 9.72779 41.074C9.94792 42.0441 10.061 43.039 10.1145 44.0401C19.0416 44.0401 27.9717 44.0401 36.8988 44.0401C36.9494 43.0236 37.0624 42.0071 37.2766 41.0122C37.4937 39.9987 37.812 39.078 38.169 38.1109C38.4754 37.2798 38.755 36.4888 38.9424 35.6175C39.2101 34.363 39.2875 33.0592 39.2875 31.7769C39.2875 29.6419 39.112 27.4513 38.9246 25.3256C38.6896 22.6529 38.401 19.9834 38.1154 17.3139C37.8299 14.6258 37.5383 11.9377 37.3004 9.24655C37.1606 7.64915 37.0267 6.02086 36.9642 4.40184C36.0867 4.75098 35.2389 5.02288 34.2781 4.80042L30.8453 4.00635L27.112 4.86839L23.3787 4.00635L19.6455 4.86839L15.9122 4.00635L12.1789 4.86839L9.79918 4.31842L9.80216 4.31533Z" fill="#7ECA1D"/>
<path fill-rule="evenodd" clip-rule="evenodd" d="M28.8367 17.044C32.4819 18.965 34.9685 22.7947 34.9685 27.2022C34.9685 33.3771 30.0907 38.4116 23.9804 38.6667V41.0795L19.6712 37.9198L23.9804 34.7602V37.2344C29.3008 36.9793 33.5362 32.5872 33.5362 27.2022C33.5362 23.3234 31.3386 19.9609 28.1205 18.2858L28.8367 17.044ZM17.4582 36.5828C13.8129 34.6618 11.3264 30.8321 11.3264 26.4246C11.3264 20.2498 16.2042 15.2152 22.3145 14.9601V12.5474L26.6237 15.707L22.3145 18.8667V16.3924C16.9941 16.6475 12.7587 21.0397 12.7587 26.4246C12.7587 30.3035 14.9563 33.666 18.1744 35.3411L17.4582 36.5828Z" fill="#7ECA1D"/>
<path d="M36.0473 7.00464H11.3264V8.43693H36.0473V7.00464Z" fill="#7ECA1D"/>
<defs>
<linearGradient id="paint0_linear" x1="12.6259" y1="15.9392" x2="36.8801" y2="19.7595" gradientUnits="userSpaceOnUse">
<stop stop-color="#E3EEFF"/>
<stop offset="0.526042" stop-color="#E4F6E4"/>
<stop offset="1" stop-color="#FFEEE4"/>
</linearGradient>
</defs>
</svg>
