<svg width="80" height="80" viewBox="0 0 80 80" fill="none" xmlns="http://www.w3.org/2000/svg">
<path d="M61.8477 54.634V46.4842C61.8477 45.7291 61.2355 45.117 60.4805 45.117H52.3355C52.1276 42.3063 49.7749 40.0833 46.913 40.0833C44.051 40.0833 41.6985 42.3063 41.4906 45.117H34.867V37.4303C34.867 36.6752 34.2547 36.0631 33.4998 36.0631H32.5388C31.0484 36.0631 29.8357 34.8496 29.8357 33.358C29.8357 31.8664 31.0483 30.6528 32.5388 30.6528H33.4998C34.2547 30.6528 34.867 30.0407 34.867 29.2856V19.7837C34.867 19.0286 34.2536 18.4165 33.4985 18.4165H6.36328C5.60832 18.4165 4.99609 19.0286 4.99609 19.7837V73.6326C4.99609 74.3877 5.60832 74.9998 6.36328 74.9998H60.4805C61.2355 74.9998 61.8477 74.3877 61.8477 73.6326V65.4828C64.6571 65.2744 66.8791 62.9211 66.8791 60.0583C66.8791 57.1956 64.6571 54.8424 61.8477 54.634ZM32.1326 21.151V27.9336C29.3231 28.142 27.1013 30.4953 27.1013 33.3581C27.1013 36.2208 29.3231 38.5742 32.1326 38.7825V45.1171H24.0012C23.2463 45.1171 22.634 45.7292 22.634 46.4843V47.4459C22.634 48.9375 21.4215 50.151 19.931 50.151C18.4405 50.151 17.2279 48.9375 17.2279 47.4459V46.4843C17.2279 45.7292 16.6157 45.1171 15.8607 45.1171H7.73047V21.151H32.1326ZM7.73047 47.8514H14.5083C14.7162 50.662 17.0689 52.8851 19.9308 52.8851C22.7928 52.8851 25.1454 50.662 25.3534 47.8514H32.1312V55.9861C32.1312 56.7412 32.7434 57.3533 33.4984 57.3533H34.4594C35.9498 57.3533 37.1625 58.5668 37.1625 60.0584C37.1625 61.5501 35.9499 62.7636 34.4594 62.7636H33.4984C32.7434 62.7636 32.1312 63.3757 32.1312 64.1308V72.2654H7.73047V47.8514ZM61.4417 62.7634H60.4807C59.7257 62.7634 59.1135 63.3755 59.1135 64.1306V72.2654H34.8657V65.4828C37.6752 65.2744 39.897 62.9211 39.897 60.0583C39.897 57.1956 37.6752 54.8422 34.8657 54.6339V47.8512H42.8428C43.5978 47.8512 44.21 47.2392 44.21 46.4841V45.5225C44.21 44.0309 45.4226 42.8174 46.9131 42.8174C48.4036 42.8174 49.6162 44.0309 49.6162 45.5225V46.4841C49.6162 47.2392 50.2284 47.8512 50.9834 47.8512H59.1135V55.986C59.1135 56.7411 59.7257 57.3532 60.4807 57.3532H61.4417C62.9322 57.3532 64.1447 58.5667 64.1447 60.0583C64.1447 61.5499 62.9322 62.7634 61.4417 62.7634Z" fill="#7ECA1D"/>
<path d="M73.5962 5H46.4609C45.706 5 45.0937 5.61209 45.0937 6.36719V14.517C42.2843 14.7254 40.0625 17.0787 40.0625 19.9414C40.0625 22.8042 42.2843 25.1575 45.0937 25.3659V33.5169C45.0937 34.272 45.706 34.8841 46.4609 34.8841H55.9582C56.7132 34.8841 57.3254 34.272 57.3254 33.5169V32.5554C57.3254 31.0638 58.538 29.8503 60.0285 29.8503C61.519 29.8503 62.7316 31.0638 62.7316 32.5554V33.5169C62.7316 34.272 63.3438 34.8841 64.0988 34.8841H73.5961C74.351 34.8841 74.9632 34.2708 74.9632 33.5157V6.36719C74.9634 5.61209 74.3512 5 73.5962 5Z" fill="url(#paint0_linear)"/>
<path d="M73.5962 5H46.4609C45.706 5 45.0937 5.61209 45.0937 6.36719V14.517C42.2843 14.7254 40.0625 17.0787 40.0625 19.9414C40.0625 22.8042 42.2843 25.1575 45.0937 25.3659V33.5169C45.0937 34.272 45.706 34.8841 46.4609 34.8841H55.9582C56.7132 34.8841 57.3254 34.272 57.3254 33.5169V32.5554C57.3254 31.0638 58.538 29.8503 60.0285 29.8503C61.519 29.8503 62.7316 31.0638 62.7316 32.5554V33.5169C62.7316 34.272 63.3438 34.8841 64.0988 34.8841H73.5961C74.351 34.8841 74.9632 34.2708 74.9632 33.5157V6.36719C74.9634 5.61209 74.3512 5 73.5962 5ZM72.229 32.1497H65.4512C65.2432 29.3391 62.8906 27.116 60.0286 27.116C57.1667 27.116 54.814 29.3391 54.6061 32.1497H47.8283V24.0137C47.8283 23.2587 47.216 22.6466 46.4611 22.6466H45.5001C44.0097 22.6466 42.797 21.433 42.797 19.9414C42.797 18.4498 44.0096 17.2363 45.4999 17.2363H46.4609C47.2159 17.2363 47.8281 16.6242 47.8281 15.8691V7.73437H72.229V32.1497Z" fill="#7ECA1D"/>
<defs>
<linearGradient id="paint0_linear" x1="40.0625" y1="5" x2="79.1382" y2="12.188" gradientUnits="userSpaceOnUse">
<stop stop-color="#E3EEFF"/>
<stop offset="0.526042" stop-color="#E4F6E4"/>
<stop offset="1" stop-color="#FFEEE4"/>
</linearGradient>
</defs>
</svg>
