<svg width="48" height="48" viewBox="0 0 48 48" fill="none" xmlns="http://www.w3.org/2000/svg">
<path fill-rule="evenodd" clip-rule="evenodd" d="M8.66312 9.92391H11.094C11.1479 5.8469 14.4996 2.52637 18.5907 2.52637H23.2797C27.3709 2.52637 30.7226 5.8469 30.7764 9.92391H33.2073C36.5817 9.92391 39.3441 12.6863 39.3441 16.0607V37.5365C39.3441 40.9108 36.5817 43.6732 33.2073 43.6732H8.66312C5.28876 43.6732 2.52637 40.9108 2.52637 37.5365V16.0607C2.52637 12.6863 5.28876 9.92391 8.66312 9.92391ZM8.66312 11.4567H33.2073C35.7374 11.4567 37.8085 13.5278 37.8085 16.0578V37.5336C37.8085 40.0637 35.7374 42.1348 33.2073 42.1348H8.66312C6.13306 42.1348 4.06197 40.0637 4.06197 37.5336V16.0578C4.06197 13.5278 6.13306 11.4567 8.66312 11.4567ZM12.6268 9.92391H29.2408C29.187 6.68837 26.5237 4.05914 23.2769 4.05914H18.5879C15.341 4.05914 12.6806 6.68837 12.624 9.92391H12.6268Z" fill="#7ECA1D"/>
<path fill-rule="evenodd" clip-rule="evenodd" d="M26.997 15.8176L20.09 19.8054L21.4499 22.1609L28.3569 18.1731L26.997 15.8176ZM32.1504 43.7328C38.8006 43.7328 44.1916 38.3418 44.1916 31.6916C44.1916 25.0415 38.8006 19.6505 32.1504 19.6505C25.5003 19.6505 20.1093 25.0415 20.1093 31.6916C20.1093 38.3418 25.5003 43.7328 32.1504 43.7328ZM44.2092 19.8054L37.3022 15.8176L35.9422 18.1731L42.8492 22.1609L44.2092 19.8054Z" fill="url(#paint0_linear)"/>
<path fill-rule="evenodd" clip-rule="evenodd" d="M32.0854 25.3934C32.5075 25.3934 32.8532 25.739 32.8532 26.1612V31.0287H39.4659C39.8881 31.0287 40.2337 31.3743 40.2337 31.7965C40.2337 32.2186 39.8881 32.5643 39.4659 32.5643H32.0854H32.0655H32.0457H32.0259L32.0061 32.5614L31.9862 32.5586L31.9664 32.5558L31.9466 32.5529L31.9267 32.5501L31.9069 32.5473L31.8899 32.5416L31.8729 32.5359L31.8559 32.5303L31.8389 32.5246L31.8219 32.5189L31.8049 32.5133L31.7879 32.5076L31.7709 32.4991L31.7539 32.4906L31.7369 32.4821L31.7199 32.4736L31.7029 32.4651L31.6859 32.4566L31.6689 32.4481L31.6547 32.4368L31.6406 32.4254L31.6264 32.4141L31.6122 32.4028L31.5981 32.3914L31.5839 32.3801L31.5697 32.3688L31.5556 32.3574L31.5414 32.3433L31.5272 32.3291L31.5159 32.3149L31.5046 32.3008L31.4932 32.2866L31.4819 32.2725L31.4706 32.2583L31.4592 32.2441L31.4479 32.23L31.4366 32.2158L31.4281 32.1988L31.4196 32.1818L31.4111 32.1648L31.4026 32.1478L31.3941 32.1308L31.3856 32.1138L31.3771 32.0968L31.3686 32.0798L31.3629 32.0628L31.3572 32.0458L31.3516 32.0288L31.3459 32.0118L31.3402 31.9948L31.3346 31.9778L31.3317 31.958L31.3289 31.9381L31.3261 31.9183L31.3232 31.8985L31.3204 31.8786L31.3176 31.8588V31.839V31.8191V31.7993V26.164C31.3176 25.7419 31.6632 25.3962 32.0854 25.3962V25.3934ZM32.1505 18.1148C33.3065 18.1148 34.4256 18.2593 35.4966 18.5313C35.1821 17.8712 35.1878 17.0694 35.5787 16.3923C36.2106 15.2958 37.6272 14.9161 38.7208 15.5508L43.7327 18.4463C44.8292 19.0781 45.2089 20.4948 44.5742 21.5884C44.1067 22.3958 43.2143 22.8152 42.3388 22.7245C44.4467 25.1157 45.7245 28.2549 45.7245 31.6945C45.7245 39.1912 39.6472 45.2713 32.1477 45.2713C24.651 45.2713 18.5709 39.194 18.5709 31.6945C18.5709 28.2578 19.8487 25.1186 21.9566 22.7245C21.0812 22.8152 20.1887 22.3958 19.7212 21.5884C19.0894 20.4919 19.4662 19.0781 20.5627 18.4463L25.5746 15.5508C26.6711 14.919 28.0849 15.2958 28.7167 16.3923C29.1077 17.0694 29.1133 17.8712 28.7988 18.5313C29.8698 18.2593 30.9889 18.1148 32.1449 18.1148H32.1505ZM32.1505 19.6476C38.8001 19.6476 44.1917 25.0392 44.1917 31.6888C44.1917 38.3384 38.8001 43.73 32.1505 43.73C25.501 43.73 20.1094 38.3384 20.1094 31.6888C20.1094 25.0392 25.501 19.6476 32.1505 19.6476ZM42.9678 19.7695L37.9558 16.8739C37.5903 16.6642 37.12 16.7889 36.9075 17.1544C36.6979 17.5199 36.8225 17.9902 37.188 18.2027L42.2 21.0954C42.5655 21.3051 43.0358 21.1804 43.2483 20.8149C43.4579 20.4494 43.3333 19.9791 42.9678 19.7666V19.7695ZM21.3361 19.7695L26.3481 16.8739C26.7136 16.6642 27.1839 16.7889 27.3964 17.1544C27.6061 17.5199 27.4814 17.9902 27.1159 18.2027L22.1039 21.0954C21.7385 21.3051 21.2681 21.1804 21.0557 20.8149C20.846 20.4494 20.9707 19.9791 21.3361 19.7666V19.7695Z" fill="#7ECA1D"/>
<defs>
<linearGradient id="paint0_linear" x1="20.09" y1="15.8176" x2="47.5005" y2="19.548" gradientUnits="userSpaceOnUse">
<stop stop-color="#E3EEFF"/>
<stop offset="0.526042" stop-color="#E4F6E4"/>
<stop offset="1" stop-color="#FFEEE4"/>
</linearGradient>
</defs>
</svg>
