<svg width="80" height="80" viewBox="0 0 80 80" fill="none" xmlns="http://www.w3.org/2000/svg">
<path fill-rule="evenodd" clip-rule="evenodd" d="M67.472 18.6065C67.472 17.9412 66.9927 17.369 66.3418 17.2617L63.4449 16.7753C54.9114 15.3447 46.7356 11.8183 39.8115 6.58952C39.3323 6.22472 38.667 6.22472 38.1878 6.58952C31.2637 11.8183 23.0951 15.3376 14.5545 16.7753L11.6575 17.2617C11.0066 17.369 10.5273 17.9412 10.5273 18.6065V28.9854C10.5273 43.1268 14.5545 54.8648 24.4756 64.9433C31.3996 71.9746 38.2736 74.3566 38.5669 74.4567C38.71 74.5068 38.853 74.5282 38.9961 74.5282C39.1391 74.5282 39.2894 74.5068 39.4253 74.4567C39.7114 74.3566 46.5854 71.9746 53.5166 64.9433C63.4449 54.8648 67.472 43.1196 67.472 28.9854V18.6065ZM64.854 19.6651L63.0085 19.3575C54.3606 17.9055 46.0847 14.4148 38.9961 9.25042C31.9147 14.4148 23.6315 17.9055 14.9836 19.3575L13.1382 19.6651V28.9854C13.1382 42.2827 16.8219 53.4485 26.3354 63.1121C28.982 65.7945 32.0148 68.1693 35.298 70.029C36.4067 70.6585 37.7515 71.3666 38.9961 71.8387C40.2407 71.3666 41.5926 70.6513 42.7013 70.029C45.9774 68.1693 49.0102 65.8016 51.6496 63.1193C61.1631 53.4628 64.8468 42.2899 64.8468 28.9926V19.6723L64.854 19.6651Z" fill="#1DD0C7"/>
<path fill-rule="evenodd" clip-rule="evenodd" d="M38.9654 28.5417C40.8824 27.1897 43.3287 26.7463 45.632 27.0825C47.9209 27.4186 50.1383 28.5274 51.6047 30.337C52.5703 31.5316 53.1426 32.9479 53.2713 34.4715C53.5717 37.9907 52.1626 41.4742 50.1955 44.3282C47.8208 47.7688 44.5232 50.5441 40.9754 52.7186L39.0655 53.8917L37.0556 52.9046C33.4219 51.1307 30.3032 48.3625 28.0429 45.0077C26.04 42.0321 24.4592 38.1481 24.6953 34.5144C25.1316 27.6261 33.7581 24.958 38.9654 28.5417ZM38.9296 50.9089L39.6092 50.4869C42.8352 48.5055 45.8823 45.9662 48.0425 42.8404C49.6519 40.5085 50.918 37.5901 50.6676 34.7003C50.5818 33.6918 50.2098 32.769 49.5732 31.9894C48.5217 30.6875 46.8837 29.915 45.2528 29.679C43.5862 29.4358 41.7694 29.7362 40.3888 30.7519C39.5376 31.3814 38.4289 31.3885 37.5706 30.7734C34.0442 28.2484 27.6208 29.8363 27.3061 34.6932C27.113 37.726 28.5507 41.0879 30.2174 43.5629C32.2202 46.5313 34.9884 48.9919 38.2072 50.5727L38.9296 50.9232V50.9089Z" fill="#1DD0C7"/>
<path fill-rule="evenodd" clip-rule="evenodd" d="M38.9301 50.9092L39.6096 50.4872C42.8356 48.5058 45.8827 45.9666 48.0429 42.8407C49.6523 40.5089 50.9184 37.5904 50.668 34.7007C50.5822 33.6921 50.2103 32.7694 49.5736 31.9897C48.5222 30.6879 46.8841 29.9153 45.2533 29.6793C43.5866 29.4361 41.7698 29.7365 40.3893 30.7522C39.5381 31.3817 38.4294 31.3888 37.571 30.7737C34.0446 28.2487 27.6212 29.8366 27.3065 34.6935C27.1134 37.7264 28.5511 41.0882 30.2178 43.5632C32.2206 46.5316 34.9888 48.9922 38.2076 50.573L38.9301 50.9235V50.9092Z" fill="url(#paint0_linear)"/>
<defs>
<linearGradient id="paint0_linear" x1="27.2891" y1="29.5854" x2="53.6014" y2="34.1325" gradientUnits="userSpaceOnUse">
<stop stop-color="#E3EEFF"/>
<stop offset="0.526042" stop-color="#E4F6E4"/>
<stop offset="1" stop-color="#FFEEE4"/>
</linearGradient>
</defs>
</svg>
