<svg width="48" height="48" viewBox="0 0 48 48" fill="none" xmlns="http://www.w3.org/2000/svg">
<path fill-rule="evenodd" clip-rule="evenodd" d="M24.0665 30.4466C23.2339 30.4466 22.4185 30.3687 21.6275 30.2199C22.0119 30.293 22.403 30.3488 22.797 30.386V36.4278H25.3375V30.3877C25.7674 30.3455 26.1906 30.2832 26.607 30.2022V36.4278H27.0588C30.4877 36.4278 33.4531 38.8875 34.0988 42.2473L34.3887 43.7578H13.7408L14.0307 42.2473C14.6764 38.8858 17.6418 36.4278 21.0707 36.4278H21.0724H21.5276V30.2008C18.9872 29.7025 16.7015 28.4718 14.9015 26.7395C12.0713 26.6618 9.3086 25.9419 7.28919 23.818C5.50391 21.9383 4.7082 19.3826 4.29686 16.8774C3.80629 13.8817 3.78943 11.954 3.78943 8.92122V7.65179H10.8311V8.92122H5.06054C5.06054 18.552 5.59828 24.5021 13.6744 25.3857C11.8955 23.1315 10.8312 20.2902 10.8312 17.2112V3.78955H37.3019V7.65179H44.3301V8.92122C44.3301 11.954 44.3132 13.8817 43.8226 16.8774C43.413 19.3826 42.6173 21.9383 40.8303 23.818C38.8147 25.9397 36.0578 26.6598 33.2317 26.7394C30.8493 29.0323 27.6159 30.4466 24.0665 30.4466ZM37.3019 17.2112V8.92122H43.0606C43.0606 18.5481 42.523 24.4946 34.4601 25.3838C36.2383 23.1297 37.3019 20.289 37.3019 17.2112ZM24.0665 29.1772C30.648 29.1772 36.0308 23.7927 36.0308 17.2129V5.06066H12.1006V17.2129C12.1006 23.7943 17.4851 29.1772 24.0649 29.1772H24.0665ZM27.0588 37.6973H21.0724H21.0707C18.2048 37.6973 15.8009 39.7675 15.2783 42.4867H32.8512C32.3286 39.7675 29.9247 37.6973 27.0588 37.6973Z" fill="#7ECA1D"/>
<path fill-rule="evenodd" clip-rule="evenodd" d="M24.3347 9.41887L26.1554 12.981C26.1992 13.067 26.2734 13.1226 26.3678 13.1412L30.171 13.8678C30.2806 13.8897 30.3648 13.9622 30.4003 14.0701C30.4357 14.1763 30.412 14.2858 30.3379 14.3701L27.649 17.3304C27.5866 17.3979 27.5613 17.4822 27.5731 17.5732L28.094 21.6158C28.1092 21.7304 28.062 21.8349 27.9693 21.9024C27.8749 21.9681 27.7603 21.9766 27.6591 21.9243L24.2049 20.1727C24.1155 20.1272 24.0211 20.1272 23.9318 20.1727L20.4775 21.926C20.3747 21.9782 20.26 21.9698 20.1673 21.9024C20.0729 21.8366 20.0274 21.7304 20.0426 21.6158L20.5635 17.5732C20.5753 17.4822 20.5483 17.3995 20.4876 17.3304L17.7987 14.3701C17.7229 14.2875 17.6993 14.1779 17.7364 14.0701C17.7718 13.9638 17.8561 13.8897 17.9656 13.8678L21.7688 13.1412C21.8633 13.1226 21.9374 13.067 21.9813 12.981L23.8019 9.41887C23.8542 9.31435 23.9554 9.25366 24.0717 9.25366C24.188 9.25366 24.2875 9.31435 24.3414 9.41887H24.3347ZM24.0649 11.6846L23.1074 13.5592C22.8849 13.9942 22.4819 14.2976 22.0015 14.3887L19.8925 14.7916L21.4216 16.4757C21.7318 16.8179 21.8767 17.2765 21.8177 17.735L21.5311 19.9637L23.3535 19.0382C23.8036 18.8106 24.3262 18.8106 24.7764 19.0382L26.5987 19.962L26.3121 17.7333C26.2531 17.2765 26.3981 16.8163 26.7083 16.474L28.2373 14.7899L26.1284 14.387C25.6479 14.296 25.245 13.9925 25.0225 13.5576L24.0649 11.6829V11.6846Z" fill="#7ECA1D"/>
<path fill-rule="evenodd" clip-rule="evenodd" d="M24.0666 11.6831L23.109 13.5577C22.8865 13.9927 22.4836 14.2961 22.0031 14.3871L19.8942 14.7901L21.4232 16.4742C21.7334 16.8164 21.8784 17.275 21.8194 17.7335L21.5328 19.9622L23.3552 19.0366C23.8053 18.809 24.3279 18.809 24.778 19.0366L26.6004 19.9605L26.3138 17.7318C26.2548 17.275 26.3998 16.8147 26.7099 16.4725L28.239 14.7884L26.13 14.3855C25.6496 14.2944 25.2466 13.991 25.0241 13.556L24.0666 11.6814V11.6831Z" fill="url(#paint0_linear)"/>
<path fill-rule="evenodd" clip-rule="evenodd" d="M13.8707 26.6545C19.0529 26.6545 23.2523 30.8556 23.2523 36.0361C23.2523 41.2184 19.0513 45.4177 13.8707 45.4177C8.68852 45.4177 4.48914 41.2167 4.48914 36.0361C4.48914 30.8539 8.6902 26.6545 13.8707 26.6545Z" fill="#7ECA1D"/>
<path fill-rule="evenodd" clip-rule="evenodd" d="M13.8708 27.9255C18.3501 27.9255 21.983 31.5568 21.983 36.0377C21.983 40.5169 18.3518 44.1499 13.8708 44.1499C9.39161 44.1499 5.75867 40.5186 5.75867 36.0377C5.75867 31.5585 9.38993 27.9255 13.8708 27.9255Z" fill="url(#paint1_linear)"/>
<path d="M14.7896 35.5305L15.828 34.2088V33.0928H11.9675V34.3791H14.1641L13.0751 35.7597L13.5977 36.5403H13.8809C14.4473 36.5403 14.6952 36.8404 14.6952 37.2095C14.6952 37.5787 14.4457 37.8788 13.8809 37.8788C13.3583 37.8788 13.1004 37.6377 12.9621 37.2433L11.7787 37.9294C12.1479 38.8128 12.9706 39.2157 13.8809 39.2157C15.0391 39.2157 16.0691 38.5295 16.0691 37.2079C16.0691 36.3751 15.528 35.7833 14.7913 35.5254L14.7896 35.5305Z" fill="#7ECA1D"/>
<defs>
<linearGradient id="paint0_linear" x1="19.8942" y1="11.6814" x2="29.316" y2="13.1769" gradientUnits="userSpaceOnUse">
<stop stop-color="#E3EEFF"/>
<stop offset="0.526042" stop-color="#E4F6E4"/>
<stop offset="1" stop-color="#FFEEE4"/>
</linearGradient>
<linearGradient id="paint1_linear" x1="5.75867" y1="27.9255" x2="24.0839" y2="30.8119" gradientUnits="userSpaceOnUse">
<stop stop-color="#E3EEFF"/>
<stop offset="0.526042" stop-color="#E4F6E4"/>
<stop offset="1" stop-color="#FFEEE4"/>
</linearGradient>
</defs>
</svg>
