<svg width="88" height="64" viewBox="0 0 88 64" fill="none" xmlns="http://www.w3.org/2000/svg">
<path d="M80.3061 38.3101H69.3208V8.64969H80.3061V38.3101Z" fill="url(#paint0_linear)"/>
<path d="M87.8659 6.98736L86.8422 4.93407L87.8497 2.88078C88.1747 2.21843 87.9147 1.42361 87.2647 1.10899C87.1022 1.00964 86.891 0.959961 86.696 0.959961H67.197C66.8558 0.959961 66.5146 1.09243 66.2708 1.34081L64.5972 3.06293L62.9235 1.34081C62.6798 1.09243 62.3385 0.959961 61.9973 0.959961H11.2999C10.585 0.959961 10 1.55608 10 2.28466V44.6751C10 45.4037 10.585 45.9999 11.2999 45.9999H61.9973C62.3385 45.9999 62.6798 45.8674 62.9235 45.619L64.5972 43.9134L66.2708 45.619C66.5146 45.8674 66.8395 45.9999 67.197 45.9999H86.696C87.411 45.9999 87.9959 45.4037 87.9959 44.6751C87.9959 44.4764 87.9472 44.2612 87.8659 44.079L86.8585 42.0257L87.8659 39.9725C88.0447 39.5916 88.0447 39.1611 87.8659 38.7802L86.8585 36.7269L87.8659 34.6736C88.0447 34.2928 88.0447 33.8623 87.8659 33.4814L86.8585 31.4281L87.8659 29.3748C88.0447 28.994 88.0447 28.5634 87.8659 28.1826L86.8585 26.1293L87.8659 24.076C88.0447 23.6952 88.0447 23.2646 87.8659 22.8838L86.8585 20.8305L87.8659 18.7772C88.0447 18.3964 88.0447 17.9658 87.8659 17.585L86.8422 15.5317L87.8497 13.4784C88.0284 13.0975 88.0284 12.667 87.8497 12.2862L86.8422 10.2329L87.8497 8.17959C88.0447 7.79874 88.0447 7.36821 87.8659 6.98736ZM84.2261 10.829L85.2336 12.8823L84.2261 14.9356C84.0474 15.3164 84.0474 15.747 84.2261 16.1278L85.2336 18.1811L84.2261 20.2344C84.0474 20.6152 84.0474 21.0458 84.2261 21.4266L85.2336 23.4799L84.2261 25.5332C84.0474 25.914 84.0474 26.3446 84.2261 26.7254L85.2336 28.7787L84.2261 30.832C84.0474 31.2129 84.0474 31.6434 84.2261 32.0242L85.2336 34.0775L84.2261 36.1308C84.0474 36.5117 84.0474 36.9422 84.2261 37.323L85.2336 39.3763L84.2261 41.4296C84.0474 41.8105 84.0474 42.241 84.2261 42.6219L84.5836 43.3504H67.7332L65.5071 41.0819C65.0034 40.5686 64.1747 40.5686 63.671 41.0819L61.4611 43.3504H12.5999V3.60937H61.4611L63.6872 5.87792C64.1909 6.39124 65.0196 6.39124 65.5234 5.87792L67.7332 3.60937H84.5836L84.2261 4.33795C84.0474 4.7188 84.0474 5.14933 84.2261 5.53019L85.2336 7.58347L84.2261 9.63676C84.0474 10.0176 84.0474 10.4481 84.2261 10.829Z" fill="#7ECA1D"/>
<path d="M48.9491 33.1835C49.6315 32.1734 49.8428 30.8983 49.5015 29.7227C51.4839 28.5801 52.1826 26.0135 51.0615 23.9933C50.964 23.8112 50.8502 23.629 50.7202 23.48C52.1176 21.642 51.8089 19.0091 50.0053 17.5685C49.8428 17.4361 49.6803 17.3201 49.5015 17.2208C50.1028 14.9854 48.8191 12.6671 46.6254 12.0544C46.4304 12.0048 46.2355 11.9551 46.0242 11.9385C45.748 9.63687 43.6843 7.99755 41.4257 8.27905C41.2145 8.31216 41.0195 8.34528 40.8245 8.39496C39.7033 6.37479 37.1847 5.66276 35.2023 6.80531C35.0236 6.90467 34.8448 7.02058 34.6986 7.15305C32.8949 5.72899 30.3113 6.04361 28.8976 7.88164C28.7676 8.04722 28.6539 8.21281 28.5564 8.39496C26.3628 7.78228 24.0879 9.09043 23.4867 11.3259C23.4379 11.5246 23.3892 11.7233 23.3729 11.9385C21.1143 12.22 19.5056 14.3064 19.7819 16.6247C19.8144 16.8399 19.8469 17.0386 19.8956 17.2374C17.9132 18.3799 17.2145 20.9465 18.3357 22.9667C18.4332 23.1488 18.5469 23.331 18.6769 23.4966C17.2795 25.3346 17.5882 27.9674 19.3919 29.4081C19.5544 29.5405 19.7169 29.6564 19.8956 29.7558C19.2944 31.9912 20.5781 34.3095 22.7717 34.9221C22.9667 34.9718 23.1617 35.0215 23.3729 35.038C23.6491 37.3397 25.7128 38.979 27.9714 38.6975C28.1827 38.6644 28.3777 38.6313 28.5726 38.5816C29.6938 40.6018 32.2124 41.3138 34.1948 40.1713C34.3736 40.0719 34.5523 39.956 34.7148 39.8235C35.4135 40.4031 36.3072 40.7343 37.2172 40.7177C37.5097 40.7177 37.7859 40.6846 38.0621 40.6349C39.2483 40.4197 40.272 39.6579 40.857 38.5816C43.0506 39.1943 45.3255 37.8862 45.9267 35.6507C45.9755 35.452 46.0242 35.2533 46.0405 35.038C47.2267 34.889 48.2991 34.2267 48.9491 33.1835ZM47.5191 27.57C46.8042 27.57 46.2192 28.1661 46.2192 28.8947C46.2192 29.259 46.3655 29.5902 46.6092 29.8386C47.1779 30.4181 47.1779 31.362 46.6254 31.9416C46.203 32.3721 45.5692 32.5046 45.0168 32.2727L44.9843 32.2562C44.3181 31.9912 43.5543 32.3224 43.2944 33.0013C43.1644 33.3159 43.1644 33.6637 43.2944 33.9948C43.2944 33.9948 43.2944 34.0114 43.3106 34.0114C43.6193 34.7731 43.2781 35.6342 42.5307 35.9488C41.9782 36.1806 41.3445 36.0647 40.9382 35.6342C40.4345 35.1043 39.6221 35.1043 39.1021 35.601C38.8421 35.8494 38.7121 36.1972 38.7121 36.5615C38.7121 37.3728 38.0784 38.0517 37.2659 38.0517C36.6647 38.0517 36.1285 37.6874 35.901 37.1244C35.706 36.6277 35.2348 36.2965 34.6986 36.2965C34.1623 36.2965 33.6911 36.6277 33.4961 37.1244C33.1874 37.8862 32.3424 38.2504 31.595 37.9358C31.0425 37.704 30.685 37.1576 30.685 36.5449C30.685 35.8163 30.1001 35.2202 29.3851 35.2202C29.0276 35.2202 28.7026 35.3692 28.4589 35.6176C27.8902 36.1972 26.964 36.1972 26.3953 35.6342C25.9728 35.2036 25.8428 34.5578 26.0703 33.9948C26.0703 33.9948 26.0703 33.9783 26.0865 33.9617C26.3465 33.2828 26.0215 32.5045 25.3553 32.2396C25.0466 32.1071 24.7053 32.1071 24.3804 32.2396L24.3641 32.2562C23.6167 32.5708 22.7717 32.223 22.463 31.4613C22.2355 30.8983 22.3492 30.2526 22.7717 29.8386C23.2917 29.3253 23.2917 28.4973 22.8042 27.9674C22.5605 27.7025 22.2192 27.57 21.8617 27.57C21.0655 27.57 20.4156 26.9077 20.4156 26.0797C20.4156 25.4836 20.7731 24.9372 21.3255 24.7054C21.9917 24.4404 22.3167 23.6622 22.0567 22.9832C21.9267 22.6521 21.6668 22.3871 21.3418 22.2547C20.5943 21.94 20.2368 21.079 20.5456 20.3173C20.7731 19.7543 21.3093 19.39 21.8942 19.39C22.6092 19.39 23.1942 18.8104 23.2104 18.0818C23.2104 17.7176 23.0804 17.3698 22.8204 17.1214C22.2517 16.5419 22.2517 15.598 22.8042 15.0185C23.2267 14.5879 23.8604 14.4555 24.4129 14.6873L24.4454 14.7039C25.1116 14.9688 25.8753 14.6542 26.1353 13.9753C26.2653 13.6607 26.2653 13.3129 26.1353 12.9817C26.1353 12.9817 26.1353 12.9652 26.119 12.9652C25.8103 12.2035 26.1515 11.3424 26.899 11.0278C27.4514 10.796 28.0852 10.9119 28.4914 11.3424C28.9951 11.8723 29.8076 11.8723 30.3275 11.3755C30.5875 11.1272 30.7175 10.7794 30.7175 10.4151C30.7175 9.60375 31.3512 8.92484 32.1637 8.92484C32.7649 8.92484 33.3011 9.28913 33.5286 9.85213C33.7236 10.3489 34.1948 10.6801 34.7311 10.6801C35.2673 10.6801 35.7385 10.3489 35.9335 9.85213C36.2422 9.09043 37.0872 8.72613 37.8347 9.04075C38.3871 9.27257 38.7446 9.81901 38.7446 10.4317C38.7446 11.1603 39.3296 11.7564 40.0445 11.7564C40.402 11.7564 40.727 11.6074 40.9707 11.359C41.5395 10.7794 42.4657 10.7794 43.0344 11.3424C43.4569 11.773 43.5868 12.4187 43.3594 12.9817C43.3594 12.9817 43.3594 12.9983 43.3431 13.0149C43.0831 13.6938 43.4081 14.472 44.0743 14.737C44.3831 14.8694 44.7243 14.8694 45.0493 14.737L45.0655 14.7204C45.813 14.4058 46.6579 14.7535 46.9667 15.5152C47.1942 16.0782 47.0804 16.724 46.6579 17.138C46.138 17.6513 46.138 18.4793 46.6254 19.0091C46.8692 19.2741 47.2104 19.4066 47.5679 19.4066C48.3641 19.4066 49.0303 20.0523 49.0303 20.8803C49.0303 21.493 48.6728 22.0394 48.1204 22.2712C47.4541 22.5362 47.1292 23.3144 47.3891 23.9933C47.5191 24.3245 47.7791 24.5895 48.1041 24.7219C48.8516 25.0365 49.209 25.8976 48.9003 26.6593C48.6566 27.2057 48.1204 27.57 47.5191 27.57Z" fill="#7ECA1D"/>
<path d="M41.1492 17.2374C40.6454 16.7241 39.8167 16.7241 39.313 17.2374L27.6136 29.1597C27.1099 29.673 27.1099 30.5175 27.6136 31.0309C28.1174 31.5442 28.9461 31.5442 29.4498 31.0309L41.1492 19.1085C41.6529 18.5952 41.6529 17.7673 41.1492 17.2374Z" fill="#7ECA1D"/>
<path d="M29.8238 23.1491C31.8062 23.1491 33.3987 21.5264 33.3987 19.5062C33.3987 17.486 31.8062 15.8633 29.8238 15.8633C27.8414 15.8633 26.249 17.486 26.249 19.5062C26.249 21.5098 27.8577 23.1491 29.8238 23.1491ZM29.8238 18.5127C30.3601 18.5127 30.7988 18.9598 30.7988 19.5062C30.7988 20.0527 30.3601 20.4997 29.8238 20.4997C29.2876 20.4997 28.8489 20.0527 28.8489 19.5062C28.8489 18.9598 29.2876 18.5127 29.8238 18.5127Z" fill="#7ECA1D"/>
<path d="M38.9239 25.1359C36.9415 25.1359 35.3491 26.7587 35.3491 28.7788C35.3491 30.799 36.9415 32.4218 38.9239 32.4218C40.9063 32.4218 42.4987 30.799 42.4987 28.7788C42.4987 26.7752 40.8901 25.1359 38.9239 25.1359ZM38.9239 29.7724C38.3877 29.7724 37.949 29.3253 37.949 28.7788C37.949 28.2324 38.3877 27.7853 38.9239 27.7853C39.4602 27.7853 39.8989 28.2324 39.8989 28.7788C39.8989 29.3253 39.4602 29.7724 38.9239 29.7724Z" fill="#7ECA1D"/>
<path d="M64.597 8.90839C63.8821 8.90839 63.2971 9.5045 63.2971 10.2331V12.8825C63.2971 13.6111 63.8821 14.2072 64.597 14.2072C65.312 14.2072 65.897 13.6111 65.897 12.8825V10.2331C65.897 9.5045 65.312 8.90839 64.597 8.90839Z" fill="#7ECA1D"/>
<path d="M64.597 16.8567C63.8821 16.8567 63.2971 17.4528 63.2971 18.1814V20.8308C63.2971 21.5594 63.8821 22.1555 64.597 22.1555C65.312 22.1555 65.897 21.5594 65.897 20.8308V18.1814C65.897 17.4528 65.312 16.8567 64.597 16.8567Z" fill="#7ECA1D"/>
<path d="M64.597 24.8049C63.8821 24.8049 63.2971 25.401 63.2971 26.1296V28.779C63.2971 29.5076 63.8821 30.1037 64.597 30.1037C65.312 30.1037 65.897 29.5076 65.897 28.779V26.1296C65.897 25.401 65.312 24.8049 64.597 24.8049Z" fill="#7ECA1D"/>
<path d="M64.597 32.7532C63.8821 32.7532 63.2971 33.3494 63.2971 34.0779V36.7273C63.2971 37.4559 63.8821 38.052 64.597 38.052C65.312 38.052 65.897 37.4559 65.897 36.7273V34.0779C65.897 33.3494 65.312 32.7532 64.597 32.7532Z" fill="#7ECA1D"/>
<path d="M80.1962 6.25916H69.7968C69.0818 6.25916 68.4968 6.85527 68.4968 7.58386V39.3767C68.4968 40.1053 69.0818 40.7014 69.7968 40.7014H80.1962C80.9112 40.7014 81.4961 40.1053 81.4961 39.3767V7.58386C81.4961 6.85527 80.9112 6.25916 80.1962 6.25916ZM78.8963 38.052H71.0967V8.90856H78.8963V38.052Z" fill="#7ECA1D"/>
<path d="M16.4996 12.8827C17.2146 12.8827 17.7996 12.2866 17.7996 11.558V8.90856H20.3994C21.1144 8.90856 21.6994 8.31244 21.6994 7.58386C21.6994 6.85527 21.1144 6.25916 20.3994 6.25916H16.4996C15.7847 6.25916 15.1997 6.85527 15.1997 7.58386V11.558C15.1997 12.2866 15.7847 12.8827 16.4996 12.8827Z" fill="#7ECA1D"/>
<path d="M20.3994 38.0517H17.7996V35.4023C17.7996 34.6737 17.2146 34.0776 16.4996 34.0776C15.7847 34.0776 15.1997 34.6737 15.1997 35.4023V39.3764C15.1997 40.105 15.7847 40.7011 16.4996 40.7011H20.3994C21.1144 40.7011 21.6994 40.105 21.6994 39.3764C21.6994 38.6478 21.1144 38.0517 20.3994 38.0517Z" fill="#7ECA1D"/>
<path d="M59.3973 6.25916H47.6979C46.9829 6.25916 46.3979 6.85527 46.3979 7.58386C46.3979 8.31244 46.9829 8.90856 47.6979 8.90856H58.0973V38.052H47.6979C46.9829 38.052 46.3979 38.6481 46.3979 39.3767C46.3979 40.1053 46.9829 40.7014 47.6979 40.7014H59.3973C60.1122 40.7014 60.6972 40.1053 60.6972 39.3767V7.58386C60.6972 6.85527 60.1122 6.25916 59.3973 6.25916Z" fill="#7ECA1D"/>
<path d="M15.5016 63.223C24.0047 63.223 30.8977 56.3299 30.8977 47.8268C30.8977 39.3238 24.0047 32.4307 15.5016 32.4307C6.99856 32.4307 0.105469 39.3238 0.105469 47.8268C0.105469 56.3299 6.99856 63.223 15.5016 63.223Z" fill="#7ECA1D"/>
<path d="M15.5016 61.1391C22.8537 61.1391 28.8138 55.179 28.8138 47.8269C28.8138 40.4748 22.8537 34.5147 15.5016 34.5147C8.14951 34.5147 2.18945 40.4748 2.18945 47.8269C2.18945 55.179 8.14951 61.1391 15.5016 61.1391Z" fill="url(#paint1_linear)"/>
<path d="M12.1982 52.8538H18.9007V50.6854H15.5917L17.2251 49.0379C18.1263 48.1367 18.7599 47.1229 18.7599 45.9401C18.7599 43.9547 17.1828 42.8 15.4227 42.8C14.0569 42.8 12.7333 43.49 12.0996 44.9544L14.0005 46.0668C14.2681 45.4472 14.7609 44.9967 15.4509 44.9967C16.1127 44.9967 16.507 45.4191 16.507 46.0386C16.507 46.616 16.0845 47.1933 15.5072 47.7847L12.1982 51.2204V52.8538Z" fill="#7ECA1D"/>
<defs>
<linearGradient id="paint0_linear" x1="69.3208" y1="8.64969" x2="81.9933" y2="9.38896" gradientUnits="userSpaceOnUse">
<stop stop-color="#E3EEFF"/>
<stop offset="0.526042" stop-color="#E4F6E4"/>
<stop offset="1" stop-color="#FFEEE4"/>
</linearGradient>
<linearGradient id="paint1_linear" x1="2.18945" y1="34.5147" x2="32.2613" y2="39.2513" gradientUnits="userSpaceOnUse">
<stop stop-color="#E3EEFF"/>
<stop offset="0.526042" stop-color="#E4F6E4"/>
<stop offset="1" stop-color="#FFEEE4"/>
</linearGradient>
</defs>
</svg>
