<svg width="82" height="63" viewBox="0 0 82 63" fill="none" xmlns="http://www.w3.org/2000/svg">
<path fill-rule="evenodd" clip-rule="evenodd" d="M36.4003 22.4283C36.4003 27.7233 40.7053 32.0283 46.0003 32.0283C51.2953 32.0133 55.6003 27.7233 55.6003 22.4283C55.6003 17.1333 51.2953 12.8283 46.0003 12.8283C40.7053 12.8283 36.4003 17.1333 36.4003 22.4283ZM50.7554 46.8486C52.9154 50.1936 57.3854 51.1386 60.7154 48.9786C59.8454 45.6636 60.8054 42.1236 63.2504 39.7236C62.0204 37.2786 59.5304 35.7486 56.8004 35.7336C55.4054 35.7336 54.0554 36.1386 52.8854 36.8886C49.5404 39.0486 48.5954 43.5186 50.7554 46.8486ZM64.8404 51.5586C67.6154 54.4086 72.1754 54.4686 75.0254 51.6936C76.3904 50.3586 77.1704 48.5436 77.2004 46.6236C77.2604 42.6486 74.0804 39.3936 70.1054 39.3336H70.0004C68.1254 39.3336 66.3254 40.0686 64.9754 41.3736C62.1254 44.1486 62.0654 48.7086 64.8404 51.5586ZM25.6001 23.7335C24.9401 23.7335 24.4001 23.1935 24.4001 22.5335C24.4001 21.8735 24.9401 21.3335 25.6001 21.3335C26.2601 21.3335 26.8001 21.8735 26.8001 22.5335C26.8001 23.1935 26.2601 23.7335 25.6001 23.7335ZM67.6 22.5335C67.6 21.8735 67.06 21.3335 66.4 21.3335C65.74 21.3335 65.2 21.8735 65.2 22.5335C65.2 23.1935 65.74 23.7335 66.4 23.7335C67.06 23.7335 67.6 23.1935 67.6 22.5335Z" fill="url(#paint0_linear)"/>
<path fill-rule="evenodd" clip-rule="evenodd" d="M47.275 44.1336H11.2C10.54 44.1336 10 43.5936 10 42.9336V2.13359C10 1.47359 10.54 0.933594 11.2 0.933594H80.8C81.46 0.933594 82 1.47359 82 2.13359V42.9186C82 43.5786 81.46 44.1186 80.8 44.1186H79.3C79.495 44.9136 79.6 45.7236 79.6 46.5336C79.6 51.8436 75.295 56.1336 70 56.1336H69.865C66.445 56.0886 63.31 54.2136 61.63 51.2286C60.52 51.8736 59.275 52.2936 58 52.4586C52.735 53.1186 47.935 49.3986 47.275 44.1336ZM50.755 46.8486C52.915 50.1936 57.385 51.1386 60.715 48.9786C59.845 45.6636 60.805 42.1236 63.25 39.7236C62.02 37.2786 59.53 35.7486 56.8 35.7336C55.405 35.7336 54.055 36.1386 52.885 36.8886C49.54 39.0486 48.595 43.5186 50.755 46.8486ZM21.595 36.9336H49.315C49.765 36.3786 50.26 35.8686 50.815 35.4336C54.94 32.1336 60.985 32.7936 64.285 36.9336H70.405C71.455 35.1036 72.97 33.5886 74.8 32.5386V12.5286C72.97 11.4786 71.455 9.96359 70.405 8.13359H21.595C20.545 9.96359 19.03 11.4786 17.2 12.5286V32.5386C19.03 33.5886 20.545 35.1036 21.595 36.9336ZM64.84 51.5586C67.615 54.4086 72.175 54.4686 75.025 51.6936C76.39 50.3586 77.17 48.5436 77.2 46.6236C77.26 42.6486 74.08 39.3936 70.105 39.3336H70C68.125 39.3336 66.325 40.0686 64.975 41.3736C62.125 44.1486 62.065 48.7086 64.84 51.5586ZM79.6 3.33359H12.4V41.7336H47.275C47.38 40.9086 47.59 40.0986 47.905 39.3336H20.875C20.41 39.3336 20.005 39.0786 19.795 38.6736C18.865 36.7986 17.335 35.2686 15.46 34.3386C15.055 34.1286 14.8 33.7086 14.8 33.2586V11.8086C14.8 11.3436 15.055 10.9386 15.46 10.7286C17.35 9.79859 18.865 8.28359 19.795 6.39359C20.005 5.98859 20.425 5.73359 20.875 5.73359H71.125C71.59 5.73359 71.995 5.98859 72.205 6.39359C73.135 8.28359 74.65 9.79859 76.54 10.7136C76.945 10.9236 77.2 11.3436 77.2 11.7936V33.2436C77.2 33.7086 76.945 34.1136 76.54 34.3236C75.1 35.0436 73.87 36.0936 72.955 37.3986C75.205 38.1336 77.125 39.6786 78.31 41.7336H78.4H79.6V3.33359ZM45.9998 10.4286C52.6298 10.4286 57.9998 15.7986 57.9998 22.4286C57.9998 29.0586 52.6298 34.4136 45.9998 34.4286C39.3698 34.4286 33.9998 29.0586 33.9998 22.4286C33.9998 15.7986 39.3698 10.4286 45.9998 10.4286ZM36.3998 22.4286C36.3998 27.7236 40.7048 32.0286 45.9998 32.0286C51.2948 32.0136 55.5998 27.7236 55.5998 22.4286C55.5998 17.1336 51.2948 12.8286 45.9998 12.8286C40.7048 12.8286 36.3998 17.1336 36.3998 22.4286ZM25.6002 18.9338C23.6052 18.9338 22.0002 20.5388 22.0002 22.5338C22.0002 24.5288 23.6052 26.1338 25.6002 26.1338C27.5952 26.1338 29.2002 24.5288 29.2002 22.5338C29.2002 20.5538 27.5802 18.9338 25.6002 18.9338ZM25.6002 23.7338C24.9402 23.7338 24.4002 23.1938 24.4002 22.5338C24.4002 21.8738 24.9402 21.3338 25.6002 21.3338C26.2602 21.3338 26.8002 21.8738 26.8002 22.5338C26.8002 23.1938 26.2602 23.7338 25.6002 23.7338ZM70 22.5338C70 24.5288 68.395 26.1338 66.4 26.1338C64.42 26.1338 62.8 24.5138 62.8 22.5338C62.8 20.5388 64.405 18.9338 66.4 18.9338C68.395 18.9338 70 20.5388 70 22.5338ZM67.6 22.5338C67.6 21.8738 67.06 21.3338 66.4 21.3338C65.74 21.3338 65.2 21.8738 65.2 22.5338C65.2 23.1938 65.74 23.7338 66.4 23.7338C67.06 23.7338 67.6 23.1938 67.6 22.5338ZM56.7998 40.5338C57.4598 40.5338 57.9998 39.9938 57.9998 39.3338C57.9998 38.6738 57.4598 38.1338 56.7998 38.1338C54.1448 38.1338 51.9998 40.2788 51.9998 42.9338C51.9998 45.5888 54.1448 47.7338 56.7998 47.7338C57.4598 47.7338 57.9998 47.1938 57.9998 46.5338C57.9998 45.8738 57.4598 45.3338 56.7998 45.3338C55.4798 45.3338 54.3998 44.2538 54.3998 42.9338C54.3998 41.6138 55.4798 40.5338 56.7998 40.5338ZM69.9998 41.7337H70.0598C72.7148 41.7787 74.8298 43.9537 74.7998 46.5937C74.7848 47.2537 74.2598 47.7787 73.5998 47.7787H73.5848C72.9248 47.7637 72.3848 47.2237 72.3998 46.5637C72.4148 45.2437 71.3498 44.1487 70.0298 44.1337C68.7098 44.1187 67.6148 45.1837 67.5998 46.5037C67.5848 47.1637 67.0448 47.7037 66.3848 47.6887C65.7248 47.6737 65.1848 47.1337 65.1998 46.4737C65.2448 43.8487 67.3748 41.7337 69.9998 41.7337Z" fill="#7ECA1D"/>
<path fill-rule="evenodd" clip-rule="evenodd" d="M15.636 31.4243C24.273 31.4243 31.272 38.4261 31.272 47.0603C31.272 55.6973 24.2702 62.6963 15.636 62.6963C6.99897 62.6963 0 55.6945 0 47.0603C0 38.4233 7.00178 31.4243 15.636 31.4243Z" fill="#7ECA1D"/>
<path fill-rule="evenodd" clip-rule="evenodd" d="M15.6363 33.5428C23.1016 33.5428 29.1565 39.5949 29.1565 47.063C29.1565 54.5284 23.1044 60.5833 15.6363 60.5833C8.17088 60.5833 2.11597 54.5312 2.11597 47.063C2.11597 39.5977 8.16807 33.5428 15.6363 33.5428Z" fill="url(#paint1_linear)"/>
<path d="M17.1673 46.2175L18.8981 44.0147V42.1547H12.4639V44.2985H16.1249L14.3098 46.5996L15.1808 47.9005H15.6529C16.5969 47.9005 17.01 48.4006 17.01 49.016C17.01 49.6313 16.5941 50.1314 15.6529 50.1314C14.7819 50.1314 14.352 49.7296 14.1216 49.0721L12.1492 50.2157C12.7645 51.688 14.1356 52.3595 15.6529 52.3595C17.5831 52.3595 19.2999 51.2159 19.2999 49.0131C19.2999 47.6251 18.398 46.6389 17.1701 46.2091L17.1673 46.2175Z" fill="#7ECA1D"/>
<defs>
<linearGradient id="paint0_linear" x1="24.4001" y1="12.8283" x2="83.092" y2="24.7605" gradientUnits="userSpaceOnUse">
<stop stop-color="#E3EEFF"/>
<stop offset="0.526042" stop-color="#E4F6E4"/>
<stop offset="1" stop-color="#FFEEE4"/>
</linearGradient>
<linearGradient id="paint1_linear" x1="2.11597" y1="33.5428" x2="32.658" y2="38.3534" gradientUnits="userSpaceOnUse">
<stop stop-color="#E3EEFF"/>
<stop offset="0.526042" stop-color="#E4F6E4"/>
<stop offset="1" stop-color="#FFEEE4"/>
</linearGradient>
</defs>
</svg>
