<svg width="48" height="48" viewBox="0 0 48 48" fill="none" xmlns="http://www.w3.org/2000/svg">
<path d="M41.8019 17.491H10.6881V27.7801H41.8019V17.491Z" fill="url(#paint0_linear)"/>
<path fill-rule="evenodd" clip-rule="evenodd" d="M16.6994 3.78955H35.7877C39.7944 3.78955 43.0725 7.06771 43.0725 11.0744V34.3392C43.0725 38.3458 39.7944 41.624 35.7877 41.624H16.6994C12.6927 41.624 9.41455 38.3458 9.41455 34.3392V28.4155V11.0744C9.41455 7.06771 12.6927 3.78955 16.6994 3.78955ZM10.6908 16.2175H41.8018V11.0716C41.8018 7.76607 39.096 5.06028 35.7905 5.06028H16.7021C13.3965 5.06028 10.6908 7.76607 10.6908 11.0716V16.2175ZM41.8018 17.491H10.688V27.7801H41.8018V17.491ZM41.7991 29.0508H10.688V34.3364C10.688 37.642 13.3938 40.3478 16.6994 40.3478H35.7877C39.0933 40.3478 41.7991 37.642 41.7991 34.3364V29.0508ZM15.99 10.3979H36.497C36.8476 10.3979 37.1324 10.6854 37.1324 11.0332C37.1324 11.3838 36.8448 11.6686 36.497 11.6686H15.99C15.6395 11.6686 15.3547 11.381 15.3547 11.0332C15.3547 10.6827 15.6422 10.3979 15.99 10.3979ZM30.798 21.5387C30.5515 21.2922 30.1462 21.2922 29.8997 21.5387H29.897C29.6505 21.7852 29.6505 22.1905 29.897 22.437L32.2577 24.7977L32.2686 24.8087L32.2796 24.8196L32.2905 24.8306L32.3042 24.8415L32.3179 24.8525L32.3316 24.8634L32.3453 24.8717L32.359 24.8799L32.3727 24.8881L32.3864 24.8963L32.4001 24.9045L32.4138 24.9127L32.4275 24.921L32.4412 24.9264L32.4548 24.9319L32.4685 24.9374L32.4822 24.9429L32.4959 24.9483L32.5096 24.9538L32.5233 24.9593L32.537 24.9648L32.5507 24.9675L32.5644 24.9703L32.5781 24.973L32.5918 24.9757L32.6082 24.9785L32.6246 24.9812L32.6411 24.9839H32.6575H32.6739H32.6904H32.7068H32.7232H32.7397H32.7561H32.7725L32.789 24.9812L32.8054 24.9785L32.8218 24.9757L32.8383 24.973L32.8519 24.9703L32.8656 24.9675L32.8793 24.9648L32.893 24.9593L32.9067 24.9538L32.9204 24.9483L32.9341 24.9429L32.9478 24.9374L32.9615 24.9319L32.9752 24.9264L32.9889 24.921L33.0026 24.9127L33.0163 24.9045L33.03 24.8963L33.0437 24.8881L33.0573 24.8799L33.071 24.8717L33.0847 24.8634L33.0984 24.8525L33.1121 24.8415L33.1258 24.8306L33.1368 24.8196L33.1477 24.8087L33.1587 24.7977L36.9462 21.0102C37.1927 20.7637 37.1927 20.3584 36.9462 20.1119C36.6997 19.8654 36.2944 19.8654 36.0479 20.1119L32.7095 23.4503L30.798 21.5387ZM15.99 34.1666H36.497C36.8476 34.1666 37.1324 34.4542 37.1324 34.802C37.1324 35.1525 36.8448 35.4374 36.497 35.4374H15.99C15.6395 35.4374 15.3547 35.1498 15.3547 34.802C15.3547 34.4514 15.6422 34.1666 15.99 34.1666ZM25.6082 22.1358H15.99C15.6422 22.1358 15.3547 22.4206 15.3547 22.7711C15.3547 23.1189 15.6395 23.4065 15.99 23.4065H25.6082C25.956 23.4065 26.2435 23.1217 26.2435 22.7711C26.2435 22.4233 25.9587 22.1358 25.6082 22.1358Z" fill="#7ECA1D"/>
<path d="M13.1857 44.2106C18.3752 44.2106 22.582 40.0037 22.582 34.8143C22.582 29.6248 18.3752 25.418 13.1857 25.418C7.99629 25.418 3.78943 29.6248 3.78943 34.8143C3.78943 40.0037 7.99629 44.2106 13.1857 44.2106Z" fill="#7ECA1D"/>
<path d="M13.1858 42.9371C17.6719 42.9371 21.3086 39.3004 21.3086 34.8142C21.3086 30.3281 17.6719 26.6914 13.1858 26.6914C8.6997 26.6914 5.06299 30.3281 5.06299 34.8142C5.06299 39.3004 8.6997 42.9371 13.1858 42.9371Z" fill="url(#paint1_linear)"/>
<path d="M12.8627 31.8044L11.288 32.3713L11.6248 33.549L12.6902 33.2587V37.8213H14.065V31.8044H12.8627Z" fill="#7ECA1D"/>
<defs>
<linearGradient id="paint0_linear" x1="10.6881" y1="17.491" x2="40.043" y2="31.4728" gradientUnits="userSpaceOnUse">
<stop stop-color="#E3EEFF"/>
<stop offset="0.526042" stop-color="#E4F6E4"/>
<stop offset="1" stop-color="#FFEEE4"/>
</linearGradient>
<linearGradient id="paint1_linear" x1="5.06299" y1="26.6914" x2="23.4123" y2="29.5816" gradientUnits="userSpaceOnUse">
<stop stop-color="#E3EEFF"/>
<stop offset="0.526042" stop-color="#E4F6E4"/>
<stop offset="1" stop-color="#FFEEE4"/>
</linearGradient>
</defs>
</svg>
