<svg width="48" height="48" viewBox="0 0 48 48" fill="none" xmlns="http://www.w3.org/2000/svg">
<path fill-rule="evenodd" clip-rule="evenodd" d="M25.6695 2.89526C37.3049 2.89526 46.7369 12.3273 46.7369 23.9627C46.7369 35.5981 37.3049 45.0301 25.6695 45.0301C14.0341 45.0301 4.60205 35.5981 4.60205 23.9627C4.60205 12.3273 14.0341 2.89526 25.6695 2.89526ZM32.0278 20.6186C32.3679 19.2991 32.5468 17.8405 32.4575 16.4117C34.5238 18.2704 35.823 20.9653 35.823 23.9627C35.823 24.7733 35.7279 25.5618 35.5484 26.3176C34.6573 26.6351 33.8123 27.0575 33.0822 27.5163C31.0326 28.8055 29.0556 30.8856 28.7971 33.3999C28.7892 33.4768 28.7831 33.5536 28.7786 33.6302C27.9916 33.8832 27.1627 34.0427 26.305 34.0958C26.5455 33.3376 26.685 32.5136 26.8271 31.6741C27.1401 29.8256 27.4658 27.9013 28.9103 26.4363C30.4395 24.8835 31.4871 22.7139 32.0278 20.6186ZM28.8621 34.9134C27.873 35.2014 26.8284 35.359 25.748 35.3666C25.6036 35.6075 25.4377 35.8358 25.2453 36.0491C24.0371 37.3891 22.246 37.553 20.5546 37.3569C18.3174 37.0984 16.2847 36.2519 14.6964 34.6297C11.3744 31.2402 11.1125 25.6827 11.6735 21.2472C12.7295 12.9 16.4249 9.06432 25.0662 9.15218H25.0645C27.3084 9.17584 29.3969 9.91425 30.8163 11.7189C31.4867 12.5708 31.9275 13.5569 32.1859 14.6022C32.5444 14.8524 32.8879 15.1226 33.2147 15.4112C33.5206 14.3752 34.4792 13.62 35.6135 13.62C36.9957 13.62 38.1143 14.7403 38.1143 16.1208C38.1143 16.1439 38.114 16.167 38.1133 16.19C38.3778 16.1303 38.653 16.0987 38.9355 16.0987C40.9885 16.0987 42.6529 17.7631 42.6529 19.8161C42.6529 21.8691 40.9885 23.5335 38.9355 23.5335C38.2408 23.5335 37.5905 23.3429 37.0342 23.0112C37.0602 23.3249 37.0734 23.6422 37.0734 23.9627C37.0734 24.6335 37.0154 25.2907 36.9043 25.9297C37.8579 25.7262 38.8241 25.672 39.7262 25.8434L40.6808 26.0242L40.7417 26.9941L40.74 26.9924C40.8701 29.0826 39.9965 31.4127 38.9016 33.1616C37.0446 36.1271 33.6837 38.7326 30.0694 37.1291L29.6909 36.9618L29.4882 36.6019C29.1859 36.0662 28.974 35.5 28.8621 34.9134ZM36.5781 27.297C37.6191 27.0017 38.6336 26.9072 39.4913 27.0702C39.7464 31.161 35.2062 38.0415 30.5763 35.9851C30.2956 35.4875 30.128 34.9873 30.0577 34.4913C33.1701 33.1924 35.5837 30.5543 36.5781 27.297ZM30.1066 33.0967C32.3241 32.0175 34.09 30.1549 35.044 27.8691C32.7063 28.949 30.5601 30.9097 30.1066 33.0967ZM25.6695 4.14565C36.6138 4.14565 45.4865 13.0184 45.4865 23.9627C45.4865 34.907 36.6138 43.7797 25.6695 43.7797C14.7252 43.7797 5.85244 34.907 5.85244 23.9627C5.85244 13.0184 14.7252 4.14565 25.6695 4.14565ZM28.0181 25.5576C32.19 21.3249 33.3323 10.4871 25.051 10.4026C16.768 10.3181 13.8481 14.0067 12.912 21.4043C11.9776 28.8019 13.8667 35.3276 20.6966 36.115C24.706 36.5773 25.0934 34.3172 25.5737 31.5154C25.9115 29.5445 26.2953 27.3056 28.0181 25.5576ZM17.1483 23.3862L21.9741 28.2121C22.2174 28.4554 22.2174 28.8525 21.9741 29.0958C21.7308 29.3391 21.3337 29.3391 21.0904 29.0958L16.2646 24.27C16.0212 24.0266 16.0212 23.6296 16.2646 23.3862C16.5079 23.1429 16.905 23.1429 17.1483 23.3862ZM23.3039 13.988L28.1298 18.8139C28.3731 19.0572 28.3731 19.4543 28.1298 19.6976C27.8864 19.9409 27.4893 19.9409 27.246 19.6976L22.4202 14.8717C22.1769 14.6284 22.1769 14.2313 22.4202 13.988C22.6635 13.7447 23.0606 13.7447 23.3039 13.988ZM18.1148 16.0512L22.9406 20.877C23.1839 21.1203 23.1839 21.5174 22.9406 21.7607C22.6973 22.004 22.3002 22.004 22.0569 21.7607L17.2311 16.9349C16.9878 16.6916 16.9878 16.2945 17.2311 16.0512C17.4744 15.8078 17.8715 15.8078 18.1148 16.0512ZM35.6135 14.8704C36.3046 14.8704 36.8639 15.4297 36.8639 16.1208C36.8639 16.8119 36.3046 17.3712 35.6135 17.3712C34.9224 17.3712 34.3631 16.8119 34.3631 16.1208C34.3631 15.4297 34.9224 14.8704 35.6135 14.8704ZM41.4025 19.8161C41.4025 18.4542 40.2974 17.3491 38.9355 17.3491C37.5736 17.3491 36.4685 18.4542 36.4685 19.8161C36.4685 21.178 37.5736 22.2831 38.9355 22.2831C40.2974 22.2831 41.4025 21.178 41.4025 19.8161Z" fill="#7ECA1D"/>
<path fill-rule="evenodd" clip-rule="evenodd" d="M36.8638 16.1222C36.8638 16.8128 36.3039 17.3726 35.6134 17.3726C34.9228 17.3726 34.363 16.8128 34.363 16.1222C34.363 15.4316 34.9228 14.8718 35.6134 14.8718C36.3039 14.8718 36.8638 15.4316 36.8638 16.1222ZM38.9354 22.2829C40.2979 22.2829 41.4024 21.1784 41.4024 19.8159C41.4024 18.4534 40.2979 17.3489 38.9354 17.3489C37.5729 17.3489 36.4684 18.4534 36.4684 19.8159C36.4684 21.1784 37.5729 22.2829 38.9354 22.2829ZM39.4931 27.0682C35.4479 26.2993 27.9135 31.2603 30.5781 35.9831C35.208 38.0395 39.7482 31.159 39.4931 27.0682Z" fill="url(#paint0_linear)"/>
<path d="M10.5009 45.1338C15.6027 45.1338 19.7386 40.998 19.7386 35.8961C19.7386 30.7943 15.6027 26.6584 10.5009 26.6584C5.39904 26.6584 1.26318 30.7943 1.26318 35.8961C1.26318 40.998 5.39904 45.1338 10.5009 45.1338Z" fill="#7ECA1D"/>
<path d="M10.5008 43.8835C14.9121 43.8835 18.4881 40.3075 18.4881 35.8962C18.4881 31.485 14.9121 27.9089 10.5008 27.9089C6.08958 27.9089 2.51355 31.485 2.51355 35.8962C2.51355 40.3075 6.08958 43.8835 10.5008 43.8835Z" fill="url(#paint1_linear)"/>
<path d="M8.51886 38.9124H12.5404V37.6113H10.555L11.535 36.6229C12.0757 36.0821 12.4559 35.4738 12.4559 34.7642C12.4559 33.5729 11.5097 32.8801 10.4536 32.8801C9.63407 32.8801 8.8399 33.2941 8.45972 34.1728L9.60028 34.8402C9.7608 34.4685 10.0565 34.1981 10.4705 34.1981C10.8676 34.1981 11.1041 34.4516 11.1041 34.8233C11.1041 35.1697 10.8507 35.5161 10.5043 35.8709L8.51886 37.9324V38.9124Z" fill="#7ECA1D"/>
<defs>
<linearGradient id="paint0_linear" x1="30.0206" y1="14.8718" x2="43.1041" y2="15.9635" gradientUnits="userSpaceOnUse">
<stop stop-color="#E3EEFF"/>
<stop offset="0.526042" stop-color="#E4F6E4"/>
<stop offset="1" stop-color="#FFEEE4"/>
</linearGradient>
<linearGradient id="paint1_linear" x1="2.51355" y1="27.9089" x2="20.5567" y2="30.7509" gradientUnits="userSpaceOnUse">
<stop stop-color="#E3EEFF"/>
<stop offset="0.526042" stop-color="#E4F6E4"/>
<stop offset="1" stop-color="#FFEEE4"/>
</linearGradient>
</defs>
</svg>
