<svg width="48" height="48" viewBox="0 0 48 48" fill="none" xmlns="http://www.w3.org/2000/svg">
<path fill-rule="evenodd" clip-rule="evenodd" d="M25.1578 10.4714C34.7238 10.9017 42.3487 18.7967 42.3487 28.4678C42.3487 38.4191 34.2835 46.4843 24.3322 46.4843C14.3809 46.4843 6.3158 38.4191 6.3158 28.4678C6.3158 18.7917 13.9406 10.9017 23.5067 10.4714V7.47951H21.2353C19.8744 7.47951 18.7587 6.3638 18.7587 5.00294C18.7587 3.64208 19.8744 2.52637 21.2353 2.52637H27.4592C28.8201 2.52637 29.9358 3.64208 29.9358 5.00294C29.9358 6.3638 28.8201 7.47951 27.4592 7.47951H25.1578V10.4714ZM21.2353 4.17742H27.4592C27.9145 4.17742 28.2847 4.54765 28.2847 5.00294C28.2847 5.45823 27.9145 5.82846 27.4592 5.82846H21.2353C20.78 5.82846 20.4097 5.45823 20.4097 5.00294C20.4097 4.54765 20.78 4.17742 21.2353 4.17742ZM24.3322 42.4067C24.7875 42.4067 25.1578 42.7769 25.1578 43.2322V44.8132C33.5431 44.3979 40.2623 37.6737 40.6776 29.2934H39.0966C38.6413 29.2934 38.2711 28.9231 38.2711 28.4678C38.2711 28.0125 38.6413 27.6423 39.0966 27.6423H40.6776C40.2623 19.257 33.5381 12.5377 25.1578 12.1225V13.7035C25.1578 14.1588 24.7875 14.529 24.3322 14.529C23.8769 14.529 23.5067 14.1588 23.5067 13.7035V12.1225C15.1214 12.5377 8.40212 19.262 7.98686 27.6423H9.56786C10.0231 27.6423 10.3934 28.0125 10.3934 28.4678C10.3934 28.9231 10.0231 29.2934 9.56786 29.2934H7.98686C8.40212 37.6787 15.1264 44.3979 23.5067 44.8132V43.2322C23.5067 42.7769 23.8769 42.4067 24.3322 42.4067Z" fill="#7ECA1D"/>
<path fill-rule="evenodd" clip-rule="evenodd" d="M30.3862 17.9807C30.7815 18.2059 30.9166 18.7162 30.6864 19.1064L27.0641 25.3804C27.9147 26.1359 28.455 27.2366 28.455 28.4674C28.455 30.7438 26.6088 32.59 24.3324 32.59C22.0559 32.59 20.2098 30.7438 20.2098 28.4674C20.2098 28.0121 20.2848 27.5718 20.4199 27.1615L16.0021 24.6099C15.6068 24.3848 15.4718 23.8744 15.7019 23.4842C15.927 23.089 16.4374 22.9539 16.8276 23.184L21.2454 25.7356C22.0009 24.8851 23.1016 24.3447 24.3324 24.3447C24.7877 24.3447 25.2279 24.4198 25.6382 24.5549L29.2605 18.2809C29.4856 17.8856 29.996 17.7506 30.3862 17.9807ZM24.3324 25.9958C25.6982 25.9958 26.8089 27.1015 26.8089 28.4724C26.8089 29.8382 25.7032 30.9489 24.3324 30.9489C22.9665 30.9489 21.8558 29.8432 21.8558 28.4724C21.8558 27.1065 22.9615 25.9958 24.3324 25.9958Z" fill="#7ECA1D"/>
<path fill-rule="evenodd" clip-rule="evenodd" d="M24.3325 25.9309C25.7384 25.9309 26.8741 27.0666 26.8741 28.4725C26.8741 29.8784 25.7384 31.0141 24.3325 31.0141C22.9266 31.0141 21.7909 29.8784 21.7909 28.4725C21.7909 27.0666 22.9266 25.9309 24.3325 25.9309Z" fill="url(#paint0_linear)"/>
<defs>
<linearGradient id="paint0_linear" x1="21.7909" y1="25.9309" x2="27.5323" y2="26.8352" gradientUnits="userSpaceOnUse">
<stop stop-color="#E3EEFF"/>
<stop offset="0.526042" stop-color="#E4F6E4"/>
<stop offset="1" stop-color="#FFEEE4"/>
</linearGradient>
</defs>
</svg>
