<svg width="80" height="80" viewBox="0 0 80 80" fill="none" xmlns="http://www.w3.org/2000/svg">
<path fill-rule="evenodd" clip-rule="evenodd" d="M41.9287 17.4522C57.8721 18.1693 70.5802 31.3277 70.5802 47.4462C70.5802 64.0317 57.1383 77.4736 40.5528 77.4736C23.9673 77.4736 10.5254 64.0317 10.5254 47.4462C10.5254 31.3193 23.2335 18.1693 39.1769 17.4522V12.4657H35.3912C33.1231 12.4657 31.2636 10.6062 31.2636 8.33807C31.2636 6.06996 33.1231 4.21045 35.3912 4.21045H45.7644C48.0325 4.21045 49.892 6.06996 49.892 8.33807C49.892 10.6062 48.0325 12.4657 45.7644 12.4657H41.9287V17.4522ZM35.3912 6.9622H45.7644C46.5232 6.9622 47.1403 7.57925 47.1403 8.33807C47.1403 9.09688 46.5232 9.71394 45.7644 9.71394H35.3912C34.6324 9.71394 34.0153 9.09688 34.0153 8.33807C34.0153 7.57925 34.6324 6.9622 35.3912 6.9622ZM40.5528 70.6776C41.3116 70.6776 41.9287 71.2947 41.9287 72.0535V74.6885C55.9042 73.9964 67.103 62.7893 67.7951 48.8221H65.1601C64.4012 48.8221 63.7842 48.205 63.7842 47.4462C63.7842 46.6874 64.4012 46.0703 65.1601 46.0703H67.7951C67.103 32.0948 55.8959 20.896 41.9287 20.2039V22.8389C41.9287 23.5978 41.3116 24.2148 40.5528 24.2148C39.794 24.2148 39.1769 23.5978 39.1769 22.8389V20.2039C25.2014 20.896 14.0026 32.1031 13.3105 46.0703H15.9455C16.7043 46.0703 17.3214 46.6874 17.3214 47.4462C17.3214 48.205 16.7043 48.8221 15.9455 48.8221H13.3105C14.0026 62.7976 25.2097 73.9964 39.1769 74.6885V72.0535C39.1769 71.2947 39.794 70.6776 40.5528 70.6776Z" fill="#1DD0C7"/>
<path fill-rule="evenodd" clip-rule="evenodd" d="M50.6435 29.9677C51.3022 30.3429 51.5273 31.1935 51.1438 31.8439L45.1066 42.3005C46.5242 43.5596 47.4247 45.3941 47.4247 47.4454C47.4247 51.2395 44.3478 54.3165 40.5537 54.3165C36.7596 54.3165 33.6827 51.2395 33.6827 47.4454C33.6827 46.6866 33.8078 45.9528 34.0329 45.2691L26.6699 41.0164C26.0112 40.6411 25.786 39.7906 26.1696 39.1402C26.5448 38.4814 27.3954 38.2563 28.0458 38.6399L35.4088 42.8926C36.6679 41.475 38.5024 40.5744 40.5537 40.5744C41.3125 40.5744 42.0463 40.6995 42.7301 40.9246L48.7673 30.468C49.1425 29.8093 49.993 29.5841 50.6435 29.9677ZM40.5537 43.3262C42.8302 43.3262 44.6813 45.169 44.6813 47.4538C44.6813 49.7302 42.8385 51.5814 40.5537 51.5814C38.2773 51.5814 36.4261 49.7386 36.4261 47.4538C36.4261 45.1773 38.2689 43.3262 40.5537 43.3262Z" fill="#1DD0C7"/>
<path fill-rule="evenodd" clip-rule="evenodd" d="M40.5524 43.218C42.8956 43.218 44.7884 45.1109 44.7884 47.454C44.7884 49.7972 42.8956 51.6901 40.5524 51.6901C38.2093 51.6901 36.3164 49.7972 36.3164 47.454C36.3164 45.1109 38.2093 43.218 40.5524 43.218Z" fill="url(#paint0_linear)"/>
<defs>
<linearGradient id="paint0_linear" x1="36.3164" y1="43.218" x2="45.8855" y2="44.7252" gradientUnits="userSpaceOnUse">
<stop stop-color="#E3EEFF"/>
<stop offset="0.526042" stop-color="#E4F6E4"/>
<stop offset="1" stop-color="#FFEEE4"/>
</linearGradient>
</defs>
</svg>
