<svg width="48" height="48" viewBox="0 0 48 48" fill="none" xmlns="http://www.w3.org/2000/svg">
<path fill-rule="evenodd" clip-rule="evenodd" d="M25.1584 10.4714C34.7244 10.9017 42.3493 18.7967 42.3493 28.4678C42.3493 38.4191 34.2842 46.4843 24.3328 46.4843C14.3815 46.4843 6.31641 38.4191 6.31641 28.4678C6.31641 18.7917 13.9412 10.9017 23.5073 10.4714V7.47951H21.2359C19.875 7.47951 18.7593 6.3638 18.7593 5.00294C18.7593 3.64208 19.875 2.52637 21.2359 2.52637H27.4598C28.8207 2.52637 29.9364 3.64208 29.9364 5.00294C29.9364 6.3638 28.8207 7.47951 27.4598 7.47951H25.1584V10.4714ZM21.2359 4.17742H27.4598C27.9151 4.17742 28.2853 4.54765 28.2853 5.00294C28.2853 5.45823 27.9151 5.82846 27.4598 5.82846H21.2359C20.7806 5.82846 20.4103 5.45823 20.4103 5.00294C20.4103 4.54765 20.7806 4.17742 21.2359 4.17742ZM24.3328 42.4067C24.7881 42.4067 25.1584 42.7769 25.1584 43.2322V44.8132C33.5437 44.3979 40.2629 37.6737 40.6782 29.2934H39.0972C38.6419 29.2934 38.2717 28.9231 38.2717 28.4678C38.2717 28.0125 38.6419 27.6423 39.0972 27.6423H40.6782C40.2629 19.257 33.5387 12.5377 25.1584 12.1225V13.7035C25.1584 14.1588 24.7881 14.529 24.3328 14.529C23.8775 14.529 23.5073 14.1588 23.5073 13.7035V12.1225C15.122 12.5377 8.40273 19.262 7.98747 27.6423H9.56847C10.0238 27.6423 10.394 28.0125 10.394 28.4678C10.394 28.9231 10.0238 29.2934 9.56847 29.2934H7.98747C8.40273 37.6787 15.127 44.3979 23.5073 44.8132V43.2322C23.5073 42.7769 23.8775 42.4067 24.3328 42.4067Z" fill="#7ECA1D"/>
<path fill-rule="evenodd" clip-rule="evenodd" d="M30.3865 17.9807C30.7817 18.2059 30.9168 18.7162 30.6867 19.1064L27.0644 25.3804C27.9149 26.1359 28.4552 27.2366 28.4552 28.4674C28.4552 30.7438 26.6091 32.59 24.3326 32.59C22.0562 32.59 20.21 30.7438 20.21 28.4674C20.21 28.0121 20.2851 27.5718 20.4201 27.1615L16.0023 24.6099C15.6071 24.3848 15.472 23.8744 15.7021 23.4842C15.9273 23.089 16.4376 22.9539 16.8279 23.184L21.2457 25.7356C22.0011 24.8851 23.1018 24.3447 24.3326 24.3447C24.7879 24.3447 25.2282 24.4198 25.6384 24.5549L29.2607 18.2809C29.4859 17.8856 29.9962 17.7506 30.3865 17.9807ZM24.3326 25.9958C25.6985 25.9958 26.8092 27.1015 26.8092 28.4724C26.8092 29.8382 25.7035 30.9489 24.3326 30.9489C22.9668 30.9489 21.856 29.8432 21.856 28.4724C21.856 27.1065 22.9618 25.9958 24.3326 25.9958Z" fill="#7ECA1D"/>
<path fill-rule="evenodd" clip-rule="evenodd" d="M24.3346 25.9309C25.7405 25.9309 26.8762 27.0666 26.8762 28.4725C26.8762 29.8784 25.7405 31.0141 24.3346 31.0141C22.9287 31.0141 21.793 29.8784 21.793 28.4725C21.793 27.0666 22.9287 25.9309 24.3346 25.9309Z" fill="url(#paint0_linear)"/>
<defs>
<linearGradient id="paint0_linear" x1="21.793" y1="25.9309" x2="27.5344" y2="26.8352" gradientUnits="userSpaceOnUse">
<stop stop-color="#E3EEFF"/>
<stop offset="0.526042" stop-color="#E4F6E4"/>
<stop offset="1" stop-color="#FFEEE4"/>
</linearGradient>
</defs>
</svg>
