<svg width="80" height="80" viewBox="0 0 80 80" fill="none" xmlns="http://www.w3.org/2000/svg">
<path fill-rule="evenodd" clip-rule="evenodd" d="M23.1946 8.05542C14.8473 8.05542 8.05566 14.8471 8.05566 23.1943C8.05566 31.5415 14.8473 38.3332 23.1946 38.3332C31.5418 38.3332 38.3334 31.5415 38.3334 23.1943C38.3334 14.8471 31.5418 8.05542 23.1946 8.05542ZM23.1947 17.5C20.0558 17.5 17.5002 20.0556 17.5002 23.1944C17.5002 26.3333 20.0558 28.8889 23.1947 28.8889C26.3336 28.8889 28.8891 26.3333 28.8891 23.1944C28.8891 20.0556 26.3336 17.5 23.1947 17.5Z" fill="url(#paint0_linear)"/>
<path fill-rule="evenodd" clip-rule="evenodd" d="M62.1111 43.0972C68.1667 44.2778 73.1805 49.0972 74.5556 55.0694C75.6944 59.9861 74.5833 65.0417 71.4861 68.9306C68.4167 72.7917 63.8333 75 58.8889 75H14.8611C14.2361 75 13.6806 74.625 13.4444 74.0556C10.75 67.5833 9.81944 60.4861 10.7778 53.5278L12.8472 38.1667L12.5833 37.9722C7.83333 34.5417 5 29.0278 5 23.1944C5 13.1667 13.1667 5 23.1944 5C33.2222 5 41.3889 13.1667 41.3889 23.1944C41.3889 30.2222 37.2639 36.6944 30.8889 39.6806L30.4861 39.875L30.5833 40.3056C30.9583 42 31.2639 43.2917 31.5417 44.4444L31.5849 44.6254C32.1444 46.9698 32.526 48.5684 33 51.25L33.1111 51.8472L33.6944 51.6806C35.0417 51.3056 36.4167 51.1111 37.7778 51.1111C39.6944 51.1111 41.6111 51.4722 43.4444 52.1944L43.9306 52.3889L44.1528 51.9167C47.3472 45.1667 54.5694 41.625 62.1111 43.0972ZM23.1944 8.05556C14.8472 8.05556 8.05556 14.8472 8.05556 23.1944C8.05556 31.5417 14.8472 38.3333 23.1944 38.3333C31.5417 38.3333 38.3333 31.5417 38.3333 23.1944C38.3333 14.8472 31.5417 8.05556 23.1944 8.05556ZM58.8889 71.9444C62.8889 71.9444 66.6111 70.1528 69.0972 67.0278C71.5972 63.875 72.5139 59.7639 71.6111 55.7361C70.5 50.9028 66.4583 47.0278 61.5556 46.0694C54.625 44.7222 48.3333 48.375 46.25 54.9444C46.1111 55.3889 45.7917 55.7361 45.3611 55.9028C44.9306 56.0694 44.4583 56.0417 44.0556 55.8194C42.0417 54.7222 39.9306 54.1528 37.7917 54.1528C35.4992 54.1528 33.8715 54.8041 32.8952 55.1947L32.8611 55.2083C32.5694 55.3333 32.3056 55.4306 32.1806 55.4583L32.0972 55.4722L32.0278 55.5139C30.75 56.1528 29.5833 56.9861 28.5694 58C28.2778 58.2917 27.9028 58.4444 27.4861 58.4444C27.0694 58.4444 26.6944 58.2917 26.4028 58C26.1111 57.7083 25.9583 57.3194 25.9583 56.9167C25.9583 56.5 26.1111 56.125 26.4028 55.8333C27.4306 54.8056 28.6111 53.9167 29.875 53.1944L30.2222 53L30.1528 52.6111C29.6361 49.5772 29.1952 47.7186 28.6614 45.4682C28.6356 45.3594 28.6096 45.2497 28.5833 45.1389C28.3194 44.0694 28.0417 42.8611 27.7083 41.4028L27.5833 40.8611L27.0417 40.9722C25.7778 41.25 24.4861 41.3889 23.1944 41.3889C20.8333 41.3889 18.5417 40.9444 16.375 40.0694L15.7083 39.8056L13.8056 53.9444C12.9861 59.875 13.6667 65.9722 15.75 71.5833L15.8889 71.9444H58.8889ZM17.5 23.1944C17.5 20.0556 20.0556 17.5 23.1944 17.5C26.3333 17.5 28.8889 20.0556 28.8889 23.1944C28.8889 26.3333 26.3333 28.8889 23.1944 28.8889C20.0556 28.8889 17.5 26.3333 17.5 23.1944ZM20.5556 23.1944C20.5556 24.6528 21.7361 25.8333 23.1944 25.8333C24.6528 25.8333 25.8333 24.6528 25.8333 23.1944C25.8333 21.7361 24.6528 20.5556 23.1944 20.5556C21.7361 20.5556 20.5556 21.7361 20.5556 23.1944Z" fill="#FF6889"/>
<defs>
<linearGradient id="paint0_linear" x1="8.05566" y1="8.05542" x2="42.254" y2="13.442" gradientUnits="userSpaceOnUse">
<stop stop-color="#E3EEFF"/>
<stop offset="0.526042" stop-color="#E4F6E4"/>
<stop offset="1" stop-color="#FFEEE4"/>
</linearGradient>
</defs>
</svg>
