<svg width="48" height="48" viewBox="0 0 48 48" fill="none" xmlns="http://www.w3.org/2000/svg">
<path fill-rule="evenodd" clip-rule="evenodd" d="M2.41635 38.5583C1.49034 37.1847 1.1791 35.5282 1.28199 33.6813C3.29349 25.391 11.0051 16.2286 16.4403 11.4417C16.4068 11.7786 16.3888 12.1182 16.3888 12.4628C16.3888 12.7664 16.4043 13.0647 16.43 13.3606C10.7865 18.5874 4.44843 26.8726 2.69415 33.8871C2.63756 35.1887 2.80991 36.516 3.50956 37.6349C5.09407 39.0625 7.45796 40.1789 9.4103 40.9351C12.4841 42.1286 15.7972 42.9209 19.0562 43.4019C26.7473 44.5337 35.0788 44.0167 42.3634 41.1872C42.6721 41.0586 42.9499 40.8862 43.202 40.665C45.7202 38.4554 45.2906 31.6724 45.2829 28.56V28.4802L45.2906 28.4005C45.3755 27.6314 45.2546 26.8906 44.8637 26.2192C43.6315 24.1048 40.4908 23.5698 38.2684 23.7807C34.7933 24.1126 31.7735 26.0598 29.9806 29.0487L29.3736 30.0596L28.2675 29.6481C25.2065 28.506 22.305 28.9227 19.5964 30.7387L18.6576 31.3663L17.9065 34.6691C17.446 34.5636 16.983 34.4582 16.5226 34.3553C17.0653 32.7322 17.2119 31.2583 17.3894 29.4551C17.4923 28.0635 17.2402 27.2842 16.9856 25.9723C16.785 24.946 16.7772 24.0483 16.9907 23.0194C17.2608 21.7152 17.8447 20.3905 18.4595 19.1841C18.336 18.7983 18.2126 18.4099 18.0891 18.024C18.5495 18.7057 19.0923 19.3256 19.7045 19.8709C16.8698 25.4681 19.1128 25.4476 18.8067 29.5606C22.3024 27.2198 25.7415 27.1915 28.7639 28.3208C34.1657 19.3205 47.4976 21.3088 46.7028 28.56C46.7131 33.0923 47.2353 40.7293 42.8907 42.5067C27.1203 48.639 8.04187 43.8263 2.41892 38.5583H2.41635ZM22.7294 39.6644C28.1106 40.2303 33.3966 39.8908 38.5668 38.4117C38.6028 38.8824 38.6414 39.3557 38.6774 39.8265C33.5355 41.3184 28.2443 41.6245 22.84 41.0791C22.804 40.6084 22.7654 40.1351 22.7294 39.6644Z" fill="#7ECA1D"/>
<path fill-rule="evenodd" clip-rule="evenodd" d="M26.3227 2.52637C31.8093 2.52637 36.2593 6.97379 36.2593 12.463C36.2593 17.9496 31.8118 22.3996 26.3227 22.3996C20.836 22.3996 16.386 17.9522 16.386 12.463C16.386 6.97636 20.8335 2.52637 26.3227 2.52637ZM26.3227 3.94625C31.0273 3.94625 34.8394 7.75833 34.8394 12.463C34.8394 17.1676 31.0273 20.9797 26.3227 20.9797C21.618 20.9797 17.8059 17.1676 17.8059 12.463C17.8059 7.75833 21.618 3.94625 26.3227 3.94625Z" fill="#7ECA1D"/>
<path d="M26.3229 20.9797C31.0265 20.9797 34.8396 17.1667 34.8396 12.463C34.8396 7.75936 31.0265 3.94629 26.3229 3.94629C21.6192 3.94629 17.8062 7.75936 17.8062 12.463C17.8062 17.1667 21.6192 20.9797 26.3229 20.9797Z" fill="url(#paint0_linear)"/>
<path fill-rule="evenodd" clip-rule="evenodd" d="M26.323 6.78345C29.4586 6.78345 32 9.32483 32 12.4604C32 15.596 29.4586 18.1374 26.323 18.1374C23.1874 18.1374 20.6461 15.596 20.6461 12.4604C20.6461 9.32483 23.1874 6.78345 26.323 6.78345ZM26.323 8.20333C28.6741 8.20333 30.5801 10.1094 30.5801 12.4604C30.5801 14.8114 28.6741 16.7175 26.323 16.7175C23.972 16.7175 22.0659 14.8114 22.0659 12.4604C22.0659 10.1094 23.972 8.20333 26.323 8.20333Z" fill="#7ECA1D"/>
<path d="M26.3228 16.7202C28.6739 16.7202 30.5799 14.8143 30.5799 12.4631C30.5799 10.112 28.6739 8.20605 26.3228 8.20605C23.9717 8.20605 22.0657 10.112 22.0657 12.4631C22.0657 14.8143 23.9717 16.7202 26.3228 16.7202Z" fill="url(#paint1_linear)"/>
<defs>
<linearGradient id="paint0_linear" x1="17.8062" y1="3.94629" x2="37.0452" y2="6.97663" gradientUnits="userSpaceOnUse">
<stop stop-color="#E3EEFF"/>
<stop offset="0.526042" stop-color="#E4F6E4"/>
<stop offset="1" stop-color="#FFEEE4"/>
</linearGradient>
<linearGradient id="paint1_linear" x1="22.0657" y1="8.20605" x2="31.6824" y2="9.72077" gradientUnits="userSpaceOnUse">
<stop stop-color="#E3EEFF"/>
<stop offset="0.526042" stop-color="#E4F6E4"/>
<stop offset="1" stop-color="#FFEEE4"/>
</linearGradient>
</defs>
</svg>
