<svg width="48" height="48" viewBox="0 0 48 48" fill="none" xmlns="http://www.w3.org/2000/svg">
<path fill-rule="evenodd" clip-rule="evenodd" d="M10.7033 10.5166C10.9645 7.46734 13.4901 5.05273 16.5449 5.05273H20.2127C23.2652 5.05273 25.7931 7.46508 26.0543 10.5166H29.4367C31.3293 10.5166 32.9717 11.646 33.7531 13.2768C33.5782 13.2159 33.3834 13.2452 33.2307 13.3627C33.0426 13.5072 32.8544 13.6495 32.6618 13.7873C32.0708 12.5766 30.8445 11.7409 29.4367 11.7409H7.32316C5.34423 11.7409 3.72391 13.3943 3.72391 15.4136V21.0786H21.6648V22.3028H3.72391V34.8863C3.72391 36.9056 5.34423 38.559 7.32316 38.559H27.7942C28.2546 39.0153 28.7106 39.4219 29.1555 39.7833H7.32537C4.68238 39.7833 2.52637 37.581 2.52637 34.8863V15.4114C2.52637 12.7144 4.68459 10.5144 7.32537 10.5144H10.7077L10.7033 10.5166ZM24.8479 10.5166C24.5912 8.1427 22.6056 6.27698 20.2127 6.27698H16.5449C14.152 6.27698 12.1664 8.14044 11.9097 10.5166H24.8502H24.8479Z" fill="#7ECA1D"/>
<path fill-rule="evenodd" clip-rule="evenodd" d="M45.4738 18.4901C45.4738 18.2055 45.2723 17.9616 45.0001 17.9164L43.7893 17.7086C40.221 17.0964 36.8032 15.5944 33.9079 13.3627C33.7065 13.2069 33.4298 13.2069 33.2283 13.3627C30.333 15.5944 26.9175 17.0964 23.347 17.7086L22.1362 17.9164C21.8639 17.9638 21.6625 18.2055 21.6625 18.4901V22.9172C21.6625 28.9504 23.3448 33.9603 27.4952 38.2609C30.3906 41.2605 33.266 42.2792 33.3855 42.3199C33.4431 42.3402 33.505 42.3492 33.567 42.3492C33.6268 42.3492 33.6888 42.338 33.7485 42.3199C33.8703 42.2792 36.7435 41.2605 39.6388 38.2609C43.7893 33.9603 45.4738 28.9504 45.4738 22.9172V18.4901Z" fill="#7ECA1D"/>
<path fill-rule="evenodd" clip-rule="evenodd" d="M44.2743 19.032L43.5903 18.9145C39.9844 18.2956 36.529 16.8162 33.5672 14.6274C30.6055 16.8162 27.1523 18.2956 23.5442 18.9145L22.8602 19.032V22.917C22.8602 28.5955 24.4031 33.3141 28.3499 37.4024C29.4478 38.5408 30.7095 39.546 32.0731 40.3365C32.5202 40.5963 33.0625 40.8876 33.5672 41.0864C34.0741 40.8876 34.6209 40.5918 35.0702 40.332C36.4294 39.5437 37.6867 38.5408 38.7846 37.4047C42.7314 33.3163 44.2743 28.6001 44.2743 22.9193V19.0343V19.032Z" fill="url(#paint0_linear)"/>
<path fill-rule="evenodd" clip-rule="evenodd" d="M33.06 23.5088C33.3898 23.5088 33.6598 23.7844 33.6598 24.1209V28.0082H38.8329C39.1628 28.0082 39.4328 28.2838 39.4328 28.6203C39.4328 28.9569 39.1628 29.2325 38.8329 29.2325H33.06H33.0445H33.029H33.0135L32.998 29.2302L32.9825 29.2279L32.967 29.2257L32.9515 29.2234L32.936 29.2212L32.9205 29.2189L32.905 29.2144L32.8917 29.2099L32.8785 29.2054L32.8652 29.2008L32.8519 29.1963L32.8386 29.1918L32.8253 29.1873L32.8121 29.1805L32.7988 29.1737L32.7855 29.167L32.7722 29.1602L32.7589 29.1534L32.7456 29.1466L32.7324 29.1399L32.7213 29.1308L32.7102 29.1218L32.6992 29.1127L32.6881 29.1037L32.677 29.0947L32.666 29.0856L32.6549 29.0766L32.6438 29.0676L32.6328 29.0563L32.6217 29.045L32.6128 29.0337L32.604 29.0224L32.5951 29.0111L32.5863 28.9998L32.5774 28.9885L32.5686 28.9772L32.5597 28.9659L32.5509 28.9546L32.5442 28.9411L32.5376 28.9275L32.5309 28.914L32.5243 28.9004L32.5176 28.8869L32.511 28.8733L32.5044 28.8598L32.4977 28.8462L32.4933 28.8327L32.4889 28.8191L32.4844 28.8056L32.48 28.792L32.4756 28.7785L32.4712 28.7626L32.469 28.7468L32.4667 28.731L32.4645 28.7152L32.4623 28.6994L32.4601 28.6836L32.4579 28.6678V28.652V28.6362V28.6203V24.1232C32.4579 23.7866 32.7279 23.511 33.0578 23.511L33.06 23.5088Z" fill="#7ECA1D"/>
<defs>
<linearGradient id="paint0_linear" x1="22.8602" y1="14.6274" x2="47.2508" y2="17.7367" gradientUnits="userSpaceOnUse">
<stop stop-color="#E3EEFF"/>
<stop offset="0.526042" stop-color="#E4F6E4"/>
<stop offset="1" stop-color="#FFEEE4"/>
</linearGradient>
</defs>
</svg>
