<svg width="48" height="48" viewBox="0 0 48 48" fill="none" xmlns="http://www.w3.org/2000/svg">
<path d="M23.3684 37.6565C29.285 37.6565 34.0814 32.8601 34.0814 26.9435C34.0814 21.0268 29.285 16.2305 23.3684 16.2305C17.4518 16.2305 12.6554 21.0268 12.6554 26.9435C12.6554 32.8601 17.4518 37.6565 23.3684 37.6565Z" fill="url(#paint0_linear)"/>
<path fill-rule="evenodd" clip-rule="evenodd" d="M23.3697 20.9084C26.7988 20.9084 29.5777 23.6838 29.5777 27.1086C29.5777 30.5334 26.7988 33.3088 23.3697 33.3088C19.9406 33.3088 17.1616 30.5334 17.1616 27.1086C17.1616 23.6838 19.9406 20.9084 23.3697 20.9084ZM10.3369 7.40247H16.1399C16.5398 7.40247 16.8649 7.72717 16.8649 8.1266C16.8649 8.52603 16.5398 8.85073 16.1399 8.85073H10.3369C9.937 8.85073 9.61189 8.52603 9.61189 8.1266C9.61189 7.72717 9.937 7.40247 10.3369 7.40247ZM31.9464 7.40247C32.3463 7.40247 32.6714 7.72717 32.6714 8.1266C32.6714 8.52603 32.3463 8.85073 31.9464 8.85073C31.5465 8.85073 31.2213 8.52603 31.2213 8.1266C31.2213 7.72717 31.5465 7.40247 31.9464 7.40247ZM35.3239 7.40247C35.7239 7.40247 36.049 7.72717 36.049 8.1266C36.049 8.52603 35.7239 8.85073 35.3239 8.85073C34.924 8.85073 34.5989 8.52603 34.5989 8.1266C34.5989 7.72717 34.924 7.40247 35.3239 7.40247ZM6.50528 11.0463H40.2341V5.96194C40.2341 5.56251 39.9064 5.23523 39.5065 5.23523H7.23033C6.83039 5.23523 6.5027 5.56251 6.5027 5.96194V11.0463H6.50528ZM40.2341 12.4946H6.50528V41.6994C6.50528 42.0988 6.83297 42.4261 7.23291 42.4261H39.5091C39.909 42.4261 40.2367 42.0988 40.2367 41.6994V12.4946H40.2341ZM7.23033 3.78955H39.5065C40.7037 3.78955 41.6842 4.7688 41.6842 5.96452V41.702C41.6842 42.8977 40.7037 43.8769 39.5065 43.8769H7.23033C6.0331 43.8769 5.05261 42.8977 5.05261 41.702V5.96452C5.05261 4.7688 6.0331 3.78955 7.23033 3.78955ZM23.3697 15.7132C29.6732 15.7132 34.7821 20.8156 34.7821 27.1112C34.7821 33.4067 29.6732 38.5091 23.3697 38.5091C17.0662 38.5091 11.9573 33.4067 11.9573 27.1112C11.9573 20.8156 17.0662 15.7132 23.3697 15.7132ZM23.3697 17.1615C28.8708 17.1615 33.332 21.617 33.332 27.1112C33.332 32.6053 28.8708 37.0608 23.3697 37.0608C17.8686 37.0608 13.4074 32.6053 13.4074 27.1112C13.4074 21.617 17.8686 17.1615 23.3697 17.1615ZM23.3697 22.3592C25.9964 22.3592 28.1276 24.4878 28.1276 27.1112C28.1276 29.7345 25.9964 31.8631 23.3697 31.8631C20.743 31.8631 18.6117 29.7345 18.6117 27.1112C18.6117 24.4878 20.743 22.3592 23.3697 22.3592Z" fill="#7ECA1D"/>
<defs>
<linearGradient id="paint0_linear" x1="12.6554" y1="16.2305" x2="36.8558" y2="20.0423" gradientUnits="userSpaceOnUse">
<stop stop-color="#E3EEFF"/>
<stop offset="0.526042" stop-color="#E4F6E4"/>
<stop offset="1" stop-color="#FFEEE4"/>
</linearGradient>
</defs>
</svg>
