<svg width="48" height="48" viewBox="0 0 48 48" fill="none" xmlns="http://www.w3.org/2000/svg">
<path fill-rule="evenodd" clip-rule="evenodd" d="M33.37 44.5966C30.0972 45.3001 25.809 45.7263 21.1135 45.7263C10.8475 45.7263 2.52637 43.6872 2.52637 41.1733C2.52637 38.7653 10.162 36.7919 19.8284 36.6289L18.8446 38.056C10.7242 38.2648 4.46826 39.5803 4.46826 41.1704C4.46826 42.9064 11.9203 44.3135 21.1135 44.3135C25.7574 44.3135 29.9595 43.9531 32.9771 43.3754L33.8663 44.1934L33.37 44.5937V44.5966Z" fill="#7ECA1D"/>
<path fill-rule="evenodd" clip-rule="evenodd" d="M24.3002 32.3677C22.9148 34.2238 21.3401 35.9998 19.774 37.3011L18.8733 38.0504L17.9697 37.3068C14.1376 34.1495 10.859 29.3391 8.92001 24.8033C7.56327 21.6288 6.65686 18.1511 6.65686 14.6849C6.65686 3.9174 19.7567 -1.52213 27.5071 6.05089C29.3658 7.86693 30.3697 10.0462 30.7713 12.3656C30.3009 12.4857 29.8391 12.6344 29.3888 12.8088C29.0503 10.6954 28.1726 8.70775 26.5146 7.05758C19.5416 0.328224 8.0681 5.26442 8.0681 14.6849C8.0681 22.9844 13.693 31.9559 18.8675 36.22C20.2128 35.1018 22.0055 33.1456 23.6893 30.8005C23.8757 31.3267 24.0794 31.8501 24.3002 32.3677ZM18.8675 11.3188C21.1164 11.3188 23.1414 13.112 23.1414 15.5801C23.1414 17.8223 21.1164 19.8414 18.8675 19.8414C16.3921 19.8414 14.5937 17.8223 14.5937 15.5801C14.5937 13.112 16.3921 11.3188 18.8675 11.3188ZM18.8675 12.7288C17.1752 12.7288 16.0078 13.8928 16.0078 15.5801C16.0078 17.153 17.2813 18.4314 18.8675 18.4314C20.3362 18.4314 21.7273 17.0444 21.7273 15.5801C21.7273 13.9986 20.4451 12.7288 18.8675 12.7288Z" fill="#7ECA1D"/>
<path fill-rule="evenodd" clip-rule="evenodd" d="M22.3212 23.1532C22.3413 13.2751 34.2622 8.30171 41.3041 15.2799C45.6899 19.6269 44.9011 25.9645 43.028 31.2582C42.4285 32.9512 41.5823 34.5928 40.653 36.1229C39.0955 38.6853 36.6717 41.9313 34.3253 43.8275L33.4132 44.5653L32.5183 43.8046C27.0024 39.1172 22.172 30.5317 22.3241 23.1503L22.3212 23.1532ZM40.3059 16.2808C34.1618 10.1664 23.7439 14.5191 23.7353 23.1704C23.5747 30.6547 28.7779 38.7797 33.4304 42.735C35.8542 40.7759 40.0535 35.508 41.6913 30.792C43.4353 25.9445 44.2212 20.1417 40.303 16.2837L40.3059 16.2808ZM33.4304 20.0616C35.5645 20.0616 37.2941 21.7862 37.2941 23.9139C37.2941 26.0417 35.5645 27.7662 33.4304 27.7662C31.2963 27.7662 29.5667 26.0417 29.5667 23.9139C29.5667 21.7862 31.2963 20.0616 33.4304 20.0616ZM33.4304 21.4716C32.0765 21.4716 30.9808 22.5641 30.9808 23.9139C30.9808 25.2638 32.0765 26.3563 33.4304 26.3563C34.7843 26.3563 35.88 25.2638 35.88 23.9139C35.88 22.5641 34.7843 21.4716 33.4304 21.4716Z" fill="#7ECA1D"/>
<path d="M40.3058 16.281C34.1617 10.1665 23.7438 14.5193 23.7352 23.1705C23.5746 30.6549 28.7778 38.7799 33.4332 42.7351C35.857 40.7761 40.0563 35.5082 41.6941 30.7922C43.4381 25.9446 44.224 20.1419 40.3058 16.2839V16.281ZM33.4303 20.0618C35.5644 20.0618 37.294 21.7863 37.294 23.9141C37.294 26.0419 35.5644 27.7664 33.4303 27.7664C31.2962 27.7664 29.5666 26.0419 29.5666 23.9141C29.5666 21.7863 31.2962 20.0618 33.4303 20.0618Z" fill="url(#paint0_linear)"/>
<defs>
<linearGradient id="paint0_linear" x1="23.7316" y1="13.4243" x2="45.9433" y2="15.7397" gradientUnits="userSpaceOnUse">
<stop stop-color="#E3EEFF"/>
<stop offset="0.526042" stop-color="#E4F6E4"/>
<stop offset="1" stop-color="#FFEEE4"/>
</linearGradient>
</defs>
</svg>
