<svg width="80" height="80" viewBox="0 0 80 80" fill="none" xmlns="http://www.w3.org/2000/svg">
<path d="M7.43098 75C7.71042 75 7.97589 74.9581 8.25533 74.8603L25.2314 68.9222L25.5248 69.0759C30.3032 71.5489 35.6825 72.8483 41.0897 72.8483C50.1436 72.8483 58.6665 69.3134 65.0797 62.9142C71.4929 56.501 75.0138 47.992 75.0138 38.9242C75.0138 29.8563 71.4789 21.3473 65.0797 14.9341C58.6525 8.53493 50.1436 5 41.0757 5C36.5907 5 32.2174 5.86627 28.0956 7.58483C23.9599 9.28942 20.2573 11.7764 17.0857 14.9341C10.6865 21.3473 7.15154 29.8563 7.15154 38.9242C7.15154 44.3174 8.45094 49.6966 10.924 54.489L11.0777 54.7824L5.13956 71.7445C4.83217 72.6387 5.04175 73.6168 5.71241 74.2735C6.18746 74.7485 6.78826 75 7.43098 75ZM13.6206 55.5649C13.8442 54.9222 13.7883 54.2096 13.4669 53.6088C11.0777 49.1098 9.80623 44.0379 9.80623 38.9381C9.80623 30.5828 13.0617 22.7305 18.9579 16.8343C24.8681 10.9102 32.7204 7.65469 41.0757 7.65469C49.431 7.65469 57.2833 10.9102 63.1795 16.8064C69.0897 22.7166 72.3451 30.5689 72.3451 38.9242C72.3451 47.2794 69.0897 55.1317 63.1935 61.0279C57.2833 66.9381 49.4449 70.1796 41.0897 70.1796C35.9759 70.1796 30.904 68.9222 26.419 66.519C25.8182 66.1976 25.0917 66.1417 24.4629 66.3653L7.79425 72.2056L13.6206 55.5649Z" fill="#7ECA1D"/>
<path d="M32.7347 21.8643C32.092 21.2216 31.2397 20.8862 30.3874 20.8862C29.5351 20.8862 28.6828 21.2076 28.0401 21.8643L24.2817 25.6228C22.3675 27.5369 22.3116 30.9461 24.1419 35.2076C25.8046 39.0918 28.8645 43.3673 32.7487 47.2515C36.633 51.1357 40.9084 54.1956 44.7926 55.8583C46.8605 56.7385 48.7328 57.1856 50.3535 57.1856C52.0581 57.1856 53.4134 56.6966 54.3914 55.7186L58.1918 51.9182C58.7926 51.2894 59.128 50.479 59.128 49.5988C59.128 48.7046 58.7787 47.8802 58.1499 47.2515L53.4413 42.5429C52.8126 41.9142 51.9743 41.5649 51.094 41.5649C50.2138 41.5649 49.3755 41.9142 48.7467 42.5429L46.595 44.6946L46.092 44.4152C41.635 41.984 38.0022 38.3513 35.585 33.9082L35.3056 33.4052L37.4573 31.2535C38.086 30.6248 38.4353 29.7864 38.4353 28.9062C38.4353 28.026 38.086 27.1876 37.4573 26.5589L32.7347 21.8643ZM33.2936 31.6587C32.5391 32.4132 32.3575 33.5449 32.8465 34.495C35.6409 39.986 40.0282 44.3593 45.5052 47.1537C46.4553 47.6287 47.5871 47.4471 48.3415 46.7066L51.0661 43.982L56.7108 49.6267L52.4773 53.8603C52.0162 54.3214 51.2617 54.5589 50.3116 54.5589C49.096 54.5589 47.5591 54.1816 45.8126 53.4411C42.2358 51.9042 38.2537 49.0539 34.593 45.3932C30.9463 41.7465 28.0821 37.7645 26.5451 34.1737C25.2178 31.0719 25.0501 28.5848 26.126 27.509L30.3595 23.2755L36.0042 28.9202L33.2936 31.6587Z" fill="#7ECA1D"/>
<path d="M33.2936 31.6587C32.5391 32.4132 32.3575 33.545 32.8465 34.4951C35.6409 39.9861 40.0281 44.3593 45.5052 47.1538C46.4553 47.6288 47.587 47.4472 48.3415 46.7066L51.0661 43.9821L56.7108 49.6268L52.4772 53.8603C52.0162 54.3214 51.2617 54.5589 50.3116 54.5589C49.096 54.5589 47.5591 54.1817 45.8126 53.4412C42.2357 51.9043 38.2537 49.054 34.593 45.3933C30.9463 41.7466 28.082 37.7645 26.5451 34.1737C25.2177 31.0719 25.0501 28.5849 26.1259 27.509L30.3595 23.2755L36.0042 28.9202L33.2936 31.6587Z" fill="url(#paint0_linear)"/>
<defs>
<linearGradient id="paint0_linear" x1="25.4209" y1="23.2755" x2="60.7621" y2="28.8432" gradientUnits="userSpaceOnUse">
<stop stop-color="#E3EEFF"/>
<stop offset="0.526042" stop-color="#E4F6E4"/>
<stop offset="1" stop-color="#FFEEE4"/>
</linearGradient>
</defs>
</svg>
